<svg xmlns:svg="http://www.w3.org/2000/svg" xmlns="http://www.w3.org/2000/svg" version="1.0" width="100" height="100" id="svg2211">
    <defs id="defs2214"/>
    <path d="M 5.2894394,45.417701 C 14.146847,37.524208 23.279068,30.386451 35.944915,32.966165 C 38.49459,5.3769948 68.451138,9.0483255 76.796639,35.474604 C 105.91303,38.996456 105.54411,79.308962 69.271322,71.667803 C 63.105132,91.571324 39.693613,83.34848 33.852127,70.812556 C 17.866978,56.524547 38.785994,46.89255 5.2894394,45.417701 z " style="opacity:1;color:#000000;fill:#ff5555;fill-opacity:1;fill-rule:nonzero;stroke:none;stroke-width:1;stroke-linecap:butt;stroke-linejoin:miter;marker:none;marker-start:none;marker-mid:none;marker-end:none;stroke-miterlimit:4;stroke-dasharray:none;stroke-dashoffset:0;stroke-opacity:1;visibility:visible;display:inline;overflow:visible;enable-background:accumulate" id="path3231"/>
    <path d="M 56.17954,26.459578 C 65.229204,33.095999 57.423278,43.277045 45.67335,41.936188 C 33.2091,40.513815 30.755924,15.449335 49.896521,13.31883 C 66.996604,11.415451 80.044555,25.82233 77.747863,42.936802" style="opacity:1;color:#000000;fill:none;fill-opacity:1;fill-rule:evenodd;stroke:#000000;stroke-width:5;stroke-linecap:round;stroke-linejoin:miter;marker:none;marker-start:none;marker-mid:none;marker-end:none;stroke-miterlimit:4;stroke-dasharray:none;stroke-dashoffset:0;stroke-opacity:1;visibility:visible;display:inline;overflow:visible;enable-background:accumulate" id="path2220"/>
    <path d="M 35.580248,32.886809 C 20.67945,30.606295 6.7542574,37.178754 5.5197902,47.005542 C 30.460603,41.8033 25.852201,53.389188 32.32747,70.942792 C 35.894649,80.612947 48.572362,88.437053 62.58631,82.102825 C 78.788341,74.779595 65.498924,54.048394 56.207195,67.953725" style="opacity:1;color:#000000;fill:none;fill-opacity:1;fill-rule:evenodd;stroke:#000000;stroke-width:5;stroke-linecap:round;stroke-linejoin:miter;marker:none;marker-start:none;marker-mid:none;marker-end:none;stroke-miterlimit:4;stroke-dasharray:none;stroke-dashoffset:0;stroke-opacity:1;visibility:visible;display:inline;overflow:visible;enable-background:accumulate" id="path4163"/>
    <path d="M 78.173154,35.065063 C 98.547425,32.117013 108.24534,73.68598 71.52098,73.43909" style="opacity:1;color:#000000;fill:none;fill-opacity:1;fill-rule:nonzero;stroke:#000000;stroke-width:5;stroke-linecap:round;stroke-linejoin:miter;marker:none;marker-start:none;marker-mid:none;marker-end:none;stroke-miterlimit:4;stroke-dasharray:none;stroke-dashoffset:0;stroke-opacity:1;visibility:visible;display:inline;overflow:visible;enable-background:accumulate" id="path3229"/>
</svg>