<svg xmlns="http://www.w3.org/2000/svg" width="200" height="550" version="1"><path d="M188.096 234.98c2.906 46.74 1.757 51.02-9.53 79.326-16.086 30.17-34.402 41.078-53.124 56.336-38.255 26.787-50.15 45.91-60.018 71.662-8.043 28.65-4.73 52.33 5.677 73.526 7.91 17.467 14.398 22.507 25.55 33.76-10.206-25.2-12.1-43.563-14.194-67.52 4.123-42.044 20.006-52.814 47.65-78.91 37.58-28.238 52.245-41.355 62.248-72.284 9.124-24.302 11.558-68.9-4.258-95.895z" fill-rule="evenodd" stroke="#000" stroke-width=".82"/><path d="M84.182.41c8.614 78.86-1.174 114.935-31.542 154.225C20.87 194.652-.248 230.465.426 265.783c2.742 44.82 28.244 88.898 88.854 89.942 29.045-.34 77.217-15.274 79.628-82.144-2.245-45.248-18.29-76.4-60.97-79.852-27.807.9-50.288 17.875-52.188 53.895 2.868 32.778 22.444 40.328 52.43 36.997-13.28-4.61-30.917-10.95-29.67-31.14-.673-3.176 2.526-29.85 31.15-31.047 19.46-.05 34.32 21.663 34.65 45.107-2.804 37.44-23.042 56.08-58.776 57.41-20.952.48-54.01-11.406-56.318-53.712 1.53-18.5 4.997-49.86 37.277-88.888 20.34-29.33 32.447-53.22 33.416-101.098C98.136 52.326 96.607 33.292 84.18.41z" fill-rule="evenodd" stroke="#000" stroke-width=".82"/></svg>