<svg xmlns:svg="http://www.w3.org/2000/svg" xmlns="http://www.w3.org/2000/svg" xmlns:sodipodi="http://sodipodi.sourceforge.net/DTD/sodipodi-0.dtd" xmlns:inkscape="http://www.inkscape.org/namespaces/inkscape" width="200.0002" height="150" id="svg2" sodipodi:version="0.32" inkscape:version="0.46" version="1.0" sodipodi:docname="Guardian Ninja Symbol.svg" inkscape:output_extension="org.inkscape.output.svg.inkscape">
    <defs id="defs4"/>
    <sodipodi:namedview id="base" pagecolor="#ffffff" bordercolor="#666666" borderopacity="1.0" gridtolerance="10000" guidetolerance="10" objecttolerance="50" inkscape:pageopacity="0.0" inkscape:pageshadow="2" inkscape:zoom="1" inkscape:cx="106.26853" inkscape:cy="76.579228" inkscape:document-units="px" inkscape:current-layer="svg2" showgrid="false" inkscape:snap-center="true" inkscape:object-nodes="true" inkscape:object-paths="false" showguides="true" inkscape:guide-bbox="true" inkscape:snap-global="true" inkscape:window-width="1280" inkscape:window-height="930" inkscape:window-x="-4" inkscape:window-y="-4"/>
    <g inkscape:label="Layer 1" inkscape:groupmode="layer" id="layer1" transform="translate(176.86098,-929.4243)">
        <path sodipodi:type="arc" style="fill:none;fill-opacity:0.50196078;stroke:#000000;stroke-width:1.1788801;stroke-linecap:round;stroke-linejoin:round;stroke-miterlimit:4;stroke-dasharray:none;stroke-opacity:1" id="path3172" sodipodi:cx="394.06696" sodipodi:cy="829.37054" sodipodi:rx="21.263597" sodipodi:ry="21.401674" d="M 415.33055,829.37054 A 21.263597,21.401674 0 1 1 372.80336,829.37054 A 21.263597,21.401674 0 1 1 415.33055,829.37054 z" transform="matrix(2.0117933,0,0,1.9988068,-869.64216,-674.32706)"/>
        <path style="fill:#000000;fill-opacity:1;stroke-width:1.35699999;stroke-miterlimit:4;stroke-dasharray:none" d="M -66.829293,956.61971 C -64.525654,973.03316 -65.349157,975.00701 -66.816389,983.97328 C -67.789654,989.12531 -67.724145,989.67008 -65.91843,991.44194 C -64.847148,992.49324 -61.590377,994.50119 -58.681156,995.90428 C -55.771947,997.30735 -53.159292,998.80194 -52.875275,999.22553 C -52.223433,1000.1978 -56.067443,1007.167 -58.268239,1009.0029 C -60.849997,1011.1568 -64.772267,1010.7635 -71.374829,1007.6888 C -76.681503,1005.2175 -77.699979,1005.0023 -79.386321,1005.9957 C -86.88788,1010.4145 -91.784756,1012.8751 -93.044405,1012.8586 C -93.852496,1012.8479 -95.389241,1012.1637 -96.459427,1011.338 C -97.529601,1010.5125 -99.153389,1008.7286 -100.06786,1007.3741 C -101.66133,1005.0139 -101.65881,1004.8381 -100.00714,1003.152 C -99.059282,1002.1843 -95.692898,999.49076 -92.526302,997.16641 L -86.768835,992.94026 C -84.750862,987.14702 -84.3093,981.60027 -83.578233,976.19522 C -82.367245,971.83647 -84.940844,961.69701 -86.122032,961.25571 C -87.572523,958.93236 -87.304752,956.99635 -87.190842,955.59857 C -87.076483,954.19903 -86.084592,954.01703 -78.441136,953.99312 C -69.514861,953.96518 -68.985843,954.08484 -66.829293,956.61971 z M -102.73668,985.01745 C -104.02924,984.32308 -104.35151,982.94983 -104.31072,978.31024 C -104.28251,975.10155 -104.7175,971.37565 -105.27735,970.03039 C -105.83719,968.68512 -106.29525,967.35788 -106.29525,967.08096 C -106.29525,966.80404 -103.47703,966.82005 -100.03251,967.11652 C -91.460166,967.8545 -90.272266,968.99136 -90.272266,976.45765 C -90.272266,981.77972 -90.509577,982.51408 -92.755701,984.14267 C -95.393374,986.05531 -100.0458,986.46304 -102.73668,985.01745 z M -60.111371,977.90087 C -60.111371,974.43316 -60.5085,970.31944 -60.993872,968.75942 L -61.876373,965.92277 C -62.035213,965.60465 -57.675019,966.29212 -55.574336,966.47685 C -48.146821,967.12982 -46.931583,968.14718 -47.576548,973.17268 C -48.82911,982.93274 -49.899967,984.40105 -57.048161,984.19393 C -61.473652,984.06574 -60.783193,982.37713 -60.111371,977.90087 z" id="path2398" sodipodi:nodetypes="ccssssssscsscccccsccsssssscccccscc"/>
        <path style="fill:none;fill-rule:evenodd;stroke:#000000;stroke-width:2.36399579;stroke-linecap:butt;stroke-linejoin:miter;stroke-miterlimit:4;stroke-dasharray:none;stroke-opacity:1" d="M -76.860937,1078.2423 L -175.67898,930.6063 L 21.95722,930.6063 L -76.860937,1078.2423 z" id="path3192"/>
    </g>
</svg>