<svg xmlns:svg="http://www.w3.org/2000/svg" xmlns="http://www.w3.org/2000/svg" xmlns:sodipodi="http://sodipodi.sourceforge.net/DTD/sodipodi-0.dtd" xmlns:inkscape="http://www.inkscape.org/namespaces/inkscape" width="300" height="300" id="svg2" version="1.1" inkscape:version="0.47 r22583" sodipodi:docname="Root Symbol.svg">
    <defs id="defs4"/>
    <sodipodi:namedview id="base" pagecolor="#ffffff" bordercolor="#666666" borderopacity="1.0" inkscape:pageopacity="0.0" inkscape:pageshadow="2" inkscape:zoom="0.35" inkscape:cx="366.5069" inkscape:cy="406.6033" inkscape:document-units="px" inkscape:current-layer="svg2" showgrid="false" inkscape:window-width="1280" inkscape:window-height="940" inkscape:window-x="-8" inkscape:window-y="-8" inkscape:window-maximized="1"/>
    <path d="M 286.01696,298.69567 C 227.54215,270.86956 193.64387,223.04353 184.32204,155.2174 l -22.88135,0 0,100.43477 c 16.94896,-3.47824 33.47437,-6.95648 49.57627,-10.43477 l 6.35593,22.17393 c -20.33919,6.9565 -50.84764,14.78259 -91.52543,23.47826 -1.69505,6.08692 -3.38996,7.39128 -5.08474,3.91304 l -8.89831,-30.00002 c 8.47445,-0.86955 16.52529,-2.17391 24.15254,-3.91304 l 0,-249.13044 137.28814,0 0,148.69567 -25.42372,0 0,-5.2174 -38.1356,0 c 3.38961,22.60877 8.05062,37.39139 13.98305,44.34784 l 38.1356,-33.91307 17.79661,19.56522 c 5.08445,5.21749 3.38953,7.3914 -5.08475,6.52176 l -40.67797,27.3913 C 246.60992,239.13047 268.6438,256.52175 300,271.30437 z M 83.898309,300 l -25.423728,0 0,-133.04347 c -8.47464,20.86964 -21.610218,41.73918 -39.406782,62.60869 L 0,204.7826 C 34.745718,164.78271 54.237228,125.65231 58.474581,87.39131 l -49.5762753,0 0,-24.78262 49.5762753,0 0,-62.60869 24.152541,0 c 6.779562,0.86983 7.203291,3.47851 1.271187,7.82609 l 0,54.7826 40.677971,0 0,24.78262 -40.677971,0 0,36.52175 c 16.949041,9.56534 30.084621,19.56534 39.406781,29.99998 l -12.71186,30.00002 C 101.27108,171.73925 92.372781,161.73925 83.898309,153.91304 z M 247.88137,95.2174 l -86.44068,0 0,35.21738 86.44068,0 z m 0,-58.69565 -86.44068,0 0,33.91303 86.44068,0 z" id="path2839"/>
</svg>