<svg width="100" height="100" xmlns="http://www.w3.org/2000/svg">
    <g>
        <title>Science Ninja Weapons Team</title>
        <path stroke-linecap="round" stroke-linejoin="round" d="m14.4209,37.3182l-12.40822,52.2275l48.16662,0l-35.7584,-52.2275l0,0z" id="svg_2" stroke-width="3" stroke="#1c1c1c" fill="#d3c6c1"></path>
        <circle id="svg_1" r="41.21913" cy="48.65466" cx="53.95836" stroke-width="3" stroke="#151019" fill="#9773b7"></circle>
        <g id="svg_17">
            <g id="svg_15" fill="#000000">
                <path stroke-linejoin="round" stroke-width="3" stroke="#443e0d" fill="#edd92e" id="svg_16" d="m48.6079,7.33132c-6.7614,0.87639 -13.4716,3.45578 -18.9555,7.31148c-2.8299,2.0032 -8.013,7.187 -10.0162,10.0162c-3.0298,4.3074 -5.7098,10.4174 -6.6857,15.2001c-0.9768,4.8822 -1.2524,12.1443 -0.5014,13.2213l0.3758,0.5504l38.1866,0l38.1613,0l0,0.5259c0,0.2756 -0.225,1.4024 -0.5006,2.5039c-1.6526,6.4109 -5.4586,13.4219 -9.5401,17.4789c-6.5862,6.60989 -19.4316,11.5181 -27.4447,10.5414c-5.3086,-0.6507 -9.5148,-1.9283 -14.0978,-4.2569c-3.9812,-2.0277 -6.8854,-4.1312 -9.6901,-6.9857c-2.2789,-2.3293 -2.3286,-2.3538 -3.656,-2.4794c-1.227,-0.1003 -1.4276,-0.0253 -2.1785,0.6262c-0.7012,0.6261 -0.8512,0.9515 -0.9515,2.15331l-0.1003,1.4023l3.2051,3.2051c3.7309,3.7064 6.4353,5.68439 10.6171,7.8377c13.7725,7.011 30.5992,5.8092 43.2449,-3.0803c2.8292,-2.0032 8.013,-7.1863 10.0163,-10.0155c3.0298,-4.3073 5.70889,-10.4174 6.6856,-15.2001c0.87659,-4.3571 1.1766,-9.1398 0.601,-9.7154c-0.22511,-0.225 -9.1896,-0.3009 -38.8381,-0.3009l-38.5616,0l0.15,-1.5768c0.7264,-7.788 5.1586,-17.3787 10.4672,-22.6872c6.5853,-6.6107 19.4308,-11.5181 27.4691,-10.5414c5.1333,0.6506 9.3648,1.903 13.7219,4.0815c5.0836,2.5536 8.4639,5.1333 11.4187,8.764c1.6274,2.0032 2.128,2.4541 2.6041,2.3791c0.3759,-0.0505 2.9547,-2.4297 7.2613,-6.711l6.6865,-6.6359l0.1247,-1.5776c0.1003,-1.4024 0.0506,-1.6274 -0.4508,-2.1786c-0.4754,-0.5259 -0.826,-0.6262 -1.92831,-0.6262c-0.75089,0 -1.6021,0.1256 -1.903,0.2756c-0.3,0.1508 -2.5535,2.2536 -4.9824,4.6824l-4.4321,4.4077l-1.8035,-1.7032c-5.2336,-4.958 -12.7199,-8.8887 -19.5059,-10.26634c-4.4076,-0.87639 -10.2666,-1.15181 -14.2731,-0.62601l0,0l0,-0.00001l0,-0.00001l0,-0.00001z"></path>
            </g>
        </g>
    </g>
</svg>