<svg xmlns:dc="http://purl.org/dc/elements/1.1/" xmlns:cc="http://creativecommons.org/ns#" xmlns:rdf="http://www.w3.org/1999/02/22-rdf-syntax-ns#" xmlns:svg="http://www.w3.org/2000/svg" xmlns="http://www.w3.org/2000/svg" xmlns:sodipodi="http://sodipodi.sourceforge.net/DTD/sodipodi-0.dtd" xmlns:inkscape="http://www.inkscape.org/namespaces/inkscape" width="99.999962" height="100" id="svg2917" sodipodi:version="0.32" inkscape:version="0.47 r22583" sodipodi:docname="Hyuuga Symbol 2.svg" inkscape:output_extension="org.inkscape.output.svg.inkscape" version="1.0">
    <defs id="defs2919">
        <inkscape:perspective sodipodi:type="inkscape:persp3d" inkscape:vp_x="0 : 526.18109 : 1" inkscape:vp_y="0 : 1000 : 0" inkscape:vp_z="744.09448 : 526.18109 : 1" inkscape:persp3d-origin="372.04724 : 350.78739 : 1" id="perspective2925"/>
        <inkscape:perspective id="perspective3910" inkscape:persp3d-origin="372.04724 : 350.78739 : 1" inkscape:vp_z="744.09448 : 526.18109 : 1" inkscape:vp_y="0 : 1000 : 0" inkscape:vp_x="0 : 526.18109 : 1" sodipodi:type="inkscape:persp3d"/>
    </defs>
    <sodipodi:namedview id="base" pagecolor="#ffffff" bordercolor="#666666" borderopacity="1.0" gridtolerance="10000" guidetolerance="10" objecttolerance="50" inkscape:pageopacity="0.0" inkscape:pageshadow="2" inkscape:zoom="1" inkscape:cx="-22.142759" inkscape:cy="43.357198" inkscape:document-units="px" inkscape:current-layer="layer1" showgrid="false" inkscape:snap-center="true" inkscape:object-nodes="true" inkscape:window-width="1276" inkscape:window-height="930" inkscape:window-x="-4" inkscape:window-y="-4" showguides="true" inkscape:guide-bbox="true" inkscape:window-maximized="0">
        <inkscape:grid type="xygrid" id="grid3783" visible="true" enabled="true" empspacing="5" snapvisiblegridlinesonly="true"/>
        <sodipodi:guide orientation="1,0" position="-228.31255,156.22705" id="guide4128"/>
    </sodipodi:namedview>
    <metadata id="metadata2922">
        <rdf:RDF>
            <cc:Work rdf:about="">
                <dc:format>image/svg+xml</dc:format>
                <dc:type rdf:resource="http://purl.org/dc/dcmitype/StillImage"/>
                <dc:title/>
            </cc:Work>
        </rdf:RDF>
    </metadata>
    <g inkscape:label="Layer 1" inkscape:groupmode="layer" id="layer1" transform="translate(6.7947504,-960.15688)">
        <g id="g3656" transform="matrix(0.89377204,0,0,0.89377204,-0.64541925,112.54194)" style="stroke-width:3.30021334;stroke-miterlimit:4;stroke-dasharray:none">
            <path sodipodi:end="4.7123887" sodipodi:start="1.5707963" sodipodi:type="arc" style="fill:#ffffff;fill-opacity:1;stroke:#000000;stroke-width:3.81396341;stroke-linecap:round;stroke-miterlimit:4;stroke-opacity:1;stroke-dasharray:none" id="path3926" sodipodi:cx="231.16742" sodipodi:cy="292.07822" sodipodi:rx="62.378513" sodipodi:ry="63.112377" d="m 231.16742,355.19059 c -34.4507,0 -62.37851,-28.25637 -62.37851,-63.11237 0,-34.856 27.9278,-63.11237 62.37849,-63.11238" transform="matrix(0.87037258,0,0,0.86025208,-152.13933,753.03877)" sodipodi:open="true"/>
            <path sodipodi:type="arc" style="fill:#ffffff;fill-opacity:1;stroke:#000000;stroke-width:7.62792873;stroke-linecap:round;stroke-miterlimit:4;stroke-opacity:1;stroke-dasharray:none" id="path3928" sodipodi:cx="231.16742" sodipodi:cy="292.07822" sodipodi:rx="62.378513" sodipodi:ry="63.112377" d="m 293.54593,292.07822 c 0,34.856 -27.92781,63.11237 -62.37851,63.11237 -34.4507,0 -62.37851,-28.25637 -62.37851,-63.11237 0,-34.85601 27.92781,-63.11238 62.37851,-63.11238 34.4507,0 62.37851,28.25637 62.37851,63.11238 z" transform="matrix(0.43518622,0,0,0.4301259,-51.53845,851.52294)"/>
            <path transform="matrix(0.87037258,0,0,0.86025208,-152.13933,753.03877)" d="m 231.16742,228.96584 c 34.4507,0 62.37851,28.25637 62.37851,63.11238 0,34.856 -27.92781,63.11237 -62.37851,63.11237" sodipodi:ry="63.112377" sodipodi:rx="62.378513" sodipodi:cy="292.07822" sodipodi:cx="231.16742" id="path3930" style="fill:#ffffff;fill-opacity:1;stroke:#000000;stroke-width:3.81396341;stroke-linecap:round;stroke-miterlimit:4;stroke-opacity:1;stroke-dasharray:none" sodipodi:type="arc" sodipodi:start="4.712389" sodipodi:end="7.8539816" sodipodi:open="true"/>
            <path sodipodi:open="true" sodipodi:end="7.8539816" sodipodi:start="4.712389" transform="matrix(0.43518622,0,0,0.4301259,-51.53845,905.81497)" d="m 231.16742,228.96584 c 34.4507,0 62.37851,28.25637 62.37851,63.11238 0,34.856 -27.92781,63.11237 -62.37851,63.11237" sodipodi:ry="63.112377" sodipodi:rx="62.378513" sodipodi:cy="292.07822" sodipodi:cx="231.16742" id="path3932" style="fill:#ffffff;fill-opacity:1;stroke:#000000;stroke-width:7.62792873;stroke-linecap:round;stroke-miterlimit:4;stroke-opacity:1;stroke-dasharray:none" sodipodi:type="arc"/>
            <path transform="matrix(0.12024882,0,0,0.11885061,21.264866,942.43966)" d="m 293.54593,292.07822 c 0,34.856 -27.92781,63.11237 -62.37851,63.11237 -34.4507,0 -62.37851,-28.25637 -62.37851,-63.11237 0,-34.85601 27.92781,-63.11238 62.37851,-63.11238 34.4507,0 62.37851,28.25637 62.37851,63.11238 z" sodipodi:ry="63.112377" sodipodi:rx="62.378513" sodipodi:cy="292.07822" sodipodi:cx="231.16742" id="path3934" style="fill:none;stroke:#000000;stroke-width:27.60583496;stroke-linecap:round;stroke-miterlimit:4;stroke-opacity:1;stroke-dasharray:none" sodipodi:type="arc"/>
            <path sodipodi:type="arc" style="fill:#ffffff;fill-opacity:1;stroke:#000000;stroke-width:27.60583496;stroke-linecap:round;stroke-miterlimit:4;stroke-opacity:1;stroke-dasharray:none" id="path3936" sodipodi:cx="231.16742" sodipodi:cy="292.07822" sodipodi:rx="62.378513" sodipodi:ry="63.112377" d="m 293.54593,292.07822 c 0,34.856 -27.92781,63.11237 -62.37851,63.11237 -34.4507,0 -62.37851,-28.25637 -62.37851,-63.11237 0,-34.85601 27.92781,-63.11238 62.37851,-63.11238 34.4507,0 62.37851,28.25637 62.37851,63.11238 z" transform="matrix(0.12024882,0,0,0.11885061,21.264866,996.73169)"/>
        </g>
    </g>
</svg>