<svg xmlns:dc="http://purl.org/dc/elements/1.1/" xmlns:cc="http://creativecommons.org/ns#" xmlns:rdf="http://www.w3.org/1999/02/22-rdf-syntax-ns#" xmlns:svg="http://www.w3.org/2000/svg" xmlns="http://www.w3.org/2000/svg" xmlns:xlink="http://www.w3.org/1999/xlink" xmlns:sodipodi="http://sodipodi.sourceforge.net/DTD/sodipodi-0.dtd" xmlns:inkscape="http://www.inkscape.org/namespaces/inkscape" id="svg2" sodipodi:version="0.32" inkscape:version="0.48.2 r9819" width="300.00015" height="300.00015" sodipodi:docname="Mangekyou Sharingan Sasuke (Eternal).svg" inkscape:output_extension="org.inkscape.output.svg.inkscape" version="1.0">
    <metadata id="metadata21">
        <rdf:RDF>
            <cc:Work rdf:about="">
                <dc:format>image/svg+xml</dc:format>
                <dc:type rdf:resource="http://purl.org/dc/dcmitype/StillImage"/>
            </cc:Work>
        </rdf:RDF>
    </metadata>
    <defs id="defs5">
        <inkscape:perspective sodipodi:type="inkscape:persp3d" inkscape:vp_x="0 : 150.00008 : 1" inkscape:vp_y="0 : 1000 : 0" inkscape:vp_z="300.00015 : 150.00008 : 1" inkscape:persp3d-origin="150.00008 : 100.00005 : 1" id="perspective23"/>
        <linearGradient id="linearGradient3443">
            <stop style="stop-color:#660000;stop-opacity:1;" offset="0" id="stop3451"/>
            <stop id="stop3455" offset="0.5" style="stop-color:#c30000;stop-opacity:1;"/>
            <stop id="stop3453" offset="1" style="stop-color:#a00000;stop-opacity:1;"/>
        </linearGradient>
        <radialGradient inkscape:collect="always" xlink:href="#linearGradient3443" id="radialGradient3201" gradientUnits="userSpaceOnUse" cx="297.5" cy="439.86218" fx="297.5" fy="439.86218" r="12.923014"/>
        <inkscape:perspective id="perspective2829" inkscape:persp3d-origin="0.5 : 0.33333333 : 1" inkscape:vp_z="1 : 0.5 : 1" inkscape:vp_y="0 : 1000 : 0" inkscape:vp_x="0 : 0.5 : 1" sodipodi:type="inkscape:persp3d"/>
        <radialGradient inkscape:collect="always" xlink:href="#linearGradient3443" id="radialGradient3014" gradientUnits="userSpaceOnUse" cx="297.5" cy="439.86218" fx="297.5" fy="439.86218" r="12.923014"/>
    </defs>
    <sodipodi:namedview inkscape:window-height="930" inkscape:window-width="1280" inkscape:pageshadow="2" inkscape:pageopacity="0.0" guidetolerance="10" gridtolerance="11" objecttolerance="50" borderopacity="1.0" bordercolor="#666666" pagecolor="#ffffff" id="base" showgrid="false" inkscape:snap-center="true" inkscape:object-paths="false" inkscape:object-nodes="true" inkscape:snap-global="true" inkscape:zoom="1.1935962" inkscape:cx="137.9024" inkscape:cy="76.62853" inkscape:window-x="-4" inkscape:window-y="-4" inkscape:current-layer="svg2" inkscape:snap-intersection-grid-guide="true" inkscape:snap-bbox="false" showguides="true" inkscape:guide-bbox="true" inkscape:window-maximized="0" inkscape:snap-intersection-paths="true"/>
    <g id="g3000" transform="matrix(-1,0,0,-1,300.00017,300.0002)">
        <path inkscape:export-ydpi="90" inkscape:export-xdpi="90" transform="matrix(11.678046,0,0,11.678046,-3324.2186,-4986.7307)" d="m 310,439.86218 c 0,6.90356 -5.59644,12.5 -12.5,12.5 -6.90356,0 -12.5,-5.59644 -12.5,-12.5 0,-6.90356 5.59644,-12.5 12.5,-12.5 6.90356,0 12.5,5.59644 12.5,12.5 z" sodipodi:ry="12.5" sodipodi:rx="12.5" sodipodi:cy="439.86218" sodipodi:cx="297.5" id="path3442" style="fill:url(#radialGradient3014);fill-opacity:1;fill-rule:nonzero;stroke:#000000;stroke-width:0.68924201;stroke-linecap:butt;stroke-linejoin:round;stroke-miterlimit:4;stroke-opacity:1;stroke-dasharray:none;stroke-dashoffset:0;marker:none;visibility:visible;display:inline;overflow:visible;enable-background:accumulate" sodipodi:type="arc"/>
        <path inkscape:connector-curvature="0" style="fill:#000000;fill-opacity:1;fill-rule:evenodd;stroke:none;stroke-width:5;marker:none;visibility:visible;display:inline;overflow:visible;enable-background:accumulate" d="m 275.29549,221.99838 c 24.96709,-31.73526 29.60811,-103.69678 0.27798,-144.498061 -11.65064,29.820521 -26.6578,53.998421 -44.95191,72.141021 16.83013,19.15064 34.30984,42.78151 44.67393,72.35704 z" id="use6120" sodipodi:nodetypes="cccc"/>
        <path inkscape:connector-curvature="0" style="fill:#000000;fill-opacity:1;fill-rule:evenodd;stroke:none;stroke-width:5;marker:none;visibility:visible;display:inline;overflow:visible;enable-background:accumulate" d="m 150.29579,294.5087 c 39.96708,5.7545 104.6081,-26.20703 125.27797,-72.0083 -31.65063,4.82051 -60.0929,3.91288 -84.9519,-2.85898 -8.16988,24.15064 -19.89496,51.10394 -40.32607,74.86728 z" id="use6122" sodipodi:nodetypes="cccc"/>
        <path inkscape:connector-curvature="0" style="fill:#000000;fill-opacity:1;fill-rule:evenodd;stroke:none;stroke-width:5;marker:none;visibility:visible;display:inline;overflow:visible;enable-background:accumulate" d="m 24.999572,222.51079 c 15,37.48976 75,77.48976 124.999998,72.48976 -20,-25 -33.4351,-50.08553 -40,-75 -24.999998,5 -54.204788,8.32244 -84.999998,2.51024 z" id="use6124" sodipodi:nodetypes="cccc"/>
        <path inkscape:connector-curvature="0" style="fill:#000000;fill-opacity:1;fill-rule:evenodd;stroke:none;stroke-width:5;marker:none;visibility:visible;display:inline;overflow:visible;enable-background:accumulate" d="M 24.704079,78.002274 C -0.26301131,109.73755 -4.9040213,181.69907 24.426099,222.50033 c 11.65064,-29.8205 26.6578,-53.9984 44.95191,-72.14101 -16.83013,-19.15063 -34.30984,-42.7815 -44.67393,-72.357046 z" id="use6126" sodipodi:nodetypes="cccc"/>
        <path inkscape:connector-curvature="0" style="fill:#000000;fill-opacity:1;fill-rule:evenodd;stroke:none;stroke-width:5;marker:none;visibility:visible;display:inline;overflow:visible;enable-background:accumulate" d="M 149.70438,5.4921131 C 109.73729,-0.26238694 45.096273,31.699134 24.426403,77.500403 c 31.65064,-4.820508 60.0929,-3.912877 84.951907,2.858984 8.16987,-24.150635 19.89495,-51.103944 40.32607,-74.8672739 z" id="use6128" sodipodi:nodetypes="cccc"/>
        <path inkscape:connector-curvature="0" sodipodi:nodetypes="ccccc" id="path4496" d="m 199.99999,150.0001 c 0,65 -30,125 -50,145 -20,-20 -50,-80 -50,-145 0,-65 30,-125 50,-144.9999996 20,19.9999996 50,79.9999996 50,144.9999996 z" style="fill:none;stroke:#000000;stroke-width:5;stroke-linecap:butt;stroke-linejoin:round;stroke-miterlimit:4;stroke-opacity:1;stroke-dasharray:none;stroke-dashoffset:0;marker:none;visibility:visible;display:inline;overflow:visible;enable-background:accumulate"/>
        <path inkscape:connector-curvature="0" style="fill:none;stroke:#000000;stroke-width:5;stroke-linecap:butt;stroke-linejoin:round;stroke-miterlimit:4;stroke-opacity:1;stroke-dasharray:none;stroke-dashoffset:0;marker:none;visibility:visible;display:inline;overflow:visible;enable-background:accumulate" d="M 124.99978,106.69906 C 181.29143,74.199056 248.25295,70.179826 275.57346,77.500326 268.25295,104.82084 231.29143,160.8016 174.99978,193.3016 c -56.29165,32.5 -123.253174,36.51923 -150.573684,29.19873 7.32051,-27.32051 44.28203,-83.30127 100.573684,-115.80127 z" id="use5939" sodipodi:nodetypes="ccccc"/>
        <path inkscape:connector-curvature="0" style="fill:none;stroke:#000000;stroke-width:5;stroke-linecap:butt;stroke-linejoin:round;stroke-miterlimit:4;stroke-opacity:1;stroke-dasharray:none;stroke-dashoffset:0;marker:none;visibility:visible;display:inline;overflow:visible;enable-background:accumulate" d="m 124.99998,193.30133 c -56.291653,-32.5 -93.253173,-88.48076 -100.573683,-115.801273 27.32051,-7.3205 94.282033,-3.30127 150.573683,29.198733 56.29165,32.5 93.25317,88.48076 100.57368,115.80127 -27.32051,7.3205 -94.28203,3.30127 -150.57368,-29.19873 z" id="use5941" sodipodi:nodetypes="ccccc"/>
        <path inkscape:connector-curvature="0" sodipodi:nodetypes="cccc" id="path6118" d="m 274.99999,77.489866 c -15,-37.48976 -75,-77.48975995543 -125,-72.48976 20,25 33.4351,50.08554 40,75 25,-5 54.20479,-8.32244 85,-2.51024 z" style="fill:#000000;fill-opacity:1;fill-rule:evenodd;stroke:none;stroke-width:5;marker:none;visibility:visible;display:inline;overflow:visible;enable-background:accumulate"/>
        <path inkscape:connector-curvature="0" id="path3643" d="m 150,41.25 c -9.04201,14.75303 -18.49856,62.98873 -21.4375,96.375 -27.44416,19.23817 -64.49451,51.54286 -72.75,66.74999 17.2975,0.45409 63.75722,-15.4769 94.1875,-29.625 30.43029,14.14811 76.89,30.0791 94.1875,29.625 C 235.932,189.16787 198.88156,156.86321 171.4375,137.625 168.49867,104.23869 159.04201,56.00303 150,41.25 z m 0,88.75 c 11.04569,0 20,8.95431 20,20 0,11.04569 -8.95431,20 -20,20 -11.04569,0 -20,-8.95431 -20,-20 0,-11.04569 8.95431,-20 20,-20 z" style="fill:#000000;fill-opacity:1;stroke:none"/>
        <path transform="matrix(1.575429,0.27779064,-0.27779064,1.575429,-196.50055,-625.6143)" d="m 310,439.86218 c 0,6.90356 -5.59644,12.5 -12.5,12.5 -6.90356,0 -12.5,-5.59644 -12.5,-12.5 0,-6.90356 5.59644,-12.5 12.5,-12.5 6.90356,0 12.5,5.59644 12.5,12.5 z" sodipodi:ry="12.5" sodipodi:rx="12.5" sodipodi:cy="439.86218" sodipodi:cx="297.5" id="path3982" style="fill:#a00000;fill-opacity:1;fill-rule:nonzero;stroke:none;stroke-width:1;marker:none;visibility:visible;display:inline;overflow:visible;enable-background:accumulate" sodipodi:type="arc"/>
    </g>
</svg>