<svg xmlns="http://www.w3.org/2000/svg" xmlns:xlink="http://www.w3.org/1999/xlink" width="1000" height="1000"><defs><marker orient="auto" id="N" overflow="visible"><path d="M-5.23-2.42L1.323-.01-5.23 2.4c1.046-1.422 1.04-3.37 0-4.82z" font-size="12" fill-rule="evenodd" stroke-width=".625" stroke-linejoin="round"/></marker><linearGradient id="a"><stop offset="0" stop-color="#ad0000"/><stop offset="1" stop-color="#140000"/></linearGradient><radialGradient xlink:href="#b" id="X" cx="50" cy="50" fx="50" fy="50" r="50" gradientUnits="userSpaceOnUse"/><linearGradient id="b"><stop offset="0" stop-color="#734a12"/><stop offset="1" stop-color="#358e20"/></linearGradient><radialGradient xlink:href="#c" id="T" gradientUnits="userSpaceOnUse" cx="225" cy="392.362" fx="225" fy="392.362" r="26.5" gradientTransform="matrix(1.8868 0 0 1.8868 -374.528 -690.306)"/><linearGradient id="c"><stop offset="0" stop-color="#00f89e"/><stop offset="1" stop-color="#00a86b"/></linearGradient><radialGradient xlink:href="#d" id="P" gradientUnits="userSpaceOnUse" cx="115" cy="447.362" fx="115" fy="447.362" r="26.5" gradientTransform="matrix(1.8868 0 0 1.8868 -166.98 -794.08)"/><linearGradient id="d"><stop offset="0" stop-color="#51a8ff"/><stop offset="1" stop-color="#007fff"/></linearGradient><radialGradient xlink:href="#e" id="U" gradientUnits="userSpaceOnUse" gradientTransform="matrix(1.8868 0 0 1.8868 -166.98 -690.306)" cx="115" cy="392.362" fx="115" fy="392.362" r="26.5"/><linearGradient id="e"><stop offset="0" stop-color="#7e8e99"/><stop offset="1" stop-color="#0f011b"/></linearGradient><radialGradient xlink:href="#f" id="Q" gradientUnits="userSpaceOnUse" cx="280" cy="392.362" fx="280" fy="392.362" r="26.5" gradientTransform="matrix(1.8868 0 0 1.8868 -478.302 -690.306)"/><linearGradient id="f"><stop offset="0" stop-color="#fff101"/><stop offset="1" stop-color="#ccc000"/></linearGradient><radialGradient xlink:href="#g" id="V" gradientUnits="userSpaceOnUse" cx="115" cy="392.362" fx="115" fy="392.362" r="26.5" gradientTransform="matrix(1.8868 0 0 1.8868 -166.98 -690.306)"/><linearGradient id="g"><stop offset="0" stop-color="red"/><stop offset="1" stop-color="#734a12"/></linearGradient><radialGradient xlink:href="#h" id="R" cx="50" cy="50" fx="50" fy="50" r="50" gradientUnits="userSpaceOnUse"/><linearGradient id="h"><stop offset="0" stop-color="red"/><stop offset="1" stop-color="#b00000"/></linearGradient><radialGradient xlink:href="#i" id="S" gradientUnits="userSpaceOnUse" cx="280" cy="337.362" fx="280" fy="337.362" r="26.5" gradientTransform="matrix(1.8868 0 0 1.8868 -478.302 -586.532)"/><linearGradient id="i"><stop offset="0" stop-color="#ba771c"/><stop offset="1" stop-color="#734a12"/></linearGradient><linearGradient id="j"><stop offset="0" stop-color="#9c9c9c"/><stop offset="1" stop-color="#a66f24"/></linearGradient><radialGradient xlink:href="#k" id="O" cx="50" cy="50" fx="50" fy="50" r="50" gradientUnits="userSpaceOnUse"/><linearGradient id="k"><stop offset="0" stop-color="#fff"/><stop offset="1" stop-color="#b00000"/></linearGradient><radialGradient xlink:href="#l" id="W" cx="50" cy="50" fx="50" fy="50" r="50" gradientUnits="userSpaceOnUse"/><linearGradient id="l"><stop offset="0" stop-color="#00f89e"/><stop offset="1" stop-color="#badcff"/></linearGradient><radialGradient xlink:href="#f" id="v" cx="368.985" cy="674.006" fx="368.985" fy="674.006" r="176.196" gradientTransform="matrix(1 0 0 .7343 0 179.082)" gradientUnits="userSpaceOnUse"/><radialGradient xlink:href="#f" id="G" cx="474.79" cy="597.134" fx="474.79" fy="597.134" r="70.391" gradientTransform="matrix(1 0 0 2.9301 0 -1152.53)" gradientUnits="userSpaceOnUse"/><radialGradient xlink:href="#f" id="F" cx="409.399" cy="798.388" fx="409.399" fy="798.388" r="135.782" gradientTransform="matrix(1 0 0 .03682 0 768.988)" gradientUnits="userSpaceOnUse"/><radialGradient xlink:href="#f" id="E" cx="580.595" cy="674.006" fx="580.595" fy="674.006" r="45.414" gradientTransform="matrix(1 0 0 2.84894 0 -1246.194)" gradientUnits="userSpaceOnUse"/><radialGradient xlink:href="#i" id="J" cx="188.248" cy="674.006" fx="188.248" fy="674.006" r="176.196" gradientTransform="matrix(1 0 0 .7343 0 179.082)" gradientUnits="userSpaceOnUse"/><radialGradient xlink:href="#i" id="w" cx="82.443" cy="597.134" fx="82.443" fy="597.134" r="70.391" gradientTransform="matrix(1 0 0 2.9301 0 -1152.53)" gradientUnits="userSpaceOnUse"/><radialGradient xlink:href="#i" id="I" cx="-23.362" cy="674.006" fx="-23.362" fy="674.006" r="45.414" gradientTransform="matrix(1 0 0 2.84893 0 -1246.193)" gradientUnits="userSpaceOnUse"/><radialGradient xlink:href="#i" id="H" cx="147.834" cy="798.388" fx="147.834" fy="798.388" r="135.782" gradientTransform="matrix(1 0 0 .03682 0 768.988)" gradientUnits="userSpaceOnUse"/><radialGradient xlink:href="#d" id="D" cx="26.593" cy="425.244" fx="26.593" fy="425.244" r="176.196" gradientTransform="matrix(1 0 0 .7343 0 112.986)" gradientUnits="userSpaceOnUse"/><radialGradient xlink:href="#d" id="u" cx="67.006" cy="300.863" fx="67.006" fy="300.863" r="216.61" gradientTransform="matrix(1 0 0 .02308 0 293.918)" gradientUnits="userSpaceOnUse"/><radialGradient xlink:href="#d" id="C" cx="-38.799" cy="223.991" fx="-38.799" fy="223.991" r="110.805" gradientTransform="matrix(1 0 0 .73888 0 58.488)" gradientUnits="userSpaceOnUse"/><radialGradient xlink:href="#d" id="B" cx="-104.19" cy="425.244" fx="-104.19" fy="425.244" r="45.414" gradientTransform="matrix(1 0 0 2.84893 0 -786.248)" gradientUnits="userSpaceOnUse"/><radialGradient xlink:href="#h" id="A" cx="213.225" cy="194.628" fx="213.225" fy="194.628" r="70.391" gradientTransform="matrix(1 0 0 2.9301 0 -375.652)" gradientUnits="userSpaceOnUse"/><radialGradient xlink:href="#h" id="t" cx="344.008" cy="194.628" fx="344.008" fy="194.628" r="70.391" gradientTransform="matrix(1 0 0 2.9301 0 -375.653)" gradientUnits="userSpaceOnUse"/><radialGradient xlink:href="#h" id="z" cx="172.811" cy="70.247" fx="172.811" fy="70.247" r="110.805" gradientTransform="matrix(1 0 0 .73888 0 18.343)" gradientUnits="userSpaceOnUse"/><radialGradient xlink:href="#h" id="y" cx="384.422" cy="70.247" fx="384.422" fy="70.247" r="110.805" gradientTransform="matrix(1 0 0 .73888 0 18.343)" gradientUnits="userSpaceOnUse"/><radialGradient xlink:href="#c" id="x" cx="530.64" cy="425.244" fx="530.64" fy="425.244" r="176.196" gradientTransform="matrix(1 0 0 .7343 0 112.986)" gradientUnits="userSpaceOnUse"/><radialGradient xlink:href="#c" id="M" cx="490.227" cy="300.863" fx="490.227" fy="300.863" r="216.61" gradientTransform="matrix(1 0 0 .02308 0 293.918)" gradientUnits="userSpaceOnUse"/><radialGradient xlink:href="#c" id="L" cx="661.423" cy="425.244" fx="661.423" fy="425.244" r="45.414" gradientTransform="matrix(1 0 0 2.84893 0 -786.247)" gradientUnits="userSpaceOnUse"/><radialGradient xlink:href="#c" id="K" cx="596.032" cy="223.991" fx="596.032" fy="223.991" r="110.805" gradientTransform="matrix(1 0 0 .73888 0 58.488)" gradientUnits="userSpaceOnUse"/><linearGradient id="m"><stop offset="0" stop-color="#afafaf"/><stop offset="1" stop-color="gray"/></linearGradient><radialGradient xlink:href="#n" id="aa" cx="50" cy="50" fx="50" fy="50" r="50" gradientUnits="userSpaceOnUse"/><linearGradient id="n"><stop offset="0" stop-color="#ffefb1"/><stop offset=".5" stop-color="#ffaa37"/><stop offset="1" stop-color="#b00000"/></linearGradient><linearGradient id="o"><stop offset="0" stop-color="#ffff64"/><stop offset=".5" stop-color="red"/><stop offset="1" stop-color="#600"/></linearGradient><radialGradient xlink:href="#p" id="Y" cx="50" cy="50" fx="50" fy="50" r="50" gradientUnits="userSpaceOnUse"/><linearGradient id="p"><stop offset="0" stop-color="#ffff64"/><stop offset=".5" stop-color="red"/><stop offset="1" stop-color="#600"/></linearGradient><radialGradient xlink:href="#q" id="Z" cx="50" cy="50" fx="50" fy="50" r="50" gradientUnits="userSpaceOnUse"/><linearGradient id="q"><stop offset="0" stop-color="#b051ff"/><stop offset="1" stop-color="#8b00ff"/></linearGradient><radialGradient xlink:href="#r" id="ab" cx="50" cy="50" fx="50" fy="50" r="50" gradientUnits="userSpaceOnUse"/><linearGradient id="r"><stop offset="0" stop-color="#fff"/><stop offset=".5" stop-color="#323232"/><stop offset="1" stop-color="#79443b"/></linearGradient><radialGradient xlink:href="#s" id="ac" cx="50" cy="50" fx="50" fy="50" r="50" gradientUnits="userSpaceOnUse"/><linearGradient id="s"><stop offset="0" stop-color="#fff"/><stop offset=".5" stop-color="#b52ea4"/><stop offset="1" stop-color="#5c3e98"/></linearGradient></defs><path d="M278.616-6.625L409.4 395.88" fill="none" stroke="url(#t)" stroke-width="10" transform="translate(221.383 61.625)"/><path d="M-144.604 300.863h423.22" fill="none" stroke="url(#u)" stroke-width="10" transform="translate(221.383 61.625)"/><path d="M540.18 798.388L197.79 549.625" fill="none" stroke="url(#v)" stroke-width="10" transform="translate(221.383 61.625)"/><path d="M17.052 798.388L147.834 395.88" fill="none" stroke="url(#w)" stroke-width="10" transform="translate(221.383 61.625)"/><path d="M701.837 300.863L359.444 549.625" fill="none" stroke="url(#x)" stroke-width="10" transform="translate(221.383 61.625)"/><path d="M278.616-6.625l211.61 153.744" fill="none" stroke="url(#y)" stroke-width="10" transform="translate(221.383 61.625)"/><path d="M278.616-6.625L67.006 147.12" fill="none" stroke="url(#z)" stroke-width="10" transform="translate(221.383 61.625)"/><path d="M278.616-6.625L147.834 395.88" fill="none" stroke="url(#A)" stroke-width="10" transform="translate(221.383 61.625)"/><path d="M-144.604 300.863l80.828 248.762" fill="none" stroke="url(#B)" stroke-width="10" transform="translate(221.383 61.625)"/><path d="M67.006 147.12l-211.61 153.743" fill="none" stroke="url(#C)" stroke-width="10" transform="translate(221.383 61.625)"/><path d="M197.79 549.625l-342.394-248.762" fill="none" stroke="url(#D)" stroke-width="10" transform="translate(221.383 61.625)"/><path d="M540.18 798.388l80.83-248.763" fill="none" stroke="url(#E)" stroke-width="10" transform="translate(221.383 61.625)"/><path d="M278.616 798.388H540.18" fill="none" stroke="url(#F)" stroke-width="10" transform="translate(221.383 61.625)"/><path d="M540.18 798.388L409.4 395.88" fill="none" stroke="url(#G)" stroke-width="10" transform="translate(221.383 61.625)"/><path d="M17.052 798.388h261.564" fill="none" stroke="url(#H)" stroke-width="10" transform="translate(221.383 61.625)"/><path d="M-63.776 549.625l80.828 248.763" fill="none" stroke="url(#I)" stroke-width="10" transform="translate(221.383 61.625)"/><path d="M17.052 798.388l342.392-248.763" fill="none" stroke="url(#J)" stroke-width="10" transform="translate(221.383 61.625)"/><path d="M701.837 300.863L490.227 147.12" fill="none" stroke="url(#K)" stroke-width="10" transform="translate(221.383 61.625)"/><path d="M621.01 549.625l80.827-248.762" fill="none" stroke="url(#L)" stroke-width="10" transform="translate(221.383 61.625)"/><path d="M701.837 300.863h-423.22" fill="none" stroke="url(#M)" stroke-width="10" transform="translate(221.383 61.625)"/><path transform="matrix(6.67466 0 0 6.29325 850.606 -3605.35)" d="M13.265 640.91c3.422 22.154-3.278 44.716-18.054 60.79" fill="none" stroke="#000" stroke-width="1.543" marker-end="url(#N)"/><path d="M2.83 31.132l9.434-9.434v-9.434h9.434l9.434-9.434h37.736l9.434 9.434h9.434v9.434l9.434 9.434v37.736l-9.434 9.434v9.434h-9.434l-9.434 9.434H31.132l-9.434-9.434h-9.434v-9.434L2.83 68.868V31.132z" fill="url(#O)" fill-rule="evenodd" stroke="#000" stroke-width="5.66" transform="translate(238.39 158.744)"/><path d="M308.71 206.193v-1.458h-5.08v6.317h13.062l-.968 12.875c-.322 3.725-2.096 5.588-5.32 5.588h-3.63l-.484-4.616h2.66c1.614 0 2.42-.973 2.42-2.916l.242-6.317h-7.983v20.65h-4.84v-20.65h-5.562c.16 11.014-5.08 18.14-15.724 21.38l-1.935-5.103c8.546-2.267 12.82-7.693 12.82-16.277h-5.564l-.484 3.887-4.838-.243 1.694-19.19h9.192v-6.56h-10.886v-4.616h10.886v-8.502h4.596c1.29.162 1.37.648.242 1.457v7.044h5.563v-8.502h4.598c1.29.162 1.37.648.24 1.457v7.044h9.92v17.25h-4.84zm-44.268-8.746c4.032 1.782 7.176 3.887 9.434 6.317l-3.145 4.858c-2.418-2.59-5.4-4.94-8.95-7.045l2.662-4.13zm23.948 13.605v-6.317h-4.596l-.484 6.317h5.08zm10.4-6.317h-5.562v6.317h5.563v-6.317zm0-4.615v-6.56h-5.562v6.56h5.563zm9.92 0v-6.56h-5.08v6.56h5.08zm-42.333-17.006c3.87 1.62 7.015 3.644 9.434 6.073l-3.143 4.616c-2.258-2.105-5.322-4.21-9.193-6.316l2.903-4.373zm-6.29 48.83c5.323-6.64 8.95-12.794 10.886-18.463l4.113 2.916c-1.452 4.697-4.516 10.69-9.193 17.977.323 1.296.08 1.62-.725.972l-5.08-3.4z" font-size="17.238" font-family="Bitstream Vera Sans"/><path d="M2.83 31.132L31.132 2.83h37.736L97.17 31.132v37.736L68.868 97.17H31.132L2.83 68.868V31.132z" fill="url(#P)" fill-rule="evenodd" stroke="#000" stroke-width="5.66" transform="translate(26.78 312.487)"/><path d="M102.14 387c-9.637-6.74-17.07-16.51-22.297-29.314v29.06c0 2.696-1.307 4.043-3.92 4.043H70.04l-.98-4.802h4.902c.653 0 .98-.337.98-1.01v-50.792h4.656c1.307.168 1.388.673.245 1.516v7.328c0 3.706 1.388 8.086 4.166 13.14 3.756-2.695 7.92-6.907 12.495-12.635l4.41 4.55c.818 1.347.328 1.852-1.47 1.515-3.92 3.706-8.33 7.328-13.23 10.866 4.736 8.592 11.026 15.5 18.867 20.72l-2.94 5.813zm-30.628-34.873c-2.614 16.004-9.394 27.628-20.34 34.872l-2.694-5.308c8.985-5.222 14.866-14.572 17.643-28.05H51.91v-4.8h14.21l1.47-2.022 4.167 3.033c1.143.674 1.06 1.432-.245 2.274z" font-size="63.702" font-family="Bitstream Vera Sans"/><path d="M2.83 31.132L31.132 2.83h37.736L97.17 31.132v37.736L68.868 97.17H31.132L2.83 68.868V31.132z" fill="url(#Q)" fill-rule="evenodd" stroke="#000" stroke-width="5.66" transform="translate(711.564 810.013)"/><path d="M779.335 887.55v-2.04h-35.278v2.804h-4.476v-26.007h44.23v25.243h-4.475zm-35.278-21.163v5.1h15.27v-5.1h-15.27zm19.745 9.18v5.863h15.533v-5.864h-15.533zm-19.745 0v5.863h15.27v-5.864h-15.27zm19.745-9.18v5.1h15.533v-5.1h-15.533zm3.16-11.984h15.533v3.06h-15.533v-3.06zm0-6.63h15.533v3.06h-15.533v-3.06zm-26.328 6.63h15.533v3.06h-15.533v-3.06zm0-6.63h15.533v3.06h-15.533v-3.06zm18.693-7.648v-4.335h-21.062v-4.08h46.6v4.08H763.8v4.335h26.064v10.964h-4.475v-6.886h-21.588v15.81h-4.475v-15.81h-21.59v7.14h-4.474v-11.22h26.064z" style="text-align:start;line-height:125%;-inkscape-font-specification:MS Gothic" font-size="66.327" font-family="MS Gothic"/><path d="M2.83 31.132L31.132 2.83h37.736L97.17 31.132v37.736L68.868 97.17H31.132L2.83 68.868V31.132z" fill="url(#R)" fill-rule="evenodd" stroke="#000" stroke-width="5.66" transform="translate(450 5)"/><path d="M499.87 59.188c-3.652 11-12 19.037-25.042 24.114l-3.13-6.346c16.346-5.076 24.52-15.145 24.52-30.205V26.7l6 .508c1.042.338 1.042 1.015 0 2.03V46.75c0 13.03 8.694 22.845 26.084 29.445l-2.61 6.345c-13.04-5.076-21.65-12.86-25.822-23.352zm23.476-16.752c-3.304 6.768-6.087 11.59-8.347 14.468l-5.218-3.3c3.13-4.06 6-9.307 8.608-15.737l5.738 2.792c1.044.506.783 1.1-.782 1.776zm-47.214 13.452c2.435-4.4 3.565-10.068 3.39-17.006l6.523 1.523c1.39.508 1.39 1.1 0 1.777 0 4.907-1.13 10.153-3.39 15.737l-6.523-2.032z" style="-inkscape-font-specification:MS Gothic" font-size="65.872" font-family="MS Gothic"/><path d="M2.83 31.132L31.132 2.83h37.736L97.17 31.132v37.736L68.868 97.17H31.132L2.83 68.868V31.132z" fill="url(#S)" fill-rule="evenodd" stroke="#000" stroke-width="5.66" transform="translate(188.436 810.013)"/><path style="text-align:start;line-height:125%;-inkscape-font-specification:MS Gothic" d="M241.057 831.71c1.747.375 1.834 1.122.262 2.243v15.412h20.44v6.165h-20.44v26.62h25.418v6.165h-56.604v-6.165h25.157v-26.62h-20.44v-6.165h20.44V831.71h5.767z" font-size="36.767" font-family="MS Gothic"/><path d="M2.83 31.132L31.132 2.83h37.736L97.17 31.132v37.736L68.868 97.17H31.132L2.83 68.868V31.132z" fill="url(#T)" fill-rule="evenodd" stroke="#000" stroke-width="5.66" transform="translate(873.22 312.487)"/><path d="M906.62 381.138l12.898-.522v-10.434h-5.254v4.174h-4.06V354.27h9.314v-4.955l-9.792.26-1.433-4.956c9.235.173 16.957-.435 23.167-1.826l3.105 4.695c.16 1.216-.32 1.477-1.433.78l-9.554.784v5.217h9.554v15.912h-9.554v10.173l7.404-.782-3.582-4.956 3.82-2.87c3.345 3.826 6.13 7.913 8.36 12.26l-4.538 3.13-2.15-3.912-23.405 3.39c-.16 1.218-.557 1.48-1.194.783l-1.672-6.26zm37.737-3.913c1.433 3.826 2.388 2.435 2.866-4.173l4.3 3.912c-.638 5.913-1.593 9.39-2.867 10.434-2.707 2.26-5.493 0-8.36-6.782-1.91-4.52-2.865-11.042-2.865-19.563v-21.91h-31.048v28.43c0 8.348-2.707 15.565-8.12 21.65l-3.344-4.955c4.458-4.52 6.688-10.52 6.688-17.998v-32.084h40.6v26.606c0 7.13.718 12.608 2.15 16.433zm-15.285-18.78h-5.494v7.564h5.494v-7.566zm-9.554 0h-5.254v7.564h5.254v-7.566z" style="text-align:start;line-height:125%;-inkscape-font-specification:MS Gothic" font-size="63.897" font-family="MS Gothic"/><path d="M2.83 31.132l9.434-9.434v-9.434h9.434l9.434-9.434h37.736l9.434 9.434h9.434v9.434l9.434 9.434v37.736l-9.434 9.434v9.434h-9.434l-9.434 9.434H31.132l-9.434-9.434h-9.434v-9.434L2.83 68.868V31.132z" fill="url(#U)" fill-rule="evenodd" stroke="#000" stroke-width="5.66" transform="translate(369.172 561.25)"/><path d="M402.652 629.462l12.39-.492v-6.89h-5.102v3.198h-4.13V611.25h9.232v-3.2l-9.96.493-.73-3.446c9.556-.328 17.573-1.148 24.052-2.46l1.457 3.937-10.688 1.23v3.446h8.99v10.83h-8.99v6.397l6.073-.246-2.186-2.952 3.4-1.97c2.267 2.462 4.454 5.415 6.56 8.86l-4.13 2.216-1.7-2.46-22.35 1.968c-.325 1.148-.65 1.394-.973.738l-1.215-5.168zm44.215-5.415l-.486 2.708c-1.457 8.53-4.453 10.5-8.988 5.906-3.24-3.28-4.86-8.777-4.86-16.488v-15.504h-30.608v17.473c0 6.564-2.592 12.798-7.774 18.705l-3.887-3.692c4.534-4.266 6.802-9.434 6.802-15.504v-20.92h40.327v19.442c0 5.25.73 8.942 2.187 11.075.808 1.312 1.375 1.23 1.7-.246l.97-5.168 4.617 2.215zm-22.836-4.922v-4.922h-4.858v4.922h4.86zm-8.988 0v-4.922h-5.102v4.922h5.102zm22.836-36.177c1.296.164 1.377.656.243 1.477v8.86h-42.027v-10.337h4.616c1.295.164 1.376.656.242 1.477v4.922h13.36v-9.106h4.617c1.295.165 1.376.657.242 1.477v7.63h14.09v-6.4h4.616z" font-size="61.151" font-family="Bitstream Vera Sans"/><path d="M2.83 31.132l9.434-9.434v-9.434h9.434l9.434-9.434h37.736l9.434 9.434h9.434v9.434l9.434 9.434v37.736l-9.434 9.434v9.434h-9.434l-9.434 9.434H31.132l-9.434-9.434h-9.434v-9.434L2.83 68.868V31.132z" fill="url(#V)" fill-rule="evenodd" stroke="#000" stroke-width="5.66" transform="translate(319.218 407.506)"/><path d="M358.98 466.366c7.87-2.953 13.57-8.778 17.103-17.473l5.3.738c.64.657.4 1.067-.724 1.232 3.853 6.562 9.473 11.566 16.86 15.012l-1.927 4.922c-1.927-.82-3.854-1.97-5.78-3.446v17.474h-4.096v-2.215h-14.452v3.198h-4.095V467.35c-1.445 1.313-3.452 2.544-6.02 3.692l-2.17-4.676zm2.89-12.55c4.016-3.283 6.826-6.81 8.432-10.584l4.335 2.707c.643.82.32 1.066-.963.738-1.927 3.937-4.818 7.547-8.67 10.828l-3.133-3.69zm30.59 2.46c-4.334-2.297-8.027-5.99-11.078-11.075l3.613-2.214c2.57 3.774 5.94 6.81 10.116 9.106l-2.65 4.184zm-45.763-12.06c0 6.07-.402 11.814-1.205 17.228l-4.576-1.97c.642-5.413 1.044-11.156 1.204-17.226l5.058.492c.643.492.482.985-.48 1.477zm2.65-14.027h4.576c1.284.163 1.365.655.24 1.475v14.274l4.095-4.923 3.372 2.954v-7.875h13.97v-6.89h4.577c1.285.164 1.365.656.24 1.476v5.415h14.694v11.075h-4.094v-7.137h-25.29v7.63h-4.096v-2.708l-7.466 5.907v14.274c3.21 2.79 6.342 6.316 9.393 10.582l-3.613 4.184c-1.445-2.954-3.773-6.153-6.985-9.598-1.767 6.562-4.336 11.65-7.708 15.258l-3.373-4.43c4.977-5.578 7.466-12.96 7.466-22.15V430.19zm38.538 35.93c-3.693-2.625-6.905-6.4-9.635-11.32-1.927 4.43-5.138 8.203-9.634 11.32h19.27zm-2.168 12.55v-8.612h-14.452v8.613h14.452z" style="text-align:start;line-height:125%;-inkscape-font-specification:MS Gothic" font-size="62.329" font-family="MS Gothic"/><path d="M2.83 68.868V31.132l9.434-9.434v-9.434h9.434l9.434-9.434h37.736l9.434 9.434h9.434v9.434l9.434 9.434v37.736l-9.434 9.434v9.434h-9.434l-9.434 9.434H31.132l-9.434-9.434h-9.434v-9.434L2.83 68.868z" fill="url(#W)" fill-rule="evenodd" stroke="#000" stroke-width="5.66" transform="translate(450 312.487)"/><path d="M502.39 344.052c1.006 4.328 2.6 8.396 4.78 12.204 3.69-2.943 7.63-7.01 11.824-12.204l4.78 4.414c.167.866-.252 1.125-1.258.78-3.858 3.98-8.135 7.875-12.83 11.684 4.528 7.443 10.733 13.415 18.616 17.915l-2.767 5.972c-9.728-5.712-17.443-14.453-23.145-26.224v28.042c0 2.77-1.342 4.154-4.025 4.154h-4.53l-1.005-5.713h3.522c.67 0 1.006-.346 1.006-1.04v-49.85h4.78c1.677.345 1.76 1.037.252 2.076v7.79zm-28.428 13.762V352.1h19.623c0 15.58-6.206 27.178-18.617 34.795l-3.27-5.453c9.392-5.54 14.76-13.415 16.1-23.628h-13.836zm8.805-20.513c3.522 1.732 6.54 3.81 9.057 6.233l-3.522 4.674c-2.18-2.25-5.115-4.414-8.805-6.492l3.27-4.414z" style="text-align:start;line-height:125%;-inkscape-font-specification:MS Gothic" font-size="65.428" font-family="MS Gothic"/><path d="M2.83 31.132l9.434-9.434v-9.434h9.434l9.434-9.434h37.736l9.434 9.434h9.434v9.434l9.434 9.434v37.736l-9.434 9.434v9.434h-9.434l-9.434 9.434H31.132l-9.434-9.434h-9.434v-9.434L2.83 68.868V31.132z" fill="url(#X)" fill-rule="evenodd" stroke="#000" stroke-width="5.66" transform="translate(107.608 561.25)"/><path d="M129.306 627.368c11.97-6.43 20.114-15.568 24.437-27.413H131.8v-5.585h22.94v-11.422h4.738c1.33.17 1.413.677.25 1.523v9.9h23.688v5.585h-22.69c3.656 10.66 12.05 19.46 25.184 26.398l-2.743 5.838c-10.14-5.583-17.954-13.367-23.44-23.35v30.712h-4.987V609.6c-4.82 8.97-12.218 16.753-22.193 23.352l-3.24-5.584z" style="text-align:start;line-height:125%;-inkscape-font-specification:MS Gothic" font-size="64.405" font-family="MS Gothic"/><path d="M13.265 640.91c3.422 22.154-3.278 44.716-18.054 60.79" transform="matrix(2.06258 -6.34798 5.98524 1.94472 -3296.077 -1102.07)" fill="none" stroke="#000" stroke-width="1.543" marker-end="url(#N)"/><path transform="matrix(-5.3999 -3.92327 3.69908 -5.09135 -2196.71 3615.217)" d="M13.265 640.91c3.422 22.154-3.278 44.716-18.054 60.79" fill="none" stroke="#000" stroke-width="1.543" marker-end="url(#N)"/><path d="M13.265 640.91c3.422 22.154-3.278 44.716-18.054 60.79" transform="matrix(-5.3999 3.92327 -3.69908 -5.09135 2629.418 4027.38)" fill="none" stroke="#000" stroke-width="1.543" marker-end="url(#N)"/><path transform="matrix(2.06258 6.34798 -5.98524 1.94472 4512.763 -435.177)" d="M13.265 640.91c3.422 22.154-3.278 44.716-18.054 60.79" fill="none" stroke="#000" stroke-width="1.543" marker-end="url(#N)"/><g><path d="M2.83 31.132l9.434-9.434v-9.434h9.434l9.434-9.434h37.736l9.434 9.434h9.434v9.434l9.434 9.434v37.736l-9.434 9.434v9.434h-9.434l-9.434 9.434H31.132l-9.434-9.434h-9.434v-9.434L2.83 68.868V31.132z" fill="url(#Y)" fill-rule="evenodd" stroke="#000" stroke-width="5.66" transform="translate(661.61 158.744)"/><path style="-inkscape-font-specification:MS Gothic" d="M699.003 180.69c1.372.166 1.458.662.257 1.49v13.406c1.544-1.324 3.43-3.393 5.66-6.207l4.117 2.98c.858 1.157.43 1.654-1.286 1.488-2.915 3.145-5.746 5.71-8.49 7.696v5.462c0 3.972-.172 6.87-.515 8.69 4.46 3.475 8.234 7.2 11.32 11.17l-3.6 5.215c-2.745-3.97-5.66-7.447-8.75-10.426-1.37 5.296-4.8 10.427-10.29 15.392l-3.86-4.47c7.033-5.46 10.55-13.405 10.55-23.832V180.69zm-7.976 13.903c0 5.958-.858 11.503-2.573 16.634l-5.146-1.242c1.715-4.8 2.573-10.096 2.573-15.89zm28.816-12.66c1.716.66 1.63 1.24-.257 1.736l-2.573 8.44h22.9l-1.545 31.778c-.343 7.78-3.43 11.668-9.262 11.668h-6.432l-2.06-5.46h6.948c3.43 0 5.232-2.236 5.403-6.704l1.287-26.565h-19.297c-2.23 4.47-5.06 8.524-8.49 12.165l-4.632-3.972c6.175-5.627 10.377-13.82 12.607-24.578zm8.234 26.563v4.717h-18.783v-4.717z" font-family="MS Gothic"/></g><g><path d="M2.83 31.132l9.434-9.434v-9.434h9.434l9.434-9.434h37.736l9.434 9.434h9.434v9.434l9.434 9.434v37.736l-9.434 9.434v9.434h-9.434l-9.434 9.434H31.132l-9.434-9.434h-9.434v-9.434L2.83 68.868V31.132z" fill="url(#Z)" fill-rule="evenodd" stroke="#000" stroke-width="5.66" transform="translate(448.53 809.586)"/><path style="-inkscape-font-specification:MS Gothic" d="M523.7 859.085c-2.57 6.178-6.1 13.274-10.597 21.29 2.89-.335 5.38-.67 7.466-1.003-.643-2.504-1.366-4.59-2.168-6.26l4.094-1.504c1.767 3.84 3.212 8.432 4.336 13.775l-4.817 1.503c-.16-1.67-.402-2.922-.723-3.757-4.014.834-8.03 1.585-12.043 2.253.16.668.24 1.253.24 1.754l-4.577.75c0-1.168-.16-2.337-.482-3.505-3.532.667-7.145 1.252-10.838 1.753-.642 1.336-1.204 1.336-1.686 0l-.963-4.008h1.204c2.248-3.84 4.336-7.93 6.263-12.272-2.25-2.672-4.738-4.926-7.467-6.763l1.927-4.007c.48.334.883.668 1.204 1.002 2.57-5.01 4.255-9.434 5.058-13.274h-7.226v-4.76h8.912c-1.284-3.005-2.89-5.342-4.817-7.012l3.855-3.005c1.766 1.17 3.532 3.59 5.3 7.264l-3.373 2.754h8.912c1.445-3.674 2.65-7.264 3.613-10.77l5.058 2.254c.964.835.723 1.336-.723 1.503-.963 2.172-2.087 4.51-3.372 7.014h11.08v4.76h-9.875l3.613 1.752c.642.668.4 1.085-.723 1.252-1.285 3.34-3.292 7.68-6.022 13.024.803.668 1.767 1.503 2.89 2.505 1.607-3.507 2.97-6.763 4.096-9.768l4.093 2.253c.643.668.402 1.085-.722 1.252zm-16.137.5c-2.41 5.678-6.022 12.94-10.84 21.79 2.25-.166 4.497-.416 6.745-.75-.643-2.505-1.285-4.592-1.927-6.262l4.096-1.503c.963 2.17 1.766 4.76 2.408 7.765h.964c1.927-3.507 3.693-7.013 5.3-10.52-1.768-2.003-3.855-3.924-6.264-5.76 2.89-5.343 5.38-11.187 7.467-17.532h-14.933l3.373 1.753c.642.668.4 1.085-.723 1.252-.803 2.672-2.73 6.762-5.78 12.273.963.835 1.926 1.754 2.89 2.756 1.284-3.006 2.57-6.01 3.853-9.017l4.095 2.504c.642.668.402 1.085-.722 1.252zm-26.978 27.802h-4.094v-23.794c-.802 1.837-2.007 3.59-3.612 5.26l-2.65-4.258c4.817-5.343 7.627-13.525 8.43-24.545h-5.78v-4.76h18.065v4.76h-7.95c-.32 5.51-1.123 10.352-2.408 14.527h9.153v30.055h-4.094v-4.508h-5.06zm5.06-28.05h-5.06v16.028h5.06z" font-size="60" font-family="MS Gothic"/></g><g><path d="M2.83 31.132l9.434-9.434v-9.434h9.434l9.434-9.434h37.736l9.434 9.434h9.434v9.434l9.434 9.434v37.736l-9.434 9.434v9.434h-9.434l-9.434 9.434H31.132l-9.434-9.434h-9.434v-9.434L2.83 68.868V31.132z" fill="url(#aa)" fill-rule="evenodd" stroke="#000" stroke-width="5.66" transform="translate(580.782 407.506)"/><path style="-inkscape-font-specification:MS Gothic" d="M647.728 463.77c2.784 3.273 6.713 5.893 11.79 7.858l-1.966 3.93c-2.128-.983-4.01-2.047-5.65-3.193l-2.21 3.684c2.293 1.145 4.83 2.618 7.615 4.42l-2.702 3.683c-4.748-3.765-8.923-6.22-12.525-7.367v4.91c0 2.457-.9 3.685-2.702 3.685h-3.684l-.982-3.928h2.456c.49 0 .736-.246.736-.737v-3.684l-11.297 6.14c-.328 1.147-.655 1.393-.983.738l-2.21-4.175 8.105-3.193-3.194-4.42c-1.8 1.473-3.52 2.62-5.158 3.438.328.327.573.9.737 1.72l-4.175 2.7c-1.637-4.093-3.52-7.45-5.65-10.07-1.31 5.73-4.256 10.89-8.84 15.473l-2.702-3.928c5.567-5.567 8.35-12.362 8.35-20.385V429.63h3.93c1.31.164 1.392.656.246 1.474v14.49c1.637-1.473 3.274-3.356 4.912-5.648l3.684 3.93c.327.654-.082.982-1.228.982-1.965 2.128-4.42 4.42-7.368 6.876v12.772c2.128 2.128 4.093 4.666 5.894 7.613 4.257-2.13 7.614-4.913 10.07-8.35h-10.56v-3.93h10.56v-3.44h-7.614v-3.93h7.614v-4.42h-6.632v-17.19h29.718v17.19h-6.386v4.42h7.86v3.93h-7.86v3.44h11.052v3.93zm-45.68-4.668c1.473-5.075 2.21-10.806 2.21-17.192l4.666.983c.49.49.327.982-.49 1.473.162 4.585-.575 10.152-2.212 16.7zm35.856 14.49v-8.104h3.93c1.31.164 1.392.655.246 1.474v6.14l3.93 1.473 2.7-4.666c-2.292-1.966-4.01-4.013-5.157-6.14h-8.35c-.49 1.636-1.883 3.683-4.175 6.14l4.175 5.156zm-9.332-39.786v4.175h21.367v-4.174zm0 7.122v4.175h21.367v-4.175zm6.63 7.122v4.42h8.35v-4.42zm0 8.35v3.44h8.35v-3.44z" font-size="62.873" font-family="MS Gothic"/></g><g><path d="M2.83 31.132l9.434-9.434v-9.434h9.434l9.434-9.434h37.736l9.434 9.434h9.434v9.434l9.434 9.434v37.736l-9.434 9.434v9.434h-9.434l-9.434 9.434H31.132l-9.434-9.434h-9.434v-9.434L2.83 68.868V31.132z" fill="url(#ab)" fill-rule="evenodd" stroke="#000" stroke-width="5.66" transform="translate(530.828 561.25)"/><path d="M557.306 582.948h49.057v5.246h-44.026v30.925c0 8.65-2.012 15.462-6.037 20.432l-3.774-4.418c3.187-3.68 4.78-9.388 4.78-17.12zm30.692 9.664c1.342.552 1.258 1.105-.252 1.657v12.7h16.856v5.246h-16.856v21.814h21.384v5.246h-46.038v-5.246h19.623v-21.814H567.62v-5.246h15.095v-14.358z"/></g><g><path d="M2.83 31.132l9.434-9.434v-9.434h9.434l9.434-9.434h37.736l9.434 9.434h9.434v9.434l9.434 9.434v37.736l-9.434 9.434v9.434h-9.434l-9.434 9.434H31.132l-9.434-9.434h-9.434v-9.434L2.83 68.868V31.132z" fill="url(#ac)" fill-rule="evenodd" stroke="#000" stroke-width="5.66" transform="translate(792.392 561.25)"/><path d="M819.435 608.218h21.135v12.887h-17.006c-.485 8.423-2.834 14.15-7.045 17.184l-2.43-4.297c3.563-2.19 5.345-7.665 5.345-16.426zm17.005 30.83v-2.023h-8.017v2.527h-4.13v-14.404h16.277v13.9zm26.966-52.057h-18.95v3.286h23.81v9.855h-4.13v-6.82h-19.68v12.886h-4.13V593.31h-19.434v6.82h-4.13v-9.854h23.565v-3.285h-19.192v-4.042h42.27zm-25.75 12.13H823.32v-3.032h14.333zm0 2.528v3.032H823.32v-3.032zm23.806-5.56v3.033H847.13v-3.032zm0 5.56v3.032H847.13v-3.032zm-1.7 12.634h-7.774l1.458 4.296h4.858zm-23.322-2.02h-12.876v4.8h12.876zm0 15.92h-8.017v5.81h8.017zm17.25 11.117v-8.592H843v-4.044h10.69v-4.043h-11.177v-4.042h7.046l-1.702-4.296h-4.616v-4.043h10.447v-4.044h3.885c1.296.17 1.377.674.243 1.516v2.527h10.447v4.042h-4.373l-1.7 4.296h8.502v4.043h-12.876v4.044h11.418v4.044h-11.418v8.59z"/></g></svg>