<svg xmlns="http://www.w3.org/2000/svg" xmlns:xlink="http://www.w3.org/1999/xlink" width="500" height="500"><defs><linearGradient id="r"><stop offset="0"/><stop offset="1" stop-opacity="0"/></linearGradient><linearGradient id="a"><stop offset="0" stop-color="#afafaf"/><stop offset="1" stop-color="gray"/></linearGradient><linearGradient id="b"><stop offset="0" stop-color="#00f89e"/><stop offset="1" stop-color="#badcff"/></linearGradient><linearGradient id="c"><stop offset="0" stop-color="#fff"/><stop offset="1" stop-color="#b00000"/></linearGradient><linearGradient id="d"><stop offset="0" stop-color="#86c88e"/><stop offset="1" stop-color="#e26ccd"/></linearGradient><linearGradient id="e"><stop offset="0" stop-color="#9c9c9c"/><stop offset="1" stop-color="#a66f24"/></linearGradient><linearGradient id="f"><stop offset="0" stop-color="#ba771c"/><stop offset="1" stop-color="#734a12"/></linearGradient><linearGradient id="g"><stop offset="0" stop-color="red"/><stop offset="1" stop-color="#b00000"/></linearGradient><linearGradient id="h"><stop offset="0" stop-color="red"/><stop offset="1" stop-color="#734a12"/></linearGradient><linearGradient id="i"><stop offset="0" stop-color="#fff101"/><stop offset="1" stop-color="#ccc000"/></linearGradient><linearGradient id="q"><stop offset="0" stop-color="#7e8e99"/><stop offset="1" stop-color="#0f011b"/></linearGradient><linearGradient id="j"><stop offset="0" stop-color="#51a8ff"/><stop offset="1" stop-color="#007fff"/></linearGradient><linearGradient id="k"><stop offset="0" stop-color="#00f89e"/><stop offset="1" stop-color="#00a86b"/></linearGradient><linearGradient id="l"><stop offset="0" stop-color="#734a12"/><stop offset="1" stop-color="#358e20"/></linearGradient><linearGradient id="m"><stop offset="0" stop-color="#ad0000"/><stop offset="1" stop-color="#140000"/></linearGradient><linearGradient id="n"><stop offset="0" stop-color="#8300f4"/><stop offset="1" stop-color="#1e0038"/></linearGradient><linearGradient id="o"><stop offset="0" stop-color="#4682b4"/><stop offset="1" stop-color="gray"/></linearGradient><linearGradient id="p"><stop offset="0" stop-color="#ff4a00"/><stop offset="1" stop-color="#e5e332"/></linearGradient><radialGradient xlink:href="#g" id="w" gradientUnits="userSpaceOnUse" gradientTransform="matrix(1 0 0 2.98842 0 -188.967)" cx="25.692" cy="95.034" fx="25.692" fy="95.034" r="3.244"/><radialGradient xlink:href="#k" id="x" gradientUnits="userSpaceOnUse" gradientTransform="matrix(1 0 0 .7756 0 24.712)" cx="15.272" cy="110.13" fx="15.272" fy="110.13" r="7.904"/><radialGradient xlink:href="#k" id="y" gradientUnits="userSpaceOnUse" gradientTransform="matrix(1 0 0 .1178 0 102.928)" cx="-1.587" cy="116.673" fx="-1.587" fy="116.673" r="9.684"/><radialGradient xlink:href="#i" id="z" gradientUnits="userSpaceOnUse" gradientTransform="matrix(1 0 0 .7756 0 24.712)" cx="-18.447" cy="110.13" fx="-18.447" fy="110.13" r="7.904"/><radialGradient xlink:href="#i" id="A" gradientUnits="userSpaceOnUse" gradientTransform="matrix(1 0 0 2.98842 0 -188.967)" cx="-28.866" cy="95.034" fx="-28.866" fy="95.034" r="3.244"/><radialGradient xlink:href="#f" id="B" gradientUnits="userSpaceOnUse" gradientTransform="matrix(1 0 0 2.98842 0 -151.863)" cx="-28.866" cy="76.374" fx="-28.866" fy="76.374" r="3.244"/><radialGradient xlink:href="#f" id="C" gradientUnits="userSpaceOnUse" gradientTransform="matrix(1 0 0 .7756 0 13.75)" cx="-18.447" cy="61.277" fx="-18.447" fy="61.277" r="7.904"/><radialGradient xlink:href="#j" id="D" gradientUnits="userSpaceOnUse" gradientTransform="matrix(1 0 0 .1178 0 48.286)" cx="-1.587" cy="54.734" fx="-1.587" fy="54.734" r="9.684"/><radialGradient xlink:href="#j" id="E" gradientUnits="userSpaceOnUse" gradientTransform="matrix(1 0 0 .7756 0 13.75)" cx="15.272" cy="61.277" fx="15.272" fy="61.277" r="7.904"/><radialGradient xlink:href="#g" id="F" gradientUnits="userSpaceOnUse" gradientTransform="matrix(1 0 0 2.98842 0 -151.863)" cx="25.692" cy="76.374" fx="25.692" fy="76.374" r="3.244"/><radialGradient xlink:href="#c" id="Q" gradientUnits="userSpaceOnUse" gradientTransform="matrix(.68267 -.478 .4784 .68324 1060.53 217.567)" cx="50" cy="50" fx="50" fy="50" r="50"/><radialGradient xlink:href="#l" id="R" gradientUnits="userSpaceOnUse" gradientTransform="matrix(.68267 -.478 .4784 .68324 897.87 689.965)" cx="50" cy="50" fx="50" fy="50" r="50"/><radialGradient xlink:href="#e" id="S" gradientUnits="userSpaceOnUse" gradientTransform="matrix(.68267 -.478 .4784 .68324 1493.404 630.82)" cx="50" cy="50" fx="50" fy="50" r="50"/><radialGradient xlink:href="#m" id="T" gradientUnits="userSpaceOnUse" gradientTransform="matrix(.68267 -.478 .4784 .68324 1424.663 405.98)" cx="50" cy="50" fx="50" fy="50" r="50"/><radialGradient xlink:href="#b" id="U" gradientUnits="userSpaceOnUse" gradientTransform="matrix(.68267 -.478 .4784 .68324 1189.585 401.876)" cx="50" cy="50" fx="50" fy="50" r="50"/><radialGradient xlink:href="#h" id="V" gradientUnits="userSpaceOnUse" gradientTransform="matrix(1.28806 -.9019 .90266 1.28913 668.798 232.357)" cx="115" cy="392.362" fx="115" fy="392.362" r="26.5"/><radialGradient xlink:href="#q" id="W" gradientUnits="userSpaceOnUse" gradientTransform="matrix(1.28806 -.9019 .90266 1.28913 858.278 375.41)" cx="115" cy="392.362" fx="115" fy="392.362" r="26.5"/><radialGradient xlink:href="#g" id="X" gradientUnits="userSpaceOnUse" gradientTransform="matrix(.6909 -.46602 .4664 .69148 1311.905 139.76)" cx="50" cy="50" fx="50" fy="50" r="50"/><radialGradient xlink:href="#k" id="Y" gradientUnits="userSpaceOnUse" gradientTransform="matrix(1.3036 -.8793 .88002 1.30468 1130.97 138.302)" cx="225" cy="392.362" fx="225" fy="392.362" r="26.5"/><radialGradient xlink:href="#i" id="ab" gradientUnits="userSpaceOnUse" gradientTransform="matrix(1.3036 -.8793 .88002 1.30468 895.828 658.763)" cx="280" cy="392.362" fx="280" fy="392.362" r="26.5"/><radialGradient xlink:href="#f" id="Z" gradientUnits="userSpaceOnUse" gradientTransform="matrix(1.3036 -.8793 .88002 1.30468 444.884 721.078)" cx="280" cy="337.362" fx="280" fy="337.362" r="26.5"/><radialGradient xlink:href="#j" id="aa" gradientUnits="userSpaceOnUse" gradientTransform="matrix(1.3036 -.8793 .88002 1.30468 417.143 -45.09)" cx="115" cy="447.362" fx="115" fy="447.362" r="26.5"/><radialGradient xlink:href="#j" id="H" gradientUnits="userSpaceOnUse" gradientTransform="matrix(-.14046 .4323 -1.0821 -.3516 1577.183 482.426)" cx="1267.808" cy="395.411" fx="1267.808" fy="395.411" r="99.654"/><radialGradient xlink:href="#f" id="I" gradientUnits="userSpaceOnUse" gradientTransform="matrix(.36773 .26717 -.66877 .92048 847.394 264.882)" cx="1267.808" cy="395.411" fx="1267.808" fy="395.411" r="99.654"/><radialGradient xlink:href="#i" id="J" gradientUnits="userSpaceOnUse" gradientTransform="matrix(.36773 -.26717 .66877 .92048 414.654 891.996)" cx="1267.808" cy="395.411" fx="1267.808" fy="395.411" r="99.654"/><radialGradient xlink:href="#k" id="K" gradientUnits="userSpaceOnUse" gradientTransform="matrix(-.14046 -.4323 1.0821 -.3516 877.682 1497.076)" cx="1267.808" cy="395.411" fx="1267.808" fy="395.411" r="99.654"/><radialGradient xlink:href="#k" id="P" gradientUnits="userSpaceOnUse" gradientTransform="matrix(-.14046 -.4323 .9449 -.30702 1130.96 1559.85)" cx="1419.518" cy="281.846" fx="1419.518" fy="281.846" r="62.165"/><radialGradient xlink:href="#i" id="O" gradientUnits="userSpaceOnUse" gradientTransform="matrix(.36773 -.26717 .58398 .8038 433.22 1152.276)" cx="1419.518" cy="281.846" fx="1419.518" fy="281.846" r="62.165"/><radialGradient xlink:href="#f" id="N" gradientUnits="userSpaceOnUse" gradientTransform="matrix(.36773 .26717 -.58398 .8038 605.59 362.972)" cx="1419.518" cy="281.846" fx="1419.518" fy="281.846" r="62.165"/><radialGradient xlink:href="#j" id="M" gradientUnits="userSpaceOnUse" gradientTransform="matrix(-.14046 .4323 -.9449 -.30702 1409.172 282.77)" cx="1419.518" cy="281.846" fx="1419.518" fy="281.846" r="62.165"/><radialGradient xlink:href="#g" id="G" gradientUnits="userSpaceOnUse" gradientTransform="matrix(-.45454 0 0 -1.13777 1595.602 1243.787)" cx="1267.808" cy="395.411" fx="1267.808" fy="395.411" r="99.654"/><radialGradient xlink:href="#g" id="L" gradientUnits="userSpaceOnUse" gradientTransform="matrix(-.45454 0 0 -.99353 1733.713 1022.397)" cx="1419.518" cy="281.846" fx="1419.518" fy="281.846" r="62.165"/><linearGradient id="s"><stop offset="0" stop-color="#afafaf"/><stop offset="1" stop-color="gray"/></linearGradient><linearGradient id="t"><stop offset="0" stop-color="#ffefb1"/><stop offset=".5" stop-color="#ffaa37"/><stop offset="1" stop-color="#b00000"/></linearGradient><linearGradient id="u"><stop offset="0" stop-color="#ffff64"/><stop offset=".5" stop-color="red"/><stop offset="1" stop-color="#600"/></linearGradient><radialGradient xlink:href="#s" id="ad" gradientUnits="userSpaceOnUse" gradientTransform="translate(-51.604 145.05)" cx="50" cy="50" fx="50" fy="50" r="50"/><radialGradient xlink:href="#s" id="ac" gradientUnits="userSpaceOnUse" gradientTransform="translate(1226.853 916.465) scale(.38584)" cx="50" cy="50" fx="50" fy="50" r="50"/><linearGradient id="v"><stop offset="0" stop-color="#ffff64"/><stop offset=".5" stop-color="red"/><stop offset="1" stop-color="#600"/></linearGradient><radialGradient xlink:href="#v" id="ae" gradientUnits="userSpaceOnUse" gradientTransform="matrix(.38584 0 0 .38584 1156.65 700.404)" cx="50" cy="50" fx="50" fy="50" r="50"/></defs><path d="M251.09 2.33c-75.43-.275-150.045 33.788-198.933 98.664 41.17-54.633 118.832-65.558 173.465-24.39 54.633 41.17 65.544 118.834 24.375 173.467-41.17 54.633-30.258 132.297 24.375 173.466 54.633 41.17 132.297 30.258 173.466-24.375 82.337-109.265 60.516-264.592-48.75-346.93-44.39-33.45-96.386-49.712-147.997-49.9z" fill="#191919"/><path d="M151.63 51.662c-37.714-.137-75.03 16.894-99.473 49.332C-30.18 210.26-8.345 365.574 100.92 447.91c109.267 82.34 264.58 60.517 346.918-48.75-41.17 54.634-118.833 65.545-173.466 24.376-54.633-41.17-65.544-118.833-24.375-173.465 41.17-54.632 30.258-132.296-24.375-173.465-22.194-16.725-48.185-24.85-73.99-24.943z" fill="#fff"/><path d="M28.572 85.704c0 6.704-2.017 13.236-5.76 18.66" transform="matrix(0 -6.40772 6.08734 0 -271.708 239.9)" fill="none" stroke="url(#w)" stroke-width=".728" stroke-linecap="round" stroke-linejoin="round"/><path transform="matrix(0 -6.40772 6.08734 0 -271.708 239.9)" d="M22.812 104.364c-3.744 5.424-9.022 9.46-15.08 11.532" fill="none" stroke="url(#x)" stroke-width=".728" stroke-linecap="round" stroke-linejoin="round"/><path d="M7.732 115.896c-6.057 2.072-12.582 2.072-18.64 0" transform="matrix(0 -6.40772 6.08734 0 -271.708 239.9)" fill="none" stroke="url(#y)" stroke-width=".728" stroke-linecap="round" stroke-linejoin="round"/><path transform="matrix(0 -6.40772 6.08734 0 -271.708 239.9)" d="M-10.907 115.896c-6.057-2.07-11.336-6.108-15.08-11.532" fill="none" stroke="url(#z)" stroke-width=".728" stroke-linecap="round" stroke-linejoin="round"/><path d="M-25.987 104.364c-3.743-5.424-5.76-11.956-5.76-18.66" transform="matrix(0 -6.40772 6.08734 0 -271.708 239.9)" fill="none" stroke="url(#A)" stroke-width=".728" stroke-linecap="round" stroke-linejoin="round"/><path transform="matrix(0 -6.40772 6.08734 0 -271.708 239.9)" d="M-31.746 85.704c0-6.704 2.016-13.236 5.76-18.66" fill="none" stroke="url(#B)" stroke-width=".728" stroke-linecap="round" stroke-linejoin="round"/><path d="M-25.987 67.044c3.744-5.424 9.023-9.46 15.08-11.533" transform="matrix(0 -6.40772 6.08734 0 -271.708 239.9)" fill="none" stroke="url(#C)" stroke-width=".728" stroke-linecap="round" stroke-linejoin="round"/><path transform="matrix(0 -6.40772 6.08734 0 -271.708 239.9)" d="M-10.907 55.51c6.057-2.07 12.582-2.07 18.64 0" fill="none" stroke="url(#D)" stroke-width=".728" stroke-linecap="round" stroke-linejoin="round"/><path d="M7.732 55.51c6.058 2.073 11.336 6.11 15.08 11.534" transform="matrix(0 -6.40772 6.08734 0 -271.708 239.9)" fill="none" stroke="url(#E)" stroke-width=".728" stroke-linecap="round" stroke-linejoin="round"/><path transform="matrix(0 -6.40772 6.08734 0 -271.708 239.9)" d="M22.812 67.044c3.743 5.424 5.76 11.956 5.76 18.66" fill="none" stroke="url(#F)" stroke-width=".728" stroke-linecap="round" stroke-linejoin="round"/><path d="M227.1 109.733c0 30.038-27.342 54.39-61.07 54.39-33.727 0-61.068-24.352-61.068-54.39 0-30.04 27.34-54.39 61.07-54.39 33.726 0 61.067 24.35 61.067 54.39z" transform="matrix(4.0559 .0708 -.0795 4.554 -414.68 -261.477)" fill="none" stroke="#000" stroke-width="1.057" stroke-linecap="round" stroke-linejoin="round"/><path d="M976.353 905.01c-17.573-93.898 5.324-177.356 86-222.222" fill="none" stroke="url(#G)" stroke-width="4.545" stroke-linecap="round" stroke-linejoin="round" transform="translate(-812.352 -625.97)"/><path d="M1063.627 966.68c-94.73-12.304-167.03-59.87-184.77-150.46" fill="none" stroke="url(#H)" stroke-width="4.545" stroke-linecap="round" stroke-linejoin="round" transform="translate(-812.352 -625.97)"/><path d="M1149.25 902.945c-40.976 86.293-108.554 140.353-200.194 129.23" fill="none" stroke="url(#I)" stroke-width="4.545" stroke-linecap="round" stroke-linejoin="round" transform="translate(-812.352 -625.97)"/><path d="M1114.766 802.087c69.407 65.635 99.94 146.612 61.043 230.33" fill="none" stroke="url(#J)" stroke-width="4.545" stroke-linecap="round" stroke-linejoin="round" transform="translate(-812.352 -625.97)"/><path d="M1008.52 803.447c83.872-45.728 170.32-49.743 237.92 13.12" fill="none" stroke="url(#K)" stroke-width="4.545" stroke-linecap="round" stroke-linejoin="round" transform="translate(-812.352 -625.97)"/><path d="M1114.463 801.864c-28.925-33.78-46.062-75.215-51.968-118.98" fill="none" stroke="url(#L)" stroke-width="4.545" stroke-linecap="round" stroke-linejoin="round" transform="translate(-812.352 -625.97)"/><path d="M1008.074 803.562c-41.066 17.07-85.768 20.564-129.216 12.657" fill="none" stroke="url(#M)" stroke-width="4.545" stroke-linecap="round" stroke-linejoin="round" transform="translate(-812.352 -625.97)"/><path d="M976.948 905.373c3.545 44.33-6.946 87.925-27.892 126.803" fill="none" stroke="url(#N)" stroke-width="4.545" stroke-linecap="round" stroke-linejoin="round" transform="translate(-812.352 -625.97)"/><path d="M1063.83 966.706c43.258 10.327 81.476 33.775 111.98 65.71" fill="none" stroke="url(#O)" stroke-width="4.545" stroke-linecap="round" stroke-linejoin="round" transform="translate(-812.352 -625.97)"/><path d="M1149.343 902.758c23.188-37.948 57.3-67.05 97.097-86.19" fill="none" stroke="url(#P)" stroke-width="4.545" stroke-linecap="round" stroke-linejoin="round" transform="translate(-812.352 -625.97)"/><path d="M1077.356 237.485l1.927-10.955-4.514-6.446 6.44-4.51 1.927-10.955 25.76-18.04 10.954 1.937 6.442-4.51 4.513 6.446 10.954 1.936 18.052 25.782-1.927 10.955 4.513 6.446-6.44 4.51-1.927 10.954-25.76 18.04-10.954-1.937-6.44 4.51-4.514-6.447-10.953-1.936-18.054-25.782z" fill="url(#Q)" fill-rule="evenodd" stroke="#000" stroke-width="5.66" transform="scale(.45454) rotate(34 744.81 -1121.42)"/><path d="M144.13 92.61l-.01-.552-1.925.034.042 2.394 4.947-.086-.28 4.887c-.1 1.414-.758 2.132-1.98 2.153l-1.374.024-.214-1.746 1.008-.018c.61-.01.91-.384.897-1.12l.05-2.397-3.023.053.137 7.827-1.832.032-.137-7.827-2.107.037c.134 4.173-1.804 6.91-5.814 8.207l-.767-1.92c3.222-.917 4.805-3.002 4.748-6.255l-2.107.036-.158 1.477-1.833-.06.514-7.286 3.482-.06-.043-2.487-4.124.072-.03-1.75 4.122-.073-.056-3.223 1.74-.03c.49.052.524.236.102.55l.047 2.67 2.108-.036-.056-3.223 1.74-.03c.49.053.524.236.102.55l.046 2.67 3.757-.064.114 6.54-1.83.03zm-16.826-3.022c1.54.65 2.744 1.426 3.615 2.332l-1.16 1.863c-.933-.966-2.078-1.837-3.436-2.612l.98-1.582zm9.16 5l-.04-2.395-1.742.03-.14 2.398 1.923-.033zm3.9-2.464l-2.11.037.043 2.395 2.107-.037-.04-2.394zm-.032-1.75l-.043-2.486-2.11.037.045 2.486 2.107-.036zm3.756-.065l-.043-2.488-1.924.034.044 2.486 1.924-.033zm-16.145-6.168c1.476.59 2.68 1.335 3.613 2.24l-1.16 1.77c-.87-.783-2.044-1.56-3.524-2.333l1.07-1.678zm-2.06 18.552c1.972-2.553 3.306-4.91 4-7.07l1.578 1.077c-.518 1.79-1.638 4.083-3.362 6.876.13.49.042.614-.268.373l-1.946-1.256z" font-size="17.238" font-family="Bitstream Vera Sans"/><path d="M914.696 709.882l1.927-10.955-4.513-6.446 6.44-4.508 1.927-10.955 25.76-18.038 10.955 1.935 6.44-4.51 4.513 6.446 10.954 1.937 18.052 25.782-1.927 10.955 4.513 6.445-6.44 4.51-1.927 10.955-25.76 18.038-10.954-1.936-6.44 4.51-4.513-6.446-10.954-1.935-18.054-25.783z" fill="url(#R)" fill-rule="evenodd" stroke="#000" stroke-width="5.66" transform="scale(.45454) rotate(34 581.76 -634.114)"/><path d="M55.66 315.99c4.49-2.516 7.516-6.034 9.075-10.553l-8.31.145-.038-2.116 8.688-.152-.075-4.33 1.794-.03c.505.054.54.246.105.575l.064 3.75 8.972-.156.037 2.117-8.594.15c1.455 4.018 4.693 7.298 9.712 9.84l-1 2.232c-3.877-2.05-6.888-4.948-9.032-8.697l.203 11.643-1.89.033-.197-11.353c-1.766 3.432-4.517 6.43-8.25 9l-1.266-2.097z" style="text-align:start;line-height:125%;-inkscape-font-specification:MS Gothic" font-size="64.405" font-family="MS Gothic"/><path d="M1510.23 650.738l1.927-10.955-4.514-6.446 6.44-4.51 1.928-10.955 25.762-18.038 10.953 1.936 6.44-4.51 4.514 6.446 10.952 1.936 18.054 25.783-1.927 10.955 4.512 6.446-6.44 4.51-1.927 10.955-25.76 18.04-10.955-1.937-6.44 4.51-4.514-6.446-10.953-1.937-18.053-25.782z" fill="url(#S)" fill-rule="evenodd" stroke="#fff" stroke-width="5.66" transform="scale(.45454) rotate(34 1193.715 -700.287)"/><path d="M344.083 280.746c.493-.01.767-.17.823-.487l.17-.855 1.578.35c-.218 1.643-.758 2.472-1.62 2.487l-4.62.08c-1.11.02-1.674-.537-1.694-1.672l-.07-4.064-5.084.09.025 1.417 3.605-.063.026 1.512-3.602.063.023 1.323 3.877-.35.206 1.225-7.006 1.067c-.115.507-.236.603-.365.29l-.404-1.978 2.125-.037-.078-4.443-2.587.045.066 3.78c.056 3.215-.697 5.97-2.26 8.267l-1.313-1.112c1.378-2.356 2.04-4.952 1.99-7.788l-.177-10.208 8.132-.142-.038-2.174 1.756-.03c.494.053.528.242.102.564l.028 1.607 8.78-.152.026 1.512-6.378.112.022 1.23 4.805-.085.075 4.348-4.805.084.03 1.7 4.788-1.03.853 1.215c.07.44-.113.538-.548.293l-5.07.845.01.567c.008.442.228.658.66.65l3.14-.054zm-7.127 4.757l-6.1.107-.026-1.513 6.1-.106-.025-1.417 1.478-.026c.494.055.528.243.102.566l.015.85 6.376-.11.027 1.512-6.376.11.03 1.797 8.78-.153.026 1.51-18.297.32-.026-1.512 7.947-.14-.03-1.795zm-3.508-10.34l-.024-1.322-4.066.072.024 1.323 4.066-.07zm5.174-.09l-.023-1.323-3.605.063.023 1.324 3.604-.063zm4.806-.083l-.023-1.324-3.235.057.023 1.323 3.235-.056zm-4.855-2.752l-.022-1.23-3.602.064.02 1.23 3.605-.064zm-5.175.09l-.02-1.228-4.067.07.022 1.23 4.066-.072z" font-size="17.54" font-family="Bitstream Vera Sans"/><path d="M1441.49 425.897l1.926-10.955-4.513-6.446 6.44-4.51 1.927-10.954 25.76-18.038 10.955 1.936 6.44-4.51 4.513 6.446 10.954 1.936 18.053 25.782-1.927 10.956 4.513 6.445-6.44 4.51-1.926 10.955-25.76 18.038-10.955-1.936-6.44 4.51-4.514-6.446-10.954-1.936-18.053-25.783z" fill="url(#T)" fill-rule="evenodd" stroke="#fff" stroke-width="5.66" transform="scale(.45454) rotate(34 1121 -930.91)"/><path d="M303.855 165.903c.54.053.544.243.01.57l.052 2.942c1.2 3.145 4.506 5.113 9.915 5.905l-.467 2.193c-5.347-1.11-8.72-3.014-10.115-5.712-.958 3.057-4.16 5.044-9.607 5.962l-.643-2.078c5.994-.485 8.952-2.942 8.874-7.373l-.044-2.562 2.025.155zm10.078 21.002c-4.53-.68-8.036-2.582-10.52-5.705-1.09 3.185-4.324 5.236-9.703 6.153l-.848-2.17c6.195-.55 9.253-3.074 9.175-7.567l-.038-2.184 2.33.244c.475.182.445.404-.09.666-.118.952-.203 1.903-.254 2.854 2.144 3.065 5.58 4.84 10.31 5.328l-.363 2.38zm-7.162-16.21c1.464-1.228 2.42-2.48 2.87-3.754l2.247 1.292c.207.25.04.41-.497.483-.59.96-1.482 2.02-2.676 3.18l-1.943-1.2zm-7.822-1.953c-.18 1.333-.73 2.577-1.654 3.733l-2.242-.91c.924-1.156 1.476-2.37 1.657-3.638l2.238.815zm8.094 11.635c1.06-1.095 1.917-2.186 2.573-3.274l2.045 1.294c.206.187.007.38-.596.58-.594.77-1.388 1.67-2.38 2.7l-1.642-1.3zm-7.82-1.668c-.117.95-.702 2.196-1.754 3.734l-2.144-1.102c.923-1.22 1.51-2.4 1.76-3.545l2.14.912z" font-size="66.201" font-family="Bitstream Vera Sans"/><path d="M1224.464 447.576l-18.053-25.782 1.927-10.955-4.513-6.447 6.44-4.51 1.927-10.955 25.763-18.038 10.953 1.936 6.44-4.51 4.514 6.446 10.953 1.936 18.054 25.783-1.927 10.956 4.513 6.446-6.44 4.51-1.927 10.955-25.762 18.038-10.953-1.936-6.44 4.508-4.513-6.446-10.953-1.936z" fill="url(#U)" fill-rule="evenodd" stroke="#000" stroke-width="5.66" transform="scale(.45454) rotate(34 879.192 -933.022)"/><path d="M197.346 169.448c.41 1.634 1.04 3.165 1.892 4.594 1.378-1.14 2.843-2.708 4.397-4.704l1.84 1.642c.07.327-.088.428-.47.303-1.436 1.535-3.03 3.04-4.784 4.514 1.766 2.792 4.156 5.014 7.17 6.668l-1.008 2.282c-3.722-2.1-6.702-5.363-8.94-9.787l.186 10.63c.02 1.05-.48 1.583-1.497 1.6l-1.714.03-.42-2.158 1.335-.023c.255-.006.38-.14.375-.402l-.33-18.897 1.81-.03c.638.12.675.38.11.785l.05 2.953zm-10.675 5.404l-.037-2.165 7.432-.13c.103 5.906-2.17 10.343-6.82 13.312l-1.276-2.046c3.52-2.162 5.5-5.183 5.94-9.063l-5.24.092zm3.2-7.834c1.345.633 2.502 1.4 3.47 2.303l-1.302 1.796c-.84-.84-1.967-1.64-3.378-2.403l1.21-1.695z" style="text-align:start;line-height:125%;-inkscape-font-specification:MS Gothic" font-size="65.428" font-family="MS Gothic"/><path d="M1129.865 644.1l1.927-10.957-4.513-6.445 6.44-4.51 1.926-10.955 25.76-18.038 10.955 1.936 6.44-4.51 4.514 6.447 10.954 1.936 18.053 25.783-1.926 10.955 4.513 6.446-6.44 4.51-1.927 10.955-25.76 18.04-10.955-1.937-6.44 4.51-4.513-6.446-10.954-1.936-18.053-25.78z" fill="url(#V)" fill-rule="evenodd" stroke="#000" stroke-width="5.66" transform="scale(.45454) rotate(34 802.463 -703.702)"/><path d="M159.72 281.516c2.96-1.172 5.082-3.417 6.362-6.737l2.012.244c.248.245.16.402-.266.47 1.503 2.464 3.665 4.323 6.486 5.58l-.698 1.88c-.735-.3-1.472-.722-2.212-1.27l.116 6.625-1.55.026-.016-.84-5.474.096.022 1.212-1.55.028-.123-6.997c-.54.507-1.292.987-2.258 1.44l-.852-1.76zm1.012-4.777c1.5-1.27 2.54-2.627 3.123-4.068l1.66.997c.25.306.13.402-.36.286-.704 1.505-1.774 2.892-3.212 4.162l-1.21-1.38zm11.603.73c-1.658-.842-3.08-2.217-4.27-4.125l1.353-.864c1 1.415 2.296 2.543 3.892 3.386l-.975 1.604zm-17.414-4.27c.04 2.302-.073 4.482-.34 6.54l-1.747-.717c.207-2.056.32-4.236.342-6.538l1.92.153c.246.183.188.37-.174.563zm.912-5.334l1.733-.03c.488.054.522.24.1.558l.096 5.41 1.52-1.892 1.296 1.097-.052-2.986 5.29-.093-.045-2.61 1.733-.03c.487.053.52.24.1.557l.037 2.053 5.564-.098.074 4.198-1.55.028-.048-2.706-9.58.167.05 2.89-1.55.028-.018-1.026-2.79 2.29.096 5.41c1.235 1.035 2.444 2.352 3.628 3.95l-1.34 1.608c-.568-1.11-1.47-2.307-2.71-3.592-.626 2.5-1.565 4.445-2.82 5.835l-1.305-1.657c1.85-2.147 2.743-4.962 2.683-8.445l-.19-10.914zm14.834 13.366c-1.416-.97-2.657-2.38-3.724-4.228-.7 1.692-1.892 3.144-3.574 4.355l7.298-.128zm-.738 4.772l-.057-3.266-5.472.096.057 3.265 5.473-.096z" style="text-align:start;line-height:125%;-inkscape-font-specification:MS Gothic" font-size="62.329" font-family="MS Gothic"/><path d="M1319.345 787.153l1.927-10.955-4.513-6.446 6.44-4.51 1.926-10.954 25.76-18.04 10.955 1.937 6.44-4.51 4.514 6.447 10.954 1.936 18.053 25.782-1.926 10.955 4.513 6.446-6.44 4.51-1.927 10.956-25.76 18.038-10.955-1.936-6.44 4.51-4.513-6.446-10.954-1.936-18.053-25.783z" fill="url(#W)" fill-rule="evenodd" stroke="#fff" stroke-width="5.66" transform="scale(.45454) rotate(34 998.62 -558.276)"/><path d="M244.65 348.614l4.69-.27-.045-2.61-1.933.033.02 1.213-1.563.027-.094-5.318 3.497-.062-.02-1.212-3.77.252-.3-1.3c3.618-.19 6.65-.553 9.094-1.093l.578 1.483-4.04.537.022 1.306 3.404-.058.073 4.104-3.404.06.04 2.425 2.3-.132-.848-1.105 1.275-.77c.875.92 1.723 2.024 2.543 3.316l-1.55.866-.66-.922-8.452.894c-.115.438-.236.533-.363.287l-.494-1.95zm16.71-2.345l-.165 1.028c-.496 3.244-1.617 4.01-3.365 2.3-1.25-1.224-1.9-3.296-1.95-6.22l-.102-5.877-11.594.204.116 6.623c.043 2.488-.897 4.868-2.82 7.142l-1.497-1.375c1.69-1.647 2.513-3.62 2.473-5.922l-.138-7.93 15.274-.266.13 7.37c.033 1.99.334 3.384.9 4.183.315.492.53.457.642-.105l.334-1.965 1.763.81zm-8.68-1.716l-.033-1.866-1.84.033.032 1.866 1.84-.032zm-3.405.06l-.033-1.866-1.932.034.033 1.865 1.932-.033zm8.41-13.865c.492.053.525.24.102.557l.058 3.36-15.918.277-.068-3.92 1.747-.03c.492.054.526.24.102.56l.03 1.865 5.062-.09-.06-3.45 1.748-.032c.492.054.526.24.102.558l.05 2.892 5.337-.093-.043-2.425 1.748-.03z" font-size="61.151" font-family="Bitstream Vera Sans"/><path d="M1328.38 159.968l6.354-32.76 26.072-17.586 32.755 6.38 17.6 26.095-6.353 32.76-26.072 17.585-32.754-6.38-17.6-26.094z" fill="url(#X)" fill-rule="evenodd" stroke="#fff" stroke-width="5.66" transform="scale(.45454) rotate(33 1003.826 -1245.73)"/><path d="M249.976 58.407c-1.31 4.193-4.418 7.295-9.325 9.306l-1.226-2.385c6.157-2.032 9.186-5.903 9.087-11.612l-.132-7.6 2.276.152c.397.12.402.378.013.77l.116 6.638c.086 4.94 3.444 8.602 10.074 10.99l-.946 2.422c-4.972-1.838-8.284-4.732-9.934-8.68zm8.78-6.506c-1.206 2.59-2.228 4.435-3.065 5.54l-1.997-1.216c1.16-1.56 2.21-3.567 3.157-6.022l2.192 1.02c.398.186.303.412-.285.68zm-17.792 5.413c.893-1.684 1.284-3.84 1.172-6.47l2.48.535c.53.183.534.408.01.673.034 1.862-.36 3.858-1.18 5.99l-2.482-.727z" style="-inkscape-font-specification:MS Gothic" font-size="65.872" font-family="MS Gothic"/><path d="M1728.178 461.306l6.354-32.76 26.072-17.586 32.754 6.38 17.6 26.095-6.353 32.76-26.072 17.585-32.754-6.38-17.602-26.094z" fill="url(#Y)" fill-rule="evenodd" stroke="#fff" stroke-width="5.66" transform="scale(.45454) rotate(33 1418.077 -939.13)"/><path d="M427.92 197.776l4.882-.284-.07-3.955-1.99.035.03 1.582-1.54.027-.132-7.613 3.528-.06-.033-1.88-3.707.164-.576-1.868c3.5.004 6.42-.277 8.763-.846l1.207 1.76c.068.46-.11.562-.538.306l-3.613.36.036 1.977 3.618-.064.105 6.03-3.62.065.068 3.857 2.8-.346-1.39-1.854 1.428-1.113c1.292 1.428 2.374 2.96 3.247 4.592l-1.698 1.217-.84-1.47-8.842 1.44c-.053.463-.202.565-.447.306l-.675-2.362zm14.267-1.733c.57 1.44.92.907 1.058-1.6l1.655 1.454c-.202 2.245-.54 3.57-1.017 3.974-1.01.876-2.08.037-3.21-2.515-.754-1.7-1.16-4.167-1.216-7.397l-.145-8.305-11.76.205.19 10.778c.054 3.164-.923 5.917-2.934 8.26l-1.3-1.856c1.66-1.744 2.465-4.033 2.415-6.867l-.212-12.162 15.38-.268.175 10.086c.047 2.703.355 4.774.923 6.215zm-5.913-7.018l-2.08.036.05 2.87 2.08-.038-.05-2.867zm-3.62.063l-1.99.035.05 2.867 1.992-.035-.05-2.867z" style="text-align:start;line-height:125%;-inkscape-font-specification:MS Gothic" font-size="63.897" font-family="MS Gothic"/><g><path d="M1065.388 923.963l6.354-32.76 26.072-17.585 32.754 6.38 17.6 26.094-6.353 32.76-26.072 17.586-32.755-6.38-17.6-26.095z" fill="url(#Z)" fill-rule="evenodd" stroke="#000" stroke-width="5.66" transform="scale(.45454) rotate(33 739.97 -456.924)"/><path style="text-align:start;line-height:125%;-inkscape-font-specification:MS Gothic" d="M137.34 395.372c.665.13.703.413.115.848l.102 5.842 7.742-.135.04 2.337-7.742.135.176 10.09 9.628-.168.04 2.337-21.438.373-.04-2.337 9.527-.166-.175-10.09-7.74.134-.042-2.337 7.742-.135-.117-6.692 2.183-.038z" font-size="36.767" font-family="MS Gothic"/></g><g><path d="M919.355 446.394l6.354-32.76 26.07-17.585 32.755 6.38 17.6 26.093-6.353 32.76-26.072 17.586-32.755-6.382-17.6-26.094z" fill="url(#aa)" fill-rule="evenodd" stroke="#000" stroke-width="5.66" transform="scale(.45454) rotate(33 585.355 -947.214)"/><path d="M76.147 199.36c-3.695-2.492-6.574-6.146-8.64-10.965l.193 11.016c.018 1.022-.468 1.542-1.458 1.56l-2.227.038-.403-1.813 1.856-.033c.247-.004.37-.134.364-.39l-.336-19.253 1.764-.032c.496.056.53.247.103.573l.048 2.78c.026 1.404.58 3.055 1.666 4.953 1.405-1.047 2.955-2.67 4.65-4.872l1.7 1.696c.318.505.136.7-.547.584-1.46 1.43-3.108 2.833-4.94 4.207 1.85 3.225 4.278 5.802 7.283 7.73l-1.076 2.222zm-11.83-13.017c-.885 6.084-3.376 10.535-7.474 13.353l-1.056-1.994c3.37-2.04 5.534-5.622 6.497-10.75l-5.383.095-.03-1.82 5.382-.094.544-.776 1.597 1.122c.438.247.412.535-.077.863z" font-size="63.702" font-family="Bitstream Vera Sans"/></g><g><path d="M1564.734 933.405l6.354-32.76 26.072-17.585 32.754 6.38 17.6 26.094-6.353 32.76-26.07 17.586-32.756-6.38-17.6-26.095z" fill="url(#ab)" fill-rule="evenodd" stroke="#fff" stroke-width="5.66" transform="scale(.45454) rotate(33 1254.072 -451.69)"/><path d="M370.462 416.77l-.014-.775-13.36.234.017 1.062-1.695.03-.172-9.86 16.752-.29.167 9.567-1.695.03zm-13.502-7.79l.034 1.933 5.783-.1-.033-1.934-5.784.1zm7.54 3.35l.038 2.222 5.883-.103-.037-2.224-5.884.103zm-7.48.13l.04 2.222 5.783-.1-.04-2.224-5.782.1zm7.42-3.61l.032 1.932 5.884-.102-.034-1.933-5.883.102zm1.116-4.564l5.883-.103.02 1.16-5.884.103-.02-1.16zm-.044-2.513l5.883-.103.02 1.16-5.883.103-.02-1.16zm-9.928 2.687l5.884-.103.02 1.16-5.883.103-.02-1.16zm-.043-2.513l5.884-.103.02 1.16-5.883.103-.02-1.16zm7.03-3.023l-.03-1.643-7.976.14-.027-1.546 17.65-.308.026 1.546-7.977.14.03 1.642 9.87-.172.073 4.156-1.696.03-.045-2.61-8.178.143.105 5.993-1.696.03-.103-5.993-8.177.143.047 2.706-1.695.03-.074-4.254 9.872-.172z" style="text-align:start;line-height:125%;-inkscape-font-specification:MS Gothic" font-size="66.327" font-family="MS Gothic"/></g><path d="M1227.945 928.477l3.64-3.64v-3.64h3.64l3.64-3.64h14.56l3.64 3.64h3.64v3.64l3.64 3.64v14.56l-3.64 3.64v3.64h-3.64l-3.64 3.64h-14.56l-3.64-3.64h-3.64v-3.64l-3.64-3.64v-14.56z" fill="url(#ac)" fill-rule="evenodd" stroke="#fff" stroke-width="2.184" transform="translate(-812.352 -625.97)"/><path d="M436.263 315.133h-5.294c-.015-.54-.022-.87-.022-.988 0-1.22.284-2.222.85-3.01.57-.785 1.704-1.67 3.406-2.653 1.702-.983 2.72-1.627 3.052-1.932.512-.482.768-1.013.768-1.593 0-.806-.453-1.496-1.36-2.072-.906-.575-2.128-.862-3.664-.862-1.48 0-2.72.3-3.716.9-.997.6-1.682 1.513-2.055 2.742l-5.358-.472c.153-1.76 1.208-3.254 3.166-4.483 1.96-1.23 4.53-1.843 7.713-1.843 3.35 0 6.014.622 7.994 1.865 1.98 1.244 2.968 2.692 2.968 4.343 0 .915-.363 1.78-1.09 2.596-.726.817-2.28 1.928-4.66 3.334-1.232.727-1.997 1.312-2.294 1.754-.298.443-.433 1.234-.405 2.375zm-5.294 5.574v-4.144h5.833v4.144h-5.834z" font-size="40" font-family="Bitstream Vera Sans"/><g><path d="M-48.774 176.18l9.434-9.433v-9.434h9.434l9.434-9.434h37.736l9.434 9.433h9.434v9.434l9.434 9.434v37.737l-9.434 9.434v9.435h-9.434l-9.434 9.434h-37.736l-9.434-9.435h-9.434v-9.434l-9.434-9.433V176.18z" fill="url(#ad)" fill-rule="evenodd" stroke="#000" stroke-width="5.66" transform="translate(250.62 368.063) scale(.38584)"/><path d="M252.472 448.666h-5.294c-.014-.54-.02-.87-.02-.988 0-1.22.283-2.222.85-3.008.568-.787 1.702-1.67 3.405-2.654 1.702-.984 2.72-1.628 3.052-1.932.512-.482.768-1.013.768-1.593 0-.805-.453-1.496-1.36-2.07-.907-.576-2.128-.864-3.664-.864-1.482 0-2.72.3-3.717.9-.997.6-1.682 1.514-2.056 2.743l-5.356-.473c.153-1.76 1.21-3.254 3.167-4.483 1.958-1.23 4.53-1.843 7.713-1.843 3.35 0 6.013.622 7.992 1.866 1.98 1.244 2.97 2.69 2.97 4.343 0 .913-.364 1.778-1.09 2.594-.727.816-2.28 1.927-4.66 3.333-1.233.728-1.998 1.313-2.296 1.755-.297.443-.432 1.234-.404 2.374zm-5.294 5.575v-4.143h5.833v4.144h-5.832z" font-size="40" font-family="Bitstream Vera Sans"/></g><path d="M1157.742 712.416l3.64-3.64v-3.64h3.64l3.64-3.64h14.56l3.64 3.64h3.64v3.64l3.64 3.64v14.56l-3.64 3.64v3.64h-3.64l-3.64 3.64h-14.56l-3.64-3.64h-3.64v-3.64l-3.64-3.64v-14.56z" fill="url(#ae)" fill-rule="evenodd" stroke="#fff" stroke-width="2.184" transform="translate(-812.352 -625.97)"/><path d="M358.726 82.9c.53.065.562.257.1.576v5.173c.594-.512 1.322-1.31 2.183-2.396l1.587 1.15c.33.447.166.638-.496.574-1.124 1.214-2.216 2.204-3.275 2.97v2.107c0 1.533-.066 2.65-.2 3.353 1.722 1.34 3.178 2.778 4.37 4.31l-1.39 2.012c-1.06-1.533-2.185-2.874-3.376-4.023-.53 2.043-1.854 4.023-3.972 5.94l-1.49-1.725c2.715-2.108 4.07-5.173 4.07-9.196V82.9zm-3.078 5.366c0 2.3-.33 4.438-.992 6.418l-1.986-.48c.662-1.85.993-3.895.993-6.13zm11.12-4.886c.66.256.628.48-.1.67-.33 1.087-.662 2.172-.993 3.258h8.835l-.595 12.26c-.133 3.002-1.324 4.503-3.574 4.503h-2.48l-.795-2.106h2.68c1.324 0 2.02-.862 2.085-2.587l.496-10.25h-7.445c-.86 1.725-1.95 3.29-3.275 4.695l-1.787-1.533c2.383-2.172 4.004-5.333 4.864-9.484zm3.176 10.25v1.82h-7.247v-1.82z" style="-inkscape-font-specification:MS Gothic" font-family="MS Gothic"/></svg>