<svg xmlns="http://www.w3.org/2000/svg" xmlns:xlink="http://www.w3.org/1999/xlink" width="1050" height="1350" version="1"><defs><linearGradient id="n"><stop offset="0" stop-color="#afafaf"/><stop offset="1" stop-color="gray"/></linearGradient><linearGradient id="b"><stop offset="0" stop-color="#ba771c"/><stop offset="1" stop-color="#734a12"/></linearGradient><linearGradient id="d"><stop offset="0" stop-color="#00f89e"/><stop offset="1" stop-color="#00a86b"/></linearGradient><linearGradient id="a"><stop offset="0" stop-color="#51a8ff"/><stop offset="1" stop-color="#007fff"/></linearGradient><linearGradient id="c"><stop offset="0" stop-color="#fff101"/><stop offset="1" stop-color="#ccc000"/></linearGradient><linearGradient id="e"><stop offset="0" stop-color="red"/><stop offset="1" stop-color="#b00000"/></linearGradient><radialGradient xlink:href="#a" id="G" cx="404.894" cy="244.098" fx="404.894" fy="244.098" r="97.606" gradientTransform="matrix(1 0 0 2.0142 0 -247.567)" gradientUnits="userSpaceOnUse"/><radialGradient xlink:href="#a" id="F" cx="272.643" cy="287.069" fx="272.643" fy="287.069" r="39.646" gradientTransform="matrix(1 0 0 3.87497 0 -825.315)" gradientUnits="userSpaceOnUse"/><radialGradient xlink:href="#a" id="E" cx="190.907" cy="538.627" fx="190.907" fy="538.627" r="121.382" gradientTransform="matrix(1 0 0 .848 0 81.878)" gradientUnits="userSpaceOnUse"/><radialGradient xlink:href="#a" id="H" cx="271.539" cy="651.127" fx="271.539" fy="651.127" r="40.75" gradientTransform="matrix(1 0 0 5.28664 0 -2791.147)" gradientUnits="userSpaceOnUse"/><radialGradient xlink:href="#b" id="L" cx="573.473" cy="762.931" fx="573.473" fy="762.931" r="193.53" gradientTransform="matrix(1 0 0 .53546 0 354.414)" gradientUnits="userSpaceOnUse"/><radialGradient xlink:href="#b" id="I" cx="441.221" cy="805.902" fx="441.221" fy="805.902" r="61.279" gradientTransform="matrix(1 0 0 2.39233 0 -1122.08)" gradientUnits="userSpaceOnUse"/><radialGradient xlink:href="#b" id="J" cx="227.234" cy="650.431" fx="227.234" fy="650.431" r="157.709" gradientTransform="matrix(1 0 0 .08796 0 593.216)" gradientUnits="userSpaceOnUse"/><radialGradient xlink:href="#b" id="K" cx="227.234" cy="511.373" fx="227.234" fy="511.373" r="157.709" gradientTransform="matrix(1 0 0 .9697 0 15.495)" gradientUnits="userSpaceOnUse"/><radialGradient xlink:href="#c" id="P" cx="772.766" cy="511.373" fx="772.766" fy="511.373" r="157.709" gradientTransform="matrix(1 0 0 .9697 0 15.495)" gradientUnits="userSpaceOnUse"/><radialGradient xlink:href="#c" id="M" cx="772.766" cy="650.43" fx="772.766" fy="650.43" r="157.709" gradientTransform="matrix(1 0 0 .08797 0 593.215)" gradientUnits="userSpaceOnUse"/><radialGradient xlink:href="#c" id="N" cx="558.779" cy="805.902" fx="558.779" fy="805.902" r="61.278" gradientTransform="matrix(1 0 0 2.39233 0 -1122.08)" gradientUnits="userSpaceOnUse"/><radialGradient xlink:href="#c" id="O" cx="426.527" cy="762.93" fx="426.527" fy="762.93" r="193.53" gradientTransform="matrix(1 0 0 .53546 0 354.414)" gradientUnits="userSpaceOnUse"/><radialGradient xlink:href="#d" id="S" cx="595.106" cy="244.098" fx="595.106" fy="244.098" r="97.606" gradientTransform="matrix(1 0 0 2.0142 0 -247.567)" gradientUnits="userSpaceOnUse"/><radialGradient xlink:href="#d" id="Q" cx="727.357" cy="287.069" fx="727.357" fy="287.069" r="39.646" gradientTransform="matrix(1 0 0 3.87497 0 -825.317)" gradientUnits="userSpaceOnUse"/><radialGradient xlink:href="#d" id="R" cx="809.093" cy="538.627" fx="809.093" fy="538.627" r="121.382" gradientTransform="matrix(1 0 0 .848 0 81.878)" gradientUnits="userSpaceOnUse"/><radialGradient xlink:href="#d" id="T" cx="728.461" cy="651.127" fx="728.461" fy="651.127" r="40.75" gradientTransform="matrix(1 0 0 5.28664 0 -2791.146)" gradientUnits="userSpaceOnUse"/><radialGradient xlink:href="#d" id="Y" gradientUnits="userSpaceOnUse" gradientTransform="matrix(1.8868 0 0 1.8868 -374.528 -690.306)" cx="225" cy="392.362" fx="225" fy="392.362" r="26.5"/><radialGradient xlink:href="#c" id="aa" gradientUnits="userSpaceOnUse" gradientTransform="matrix(1.8868 0 0 1.8868 -478.302 -690.306)" cx="280" cy="392.362" fx="280" fy="392.362" r="26.5"/><radialGradient xlink:href="#b" id="X" gradientUnits="userSpaceOnUse" gradientTransform="matrix(1.8868 0 0 1.8868 -478.302 -586.532)" cx="280" cy="337.362" fx="280" fy="337.362" r="26.5"/><radialGradient xlink:href="#a" id="Z" gradientUnits="userSpaceOnUse" gradientTransform="matrix(1.8868 0 0 1.8868 -166.98 -794.08)" cx="115" cy="447.362" fx="115" fy="447.362" r="26.5"/><radialGradient xlink:href="#e" id="W" gradientUnits="userSpaceOnUse" cx="50" cy="50" fx="50" fy="50" r="50"/><linearGradient id="i"><stop offset="0" stop-color="#fff"/><stop offset="1" stop-color="#b00000"/></linearGradient><linearGradient id="f"><stop offset="0" stop-color="#9c9c9c"/><stop offset="1" stop-color="#a66f24"/></linearGradient><linearGradient id="j"><stop offset="0" stop-color="#734a12"/><stop offset="1" stop-color="#358e20"/></linearGradient><linearGradient id="k"><stop offset="0" stop-color="red"/><stop offset="1" stop-color="#734a12"/></linearGradient><linearGradient id="g"><stop offset="0" stop-color="#86c88e"/><stop offset="1" stop-color="#e26ccd"/></linearGradient><linearGradient id="l"><stop offset="0" stop-color="#00f89e"/><stop offset="1" stop-color="#badcff"/></linearGradient><linearGradient id="m"><stop offset="0" stop-color="#7e8e99"/><stop offset="1" stop-color="#0f011b"/></linearGradient><linearGradient id="h"><stop offset="0" stop-color="#ad0000"/><stop offset="1" stop-color="#140000"/></linearGradient><radialGradient xlink:href="#h" id="ab" gradientUnits="userSpaceOnUse" cx="50" cy="50" fx="50" fy="50" r="50"/><radialGradient xlink:href="#i" id="ac" gradientUnits="userSpaceOnUse" cx="50" cy="50" fx="50" fy="50" r="50"/><radialGradient xlink:href="#j" id="ad" gradientUnits="userSpaceOnUse" cx="50" cy="50" fx="50" fy="50" r="50"/><radialGradient xlink:href="#k" id="ae" gradientUnits="userSpaceOnUse" gradientTransform="matrix(1.8868 0 0 1.8868 -166.98 -690.306)" cx="115" cy="392.362" fx="115" fy="392.362" r="26.5"/><radialGradient xlink:href="#l" id="af" gradientUnits="userSpaceOnUse" cx="50" cy="50" fx="50" fy="50" r="50"/><radialGradient xlink:href="#m" id="ag" gradientUnits="userSpaceOnUse" gradientTransform="matrix(1.8868 0 0 1.8868 -166.98 -690.306)" cx="115" cy="392.362" fx="115" fy="392.362" r="26.5"/><radialGradient xlink:href="#e" id="V" gradientUnits="userSpaceOnUse" gradientTransform="matrix(1 0 0 .1616 25 300.382)" cx="713.988" cy="328.459" fx="713.988" fy="328.459" r="216.488"/><radialGradient xlink:href="#e" id="U" gradientUnits="userSpaceOnUse" gradientTransform="matrix(1 0 0 .6273 25 106.24)" cx="632.252" cy="217.971" fx="632.252" fy="217.971" r="134.752"/><radialGradient xlink:href="#e" id="D" gradientUnits="userSpaceOnUse" gradientTransform="matrix(1 0 0 .1616 25 300.382)" cx="286.012" cy="328.459" fx="286.012" fy="328.459" r="216.488"/><radialGradient xlink:href="#e" id="C" gradientUnits="userSpaceOnUse" gradientTransform="matrix(1 0 0 .6273 25 106.24)" cx="367.748" cy="217.971" fx="367.748" fy="217.971" r="134.752"/><radialGradient xlink:href="#o" id="ah" cx="50" cy="50" fx="50" fy="50" r="50" gradientUnits="userSpaceOnUse"/><linearGradient id="o"><stop offset="0" stop-color="#ffefb1"/><stop offset=".5" stop-color="#ffaa37"/><stop offset="1" stop-color="#b00000"/></linearGradient><linearGradient id="p"><stop offset="0" stop-color="#ffff64"/><stop offset=".5" stop-color="red"/><stop offset="1" stop-color="#600"/></linearGradient><radialGradient xlink:href="#q" id="ai" cx="50" cy="50" fx="50" fy="50" r="50" gradientUnits="userSpaceOnUse"/><linearGradient id="q"><stop offset="0" stop-color="#ffff64"/><stop offset=".5" stop-color="red"/><stop offset="1" stop-color="#600"/></linearGradient><radialGradient xlink:href="#n" id="aj" gradientUnits="userSpaceOnUse" gradientTransform="translate(-51.604 145.05)" cx="50" cy="50" fx="50" fy="50" r="50"/><radialGradient xlink:href="#e" id="z" cx="513.284" cy="425" fx="513.284" fy="425" r="14.216" gradientTransform="matrix(1 0 0 7.21037 0 -2639.407)" gradientUnits="userSpaceOnUse"/><radialGradient xlink:href="#d" id="B" cx="620.106" cy="493.051" fx="620.106" fy="493.051" r="97.606" gradientTransform="matrix(1 0 0 .35294 0 319.033)" gradientUnits="userSpaceOnUse"/><radialGradient xlink:href="#b" id="A" cx="466.221" cy="605.902" fx="466.221" fy="605.902" r="61.279" gradientTransform="matrix(1 0 0 1.36102 0 -218.745)" gradientUnits="userSpaceOnUse"/><radialGradient xlink:href="#r" id="ak" cx="50" cy="50" fx="50" fy="50" r="50" gradientUnits="userSpaceOnUse"/><linearGradient id="r"><stop offset="0" stop-color="#9c9c9c"/><stop offset="1" stop-color="#a66f24"/></linearGradient><radialGradient xlink:href="#s" id="al" cx="50" cy="50" fx="50" fy="50" r="50" gradientUnits="userSpaceOnUse"/><linearGradient id="s"><stop offset="0" stop-color="#b051ff"/><stop offset="1" stop-color="#8b00ff"/></linearGradient><radialGradient gradientUnits="userSpaceOnUse" r="50" fy="50" fx="50" cy="50" cx="50" id="ap" xlink:href="#t"/><linearGradient id="t"><stop offset="0" stop-color="#fff"/><stop offset="1" stop-color="#dcdcdc"/></linearGradient><radialGradient xlink:href="#u" id="am" cx="50" cy="50" fx="50" fy="50" r="50" gradientUnits="userSpaceOnUse"/><linearGradient id="u"><stop offset="0"/><stop offset="1" stop-color="#3c3c3c"/></linearGradient><linearGradient xlink:href="#v" id="ao" gradientUnits="userSpaceOnUse" gradientTransform="rotate(180 -19.353 53.346)" x1="-126.442" y1="94.427" x2="-50.97" y2="18.956"/><linearGradient xlink:href="#w" id="an" gradientUnits="userSpaceOnUse" gradientTransform="rotate(180 -19.353 53.346)" x1="-126.442" y1="18.956" x2="-50.97" y2="94.427"/><linearGradient id="w"><stop offset="0" stop-color="#fff"/><stop offset="1" stop-color="#dcdcdc"/></linearGradient><linearGradient id="v"><stop offset="0"/><stop offset="1" stop-color="#3c3c3c"/></linearGradient><radialGradient xlink:href="#t" id="y" cx="325" cy="1271.875" fx="325" fy="1271.875" r="202.5" gradientTransform="matrix(1 0 0 .24383 0 961.757)" gradientUnits="userSpaceOnUse"/><radialGradient xlink:href="#u" id="x" gradientUnits="userSpaceOnUse" gradientTransform="matrix(-1 0 0 -.24383 1050 1488.243)" cx="325" cy="1271.875" fx="325" fy="1271.875" r="202.5"/></defs><path d="M925 1225c-100-125-300-125-400 0" fill="none" stroke="url(#x)" stroke-width="5"/><path d="M125 1225c100 125 300 125 400 0" fill="none" stroke="url(#y)" stroke-width="5"/><path d="M525 525c-31.694-67.657-30.786-134.295 0-200" fill="none" stroke="url(#z)" stroke-width="5" stroke-linecap="round" stroke-linejoin="round"/><path d="M525 525c-14.127 73.365-54.03 126.743-117.557 161.804" fill="none" stroke="url(#A)" stroke-width="5" stroke-linecap="round" stroke-linejoin="round"/><path d="M525 525c54.552-51.05 118.21-70.78 190.21-61.803" fill="none" stroke="url(#B)" stroke-width="5" stroke-linecap="round" stroke-linejoin="round"/><path d="M260.497 160.943L525 325" fill="#ff0" fill-opacity=".502" stroke="url(#C)" stroke-width="5" stroke-linejoin="round"/><path d="M525 325c-147.333-13.054-290.274 5.24-427.975 60.943" fill="none" stroke="url(#D)" stroke-width="5" stroke-linejoin="round"/><path transform="matrix(.20503 -.63103 .64635 .21 121.576 646.072)" d="M662.857 509.505a301.43 294.286 0 0 1-48.63 160.28" fill="none" stroke="#000" stroke-width="14.892" stroke-linejoin="round"/><path d="M678.483 378.23l10.907 32.02-29.053-17.325c8.548-.396 15.86-6.354 18.146-14.694z" font-size="12" fill-rule="evenodd"/><path d="M662.857 509.505a301.43 294.286 0 0 1-48.63 160.28" transform="matrix(.6635 0 0 .6796 285.19 178.735)" fill="none" stroke="#000" stroke-width="14.892" stroke-linejoin="round"/><path d="M712.27 625.31l-27.084 20.27 7.5-32.986c3.02 8.008 10.944 13.12 19.583 12.717z" font-size="12" fill-rule="evenodd"/><path d="M662.857 509.505a301.43 294.286 0 0 1-48.63 160.28" transform="matrix(.20504 .63103 -.64635 .21 780.213 189.925)" fill="none" stroke="#000" stroke-width="14.892" stroke-linejoin="round"/><path d="M487.445 734.07L459.8 714.574l33.688-3.06c-6.683 5.346-9.096 14.463-6.043 22.554z" font-size="12" fill-rule="evenodd"/><path d="M662.857 509.505a301.43 294.286 0 0 1-48.63 160.28" transform="matrix(-.5368 .39 -.39947 -.54982 922.54 664.178)" fill="none" stroke="#000" stroke-width="14.892" stroke-linejoin="round"/><path d="M314.555 553.845l9.997-32.316 13.32 31.093c-7.148-4.704-16.564-4.182-23.317 1.222z" font-size="12" fill-rule="evenodd"/><path transform="matrix(-.5368 -.39 .39947 -.54982 515.48 946.092)" d="M662.857 509.505a301.43 294.286 0 0 1-48.63 160.28" fill="none" stroke="#000" stroke-width="14.892" stroke-linejoin="round"/><path d="M432.404 333.79l33.823-.478-25.456 22.277c2.266-8.254-1.14-17.047-8.366-21.8z" font-size="12" fill-rule="evenodd"/><g stroke-width="5"><path d="M72.025 639.058l237.764-200.86" fill="#ff0" fill-opacity=".502" stroke="url(#E)" stroke-linejoin="round" transform="translate(25 25)"/><path d="M235.497 135.942l74.292 302.255" fill="none" stroke="url(#F)" transform="translate(25 25)"/><path d="M309.79 438.197C342.9 294.04 404.47 163.747 500 50" fill="none" stroke="url(#G)" stroke-linejoin="round" transform="translate(25 25)"/><path d="M309.79 438.197c-57.945 136.088-84.718 277.686-74.293 425.86" fill="none" stroke="url(#H)" stroke-linejoin="round" transform="translate(25 25)"/></g><g stroke-width="5" stroke-linejoin="round"><path d="M500 950L382.443 661.803" fill="#ff0" fill-opacity=".502" stroke="url(#I)" transform="translate(25 25)"/><path d="M72.025 639.058l310.418 22.745" fill="#ff0" fill-opacity=".502" stroke="url(#J)" transform="translate(25 25)"/><path d="M382.443 661.803c-126.868-76.038-231.757-174.858-310.418-300.86" fill="none" stroke="url(#K)" transform="translate(25 25)"/><path d="M382.443 661.803c111.522 97.162 237.917 166.38 382.06 202.255" fill="none" stroke="url(#L)" transform="translate(25 25)"/></g><g stroke-width="5" stroke-linejoin="round"><path d="M927.976 639.058l-310.42 22.745" fill="#ff0" fill-opacity=".502" stroke="url(#M)" transform="translate(25 25)"/><path d="M500 950l117.557-288.197" fill="#ff0" fill-opacity=".502" stroke="url(#N)" transform="translate(25 25)"/><path d="M617.557 661.803c-111.52 97.162-237.917 166.38-382.06 202.255" fill="none" stroke="url(#O)" transform="translate(25 25)"/><path d="M617.557 661.803c126.868-76.04 231.757-174.858 310.418-300.86" fill="none" stroke="url(#P)" transform="translate(25 25)"/></g><g stroke-width="5" stroke-linejoin="round"><path d="M764.503 135.942L690.21 438.197" fill="#ff0" fill-opacity=".502" stroke="url(#Q)" transform="translate(25 25)"/><path d="M927.976 639.058L690.21 438.198" fill="#ff0" fill-opacity=".502" stroke="url(#R)" transform="translate(25 25)"/><path d="M690.21 438.197C657.1 294.04 595.53 163.747 500 50" fill="none" stroke="url(#S)" transform="translate(25 25)"/><path d="M690.21 438.197c57.945 136.087 84.718 277.686 74.293 425.86" fill="none" stroke="url(#T)" transform="translate(25 25)"/></g><path d="M789.503 160.942L525 325" fill="#ff0" fill-opacity=".502" stroke="url(#U)" stroke-width="5" stroke-linejoin="round"/><path d="M525 325c147.333-13.055 290.274 5.24 427.975 60.942" fill="none" stroke="url(#V)" stroke-width="5" stroke-linejoin="round"/><path d="M2.83 31.132L31.132 2.83h37.736L97.17 31.132v37.736L68.868 97.17H31.132L2.83 68.868V31.132z" fill="url(#W)" fill-rule="evenodd" stroke="#000" stroke-width="5.66" transform="translate(475 275)"/><path style="-inkscape-font-specification:MS Gothic" d="M524.87 329.188c-3.652 11-12 19.037-25.042 24.114l-3.13-6.346c16.347-5.076 24.52-15.145 24.52-30.205V296.7l6 .508c1.043.338 1.043 1.015 0 2.03v17.515c0 13.03 8.694 22.845 26.084 29.445l-2.61 6.345c-13.04-5.076-21.65-12.86-25.822-23.352zm23.476-16.752c-3.304 6.768-6.087 11.59-8.347 14.468l-5.218-3.3c3.13-4.06 6-9.307 8.608-15.737l5.738 2.792c1.044.506.783 1.1-.782 1.776zm-47.213 13.452c2.434-4.4 3.564-10.068 3.39-17.006l6.522 1.523c1.39.508 1.39 1.1 0 1.777 0 4.907-1.13 10.153-3.39 15.737l-6.522-2.032z" font-size="65.872" font-family="MS Gothic"/><path d="M2.83 31.132L31.132 2.83h37.736L97.17 31.132v37.736L68.868 97.17H31.132L2.83 68.868V31.132z" fill="url(#X)" fill-rule="evenodd" stroke="#000" stroke-width="5.66" transform="translate(357.443 636.804)"/><path d="M410.064 658.502c1.747.374 1.834 1.12.262 2.242v15.412h20.44v6.165h-20.44v26.62h25.42v6.166H379.14v-6.165H404.3v-26.62h-20.44v-6.164h20.44v-17.654h5.766z" style="text-align:start;line-height:125%;-inkscape-font-specification:MS Gothic" font-size="36.767" font-family="MS Gothic"/><path d="M2.83 31.132L31.132 2.83h37.736L97.17 31.132v37.736L68.868 97.17H31.132L2.83 68.868V31.132z" fill="url(#Y)" fill-rule="evenodd" stroke="#000" stroke-width="5.66" transform="translate(665.21 413.197)"/><path style="text-align:start;line-height:125%;-inkscape-font-specification:MS Gothic" d="M698.612 481.847l12.897-.52V470.89h-5.255v4.173h-4.06V454.98h9.314v-4.956l-9.793.26-1.433-4.955c9.235.173 16.957-.436 23.167-1.827l3.106 4.695c.16 1.218-.32 1.478-1.433.783l-9.553.783v5.217h9.553v15.912h-9.553v10.173l7.403-.783-3.582-4.956 3.822-2.87c3.344 3.827 6.13 7.913 8.36 12.26l-4.538 3.13-2.15-3.912-23.406 3.39c-.16 1.22-.557 1.48-1.194.784l-1.672-6.26zm37.736-3.912c1.433 3.826 2.388 2.434 2.866-4.174l4.3 3.914c-.638 5.912-1.593 9.39-2.867 10.434-2.707 2.26-5.493 0-8.36-6.782-1.91-4.522-2.865-11.043-2.865-19.564v-21.91h-31.05v28.43c0 8.35-2.705 15.565-8.12 21.652l-3.343-4.956c4.458-4.522 6.687-10.52 6.687-18v-32.083H734.2V461.5c0 7.13.715 12.61 2.148 16.435zm-15.285-18.78h-5.493v7.563h5.493v-7.564zm-9.554 0h-5.255v7.563h5.254v-7.564z" font-size="63.897" font-family="MS Gothic"/><path d="M2.83 31.132L31.132 2.83h37.736L97.17 31.132v37.736L68.868 97.17H31.132L2.83 68.868V31.132z" fill="url(#Z)" fill-rule="evenodd" stroke="#000" stroke-width="5.66" transform="translate(284.79 413.197)"/><path d="M360.15 487.708c-9.638-6.738-17.07-16.51-22.298-29.312v29.06c0 2.695-1.307 4.043-3.92 4.043h-5.882l-.98-4.802h4.9c.654 0 .98-.337.98-1.01v-50.793h4.657c1.307.17 1.388.674.245 1.516v7.33c0 3.706 1.388 8.086 4.165 13.14 3.758-2.696 7.923-6.907 12.497-12.635l4.41 4.548c.818 1.348.328 1.853-1.47 1.517-3.92 3.706-8.33 7.328-13.23 10.865 4.736 8.592 11.025 15.5 18.867 20.72l-2.94 5.813zm-30.63-34.872c-2.613 16.005-9.393 27.63-20.338 34.872l-2.695-5.306c8.985-5.223 14.866-14.572 17.643-28.05h-14.213v-4.8h14.213l1.47-2.022 4.166 3.032c1.143.674 1.06 1.432-.246 2.274z" font-size="63.702" font-family="Bitstream Vera Sans"/><g><path d="M2.83 31.132L31.132 2.83h37.736L97.17 31.132v37.736L68.868 97.17H31.132L2.83 68.868V31.132z" fill="url(#aa)" fill-rule="evenodd" stroke="#000" stroke-width="5.66" transform="translate(592.557 636.804)"/><path style="text-align:start;line-height:125%;-inkscape-font-specification:MS Gothic" d="M660.328 714.34v-2.04h-35.28v2.806h-4.474v-26.008h44.23v25.243h-4.476zm-35.28-21.162v5.1h15.27v-5.1h-15.27zm19.747 9.18v5.863h15.533v-5.863h-15.533zm-19.746 0v5.863h15.27v-5.863h-15.27zm19.745-9.18v5.1h15.533v-5.1h-15.533zm3.16-11.984h15.532v3.06h-15.533v-3.06zm0-6.63h15.532v3.06h-15.533v-3.06zm-26.328 6.63h15.533v3.06h-15.533v-3.06zm0-6.63h15.533v3.06h-15.533v-3.06zm18.692-7.648v-4.335h-21.063v-4.078h46.6v4.08h-21.062v4.334h26.064v10.964h-4.477v-6.885h-21.588v15.81h-4.476v-15.81h-21.59v7.14h-4.475v-11.22h26.064z" font-size="66.327" font-family="MS Gothic"/></g><g><path d="M2.83 31.132l9.434-9.434v-9.434h9.434l9.434-9.434h37.736l9.434 9.434h9.434v9.434l9.434 9.434v37.736l-9.434 9.434v9.434h-9.434l-9.434 9.434H31.132l-9.434-9.434h-9.434v-9.434L2.83 68.868V31.132z" fill="url(#ab)" fill-rule="evenodd" stroke="#000" stroke-width="5.66" transform="translate(902.975 335.943)"/><path d="M954.577 358.14c1.424.168 1.424.67 0 1.504v7.764c3.026 8.35 11.66 13.692 25.9 16.03l-1.336 5.76c-14.06-3.172-22.872-8.348-26.432-15.528-2.67 8.015-11.214 13.107-25.632 15.278l-1.602-5.51c15.842-1.002 23.763-7.347 23.763-19.035v-6.763l5.34.5zm25.632 55.854c-11.927-2.004-21.094-7.18-27.502-15.53-3.026 8.35-11.66 13.61-25.9 15.78l-2.135-5.76c16.376-1.17 24.564-7.68 24.564-19.536v-5.76l6.14.75c1.247.502 1.158 1.086-.266 1.754-.355 2.505-.622 5.01-.8 7.514 5.518 8.18 14.507 13.024 26.967 14.526l-1.068 6.262zm-18.157-43.08c3.916-3.172 6.497-6.428 7.743-9.767l5.874 3.506c.534.668.09 1.086-1.335 1.253-1.602 2.504-4.005 5.26-7.21 8.265l-5.072-3.255zm-20.56-5.51c-.533 3.507-2.046 6.763-4.538 9.77l-5.874-2.506c2.493-3.005 4.006-6.178 4.54-9.517l5.874 2.255zm20.827 31.058c2.848-2.84 5.162-5.677 6.942-8.516l5.34 3.507c.534.5 0 1-1.602 1.502-1.602 2.004-3.738 4.342-6.408 7.013l-4.272-3.506zm-20.56-4.76c-.355 2.506-1.957 5.762-4.805 9.77l-5.607-3.007c2.492-3.172 4.094-6.26 4.806-9.267l5.607 2.505z" font-size="66.201" font-family="Bitstream Vera Sans"/></g><g><path d="M2.83 31.132l9.434-9.434v-9.434h9.434l9.434-9.434h37.736l9.434 9.434h9.434v9.434l9.434 9.434v37.736l-9.434 9.434v9.434h-9.434l-9.434 9.434H31.132l-9.434-9.434h-9.434v-9.434L2.83 68.868V31.132z" fill="url(#ac)" fill-rule="evenodd" stroke="#000" stroke-width="5.66" transform="translate(210.497 110.943)"/><path d="M280.816 158.392v-1.458h-5.08v6.317H288.8l-.97 12.876c-.322 3.725-2.095 5.588-5.32 5.588h-3.63l-.483-4.616h2.66c1.613 0 2.42-.972 2.42-2.915l.242-6.317h-7.984v20.65h-4.838v-20.65h-5.563c.16 11.013-5.08 18.14-15.724 21.38l-1.934-5.103c8.547-2.267 12.82-7.693 12.82-16.277h-5.563l-.484 3.887-4.84-.243 1.694-19.192h9.193v-6.56H249.61v-4.615h10.887v-8.502h4.596c1.29.163 1.37.65.242 1.458v7.045h5.563v-8.502h4.596c1.29.163 1.37.65.242 1.458v7.045h9.918v17.25h-4.838zm-44.267-8.746c4.03 1.782 7.175 3.887 9.433 6.317l-3.145 4.858c-2.42-2.59-5.402-4.938-8.95-7.044l2.66-4.13zm23.947 13.605v-6.316H255.9l-.483 6.317h5.08zm10.4-6.316h-5.562v6.317h5.563v-6.316zm0-4.616v-6.56h-5.562v6.56h5.563zm9.92 0v-6.56h-5.08v6.56h5.08zm-42.333-17.005c3.87 1.62 7.015 3.644 9.434 6.073l-3.145 4.616c-2.257-2.105-5.32-4.21-9.192-6.316l2.904-4.373zm-6.29 48.83c5.322-6.64 8.95-12.795 10.886-18.463l4.112 2.915c-1.45 4.697-4.515 10.69-9.192 17.977.323 1.296.08 1.62-.726.972l-5.08-3.4z" font-size="17.238" font-family="Bitstream Vera Sans"/></g><g><path d="M2.83 31.132l9.434-9.434v-9.434h9.434l9.434-9.434h37.736l9.434 9.434h9.434v9.434l9.434 9.434v37.736l-9.434 9.434v9.434h-9.434l-9.434 9.434H31.132l-9.434-9.434h-9.434v-9.434L2.83 68.868V31.132z" fill="url(#ad)" fill-rule="evenodd" stroke="#000" stroke-width="5.66" transform="translate(47.025 614.058)"/><path d="M68.723 680.176c11.97-6.43 20.114-15.568 24.436-27.413H71.215v-5.585h22.94v-11.422h4.74c1.33.17 1.412.677.248 1.523v9.898h23.69v5.585H100.14c3.66 10.66 12.054 19.46 25.186 26.398l-2.743 5.84c-10.14-5.585-17.953-13.37-23.44-23.353v30.713h-4.986v-29.952c-4.82 8.97-12.22 16.753-22.193 23.352l-3.24-5.584z" style="text-align:start;line-height:125%;-inkscape-font-specification:MS Gothic" font-size="64.405" font-family="MS Gothic"/></g><g><path d="M2.83 31.132l9.434-9.434v-9.434h9.434l9.434-9.434h37.736l9.434 9.434h9.434v9.434l9.434 9.434v37.736l-9.434 9.434v9.434h-9.434l-9.434 9.434H31.132l-9.434-9.434h-9.434v-9.434L2.83 68.868V31.132z" fill="url(#ae)" fill-rule="evenodd" stroke="#000" stroke-width="5.66" transform="translate(47.025 335.943)"/><path d="M86.788 394.802c7.868-2.953 13.57-8.777 17.1-17.473l5.3.737c.643.657.402 1.067-.722 1.23 3.854 6.564 9.474 11.568 16.86 15.013l-1.926 4.922c-1.927-.82-3.854-1.97-5.78-3.445v17.473h-4.096v-2.215H99.072v3.2h-4.095v-18.458c-1.445 1.312-3.452 2.543-6.02 3.69l-2.17-4.675zm2.89-12.55c4.015-3.282 6.825-6.81 8.43-10.583l4.336 2.706c.642.82.32 1.066-.963.738-1.926 3.938-4.817 7.547-8.67 10.83l-3.132-3.693zm30.59 2.46c-4.335-2.297-8.03-5.988-11.08-11.074l3.613-2.215c2.57 3.773 5.943 6.81 10.118 9.105l-2.65 4.184zm-45.765-12.06c0 6.072-.4 11.814-1.204 17.228l-4.577-1.968c.642-5.415 1.043-11.157 1.204-17.228l5.058.493c.643.492.482.984-.482 1.476zm2.65-14.027h4.576c1.284.164 1.364.657.24 1.477v14.274l4.095-4.922 3.372 2.953v-7.875h13.97v-6.89h4.577c1.285.163 1.365.655.24 1.475v5.415h14.694v11.074h-4.095v-7.137h-25.29v7.63h-4.096v-2.71L81.97 379.3v14.274c3.212 2.79 6.343 6.317 9.394 10.582l-3.613 4.184c-1.444-2.953-3.772-6.152-6.984-9.598C79 405.303 76.43 410.39 73.058 414l-3.372-4.43c4.978-5.58 7.467-12.963 7.467-22.15v-28.795zm38.54 35.93c-3.695-2.624-6.906-6.397-9.636-11.32-1.927 4.43-5.138 8.204-9.635 11.32h19.27zm-2.17 12.553v-8.614h-14.45v8.614h14.45z" style="text-align:start;line-height:125%;-inkscape-font-specification:MS Gothic" font-size="62.329" font-family="MS Gothic"/></g><g><path d="M2.83 68.868V31.132l9.434-9.434v-9.434h9.434l9.434-9.434h37.736l9.434 9.434h9.434v9.434l9.434 9.434v37.736l-9.434 9.434v9.434h-9.434l-9.434 9.434H31.132l-9.434-9.434h-9.434v-9.434L2.83 68.868z" fill="url(#af)" fill-rule="evenodd" stroke="#000" stroke-width="5.66" transform="translate(475 25)"/><path d="M527.39 56.565c1.006 4.328 2.6 8.396 4.78 12.204 3.69-2.944 7.63-7.012 11.824-12.205l4.78 4.414c.167.865-.252 1.124-1.258.778-3.858 3.98-8.134 7.876-12.83 11.684 4.528 7.444 10.733 13.416 18.616 17.916l-2.767 5.972c-9.728-5.712-17.443-14.454-23.145-26.224v28.042c0 2.77-1.342 4.154-4.025 4.154h-4.528l-1.007-5.712h3.522c.67 0 1.007-.346 1.007-1.04V46.7h4.778c1.678.347 1.76 1.04.252 2.078v7.79zm-28.428 13.762v-5.713h19.623c0 15.58-6.205 27.177-18.616 34.793l-3.272-5.452c9.392-5.54 14.76-13.415 16.1-23.628h-13.836zm8.805-20.513c3.522 1.73 6.54 3.808 9.057 6.232l-3.522 4.674c-2.18-2.25-5.115-4.414-8.805-6.492l3.27-4.414z" style="text-align:start;line-height:125%;-inkscape-font-specification:MS Gothic" font-size="65.428" font-family="MS Gothic"/></g><g><path d="M2.83 31.132l9.434-9.434v-9.434h9.434l9.434-9.434h37.736l9.434 9.434h9.434v9.434l9.434 9.434v37.736l-9.434 9.434v9.434h-9.434l-9.434 9.434H31.132l-9.434-9.434h-9.434v-9.434L2.83 68.868V31.132z" fill="url(#ag)" fill-rule="evenodd" stroke="#000" stroke-width="5.66" transform="translate(210.497 839.058)"/><path d="M243.977 907.27l12.39-.492v-6.89h-5.102v3.198h-4.13v-14.028h9.232v-3.2l-9.96.493-.73-3.445c9.556-.328 17.573-1.148 24.052-2.46l1.456 3.937-10.69 1.23v3.446h8.99v10.83h-8.99v6.397l6.074-.246-2.186-2.954 3.4-1.97c2.268 2.462 4.455 5.415 6.56 8.86l-4.13 2.216-1.7-2.46-22.35 1.968c-.324 1.148-.648 1.394-.972.738l-1.215-5.168zm44.215-5.415l-.486 2.708c-1.458 8.53-4.454 10.5-8.99 5.906-3.238-3.282-4.858-8.78-4.858-16.49v-15.504h-30.61v17.473c0 6.562-2.59 12.796-7.773 18.703l-3.887-3.692c4.534-4.265 6.802-9.433 6.802-15.503v-20.92h40.327v19.443c0 5.25.73 8.942 2.187 11.075.81 1.312 1.376 1.23 1.7-.246l.972-5.17 4.616 2.215zm-22.836-4.922v-4.922h-4.86v4.923h4.86zm-8.99 0v-4.922h-5.1v4.923h5.1zm22.837-36.177c1.296.164 1.377.656.243 1.477v8.86h-42.028v-10.337h4.616c1.296.164 1.377.656.243 1.477v4.922h13.36v-9.106h4.617c1.296.163 1.377.655.243 1.475v7.63h14.09v-6.4h4.616z" font-size="61.151" font-family="Bitstream Vera Sans"/></g><text x="1000.145" y="367.075" font-size="40" font-family="Bitstream Vera Sans"><tspan x="1000.145" y="367.075" style="-inkscape-font-specification:Bitstream Vera Sans Bold" font-weight="bold">?</tspan></text><g><path d="M2.83 31.132l9.434-9.434v-9.434h9.434l9.434-9.434h37.736l9.434 9.434h9.434v9.434l9.434 9.434v37.736l-9.434 9.434v9.434h-9.434l-9.434 9.434H31.132l-9.434-9.434h-9.434v-9.434L2.83 68.868V31.132z" fill="url(#ah)" fill-rule="evenodd" stroke="#000" stroke-width="5.66" transform="translate(475 925)"/><path style="-inkscape-font-specification:MS Gothic" d="M541.946 981.263c2.784 3.274 6.713 5.894 11.79 7.86l-1.966 3.93c-2.128-.984-4.01-2.048-5.65-3.194l-2.21 3.683c2.293 1.146 4.83 2.62 7.615 4.42l-2.702 3.684c-4.748-3.765-8.923-6.22-12.525-7.367v4.91c0 2.457-.9 3.685-2.702 3.685h-3.684l-.982-3.93h2.456c.49 0 .736-.245.736-.736v-3.685l-11.297 6.14c-.328 1.146-.655 1.392-.983.737l-2.21-4.175 8.105-3.193-3.193-4.42c-1.8 1.473-3.52 2.62-5.158 3.438.328.327.573.9.737 1.72l-4.175 2.7c-1.637-4.093-3.52-7.45-5.65-10.07-1.31 5.73-4.256 10.89-8.84 15.473l-2.702-3.93c5.567-5.566 8.35-12.36 8.35-20.384v-31.435h3.93c1.31.163 1.392.655.246 1.473v14.49c1.637-1.473 3.274-3.356 4.912-5.648l3.684 3.93c.327.654-.082.982-1.228.982-1.965 2.128-4.42 4.42-7.368 6.876V982c2.128 2.128 4.093 4.666 5.894 7.613 4.257-2.128 7.614-4.912 10.07-8.35h-10.56v-3.93h10.56v-3.438h-7.614v-3.93h7.614v-4.42h-6.632v-17.192h29.718v17.19h-6.386v4.422h7.86v3.93h-7.86v3.438h11.052v3.93zm-45.68-4.667c1.473-5.075 2.21-10.806 2.21-17.192l4.666.983c.49.49.327.982-.49 1.473.162 4.585-.575 10.152-2.212 16.7zm35.856 14.49v-8.104h3.93c1.31.164 1.392.655.246 1.474v6.14l3.93 1.473 2.7-4.667c-2.292-1.965-4.01-4.012-5.157-6.14h-8.35c-.49 1.637-1.882 3.684-4.174 6.14l4.175 5.157zM522.79 951.3v4.175h21.367V951.3zm0 7.122v4.175h21.367v-4.175zm6.63 7.122v4.42h8.35v-4.42zm0 8.35v3.44h8.35v-3.44z" font-size="62.873" font-family="MS Gothic"/></g><g><path d="M2.83 31.132l9.434-9.434v-9.434h9.434l9.434-9.434h37.736l9.434 9.434h9.434v9.434l9.434 9.434v37.736l-9.434 9.434v9.434h-9.434l-9.434 9.434H31.132l-9.434-9.434h-9.434v-9.434L2.83 68.868V31.132z" fill="url(#ai)" fill-rule="evenodd" stroke="#000" stroke-width="5.66" transform="translate(739.503 110.942)"/><path style="-inkscape-font-specification:MS Gothic" d="M776.896 132.888c1.372.166 1.458.662.257 1.49v13.406c1.544-1.324 3.43-3.393 5.66-6.207l4.117 2.98c.858 1.158.43 1.655-1.286 1.49-2.916 3.144-5.747 5.71-8.49 7.695v5.462c0 3.972-.173 6.87-.516 8.69 4.46 3.475 8.234 7.2 11.32 11.17l-3.6 5.215c-2.745-3.973-5.66-7.45-8.75-10.428-1.37 5.296-4.8 10.427-10.29 15.392l-3.86-4.47c7.033-5.46 10.55-13.405 10.55-23.832v-28.054zm-7.976 13.903c0 5.96-.858 11.504-2.573 16.635l-5.146-1.242c1.716-4.8 2.574-10.096 2.574-15.89zm28.816-12.66c1.716.662 1.63 1.24-.257 1.737-.86 2.814-1.716 5.628-2.574 8.44h22.9l-1.545 31.78c-.342 7.778-3.43 11.667-9.26 11.667h-6.433l-2.06-5.46h6.948c3.43 0 5.232-2.236 5.403-6.704l1.287-26.565h-19.297c-2.23 4.47-5.06 8.524-8.49 12.165l-4.632-3.972c6.175-5.627 10.377-13.82 12.607-24.578zm8.234 26.564v4.717h-18.783v-4.716z" font-family="MS Gothic"/></g><g><path d="M-48.774 176.18l9.434-9.433v-9.434h9.434l9.434-9.434h37.736l9.434 9.433h9.434v9.434l9.434 9.434v37.737l-9.434 9.434v9.435h-9.434l-9.434 9.434h-37.736l-9.434-9.435h-9.434v-9.434l-9.434-9.433V176.18z" fill="url(#aj)" fill-rule="evenodd" stroke="#000" stroke-width="5.66" transform="translate(954.58 469.01)"/><path d="M959.38 677.914h-13.722c-.035-1.402-.053-2.255-.053-2.56 0-3.16.735-5.76 2.206-7.798 1.47-2.038 4.413-4.332 8.825-6.88 4.412-2.548 7.048-4.217 7.91-5.007 1.327-1.25 1.99-2.625 1.99-4.128 0-2.09-1.175-3.88-3.524-5.37-2.35-1.49-5.514-2.236-9.496-2.236-3.838 0-7.048.777-9.63 2.33-2.584 1.556-4.36 3.925-5.328 7.11l-13.882-1.223c.395-4.56 3.13-8.434 8.206-11.62 5.075-3.184 11.738-4.776 19.988-4.776 8.68 0 15.586 1.61 20.716 4.835 5.13 3.223 7.694 6.975 7.694 11.255 0 2.37-.942 4.612-2.825 6.727-1.883 2.115-5.91 4.994-12.08 8.638-3.192 1.886-5.174 3.402-5.945 4.548-.77 1.147-1.12 3.198-1.05 6.154zm-13.722 14.447v-10.74h15.12v10.74h-15.12z" font-size="40" font-family="Bitstream Vera Sans"/></g><g><path d="M26.415 7.547l4.717-4.717h37.736l4.717 4.717h9.434v9.434h9.433v9.435l4.717 4.717v37.736l-4.717 4.717v9.434H83.02v9.433h-9.435l-4.717 4.717H31.132l-4.717-4.717H16.98V83.02H7.548v-9.435L2.83 68.868V31.132l4.717-4.717V16.98h9.434V7.548h9.435z" fill="url(#ak)" fill-rule="evenodd" stroke="#000" stroke-width="5.66" transform="translate(475 475)"/><path d="M545.006 532.356c1.302 0 2.034-.415 2.196-1.247l.488-2.245 4.148.998c-.65 4.322-2.115 6.483-4.392 6.483h-12.2c-2.927 0-4.39-1.496-4.39-4.488v-10.723h-13.42v3.74h9.516v3.99h-9.516v3.49l10.248-.747.488 3.242-18.543 2.493c-.326 1.33-.652 1.58-.977.748l-.976-5.235h5.612v-11.72h-6.833v9.974c0 8.478-2.114 15.71-6.343 21.693l-3.416-2.992c3.74-6.15 5.61-12.965 5.61-20.446v-26.93h21.472v-5.736h4.636c1.3.166 1.382.665.244 1.496v4.24h23.178v3.99h-16.835v3.24h12.687v11.47h-12.687v4.49l12.687-2.494 2.196 3.242c.163 1.163-.325 1.413-1.464.748l-13.42 1.995v1.496c0 1.164.57 1.746 1.71 1.746h8.294zm-19.03 12.22h-16.103v-3.99h16.103v-3.74h3.903c1.3.165 1.382.664.243 1.495v2.245h16.835v3.99h-16.835v4.737h23.18v3.99h-48.31v-3.99h20.983v-4.737zm-8.784-27.43v-3.492h-10.735v3.49h10.735zm13.663 0v-3.492h-9.515v3.49h9.515zm12.688 0v-3.492h-8.54v3.49h8.54zm-12.688-7.48v-3.243h-9.515v3.242h9.515zm-13.663 0v-3.243h-10.735v3.242h10.735z" font-size="17.54" font-family="Bitstream Vera Sans"/></g><g><path d="M2.83 31.132l9.434-9.434v-9.434h9.434l9.434-9.434h37.736l9.434 9.434h9.434v9.434l9.434 9.434v37.736l-9.434 9.434v9.434h-9.434l-9.434 9.434H31.132l-9.434-9.434h-9.434v-9.434L2.83 68.868V31.132z" fill="url(#al)" fill-rule="evenodd" stroke="#000" stroke-width="5.66" transform="translate(739.503 839.058)"/><path style="-inkscape-font-specification:'MS Gothic'" d="M814.674 888.557c-2.57 6.178-6.102 13.274-10.598 21.29 2.89-.335 5.38-.67 7.466-1.003-.642-2.504-1.365-4.59-2.167-6.26l4.094-1.504c1.766 3.84 3.21 8.432 4.335 13.775l-4.817 1.503c-.16-1.67-.402-2.922-.723-3.757-4.014.836-8.03 1.587-12.043 2.255.16.668.24 1.253.24 1.754l-4.576.75c0-1.17-.16-2.338-.482-3.506-3.533.667-7.146 1.252-10.84 1.753-.64 1.336-1.203 1.336-1.685 0l-.964-4.008h1.204c2.248-3.84 4.336-7.932 6.263-12.273-2.25-2.672-4.738-4.926-7.467-6.763l1.927-4.007c.48.334.883.668 1.204 1.002 2.57-5.01 4.255-9.435 5.058-13.275h-7.226v-4.76h8.91c-1.283-3.005-2.89-5.342-4.816-7.012l3.854-3.006c1.766 1.17 3.532 3.59 5.3 7.264l-3.373 2.756h8.912c1.445-3.674 2.65-7.264 3.613-10.77l5.058 2.254c.964.835.723 1.336-.723 1.503-.963 2.17-2.087 4.508-3.372 7.013h11.08v4.76h-9.875l3.613 1.752c.643.668.402 1.085-.722 1.252-1.285 3.34-3.292 7.68-6.022 13.024.803.668 1.767 1.503 2.89 2.505 1.607-3.508 2.97-6.764 4.096-9.77l4.094 2.255c.643.668.402 1.085-.722 1.252zm-16.138.5c-2.41 5.678-6.022 12.94-10.84 21.79 2.25-.166 4.497-.416 6.745-.75-.642-2.505-1.284-4.592-1.926-6.262l4.095-1.503c.962 2.17 1.765 4.76 2.407 7.765h.964c1.928-3.507 3.694-7.013 5.3-10.52-1.767-2.003-3.854-3.924-6.263-5.76 2.89-5.343 5.38-11.187 7.467-17.532H791.55l3.373 1.753c.642.668.4 1.085-.723 1.252-.803 2.672-2.73 6.762-5.78 12.273.963.834 1.926 1.753 2.89 2.755 1.284-3.006 2.57-6.01 3.853-9.017l4.095 2.506c.642.668.402 1.085-.722 1.252zm-26.978 27.802h-4.094v-23.795c-.803 1.837-2.008 3.59-3.613 5.26l-2.65-4.258c4.818-5.343 7.628-13.525 8.43-24.545h-5.78v-4.76h18.066v4.76h-7.95c-.32 5.51-1.123 10.352-2.408 14.527h9.153v30.054h-4.093v-4.508h-5.06zm5.06-28.052h-5.06v16.03h5.06z" font-size="60" font-family="MS Gothic"/></g><g><path d="M2.83 31.132L31.132 2.83h37.736L97.17 31.132v37.736L68.868 97.17H31.132L2.83 68.868V31.132z" fill="url(#am)" fill-rule="evenodd" stroke="#000" stroke-width="5.66" transform="translate(875 1175)"/><path style="-inkscape-font-specification:MS Gothic" d="M913.492 1233.225c.854 7.288-1.28 10.933-6.403 10.933h-2.05l-.77-4.616h2.563c1.195 0 1.793-1.296 1.793-3.887-.17-6.802-1.623-12.066-4.355-15.79l5.124-15.306h-7.428v49.315h-4.354v-53.203h13.83l.77-.73 3.585 3.402-1.024.486-2.818 8.017c9.562-2.59 15.54-7.45 17.93-14.576l5.378 1.216c.854.324.768.728-.256 1.214 2.732 4.86 9.135 8.584 19.21 11.175l-2.05 4.616c-4.098-1.133-7.513-2.67-10.245-4.615v3.158h-17.417v-3.158c-2.22 1.944-5.805 3.968-10.757 6.074l-2.305-3.888-2.817 7.288c2.732 3.887 4.354 8.18 4.866 12.875zm18.953-30.367c-1.878 2.916-4.183 5.345-6.915 7.29h15.368c-3.245-1.783-6.062-4.212-8.453-7.29zm16.393 50.045l-2.818-3.4-28.43 3.157c-.512 1.296-1.024 1.296-1.537 0l-1.28-4.858 7.94-.243 3.33-8.747H915.54v-3.887h38.42v3.887h-22.283l-4.866 8.746 16.393-1.216c-2.39-2.267-3.757-3.4-4.098-3.4l3.842-2.673c4.098 2.754 7.598 5.912 10.5 9.475zm-29.455-25.75h16.648l2.82-6.074h-20.492v-3.888h22.027l.256-1.215 4.868 3.158-.768.73-3.842 7.287h7.94v3.887h-29.455z" font-size="63.45" fill="#fff" font-family="MS Gothic"/></g><g><path d="M50 100c27.183 0 49.284-21.7 49.97-48.72.01-.428.03-.85.03-1.28 0-13.807-11.193-25-25-25S50 36.193 50 50 38.807 75 25 75C11.624 75 .7 64.49.03 51.28.717 78.3 22.818 100 50 100z" fill="url(#an)" transform="translate(475 1175)"/><path d="M50 0C22.817 0 .716 21.7.03 48.72.02 49.147 0 49.57 0 50c0 13.807 11.193 25 25 25s25-11.193 25-25 11.193-25 25-25c13.376 0 24.3 10.51 24.97 23.72C99.283 21.7 77.182 0 50 0z" fill="url(#ao)" transform="translate(475 1175)"/><path d="M477.83 1206.132l9.434-9.434v-9.434h9.434l9.434-9.434h37.736l9.434 9.434h9.434v9.434l9.434 9.434v37.736l-9.434 9.434v9.434h-9.434l-9.434 9.434h-37.736l-9.434-9.434h-9.434v-9.434l-9.434-9.434v-37.736z" fill="none" stroke="#000" stroke-width="5.66"/><path style="-inkscape-font-specification:MS Gothic" d="M498.142 1219.225c.47 4.023-.707 6.035-3.535 6.035h-1.13l-.426-2.548h1.415c.66 0 .99-.715.99-2.146-.094-3.755-.895-6.66-2.404-8.718l2.83-8.45h-4.1v27.227h-2.405v-29.372h7.636l.425-.403 1.98 1.878-.566.268-1.557 4.426c5.28-1.43 8.58-4.113 9.9-8.047l2.968.67c.472.18.425.403-.14.67 1.508 2.684 5.043 4.74 10.605 6.17l-1.13 2.55c-2.264-.627-4.15-1.476-5.657-2.55v1.744h-9.616v-1.744c-1.225 1.073-3.205 2.19-5.94 3.353l-1.27-2.147-1.557 4.023c1.508 2.146 2.404 4.516 2.687 7.11zm10.464-16.765c-1.037 1.61-2.31 2.95-3.818 4.023h8.484c-1.79-.983-3.347-2.324-4.666-4.023zm9.05 27.63l-1.556-1.88-15.696 1.744c-.283.716-.565.716-.848 0l-.707-2.682 4.382-.134 1.84-4.828h-5.8v-2.146h21.212v2.146H508.18l-2.685 4.828 9.05-.67c-1.32-1.252-2.074-1.878-2.263-1.878l2.12-1.476c2.264 1.52 4.196 3.264 5.8 5.23zm-16.262-14.218h9.19l1.557-3.353h-11.31v-2.147h12.16l.14-.67 2.687 1.743-.424.402-2.12 4.024h4.382v2.146h-16.26z" font-size="63.45" fill="#fff" font-family="MS Gothic"/><path style="-inkscape-font-specification:MS Gothic" d="M536.477 1231.352c1.8 2.386 2.7 4.864 2.7 7.434 0 3.58-1.09 5.37-3.268 5.37h-1.705l-.57-2.755h1.422c.947 0 1.373-.962 1.278-2.89-.095-2.66-.947-5-2.557-7.02l2.84-8.95h-4.402v27.534h-2.84v-29.735h7.953l.568-.69 2.414 2.065-.568.55zm20.597 7.71h-1.42c-1.516 6.7-6.582 10.553-15.2 11.563l-.852-2.616c7.387-.55 11.837-3.534 13.353-8.95h-1.99c-1.61 3.856-5.018 6.196-10.226 7.022l-.854-2.34c4.356-.918 7.055-2.478 8.097-4.68h-2.273c-1.326 1.284-3.03 2.294-5.113 3.028l-1.137-2.34c3.03-.918 5.114-2.662 6.25-5.232h-6.392v-2.202h21.307v2.202h-11.932c-.38.826-.852 1.606-1.42 2.34h12.5l-.284 8.673c-.096 2.938-1.185 4.407-3.268 4.407h-2.84l-.427-2.616h2.414c.852 0 1.325-.55 1.42-1.65zM545 1228.32h9.66v-2.34H545zm0-4.542h9.66v-2.202H545zm12.074-4.405v11.15h-14.49v-11.15z" font-size="62" font-family="MS Gothic"/></g><g><path d="M2.83 31.132L31.132 2.83h37.736L97.17 31.132v37.736L68.868 97.17H31.132L2.83 68.868V31.132z" fill="url(#ap)" fill-rule="evenodd" stroke="#000" stroke-width="5.66" transform="translate(75 1175)"/><path style="-inkscape-font-specification:MS Gothic" d="M109.563 1218.392c3.26 4.322 4.888 8.81 4.888 13.465 0 6.484-1.972 9.725-5.917 9.725h-3.087l-1.03-4.987h2.574c1.715 0 2.487-1.745 2.315-5.236-.17-4.822-1.715-9.06-4.63-12.72l5.145-16.207h-7.976v49.872h-5.146v-53.86h14.408l1.03-1.248 4.373 3.74-1.03.998zm37.307 13.964h-2.573c-2.745 12.135-11.92 19.117-27.53 20.946l-1.544-4.738c13.38-.997 21.44-6.4 24.185-16.208h-3.602c-2.916 6.982-9.09 11.22-18.525 12.717l-1.542-4.24c7.89-1.66 12.778-4.487 14.665-8.477h-4.117c-2.4 2.327-5.488 4.156-9.262 5.486l-2.058-4.24c5.488-1.662 9.262-4.82 11.32-9.475h-11.578v-3.99h38.594v3.99H131.69c-.687 1.496-1.544 2.91-2.573 4.24h22.64l-.513 15.71c-.172 5.318-2.144 7.978-5.918 7.978h-5.146l-.772-4.738h4.374c1.544 0 2.402-.997 2.573-2.992zm-21.87-19.45h17.496v-4.24H125zm0-8.23h17.496v-3.988H125zm21.87-7.978v20.198h-26.244v-20.198z" font-size="62" font-family="MS Gothic"/></g></svg>