<svg xmlns="http://www.w3.org/2000/svg" xmlns:xlink="http://www.w3.org/1999/xlink" width="986.237" height="420.193">
  <defs>
    <linearGradient id="a">
      <stop offset="0"/>
      <stop offset="1" stop-color="#00005c"/>
    </linearGradient>
    <linearGradient id="b">
      <stop offset="0" stop-color="#ffe100"/>
      <stop offset="1" stop-color="#dc2314"/>
    </linearGradient>
    <linearGradient xlink:href="#a" id="c" x1="530.024" y1="184.595" x2="530" y2="487.64" gradientUnits="userSpaceOnUse" gradientTransform="translate(-69.78 -121.642)"/>
    <linearGradient xlink:href="#b" id="d" gradientUnits="userSpaceOnUse" x1="83.143" y1="300.876" x2="261.611" y2="300.876" gradientTransform="translate(-69.78 -121.642)"/>
    <linearGradient xlink:href="#b" id="e" gradientUnits="userSpaceOnUse" x1="249.266" y1="300.881" x2="403.021" y2="300.881" gradientTransform="translate(-69.78 -121.642)"/>
    <linearGradient xlink:href="#b" id="f" gradientUnits="userSpaceOnUse" x1="408.025" y1="316.129" x2="651.621" y2="316.129" gradientTransform="translate(-69.78 -121.642)"/>
    <linearGradient xlink:href="#b" id="g" gradientUnits="userSpaceOnUse" x1="585.247" y1="305.135" x2="742.088" y2="305.135" gradientTransform="translate(-69.78 -121.642)"/>
    <linearGradient xlink:href="#b" id="h" gradientUnits="userSpaceOnUse" x1="754.023" y1="311.457" x2="878.044" y2="311.457" gradientTransform="translate(-69.78 -121.642)"/>
    <linearGradient xlink:href="#b" id="i" gradientUnits="userSpaceOnUse" x1="862.048" y1="313.459" x2="1031.242" y2="313.459" gradientTransform="translate(-69.78 -121.642)"/>
  </defs>
  <g fill="#ec4b88">
    <path d="M881.03.046c-24.713-.305-49.266.868-73.655 4.78-47.03 7.546-77.405 14.333-125.656 28.532-41.564 12.23-82.975 27.15-124.462 42.035l9.332 16.777c44.634-18.808 83.458-28.503 125.44-38.843 50.852-12.524 103.78-26.125 156.126-17.375 26.71 4.465 36.2 17.752 30.688 36.97-.93 3.24-4.196 10.17-5.397 10.932l55.16-1.14c2.616-1.615 12.702-16.408 17.3-25.918 5.23-10.824 5.85-27.246 1.28-34.22-4.83-7.374-16.177-14.637-29.468-18.843-9.733-3.08-14.2-3.41-36.69-3.687zM515.11 91.888s-8.237 2.214-9.502 3.626l4.657 6.267 4.846-9.892zM611.546 106.955c-7.736 2.31-28.38 8.013-28.38 8.013l1.533 12.53c9.295-2.35 16.8-4.036 24.562-6.402l2.284-14.14zM699.71 170.156s-7.13 4.996-8.43 5.982l-7.988 28.71c9.723-4.307 19.146-11.513 27.113-18.338l1.086-14.563-11.78-1.79zM675.125 232.964l-6.546 19.31-.22 10.063 38.89-19.73 1.172-27.486c-8.708 5.42-22.77 13.087-33.297 17.844zM466.957 213.715L460 217.798l21.378 15.956 25.05-.198-.864-15.15c-12.25.84-38.607-4.69-38.607-4.69zM440.68 307.498c-26.31 8.555-53.89 15.106-80.868 21.142-44.812 10.854-89.797 14.104-105 7.593-8.19-3.508-14.812-16.526-14.812-21.794l-45.438 11.418-2.968 6.563c-3.833 8.48-3.78 9.968.594 17.75 4.527 8.057 15.92 13.773 31.125 15.595 22.405 2.684 79.387-2.872 106.375-10.375l121.506-40.4-10.514-7.492z"/>
    <path d="M180 308l-50.504 12.186c-12.52 12.95-23.638 26.688-30.965 43.11-13.61 30.506 3.76 50.32 48.69 55.656 26.9 3.195 63.742.258 116.186-9.25 36.146-6.553 117.245-27.23 136-36.25 24.9-11.977 54.433-23.676 77.313-33 3.434-1.4-4.49-10.617-6.955-10.104-6.308 1.314-8.737 1.255-54.86 13.73-53.176 14.38-106.794 28.31-161.78 33.812-79.144 7.92-101.88-20.054-69.42-62.042L180 308z"/>
  </g>
  <path d="M184.267 62.99c-12.528 4.072-20.047 16.264-27.305 26.553-5.803 7.695-11.83 15.463-13.78 25.064-4.29 17.24-4.6 35.12-7.102 52.632.478 8.653-1.547 5.744-3.97-.213-4.756-8.686-6.95-19.842-.843-28.507 4.06-7.753 5.334-17.17 1.25-25.188-3.695-13.03-12.038-27.818-26.875-29.375-7.392-.665-13.038 4.826-18.468 8.72-9.552 2.21-21.34-5.238-29.407 2.905-10.352 10.64-18.72 24.17-18.83 39.494-2.798 22.656-8.09 45.082-7.42 68.07-3.813 33.383-18.895 64.935-20.562 98.624C14.702 314 21.067 325.92 29.8 335.145c9.515 4.63 19.954-.263 29.5-2.03 10.85-3.716 17.658-13.984 20.374-24.626 7.064-15.89 8.697-33.56 10.78-50.564 12.32 24.69 27.512 47.846 41.282 71.78 13.777-10.42 31.572-14.818 47.25-19.78 4.59 13.05 18.336 20.33 31.03 23.375 12.643 1.794 23.288-7.264 29.2-17.62 10.28-15.246 14.015-33.874 17.74-51.41 7.44-2.29 14.312-6.118 21.78-8.53-.706 22.87-1.17 47.397 10.5 67.75.92 6.105 6.908 13.973 13.656 10.06 13.12-12.583 27.884-23.748 37.22-39.56 3.198 15.374 17.372 25.92 32.062 29.155 14.388 4.212 31.613-2.914 36.906-17.344 2.17-4.214 3.397-8.746 4.78-13.28 24.403 16.187 49.65 31.306 77.432 40.723 24.352 10.358 47.894 22.755 72.632 32.027 12.718.915 28.79 4.056 38.5-6.406 6.297-7.23-.024-19.522 7.968-25.563 3.893-2.71-1.965-6.596-4.875-7.468-4.713-1.886-9.72-4.98-13.875-6.968 2.345-2.053 4.182-5.78 6.313-7.282 8.332 10.49 21.64 18.507 35.437 18.313 16.015-.628 28.26-13.227 37.313-25.094 4.77-5.676 7.197-13.565 4-20.593-3.695-7.302-4.47-15.157-4.094-23.218-.966-9.727 1.308-19.052 5.33-27.79 5.81-17.976 9.358-36.644 15.046-54.68 1.085-3.798 1.903-8.293 3-11.72 8.162 5.397 18.466 5.654 27.906 4.564.137 44.516-7.56 88.85-5.625 133.343 2.99 18.13 21.682 33.87 40.5 28.938 17.925-6.182 26.895-25.414 30.688-42.656 3.72-17.072 4.163-35.3 6.312-52.126 1.462 2.95 7.167 3.14 5.374 7.312-1.027 20.983.213 44.78 15.35 60.77 7.937 11.325 19.925 22.02 34.745 21.12 15.506.283 31.51-.488 46.22-5.577 15.472-6.44 25.428-20.713 38.687-30.42 12.48-10.354 23.146-22.61 31.666-36.385 12.563-15.394 23.787-35.36 19.498-56.072-3.042-22.184-1.616-46.297-14.07-65.874-5.08-8.793-13.13-14.876-19.28-22.783-8.676-9.878-22.27-12.51-34.814-13.593-8.325-.782-16.195 1.89-23.718 4.78-9.23.846-18.007-4.325-27.375-2.5-14.263.865-28.62 9.082-34.19 22.563-2.49-8.854-3.94-18.3-8.124-26.437-6.47-8.923-18.804-8.438-28.75-9.75-24.964-1.3-49.917 5.577-74.78 2-10.402-.437-20.37 5.886-25.064 14.656C692.36 90.75 683.17 77.49 669.58 78.24c-12.222 1.318-21.296 10.772-31.625 16.374-15.1 12.094-16.76 32.92-19.176 50.67-4.7 24.174-16.238 46.46-22.42 70.36-1.517 4.51-3.198 8.937-5.468 13.095-4.284-27.6 2.155-55.207 5.407-82.533 1.51-10.192-5.123-18.55-11.283-25.78-4.904-5.305-7.19-12.15-10.406-18.313-10.73-14.787-38.114-14.063-45.482 3.673-2.61 5.064-5.465 10.02-7.923 15.17-6.54-12.663-15.366-25.12-27.563-32.687-5.814-2.805-13.042-2.45-17.062-8.28-5.682-5.535-13.46-9.018-21.5-7.876-20.845-2.156-42.61-12.786-63.438-4.438-30.553 11.574-47.704 46.225-43.593 77.938 0 0 .847-4.624-5.72-31.375-2.367-4.856-8.907-6.093-10.97-11 3.722-14.722-7.443-29.87-21.468-33.658-11.68-6.605-26.16.27-33.625 10.125-12.256 12.015-29.45 18.316-40.937 31.188-8.1 11.526-1.744 26.252-6.512 38.746-3.776 14.225-11.13 27.134-18.8 39.567 2.673-25.84 4.52-51.96 6.218-77.937-2.536-15.944-10.3-30.99-20.53-43.313-3.048-2.938-7.072-5.325-11.44-4.968zm329 127c.66 27.504 1.715 55.132 5.97 82.31-22.805-16.49-46.458-32.15-68.22-49.843 22.005-10.226 44.23-22.238 60.625-40.5 2.87-4.485.867 6.696 1.625 8.032z" fill="url(#c)"/>
  <path d="M173.313 42.296c-12.53 4.073-20.048 16.265-27.306 26.555-5.803 7.695-11.83 15.463-13.78 25.064-4.29 17.24-4.6 35.12-7.102 52.632.478 8.654-1.547 5.745-3.97-.212-4.756-8.686-6.95-19.842-.843-28.507 4.06-7.753 5.334-17.17 1.25-25.187-3.695-13.03-12.038-27.82-26.875-29.375-7.392-.666-13.038 4.825-18.468 8.718-9.553 2.21-21.34-5.237-29.408 2.907-10.352 10.638-18.72 24.17-18.83 39.493-2.798 22.657-8.09 45.083-7.42 68.07C16.75 215.835 1.667 247.387 0 281.076c3.747 12.23 10.112 24.152 18.844 33.375 9.516 4.63 19.955-.263 29.5-2.03 10.85-3.716 17.66-13.983 20.375-24.626 7.063-15.89 8.696-33.558 10.78-50.563 12.32 24.69 27.51 47.847 41.28 71.782 13.778-10.422 31.573-14.82 47.25-19.782 4.59 13.05 18.337 20.33 31.032 23.375 12.642 1.793 23.287-7.265 29.2-17.62 10.278-15.247 14.014-33.875 17.738-51.41 7.44-2.292 14.313-6.12 21.78-8.532-.705 22.87-1.168 47.398 10.5 67.75.922 6.106 6.91 13.974 13.658 10.062 13.118-12.584 27.883-23.75 37.218-39.562 3.2 15.376 17.373 25.922 32.063 29.156 14.387 4.212 31.612-2.913 36.905-17.344 2.17-4.214 3.397-8.747 4.78-13.28 24.403 16.187 49.65 31.306 77.432 40.722 24.352 10.358 47.894 22.755 72.632 32.027 12.717.915 28.788 4.057 38.5-6.406 6.296-7.23-.025-19.52 7.967-25.562 3.893-2.712-1.965-6.597-4.875-7.468-4.713-1.887-9.72-4.982-13.875-6.97 2.345-2.052 4.182-5.78 6.313-7.28 8.332 10.49 21.64 18.506 35.438 18.312 16.014-.628 28.26-13.227 37.312-25.094 4.77-5.677 7.197-13.566 4-20.593-3.695-7.303-4.47-15.158-4.094-23.22-.967-9.725 1.307-19.05 5.328-27.788 5.81-17.976 9.36-36.644 15.047-54.68 1.086-3.798 1.904-8.292 3-11.72 8.163 5.397 18.467 5.654 27.908 4.564.136 44.518-7.562 88.85-5.625 133.345 2.99 18.13 21.68 33.87 40.5 28.937 17.924-6.182 26.894-25.413 30.687-42.656 3.72-17.07 4.163-35.3 6.313-52.125 1.46 2.95 7.166 3.14 5.374 7.313-1.03 20.983.21 44.78 15.348 60.77 7.937 11.325 19.925 22.02 34.745 21.12 15.506.283 31.51-.488 46.22-5.577 15.472-6.44 25.428-20.71 38.687-30.418 12.48-10.354 23.146-22.61 31.666-36.386 12.563-15.394 23.787-35.358 19.498-56.072-3.04-22.183-1.615-46.297-14.07-65.874-5.08-8.792-13.13-14.875-19.28-22.78-8.675-9.88-22.27-12.513-34.813-13.595-8.325-.78-16.195 1.892-23.718 4.782-9.23.845-18.008-4.326-27.376-2.5-14.262.864-28.62 9.08-34.188 22.563-2.49-8.855-3.942-18.3-8.125-26.438-6.47-8.923-18.803-8.438-28.75-9.75-24.963-1.3-49.916 5.577-74.78 2-10.4-.436-20.368 5.886-25.063 14.656-2.783-11.926-11.973-25.186-25.562-24.437C646.403 58.866 637.33 68.32 627 73.92c-15.1 12.095-16.76 32.922-19.176 50.673-4.7 24.173-16.237 46.46-22.418 70.36-1.518 4.508-3.2 8.935-5.47 13.093-4.283-27.6 2.156-55.206 5.408-82.53 1.512-10.193-5.122-18.55-11.282-25.783-4.904-5.304-7.19-12.15-10.406-18.312-10.73-14.786-38.115-14.062-45.483 3.674-2.61 5.064-5.465 10.02-7.923 15.17-6.54-12.663-15.366-25.12-27.563-32.687-5.814-2.804-13.042-2.45-17.062-8.28-5.682-5.535-13.46-9.017-21.5-7.876-20.845-2.155-42.61-12.785-63.438-4.437-30.553 11.574-47.704 46.225-43.593 77.938.71 14.917 5.01 30.92 3.406 45.126-1.683-11.01-1.94-23.79-3.1-35.462-1.323-13.736-2.182-27.766-6.025-41.038-2.367-4.854-8.907-6.092-10.97-11 3.722-14.72-7.443-29.87-21.468-33.656-11.68-6.606-26.16.27-33.625 10.125-12.256 12.014-29.45 18.315-40.937 31.187-8.1 11.526-1.744 26.252-6.512 38.746-3.776 14.224-11.13 27.133-18.8 39.567 2.673-25.84 4.52-51.96 6.218-77.938-2.535-15.944-10.3-30.99-20.53-43.312-3.047-2.94-7.07-5.326-11.438-4.97zm226.906 78.062c0-20 30-20 30 0 0 23.955-30 20.32-30 0zm407.03 19.625c-2.866 8.865-8.848 18.05-13.844 24.594.066-6.78-.207-13.57.22-20.344 4.666-.472 9.97-2.75 13.624-4.25zm-304.938 29.313c.66 27.505 1.715 55.133 5.97 82.312-22.805-16.49-46.458-32.15-68.22-49.843 22.005-10.227 44.23-22.24 60.625-40.5 2.87-4.486.867 6.695 1.625 8.03zm407.907 11.062c0 24.943-39.104 60-50 60-10 0-10-10-10-40 0-30.187 20-50 40-50 18.77 0 20 5.058 20 30z"/>
  <path d="M173.47 50.202c-11.888 7.126-17.754 20.788-26.876 30.78-10.516 14.684-8.422 33.724-11.968 50.587-2.794 20.703-2.004 43.07-4.69 62.913-7.53-8.238-4.35-20.382-9.292-29.872-4.328-13.072-14.943-25.53-11.832-40.002 1.246-8.327 9.544-14.78 6.75-23.718-2.28-6.522-3.924-13.405-7.062-19.47-3.682-4.816-8.993-9.694-15.22-10.312-7.115.41-9.708 9.336-17.06 8.97-7.457.968-14.872-.932-22.314-1.188-8.49 9.798-18.36 20.68-17.375 34.593-2.63 21.26-8.734 42.312-7.374 63.97-2.824 34.568-17.878 67.09-21.375 101.624 1.846 9.614 8.884 17.16 12.595 26.063 3.27 5.943 10.557 2.11 15.625 1.937 9.494-1.263 21.473-5.77 22.563-16.594 4.214-9.758 8.635-19.433 9.75-30.156 1.868-12.838 3.486-25.697 5.124-38.53-1.537-4.284 4.45-2.27 6.657-2.345 2.177 2.017 2.3 6.84 4.375 9.5 11.195 23.888 25.706 46.023 39 68.813 13.44-8.253 29.01-11.77 43.81-16.844 8-18.366 7.915-38.954 13.907-57.937 2.953 9.68 6.803 21.21.032 30.313-4.925 6.493-9.643 14.513-7.095 22.937.13 7.47 1.577 16.027 8.844 19.813 7.412 5.993 18.762 12.248 27.936 6.344 14.303-10.584 19.126-29.045 24.22-45.188 1.88-6.215 1.828-13.34 3.718-19.22 6.215-2.555 12.503-4.784 18.58-7.635 5.923-2.3 11.91-4.773 18.295-5.364 1.088 20.34-2.8 41.674 4.124 61.22 2.54 6.587 5.71 12.816 8.375 19.405 13.838-13.267 29.665-25.733 38-43.374 4.237-14.752 7.18-30.454 3.342-45.626-.892-4.687.487-10.2 3.594-13.343.17 8.345 6.706 14.062 12.125 19.468 1.973 3.307-.32 7.263.75 10.938.478 5.31-1.264 11.95-7 13.376-4.79 4.394-1.07 11.39-2.78 16.906-.413 12.56 7.938 25.187 20.406 28.125 9.316 4.52 22.76 5.762 29.625-3.5 7.197-8.012 8.573-19.34 12.064-28.906 7.328 3.95 14.123 8.973 21.437 13.157 16.303 11.243 33.39 21.015 52.115 27.47 27.515 11.294 54.146 24.838 81.605 36.28 9.64.76 20.266 2.427 29.375-1 7.585-5.875 1.364-16.87 6.812-23.812-50.388-24.63-94.01-60.288-140.025-92.11-6.227-5.033-14.117-9.088-18.318-16.11-1.285-6.877 7.39-10.378 12.468-12.593 21.735-10.413 43.34-23.2 57.344-43.312 6.038-5.846 7.91-14.292 7.03-22.438-.072-13.16-5.498-25.773-14.342-35.406-5.55-8.443-13.225-17.642-24.313-17.25-7.885-2.973-11.906-14.192-21.53-12.844-17.498-.89-34.3-7.544-51.813-8.25-18.624 2.13-35.637 14.61-43.603 31.613-6.364 12.295-9.245 26.31-7.357 40.164.812 16.51 4.447 32.938 3.773 49.472-.287 6.065-4.658 9.916-9.25 12.906-1.216.58.06-4.9-.813-6.906-.453-2.438-5.22-1.343-6.062-4.656-1.624-6.177-.616-12.898-1.862-19.26-2.064-18.635-2.572-37.73-5.982-56.053-3.332-6.026-12.334-7.913-13.218-15.343 4.34-10.897-3.163-23.968-14.562-25.97-5.46-4.555-13.32-4.07-18.688.376-10.013 8.487-19.278 17.727-30.937 24.094-7.45 5.525-18.658 10.026-19.5 20.593-.86 9.222 1.74 18.845-2.344 27.5-6.88 25.25-21.912 46.874-37.08 67.856-3.63 7.41-2.166 1.79-1.126-3.315 4.824-27.494 5.512-55.503 8.43-83.244.05-9.903 3.928-20.38-1.223-29.578-4.393-11.24-8.928-23.713-18.655-31.28-.86-.256-1.764-.31-2.656-.22zm484.81 15.156c-8.46 2.314-15.144 8.706-22.967 12.5-9.66 6.046-15.045 16.878-16.353 28.012-3.32 18.442-5.624 37.223-13.624 54.33-5.618 13.276-8.814 27.366-13.466 40.927-3.992 8.293-7.316 18.063-14.65 24.138-2.043-.164-2.407-4.453-3.5-6.032-2.74-10.383-2.425-21.513-3.22-32.25-.25-21.93 5.116-43.406 7.344-65.03-2.108-12.48-15.388-19.05-18.125-31.22-2.84-6.736-9.6-12.338-17.25-11.218-6.44-1.25-13.967 1.42-16.095 8.062-7.954 12.108-13.842 25.815-16.746 40 .243 40.695 1.06 81.573 6.09 121.97 1.78 12.114 9.258 22.627 19.717 28.81 8.643 5.32 17.548 10.57 25.22 17.033 8 3.69 16.348-2.83 19.655-9.844 2.037-3.54 8.526-7.227 10.938-1.938 7.42 10.035 19.186 17.48 31.844 17.938 13.233-1.945 22.724-12.98 30.84-22.658 4.145-4.69 4.298-12.07.254-16.748-4.08-10.762-1.386-22.566-2.938-33.688 2.222-11.888 9.314-22.332 10.47-34.5 6.046-25.325 16.468-49.903 16.547-76.374.117-.747.51 5.134 1.196 7.32.873 8.053 6.087 16.083 14.568 17.273 8.216 2.1 16.683.21 24.814-.655 1.086 37.922-4.59 75.614-5.31 113.494-.23 13.57-3.97 29.64 5.903 40.848 6.647 8.385 19.407 13.63 29.094 7.157 12.068-7.778 17.128-22.47 20.83-35.604 2.665-21.07 4.683-42.334 6.717-63.517-1.478-10.086 8.376-16.533 8.267-26.316 2.18-13.46.348-27.775 1.468-40.906 10.375-.002 23.837-3.498 26.75-14.905 2.22-9.042 2.02-18.743-2-27.282-3.24-5.704-.884-15.942-8.687-18.03-16.168-4.64-33.49-3.448-50.082-1.905-13.946 2.442-28.076 2.406-42.106.904-8.108-.872-15.217 4.135-18.795 11.15-4.344 8.246-11.714 15.553-12.486 25.194-.22-10.864-.002-22.237-3.22-32.563-3.52-6.448-8.275-14.737-16.905-13.875zm244.376 18.97c-10.233.113-19.875 8.998-30.062 4.155-12.928-3.3-28.5-1.902-38.625 7.344-5.926 7.498-9.177 16.73-13.25 25.313-4.483 12.302-5.127 26.216-13.463 36.948-6.385 10.3-13.564 20.278-19.038 31.083-2.483 6.68-3.475 14.615-.94 21.345 1.403 3.654 5.366 4.955 8.314 6.593 1.504 14.268-.775 29.16 2.718 43.25 4.195 14.064 14.425 25.67 25 35.375 7.183 4.617 16.745 3.595 25.062 3.61 15.642-1.018 33.124-1.17 45.282-12.485 13.966-14.737 31.958-25.59 44.443-41.648 6.728-11.748 15.952-21.714 22.982-33.132 5.132-11.16 8.02-23.776 4.668-35.938-1.95-19.092-1.608-39.426-10.812-56.844-5.568-9.686-15.243-16.194-21.313-25.563-8.558-6.973-20.413-8.25-30.97-9.406zM408.72 112.17c7.035 1.503 15.98 3.2 20.03 9.72-2.2 6.353-10.345 7.962-15.875 10.187-5.928 3.28-7.427.574-6.582-5.342-.148-5.01-.282-10.028.05-15.033l2.376.47zm488.624 40.657c5.277-.233 6.16 5.8 6.07 9.804 1.005 12.377 3.726 26.614-4.07 37.416-8.602 13.685-18.228 27.674-31.813 36.562-3.123 1.54-8.754 4.737-10.155-.593-4.454-10.766-2.524-23.096-1.53-34.375 2.306-15.447 7.725-30.56 16-43.72 6.424-6.845 17.253-3.242 25.5-5.093z" fill="#fff"/>
  <path d="M22.822 296.997c-1.705-2.92-4.53-8.285-6.28-11.924l-3.18-6.614 3.752-18.316c2.063-10.074 3.968-18.666 4.233-19.094.265-.428 1.346-4 2.403-7.935 4.733-17.628 6.42-24.568 7.218-29.675.47-3.013 1.63-8.18 2.577-11.48 1.095-3.812 1.724-11.84 1.724-21.996 0-11.677.68-19.09 2.522-27.47 1.387-6.314 2.75-13.396 3.025-15.74C44.07 99.18 43.393 101.6 50.24 93.043l6.33-7.91 7.113.8c3.912.44 10.21.414 13.993-.06 5.552-.692 7.665-1.642 10.942-4.92l4.062-4.062 4.968 2.763c5.66 3.15 5.57 3 9.743 15.988l3.106 9.664-4.263 9.105c-3.854 8.232-4.22 9.93-3.822 17.724.385 7.533 1.246 10.206 6.832 21.215 5.958 11.74 8.122 18.877 10.612 34.99.604 3.907 2.196 6.392 7.36 11.492 3.624 3.58 6.835 6.263 7.134 5.963 1.09-1.09 3.43-27.87 4.404-50.436.598-13.827 1.766-26.065 2.906-30.43 1.048-4.018 1.934-9.77 1.97-12.782.144-12.43 2.843-20.85 9.56-29.822 11.103-14.832 20.208-26.152 21.04-26.16 1.813-.02 11.083 16.554 14.227 25.44l3.375 9.535-1.574 16.895c-.866 9.29-2.704 30.588-4.086 47.324-1.38 16.736-3.51 34.812-4.728 40.168-5.63 24.732-7.54 32.697-8.03 33.493-.293.473-1.31 5.18-2.258 10.463-4.336 24.112-7.314 36.99-8.555 37.002-2.532.02-27.358 8.377-32.14 10.816l-4.77 2.434-15.693-26.266c-8.63-14.446-17.69-31.193-20.13-37.214-2.44-6.022-5.178-11.42-6.085-11.994-.908-.575-4.723-1.054-8.48-1.064l-6.83-.02-.715 5.783c-5.574 45.036-7.57 55.81-11.378 61.38-1.684 2.462-3.364 6.736-3.734 9.5-.606 4.516-1.25 5.313-6.386 7.916-3.14 1.592-9.002 3.266-13.025 3.72l-7.314.83-3.098-5.31z" fill="url(#d)"/>
  <path d="M201.763 298.742c-8.152-1.416-15.295-6.746-20.713-12.685.333-8.206-4.33-17.838 1.986-24.606 3.424-6.008 9.37-11.878 7.48-19.818 1.975-8.96-4.79-18.272-3.987-25.698 3.885-8.23 7.365-16.528 12.95-23.533 5.754-6.48 9.573-13.543 14.144-20.657 5.143-7.662 9.08-15.99 12.373-24.4 2.8-8.4 7.033-17.232 7.976-26.41 2.028-8.496-4.057-21.493 5.57-26.188 5.256-3.75 10.467-7.074 15.606-10.544 9.268-5.478 16.902-13.363 25.276-19.98 4.742-5.12 9.566-5.497 15.15-.51 10.596 1.734 13.106 9.945 10.045 19.3-.384 9.587 10.64 13.102 14.705 19.562.627 12.067 2.372 23.95 3.046 36.018 1.16 10.78 2.187 21.364 3.094 32.197-.624 5.872 2.505 9.61 6.697 11.174.724 10.5-5.92 18.554-10.194 27.05.455 10.19 3.168 20.16 2.332 30.38-2.504 8.044-2.74 16.704-5.922 24.547-8.585 11.38-18.337 22.113-29.007 31.588-3.686-8.447-8.34-17.38-8.31-26.804-.37-16.62-.33-33.247-.473-49.87-11.858-.92-22.603 4.687-33.44 8.597-5.65 4.542-17.64 2.88-16.142 13.164-1.155 10.024-3.405 19.914-7.298 28.948-2.32 7.603-5.835 15.587-11.06 21.98-3.316 3.076-6.496 9.09-11.884 7.204zm73.392-125.936c4.767.22.868-6.65 1.78-9.557.313-4.918-.486-13.945-5.65-5.85-.73 5.375-12.497 17.943-1.55 16.03 1.81-.158 3.62-.366 5.42-.624z" fill="url(#e)"/>
  <path d="M552.78 330.32c-11.902-5.807-24.283-11.33-36.37-16.942-14.044-6.106-28.233-12.932-42.576-18.752-13.366-5.73-27.404-10.005-38.67-19.392-11.585-6.635-22.637-14.416-34.18-21.115-11.122-4.667-8.637 9.814-12.196 15.978-3.19 11.308-9.6 23.425-23.36 18.526-7.99-2.896-16.637-4.307-20.642-13.173-3.85-6.96-1.463-15.824-2.234-23.657 10.515-3.7 9.655-14.156 9.038-23.614 3.382-10.44-8.213-12.18-10.616-20.077-4.493-5.33-.672-14.414 3.356-18.942 12.933-5.497 11.544-21.738 9.863-33.52-1.117-14.483-2.577-28.795-3.687-43.33-.268-10.263 4.398-19.744 8.65-28.626 5.21-10.428 13.587-18.522 24.594-22.204 11.264-7.79 25.5-2.503 37.45.346 10.348 1.894 20.862 3.363 31.46 4.358 5.827 5.283 10.623 12.895 19.333 12.75 10.418.72 13.79 12.352 20.057 18.623 7.884 8.698 10.898 20.823 9.755 32.427.88 5.595-1.01 9.9-5.323 13.52-6.858 8.044-12.62 17.23-22.243 22.515-10.248 8.882-23.022 13.747-34.664 20.572-10.153 2.707-20.837 15.236-10.46 24.136 7.62 7.834 17.035 13.95 26.082 20.156 17.672 13.007 35.536 25.283 53.388 37.898 15.012 11.07 29.82 21.82 46.323 30.662 9.162 4.964 17.606 10.87 26.93 15.14-1.967 5.088 1.388 15.53-3.74 16.848-8.42-.34-17.098.75-25.32-1.11zM404.277 140.608c10.58-2.877 22.464-5 29.363-14.28 7.22-11.762-15.334-18.64-24.416-20.268-6.79-2.21-10.63 2.592-8.902 8.876.086 8.87-.264 17.77.456 26.613l1.217-.28 2.283-.663z" fill="url(#f)"/>
  <path d="M619.726 295.745c-8.79-3.315-18.41-7.11-23.423-15.59-3.138-7.436-16.196-6.14-19.32.403-4.966 6.665-10.633 15.32-17.662 5.63-7.384-5.3-15.636-9.14-23.144-14.41-6.755-5.82-13.456-12.318-13.82-21.64-2.988-10.392-2.85-21.447-3.963-32.248-1.195-30.74-3.313-61.496-2.757-92.273 2.554-7.18 5.5-14.548 8.303-21.796 2.558-6.072 7.28-11.553 10.16-17.268 2.372-2.343 8.262-.235 11.858-.95 7.955.756 8.607 12.378 13.523 17.867 3.793 8.08 14.96 13.792 12.07 23.742-2.166 12.852-4.92 25.69-5.602 38.688-2.424 15.233-1.69 30.962.514 46.15-.65 6.954 4.27 18.233 9.748 20.188 6.634-2.405 11.93-7.865 13.997-14.906 6.857-10.042 10.476-21.65 13.15-33.396 1.533-7.058 4.864-13.178 7.137-20.1 3.504-9.522 6.886-19.16 9.576-28.805 1.673-8.592 2.593-16.954 4.08-25.64 2.55-8.974 3.613-20.26 12.934-24.88 5.02-5.145 12.017-6.97 17.654-11.348 8.098-6.3 12.46 4.578 15.925 10.23 2.642 20.787 2.336 42.173-1.758 62.777-1.78 8.214-4.792 15.943-7.18 23.9-2.24 8.525-4.37 17.47-6.594 26.222-1.884 8.457-4.94 16.624-8.188 24.383-3.778 7.474-.47 16.65-1.012 24.817.094 8.24.04 17.084 5.38 23.69.247 7.2-9.558 12.606-13.412 18.88-5.6 2.898-11.58 8.503-18.172 7.683z" fill="url(#g)"/>
  <path d="M733.536 299.31c-6.778-3.815-13.605-10.19-14.62-18.106-.16-14.386.39-28.786 1.54-43.083.16-13.342 1.867-26.612 1.972-39.957 1.993-11.29 1.332-22.914 2.538-34.32.178-9.395.648-18.887-.508-28.222-9.43-1.386-18.903 3.75-28.232.42-10.117.392-10.925-11.63-11.52-19.13-2.517-8.414 4.256-14.735 7.75-21.463 4.27-5.54 7.228-15.594 15.932-13.745 10.358-.055 20.775 1.15 31.098.745 12.6-2.545 25.426-3.395 38.27-2.967 7.967-.44 15.868.58 23.413 3.142 1.485 5.92 2.718 11.646 4.576 17.413 4.29 6.84 1.588 14.69.47 21.848-2.765 7.5-13.77 7.607-20.65 9.243-6.32-.855-6.654 3.19-6.08 7.905-.166 10.78.467 21.626-.608 32.347-.287 7.106-1.31 13.8-6.374 19.233-3.755 7.066-1.52 16.015-3.357 23.786-1.44 12.89-3.254 25.764-3.84 38.726-2.153 6.374-.168 14.36-4.262 20.045-2.14 7.973-5.66 15.07-11.228 21.138-3.17 4.576-11.025 6.922-16.28 5.005z" fill="url(#h)"/>
  <path d="M833.385 292.938c-3.346-.117-6.53-.563-8.42-3.66-6.588-6.688-12.96-13.67-17.118-22.076-4.86-6.803-5.636-15.148-5.283-23.55-.547-10.027.12-20.24-1.704-30.134-2.72-3.264-10.347-3.3-8.593-9.004-.16-6.206-.515-12.563 4.094-17.372 6.61-11.166 13.344-22.025 20.224-33.056 5.403-7.74 5.29-17.372 8.162-26.222 2.834-9.725 8.665-18.137 12.552-27.264 5.637-5.473 14.434-7.655 22.238-7.427 9.835-2.205 18.437 6.833 27.87 1.12 7.917-1.993 16.12-6.385 24.15-2.477 8.31 1.443 17.376 2.635 21.582 10.912 5.38 7.944 14.325 13.292 18.174 22.163 2.6 9.126 6.025 18.137 6.497 27.62.845 9.563 1.102 19.325 2.47 28.9 3.474 8.563-1.325 17.007-3.203 25.17-2.593 8.167-10.136 13.778-14.442 20.79-4.176 6.33-8.142 12.588-12.285 18.85-15.08 13.212-30.242 26.39-45.275 39.693-7.145 4.77-16.73 5.693-25.302 6.723-8.79.215-17.613 1.342-26.388.302zm27.047-47.92c8.666-1.075 16.365-5.91 21.915-12.838 8.31-9.066 16.613-18.376 22.1-29.45 4.99-5.466 6.735-12.758 5.88-20.296.232-10.047.128-20.147-2.848-29.84-2.957-7.04-13.19-5.873-19.58-4.964-8.558-.325-19.875 1.015-22.956 10.54-4.586 9.21-10.002 18.023-12.04 28.298-2.97 9.436-2.988 19.46-4.634 29.09 1.338 7.77-.053 16.534 3.754 23.58 3.036 1.87 3.615 8.844 8.408 5.88z" fill="url(#i)"/>
  <path d="M860 332.193h-15c-14.78 17.455-41.614 58.64-41.614 58.64l16.614.36 21-31 18 13 14-12c-5-6-14-12-25-14l12-15zm-152 2l-9 13h-30l-7 10h24c4 0 4.406 3.46 3 5-7.544 8.266-18 20-38 20l5 9c17 0 31.89-12.702 39.17-19.467 7.278-6.765 11.83-13.533 11.83-13.533h27l8-11h-25l9-13h-18zm72 1c-8.41 18.452-36 51-36 51l8 5c17-3 47-20 59-30l-6-9s-24.432 19-33 19l23-36h-15zm-5 1h-15c-2 8-30 45-47 49l8 6c16.426-7.094 46.594-38.228 54-55zm-156 16l-7 12h34l8-12h-35zm272 0l-7 12h36l7-12h-36z" fill="red"/>
</svg>
