<svg xmlns="http://www.w3.org/2000/svg" xmlns:xlink="http://www.w3.org/1999/xlink" width="1500" height="882.22" version="1"><defs><linearGradient id="p"><stop offset="0" stop-color="red"/><stop offset="1" stop-color="red" stop-opacity="0"/></linearGradient><linearGradient id="i"><stop offset="0" stop-color="red"/><stop offset="1" stop-color="red" stop-opacity="0"/></linearGradient><linearGradient id="h"><stop offset="0" stop-color="red"/><stop offset="1" stop-color="red" stop-opacity="0"/></linearGradient><linearGradient id="k"><stop offset="0" stop-color="red"/><stop offset="1" stop-color="red" stop-opacity="0"/></linearGradient><linearGradient id="l"><stop offset="0" stop-color="red"/><stop offset="1" stop-color="red" stop-opacity="0"/></linearGradient><linearGradient id="m"><stop offset="0" stop-color="red"/><stop offset="1" stop-color="red" stop-opacity="0"/></linearGradient><linearGradient id="o"><stop offset="0" stop-color="red"/><stop offset="1" stop-color="red" stop-opacity="0"/></linearGradient><linearGradient id="n"><stop offset="0" stop-color="red"/><stop offset="1" stop-color="red" stop-opacity="0"/></linearGradient><linearGradient id="j"><stop offset="0" stop-color="red"/><stop offset="1" stop-color="red" stop-opacity="0"/></linearGradient><linearGradient id="a"><stop offset="0" stop-color="red"/><stop offset="1" stop-color="red" stop-opacity="0"/></linearGradient><linearGradient id="b"><stop offset="0" stop-color="red"/><stop offset="1" stop-color="red" stop-opacity="0"/></linearGradient><linearGradient id="c"><stop offset="0" stop-color="red"/><stop offset="1" stop-color="red" stop-opacity="0"/></linearGradient><linearGradient id="f"><stop offset="0" stop-color="#00a"/><stop offset=".75" stop-color="#00a"/><stop offset="1" stop-color="#005"/></linearGradient><linearGradient id="d"><stop offset="0" stop-color="#a00"/><stop offset=".75" stop-color="#a00"/><stop offset="1" stop-color="#500"/></linearGradient><linearGradient id="e"><stop offset="0" stop-color="#000200"/><stop offset=".75" stop-color="#0a0"/><stop offset="1" stop-color="#050"/></linearGradient><linearGradient id="g"><stop offset="0" stop-color="red"/><stop offset="1" stop-color="red" stop-opacity="0"/></linearGradient><linearGradient xlink:href="#h" id="r" gradientUnits="userSpaceOnUse" x1="134.489" y1="478.414" x2="148.88" y2="478.414"/><linearGradient xlink:href="#i" id="s" gradientUnits="userSpaceOnUse" x1="134.489" y1="478.414" x2="148.88" y2="478.414"/><linearGradient xlink:href="#j" id="t" gradientUnits="userSpaceOnUse" x1="134.489" y1="478.414" x2="148.88" y2="478.414"/><linearGradient xlink:href="#k" id="u" gradientUnits="userSpaceOnUse" x1="134.489" y1="478.414" x2="148.88" y2="478.414"/><linearGradient xlink:href="#l" id="v" gradientUnits="userSpaceOnUse" x1="134.489" y1="478.414" x2="148.88" y2="478.414"/><linearGradient xlink:href="#m" id="w" gradientUnits="userSpaceOnUse" x1="134.489" y1="478.414" x2="148.88" y2="478.414"/><linearGradient xlink:href="#n" id="x" gradientUnits="userSpaceOnUse" x1="134.489" y1="478.414" x2="148.88" y2="478.414"/><linearGradient xlink:href="#o" id="y" gradientUnits="userSpaceOnUse" x1="134.489" y1="478.414" x2="148.88" y2="478.414"/><linearGradient xlink:href="#p" id="z" gradientUnits="userSpaceOnUse" x1="134.489" y1="478.414" x2="148.88" y2="478.414"/><linearGradient xlink:href="#j" id="A" gradientUnits="userSpaceOnUse" x1="134.489" y1="478.414" x2="148.88" y2="478.414"/><linearGradient xlink:href="#a" id="B" gradientUnits="userSpaceOnUse" x1="134.489" y1="478.414" x2="148.88" y2="478.414"/><linearGradient xlink:href="#b" id="C" gradientUnits="userSpaceOnUse" x1="134.489" y1="478.414" x2="148.88" y2="478.414"/><linearGradient xlink:href="#c" id="D" gradientUnits="userSpaceOnUse" x1="134.489" y1="478.414" x2="148.88" y2="478.414"/><linearGradient xlink:href="#g" id="E" gradientUnits="userSpaceOnUse" x1="134.489" y1="478.414" x2="148.88" y2="478.414"/><linearGradient id="q"><stop offset="0" stop-color="red"/><stop offset="1" stop-color="red" stop-opacity="0"/></linearGradient><linearGradient gradientTransform="matrix(1.04168 0 0 1.13097 690.39 -184.245)" y2="478.414" x2="148.88" y1="478.414" x1="134.489" gradientUnits="userSpaceOnUse" id="F" xlink:href="#q"/></defs><path d="M1497.434 879.654H2.567V2.567h1494.867v877.087z" fill="#99b3cc" overflow="visible"/><path d="M937.88 632.873l3.455-2.764-.23-2.304 6.735-8.405 2.246-1.61 1.784 3.683 2.418-2.878 6.333-.806 1.383 1.61-1.727 2.304 2.418 3.57.98 5.008-1.21 3.915-4.26 4.836-.75 3.57s-1.554.518-1.784.23c-.23-.288-1.785-3.34-1.785-3.34l-2.36 3.685s-3.11.806-3.282.52l-1.094-1.844-5.067.806.69 5.642-2.878 2.246-3.28-.576-5.183-1.67-1.094-1.842 3.34-3.05 2.187-3.744 3.915-1.842-2.36-2.245-.058-1.268.518-1.44zM1099.37 722.792l.153-8.69-2.44-4.575 3.202-5.49 11.13-3.81 9.454 6.86 2.896.915 3.354 5.49-.457 10.062-7.624 1.067-5.947 7.167-8.08-1.22-5.642-7.775zM1125.748 676.44l3.506 4.423 2.593 9.605 3.05 7.166 3.048 2.592 5.642-1.982 4.726-3.66 5.794-1.83 3.66 1.374 6.098 3.66 4.574-.764 5.336-6.403-.153-8.08 1.525-3.66-.61-9.91-4.117-3.507-4.878-1.372-10.673-5.793-6.1-3.05-2.59 2.898-3.813 1.677-3.202.305-1.677 7.928-1.982 4.117-4.117.457-5.642 3.81zM1167.982 740.63l5.64-4.878-.456-8.08-1.83-8.387-3.964-3.354-3.507-.457-7.013 4.574-6.557 3.66-5.49 1.677-3.658 1.524-6.71 1.373-2.895 3.507-3.66 2.44-3.202.305 1.068 13.112 7.47 5.947 5.794.306 12.808 9.3 5.64 3.05 4.88-2.287.305-7.93 4.574-8.996.762-6.403zM1199.848 723.25l-.152-7.472 13.417-9.453 1.677-2.134 11.13-.152 1.83 1.982-.153 5.49 2.592 2.134 4.726-1.22 4.422-.153 3.964 3.508v16.924l-3.507-2.287-4.727.763-7.166 7.013-4.88 2.593-3.963-.915-4.118-3.2.153-3.203.61-2.44 1.067-3.05-4.727-1.067-4.726-.152s-1.526 1.525-2.593 1.067c-1.068-.457-5.032-4.726-4.88-4.574z" fill="#a7cc95" stroke="gray" stroke-width="3.08" stroke-linecap="round" stroke-linejoin="round" overflow="visible"/><path d="M1047.49 485.213c.273-.288 25.23 5.347 25.158 6.11-.074.762.166 1.888-.16 2.396-.122 1.934-.788 3.388-1.118 4.95-.24 1.46-.17 3.436-.64 4.952-.322 1.79-1.13 3.462-1.916 5.112-.79 1.35-1.532 3.155-2.236 4.153-.4.762-1.096 1.284-1.278 1.757-.54.23-1.16 1.546-2.076 1.916-.233.582-1.1.808-1.757 1.598-1.275 1.23-2.747 2.726-4.153 3.993-1.16 1.2-2.68 2.23-3.994 3.036-1.42.505-2.19 1.254-3.693 2.086-.895.852-1.567 1.605-2.696 2.546-1.118 1-1.88 1.16-2.874 2.236-.89.38-2.02 1.33-2.814 1.608-1.006.613-2.052 1.02-2.777 2.066-1.53 1.32-2.81 2.727-4.472 3.994-1.454 1.585-2.884 2.565-4.313 3.993-.83.492-2.636 4.014-1.957 2.755.68-1.258-6.72-21.402-5.71-22.402 1.01-1 2.03-1.85 3.035-2.875 1.18-.845 2.877-2.147 4.073-3.435 1.225-1.282 2.547-2.342 3.116-3.594.935-.75 1.265-1.78 2.076-2.555.748-1.01 1.09-1.9 1.917-2.876.462-1.283 1.253-2.095 1.74-3.614.38-.25.75-1.102 1.134-1.977.9-.927 1.38-2.427 2.077-3.514.456-1.048 1.088-2.14 1.438-3.356.532-.928.844-1.963 1.278-2.875.616-.926 1.024-1.894 1.278-3.036.643-1.385 1.378-2.357 1.67-3.89.214-.468.373-.973.646-1.26z" opacity=".5" fill="#a7cc95" stroke="gray" stroke-width="3.08"/><path d="M1007.736 539.828l-2.897 5.947-2.897 3.05-.915 10.062-2.44 4.88 6.25 2.896 4.118 2.897 3.964-3.812 3.965-2.897 2.44-6.402 4.42-6.252.306.153 3.965-4.118-1.372-6.708.305-6.862-5.032-8.385-5.794 3.354-3.202 5.642-5.184 6.556zM1167.22 596.242l-2.288-3.964-3.354-1.067-3.66-3.354.306-8.538 6.25-8.996 1.678-4.726-1.677-7.776-1.83-4.727 6.71-.457 9.452 1.677 10.063 7.166 10.825 5.03 3.355 5.185 3.202 8.995-.61 5.49v7.928l-4.88 5.946-3.506 11.13-2.135 4.27-9.3-.153-10.977-.152-5.947-4.116-.152-8.234-1.524-6.556zM1264.294 735.57l.92 10.11-4.902 5.82.306 8.578 6.74 1.226 4.9-3.676 4.903-1.838-.305-5.82 3.37-3.065-4.902-4.288-2.145-4.29-4.595-3.063-4.29.307zM1260.312 777.234l6.433 3.063 7.352-.612-2.757 7.658-.613 7.66-6.433 1.837-4.29 3.37 1.227-8.578v-8.884l-.918-5.514zM1314.842 717.496l.92 10.416-3.984 7.046-3.676 8.578-1.532 7.965.307 5.82 7.352-1.837 4.594 1.532 3.983 4.902 6.127 2.144 6.74-.612 2.45-4.9 3.983-2.758.306-8.578 3.676-8.578-3.983-5.82 1.838-10.11-4.595-3.676-7.353 4.29-6.74-4.597-10.415-1.224zM1351.603 789.488l11.642-6.74 8.884-9.803 6.126-9.803 6.433-6.433 5.207 6.126 11.03 3.676 4.9-1.226 5.514 5.515.308 11.642-3.676 11.335-3.37 6.74 1.225 6.74-6.433 7.35-10.11.308-14.704 5.208-10.416 6.433-9.497-8.27 2.144-14.4-5.207-14.398zM1348.052 640.982l5.514-2.757 6.74-6.74 2.145-4.288 8.578 2.144 3.37 6.434 9.803.307-3.062 8.885-2.757 10.722-2.144 8.578-.306 8.27-3.983 7.966-11.64 1.227-10.417-2.45-.92-8.273-4.594-6.126v-10.11l3.676-13.786zM1497.434 645.825l-11.642 4.595-6.74 6.434-6.433 9.19-1.226 7.046-4.29 4.595-9.19 1.226-6.126 4.596-6.74 5.82-10.416 1.532-8.27 2.45-9.805 5.21-7.046 5.82-4.594 6.74.306 7.352.307 4.9-5.21 7.047-10.415-1.53-4.29-8.58-.61-8.27-4.29-5.515.92-11.028 10.108-3.064 10.722-7.965 7.046-12.254 6.128-17.46 9.19-4.902 11.03-5.82 11.028-6.434 5.82-6.74 5.208-11.335 1.532-14.4 5.208-6.74 2.45-11.334-2.144-8.27 1.532-7.966 9.19-5.82 7.966-5.21 2.757-9.19 4.595-7.658 6.433-3.676M1323.726 575.963l6.127 7.352-1.838 12.56 9.497 5.21 13.172-3.37 2.45-10.11 4.29-12.255 2.337-8.677 8.273-3.37-4.596-8.27-3.676-12.562-1.837-19.605-4.29-9.19-10.415-1.226-6.127-7.047-10.108-1.838-13.173 6.127-3.677 17.768 9.803 9.803 4.29 15.01-3.065 14.4-3.062 5.208 5.628 4.083zM1259.376 569.71h9.81l2.208-4.17s7.603-.98 8.83-.735c1.225.245 6.13 1.717 6.13 1.717l3.924-8.34 5.15-2.697 1.472-6.377-5.395-7.112-10.056-1.226-7.604-1.227-5.15-5.886-6.867-1.962-10.792 3.434-4.906 10.3 2.208 11.036 5.886 7.848 5.15 5.396zM473.68 870.084l1.297-2.98.152-6.48 1.22-3.812 1.6-3.354.61-3.583-1.677-2.973-.61-2.973-1.83-3.508.077-2.44 4.345-4.88.305-4.8-1.296-1.602.076-6.252-2.134-3.888-2.592-5.183-2.364-1.525-6.25-.534-4.65-2.287-3.89-5.87-1.676-3.2-3.66-4.88-.762-5.03 2.287-2.44 2.44-3.355 1.676-3.354 1.83-5.336 1.067-4.42.305-8.692 2.134-4.574 2.287-1.373.457-2.744 2.744-3.963.306-10.978-3.354-4.423-.763-4.88v-5.335l1.067-3.964-.763-3.812-2.897-3.507 1.373-1.678v-7.32l1.524-.76v-6.71l-.762-1.22-.152-3.81-4.422-5.49-.61-2.592-3.234-3.417-6.09-8.284-5.417-8.754-5.734-13.973-4.327-15.394-2.795-11.625-.15-3.507-2.288-5.336-3.965-8.234-1.067-5.03-2.287-7.32 9.453-1.22 8.843-1.524 5.03-3.354 5.795-1.373 7.623-2.744 5.947-1.22 5.184-3.66 5.945-.61 1.22 8.234 2.744 5.794 1.524 5.338 3.202 5.64 1.677 6.557 3.202 7.32 2.287 1.98 6.556.916 5.64.153 3.508 1.677 4.574 1.372 6.166 8.597 7.116 6.683 11.428.432 12.075 17.034 6.038 9.055 10.996 10.997 4.576 6.51 4.117 5.033 4.88 6.098 3.505 3.66 1.22 3.05 3.05 4.116 3.05 5.335 5.335 10.063 1.525 4.117-.305 7.166-1.22 4.422-1.372 6.252-.914 5.946.305 3.66-1.37 4.42-1.056 8.755 1.836 11.934 2.448 7.65v7.037l-4.284 3.672-1.224 6.12-5.202 3.06-.612 7.956 4.422 4.343 3.366.61.915 3.965 1.98 4.117.458 3.66-4.27 1.22-4.268 1.37-3.05 1.983-7.013.305h-6.86l-7.015 1.068-4.27 1.067-14.483-6.1-8.235 2.136-6.708 7.014-.915 3.812-7.624 10.215-11.892 11.742-8.164 9.002-3.535 5.075-5.27 1.277-4.474-1.04-3.274-.877-9.324 5.134.457-6.013.268-3.556zM404.84 452.463l.306 4.422 3.354 6.71 1.906 6.784-.99 8.46-4.5 7.014-4.04 9.3 5.947 4.88 6.25 2.592-3.963 11.13 3.66 2.592 7.775-.305 15.4 13.57 16.162-7.623 2.897-2.288 8.08-1.372 8.996 1.982 3.202-.152-5.794-8.08-1.372-6.405.915-12.502.916-14.485-5.337-9.453-1.983-10.063-.61-7.928 3.843-.305 3.323-4.423 5.794-4.88 7.32-8.842 5.792-8.843 2.59-3.66-1.828-4.88-4.27-7.927-3.964-7.47-.61-6.862-8.385 3.202-7.47 3.354-4.575 13.11-4.27 4.575-4.42 1.373-5.185 5.946-3.66 10.215-9.757 3.81-10.978.306-7.014 3.964-8.843 6.86-.61 2.593zM691.33 340.398l-2.896 8.08-5.184 7.32-7.166 1.525-2.592 3.964-1.677 6.1-1.83 4.878-4.116 5.336-5.49 3.203-5.946 3.05-1.678 2.59.153 9.454-3.508 2.897-4.88.458-2.59 4.27-1.373 8.994-1.983 1.83 3.66 3.354 7.013 2.897 7.47 3.202 2.897 6.403 3.965 2.134 4.42-2.287 3.508-3.506 3.812 2.592 4.88-1.678 12.5-1.22 8.54-2.59 5.336-3.203 4.727 1.067 7.47 1.677 6.1 5.946 4.27.61.608-14.028-1.524-2.134-.154-6.1-3.05-8.995-1.83-4.575 2.288-5.64 3.355-6.1v-2.744l-1.526-5.03-.305-2.593.914-3.05 3.66-5.793 2.743-3.354.153-8.386-1.067-8.08-1.373-6.1-5.488-1.067-6.404 1.677-11.588-.305-4.866.305-5.502-1.22-4.726-.306-2.135 4.268zM923.694 728.128l.458 4.88-.458 4.573-1.524 4.575-2.44 2.745-.457 3.812-2.287 2.592v3.2l-3.812 3.05-.152 2.898 3.05 3.354 5.03 5.49 3.355 5.183.457 2.743-.762 3.965-2.135 3.66-.305 4.116 2.745 4.574-.458 4.726-.915 1.83.914 7.013.914 2.592 5.032-8.844 10.978-8.08 10.215-5.642 2.44-9.606 5.182-3.66 9.15.154 7.012-2.592 2.44-6.1 3.81-3.2 9.912-11.436 4.422-2.897 7.166 1.22 8.69-.61 9.606-.763 4.726 1.677 6.252-2.895 6.86-1.068 9.91-3.964 9.302-1.525 9.606-8.538 4.27-3.812-.916-10.825 1.372-12.96v-3.05l-10.215-1.98-8.54-2.288-12.196-5.642-20.278 4.27-9.453 6.403-5.185 1.067-5.64-1.982-7.777 5.185-10.368 4.574-8.996 2.44-13.874 2.286-15.552 9.605-9.91 2.593-10.673.915zM1111.416 870.084l-.915-4.58-6.708-10.52-7.166-9.454-2.287-2.44 2.286-8.233 2.135-8.843 5.032-8.69-1.22-7.472-3.81-8.08.15-10.37-3.963-8.232 9.605-8.54 7.928-3.353 7.928-3.507 6.253 5.794 3.506 7.32 9.3 9.757 7.014.306 8.843 1.982 11.283-.763 3.506 1.83-1.677 12.35 2.286 11.13 7.776 12.503.763 6.25-3.05 5.642-.152 8.54-4.727 12.196-.818 7.478.194 4.826 2.26 4.744h-60.315l-.452-4.292-.79-5.278z" fill="#a7cc95" stroke="gray" stroke-width="3.08" stroke-linecap="round" stroke-linejoin="round" overflow="visible"/><path d="M473.68 870.084l1.297-2.98.152-6.48 1.22-3.812 1.6-3.354.61-3.583-2.287-5.946-1.83-3.508.077-2.44 4.345-4.88.305-4.8-1.296-1.602.076-6.252-2.134-3.888-2.592-5.183-2.364-1.525-6.25-.534-4.65-2.287-3.89-5.87-1.676-3.2-3.66-4.88-.762-5.03 2.287-2.44 2.44-3.355 1.676-3.354 1.83-5.336 1.067-4.42.305-8.692 2.134-4.574 2.287-1.373.457-2.744 2.744-3.963.306-10.978-3.354-4.423-.763-4.88v-5.335l1.067-3.964-.763-3.812-2.897-3.507 1.373-1.678v-7.32l1.524-.76v-6.71l-.762-1.22-.152-3.81-4.422-5.49-.61-2.592-3.234-3.417-6.09-8.284-5.417-8.754-5.734-13.973-4.327-15.394-2.68-11.16-.115-.465-.15-3.507-2.288-5.336-3.965-8.234-1.067-5.03-2.287-7.32-12.197-5.794-10.673-4.42-6.556-1.373-4.422-3.66-6.86-1.676-6.557-1.372-12.046-6.556-5.946-4.117-6.912-2.592-2.587-3.02-4.313-2.586-4.96-1.94-5.39-2.588-4.097-.863-4.743-2.37-4.313-.216-3.88-1.94-6.47.215-4.743 1.508-7.546 2.803-2.156-1.724-3.234-4.744-7.524-1.844-5.814-4.284h-8.568l-7.65-5.814-3.673-6.732-6.12-1.53-8.26-.612-8.57-.918-8.768-4.5-8.232-7.364-9.53-9.098-6.12-5.17-.92-8.578-9.496-11.948-5.515-4.902-7.966-3.063-9.19-1.225-5.208-5.82-9.803-.614-2.145 3.37-6.74.92-8.27 2.45-2.758 8.884-14.092.613-9.497 3.982-8.883 3.983-14.092.306-11.028 2.757-10.416 3.984-6.432 7.965-8.885 7.658-7.352 2.45-11.334 2.145-7.046 5.514-3.063 9.19-5.82 5.208-12.434 3.69-.006 347.18h470.39l.456-6.014.268-3.556z" fill="#a7cc95" stroke="gray" stroke-width="3.08" stroke-linecap="round" stroke-linejoin="round" overflow="visible"/><path d="M233.61 519.688l8.57.918 8.26.612 6.12 1.53 3.673 6.732 7.65 5.814h8.57l5.813 4.284 7.524 1.844 3.234 4.744 2.156 1.725 7.547-2.802 4.744-1.51 6.47-.215 3.88 1.94 4.313.216 4.744 2.37 4.097.864 5.39 2.587 4.96 1.942 4.313 2.587 2.587 3.018 6.912 2.59-4.88-4.725-1.37-3.507 3.048-8.08 1.677-7.167 4.118-9.607 1.83-4.88 1.067-8.232v-5.64l-5.032-4.88-4.88-2.59.916-14.64-5.185-2.59-7.013-4.88-.61-6.403-6.123.275-4.53-.647-5.82-1.078h-6.9l-4.53 4.312h-3.45l-1.94-1.294-6.037.43-3.666-1.077-3.88-.432-2.157-1.08-8.442 1.943-12.24 2.45-11.323-1.225-13.464-2.142-10.71-6.426-.103-.135-7.365 10.83-5.2 12.998-6.065 6.932-7.798.434 9.53 9.098 8.232 7.365 8.77 4.498zM2.567 404.63l9.07-1.14 11.947-4.29 14.704-1.532 14.092 1.838 8.885 5.515 8.577 3.064 12.254 1.532 10.416-.92-5.82 7.047-2.45 8.884-3.984 8.578-3.982 3.982-7.965 1.838-1.838 4.596-7.658 3.064-3.064 7.66-5.514 8.27-9.803 7.353-13.48 3.063-13.172 4.902-11.207.306" fill="#a7cc95" stroke="gray" stroke-width="3.08" stroke-linecap="round" stroke-linejoin="round" overflow="visible"/><path d="M2.573 532.476l12.433-3.69 5.82-5.208 3.064-9.19 7.046-5.515 11.335-2.145 7.353-2.45 8.884-7.66 6.434-7.964 10.417-3.983 11.028-2.756 14.092-.306 8.884-3.983 9.498-3.982 14.092-.613 2.757-8.884 8.272-2.45 6.738-.92 2.145-3.37 9.803.613 5.208 5.82 9.19 1.225 7.965 3.063 5.514 4.902 9.496 11.948.92 8.577 6.12 5.17 7.797-.433 6.066-6.932 5.2-12.997 7.468-10.696-6.917-6.278-5.208-7.047-.613-7.353-4.29-5.207-4.594-6.434-6.433-3.983-6.127-.307-2.45-6.127V418.5l-4.903-3.982-.306-4.902-6.74-3.064H162.97l-18.38 2.145-25.12 1.225-26.96-1.225-5.82 7.046-2.45 8.884-3.984 8.578-3.982 3.982-7.965 1.838-1.838 4.596-7.658 3.064-3.064 7.66-5.514 8.27-9.803 7.353-13.48 3.063-13.172 4.902-11.207.306M762.223 253.348l-1.294 7.547-9.704 3.235-4.744 5.82-14.015.433-6.9 6.9-16.604-.216-4.96 6.253-.43 6.253 1.725 7.763-3.45 8.193-3.88 3.665-6.47 3.666-3.666.432 2.372 13.37 3.262 9.467-2.135 4.268-2.896 8.08-5.184 7.32-7.166 1.525-2.592 3.964-1.677 6.1-1.83 4.878-4.116 5.336-5.49 3.203-5.946 3.05-1.678 2.59.153 9.454-3.508 2.897-4.88.458-2.59 4.27-1.373 8.994-1.983 1.83-4.004-1.004-6.037-1.08-4.528-.214-4.313 2.587-4.96 3.666-4.312 3.235-4.097.432-4.312 2.156-4.097-.216-4.96-.43-4.314.78-.99-7.166-2.974-3.735.075-5.413-1.296-1.143.152-5.26 2.21-2.974.153-6.328-.915-3.507-2.82-3.048.762-3.66-2.516-7.928-1.296-5.87-1.144-11.36-1.715-3.887-.533-6.708 4.65-5.986 3.94-3.974-.54-3.612-2.856-7.17 7.008-6.522 3.127-5.984.377-3.558-4.42-4.905-2.695-4.098 1.347-5.013 2.803-4.583 2.857-6.954 2.372-4.043.7-5.822 4.96-1.725 11.86-.215 6.037-3.45 3.88-8.625 1.726-6.253-.026-.29 7.318-3.353 7.624-6.1 5.49-4.878-.916-4.27-3.66-9.454-1.22-8.843.61-6.1 7.624-7.012 7.32-1.524 6.492-7.69 5.39-1.293 1.94-5.606 5.39-1.94 8.626-6.685 6.47-5.175 8.84.216 4.312-3.234-2.803-4.53 2.804-6.468.216-6.038 11.86-2.587 16.17 1.94 4.53 1.725 3.45-.862 5.605 4.96 4.744 10.996 10.78 12.722 3.235 8.625 3.45 3.234 1.325 5.86-.915 8.233-3.964 3.964-6.098 7.624.305 7.623 6.1 6.1 3.963 5.794v7.928l-3.087 5.956zM759.18 335.062l-5.49 1.372-8.08.763-13.57-.153 1.373 6.1 1.067 8.08-.153 8.386-2.744 3.354-3.66 5.794-.914 3.05.304 2.59 1.525 5.033v2.745l-3.356 6.1-2.287 5.64 1.83 4.574 3.05 8.995.152 6.1 1.523 2.133-.61 14.028 7.32 4.726h3.658l4.118-1.22 5.946-2.287 7.32.153 3.658 4.116 5.337.458 4.725-3.202 3.812-1.677 2.744-.458 5.643 6.1 3.66 4.268 2.743 1.83-.61 6.404-.304 9.91 1.067 5.184 1.98 5.643 1.068 2.59 2.897.154 3.354 3.507 4.116 1.372 2.44-2.897 4.574-3.813h3.202l4.116 2.897 5.642 2.897 5.03-.304 5.033-2.592 4.42-.61 2.44 1.525 2.135 6.708 3.355 5.03 7.166 7.777 5.488 6.71 6.708 5.64 6.556 5.794 4.422 5.64 3.507 5.49 3.813 3.2.152 2.746 4.727 4.116 1.372.61-.153 7.014-1.828 5.64-.305 7.167v10.368l1.677 2.288.457 6.1 3.66 3.506 5.185 1.83 5.03.762-1.98-4.727-.763-5.947.152-6.404 3.66-5.337 8.233 7.623.915 5.184 7.775 6.86 13.57-11.13 10.52-12.96 5.032-3.353 1.37-4.422 1.526-6.86-1.83-7.624-.457-6.25 4.116-2.288 5.49-1.22 2.438-4.116.153-9.148-2.44-4.27-1.83-3.964-.914-4.116-6.252-.458-9.91-3.05-7.928-5.793-4.88-1.83-5.03 3.812-11.283 9.452-4.422 2.592-9.15-10.063-7.775-7.622-8.843-4.574-8.386-5.947-12.655-9.453-7.167-7.928-4.726-7.166-4.727-14.332-3.66-13.57-2.59-8.538-3.813-6.557-7.623-3.81-11.283-3.05-4.268-2.288-1.067-6.404-2.745-4.573-1.135-6.984-5.398-6.895-8.515-7.647-8.28-3.935-6.344-7.925-4.896-4.896-7.956-.918-6.266-8.674z" fill="#a7cc95" stroke="gray" stroke-width="3.08" stroke-linecap="round" stroke-linejoin="round" overflow="visible"/><path d="M888.627 357.323l1.982 5.183 1.828 10.673 1.22 8.843-3.354 2.287-7.32 2.744-6.555-2.744-4.27-.153-7.93-6.404-7.927-3.964-7.47 4.573-2.593 5.947-2.135 6.098-4.27 7.166-4.878 5.49-7.623-3.812-11.283-3.05-4.268-2.287-1.067-6.404-2.745-4.573-1.135-6.984-5.398-6.895-8.515-7.647-8.28-3.935-6.344-7.925-4.896-4.896-7.956-.918-6.266-8.674 8.102-2.037 1.224-7.956 2.754-7.957 7.038-6.426 6.732-3.672 10.404 2.142 10.098 1.224 12.24 2.755 8.875 3.978 5.814-.306 9.18-3.06 7.04-3.978 8.26.917 7.65 1.53 2.45 7.344 2.14 7.65 2.45 3.367.538 7.966 1.532 11.948 5.515 1.84h6.126l3.287 4.993zM1049.36 491.8l-1.98-6.403 4.572-7.47 2.135-8.082 2.135-7.928-1.068-7.776 6.404-8.385 1.525-3.05 5.03-5.64 7.93-3.05 2.44-6.252 4.726-7.47 11.434-12.808 11.13 1.067 10.826-.152h9.148l4.88-3.964 9.452-1.068s3.354-2.744 3.964-2.744c.61 0 7.776 3.812 7.776 3.812l.915 5.793 5.184 5.64s-2.136 2.44-2.746 2.898c-.61.457-7.928 9.758-7.928 9.758l-5.184 5.49-1.372 5.335.152 3.66-9.605 2.287-10.673 3.812-7.166 1.83-6.86 5.183-7.625 6.1-4.117 8.232.153 6.86-1.83 4.27-13.723 3.354-6.86 6.556-23.177.305zM1258.91 580.45l-7.762 1.94-9.056.648-9.487-1.725-7.763.216-3.234 4.527.43 11.643-.215 11.644-3.018 6.684-5.607 7.98-6.253 5.605 1.725 9.703 1.294 9.272.863 6.9-.647 9.487-1.08 7.978 2.158 5.175 6.468 3.88 6.9 8.195 8.626 5.175 3.45 3.88 7.546 2.59 7.116 7.76 2.803 9.273 5.606 6.9.54-.013 7.964-3.37 11.028-.612 6.127-2.757 13.173-.307 6.127-4.9 6.433-9.497 6.74-8.27 7.965-6.435-1.225-13.48 1.53-6.126 3.37-7.66 4.597-3.98 4.9-6.74-4.9-8.885-2.145-10.416-3.063-9.19-7.66-6.126-7.045-9.19-8.273-10.11-3.063-9.497-5.514-2.144-.613-2.758-6.127-1.53-5.514 3.675-11.335.613-11.334-1.532-3.545-4.09z" fill="#a7cc95" stroke="gray" stroke-width="3.08" stroke-linecap="round" stroke-linejoin="round" overflow="visible"/><path d="M1061.614 2.567v9.498l-4.528 7.115v3.45l-5.39 3.88-2.156 10.998-.432 10.997-1.078 5.822-8.84 2.803-1.294 7.547-9.92 11.86-7.115 2.587-.214 4.312 3.02 7.763-2.59 10.996-7.76 1.94-3.883 6.47.743.173 3.354 9.148 7.014 8.233-.61 8.234-5.49 7.32-7.927 5.793-8.234 3.964-3.964 6.1-6.018 5.588-4.528 4.528-1.51 6.038 1.08 9.27 1.508 9.704s2.156 6.038 2.156 7.332c0 1.293-4.312 7.33-4.312 7.33l-4.312 5.823 3.018 4.744v6.253l-4.528 3.88h-12.937l-2.157 6.038-7.115 4.528-3.45.647-7.763 6.47-8.41 2.802-5.605 4.097-3.235 8.625-3.88 8.84-20.27 13.585-7.978.216-6.9 6.9-4.096 5.82-5.33 8.08-13.157 5.51 2.45 7.343 2.14 7.65 2.45 3.367.538 7.966 1.532 11.948 5.515 1.84h6.126l3.287 4.993 1.982 5.183 1.828 10.673 1.22 8.843 6.67-1.456 9.056-4.744 4.528-4.744 15.74.862 12.075-.647 4.097.43 6.253 3.882 9.92 1.078 9.918-.215 9.056-7.978 5.392-.863 7.978 1.51 6.468 3.017 1.94 6.9.648 7.116 9.272.862 9.056 1.94 3.666-1.724 4.96-7.33 3.45-3.45 5.82.43 4.53 1.942 7.115-2.372 6.684-1.51 4.527-6.037 1.078-7.763 4.744-6.684 4.958-1.725 3.666-4.31 5.39-2.804 14.232-.432 11.86-1.078 10.78-3.88 9.057 4.743 8.41-.864 11.427-2.156 7.762-5.175 7.332-9.488 4.743-9.056 9.272-4.31 5.82 5.174.648 10.78.43 10.135 9.057 3.665 6.685-4.313 3.88-3.88 6.038 1.51 6.253-1.51 7.117.646 11.428-8.194v-5.175l6.47-10.782 6.252-7.762 1.51-11.86.43-13.153 4.53-11.212 5.174-9.918.79.494 8.27-9.497 3.677-7.353 2.144-14.092.92-12.867-1.532-13.173-5.82-9.19-5.82-11.03-2.627-12.993-2.802-9.056-6.254-4.96-1.078-7.546.432-18.76 1.51-7.978.43-10.565 7.978-7.33 10.05-18.212 14.278-26.254 19.805-23.488 9.21-23.03 1.613-8.645M1497.434 238.36l-7.36 8.89-7.66 11.03-7.352 10.416-5.208 5.82-13.173.307-14.397 3.676-11.335 1.224-5.515 4.902-8.27 7.658-8.272.613-.306 10.722-6.433 5.207-7.964 7.353-11.64 10.416-7.966.612-6.127 3.983-1.838 6.434-2.758 4.902 3.37 6.127 1.226 5.208-3.677 3.37-1.225 5.208 4.596 4.902 3.676 5.514-3.37 6.74-6.126 3.063 1.838 10.11 9.497 6.433 6.128 8.578 4.595 2.757 6.433-5.514 1.532-11.947 6.74-5.208 9.803 3.064 4.596 9.495-2.145 6.74-2.756 6.74.92 5.82 8.884.307 2.757 5.208 3.676-5.208 6.434-.613 6.433 2.45 6.74 5.82 4.902-3.063 2.756-5.514 2.45-6.127 8.272-3.064 15.01 1.532 8.885-3.37 4.457-3.513 6.273-5.144M509.588 267.975l-1.068 10.52-2.44 9.91-1.676 7.167-3.202 4.575-2.44 15.4-.61 12.35-2.592 3.658-5.03.915-7.472 6.71-1.22 4.268-.152 6.404 1.982 3.506-.763 8.234-2.134 2.897-1.066 11.74-.915 2.743 5.335 6.1-.495 4.382-3.622 3.698.61 6.86 8.234 15.4 1.83 4.88 3.697-3.317 3.086.38 5.184 1.412 6.86-.572 2.974-1.182 2.21-4.345 5.338-.23 9.834 12.808 6.785-.103 3.89-1.498 6.48 4.574 8.537 5.185 4.422-2.364 6.174-4.878 3.81-1.067 7.168 3.202 4.955.23 4.04-3.127 2.516-1.143-.99-7.166-2.974-3.735.075-5.413-1.296-1.143.152-5.26 2.21-2.975.153-6.327-.915-3.507-2.82-3.048.762-3.66-2.516-7.928-1.296-5.87-1.144-11.36-1.715-3.887-.533-6.71 4.65-5.983 3.94-3.974-.54-3.612-2.856-7.17 2.318-2.64 4.69-3.882 3.127-5.984.377-3.558-4.42-4.905-2.695-4.098 1.347-5.013 2.803-4.583 2.857-6.954 2.372-4.043.7-5.822-5.066-.215-6.577-1.402-8.625-.43-11.536-.97-10.242-3.127-11.643.108-12.614-.646-9.164.215-3.937-1.833-5.475 2.228z" fill="#a7cc95" stroke="gray" stroke-width="3.08" stroke-linecap="round" stroke-linejoin="round" overflow="visible"/><path d="M415.268 2.567l3.632 6.058 1.22 4.27 3.05 2.744 1.066 5.487 9.606 11.13.304 4.422-1.524 5.183-3.202 5.642-2.44 6.098-1.067 3.202 3.812 5.49 5.49 5.336 6.098 7.624 1.677 5.337 1.22 5.794-2.44 17.077-2.44 2.898-.457 4.88 2.44 5.488v14.942l-3.202 3.507-4.42 7.47-4.728 4.575-7.623 6.86v7.624l-.306 4.727 1.22 2.288-.762 4.726v4.574l5.488 5.337.61 4.726 1.677 8.387 1.83 5.947 3.507 2.44 5.336.76 5.49 2.593 5.946 7.32 3.354 6.555 4.574 8.69 8.843.306h6.556l4.574-1.067-.457-4.42.762-6.862 4.574-6.404 5.794-3.354 5.184.762 5.337 5.49 3.965 2.743 6.404-2.592 7.165-2.287 10.215-1.22 5.946.763 3.355 6.403 1.373 7.928-2.744 5.947-4.576 4.727-1.83 2.897-11.13 2.136-5.946 3.354.61 5.184 2.44 1.982-1.22 3.812.565 8.75-5.475 2.227-1.068 10.52-2.44 9.91-1.676 7.167-3.202 4.574-2.44 15.4-.61 12.35-2.592 3.66-5.03.914-7.472 6.71-1.22 4.268-.152 6.404 1.982 3.506-.763 8.234-2.134 2.897-1.066 11.74-.915 2.743 5.335 6.1-.495 4.382-3.622 3.698-8.385 3.202-7.47 3.354-4.575 13.11-4.27 4.576-4.42 1.372-5.185 5.946-3.66 10.215-9.757 3.81-10.978.306-7.014 3.964-8.843 6.86-.61 2.593-2.724.19-2.878.897-2.63 1.353-6.404.152-4.574 1.83-3.66 3.354-6.86 7.013-4.727.457-5.946-2.44h-5.184l-5.642 1.373-7.47 4.88-7.318 2.134-6.123.275-10.35-1.725h-6.9l-4.53 4.312h-3.45l-1.94-1.294-6.037.43-3.666-1.077-3.88-.432-2.157-1.08-8.442 1.943-12.24 2.45-11.323-1.225-13.464-2.142-10.71-6.426-6.917-6.278-5.208-7.047-.613-7.353-4.29-5.208-4.594-6.433-6.433-3.983-6.127-.307-2.45-6.127V418.5l-4.903-3.982-.306-4.902-6.74-3.064H162.97l-18.38 2.145-25.12 1.225-26.96-1.225-10.416.92-12.254-1.533-8.577-3.063-8.885-5.514-14.092-1.838-14.704 1.532-11.948 4.29-9.07 1.14V2.567H415.27z" fill="#a7cc95" stroke="gray" stroke-width="3.08" stroke-linecap="round" stroke-linejoin="round" overflow="visible"/><path d="M404.84 452.463l.306 4.422 3.354 6.71 1.906 6.784-.99 8.46-4.5 7.014-4.04 9.3 5.947 4.88 6.25 2.592-3.963 11.13 3.66 2.592 7.775-.305 15.4 13.57 16.162-7.623 2.897-2.288 8.08-1.372 8.996 1.982 3.202-.152 7.928 10.063 2.745 8.538-1.83 7.167-3.05 8.234-1.98 7.167-1.526 4.88-2.745 1.828-.61 6.71-5.947.61-5.184 3.658-5.946 1.22-7.623 2.744-5.794 1.373-5.03 3.354-8.844 1.525-9.453 1.218-12.198-5.794-10.672-4.42-6.557-1.373-4.42-3.66-6.862-1.676-6.557-1.372-12.045-6.556-5.946-4.117-4.88-4.727-1.37-3.507 3.048-8.08 1.677-7.167 4.118-9.607 1.83-4.88 1.067-8.232v-5.64l-5.032-4.88-4.88-2.59.916-14.64-5.185-2.59-7.013-4.88-.61-6.403 7.318-2.135 7.47-4.88 5.643-1.37h5.184l5.946 2.438 4.727-.457 6.86-7.014 3.66-3.355 4.574-1.83 6.404-.152 2.63-1.353 2.878-.896 2.725-.19z" fill="#a7cc95" stroke="gray" stroke-width="3.08" stroke-linecap="round" stroke-linejoin="round" overflow="visible"/><path d="M889.656 870.084l1.44-5.953.46-5.793 4.573-5.49 3.2-8.08.763-8.69 1.22-5.947 4.27-3.507 6.403-2.134 5.336-6.405 7.592-8.386-.915-2.593-.915-7.013.914-1.83.457-4.726-2.745-4.574.305-4.117 2.135-3.66.762-3.964-.457-2.744-3.354-5.185-8.08-8.843.15-2.897 3.813-3.05v-3.2l2.287-2.593.457-3.812 2.44-2.745 1.525-4.574.457-4.573-.458-4.88-5.915-2.896-2.288 2.746-7.623 1.83-9.454 1.22-7.624-2.44-1.524-5.49-2.897-2.896-4.878-2.287-3.355-2.592 1.068-5.64 4.116-6.252 2.746-2.897-.153-6.402.234.292-1.838-6.127 1.53-11.948 6.127-8.27 3.37-5.822-1.37-8.688.765-8.875 4.294-8.5 3.964-3.508 6.25-6.86-1.066-4.117 2.44-3.812 1.22-7.93.304-7.927 1.677-4.88-.61-5.335-4.88-7.928-4.91-5.336-5.03-.763-5.184-1.83-3.66-3.506-.456-6.1-1.677-2.286v-10.367l.305-7.166 1.83-5.64.152-7.015-1.372-.61-4.727-4.116-.152-2.745-3.812-3.2-3.506-5.49-4.422-5.64-6.556-5.795-6.708-5.64-5.49-6.71-7.165-7.776-3.355-5.032-2.134-6.71-2.44-1.524-4.42.61-5.033 2.592-5.03.305-5.642-2.896-4.116-2.897h-3.202l-4.574 3.812-2.44 2.896-4.117-1.372-3.355-3.507-2.897-.153-3.05-8.233-1.066-5.183.304-9.91.61-6.404-2.744-1.83-3.66-4.27-5.64-6.098-2.745.458-3.812 1.677-4.726 3.202-5.338-.458-3.66-4.116-7.318-.153-5.946 2.287-4.117 1.22h-3.658l-7.318-4.726-4.27-.61-6.098-5.947-7.47-1.678-4.728-1.067-5.336 3.202-8.54 2.592-12.5 1.218-4.88 1.678-3.812-2.592-3.507 3.506-4.42 2.287-3.966-2.134-2.896-6.404-7.47-3.203-7.014-2.897-3.66-3.354-10.04-2.083-4.528-.215-4.313 2.587-4.96 3.666-4.312 3.235-4.097.432-4.312 2.156-4.097-.216-4.96-.43-4.314.78-2.516 1.143-4.04 3.126-4.955-.23-7.167-3.2-3.81 1.066-6.176 4.88-4.423 2.363-8.538-5.184-6.48-4.573-3.89 1.498-6.784.103-9.834-12.808-5.337.23-2.21 4.344-2.974 1.182-6.86.572-5.184-1.41-3.087-.382-3.7 3.316-2.59 3.66-5.794 8.843-7.32 8.843-5.793 4.88-3.323 4.42-3.843.306.61 7.928 1.982 10.063 5.336 9.453-.915 14.485-.914 12.502 1.372 6.404 5.794 8.08 7.928 10.063 2.745 8.538-1.83 7.167-3.05 8.234-1.98 7.167-1.526 4.88-2.745 1.828-.61 6.71 1.22 8.232 2.744 5.794 1.524 5.338 3.2 5.64 1.68 6.557 3.2 7.32 2.287 1.98 6.558.916 5.64.153 3.508 1.677 4.574 1.372 6.166 8.597 7.116 6.683 11.428.432 12.075 17.034 6.037 9.055 10.997 10.997 4.576 6.51 8.995 11.13 3.508 3.66 1.22 3.05 3.05 4.117 3.05 5.335 5.335 10.063 1.525 4.117-.305 7.166-1.22 4.422-1.372 6.252-.914 5.946.305 3.66-1.37 4.42-1.056 8.755 1.836 11.934 2.448 7.65v7.037l-4.284 3.672-1.224 6.12-5.203 3.06-.612 7.956 4.423 4.343 3.366.61.915 3.965 1.98 4.117.458 3.66 9.79-2.288 5.03-1.524 7.472-5.642 3.354-5.03 6.205-6.65 4.283-6.885 2.754-8.874 9.486-9.334 7.803-6.273 6.12-3.213 3.672-7.19.918-7.498 3.366-4.437 5.432-.918 6.197 1.377 12.547 2.754 12.7 2.448 7.496-2.754 9.333-2.142 13.533 3.88 5.25 2.19 11.59 5.64 3.353.154 8.386-6.71 8.08 1.983 4.88.915 9.91-7.776 4.268-.762 3.66-1.982 8.08.762 10.978-2.592 12.045-2.135 4.728-1.22 4.726 6.252 3.965 5.945 4.573 6.1 4.574 5.183 6.1-1.982 5.182-.458 3.354 4.422 3.66 4.574-2.898 6.404-4.27 4.27-1.066 10.52-5.947 5.03-7.928 4.27-8.843 1.83-7.624 4.574-8.843.61-3.812 2.897-5.946 2.895-5.49 5.032-2.743 7.776-1.982 9.758-4.575 7.32-1.372 2.44-3.66 1.066-2.44.305-2.286 8.082-.305 5.946-1.373 5.496 3.366 4.374 1.58 5.196h104.365l1.313-9.57z" fill="#a7cc95" stroke="gray" stroke-width="3.08" stroke-linecap="round" stroke-linejoin="round" overflow="visible"/><path transform="matrix(1.04168 0 0 1.13097 284.614 -61.54)" d="M147.462 478.414c0 2.94-2.587 5.32-5.777 5.32s-5.777-2.38-5.777-5.32c0-2.938 2.586-5.32 5.777-5.32 3.19 0 5.777 2.382 5.777 5.32z" fill="url(#r)" stroke="#303030" stroke-width="2.838" stroke-linecap="round" stroke-linejoin="round" overflow="visible"/><path transform="matrix(1.04168 0 0 1.13097 263.573 6.46)" d="M147.462 478.414c0 2.94-2.587 5.32-5.777 5.32s-5.777-2.38-5.777-5.32c0-2.938 2.586-5.32 5.777-5.32 3.19 0 5.777 2.382 5.777 5.32z" fill="url(#s)" stroke="#303030" stroke-width="2.838" stroke-linecap="round" stroke-linejoin="round" overflow="visible"/><path transform="matrix(1.04168 0 0 1.13097 486.372 15.917)" d="M147.462 478.414c0 2.94-2.587 5.32-5.777 5.32s-5.777-2.38-5.777-5.32c0-2.938 2.586-5.32 5.777-5.32 3.19 0 5.777 2.382 5.777 5.32z" fill="url(#t)" stroke="#303030" stroke-width="2.838" stroke-linecap="round" stroke-linejoin="round" overflow="visible"/><path transform="matrix(1.04168 0 0 1.13097 258.954 -260.562)" d="M147.462 478.414c0 2.94-2.587 5.32-5.777 5.32s-5.777-2.38-5.777-5.32c0-2.938 2.586-5.32 5.777-5.32 3.19 0 5.777 2.382 5.777 5.32z" fill="url(#u)" stroke="#303030" stroke-width="2.838" stroke-linecap="round" stroke-linejoin="round" overflow="visible"/><path transform="matrix(1.04168 0 0 1.13097 374.96 -187.465)" d="M147.462 478.414c0 2.94-2.587 5.32-5.777 5.32s-5.777-2.38-5.777-5.32c0-2.938 2.586-5.32 5.777-5.32 3.19 0 5.777 2.382 5.777 5.32z" fill="url(#v)" stroke="#303030" stroke-width="2.838" stroke-linecap="round" stroke-linejoin="round" overflow="visible"/><path transform="matrix(1.04168 0 0 1.13097 545.088 -152.965)" d="M147.462 478.414c0 2.94-2.587 5.32-5.777 5.32s-5.777-2.38-5.777-5.32c0-2.938 2.586-5.32 5.777-5.32 3.19 0 5.777 2.382 5.777 5.32z" fill="url(#w)" stroke="#303030" stroke-width="2.838" stroke-linecap="round" stroke-linejoin="round" overflow="visible"/><path transform="matrix(1.04168 0 0 1.13097 916.393 -275.01)" d="M147.462 478.414c0 2.94-2.587 5.32-5.777 5.32s-5.777-2.38-5.777-5.32c0-2.938 2.586-5.32 5.777-5.32 3.19 0 5.777 2.382 5.777 5.32z" fill="url(#x)" stroke="#303030" stroke-width="2.838" stroke-linecap="round" stroke-linejoin="round" overflow="visible"/><path transform="matrix(1.04168 0 0 1.13097 1091.937 112.41)" d="M147.462 478.414c0 2.94-2.587 5.32-5.777 5.32s-5.777-2.38-5.777-5.32c0-2.938 2.586-5.32 5.777-5.32 3.19 0 5.777 2.382 5.777 5.32z" fill="url(#y)" stroke="#303030" stroke-width="2.838" stroke-linecap="round" stroke-linejoin="round" overflow="visible"/><path transform="matrix(1.04168 0 0 1.13097 156.68 207.278)" d="M147.462 478.414c0 2.94-2.587 5.32-5.777 5.32s-5.777-2.38-5.777-5.32c0-2.938 2.586-5.32 5.777-5.32 3.19 0 5.777 2.382 5.777 5.32z" fill="url(#z)" stroke="#303030" stroke-width="2.838" stroke-linecap="round" stroke-linejoin="round" overflow="visible"/><path style="text-align:start;line-height:125%;-inkscape-font-specification:MS Gothic" d="M1228.675 543.8c-10.217-7.143-18.095-17.5-23.636-31.072v30.804c-.002 2.857-1.387 4.285-4.157 4.285h-6.234l-1.04-5.09h5.195c.692 0 1.04-.356 1.04-1.07v-53.84h4.934c1.384.18 1.47.715.26 1.607v7.768c-.002 3.93 1.47 8.572 4.414 13.93 3.983-2.858 8.398-7.322 13.247-13.394l4.676 4.82c.866 1.43.346 1.966-1.558 1.61-4.156 3.927-8.832 7.767-14.026 11.516 5.02 9.108 11.688 16.43 20 21.965l-3.117 6.16zm-32.468-36.965c-2.77 16.965-9.957 29.286-21.558 36.964l-2.858-5.625c9.523-5.536 15.757-15.447 18.7-29.733h-15.064v-5.09h15.065l1.558-2.142 4.417 3.214c1.212.715 1.126 1.518-.26 2.41zM776.953 604.678c-3.87 11.66-12.72 20.18-26.544 25.56l-3.32-6.726c17.33-5.38 25.992-16.054 25.992-32.018v-21.256l6.36.54c1.106.357 1.106 1.075 0 2.15v18.566c0 13.812 9.216 24.215 27.65 31.21l-2.766 6.727c-13.825-5.38-22.95-13.63-27.373-24.752zm24.885-17.758c-3.502 7.175-6.452 12.287-8.848 15.336l-5.53-3.497c3.318-4.306 6.36-9.867 9.124-16.683l6.083 2.96c1.106.538.83 1.166-.83 1.883zm-50.046 14.26c2.58-4.663 3.78-10.672 3.594-18.027l6.913 1.615c1.473.538 1.473 1.166 0 1.883 0 5.203-1.2 10.763-3.596 16.683l-6.912-2.153z" font-size="72" fill="#303030" font-family="MS Gothic"/><path style="text-align:start;line-height:125%;-inkscape-font-specification:MS Gothic" d="M509.238 751.29h4.225c1.28.257 1.344.77.192 1.54v20.96c0 7.436-2.177 13.14-6.53 17.116l-3.65-2.885c3.842-3.204 5.763-8.012 5.763-14.422V751.29zm29-.384h4.227c1.28.256 1.344.77.192 1.538v38.462h-4.418v-40zm-10.37 2.692c1.28.256 1.344.77.192 1.538v30.962h-4.418v-32.5h4.226z" font-size="48" fill="#303030" font-family="MS Gothic"/><path style="text-align:start;line-height:125%;-inkscape-font-specification:MS Gothic" d="M1156.82 194.1v-2.163h-37.396v2.973h-4.744v-27.568h46.884V194.1h-4.745zm-37.396-22.434v5.406h16.186v-5.406h-16.186zm20.93 9.73v6.216h16.465v-6.216h-16.466zm-20.93 0v6.216h16.186v-6.216h-16.186zm20.93-9.73v5.406h16.465v-5.406h-16.466zm3.35-12.702h16.464v3.243h-16.465v-3.243zm0-7.027h16.464v3.243h-16.465v-3.243zm-27.908 7.027h16.465v3.243h-16.464v-3.243zm0-7.027h16.465v3.243h-16.464v-3.243zm19.814-8.108v-4.596h-22.326v-4.324h49.396v4.324h-22.326v4.595h27.628v11.62h-4.744v-7.297h-22.884v16.757h-4.744v-16.757h-22.884v7.568h-4.744v-11.89h27.628zM153.457 682.83l13.67-.57v-11.374h-5.57v4.55h-4.302V653.54h9.873v-5.403l-10.38.285-1.52-5.403c9.79.19 17.976-.475 24.558-1.992l3.29 5.12c.17 1.326-.336 1.61-1.518.852l-10.126.853v5.687h10.126v17.346h-10.126v11.09l7.848-.853-3.798-5.403 4.05-3.128c3.545 4.17 6.5 8.626 8.862 13.365l-4.81 3.413-2.28-4.266-24.81 3.697c-.168 1.328-.59 1.612-1.265.854l-1.773-6.825zm40-4.266c1.52 4.17 2.532 2.654 3.038-4.55l4.557 4.266c-.675 6.445-1.688 10.237-3.038 11.374-2.87 2.465-5.823 0-8.86-7.393-2.026-4.928-3.04-12.037-3.04-21.326v-23.887h-32.91v30.996c0 9.1-2.87 16.967-8.608 23.602l-3.544-5.403c4.726-4.93 7.09-11.47 7.09-19.62v-34.977h43.037v29.004c0 7.772.758 13.743 2.277 17.914zm-16.202-20.474h-5.823v8.247h5.823v-8.247zm-10.127 0h-5.57v8.247h5.57v-8.247zM217.64 171.836c1.85.396 1.943 1.188.277 2.376v16.337h21.666v6.533h-21.666V225.3h26.944v6.536h-60V225.3h26.668v-28.217H189.86v-6.534h21.668v-18.714h6.11z" font-size="72" fill="#303030" font-family="MS Gothic"/><path transform="matrix(1.04168 0 0 1.13097 803.228 89.184)" d="M147.462 478.414c0 2.94-2.587 5.32-5.777 5.32s-5.777-2.38-5.777-5.32c0-2.938 2.586-5.32 5.777-5.32 3.19 0 5.777 2.382 5.777 5.32z" opacity=".5" fill="url(#A)" stroke="#303030" stroke-width="2.838" stroke-linecap="round" stroke-linejoin="round" overflow="visible"/><g font-size="25" fill="#303030" font-family="MS Gothic"><path d="M992.212 637.338l-.46 2.41c-.38 2.063-1.45 3.095-3.21 3.095h-5.39c-1.452 0-2.18-.88-2.18-2.638v-10.32h-3.898v2.637c0 5.963-3.134 9.748-9.403 11.353l-1.146-2.752c5.275-1.3 7.913-4.13 7.913-8.486v-2.753h-7.57v-2.18h24.657v2.18h-7.913v9.52c0 .61.27.916.804.916h3.096c.918 0 1.453-.382 1.606-1.147l.458-2.637 2.638.802zm-3.555-14.793H969.85v-2.18h18.807v2.18zM1003.86 628.852v4.93h-4.932v-4.93zM1014.015 618.99c1.758.764 3.21 1.682 4.358 2.752l-1.377 2.18c-1.376-1.148-2.79-2.065-4.243-2.753l1.262-2.18zm1.147 11.582c-1.53-1.376-2.906-2.37-4.13-2.98l1.377-2.066c1.528.688 2.98 1.682 4.357 2.982l-1.605 2.064zm-2.18 12.386c.077.764-.152.917-.687.458l-2.065-1.72c2.065-3.67 3.326-6.613 3.785-8.83l2.18 1.605c-.842 2.83-1.913 5.66-3.212 8.488zm11.927-3.097v1.72h-1.95v-8.255h8.257v6.536h-6.308zm0-4.7v2.866h4.357v-2.867h-4.358zm8.6 6.42c.306 0 .46-.15.46-.457v-9.977h-13.763v12.844h-2.293v-14.68h2.867v-9.862h12.5v9.863h2.982v12.615c0 1.224-.61 1.835-1.834 1.835h-2.294l-.46-2.18h1.836zm-2.18-17.544v-2.753h-8.6v8.028h2.982v-5.274h5.62zm-3.668 1.834v3.44h3.67v-3.44h-3.67z" style="-inkscape-font-specification:MS Gothic" opacity=".5"/></g><path transform="matrix(1.04168 0 0 1.13097 611.982 -148.784)" d="M147.462 478.414c0 2.94-2.587 5.32-5.777 5.32s-5.777-2.38-5.777-5.32c0-2.938 2.586-5.32 5.777-5.32 3.19 0 5.777 2.382 5.777 5.32z" fill="url(#B)" stroke="#303030" stroke-width="2.838" stroke-linecap="round" stroke-linejoin="round" overflow="visible"/><g font-size="20" fill="#303030" stroke="#303030" stroke-width="1.815" stroke-linejoin="round" font-family="Calibri"><path d="M617.92-73.417c0 .73-.68 1.322-1.517 1.322-.838 0-1.517-.592-1.517-1.322 0-.73.68-1.323 1.517-1.323.837 0 1.517.592 1.517 1.323z" style="-inkscape-font-specification:Calibri" transform="matrix(.75193 0 0 .86204 249.1 268.156)"/><path d="M617.92-73.417c0 .73-.68 1.322-1.517 1.322-.838 0-1.517-.592-1.517-1.322 0-.73.68-1.323 1.517-1.323.837 0 1.517.592 1.517 1.323z" style="-inkscape-font-specification:Calibri" transform="matrix(.75193 0 0 .86204 253.215 275.28)"/><path d="M617.92-73.417c0 .73-.68 1.322-1.517 1.322-.838 0-1.517-.592-1.517-1.322 0-.73.68-1.323 1.517-1.323.837 0 1.517.592 1.517 1.323z" style="-inkscape-font-specification:Calibri" transform="matrix(.75193 0 0 .86204 244.984 275.28)"/></g><g fill="none" stroke="#303030" stroke-width="3.518" stroke-linejoin="round"><path d="M378.866 316.588l29.494.023.882-11.768c-3.967-4.214-4.727-5.057-6.303-11.167l-17.608.106c-1.576 6.11-2.88 9.166-7.607 12.22l1.14 10.588z" overflow="visible" stroke-width="3.42674308"/><path d="M378.322 313.337H354.3l-1.63-12.223c4.927-6.533 7.898-11.275 9.89-23.076h26.74l3.697 15.384" overflow="visible" stroke-width="3.42674308"/></g><g fill="none" stroke="#303030" stroke-width="2.346" stroke-linecap="round" stroke-linejoin="round"><path d="M404.168 559.783v17.715M416.74 559.783v17.715M429.31 559.783v17.715M441.883 559.783v17.715" overflow="visible" stroke-width="2.28514476"/></g><g fill="none" stroke="#303030" stroke-width="3.518" stroke-linecap="round" stroke-linejoin="round"><path d="M1274.235 629.642c-3.27 1.278-6 3.754-9.046 7.807-3.04 4.04-5.615 6.14-9.535 7.876M1268.53 655.257c-3.272 1.278-6 3.754-9.047 7.807-3.04 4.04-5.614 6.14-9.534 7.877M1300.4 655.53c-3.272 1.28-6 3.755-9.047 7.808-3.04 4.04-5.614 6.14-9.534 7.876M1306.522 629.642c-3.27 1.278-5.998 3.754-9.046 7.807-3.038 4.04-5.613 6.14-9.533 7.876" overflow="visible" stroke-width="3.42674308"/></g><g fill="none" stroke="#303030" stroke-linecap="round" stroke-linejoin="round"><path d="M-160.875 61.313c0 3.003-5.457 5.437-12.188 5.437-6.73 0-12.187-2.434-12.187-5.438 0-3.003 5.457-5.437 12.188-5.437 6.73 0 12.187 2.434 12.187 5.438z" transform="matrix(.775 0 0 .76884 1181.167 183.455)" stroke-width="4.44" overflow="visible"/><path d="M1094.17 231.944c0 2.947-2.437 5.34-5.442 5.34l-12.846.025c-1.104 0-2 1.168-2 2.608 0 1.44.896 2.608 2.033 2.606 3.038-.002 5.045 2.174 5.045 5.122s-2.44 5.34-5.443 5.34h-22.09c-3.004 0-5.443-2.392-5.443-5.34s2.44-5.34 5.443-5.34m40.744-10.362c0-2.948-2.437-5.34-5.442-5.34m-35.301 15.702s12.022.22 13.127.22c1.105 0 2-1.17 2-2.608 0-1.44-.895-2.61-2.046-2.62-3.05-.014-4.98-2.407-4.98-5.354 0-2.948 2.44-5.34 5.444-5.34h21.756" stroke-width="3.4277171400000004" overflow="visible"/></g><path d="M420.828 511.56c3.606-9.603 7.982-15.844 13.624-21.713-2.408 5.8-3.643 13.253-4.198 19.45 4.507-7.88 9.222-13.506 15.08-19.454-2.703 5.446-2.91 10.892-3.12 16.338 5.028-7.38 10.054-12.073 16.33-16.337-3.33 6.915-4.577 13.293-5.305 21.712" fill="none" stroke="#303030" stroke-width="2.285" stroke-linecap="round" stroke-linejoin="round" overflow="visible"/><g fill="#303030"><path d="M702.65 399.038l1.132-23.034M694.15 410.376c-.134-2.672 1.268-4.952 3.223-7.26 1.955-2.31 3.553-2.933 5.24-3.29.32 2.515-1.156 4.696-2.584 6.58-1.43 1.884-3.908 4.4-5.88 3.97z" stroke="#303030" stroke-width="2.2793004" stroke-linecap="round" stroke-linejoin="round" overflow="visible"/><path d="M702.735 372.555c.468-1.584 4.294-1.163 6.734.514 2.44 1.676 3.718 1.405 6.343 1.525 2.625.12 5.717 2.795 5.113 6.142-.604 3.347-3.123 6.63-3.475 6.217.42-.94 2.094-4.726 1.316-7.145-.785-2.442-2.19-2.047-5.98-2.282-3.79-.235-3.224-.223-5.585-1.253-2.36-1.03-4.624 1.557-4.61 1.056l.145-4.775z" overflow="visible"/></g><g fill="none" stroke="#303030" stroke-width="2.346" stroke-linejoin="round"><path d="M537.977 352.612v15.22l-11.155-1.575 7.968 12.07M553.382 352.612v15.22l11.155-1.575-7.968 12.07" overflow="visible" stroke-width="2.28514476"/></g><g fill="none" stroke="#303030" stroke-width="3.518" stroke-linecap="round" stroke-linejoin="round"><path d="M313.13 715.233H351.7v8.082H313.13v-8.082zM313.13 727.356H351.7v4.04c-1.91 8.082-9.547 8.082-9.547 16.164s7.774 8.082 9.547 16.164v8.082H313.13v-8.082c1.56-8.082 9.546-8.082 9.546-16.164s-7.805-8.082-9.547-16.163v-4.04z" overflow="visible" stroke-width="3.42674308"/></g><g fill="none" stroke="#303030" stroke-width="3.518" stroke-linecap="round" stroke-linejoin="round"><path d="M674.374 572.31c1.02.475 2.19 1.07 1.835 4.374-1.072 2.9-3.11 5.374-8.258 5.188-4.128-1-8.613-2.17-8.257-10.375.357-4.238 4.79-10.12 12.334-10.172 10.906.153 16.258 9.765 15.8 17.19-.562 10.58-9.04 16.07-20.693 17.088-6.252 0-13.507-3.407-16.82-8.544-4.128-5.34-5.725-16.343-2.242-23.6 3.687-7.763 10.642-12.65 18.858-12.815 7.628-.152 12.64 2.713 15.494 4.476l6.727-6.51" overflow="visible" stroke-width="3.42674308"/><path d="M649.502 560.92c-4.035 6.274-6.736 14.446-9.48 19.426-1.97 4.272-4.655 6.713-7.44 9.968 11.063 6.402 28.113 6.92 39.192 4.628" overflow="visible" stroke-width="3.42674308"/></g><g fill="none" stroke="#303030" stroke-linecap="round" stroke-linejoin="round"><path d="M-453.57 162.898c0 18.245-13.593 33.036-30.36 33.036-16.764 0-30.356-14.79-30.356-33.036 0-18.245 13.592-33.036 30.357-33.036 16.767 0 30.36 14.79 30.36 33.036z" transform="matrix(.6212 0 0 .57082 1237.446 506.03)" opacity=".5" stroke-width="3.837"/><path d="M936.477 598.156c-2.494 4.75 1.06 7.577 3.246 7.547 4.67-.066 6.287-4.767 6.33-6.816.078-3.854-2.938-9.48-8.927-9.494-3.08-.007-10.595 2.09-10.548 10.873.063 12.036 12.452 16.952 19.636 15.012" opacity=".5" stroke-width="2.28514476"/></g><path d="M801.408 400.694l-9.43 17.716M787.265 400.694l-9.43 17.716M773.122 400.694l-9.43 17.716" fill="none" stroke="#303030" stroke-width="2.285" stroke-linecap="round"/><path transform="matrix(1.04168 0 0 1.13097 373.106 177.812)" d="M147.462 478.414c0 2.94-2.587 5.32-5.777 5.32s-5.777-2.38-5.777-5.32c0-2.938 2.586-5.32 5.777-5.32 3.19 0 5.777 2.382 5.777 5.32z" fill="url(#C)" stroke="#303030" stroke-width="2.838" stroke-linecap="round" stroke-linejoin="round" overflow="visible"/><path transform="matrix(1.04168 0 0 1.13097 139.495 -31.86)" d="M147.462 478.414c0 2.94-2.587 5.32-5.777 5.32s-5.777-2.38-5.777-5.32c0-2.938 2.586-5.32 5.777-5.32 3.19 0 5.777 2.382 5.777 5.32z" fill="url(#D)" stroke="#303030" stroke-width="2.838" stroke-linecap="round" stroke-linejoin="round" overflow="visible"/><g font-size="20" fill="#303030" font-family="MS Gothic"><path d="M690.145 221.28c.286.058.3.172.043.344v6.867h-.988v-.686h-6.566v.858h-.987v-7.38h.944c.287.056.3.17.044.342v5.236h2.747v-7.382h.945c.286.057.3.172.043.343v7.04h2.832v-5.58h.944zM694.093 227.675h2.318v-2.618h-4.463v-.815h1.76v-4.42l.858.085c1.63-.03 3.348-.214 5.15-.558l.558.772c.143.2.043.243-.3.128-2.03.258-3.834.4-5.408.43v1.03h6.352v.815h-2.19v1.717h3.05v.815h-4.508v2.618h2.317v-1.93h.815c.23.028.243.113.043.257v2.79h-.858v-.3h-5.494v.47h-.858v-3.218h.815c.23.03.243.114.043.258zm3.777-5.15h-3.305v1.717h3.305zM708.3 221.967c-.487 2.86-1.074 4.635-1.76 5.322-.372.37-.76.557-1.16.557-.457 0-.815-.13-1.072-.386-.687-.686-1.03-1.544-1.03-2.574 0-1.26.443-2.332 1.33-3.22.973-.972 2.16-1.458 3.562-1.458 1.26 0 2.246.357 2.962 1.073.8.802 1.202 1.746 1.202 2.833 0 1.173-.372 2.132-1.116 2.876-.487.485-1.23.957-2.232 1.415l-.9-.9c1-.316 1.787-.76 2.36-1.332.543-.543.815-1.2.815-1.974 0-.917-.3-1.675-.9-2.276-.602-.6-1.546-.872-2.833-.815l.772.385c.343.143.343.3 0 .472zm-.988-.815c-.744.17-1.388.53-1.93 1.073-.745.744-1.117 1.66-1.117 2.747 0 .658.214 1.2.644 1.63.084.086.213.13.385.13.172 0 .358-.1.558-.3.658-.66 1.144-2.42 1.46-5.28zM723.492 227.632c-1.2-.228-2.332-.944-3.39-2.145h-2.49c-.63.887-1.745 1.688-3.347 2.403l-.386-.858c1.057-.344 1.944-.86 2.66-1.545h-2.318v-.687h2.833l.343-.515h-1.717v-2.92h1.246v-.77h-2.747v-.688h2.746v-.815h.687c.228.028.243.114.042.257v.557h2.318v-.815h.687c.23.028.243.114.043.257v.557h2.746v.687h-2.747v.772h1.244v2.92h-3.605l-.343.514h5.492v.687h-2.274c.486.572 1.33 1.015 2.532 1.33l-.258.815zm-2.532-1.073v.686h-1.76v.816h3.69v.686h-8.11v-.686h3.69v-.816h-1.76v-.687h1.76v-.86h.688c.228.03.243.116.042.26v.6zm-3.305-5.966v.772h2.318v-.772zm-1.244 2.49v.686h4.808v-.687zm0-1.203v.688h4.808v-.687zM727.183 225.53l1.073-.387.215.558c.66-.428 1.145-.93 1.46-1.5h-1.717v-.816h6.48v.815h-3.905c-.114.228-.228.414-.343.557h3.992l-.258 3.133c-.058.658-.344.987-.86.987h-1.03l-.128-.815h.815c.2 0 .315-.1.344-.3l.215-2.19h-.472c-.515 1.946-1.96 3.12-4.335 3.52l-.257-.816c2.032-.372 3.277-1.273 3.735-2.704h-.73c-.515 1.23-1.473 1.975-2.875 2.232l-.258-.687c1.145-.286 1.903-.8 2.275-1.545h-.644c-.6.544-1.073.902-1.416 1.073l-.344-.643-2.704 1.073c-.03.2-.1.243-.215.128l-.343-.944 1.373-.387v-3.262h-1.33v-.814h1.33v-2.447h.815c.23.028.244.114.043.257v2.19h1.288v.814h-1.287zm1.89-2.662v-3.476h4.505v3.476zm.857-2.017h2.79v-.77h-2.79zm0 1.332h2.79v-.644h-2.79z" style="-inkscape-font-specification:MS Gothic"/></g><path transform="matrix(.75193 0 0 .86204 221.17 496.038)" style="-inkscape-font-specification:Calibri" d="M617.92-73.417c0 .73-.68 1.322-1.517 1.322-.838 0-1.517-.592-1.517-1.322 0-.73.68-1.323 1.517-1.323.837 0 1.517.592 1.517 1.323z" font-size="20" fill="#303030" stroke="#303030" stroke-width="1.815" stroke-linejoin="round" font-family="Calibri"/><path transform="matrix(.75193 0 0 .86204 225.285 503.162)" style="-inkscape-font-specification:Calibri" d="M617.92-73.417c0 .73-.68 1.322-1.517 1.322-.838 0-1.517-.592-1.517-1.322 0-.73.68-1.323 1.517-1.323.837 0 1.517.592 1.517 1.323z" font-size="20" fill="#303030" stroke="#303030" stroke-width="1.815" stroke-linejoin="round" font-family="Calibri"/><path transform="matrix(.75193 0 0 .86204 217.053 503.162)" style="-inkscape-font-specification:Calibri" d="M617.92-73.417c0 .73-.68 1.322-1.517 1.322-.838 0-1.517-.592-1.517-1.322 0-.73.68-1.323 1.517-1.323.837 0 1.517.592 1.517 1.323z" font-size="20" fill="#303030" stroke="#303030" stroke-width="1.815" stroke-linejoin="round" font-family="Calibri"/><g font-size="20" fill="#303030" font-family="MS Gothic"><path d="M664.017 449.776c-.402.69-.833 1.308-1.293 1.854.23.172.445.388.646.646.46-.603.848-1.192 1.164-1.767l.647.43c.144.144.116.216-.085.216-.49.804-1.12 1.638-1.897 2.5l1.336-.13-.3-.474.473-.43c.488.488.847 1.005 1.077 1.55l-.646.475-.26-.474-.904.13v4.784h-.862v-4.7l-1.466.217c-.028.2-.1.244-.215.13l-.3-.95 1.077-.085c.258-.26.46-.504.603-.734-.488-.49-.977-.905-1.465-1.25l.43-.733.302.173c.604-.72 1.064-1.408 1.38-2.07l.646.475c.144.144.115.216-.086.216zm3.664 3.362c-.344-.43-.66-.905-.947-1.422-.26.488-.59.948-.992 1.38l-.473-.604c.862-1.006 1.408-2.127 1.638-3.362l.82.172c.114.115.07.187-.13.216l-.216.69h2.11l.13-.173.604.474c.2.2.172.286-.086.258-.288.89-.747 1.695-1.38 2.413.546.547 1.322 1.007 2.328 1.38l-.43.863c-1.15-.546-1.97-1.106-2.458-1.68-.603.66-1.408 1.292-2.414 1.895l-.474-.82c.92-.458 1.71-1.02 2.37-1.68zm-1.077 3.707c1.207.2 2.428.604 3.664 1.207l-.388.905c-1.007-.517-2.2-.934-3.58-1.25l.303-.862zm.82-1.853c.832.172 1.623.46 2.37.862l-.388.862c-.604-.402-1.38-.733-2.328-.99zm-4.828.517c.172.085.158.157-.043.215-.087.948-.23 1.752-.43 2.413l-.734-.344c.23-.863.36-1.682.388-2.457l.82.172zm2.37-.346c.345.604.575 1.308.69 2.112l-.776.26c-.116-.72-.317-1.41-.604-2.07zm3.233-2.586c.517-.575.848-1.135.99-1.68h-1.98c.2.63.53 1.192.99 1.68zM681.517 458.268c-1.868-1.092-3.175-2.184-3.922-3.276v3.965h-.862v-3.836c-.748 1.15-2.055 2.214-3.923 3.19l-.517-1.034c1.667-.632 3.06-1.68 4.18-3.146h-3.103v-.95h3.363v-1.507h-4.182v-.948h4.183v-1.466h.818c.23.028.246.114.045.258v1.207h4.18v.948h-4.18v1.508h3.362v.95h-3.018c1.12 1.437 2.514 2.457 4.18 3.06l-.603 1.078zM688.586 452.018c-.49 2.873-1.078 4.655-1.767 5.344-.375.374-.763.56-1.165.56-.46 0-.82-.128-1.078-.387-.69-.69-1.034-1.552-1.034-2.586 0-1.266.445-2.343 1.336-3.234.976-.977 2.17-1.466 3.577-1.466 1.264 0 2.255.36 2.974 1.078.805.805 1.208 1.753 1.208 2.845 0 1.178-.374 2.14-1.12 2.888-.49.49-1.237.963-2.242 1.423l-.906-.905c1.006-.316 1.796-.76 2.37-1.336.547-.546.82-1.207.82-1.983 0-.92-.302-1.682-.905-2.285-.604-.604-1.552-.877-2.845-.82l.776.39c.345.142.345.3 0 .473zm-.99-.82c-.75.173-1.395.532-1.94 1.078-.748.747-1.122 1.667-1.122 2.76 0 .66.216 1.206.647 1.637.087.086.216.13.39.13.17 0 .358-.1.56-.303.66-.66 1.148-2.428 1.465-5.3zM700.74 449.475c.806.948 1.725 1.652 2.76 2.112l-.474.82c-.95-.346-1.91-1.15-2.888-2.415zm-5.86 2.456c1.034-.746 1.867-1.565 2.5-2.455l.69.517c.17.143.114.244-.174.302-.603.89-1.393 1.68-2.37 2.37zm-.604 3.19c2.155-.89 3.678-2.326 4.57-4.31l.818.26c.2.057.158.172-.13.344 1.092 1.61 2.558 2.773 4.397 3.492l-.56.905c-.546-.258-1.02-.53-1.422-.818v3.793h-.862v-.388h-3.75v.474h-.862v-3.835c-.46.345-1.02.66-1.68.948zm4.827-3.06c-.546 1.064-1.38 2.012-2.5 2.846h5.216c-1.208-.805-2.113-1.753-2.717-2.845zm-1.767 5.518h3.75v-1.853h-3.75z" style="-inkscape-font-specification:MS Gothic"/></g><path d="M1171.814 324.41c-.345.06-.556.505-.47.993.04.224.135.417.26.556.023.197.06.362.06.575-.565.232-1.036.674-1.377 1.253-.102.05-.216.086-.36.09-3.543-.052-5.696 1.96-5.646 2.185.01.04.09.033.173.015 1.02-.23 1.783-.265 2.293-.282 1.182-.065 1.22-.152 2.05-.41.358-.112.675-.215.998-.305-.136.638-.15 1.343-.022 2.067.11.626.317 1.202.594 1.704-.333.073-.634.177-.822.36-.854.843-.712 2.316-.598 2.295.112.005.866-1.147 1.3-1.544.156-.125.39-.227.662-.323.612.714 1.392 1.155 2.202 1.194.48 1.427 1.063 3.995 1.228 3.89.19.042-.142-2.57-.178-4.074.748-.314 1.33-.995 1.66-1.875.29-.002.544.014.734.08.543.223 1.646 1.05 1.75 1.005.113-.02-.257-1.452-1.347-1.95-.24-.11-.558-.105-.896-.058.09-.567.088-1.18-.022-1.805-.127-.724-.384-1.38-.73-1.934.336-.025.668-.037 1.044-.056.868-.04.933.03 2.065-.314.486-.16 1.214-.387 2.252-.52.084-.01.16-.032.155-.072-.03-.23-2.74-1.383-6.052-.122-.137.045-.257.05-.37.038-.518-.427-1.112-.68-1.722-.706-.07-.2-.093-.368-.14-.562.07-.173.094-.387.054-.612-.086-.488-.435-.834-.78-.773z" fill="#a7cc95" stroke="gray" stroke-width=".163" stroke-linecap="round" stroke-linejoin="round"/><path d="M1172.18 326.496l.06-.412.01.46.053-.46.01.4s.114-.457.123-.41c.01.047-.063.4-.063.4l.135-.4-.05.41.07-.365.074.35-.183-.284.253.272-.082-.326v.34l.11-.335v.29l.13-.3-.028.32.165-.31-.048.35.1-.322-.06.35.2-.314-.127.315.225-.307-.09.32.17-.273-.09.307.23-.283-.14.315M1173.667 326.784l.257-.327-.223.402.276-.372-.19.35s.326-.338.31-.294c-.016.045-.255.315-.255.315l.32-.28-.248.33.242-.28-.112.34-.016-.337.084.362.093-.323-.17.295.263-.235-.144.253.263-.197-.185.264.296-.185-.215.278.25-.228-.228.274.33-.172-.267.208.35-.153-.238.232.284-.15-.232.22.34-.13-.278.203M1174.62 327.53l.354-.218-.348.302.386-.255-.3.263s.424-.207.393-.17c-.03.037-.347.21-.347.21l.394-.155-.345.226.324-.18-.22.28.098-.322-.044.37.197-.272-.26.218.328-.13-.22.188.313-.095-.263.185.342-.072-.3.187.313-.13-.307.18.37-.048-.323.104.38-.025-.302.138.32-.045-.295.128.365-.005-.332.097M1175.337 328.566l.387-.155-.395.238.423-.183-.34.208s.452-.13.416-.1c-.038.03-.38.145-.38.145l.416-.082-.38.162.35-.122-.267.24.153-.3-.108.355.242-.233-.295.17.346-.072-.25.148.325-.04-.292.136.35-.013-.326.133.33-.073-.334.124.372.016-.335.047.378.042-.32.082.32.01-.312.076.36.057-.342.038" fill="none" stroke="gray" stroke-width=".054" stroke-linecap="round" stroke-linejoin="round"/><path d="M1173.303 326.664l.196-.367-.15.435.206-.413-.127.378s.262-.39.254-.344c-.01.047-.196.354-.196.354l.264-.33-.186.368.19-.32-.05.357-.076-.33.146.342.035-.334-.116.32.22-.276-.098.274.225-.24-.136.292.26-.234-.164.312.205-.268-.176.31.294-.228-.227.25.317-.21-.193.27.254-.2-.19.26.312-.19-.24.25M1173.64 334.63l.197.368-.15-.435.207.413-.128-.378s.263.39.255.343c-.01-.046-.195-.353-.195-.353l.265.33-.187-.368.19.318-.05-.356-.077.33.147-.342.035.334-.117-.32.22.278-.097-.275.224.24-.136-.292.26.234-.164-.312.205.267-.175-.31.296.228-.226-.25.317.21-.193-.27.254.2-.19-.26.312.19-.238-.25M1174.937 333.853l.354.22-.346-.303.385.255-.3-.264s.423.208.393.17c-.03-.036-.347-.208-.347-.208l.394.154-.346-.226.324.18-.22-.28.098.322-.044-.37.197.272-.262-.218.328.13-.22-.188.313.095-.265-.184.342.07-.298-.186.31.13-.307-.18.37.048-.322-.104.38.025-.302-.137.32.045-.295-.127.364.006-.33-.098M1175.577 332.824l.408.086-.43-.165.45.107-.372-.146s.468.05.427.026c-.042-.024-.398-.077-.398-.077l.423.01-.4-.095.365.06-.305-.19.204.27-.17-.333.28.19-.32-.117.352.01-.272-.102.328-.018-.31-.083.344-.048-.344-.076.337.015-.35-.065.364-.08-.34.012.367-.107-.33-.025.314-.067-.32-.02.345-.118-.344.023M1175.898 331.607l.416.013-.452-.088.46.028-.39-.08s.47-.032.425-.048c-.045-.016-.405-.007-.405-.007l.418-.064-.412-.022.37-.005-.332-.134.248.23-.223-.298.307.137-.335-.06.35-.05-.286-.054.32-.074-.32-.028.33-.108-.35-.014.333-.044-.356-.002.344-.142-.33.07.34-.168-.33.033.3-.122-.32.037.32-.177-.336.082" fill="none" stroke="gray" stroke-width=".054" stroke-linecap="round" stroke-linejoin="round"/><path d="M1174.636 334.09l.31.278-.29-.358.336.317-.25-.312s.382.278.358.236c-.024-.04-.305-.265-.305-.265l.362.22-.3-.282.286.234-.17-.316.043.336.02-.37.148.3-.22-.26.3.186-.184-.225.293.15-.228-.23.324.132-.262-.237.285.18-.272-.23.357.113-.3-.16.37.092-.273-.187.306.1-.268-.177.358.07-.31-.153M1176.027 330.547l.395-.13-.454.07.443-.13-.394.06s.43-.192.383-.192c-.05 0-.384.132-.384.132l.37-.204-.394.12.347-.132-.36-.01.31.13-.31-.202.335.024-.335.06.31-.168-.286.048.275-.18-.312.084.275-.215-.335.108.3-.155-.336.12.275-.252-.287.18.263-.274-.3.143.24-.216-.287.143.24-.275-.288.192M1172.2 326.517l-.197-.367.15.435-.206-.413.127.38s-.263-.392-.255-.345c.01.047.195.354.195.354l-.265-.33.187.37-.19-.32.05.356.077-.33-.146.342-.035-.334.117.32-.22-.278.098.275-.225-.24.137.293-.26-.234.164.31-.205-.267.175.31-.295-.228.226.25-.316-.21.193.27-.254-.2.19.26-.312-.19.238.25M1170.903 327.296l-.354-.22.346.302-.385-.254.3.264s-.423-.207-.392-.17c.03.036.347.208.347.208l-.395-.153.346.225-.324-.18.222.282-.1-.323.045.37-.198-.273.26.218-.327-.13.22.19-.314-.097.266.185-.342-.073.298.188-.312-.13.307.18-.37-.05.323.106-.38-.024.302.137-.32-.045.296.127-.365-.006.33.096M1170.263 328.324l-.408-.086.43.166-.45-.108.373.146s-.47-.05-.428-.026c.04.024.398.078.398.078l-.423-.01.402.095-.367-.06.305.19-.203-.27.167.33-.28-.187.32.115-.352-.01.273.102-.327.018.31.083-.345.05.344.074-.337-.015.35.063-.364.08.34-.012-.366.108.33.025-.314.067.32.02-.345.118.345-.022M1169.943 329.54l-.417-.012.452.088-.46-.028.39.08s-.47.032-.425.048c.045.017.405.007.405.007l-.418.064.412.023-.37.005.332.134-.247-.23.223.297-.307-.138.335.058-.35.05.287.054-.32.075.32.027-.332.11.352.012-.334.044.357.002-.345.142.33-.07-.34.168.33-.033-.298.12.32-.037-.32.177.335-.082" fill="none" stroke="gray" stroke-width=".054" stroke-linecap="round" stroke-linejoin="round"/><path d="M1171.204 327.06l-.31-.28.29.36-.336-.32.25.313s-.382-.277-.358-.236c.024.042.305.266.305.266l-.36-.22.3.283-.288-.235.17.318-.043-.335-.02.37-.147-.3.22.26-.302-.187.185.225-.293-.148.228.228-.324-.13.262.236-.284-.182.27.23-.354-.112.3.16-.37-.092.273.188-.307-.1.268.177-.358-.07.31.153M1173.612 334.66l-.06.413-.01-.46-.052.458-.01-.398s-.114.458-.122.41c-.01-.047.063-.4.063-.4l-.135.4.05-.41-.07.366-.074-.35.184.282-.254-.27.082.325v-.34l-.11.335v-.29l-.13.3.03-.32-.165.31.048-.35-.102.322.06-.35-.2.313.128-.314-.225.308.09-.32-.17.274.09-.308-.23.284.14-.316M1172.127 334.372l-.258.328.222-.403-.275.37.19-.35s-.326.34-.31.295c.016-.045.255-.315.255-.315l-.318.28.248-.33-.243.28.11-.34.018.336-.085-.362-.092.324.172-.294-.264.235.143-.254-.262.2.185-.265-.296.185.215-.278-.248.228.227-.274-.33.173.268-.21-.35.153.238-.232-.284.153.233-.22-.34.13.278-.205M1171.174 333.625l-.354.22.347-.302-.385.254.3-.264s-.424.207-.394.17c.03-.036.347-.208.347-.208l-.394.153.346-.225-.323.18.22-.282-.098.324.044-.37-.198.273.26-.218-.327.13.22-.19-.313.096.264-.185-.342.074.298-.188-.31.13.306-.18-.37.05.322-.106-.38.025.303-.137-.32.045.295-.128-.364.006.33-.095M1170.456 332.59l-.387.156.394-.238-.424.184.34-.208s-.452.13-.415.1c.037-.03.378-.146.378-.146l-.415.083.38-.16-.35.12.266-.24-.154.302.108-.356-.242.234.296-.17-.346.072.25-.148-.326.04.292-.137-.35.012.327-.134-.33.074.333-.124-.372-.016.336-.047-.378-.04.32-.084-.32-.012.312-.075-.36-.057.343-.037" fill="none" stroke="gray" stroke-width=".054" stroke-linecap="round" stroke-linejoin="round"/><path d="M1172.49 334.492l-.196.368.15-.436-.207.413.128-.378s-.264.39-.255.343c.01-.047.196-.354.196-.354l-.265.33.187-.37-.19.32.05-.356.077.33-.146-.343-.035.335.117-.32-.22.278.098-.274-.224.238.136-.29-.26.232.165-.31-.206.267.175-.31-.295.228.227-.252-.317.212.193-.27-.253.198.19-.258-.312.188.24-.25M1169.972 331.638l-.416.014.452-.088-.462.027.392-.077s-.47-.033-.425-.05c.045-.016.405-.006.405-.006l-.42-.065.413-.022-.37-.005.334-.134-.248.23.223-.297-.308.137.336-.058-.35-.05.286-.054-.32-.075.32-.027-.33-.11.35-.012-.334-.044.356-.002-.345-.142.333.07-.342-.168.33.032-.297-.12.32.037-.32-.177.335.08M1173.543 334.712l.117.32-.04-.358.11.345-.054-.38M1172.05 326.166l.116.32-.04-.358.11.345-.055-.38" fill="none" stroke="gray" stroke-width=".054" stroke-linecap="round" stroke-linejoin="round"/><path style="-inkscape-font-specification:MS Gothic" d="M1156.39 347.5h5.855v6.177h-10.186v1.043h13.473v1.283h-13.474v1.043h13.233l-.482 4.652c-.16 1.657-.828 2.486-2.004 2.486h-2.406l-.24-1.764h-9.946v.882h-1.604v-4.33h1.524c.427.052.454.213.08.48v1.684h3.61v-2.807h-3.37V347.5h4.25l.803-1.923 1.845.32c.214.214.134.348-.24.4zm-.963 10.83v2.806h3.61v-2.085h1.523c.428.055.455.215.08.482v2.888h1.524c.535 0 .83-.24.882-.722l.4-3.37zm-3.368-5.936h8.58v-1.123h-8.58zm0-2.406h8.58v-1.203h-8.58zM1174.275 347.662c-.32.428-.802.936-1.443 1.524h4.41l1.364-1.524h-4.33zm9.224 6.737h-5.535v1.282h6.657v5.535h-6.657v.802c0 .373.187.56.56.56h4.974c.587 0 .935-.187 1.042-.56l.24-.723 1.605.48c-.214 1.39-.91 2.086-2.086 2.086h-6.495c-.963 0-1.444-.48-1.444-1.443v-1.203h-5.052v.802h-1.604v-6.338h6.657V354.4h-5.213v-3.85c-.855.694-1.737 1.23-2.646 1.603l-.56-1.443c2.673-1.284 4.678-2.995 6.015-5.133l1.443.32c.214.214.134.348-.24.4l-.32.402h4.49l.562-.562 1.283.802c.16.107.027.214-.4.32l-1.846 1.926h4.572zm-5.535 4.41v1.444h5.053v-1.444zm0-2.165v1.203h5.053v-1.203zm-1.604 3.61v-1.445h-5.052v1.444zm-5.052-2.407h5.053v-1.203h-5.052zm6.657-5.614v1.203h3.93v-1.203zm0-2.086v1.123h3.93v-1.122zm-5.213 2.086v1.203h3.61v-1.203zm0-2.086v1.123h3.61v-1.122z" font-size="20" fill="#303030" font-family="MS Gothic"/><path d="M1122.738 297.433c8.608-3.444 21.08-3.787 23.53-3 2.304.742 2.7 1.812 2.266 3.01-1.51 3.84-4.788 11.262-6.08 11.17-.306-.023-.872.423-2.237-.634-.674-1.11-1.114-1.762-1.756-2.417-.64-1.123.15-.97.774-.966l2.57.186c3.222-2.866 4.303-7.186 2.913-7.85-2.045-.938-8.473.19-17.203 2.403-.544.286-5.943-.275-4.776-1.903z" fill="#303030"/><path d="M1133.972 297.008c-.052 4.905-2.833 8.986-6.98 11.397-.93.2.042.517.923.214 5.86-2.527 8.342-4.86 9.792-11.89l-3.735.278z" fill="#303030"/><path d="M1127.868 302.784c-.087.037-.135-.317.18-.452 5.114-2.533 9.453.265 9.548 1.747.144.237-.136 2.008-1.647 1.154-2.23-1.425-5.51-1.797-8.082-2.45zM1125.74 314.606c-.894 2.226-1.53 4.132-1.753 6.513.047.573-.4 1.17.465 1.388.198.097.38.595-.236 1.08-1.828 1.435-3.892 1.58-3.796-.617.14-3.42 2.02-6.788 4.79-8.748.4-.353.684-.108.53.384zM1144.258 312.542c-1.38.058-.747.46-.257.544 1.296.444 2.233 1.07 3.21 1.966.167.168.337.316.426 1.072.402 1.78 2.126 2.288 3.433.192.655-2.393-.76-3.576-6.812-3.774zM1138.104 313.14c-.382-.573-1.198-.566-1.17.496.052 1.988-.07 4.174 1.5 4.456 1.868-.104 3.127.64 3.89-.682.24-.43.32-1.75-2.187-2.65-.654-.403-1.1-.396-2.033-1.62z" fill="#303030"/><path d="M1146.362 319.495c1.583 3.117-5.664 3.372-13.09-.558-1.602-1.26-2.648-2.808-3.43-4.492-.804-.984-1.276-.333-1.274.454-.253 4.002.662 6.82 11.98 9.244 5.678 1.215 7.734 1.158 9.31-1.96.413-1.58-1.25-2.335-3.496-2.69z" fill="#303030"/><path d="M1497.434 879.654H2.567V2.567h1494.867v877.087z" fill="none" stroke="#000" stroke-width="5.133" overflow="visible"/><path transform="matrix(1.04168 0 0 1.13097 443.09 47.952)" d="M147.462 478.414c0 2.94-2.587 5.32-5.777 5.32s-5.777-2.38-5.777-5.32c0-2.938 2.586-5.32 5.777-5.32 3.19 0 5.777 2.382 5.777 5.32z" fill="url(#E)" stroke="#303030" stroke-width="2.838" stroke-linecap="round" stroke-linejoin="round" overflow="visible"/><path style="-inkscape-font-specification:MS Gothic" d="M545.442 607.56h-3.048v-1.524h3.048v-3.45h-.802c-.428 1.017-.936 1.926-1.524 2.728l-1.042-1.283c1.122-1.496 1.87-3.42 2.245-5.774l1.684.4c.214.215.133.35-.24.402-.16.695-.35 1.363-.562 2.005h3.85v1.524h-2.006v3.45h3.048v1.523h-3.048v1.764c1.337 1.23 2.326 2.38 2.968 3.45l-1.203 1.282c-.587-.962-1.282-1.95-2.084-2.967-.482 2.19-1.605 4.036-3.37 5.533l-.962-1.524c2.086-1.765 3.102-3.984 3.048-6.658zm11.39 6.737h3.69v1.524H548.33v-1.523h6.978l.882-4.25 1.844.32c.214.214.134.348-.24.4zm2.967-12.753h-10.027v-1.524H559.8zm-7.7 8.342h-1.364v-6.016h7.78v5.855h-1.364v-.4H552.1zm5.052-4.732H552.1v2.887h5.052zm-4.09 5.293c.534.695.935 1.63 1.203 2.807l-1.524.562c-.373-1.23-.748-2.192-1.122-2.888zM580.893 606.357v1.524h-2.005v6.898c0 .75-.348 1.123-1.043 1.123h-1.684l-.24-1.523h1.043c.214 0 .32-.107.32-.32v-6.176h-2.806v7.86h-1.604v-7.86h-2.567v7.86h-1.604v-7.86h-2.567v8.262h-1.604v-8.26h-2.004v-1.525h2.005v-6.818h14.358v6.817zm-3.61 0v-5.294h-2.806v5.294zm-4.41 0v-5.294h-2.567v5.294zm-4.17 0v-5.294h-2.568v5.294zM595.73 605.073v1.524h-7.458v-1.524h2.968v-2.245h-2.487v-1.524h2.487v-2.567h1.524c.427.054.454.214.08.48v2.087h2.566v1.524h-2.566v2.245zm-2.886 7.94c1.016-.106 2.22-.293 3.61-.56l.08 1.523-7.62 1.444c-.428.428-.642.454-.642.08l-.48-1.925c1.015-.053 2.164-.16 3.448-.32v-2.647h-2.647v-1.524h2.647v-1.925h1.524c.427.052.454.213.08.48v1.444h2.807v1.524h-2.806zm-9.946-5.132c1.765-1.283 3.208-3.074 4.33-5.373l1.365.962c.267.213.214.374-.16.48-.482.696-.936 1.364-1.364 2.006v10.747h-1.605v-8.822c-.48.535-.99 1.017-1.524 1.444zm13.555 7.14h1.283c.214 0 .32-.108.32-.322v-8.742h-1.603v-1.524h5.053v1.524h-1.845v9.304c0 .855-.427 1.283-1.282 1.283h-1.684zm4.49-15.48v1.523h-4.49v-1.524zm-17.804 3.448c1.39-1.23 2.592-2.727 3.608-4.49l1.524.96c.214.268.134.402-.24.402-1.177 1.658-2.407 3.128-3.69 4.41z" font-size="20" fill="#303030" font-family="MS Gothic"/><g font-size="20" fill="#303030" font-family="MS Gothic"><path d="M466.06 436.94c-.373.43-.847.818-1.42 1.163l-.39-.862c1.265-.69 2.314-1.838 3.147-3.447h-2.845v-.82h1.51v-1.94h.818c.23.03.244.116.043.26v1.68h.733l.215-.215.734.604c.172.143.13.23-.13.258-.545 1.006-1.034 1.768-1.465 2.285.603.172 1.134.402 1.594.69l-.43.948c-.375-.345-.79-.618-1.25-.82v4.31h-.863v-4.094zm6.94.43v-1.422h-1.206v1.422zm-2.068-1.422h-1.207v1.422h1.207zm2.07-.82v-1.378h-1.208v1.38zm-2.07 0v-1.378h-1.207v1.38zm0-3.878h.82c.23.028.243.115.042.258v1.423h2.07v5.56H473v-.3h-1.206v2.844h-.862v-2.845h-1.207v.387h-.862v-5.646h2.07zM484.164 440.646c-.43-.632-.962-1.293-1.594-1.983l.69-.474c.545.43 1.106 1.048 1.68 1.853zm-6.293-8.276h6.596v.82h-.905v1.508h1.51v.82h-1.51v1.508h1.38v.818h-9.267v-.818h1.68v-1.51h-1.81v-.818h1.81v-1.466c-.4.575-.79.977-1.163 1.207l-.517-.733c.833-.66 1.45-1.523 1.854-2.587l.862.26c.114.114.07.186-.13.214zm3.45 8.276c-.23-.92-.446-1.652-.647-2.198l.862-.26c.23.547.474 1.266.733 2.156zm-3.362-2.07c.114.116.07.188-.13.217-.488.89-.962 1.566-1.422 2.026l-.69-.605c.604-.69 1.078-1.38 1.423-2.07zm3.836-5.387v1.508h.905v-1.51zm-1.81 0v1.508h.948v-1.51zm-1.768 1.508h.905v-1.51h-.904zm3.578 2.328h.905v-1.51h-.906zm-1.81-1.51v1.51h.948v-1.51zm-1.768 0v1.51h.905v-1.51zm1.38 2.76c.172.833.244 1.652.215 2.456l-.947.087c0-.892-.058-1.726-.173-2.5zM496.277 439.094l-.173.776c-.115.546-.402.82-.862.82h-2.93c-.46 0-.69-.245-.69-.733v-3.966h.818c.23.03.245.116.043.26v1.293c.805-.2 1.74-.532 2.802-.992l.604.82c.142.26.056.316-.26.173-1.092.287-2.14.546-3.147.776v1.25c0 .2.1.3.302.3h1.94c.316 0 .503-.13.56-.388l.13-.603zm-9.354 1.725c-.03.2-.1.243-.215.128l-.26-.99 1.122-.088v-3.88h.82c.228.03.243.116.042.26v.948h2.844v.82h-2.844v1.723l2.8-.3v.732l-4.31.647zm4.785-8.58v.992h2.586v-.99zm-4.31-.69h7.758v4.053h-7.76zm4.31 2.372v.99h2.586v-.99zm-3.45 0v.99h2.587v-.99zm0-1.68v.99h2.587v-.99zM506.363 431.724c.23.316.13.402-.302.258-.574.087-1.206.158-1.896.216l-.3.69h3.275v.69h-1.77c.404.488 1.093.948 2.07 1.38l-.388.688c-.43-.143-.833-.373-1.207-.69v1.25h-3.577V435c-.345.316-.747.603-1.207.862l-.516-.647c1.034-.575 1.724-1.12 2.07-1.638h-1.51v-.69H503l.26-.603-1.854.086-.216-.69c1.552-.028 3.176-.2 4.87-.517l.303.56zm-9.31 6.25c.92-.977 1.508-2.313 1.767-4.01h-1.337v-.818h1.38v-2.026h.82c.23.03.243.115.042.26v1.766h1.034v.82h-1.035v1.378c.287.144.675.49 1.164 1.035l-.476.904c-.2-.287-.43-.575-.69-.862v4.57h-.86v-4.31c-.26.717-.634 1.378-1.122 1.98l-.69-.688zm6.25 1.896v.345h-.604v-2.155h2.758v1.81zm2.715.216c.115 0 .172-.058.172-.173v-2.456h-4.224v3.49h-.733v-4.18h5.69v3.448c0 .46-.187.69-.56.69h-.82l-.172-.82h.648zm-.905-5.216H503v.82h2.113zm-.26 3.707h-1.55v.776h1.55zm-.43-5h-.862c-.17.288-.358.546-.56.776h2.156z" style="-inkscape-font-specification:MS Gothic"/></g><g font-size="20" fill="#303030" font-family="MS Gothic"><path d="M479.838 473.79c-2.213-.668-3.77-1.978-4.673-3.93-.524 1.952-2.096 3.305-4.716 4.062l-.307-1.09c2.62-.67 4.047-1.98 4.28-3.932h-3.58v-.83h3.667v-2.183h-4.105v-.83h9.476v.83h-4.365v2.184h3.886v.83h-3.754c.757 1.95 2.285 3.203 4.585 3.756zM484.86 471.652l-2.926 1.048c-.03.203-.102.247-.22.13l-.348-1.004 1.354-.393v-3.537h-1.267v-.83h1.267v-2.445h.83c.232.03.247.117.043.263v2.183h1.136v.83h-1.137v3.32l1.267-.438zm4.803 1.266c.29 0 .48-.146.568-.437l.263-.916.96.306-.218.83c-.175.698-.597 1.048-1.266 1.048h-3.626c-.524 0-.786-.248-.786-.743v-4.148l-1.135.437-.262-.874 1.398-.48v-2.49h.83c.233.03.247.117.044.263v1.92l1.048-.392v-2.968h.83c.232.03.247.116.043.262v2.4l1.485-.566.087-.175.917.61-.175.132v3.32c0 .465-.232.698-.698.698h-.875l-.218-.83h.742c.116 0 .174-.058.174-.174v-2.622l-1.44.524v3.756h-.874v-3.45l-1.048.393v4.02c0 .232.1.348.305.348h2.926zM501.584 464.665c.233.32.13.407-.305.262-.583.087-1.224.16-1.923.218l-.305.7h3.318v.697h-1.79c.408.495 1.106.96 2.096 1.398l-.393.698c-.437-.145-.844-.378-1.223-.698v1.266h-3.624v-1.223c-.35.32-.757.612-1.223.874l-.524-.655c1.047-.582 1.746-1.136 2.095-1.66h-1.528v-.698h1.92l.263-.612-1.877.088-.22-.7c1.573-.028 3.218-.203 4.936-.523l.304.568zm-9.432 6.332c.932-.99 1.53-2.344 1.79-4.062h-1.353v-.83h1.396v-2.052h.83c.233.03.247.117.044.262v1.79h1.048v.83h-1.048v1.398c.29.145.684.495 1.18 1.048l-.482.918c-.204-.29-.436-.582-.698-.873v4.628h-.874v-4.366c-.262.727-.64 1.397-1.135 2.008l-.698-.698zm6.332 1.92v.35h-.61v-2.183h2.793v1.834zm2.75.22c.118 0 .176-.06.176-.175v-2.49h-4.28v3.538h-.742v-4.236h5.764v3.493c0 .466-.19.7-.568.7h-.83l-.174-.83h.655zm-.916-5.285h-2.14v.83h2.14zm-.262 3.756h-1.572v.786h1.572zm-.437-5.066h-.874c-.175.292-.364.554-.568.786h2.184z" style="-inkscape-font-specification:MS Gothic"/></g><path style="-inkscape-font-specification:MS Gothic" d="M505.51 677.735h-.964c0 1.988-1.068 3.172-3.202 3.552l-.263-.92c1.755-.235 2.618-1.112 2.588-2.632h-1.578v-.702h1.008v-1.403h-1.14v-.702h1.14v-1.14h.702c.234.03.25.116.044.263v.878h.92v-1.71h-2.236v-.702h2.237v-1.23h.702c.234.03.248.118.043.265v.966h2.37v.7h-2.37v1.712h.965v-1.14h.702c.234.03.25.116.044.263v.878h1.36v.702h-1.36v1.403h1.23v.702h-2.062v2.105c0 .205.13.307.394.307h.483c.292 0 .453-.146.482-.44.03-.174.044-.35.044-.525l.878.35c-.03.147-.088.41-.175.79-.117.44-.366.658-.746.658h-1.403c-.556 0-.834-.277-.834-.833zm-3.86 1.403h-2.104v.702h-.746v-7.675h2.85zm-2.104-3.86h1.36v-2.412h-1.36zm0 3.16h1.36v-2.458h-1.36zm4.298-1.405h2.63v-1.403h-2.63z" font-size="20" fill="#303030" font-family="MS Gothic"/><g font-size="20" fill="#303030" stroke="#303030" stroke-width="1.815" stroke-linejoin="round" font-family="Calibri"><path d="M617.92-73.417c0 .73-.68 1.322-1.517 1.322-.838 0-1.517-.592-1.517-1.322 0-.73.68-1.323 1.517-1.323.837 0 1.517.592 1.517 1.323z" style="-inkscape-font-specification:Calibri" transform="matrix(.75193 0 0 .86204 30.897 743.948)"/><path d="M617.92-73.417c0 .73-.68 1.322-1.517 1.322-.838 0-1.517-.592-1.517-1.322 0-.73.68-1.323 1.517-1.323.837 0 1.517.592 1.517 1.323z" style="-inkscape-font-specification:Calibri" transform="matrix(.75193 0 0 .86204 35.013 751.073)"/><path d="M617.92-73.417c0 .73-.68 1.322-1.517 1.322-.838 0-1.517-.592-1.517-1.322 0-.73.68-1.323 1.517-1.323.837 0 1.517.592 1.517 1.323z" style="-inkscape-font-specification:Calibri" transform="matrix(.75193 0 0 .86204 26.782 751.073)"/></g><path transform="matrix(.75193 0 0 .86204 -4.3 501.434)" style="-inkscape-font-specification:Calibri" d="M617.92-73.417c0 .73-.68 1.322-1.517 1.322-.838 0-1.517-.592-1.517-1.322 0-.73.68-1.323 1.517-1.323.837 0 1.517.592 1.517 1.323z" font-size="20" fill="#303030" stroke="#303030" stroke-width="1.815" stroke-linejoin="round" font-family="Calibri"/><path transform="matrix(.75193 0 0 .86204 -.185 508.56)" style="-inkscape-font-specification:Calibri" d="M617.92-73.417c0 .73-.68 1.322-1.517 1.322-.838 0-1.517-.592-1.517-1.322 0-.73.68-1.323 1.517-1.323.837 0 1.517.592 1.517 1.323z" font-size="20" fill="#303030" stroke="#303030" stroke-width="1.815" stroke-linejoin="round" font-family="Calibri"/><path transform="matrix(.75193 0 0 .86204 -8.417 508.56)" style="-inkscape-font-specification:Calibri" d="M617.92-73.417c0 .73-.68 1.322-1.517 1.322-.838 0-1.517-.592-1.517-1.322 0-.73.68-1.323 1.517-1.323.837 0 1.517.592 1.517 1.323z" font-size="20" fill="#303030" stroke="#303030" stroke-width="1.815" stroke-linejoin="round" font-family="Calibri"/><path transform="matrix(.75193 0 0 .86204 -3.655 536.47)" style="-inkscape-font-specification:Calibri" d="M617.92-73.417c0 .73-.68 1.322-1.517 1.322-.838 0-1.517-.592-1.517-1.322 0-.73.68-1.323 1.517-1.323.837 0 1.517.592 1.517 1.323z" font-size="20" fill="#303030" stroke="#303030" stroke-width="1.815" stroke-linejoin="round" font-family="Calibri"/><path transform="matrix(.75193 0 0 .86204 .46 543.596)" style="-inkscape-font-specification:Calibri" d="M617.92-73.417c0 .73-.68 1.322-1.517 1.322-.838 0-1.517-.592-1.517-1.322 0-.73.68-1.323 1.517-1.323.837 0 1.517.592 1.517 1.323z" font-size="20" fill="#303030" stroke="#303030" stroke-width="1.815" stroke-linejoin="round" font-family="Calibri"/><path transform="matrix(.75193 0 0 .86204 -7.77 543.596)" style="-inkscape-font-specification:Calibri" d="M617.92-73.417c0 .73-.68 1.322-1.517 1.322-.838 0-1.517-.592-1.517-1.322 0-.73.68-1.323 1.517-1.323.837 0 1.517.592 1.517 1.323z" font-size="20" fill="#303030" stroke="#303030" stroke-width="1.815" stroke-linejoin="round" font-family="Calibri"/><g stroke-width="3.756" fill="none" stroke="#303030"><path d="M141.126 556.854c0 4.94-4.264 8.947-9.524 8.947-5.26 0-9.524-4.005-9.524-8.946 0-4.94 4.264-8.946 9.524-8.946 5.26 0 9.524 4.005 9.524 8.946z" transform="matrix(.54292 0 0 .57794 757.784 -28.98)" stroke-width="4.079"/><path transform="matrix(.38324 0 0 .40796 778.798 50.47)" d="M141.126 556.854c0 4.94-4.264 8.947-9.524 8.947-5.26 0-9.524-4.005-9.524-8.946 0-4.94 4.264-8.946 9.524-8.946 5.26 0 9.524 4.005 9.524 8.946z" stroke-width="5.778"/><path d="M141.126 556.854c0 4.94-4.264 8.947-9.524 8.947-5.26 0-9.524-4.005-9.524-8.946 0-4.94 4.264-8.946 9.524-8.946 5.26 0 9.524 4.005 9.524 8.946z" transform="matrix(.38324 0 0 .40796 763.59 65.677)" stroke-width="5.778"/><path transform="matrix(.38324 0 0 .40796 794.006 65.677)" d="M141.126 556.854c0 4.94-4.264 8.947-9.524 8.947-5.26 0-9.524-4.005-9.524-8.946 0-4.94 4.264-8.946 9.524-8.946 5.26 0 9.524 4.005 9.524 8.946z" stroke-width="5.778"/><path d="M141.126 556.854c0 4.94-4.264 8.947-9.524 8.947-5.26 0-9.524-4.005-9.524-8.946 0-4.94 4.264-8.946 9.524-8.946 5.26 0 9.524 4.005 9.524 8.946z" transform="matrix(.38324 0 0 .40796 778.798 80.885)" stroke-width="5.778"/></g><path d="M815.23 444.507c3.59 2.418 1.625 4.81 0 6.918-1.622 2.108-3.588 4.5 0 6.92M822.965 444.507c3.588 2.418 1.623 4.81 0 6.918-1.624 2.108-3.59 4.5 0 6.92M830.698 444.507c3.59 2.418 1.623 4.81 0 6.918-1.623 2.108-3.59 4.5 0 6.92" fill="none" stroke="#303030" stroke-width="2.285" stroke-linejoin="round"/><path d="M-233.478-9.09a9.957 10.678 0 1 1-19.913 0 9.957 10.678 0 1 1 19.912 0z" transform="matrix(1.89396 0 0 1.29775 1284.02 463.223)" fill="none" stroke="#303030" stroke-width="1.457" stroke-linejoin="round"/><path d="M843.998 356.828c0 3.323-2.694 6.017-6.018 6.017-3.323 0-6.017-2.694-6.017-6.017 0-3.324 2.694-6.018 6.017-6.018 3.324 0 6.018 2.694 6.018 6.018z" fill="url(#F)" stroke="#303030" stroke-width="3.08" stroke-linecap="round" stroke-linejoin="round" overflow="visible"/><g fill="none" stroke-width="5.712" stroke-linecap="round" stroke-linejoin="round" stroke="#303030"><path d="M296.68 499.274c12.163 1.226 25.29-1.32 33.774.568M307.327 501.51c.67 5.042-8.592 17.576-14.588 20.974M304.278 530.834c-.47-5.412-.25-13.572-1.408-16.236 17.734.21 23.514-1.95 23.783.64.26 1.76-1.756 4.908-3.04 13.44M304.456 528.993c6.934-.326 13.49-.202 19.972.015" stroke-width="2.2848"/></g><g stroke="#303030" fill="none" stroke-width="5.712" stroke-linecap="round" stroke-linejoin="round"><path d="M539.776 683.29c.126 2.778-5.05 6.808-7.777 8.674M554.078 684.07c3.562 2.435 6.26 5.232 8.116 8.186M546.82 690.118c.38 4.613-11.127 13.565-18.435 16.79M546.46 692.286c5.57 5.635 15.21 14.67 19.64 15.78M535.71 707.592c1.318 1.12 1.47 8.95 2.033 13.413M537.74 719.64l15.974-.278" stroke-width="2.2848"/><path d="M536.357 708.272c11.813.057 17.822-1.068 19.062-.115 1.19 1.357-.215 1.862-2.526 11.086" stroke-width="2.2848"/></g><g fill="none" stroke-width="5.712" stroke-linecap="round" stroke-linejoin="round" stroke="#303030"><path d="M804.51 322.98c2.323.798 12.488-1.29 18.568-.522M813.45 323.708c1.052 1.102.134 3.572-.08 12.496M799.086 327.62c-.13 2.75-.555 5.267-.92 7.83" stroke-width="2.2848"/><path d="M799.185 328.874c4.83-.424 30.654-2.906 30.505-.477-.026.432-.492 1.38-2.194 2.91M805.633 330.884c1.333.436 2.206 1.132 3.072 1.83M804.86 334.468c1.333.436 2.304 1.248 3.17 1.948M818.69 329.925c1.333.436 2.507 1.37 3.373 2.07M819.068 334.127c1.332.435 2.107 1.015 2.973 1.714M804.343 338.473c1.104 1.12.06 6.657-.5 20.804M795.976 342.98c4.855 1.422 12.26-1.39 15.544-.64M796.434 353.808c2.773-2.75 5.978-6.087 8.268-10.764M805.728 346.133c1.738.494 3.12 2.3 4.526 4.02M814.963 340.306c.893 1.117-.046 6.373-.48 19.694M815.55 341.077c3.47-.07 10.12-1.186 10.543-.096.423 1.092.112 3.04-.523 18.51M815.293 346.132l10.905-.372M815.004 351.815c3.674-.185 7.296-.32 10.873-.41M814.72 358.09c3.672-.15 7.328-.267 10.898-.225" stroke-width="2.2848"/></g><g font-size="20" fill="#303030"><g stroke="#303030" stroke-width="1.815" stroke-linejoin="round" font-family="Calibri"><path d="M617.92-73.417c0 .73-.68 1.322-1.517 1.322-.838 0-1.517-.592-1.517-1.322 0-.73.68-1.323 1.517-1.323.837 0 1.517.592 1.517 1.323z" style="-inkscape-font-specification:Calibri" transform="matrix(.75193 0 0 .86204 182.515 854.008)"/><path d="M617.92-73.417c0 .73-.68 1.322-1.517 1.322-.838 0-1.517-.592-1.517-1.322 0-.73.68-1.323 1.517-1.323.837 0 1.517.592 1.517 1.323z" style="-inkscape-font-specification:Calibri" transform="matrix(.75193 0 0 .86204 186.63 861.132)"/><path d="M617.92-73.417c0 .73-.68 1.322-1.517 1.322-.838 0-1.517-.592-1.517-1.322 0-.73.68-1.323 1.517-1.323.837 0 1.517.592 1.517 1.323z" style="-inkscape-font-specification:Calibri" transform="matrix(.75193 0 0 .86204 178.4 861.132)"/></g><g style="-inkscape-font-specification:Calibri" font-family="MS Gothic"><path style="-inkscape-font-specification:MS Gothic" d="M635.805 807.368c.32.058.35.175.087.35v2.532c.728.233 1.485.553 2.27.96l-.523.83c-.642-.378-1.224-.654-1.748-.83-.087.612-.276 1.063-.567 1.355-.35.35-.83.524-1.44.524-.817 0-1.384-.16-1.705-.482-.29-.29-.436-.67-.436-1.135 0-.38.145-.713.436-1.004.38-.38.932-.57 1.66-.57.495 0 .888.045 1.18.132v-2.664zm-4.673-1.048c-.465.058-1.048.087-1.746.087l-.13-.917c.726 0 1.454-.03 2.182-.087.146-.524.32-1.223.524-2.096l.786.262c.29.115.29.232 0 .348l-.393 1.398c.495-.06 1.004-.16 1.53-.306l.217.917c-.815.175-1.485.277-2.01.306-.465 1.484-1.15 3.1-2.05 4.847l-.875-.437c.903-1.6 1.558-3.042 1.965-4.323zm4.193-1.31c.815.262 1.79.61 2.925 1.048l-.393.917c-1.222-.524-2.183-.888-2.882-1.092zm-.306 5.852c-.35-.117-.743-.175-1.18-.175-.466 0-.786.087-.96.262-.146.144-.22.32-.22.523 0 .204.06.364.175.48.175.175.48.262.918.262.407 0 .698-.087.873-.262.262-.262.393-.626.393-1.09zM646.242 812.084c.465-.058.858-.247 1.18-.567.348-.35.523-.816.523-1.398 0-.64-.19-1.15-.568-1.53-.38-.378-.975-.567-1.79-.567-.96 0-1.703.19-2.228.568-.495.35-1.136.976-1.922 1.88l-.742-.656c2.096-2.097 3.682-3.843 4.76-5.24-.96.116-1.922.218-2.883.305l-.305-1.005c1.426 0 2.693-.073 3.8-.22l.392-.173.48.48c.32.29.248.48-.218.568-.873.99-1.747 1.965-2.62 2.925.61-.145 1.12-.218 1.528-.218 1.106 0 1.922.262 2.446.786.524.524.786 1.194.786 2.01 0 .843-.233 1.498-.7 1.964-.698.7-1.586 1.048-2.663 1.048-1.02 0-1.762-.233-2.228-.7-.378-.377-.568-.828-.568-1.352 0-.35.13-.655.393-.917.292-.292.626-.437 1.005-.437.524 0 .96.174 1.31.523.407.407.684 1.048.83 1.92zm-.874.13c-.087-.756-.262-1.265-.524-1.527-.204-.204-.407-.306-.61-.306-.234 0-.41.06-.525.176-.147.145-.22.306-.22.48 0 .262.117.51.35.743.29.29.67.435 1.135.435h.393zM654.364 803.57h.917c.32.057.35.174.088.348l.088 2.096c.03.612.13 1.107.305 1.485.816-.35 1.908-.714 3.276-1.093l.437 1.136c-2.766.495-4.614 1.208-5.546 2.14-.32.32-.48.655-.48 1.004 0 .262.102.495.306.7.203.202.625.304 1.266.304h4.19v.962h-4.235c-.96 0-1.63-.19-2.01-.568-.377-.378-.566-.815-.566-1.31 0-.64.232-1.193.697-1.66.35-.35.932-.756 1.747-1.222-.174-.437-.276-.917-.305-1.44zM662.268 812.084c2.678-.93 4.09-2.722 4.236-5.37h-3.93v-.962h4.017v-2.314h.962c.29.058.305.175.043.35v1.964h4.192v.96h-4.104c.61 2.417 2.096 4.135 4.454 5.154l-.568 1.048c-2.04-.932-3.48-2.504-4.324-4.716-.495 2.387-2.023 4.032-4.585 4.934zM682.4 803.875c.232.32.13.407-.307.262-.582.087-1.223.16-1.92.218l-.307.7h3.32v.697h-1.792c.408.495 1.107.96 2.097 1.398l-.393.698c-.436-.145-.844-.378-1.222-.698v1.266h-3.625v-1.223c-.35.32-.757.612-1.222.874l-.524-.655c1.048-.582 1.746-1.136 2.096-1.66h-1.53v-.698h1.923l.262-.612-1.878.088-.218-.7c1.57-.028 3.216-.203 4.933-.523l.306.568zm-9.434 6.332c.932-.99 1.53-2.344 1.79-4.062h-1.353v-.83h1.398v-2.052h.83c.233.03.248.117.044.262v1.79h1.048v.83h-1.048v1.398c.29.145.684.495 1.18 1.048l-.48.918c-.205-.29-.438-.582-.7-.874v4.63h-.873v-4.368c-.26.728-.64 1.398-1.135 2.01l-.7-.7zm6.332 1.92v.35h-.61v-2.183h2.794v1.834zm2.75.22c.118 0 .176-.06.176-.175v-2.49h-4.28v3.538h-.742v-4.236h5.764v3.493c0 .466-.19.7-.567.7h-.83l-.176-.83h.655zm-.916-5.285h-2.14v.83h2.14zm-.262 3.756h-1.572v.786h1.572zm-.436-5.066h-.874c-.174.292-.364.554-.567.786h2.183z"/></g></g><g fill="#303030" font-family="MS Gothic"><path d="M676.537 794.62c3.753-1.298 6.803-3.127 9.15-5.487-2.58-3.068-4.4-6.49-5.455-10.265h-2.464v5.664c0 5.78-1.76 10.56-5.278 14.336l-2.464-3.54c2.816-2.124 4.223-5.723 4.223-10.796V764.71h10.908v-5.842h3.52c1.172.236 1.172.708 0 1.416v4.425h8.62l.353-.71 3.696 2.124c.47.59.235.944-.704 1.062l-2.815 6.195-3.343-1.77 1.408-3.54h-7.215v7.435h5.455l.352-.885 3.167 1.947c.47.472.294.826-.527 1.062-1.407 4.01-3.52 7.786-6.334 11.326 2.228 2.124 5.63 4.012 10.204 5.664l-1.407 4.07c-4.927-2.36-8.68-4.66-11.26-6.902-2.582 2.36-5.984 4.602-10.207 6.726l-1.583-3.894zm-14.956.53c2.7-3.775 4.81-7.67 6.335-11.68l3.167 1.946c-1.525 4.248-3.402 8.26-5.63 12.036.352 1.18.117 1.475-.704.885l-3.167-3.186zm7.92-26.725c-1.526-1.888-3.286-3.54-5.28-4.955l2.64-3.01c2.345 1.3 4.164 2.892 5.454 4.78l-2.815 3.185zm-4.928 2.655c2.11 1.298 3.988 2.95 5.63 4.956l-2.64 3.01c-1.64-1.89-3.46-3.54-5.453-4.957l2.462-3.01zm13.196 4.425h7.39v-7.434h-7.39v7.435zm5.983 3.363c.705 2.714 2.23 5.31 4.576 7.787 2.228-2.95 3.695-5.545 4.398-7.787h-8.973z" style="text-align:start;line-height:125%;-inkscape-font-specification:MS Gothic" font-size="48"/><text y="790.636" x="702.999" style="text-align:center;-inkscape-font-specification:MS Gothic" font-size="28.244" text-anchor="middle" stroke="#000" stroke-width=".706" stroke-linecap="round" stroke-linejoin="round" transform="translate(7.307 -13.7)"><tspan style="-inkscape-font-specification:Calibri Bold" y="790.636" x="702.999" font-weight="bold" stroke="none" font-family="Calibri">?</tspan></text></g></svg>
