<svg xmlns="http://www.w3.org/2000/svg" xmlns:xlink="http://www.w3.org/1999/xlink" width="500" height="650" version="1"><defs><linearGradient id="e"><stop offset="0" stop-color="#b3b3b3"/><stop offset="1" stop-color="#b3b3b3" stop-opacity="0"/></linearGradient><linearGradient id="d"><stop offset="0" stop-color="#999"/><stop offset="1" stop-color="#999" stop-opacity="0"/></linearGradient><linearGradient id="c"><stop offset="0" stop-color="#e6e6e6"/><stop offset="1" stop-color="#e6e6e6" stop-opacity="0"/></linearGradient><linearGradient id="b"><stop offset="0" stop-color="#ececec"/><stop offset="1" stop-color="#ececec" stop-opacity="0"/></linearGradient><linearGradient id="a"><stop offset="0" stop-color="#f2f2f2"/><stop offset="1" stop-color="#f2f2f2" stop-opacity="0"/></linearGradient><filter id="o"><feGaussianBlur stdDeviation=".375"/></filter><filter id="n" x="-.12" width="1.24" y="-.004" height="1.008"><feGaussianBlur stdDeviation=".375"/></filter><filter id="m"><feGaussianBlur stdDeviation=".375"/></filter><filter id="l" x="-.164" width="1.328" y="-.004" height="1.008"><feGaussianBlur stdDeviation=".375"/></filter><filter id="k"><feGaussianBlur stdDeviation=".375"/></filter><filter id="j"><feGaussianBlur stdDeviation=".375"/></filter><filter id="h"><feGaussianBlur stdDeviation=".375"/></filter><filter id="i"><feGaussianBlur stdDeviation=".375"/></filter><linearGradient xlink:href="#e" id="f" gradientUnits="userSpaceOnUse" x1="171.935" y1="441.312" x2="245.855" y2="441.312"/><linearGradient xlink:href="#e" id="g" gradientUnits="userSpaceOnUse" gradientTransform="translate(-.08 .016)" x1="390.451" y1="441.312" x2="315.29" y2="441.312"/><linearGradient xlink:href="#d" id="p" gradientUnits="userSpaceOnUse" x1="359.2" y1="121.33" x2="394.239" y2="150.563"/></defs><path d="M112.43 230.05v47.503c0 14.9.732 29.678.732 44.58v77.466c0 22.45-.57 44.867 1.462 67.234 2.75 30.24 18.053 42.685 29.963 66.504 2.904 5.807 4.385 25.173 4.385 31.425 0 5.368 30.58-12.385 35.08-13.885 28.462-9.488 51.205-2.345 76.004 13.154 14.378 8.986 29.992 3.514 45.31 6.578 12.825 2.565 18.96-.85 28.503-6.578 8.96-5.377 11.255-14.255 14.615-22.655 9.558-23.896 12.482-55.1 17.54-80.39 7.175-35.876 13.154-57.524 13.154-95.006 0-30.12-4.386-60.112-4.386-90.62v-53.35" fill="#f9f9f9" fill-rule="evenodd" stroke="#000"/><path d="M84.566 215.31c-3.912 65.73-11.102 148.98-11.102 214.82-36.324 95.606-46.6 78.094-61.39 110.27 1.293 6.457 12.28 15.375 16.81 19 9.475 7.58 30.187 9.247 42.387 15.347 9.91 4.954 13.365 12.112 18.272 21.924 21.66 41.34 43.49 29.988 80.39 38.735 7.395-49.236 8.404-97.438 1.46-146.81-2.334-68.752 2.414-179.213 4.666-247.183M435.948 200.844v40.004c0 12.513.306 26.36-1.46 38.733-21.854 72.657 17.575 118.398 35.078 181.974 1.797 8.984 14.75 27.662 16.95 36.468 1.713 6.847 1.147 8.67-2.19 15.347-3.936 7.867-8.732 9.773-16.81 18.27-30.117 46.933-82.875 28.63-98.653 77.122-4.21 12.326-23.716 11.122-35.042 12.267-6.216 1.553-1.325-16.492-2.378-22.813-.945-5.667-1.083-11.67-.427-17.413.117-1.026.26-2.044.427-3.05 1.678-10.073 3.654-19.433 3.654-29.963v-27.04c-6.03-83.342 5.988-219.574 1.648-264.31" fill="#f9f9f9" fill-rule="evenodd" stroke="#000"/><path d="M340.58 593.013c-.254-.253-9.37-.874-20.26-1.38-22.13-1.03-23.387-1.338-37.156-9.148-17.91-10.158-36.66-15.31-50.52-13.884-7.955.82-18.868 3.354-22.693 5.27-1.516.76-3.168 1.38-3.67 1.38-.502 0-1.236-9.074-1.63-20.166-.396-11.09-1.133-22.923-1.64-26.293-2.318-15.423-3.07-54.9-2.02-106.194 1.134-55.397 3.538-131.052 4.183-131.642.213-.195 17.848 6.288 39.19 14.408 21.34 8.12 39.957 14.762 41.37 14.763 5.978 0 40.278-12.987 65.404-24.767 7.058-3.31 13.146-6.016 13.53-6.016 1.214 0 .752 31.22-1.433 97.005-1.793 53.95-2.016 74.004-1.443 129.68.44 42.68.323 66.786-.333 68.488-.702 1.824-2.83 3.423-6.976 5.24-5.756 2.52-12.95 4.208-13.9 3.258z" opacity=".838" fill="url(#f)" transform="translate(-28.616 -22.752)"/><path d="M340.5 593.03c-.253-.254-9.37-.875-20.258-1.38-22.13-1.03-23.388-1.34-37.157-9.15-17.91-10.157-36.66-15.31-50.52-13.883-7.955.82-18.868 3.353-22.693 5.27-1.517.76-3.17 1.38-3.67 1.38-.503 0-1.237-9.075-1.632-20.167-.395-11.09-1.132-22.923-1.64-26.293-2.317-15.424-3.068-54.9-2.018-106.195 1.133-55.397 3.537-131.052 4.182-131.642.213-.195 17.848 6.288 39.19 14.408 21.34 8.12 39.957 14.763 41.37 14.763 5.978.002 40.278-12.986 65.404-24.766 7.058-3.31 13.146-6.016 13.53-6.016 1.214 0 .752 31.22-1.433 97.005-1.793 53.95-2.016 74.004-1.443 129.68.44 42.68.322 66.786-.334 68.488-.702 1.825-2.83 3.424-6.976 5.24-5.757 2.523-12.952 4.21-13.902 3.26z" opacity=".838" fill="url(#g)" transform="translate(-28.616 -22.752)"/><path d="M131.722 255.037v55.14c-2.36 17.764-11.74 43.873-25.527 56.16" fill="none" stroke="#000" filter="url(#h)" transform="translate(-28.616 -22.752)"/><path d="M162.466 299.003c-1.64 21.29-1.02 42.884-1.02 64.33 0 14.93-4.82 26.876-7.15 40.844-1.754 10.533-3.076 20.49-5.104 30.633-1.12 5.6-3.776 10.616-6.127 15.317" fill="none" stroke="#000" filter="url(#i)" transform="translate(-28.616 -22.752)"/><path d="M131.495 433.906c-3.382 16.91 2.825 38.09 8.17 54.12 8.45 25.35 16.528 49.396 28.59 73.518 4.72 9.44 11.716 15.213 14.295 25.528" transform="rotate(8.534 -9.95 385.51)" fill="none" stroke="#000" filter="url(#j)"/><path d="M114.246 472.526c7.657 15.313 7.148 36.897 7.148 54.118 0 10.564-2.226 18.84-6.127 28.59-2.827 7.07-2.042 16.906-2.042 24.508" fill="none" stroke="#000" filter="url(#k)" transform="translate(-28.616 -22.752)"/><path d="M388.02 267.29c-2.945 24.865 5.053 52.283-1.022 76.583-4.83 19.317 0 46.302 0 66.372 0 14.784 2.527 32.78-1.02 46.97-1.74 6.96 0 16.27 0 23.486" fill="none" stroke="#000" filter="url(#l)" transform="translate(-28.616 -22.752)"/><path d="M414.855 445.08c.827 29.6-13.56 85.186-13.56 107.1 0 23.033-4.598 53.104-10.212 75.56" fill="none" stroke="#000" filter="url(#m)" transform="translate(-28.616 -22.752)"/><path d="M424.78 270.354c0 44.75-1.88 91.32 3.063 135.807 3.45 31.05 3.063 61.66 3.063 92.92 0 6.693-.785 5.496-1.02 7.15" fill="none" stroke="#000" filter="url(#n)" transform="translate(-28.616 -22.752)"/><path d="M446.222 358.17v19.4c0 21.345 4.41 82.337 14.296 102.11 1.36 2.723 2.723 5.446 4.084 8.17 4.945 9.888 12.254 25.453 12.254 36.76 0 10.09 4.084 18.732 4.084 28.59v2.042" fill="none" stroke="#000" filter="url(#o)" transform="translate(-28.616 -22.752)"/><g transform="translate(-27.192 -26.173)"><path d="M36.958 217.386C153.652 111.81 271.195 35.346 271.56 35.32 463.003 141.085 517.83 202.9 517.984 203.07 351.66 308.2 285.016 322.44 283.73 322.527 38.492 231.628 36.626 217.862 36.63 217.854" fill="#fff" fill-rule="evenodd" stroke="#000" stroke-width="2"/><path d="M59.434 214.3l-11.6-5.57 2.525-2.212c56.166-49.184 110.274-92.105 170.493-135.242 18.596-13.32 49.91-34.693 50.83-34.693.745 0 35.012 19.43 54.618 30.97 72.675 42.77 132 83.512 171.573 117.83l9.012 7.815-6.72 3.986c-80.085 52.4-135.165 82.71-218.794 108.462-77.113-23.063-149.594-56.53-221.936-91.346z" fill="#fff" stroke="#00000e" stroke-width="2" stroke-linecap="round"/><path d="M47.64 208.237l2.526-2.212C106.333 156.84 160.44 113.92 220.66 70.783c18.595-13.32 49.908-34.692 50.83-34.692.744 0 35.01 19.43 54.617 30.97 72.674 42.77 132 83.513 171.573 117.83l9.01 7.816c-41.34 28.19-85.863 57.004-133.272 77.215-1.978.396-3.373-3.27-8.17-8.865-2.867-3.346-13.52-14.635-23.673-25.086-10.153-10.452-28.815-29.855-41.472-43.12-12.656-13.263-23.475-24.226-24.04-24.36-2.843-.67-42.824 44.842-79.02 89.952-5.725 7.134-10.646 12.96-10.936 12.947-46.76-19.844-93.77-39.187-138.467-63.153z" fill="#b11d1d" stroke="#000" stroke-width="2" stroke-linecap="round"/><path d="M278.64 246.574c-4.643 18.19-15.256 31.485-31.84 39.88l-3.98-10.494c20.785-8.396 31.177-25.048 31.177-49.957v-33.165l7.628.84c1.327.56 1.327 1.68 0 3.358v28.967c0 21.55 11.056 37.783 33.167 48.698l-3.316 10.496c-16.584-8.396-27.53-21.27-32.836-38.622zm29.85-27.708c-4.2 11.195-7.738 19.172-10.613 23.93l-6.633-5.458c3.98-6.717 7.628-15.393 10.945-26.028l7.296 4.618c1.326.84.995 1.82-.995 2.938zm-60.03 22.25c3.094-7.277 4.53-16.652 4.31-28.127l8.292 2.518c1.77.84 1.77 1.82 0 2.938 0 8.117-1.437 16.793-4.312 26.03l-8.29-3.36z" style="text-align:start;line-height:125%" font-size="72" fill="#b11d1d" font-family="MS Gothic"/><g id="q" fill-rule="evenodd" stroke-width="2"><path d="M385.38 98.825c-18.835 21.82-23.223 26.03-39.49 46.963-2.053 2.994-3.044 7.713-.086 10.473 2.024 2.547 7.28 3.123 8.004-.848.658-3.016.84-3.537 2.15-6.383 10.472-12.356 19.067-23.844 32.352-39.47 1.42-2.77 4.83-6.49 2.242-9.502-1.37-1.255-3.394-1.577-5.173-1.233z" fill="#fff" stroke="#000"/><path d="M385.718 99.985c-18.834 21.82-22.576 25.06-38.844 45.994-2.052 2.993-3.608 6.582-.65 9.342 2.024 2.546 6.068 3.768 6.793-.203.658-3.018.92-3.7 2.232-6.546 10.47-12.355 19.065-24.004 32.35-39.63 1.42-2.77 4.588-5.522 2-8.534-1.372-1.255-2.103-.77-3.882-.425z" fill="url(#p)"/></g><use xlink:href="#q" transform="translate(43.85 28.502)" width="600" height="350"/></g></svg>