<svg xmlns="http://www.w3.org/2000/svg" xmlns:xlink="http://www.w3.org/1999/xlink" width="500" height="650" version="1"><defs><linearGradient id="a"><stop offset="0" stop-color="#B3B3B3"/><stop offset="1" stop-color="#B3B3B3" stop-opacity="0"/></linearGradient><linearGradient id="b"><stop offset="0" stop-color="#6e6e6e"/><stop offset="1" stop-color="#c8c8c8"/></linearGradient><filter id="l"><feGaussianBlur stdDeviation=".375"/></filter><filter id="k" x="-.12" width="1.24" y="-.004" height="1.008"><feGaussianBlur stdDeviation=".375"/></filter><filter id="j"><feGaussianBlur stdDeviation=".375"/></filter><filter id="i" x="-.164" width="1.328" y="-.004" height="1.008"><feGaussianBlur stdDeviation=".375"/></filter><filter id="h"><feGaussianBlur stdDeviation=".375"/></filter><filter id="g"><feGaussianBlur stdDeviation=".375"/></filter><filter id="e"><feGaussianBlur stdDeviation=".375"/></filter><filter id="f"><feGaussianBlur stdDeviation=".375"/></filter><linearGradient xlink:href="#a" id="d" gradientUnits="userSpaceOnUse" gradientTransform="translate(-28.695 -22.736)" x1="390.451" y1="441.312" x2="315.29" y2="441.312"/><linearGradient xlink:href="#a" id="c" gradientUnits="userSpaceOnUse" x1="171.935" y1="441.312" x2="245.855" y2="441.312" gradientTransform="translate(-28.616 -22.752)"/><linearGradient xlink:href="#b" id="m" x1="335.561" y1="94.223" x2="349.862" y2="103.488" gradientUnits="userSpaceOnUse"/><linearGradient xlink:href="#b" id="n" gradientUnits="userSpaceOnUse" x1="335.561" y1="94.223" x2="349.862" y2="103.488" gradientTransform="translate(44 28)"/></defs><path d="M112.43 230.05v47.503c0 14.9.732 29.678.732 44.58v77.466c0 22.45-.57 44.867 1.462 67.234 2.75 30.24 18.053 42.684 29.963 66.504 2.904 5.807 4.385 25.173 4.385 31.425 0 5.368 30.58-12.385 35.08-13.885 28.462-9.488 51.205-2.345 76.004 13.154 14.378 8.986 29.992 3.514 45.31 6.578 12.825 2.565 18.96-.85 28.503-6.578 8.96-5.377 11.255-14.255 14.615-22.655 9.559-23.896 12.482-55.1 17.54-80.39 7.175-35.876 13.154-57.524 13.154-95.006 0-30.12-4.386-60.112-4.386-90.62v-53.35" fill="#f9f9f9" fill-rule="evenodd" stroke="#000"/><g fill="#f9f9f9" fill-rule="evenodd" stroke="#000"><path d="M84.566 215.31c-3.912 65.73-11.102 148.98-11.102 214.82-36.324 95.606-46.6 78.094-61.39 110.27 1.293 6.457 12.28 15.375 16.81 19 9.475 7.58 30.187 9.247 42.387 15.347 9.91 4.954 13.365 12.112 18.272 21.924 21.66 41.34 43.49 29.988 80.39 38.735 7.395-49.236 8.404-97.438 1.46-146.81-2.334-68.752 2.414-179.213 4.666-247.183M435.948 200.844v40.004c0 12.513.306 26.36-1.46 38.733-21.854 72.657 17.575 118.398 35.078 181.974 1.797 8.984 14.75 27.662 16.95 36.468 1.713 6.847 1.147 8.67-2.19 15.347-3.936 7.867-8.732 9.773-16.81 18.27-30.117 46.933-82.875 28.63-98.653 77.122-4.21 12.326-23.716 11.122-35.042 12.267-6.216 1.553-1.325-16.492-2.378-22.813-.945-5.667-1.083-11.67-.427-17.413.117-1.026.26-2.044.427-3.05 1.678-10.073 3.654-19.433 3.654-29.963v-27.04c-6.03-83.342 5.988-219.574 1.648-264.31"/></g><path d="M311.963 570.26c-.253-.252-9.37-.873-20.258-1.38-22.13-1.028-23.39-1.337-37.157-9.147-17.91-10.158-36.66-15.31-50.52-13.884-7.955.818-18.868 3.352-22.693 5.268-1.517.76-3.17 1.38-3.67 1.38-.503 0-1.238-9.074-1.632-20.166-.395-11.09-1.132-22.923-1.64-26.293-2.318-15.425-3.068-54.902-2.02-106.196 1.135-55.397 3.54-131.052 4.184-131.642.213-.195 17.848 6.288 39.19 14.408 21.34 8.12 39.957 14.762 41.37 14.763 5.978 0 40.278-12.987 65.404-24.767 7.06-3.31 13.147-6.016 13.53-6.016 1.214 0 .753 31.22-1.433 97.005-1.792 53.95-2.015 74.004-1.442 129.68.44 42.68.32 66.786-.334 68.488-.7 1.824-2.83 3.423-6.975 5.24-5.757 2.52-12.952 4.208-13.902 3.258z" opacity=".838" fill="url(#c)"/><path d="M311.884 570.277c-.253-.253-9.37-.874-20.258-1.38-22.13-1.03-23.39-1.338-37.157-9.148-17.91-10.16-36.662-15.312-50.52-13.885-7.956.82-18.87 3.353-22.694 5.27-1.517.76-3.17 1.38-3.67 1.38-.503 0-1.238-9.075-1.632-20.167-.395-11.09-1.132-22.923-1.64-26.293-2.318-15.424-3.068-54.9-2.02-106.195 1.135-55.397 3.54-131.052 4.184-131.642.213-.195 17.848 6.288 39.19 14.408 21.34 8.12 39.957 14.763 41.37 14.763 5.978 0 40.278-12.988 65.404-24.768 7.058-3.31 13.146-6.016 13.53-6.016 1.213 0 .752 31.22-1.434 97.005-1.792 53.95-2.015 74.005-1.442 129.68.44 42.682.32 66.787-.334 68.49-.702 1.823-2.83 3.422-6.976 5.24-5.757 2.52-12.952 4.207-13.902 3.257z" opacity=".838" fill="url(#d)"/><g fill="none" stroke="#000"><path d="M103.106 232.285v55.14c-2.36 17.764-11.74 43.873-25.527 56.16" filter="url(#e)"/><path d="M133.85 276.25c-1.64 21.29-1.02 42.885-1.02 64.33 0 14.93-4.82 26.877-7.15 40.845-1.755 10.533-3.076 20.49-5.105 30.633-1.12 5.6-3.775 10.616-6.126 15.317" filter="url(#f)"/><path d="M131.495 433.906c-3.382 16.91 2.825 38.09 8.17 54.12 8.45 25.35 16.528 49.396 28.59 73.518 4.72 9.44 11.716 15.213 14.295 25.528" transform="rotate(8.534 -9.95 385.51)" filter="url(#g)"/><path d="M85.63 449.774c7.657 15.313 7.148 36.897 7.148 54.118 0 10.564-2.226 18.84-6.127 28.59-2.826 7.07-2.04 16.906-2.04 24.508" filter="url(#h)"/><path d="M359.403 244.54c-2.944 24.863 5.054 52.28-1.02 76.58-4.83 19.318 0 46.303 0 66.373 0 14.784 2.526 32.78-1.022 46.97-1.738 6.96 0 16.27 0 23.486" filter="url(#i)"/><path d="M386.238 422.328c.828 29.6-13.56 85.186-13.56 107.1 0 23.033-4.597 53.104-10.21 75.56" filter="url(#j)"/><path d="M396.163 247.602c0 44.75-1.88 91.32 3.063 135.807 3.45 31.05 3.064 61.657 3.064 92.92 0 6.69-.785 5.494-1.02 7.147" filter="url(#k)"/><path d="M417.606 335.417v19.4c0 21.346 4.41 82.338 14.296 102.11 1.36 2.724 2.723 5.447 4.084 8.17 4.945 9.89 12.253 25.454 12.253 36.76 0 10.09 4.084 18.733 4.084 28.59v2.043" filter="url(#l)"/></g><g stroke-width="2"><path d="M9.766 191.213C126.46 85.637 244.003 9.173 244.368 9.15 435.81 114.91 490.638 176.726 490.792 176.9 324.468 282.025 257.824 296.265 256.537 296.352 11.3 205.456 9.435 191.69 9.437 191.68" fill="#fff" fill-rule="evenodd" stroke="#000"/><path d="M32.242 188.127l-11.6-5.57 2.525-2.212C79.334 131.16 133.442 88.24 193.66 45.103c18.597-13.32 49.91-34.692 50.832-34.692.744 0 35.01 19.43 54.617 30.97 72.673 42.77 131.997 83.513 171.57 117.83l9.012 7.816-6.718 3.985c-80.086 52.402-135.166 82.712-218.795 108.463-77.115-23.063-149.596-56.528-221.938-91.346z" fill="#fff" stroke="#00000e" stroke-linecap="round"/><path d="M20.448 182.065l2.526-2.212C79.14 130.67 133.25 87.748 193.467 44.61c18.596-13.32 49.91-34.692 50.83-34.692.745 0 35.012 19.43 54.618 30.97 72.674 42.77 131.998 83.512 171.573 117.83l9.01 7.815c-41.34 28.19-85.863 57.004-133.272 77.215-1.978.396-3.373-3.27-8.17-8.865-2.868-3.347-13.52-14.636-23.673-25.086-10.153-10.45-28.815-29.854-41.472-43.12-12.655-13.263-23.474-24.225-24.04-24.36-2.842-.67-42.823 44.843-79.02 89.952-5.724 7.134-10.645 12.96-10.935 12.947-46.76-19.843-93.77-39.186-138.467-63.152z" fill="#266639" stroke="#000" stroke-linecap="round"/><g fill-rule="evenodd" stroke="#000"><path d="M358.186 72.653c-18.833 21.82-23.22 26.03-39.49 46.962-2.05 2.994-3.042 7.714-.084 10.474 2.024 2.544 7.28 3.12 8.004-.85.658-3.017.84-3.537 2.15-6.384 10.472-12.354 19.067-23.843 32.35-39.468 1.422-2.77 4.832-6.49 2.244-9.503-1.372-1.255-3.394-1.576-5.174-1.232z" fill="url(#m)"/><path d="M402.186 100.653c-18.833 21.82-23.22 26.03-39.49 46.962-2.05 2.994-3.042 7.714-.084 10.474 2.024 2.544 7.28 3.12 8.004-.85.658-3.017.84-3.537 2.15-6.384 10.472-12.354 19.067-23.843 32.35-39.468 1.422-2.77 4.832-6.49 2.244-9.503-1.372-1.255-3.394-1.576-5.174-1.232z" fill="url(#n)"/></g></g><path d="M234.065 184.933c-3.464.028-7.097.14-10.852.374-1.567.928-2.622 2.79-2.752 6.285 3.034 28.452-6.07 43.96-17.526 57.808 21.97-.04 23.427-28.473 26.923-54.822 20.252-.038 49.582-7.158 46.57 10.993-.948 16.27 2.8 43.85 11.96 55.167.494-5.063 5.253-10.712 12.623-12.4-18.303 2.084-18.056-38.568-18.54-57.06-.505-1.996-1.596-5.133-2.563-6.143-4.795 3.583-21.594-.396-45.842-.2zm25.373 15.184c-9.47 4.31-7.095 2.454-18.476 7.434 1.32 1.76 3.874 1.494 5.568 1.494.056 1.628-.516 3.19-.728 4.793-10.968.266-12.493-2.624-12.307 8.238-.135 13.454.997 9.294 11.453 9.127-.94 3.974.878 9.46-.633 12.687-6.1.508-15.728-1.763-15.63 2.955 3.356 7.18 17.487 2.784 24.71 2.784 8.158-.85 11.314 5.513 12.402 7.232 4.367 2.01 5.303.055 4.62-2.956-.927-4.076-5.126-8.004-7.15-11.08-2.63-3.106-3.818-1.274-3.987 1.465-2.624.186-5.99-.2-8.606-.2.003-4.682.67-10.2.633-13.404 12.54-.222 13.73 4.308 14.237-7.98-.327-12.716-2.365-8.736-14.427-8.266-.06-.943-.126-4-.126-4.966 2.443-3.86 9.155-2.158 8.448-9.357zm-15.82 18.57c.727-.018 1.46.012 2.153 0-.12 2.36-.013 4.64-.158 7.004-2.743.016-6.144.97-7.055-3.185.758-3.26 2.886-3.762 5.062-3.817zm9.65.288c2.407.102 5.7 1.078 5.885 3.128-.566 4.526-5.295 3.825-7.846 3.646v-6.574c.455-.154 1.16-.235 1.962-.2z" fill="#266639" fill-rule="evenodd" stroke="#000" stroke-width="1.865"/></svg>