<svg xmlns="http://www.w3.org/2000/svg" width="440" height="100" version="1"><path d="M178.177 10.68l82.777 82.778M178.177 10.68l82.777 82.778M178.177 10.68l82.777 82.778" fill="#0f0" fill-opacity=".502" overflow="visible"/><g fill="#6c8781" stroke-width="4.139"><path d="M306.752 50.12c44.416.672 87.586.988 133.248-.12-44.594-2.858-88.298-3.58-133.248-4.3" overflow="visible"/><path d="M306.752 50.12c-2.087-1.033-1.92-2.02-6.62-2.653-3.546-.293-5.015.746-5.294 3.537-.03 2.49 2.067 4.39 5.73 4.453 1.437.06 1.537-.224 2.168-.3-1.5.94-2.262 1.394-3.9 1.363-6.816-.33-7.59-3.823-7.528-5.958.153-4.57 2.224-7.267 7.5-7.074 3.686-.023 5.297.615 7.944 2.21L308 47v2l-1.248 1.12z" overflow="visible"/></g><g fill="#6c8781" stroke-width="4.139"><path d="M133.248 49.88C88.832 49.208 45.662 48.892 0 50c44.594 2.858 88.298 3.58 133.248 4.3" overflow="visible"/><path d="M133.248 49.88c2.087 1.033 1.92 2.02 6.62 2.653 3.546.293 5.015-.746 5.294-3.537.03-2.49-2.067-4.39-5.73-4.453-1.437-.06-1.537.224-2.168.3 1.5-.94 2.262-1.394 3.9-1.363 6.816.33 7.59 3.823 7.528 5.958-.153 4.57-2.224 7.267-7.5 7.074-3.686.023-5.297-.615-7.944-2.21L132 53v-2l1.248-1.12z" overflow="visible"/></g><path d="M174.565 5l90 90M264.565 5l-90 90" fill="none" stroke="#6c8781" stroke-width="5" stroke-linejoin="round" overflow="visible"/><path d="M169.565 10h10V0l-10 10zM259.565 0v10h10l-10-10zM259.565 100l10-10h-10v10zM179.565 100l-10-10h10v10z" fill="#6c8781" overflow="visible"/></svg>