<svg xmlns="http://www.w3.org/2000/svg" width="100" height="100" version="1"><path d="M50 50z" fill="#ff0" fill-opacity=".502" overflow="visible"/><path d="M120 40z" transform="matrix(.99997 0 0 .99997 0 .003)" fill="none" stroke="#f0f" stroke-linejoin="round" stroke-opacity=".502" overflow="visible"/><path d="M67.5 25a17.5 17.5 0 1 1-35 0 17.5 17.5 0 1 1 35 0z" overflow="visible"/><path d="M32.5 24.3C32.027 7.93 56.942-6.807 71.696 7.66 65.812 4.88 57.045 5.995 54.9 8.9L32.5 24.3zM19.605 47.342a17.5 17.5-30.482 1 1 17.5 30.31 17.5 17.5-30.482 1 1-17.5-30.31z" overflow="visible"/><path d="M36.5 78.003C22.555 86.596-2.665 72.388 2.49 52.377c.534 6.486 5.883 13.52 9.472 13.927l24.537 11.7zM62.906 77.653a17.5 17.5-59.518 1 1 17.5-30.31 17.5 17.5-59.518 1 1-17.5 30.31z" overflow="visible"/><path d="M81.012 47.692c14.413 7.778 14.72 36.724-5.188 42.266 5.35-3.706 8.768-11.855 7.325-15.167-.714-9.032-1.426-18.065-2.138-27.098z" overflow="visible"/></svg>