<svg xmlns="http://www.w3.org/2000/svg" width="100" height="100" version="1"><path d="M32.488 0C35.59 14.015 45.42 25.994 57.003 30.682c.322-8.633 8.94-15.657 14.377-16.1-4.593 7.876-4.645 13.816-3.347 17.82.683 1.88 1.104 1.743 3.254 3.035 12.164 6.3 18.883 19.613 18.71 30.093-.277 11.3-8.132 34.23-36.128 34.47-20.898-.472-33.824-13.62-33.548-25.142-.046-3.74 1.086-13.013 4.404-16.8-3.788 24.66 9.79 27.517 19.743 28.495 6.258-.048 18.66.016 21.196-18.845.046-7.007-4.055-19.223-20.737-28.314-8.05-4.94-16.375-7.087-25.16-11.174-4.41-2.636-8.08-4.75-9.77-10.606 8.156 5.508 13.64 8.08 25.99 8.712C33.81 21.906 31.58 13.13 32.488 0z" overflow="visible"/></svg>