<svg xmlns="http://www.w3.org/2000/svg" width="440" height="100" version="1"><path d="M178.177 85.18V50h82.777V14.82" fill="none" stroke="#000" stroke-width="4.139" stroke-linejoin="round" overflow="visible"/><path d="M254.745 91.388h-35.18V8.612h-35.18" fill="none" stroke="#000" stroke-width="4.139" stroke-linejoin="round" overflow="visible"/><path d="M176.107 85.18c.114.482-.084 1.593 2.07 2.483 3.653 1.733 4.172 2.923 4.328 5.643.093 3.073-1.94 4.5-4.328 5.118-2.29.322-3.443-.268-4.14-1.655.235 2.142.878 2.242 2.07 2.896 1.608.456 2.363.376 4.14.17 1.96-.314 3.733-1.52 5.114-4.347.832-1.496.896-4.477 0-6.437-1.244-2.14-2.827-3.5-5.114-4.7-1.38.275-2.76.55-4.14.827zM184.385 6.542c-.482.114-1.593-.084-2.483 2.07-1.733 3.653-2.922 4.172-5.643 4.328-3.074.093-4.502-1.94-5.12-4.328-.32-2.29.27-3.443 1.656-4.14-2.142.235-2.243.878-2.897 2.07-.456 1.608-.376 2.363-.17 4.14.313 1.96 1.52 3.733 4.346 5.114 1.495.83 4.476.894 6.436 0 2.14-1.245 3.5-2.828 4.7-5.115-.275-1.38-.55-2.758-.827-4.138zM263.023 14.82c-.114-.482.085-1.593-2.07-2.483-3.653-1.733-4.172-2.923-4.328-5.643-.093-3.073 1.94-4.5 4.33-5.118 2.29-.322 3.44.268 4.137 1.655-.234-2.142-.877-2.242-2.07-2.896-1.606-.456-2.36-.376-4.138-.17-1.96.314-3.734 1.52-5.115 4.347-.832 1.496-.895 4.477 0 6.437 1.244 2.14 2.827 3.5 5.114 4.7 1.38-.275 2.76-.55 4.14-.827zM254.745 93.458c.483-.114 1.593.084 2.484-2.07 1.73-3.653 2.92-4.172 5.64-4.328 3.074-.093 4.502 1.94 5.12 4.328.32 2.29-.27 3.443-1.656 4.14 2.143-.235 2.243-.878 2.897-2.07.457-1.608.377-2.363.17-4.14-.312-1.96-1.52-3.733-4.345-5.114-1.496-.83-4.477-.894-6.437 0-2.14 1.245-3.5 2.828-4.7 5.115.276 1.38.55 2.758.827 4.138zM306.752 50.12c44.416.672 87.586.988 133.248-.12-44.594-2.858-88.298-3.58-133.248-4.3" overflow="visible"/><path d="M306.752 50.12c-2.087-1.033-1.92-2.02-6.62-2.653-3.546-.293-5.015.746-5.294 3.537-.03 2.49 2.067 4.39 5.73 4.453 1.437.06 1.537-.224 2.168-.3-1.5.94-2.262 1.394-3.9 1.363-6.816-.33-7.59-3.823-7.528-5.958.153-4.57 2.224-7.267 7.5-7.074 3.686-.023 5.297.615 7.944 2.21L308 47v2l-1.248 1.12zM133.248 49.88C88.832 49.208 45.662 48.892 0 50c44.594 2.858 88.298 3.58 133.248 4.3" overflow="visible"/><path d="M133.248 49.88c2.087 1.033 1.92 2.02 6.62 2.653 3.546.293 5.015-.746 5.294-3.537.03-2.49-2.067-4.39-5.73-4.453-1.437-.06-1.537.224-2.168.3 1.5-.94 2.262-1.394 3.9-1.363 6.816.33 7.59 3.823 7.528 5.958-.153 4.57-2.224 7.267-7.5 7.074-3.686.023-5.297-.615-7.944-2.21L132 53v-2l1.248-1.12z" overflow="visible"/></svg>