<svg xmlns="http://www.w3.org/2000/svg" xmlns:xlink="http://www.w3.org/1999/xlink" width="300" height="300"><defs><linearGradient id="a"><stop offset="0" stop-color="#600"/><stop offset=".5" stop-color="#c30000"/><stop offset="1" stop-color="#a00000"/></linearGradient><radialGradient r="12.5" fy="439.862" fx="297.5" cy="439.862" cx="297.5" gradientUnits="userSpaceOnUse" id="b" xlink:href="#a"/></defs><path transform="translate(-3303.137 -4955.56) scale(11.60718)" d="M310 439.862c0 6.904-5.596 12.5-12.5 12.5s-12.5-5.596-12.5-12.5c0-6.903 5.596-12.5 12.5-12.5s12.5 5.597 12.5 12.5z" fill="url(#b)" stroke="#000" stroke-width=".846" stroke-linejoin="round" overflow="visible"/><path d="M145.75 9.03l-4.375 14.47C124.82 27.396 112.5 42.257 112.5 60c0 20.71 16.79 37.5 37.5 37.5 12.265 0 23.158-5.896 30-15 .004-.005.027.005.03 0 60.853-19.64 74.967 84.403 64.095 78.688 10.9 21.974 20.41 23.804 18.813 20.687-2.386-4.656-2.145-6.476-2.094-10.875 4.01-67.463-39.198-152.487-115.094-161.97zm10.5 30.657c12.823-.13 29.34 8.56 28.875 31.126-8.946-15.72-18.327-15.685-18.344-11.126 0 9.272-7.515 16.812-16.78 16.813-9.265 0-16.12-6.47-16.813-16.813-.692-10.34 10.24-19.87 23.063-20z" overflow="visible"/><path d="M150 243.96c-7.813-12.747-12.426-56.475-14.965-85.32-23.712-16.622-59.28-42.48-66.413-55.62 14.945-.393 55.086 17.476 81.378 29.7 26.292-12.224 66.433-30.093 81.378-29.7-7.133 13.14-42.702 38.998-66.413 55.62-2.54 28.846-7.153 72.573-14.965 85.32zm0-76.68c9.543 0 17.28-7.737 17.28-17.28 0-9.544-7.737-17.28-17.28-17.28-9.544 0-17.28 7.736-17.28 17.28 0 9.543 7.736 17.28 17.28 17.28z"/><path d="M45.3 130.055L11.256 110.4l13.17-32.81 21.83-27.812 34.426 19.875L45.3 130.055zM185 255.57v34.52l-35 5-35-5v-44.58l70 10.06zM218.657 70.036l35.087-20.258 21.83 27.81 13.17 32.812-35.5 20.495-34.587-60.86zM160 150c0 5.523-4.477 10-10 10s-10-4.477-10-10 4.477-10 10-10 10 4.477 10 10z" overflow="visible"/><path d="M188.717 78.327C195.452 100.053 200 124.602 200 149.91c0 65-30 125-50 145-20-20-50-80-50-145 0-37.007 9.724-72.394 21.79-99.7" fill="none" stroke="#000" stroke-width="5" stroke-linejoin="round" overflow="visible"/><path d="M65.813 155.284c15.937-17.782 35.91-35.236 59.187-48.675 56.29-32.5 123.253-36.52 150.573-29.2-7.32 27.32-44.282 83.3-100.573 115.8-38.525 22.243-82.046 31.146-114.44 32.204" fill="none" stroke="#000" stroke-width="5" stroke-linejoin="round" overflow="visible"/><path d="M200.088 220.81c-24.304-4.782-50.698-13.517-75.088-27.6-56.292-32.5-93.253-88.48-100.574-115.8 27.32-7.32 94.282-3.3 150.574 29.2 31.333 18.09 56.677 43.454 74.254 67.102" fill="none" stroke="#000" stroke-width="5" stroke-linejoin="round" overflow="visible"/><path d="M113.772 160.622c7.18-2.208 12.733-4.175 18.112-7.49l3.15 5.508 3.27 5.71c-3.303-.17-13.4.4-24.53-3.728h-.002zM177.312 176.063c-5.502-5.115-9.982-8.94-15.54-11.94l3.193-5.483 3.31-5.686c1.504 2.946 7.047 11.404 9.037 23.108zM158.915 113.315c-1.68 7.322-2.75 13.114-2.57 19.43L150 132.72l-6.58-.025c1.8-2.775 6.353-11.805 15.495-19.38z" fill-rule="evenodd"/><path d="M30.047 224.158l14.718-3.446c11.65 12.388 30.682 15.628 46.047 6.757 17.936-10.357 24.082-33.29 13.726-51.227-6.132-10.622-16.684-17.108-27.99-18.48-.007-.002-.01-.027-.016-.028-47.433-42.88 35.612-107.124 36.1-94.85 13.58-20.428 10.41-29.578 8.51-26.636-2.84 4.393-4.537 5.093-8.373 7.25C52.34 73.756.31 153.69 30.046 224.157zm21.3-24.422c-6.526-11.04-7.258-29.688 12.517-40.57-9.14 15.61-4.42 23.716-.463 21.45 8.03-4.635 18.318-1.896 22.952 6.127 4.632 8.023 2.456 17.196-6.154 22.966s-22.327 1.067-28.852-9.974z" overflow="visible"/><path d="M274.188 216.687l-10.343-11.023c4.903-16.284-1.807-34.385-17.173-43.256-17.936-10.356-40.87-4.21-51.226 13.726-6.132 10.622-6.473 23.003-2.01 33.48.004.007-.018.02-.015.028-13.417 62.518-110.577 22.72-100.19 16.163-24.482-1.547-30.82 5.773-27.323 5.948 5.225.262 6.68 1.38 10.465 3.624 56.418 37.205 151.656 42.298 197.816-18.69zm-31.8-6.234c-6.297 11.17-22.082 21.13-41.392 9.444 18.087.112 22.747-8.03 18.806-10.324-8.028-4.637-10.8-14.915-6.17-22.94 4.633-8.023 13.665-10.724 22.967-6.153 9.3 4.57 12.087 18.802 5.788 29.973z" overflow="visible"/></svg>