<svg xmlns:dc="http://purl.org/dc/elements/1.1/" xmlns:cc="http://creativecommons.org/ns#" xmlns:rdf="http://www.w3.org/1999/02/22-rdf-syntax-ns#" xmlns:svg="http://www.w3.org/2000/svg" xmlns="http://www.w3.org/2000/svg" xmlns:sodipodi="http://sodipodi.sourceforge.net/DTD/sodipodi-0.dtd" xmlns:inkscape="http://www.inkscape.org/namespaces/inkscape" width="200" height="200" id="svg2" version="1.1" inkscape:version="0.48.4 r9939" sodipodi:docname="Novo documento 1">
    <defs id="defs4"/>
    <sodipodi:namedview id="base" pagecolor="#ffffff" bordercolor="#666666" borderopacity="1.0" inkscape:pageopacity="0.0" inkscape:pageshadow="2" inkscape:zoom="0.35" inkscape:cx="350" inkscape:cy="520" inkscape:document-units="px" inkscape:current-layer="g4249" showgrid="false" inkscape:window-width="1920" inkscape:window-height="1018" inkscape:window-x="-8" inkscape:window-y="-8" inkscape:window-maximized="1"/>
    <metadata id="metadata7">
        <rdf:RDF>
            <cc:Work rdf:about="">
                <dc:format>image/svg+xml</dc:format>
                <dc:type rdf:resource="http://purl.org/dc/dcmitype/StillImage"/>
                <dc:title/>
            </cc:Work>
        </rdf:RDF>
    </metadata>
    <g inkscape:label="Camada 1" inkscape:groupmode="layer" id="layer1" transform="translate(0,-852.36218)">
        <g transform="translate(53.947857,-793.11202)" id="g3201" inkscape:label="Caverna Ryuchi">
            <g transform="translate(19.52825,1290.153)" id="g4045">
                <g id="g4249">
                    <g id="g3065" transform="translate(-54.285714,800)">
                        <path style="fill:#000000;fill-opacity:1;stroke:#000000;stroke-width:1px;stroke-linecap:butt;stroke-linejoin:miter;stroke-opacity:1" d="m 5.0507635,-245.68384 c 10.6780655,-17.79758 21.1563955,-40.04098 21.2132035,-52.52793 13.129605,-0.16955 25.44415,-1.25171 33.335034,-4.04062 3.367175,28.62099 18.856181,45.79359 28.284271,54.54824 l 0,0 c -5.128707,-23.92878 -12.572768,-47.28565 -10.101526,-78.7919 0.692402,-7.86694 1.014503,-15.85707 7.071068,-26.26397 l -17.172593,-16.16243 -7.730544,-2.14069 -4.391286,9.21176 -23.223874,7.19151 -2.029941,-6.18137 -17.172592,-1.01015 c 6.442074,48.86838 -3.2446785,88.92532 -10.1015256,118.18785 l 1.0101525,-1.01015 z" id="path3037" inkscape:connector-curvature="0" sodipodi:nodetypes="cccccccccccccccc"/>
                        <path style="fill:#ffffff;fill-opacity:1;stroke:#000000;stroke-width:1px;stroke-linecap:butt;stroke-linejoin:miter;stroke-opacity:1" d="m 61.619306,-324.47574 0,12.12183 -32.324882,6.06092 3.030458,-13.13199 z" id="path3039" inkscape:connector-curvature="0" sodipodi:nodetypes="ccccc"/>
                        <path style="fill:#ffffff;fill-opacity:1;stroke:#000000;stroke-width:1px;stroke-linecap:butt;stroke-linejoin:miter;stroke-opacity:1" d="m 63.639611,-342.65849 c -1.06381,1.14028 -5.012373,3.24214 -14.142135,7.07107 -8.571738,2.58783 -16.565005,5.53465 -20.203052,3.03046 l 1.010153,-14.14215 29.294423,-9.09136 z" id="path3041" inkscape:connector-curvature="0" sodipodi:nodetypes="cccccc"/>
                        <path style="fill:#000000;fill-opacity:1;stroke:#000000;stroke-width:1px;stroke-linecap:butt;stroke-linejoin:miter;stroke-opacity:1" d="m 97.984797,-350.73971 -5.050762,65.65992 c 7.843365,44.50015 37.053215,27.28566 79.802045,24.24366 l 6.06092,-8.08122 -8.08123,-7.07107 1e-5,-15.15229 -17.1726,13.13199 c -3.36939,1.28555 -16.88676,0.74553 -28.28427,2.0203 -7.4734,2.82497 -11.01845,-2.20674 -13.13198,-10.10152 l -2.02031,-7.07107 30.30458,1.01015 16.16245,1e-5 c 2.17862,-12.88093 -0.37839,-8.3381 -12.12184,-19.19291 l -1.01015,6.06092 c -5.06069,5.54094 -21.07592,4.24654 -31.31473,2.02031 l 0,-20.20306 27.27412,-2.0203 15.15229,6.06091 c 16.94485,-11.68875 2.88524,-13.08463 -8.08122,-22.22335 -6.96959,2.06969 -10.10153,-1.32135 -10.10153,6.06091 l -24.24366,2.02031 c -0.33671,-6.26911 0.33672,-15.55441 0,-19.19291 l 32.32488,3.03047 c 9.40761,6.03036 16.89296,1.53872 17.1726,-4.04062 1.94608,-12.48224 4.65444,-24.94731 7.07106,-37.37564 -3.37974,-4.42783 -9.10479,-6.2892 -15.15229,-8.08122 l -15.15228,10.10153 -8.08122,2.0203 c -17.60736,1.82138 -17.04516,-11.49174 -18.18275,-22.22335 11.9999,3.24524 24.67092,1.10069 31.31473,-1.01016 22.72039,-3.46606 25.3689,-8.64776 11.11168,-23.23351 l -8.08122,-3.03045 -4.04061,8.08122 -30.30458,11.11168 1.01015,-9.09138 8.08123,-9.09137 c -9.56424,-8.33917 -11.14601,-4.48398 -31.314733,-2.02031 l 8.08122,12.12183 c -8.280584,55.8924 21.324123,52.61548 41.416253,49.49748 l 6.06091,4.04061 -3.03045,4.04061 -32.32489,2.0203 -19.19289,-8.08121 c 0.214111,17.15199 7.071067,23.2335 7.071067,23.2335 z" id="path3045" inkscape:connector-curvature="0" sodipodi:nodetypes="cccccccccccccccccccccccccccccccccccccccccccc"/>
                        <path style="fill:#000000;fill-opacity:1;stroke:#000000;stroke-width:1px;stroke-linecap:butt;stroke-linejoin:miter;stroke-opacity:1" d="m 9.0913737,-368.92245 64.6497623,-6.06092 c 11.705246,1.9753 13.803679,4.37832 21.213204,-4.04061 l -13.131983,-14.14213 -9.091373,5.05076 c -3.906017,4.64652 -10.663937,3.58923 -17.172594,3.03046 7.698308,-12.81457 9.166855,-20.09979 8.081221,-26.26397 22.031608,-6.48671 23.083069,13.82842 21.213203,-1.01015 l -5.050762,-10.10153 c -5.357126,-9.30265 -10.98078,-1.3905 -18.182746,1.01015 l -69.7005256,5.05077 -5.0507634,5.05076 8.081221,5.05076 2.0203051,5.05076 c 7.1165554,-1.08035 12.6438076,0.78646 20.2030509,-6.06091 -0.779098,16.46643 -0.930179,17.27922 5.050762,28.28427 l -37.375644,2.02031 c 3.164353,17.57292 14.0040041,15.76096 24.2436617,8.08122 z" id="path3058" inkscape:connector-curvature="0" sodipodi:nodetypes="cccccccccccccccccc"/>
                        <path style="fill:#ffffff;fill-opacity:1;stroke:#000000;stroke-width:1px;stroke-linecap:butt;stroke-linejoin:miter;stroke-opacity:1" d="m 29.294424,-383.06459 15.152288,-1.01015 9.091373,-23.23351 -27.274118,1.01015 4.04061,5.05076 z" id="path3060" inkscape:connector-curvature="0" sodipodi:nodetypes="cccccc"/>
                        <path style="fill:#000000;fill-opacity:0;stroke-width:14.03149605;stroke-miterlimit:4;stroke-dasharray:none" d="m 6.0025008,-252.06557 c 1.8217363,-5.92059 6.9347172,-34.39563 8.3384542,-46.43823 1.243345,-10.6666 1.522071,-19.81559 1.158776,-38.036 l -0.478358,-23.99113 5.156345,0.0138 c 7.476299,0.02 9.436529,0.80168 10.635526,4.24113 0.737734,2.11626 1.531834,2.86152 2.60872,2.44828 0.851481,-0.32674 6.363113,-2.06125 12.248072,-3.85446 10.549383,-3.21451 10.72959,-3.32144 12.808396,-7.60025 1.15966,-2.38692 2.586102,-4.31936 3.169873,-4.2943 2.79837,0.12012 7.097603,3.09988 14.025152,9.72072 l 7.576342,7.24091 -2.378816,5.89107 c -6.500769,16.09899 -5.981103,44.05867 1.469086,79.04144 1.705619,8.00883 2.953657,14.70898 2.773417,14.88921 -0.631367,0.63136 -5.602678,-5.27451 -10.687907,-12.69714 -5.750355,-8.39349 -10.409047,-19.55386 -12.264351,-29.38048 -0.681826,-3.6113 -1.572735,-6.93773 -1.979799,-7.39207 -0.407063,-0.45434 -4.190322,-0.11341 -8.407244,0.75762 -4.21692,0.87103 -10.300062,1.58869 -13.518091,1.5948 -3.21803,0.006 -7.555596,0.29288 -9.639036,0.63725 -3.332868,0.55089 -3.788072,0.96814 -3.788072,3.47227 0,4.91709 -5.051953,19.13832 -11.375792,32.02283 -5.5096835,11.22569 -8.9789254,16.67946 -7.4506932,11.71274 z m 41.3023802,-56.56566 14.89975,-2.77011 0,-6.88713 c 0,-4.47797 -0.40244,-6.88712 -1.15047,-6.88712 -1.264515,0 -24.33347,3.77535 -27.757147,4.5426 -1.709799,0.38317 -2.38225,1.71785 -3.353956,6.65693 -0.66846,3.39772 -1.485476,6.88152 -1.815592,7.74179 -0.472071,1.2302 -0.07952,1.43699 1.838727,0.96864 1.341416,-0.32751 9.143825,-1.84203 17.338688,-3.3656 z m -1.767767,-24.84748 c 9.432577,-2.70754 18.687822,-7.43864 18.687822,-9.55284 0,-2.97723 -3.440652,-12.66943 -4.664221,-13.13896 -0.655217,-0.25143 -7.793294,1.63204 -15.862393,4.18549 l -14.671091,4.64263 -0.331355,7.67634 c -0.29826,6.90962 -0.129569,7.75391 1.688949,8.45308 2.421651,0.93106 5.74814,0.43364 15.152289,-2.26574 l 0,0 z" id="path3235" inkscape:connector-curvature="0"/>
                        <path style="fill:#000000;fill-opacity:0;stroke-width:14.03149605;stroke-miterlimit:4;stroke-dasharray:none" d="m 6.0025008,-252.06557 c 1.8217363,-5.92059 6.9347172,-34.39563 8.3384542,-46.43823 1.243345,-10.6666 1.522071,-19.81559 1.158776,-38.036 l -0.478358,-23.99113 5.156345,0.0138 c 7.476299,0.02 9.436529,0.80168 10.635526,4.24113 0.737734,2.11626 1.531834,2.86152 2.60872,2.44828 0.851481,-0.32674 6.363113,-2.06125 12.248072,-3.85446 10.549383,-3.21451 10.72959,-3.32144 12.808396,-7.60025 1.15966,-2.38692 2.586102,-4.31936 3.169873,-4.2943 2.79837,0.12012 7.097603,3.09988 14.025152,9.72072 l 7.576342,7.24091 -2.378816,5.89107 c -6.500769,16.09899 -5.981103,44.05867 1.469086,79.04144 1.705619,8.00883 2.953657,14.70898 2.773417,14.88921 -0.631367,0.63136 -5.602678,-5.27451 -10.687907,-12.69714 -5.750355,-8.39349 -10.409047,-19.55386 -12.264351,-29.38048 -0.681826,-3.6113 -1.572735,-6.93773 -1.979799,-7.39207 -0.407063,-0.45434 -4.190322,-0.11341 -8.407244,0.75762 -4.21692,0.87103 -10.300062,1.58869 -13.518091,1.5948 -3.21803,0.006 -7.555596,0.29288 -9.639036,0.63725 -3.332868,0.55089 -3.788072,0.96814 -3.788072,3.47227 0,4.91709 -5.051953,19.13832 -11.375792,32.02283 -5.5096835,11.22569 -8.9789254,16.67946 -7.4506932,11.71274 z m 41.3023802,-56.56566 14.89975,-2.77011 0,-6.88713 c 0,-4.47797 -0.40244,-6.88712 -1.15047,-6.88712 -1.264515,0 -24.33347,3.77535 -27.757147,4.5426 -1.709799,0.38317 -2.38225,1.71785 -3.353956,6.65693 -0.66846,3.39772 -1.485476,6.88152 -1.815592,7.74179 -0.472071,1.2302 -0.07952,1.43699 1.838727,0.96864 1.341416,-0.32751 9.143825,-1.84203 17.338688,-3.3656 z m -1.767767,-24.84748 c 9.432577,-2.70754 18.687822,-7.43864 18.687822,-9.55284 0,-2.97723 -3.440652,-12.66943 -4.664221,-13.13896 -0.655217,-0.25143 -7.793294,1.63204 -15.862393,4.18549 l -14.671091,4.64263 -0.331355,7.67634 c -0.29826,6.90962 -0.129569,7.75391 1.688949,8.45308 2.421651,0.93106 5.74814,0.43364 15.152289,-2.26574 l 0,0 z" id="path3237" inkscape:connector-curvature="0"/>
                        <path style="fill:#000000;fill-opacity:0;stroke-width:14.03149605;stroke-miterlimit:4;stroke-dasharray:none" d="m 6.0025008,-252.06557 c 1.8217363,-5.92059 6.9347172,-34.39563 8.3384542,-46.43823 1.243345,-10.6666 1.522071,-19.81559 1.158776,-38.036 l -0.478358,-23.99113 5.156345,0.0138 c 7.476299,0.02 9.436529,0.80168 10.635526,4.24113 0.737734,2.11626 1.531834,2.86152 2.60872,2.44828 0.851481,-0.32674 6.363113,-2.06125 12.248072,-3.85446 10.549383,-3.21451 10.72959,-3.32144 12.808396,-7.60025 1.15966,-2.38692 2.586102,-4.31936 3.169873,-4.2943 2.79837,0.12012 7.097603,3.09988 14.025152,9.72072 l 7.576342,7.24091 -2.378816,5.89107 c -6.500769,16.09899 -5.981103,44.05867 1.469086,79.04144 1.705619,8.00883 2.953657,14.70898 2.773417,14.88921 -0.631367,0.63136 -5.602678,-5.27451 -10.687907,-12.69714 -5.750355,-8.39349 -10.409047,-19.55386 -12.264351,-29.38048 -0.681826,-3.6113 -1.572735,-6.93773 -1.979799,-7.39207 -0.407063,-0.45434 -4.190322,-0.11341 -8.407244,0.75762 -4.21692,0.87103 -10.300062,1.58869 -13.518091,1.5948 -3.21803,0.006 -7.555596,0.29288 -9.639036,0.63725 -3.332868,0.55089 -3.788072,0.96814 -3.788072,3.47227 0,4.91709 -5.051953,19.13832 -11.375792,32.02283 -5.5096835,11.22569 -8.9789254,16.67946 -7.4506932,11.71274 z m 41.3023802,-56.56566 14.89975,-2.77011 0,-6.88713 c 0,-4.47797 -0.40244,-6.88712 -1.15047,-6.88712 -1.264515,0 -24.33347,3.77535 -27.757147,4.5426 -1.709799,0.38317 -2.38225,1.71785 -3.353956,6.65693 -0.66846,3.39772 -1.485476,6.88152 -1.815592,7.74179 -0.472071,1.2302 -0.07952,1.43699 1.838727,0.96864 1.341416,-0.32751 9.143825,-1.84203 17.338688,-3.3656 z m -1.767767,-24.84748 c 9.432577,-2.70754 18.687822,-7.43864 18.687822,-9.55284 0,-2.97723 -3.440652,-12.66943 -4.664221,-13.13896 -0.655217,-0.25143 -7.793294,1.63204 -15.862393,4.18549 l -14.671091,4.64263 -0.331355,7.67634 c -0.29826,6.90962 -0.129569,7.75391 1.688949,8.45308 2.421651,0.93106 5.74814,0.43364 15.152289,-2.26574 l 0,0 z" id="path3239" inkscape:connector-curvature="0"/>
                        <path style="fill:#000000;fill-opacity:0;stroke-width:14.03149605;stroke-miterlimit:4;stroke-dasharray:none" d="m 6.0025008,-252.06557 c 1.8217363,-5.92059 6.9347172,-34.39563 8.3384542,-46.43823 1.243345,-10.6666 1.522071,-19.81559 1.158776,-38.036 l -0.478358,-23.99113 5.156345,0.0138 c 7.476299,0.02 9.436529,0.80168 10.635526,4.24113 0.737734,2.11626 1.531834,2.86152 2.60872,2.44828 0.851481,-0.32674 6.363113,-2.06125 12.248072,-3.85446 10.549383,-3.21451 10.72959,-3.32144 12.808396,-7.60025 1.15966,-2.38692 2.586102,-4.31936 3.169873,-4.2943 2.79837,0.12012 7.097603,3.09988 14.025152,9.72072 l 7.576342,7.24091 -2.378816,5.89107 c -6.500769,16.09899 -5.981103,44.05867 1.469086,79.04144 1.705619,8.00883 2.953657,14.70898 2.773417,14.88921 -0.631367,0.63136 -5.602678,-5.27451 -10.687907,-12.69714 -5.750355,-8.39349 -10.409047,-19.55386 -12.264351,-29.38048 -0.681826,-3.6113 -1.572735,-6.93773 -1.979799,-7.39207 -0.407063,-0.45434 -4.190322,-0.11341 -8.407244,0.75762 -4.21692,0.87103 -10.300062,1.58869 -13.518091,1.5948 -3.21803,0.006 -7.555596,0.29288 -9.639036,0.63725 -3.332868,0.55089 -3.788072,0.96814 -3.788072,3.47227 0,4.91709 -5.051953,19.13832 -11.375792,32.02283 -5.5096835,11.22569 -8.9789254,16.67946 -7.4506932,11.71274 z m 41.3023802,-56.56566 14.89975,-2.77011 0,-6.88713 c 0,-4.47797 -0.40244,-6.88712 -1.15047,-6.88712 -1.264515,0 -24.33347,3.77535 -27.757147,4.5426 -1.709799,0.38317 -2.38225,1.71785 -3.353956,6.65693 -0.66846,3.39772 -1.485476,6.88152 -1.815592,7.74179 -0.472071,1.2302 -0.07952,1.43699 1.838727,0.96864 1.341416,-0.32751 9.143825,-1.84203 17.338688,-3.3656 z m -1.767767,-24.84748 c 9.432577,-2.70754 18.687822,-7.43864 18.687822,-9.55284 0,-2.97723 -3.440652,-12.66943 -4.664221,-13.13896 -0.655217,-0.25143 -7.793294,1.63204 -15.862393,4.18549 l -14.671091,4.64263 -0.331355,7.67634 c -0.29826,6.90962 -0.129569,7.75391 1.688949,8.45308 2.421651,0.93106 5.74814,0.43364 15.152289,-2.26574 l 0,0 z" id="path3241" inkscape:connector-curvature="0"/>
                        <path style="fill:#000000;fill-opacity:0;stroke-width:14.03149605;stroke-miterlimit:4;stroke-dasharray:none" d="m 6.0025008,-252.06557 c 1.8217363,-5.92059 6.9347172,-34.39563 8.3384542,-46.43823 1.243345,-10.6666 1.522071,-19.81559 1.158776,-38.036 l -0.478358,-23.99113 5.156345,0.0138 c 7.476299,0.02 9.436529,0.80168 10.635526,4.24113 0.737734,2.11626 1.531834,2.86152 2.60872,2.44828 0.851481,-0.32674 6.363113,-2.06125 12.248072,-3.85446 10.549383,-3.21451 10.72959,-3.32144 12.808396,-7.60025 1.15966,-2.38692 2.586102,-4.31936 3.169873,-4.2943 2.79837,0.12012 7.097603,3.09988 14.025152,9.72072 l 7.576342,7.24091 -2.378816,5.89107 c -6.500769,16.09899 -5.981103,44.05867 1.469086,79.04144 1.705619,8.00883 2.953657,14.70898 2.773417,14.88921 -0.631367,0.63136 -5.602678,-5.27451 -10.687907,-12.69714 -5.750355,-8.39349 -10.409047,-19.55386 -12.264351,-29.38048 -0.681826,-3.6113 -1.572735,-6.93773 -1.979799,-7.39207 -0.407063,-0.45434 -4.190322,-0.11341 -8.407244,0.75762 -4.21692,0.87103 -10.300062,1.58869 -13.518091,1.5948 -3.21803,0.006 -7.555596,0.29288 -9.639036,0.63725 -3.332868,0.55089 -3.788072,0.96814 -3.788072,3.47227 0,4.91709 -5.051953,19.13832 -11.375792,32.02283 -5.5096835,11.22569 -8.9789254,16.67946 -7.4506932,11.71274 z m 41.3023802,-56.56566 14.89975,-2.77011 0,-6.88713 c 0,-4.47797 -0.40244,-6.88712 -1.15047,-6.88712 -1.264515,0 -24.33347,3.77535 -27.757147,4.5426 -1.709799,0.38317 -2.38225,1.71785 -3.353956,6.65693 -0.66846,3.39772 -1.485476,6.88152 -1.815592,7.74179 -0.472071,1.2302 -0.07952,1.43699 1.838727,0.96864 1.341416,-0.32751 9.143825,-1.84203 17.338688,-3.3656 z m -1.767767,-24.84748 c 9.432577,-2.70754 18.687822,-7.43864 18.687822,-9.55284 0,-2.97723 -3.440652,-12.66943 -4.664221,-13.13896 -0.655217,-0.25143 -7.793294,1.63204 -15.862393,4.18549 l -14.671091,4.64263 -0.331355,7.67634 c -0.29826,6.90962 -0.129569,7.75391 1.688949,8.45308 2.421651,0.93106 5.74814,0.43364 15.152289,-2.26574 l 0,0 z" id="path3243" inkscape:connector-curvature="0"/>
                        <path style="fill:#000000;fill-opacity:0;stroke-width:14.03149605;stroke-miterlimit:4;stroke-dasharray:none" d="m 111.33568,-257.9649 c -7.38429,-2.63242 -12.561898,-9.51924 -15.746596,-20.94477 -1.502116,-5.38906 -1.447297,-7.84577 0.857832,-38.44346 l 2.462494,-32.6865 -2.850577,-5.82637 c -1.567817,-3.2045 -3.070552,-8.1157 -3.339411,-10.91377 -0.565257,-5.88274 -0.838231,-5.86286 10.520798,-0.7664 6.25142,2.80482 6.3871,2.81872 18.74366,1.92074 6.84566,-0.49749 14.34762,-0.91846 16.67102,-0.93547 3.48711,-0.0255 4.5873,-0.54064 6.30395,-2.95145 l 2.07958,-2.92051 -2.76841,-1.86548 c -2.33621,-1.57424 -4.81858,-1.8675 -15.9004,-1.87839 -10.85613,-0.0107 -13.74471,-0.33915 -16.66751,-1.89533 -5.65228,-3.00941 -8.92393,-6.67214 -11.34144,-12.69711 -1.991493,-4.96326 -2.258207,-7.45719 -2.275751,-21.27954 l -0.01987,-15.65736 -3.23119,-4.6524 -3.231189,-4.65239 8.281952,-1.15727 c 10.981748,-1.53453 13.962968,-1.45969 16.643478,0.41781 2.91994,2.04521 2.86447,2.3889 -1.14332,7.0845 -2.647,3.10127 -3.49977,5.14191 -3.89743,9.32633 -0.34881,3.67035 -0.15664,5.23561 0.61047,4.9726 0.61573,-0.21112 7.85872,-2.82054 16.09554,-5.79872 14.2902,-5.16691 15.0648,-5.58891 16.91472,-9.21505 1.84383,-3.6142 2.08735,-3.74836 4.97613,-2.74133 3.5138,1.22492 10.88066,9.16964 11.76318,12.6859 0.77938,3.10529 -1.83495,6.02367 -6.60762,7.37609 -13.40819,3.79946 -24.12149,5.27769 -34.19886,4.7188 -10.26379,-0.56923 -10.35498,-0.55411 -9.90414,1.64198 0.25027,1.21908 0.75113,4.48336 1.11303,7.25396 1.22147,9.35125 4.59354,13.14759 12.66036,14.25327 6.40988,0.87857 12.44531,-1.0415 21.20048,-6.74456 l 7.63949,-4.97632 4.48234,1.54757 c 2.46529,0.85116 5.5611,2.37411 6.87959,3.38433 l 2.39725,1.83676 -3.68965,19.55307 c -2.30902,12.23658 -4.30408,20.23203 -5.33172,21.36756 -1.90258,2.10232 -8.3502,2.45285 -11.74074,0.6383 -2.00701,-1.07413 -24.94993,-3.76365 -32.77225,-3.84179 l -3.283,-0.0328 0,10.71902 0,10.71902 3.283,-0.55928 c 1.80565,-0.30761 7.72004,-0.86719 13.1431,-1.24354 9.18913,-0.63767 9.89991,-0.84287 10.44514,-3.01526 0.44414,-1.76959 1.54159,-2.49263 4.55648,-3.00199 3.5998,-0.60818 4.64259,-0.21332 11.14386,4.21975 3.94484,2.68989 7.37925,5.42341 7.63203,6.07447 0.6729,1.73318 -1.41615,5.139 -4.31865,7.04079 -2.40115,1.5733 -2.89724,1.51499 -9.64992,-1.13434 -6.78668,-2.66266 -7.64443,-2.76112 -18.39384,-2.11132 -6.20137,0.37487 -12.75255,0.93591 -14.5582,1.24676 l -3.283,0.56518 0,10.88287 0,10.88286 5.61236,0.70122 c 3.0868,0.38567 9.23368,0.70122 13.65973,0.70122 8.93924,0 14.06709,-2.03464 15.03578,-5.96593 0.51891,-2.10595 0.77203,-2.02198 5.8457,1.93924 4.80441,3.751 5.3033,4.51601 5.3033,8.1323 l 0,3.99179 -23.72589,-0.73349 -23.72588,-0.7335 1.59705,5.44389 c 2.26961,7.73646 4.39651,11.91633 6.68741,13.14238 2.10971,1.12908 35.2965,-0.50883 37.51903,-1.85172 0.62876,-0.37992 3.93146,-2.87365 7.33932,-5.54161 3.40787,-2.66798 6.47621,-4.85086 6.81853,-4.85086 0.34233,0 0.62241,2.63823 0.62241,5.86275 0,5.37414 0.29466,6.14835 3.53553,9.28953 1.94455,1.88473 3.53554,3.81058 3.53554,4.27968 0,0.46909 -0.95946,2.15062 -2.13212,3.73674 -1.84602,2.49687 -3.03209,2.97607 -8.83884,3.57113 -3.68869,0.37801 -12.75468,1.562 -20.14664,2.6311 -15.63148,2.26076 -28.36954,2.43515 -33.89859,0.46411 l 0,0 z" id="path3245" inkscape:connector-curvature="0"/>
                    </g>
                </g>
            </g>
        </g>
    </g>
</svg>