<svg xmlns="http://www.w3.org/2000/svg" width="200" height="200">
    <path d="M24.24 198.995c10.68-17.798 21.158-40.04 21.214-52.528 13.13-.17 25.445-1.252 33.335-4.04 3.367 28.62 18.856 45.793 28.284 54.548-5.13-23.93-12.573-47.286-10.102-78.792.693-7.867 1.015-15.857 7.07-26.264l-17.17-16.164-7.732-2.14-4.39 9.21-23.225 7.193-2.03-6.182-17.173-1.01c6.442 48.868-3.244 88.925-10.1 118.187l1.01-1.01z" stroke="#000"/>
    <path d="M80.81 120.203v12.122l-32.325 6.06 3.03-13.13zM82.83 102.02c-1.064 1.14-5.012 3.242-14.142 7.07-8.572 2.59-16.565 5.536-20.203 3.032l1.01-14.142 29.294-9.092z" fill="#fff" stroke="#000"/>
    <path d="M117.175 93.94l-5.05 65.66c7.843 44.5 37.053 27.285 79.8 24.243l6.062-8.082-8.08-7.07v-15.152l-17.173 13.132c-3.37 1.286-16.887.746-28.285 2.02-7.474 2.825-11.02-2.206-13.133-10.1l-2.02-7.072 30.305 1.01h16.162c2.18-12.88-.378-8.338-12.122-19.193l-1.01 6.06c-5.06 5.542-21.076 4.247-31.315 2.02v-20.202l27.274-2.02 15.154 6.06c16.945-11.688 2.885-13.084-8.08-22.223-6.97 2.07-10.103-1.32-10.103 6.06l-24.243 2.022c-.336-6.27.337-15.555 0-19.193l32.325 3.03c9.408 6.03 16.893 1.538 17.173-4.04 1.946-12.484 4.654-24.95 7.07-37.377-3.38-4.428-9.104-6.29-15.15-8.08l-15.154 10.1-8.08 2.02c-17.607 1.822-17.045-11.49-18.183-22.223 12 3.245 24.67 1.1 31.315-1.01 22.72-3.466 25.37-8.648 11.112-23.233l-8.08-3.03-4.042 8.08-30.305 11.112 1.01-9.092 8.082-9.092c-9.566-8.34-11.147-4.484-31.316-2.02l8.08 12.122c-8.28 55.892 21.325 52.615 41.417 49.497l6.062 4.04-3.03 4.04-32.325 2.022-19.193-8.08c.214 17.15 7.07 23.232 7.07 23.232z" stroke="#000"/>
    <path d="M28.282 75.756l64.65-6.06c11.705 1.975 13.803 4.378 21.213-4.04l-13.132-14.143-9.092 5.05c-3.905 4.647-10.663 3.59-17.17 3.03 7.697-12.814 9.166-20.1 8.08-26.263 22.032-6.487 23.083 13.828 21.213-1.01l-5.05-10.102c-5.358-9.302-10.98-1.39-18.183 1.01l-69.7 5.05-5.052 5.052 8.082 5.05 2.02 5.05c7.116-1.08 12.644.788 20.203-6.06-.78 16.467-.93 17.28 5.05 28.285L4.04 67.675c3.164 17.573 14.004 15.76 24.244 8.08z" stroke="#000"/>
    <path d="M48.485 61.614l15.152-1.01 9.09-23.233-27.273 1.01 4.04 5.05z" fill="#fff" stroke="#000"/>
    <path d="M25.193 192.613c1.822-5.92 6.935-34.395 8.338-46.438 1.245-10.667 1.523-19.816 1.16-38.036l-.478-23.992 5.156.014c7.476.02 9.437.8 10.636 4.24.737 2.117 1.53 2.862 2.608 2.45.852-.328 6.363-2.062 12.248-3.855 10.55-3.215 10.73-3.322 12.81-7.6 1.158-2.388 2.585-4.32 3.17-4.295 2.797.12 7.096 3.1 14.024 9.72l7.576 7.242-2.38 5.89c-6.5 16.1-5.98 44.06 1.47 79.042 1.706 8.01 2.954 14.71 2.774 14.89-.63.63-5.603-5.275-10.688-12.698-5.75-8.393-10.41-19.554-12.264-29.38-.682-3.612-1.573-6.938-1.98-7.392-.407-.455-4.19-.114-8.407.757-4.217.87-10.3 1.59-13.52 1.595-3.217.006-7.554.293-9.638.637-3.332.55-3.788.97-3.788 3.473 0 4.917-5.053 19.138-11.376 32.022-5.51 11.226-8.98 16.68-7.45 11.713zm41.302-56.565l14.9-2.77v-6.888c0-4.478-.402-6.887-1.15-6.887-1.265 0-24.334 3.776-27.758 4.543-1.71.383-2.382 1.718-3.354 6.657-.668 3.397-1.485 6.88-1.815 7.742-.472 1.23-.08 1.437 1.84.968 1.34-.327 9.142-1.842 17.337-3.365zM64.728 111.2c9.432-2.707 18.687-7.44 18.687-9.553 0-2.977-3.44-12.67-4.664-13.14-.654-.25-7.792 1.633-15.86 4.187l-14.672 4.642-.332 7.677c-.298 6.91-.13 7.754 1.69 8.453 2.42.93 5.747.433 15.152-2.266z" fill-opacity="0" stroke-width="14.031"/>
    <path d="M25.193 192.613c1.822-5.92 6.935-34.395 8.338-46.438 1.245-10.667 1.523-19.816 1.16-38.036l-.478-23.992 5.156.014c7.476.02 9.437.8 10.636 4.24.737 2.117 1.53 2.862 2.608 2.45.852-.328 6.363-2.062 12.248-3.855 10.55-3.215 10.73-3.322 12.81-7.6 1.158-2.388 2.585-4.32 3.17-4.295 2.797.12 7.096 3.1 14.024 9.72l7.576 7.242-2.38 5.89c-6.5 16.1-5.98 44.06 1.47 79.042 1.706 8.01 2.954 14.71 2.774 14.89-.63.63-5.603-5.275-10.688-12.698-5.75-8.393-10.41-19.554-12.264-29.38-.682-3.612-1.573-6.938-1.98-7.392-.407-.455-4.19-.114-8.407.757-4.217.87-10.3 1.59-13.52 1.595-3.217.006-7.554.293-9.638.637-3.332.55-3.788.97-3.788 3.473 0 4.917-5.053 19.138-11.376 32.022-5.51 11.226-8.98 16.68-7.45 11.713zm41.302-56.565l14.9-2.77v-6.888c0-4.478-.402-6.887-1.15-6.887-1.265 0-24.334 3.776-27.758 4.543-1.71.383-2.382 1.718-3.354 6.657-.668 3.397-1.485 6.88-1.815 7.742-.472 1.23-.08 1.437 1.84.968 1.34-.327 9.142-1.842 17.337-3.365zM64.728 111.2c9.432-2.707 18.687-7.44 18.687-9.553 0-2.977-3.44-12.67-4.664-13.14-.654-.25-7.792 1.633-15.86 4.187l-14.672 4.642-.332 7.677c-.298 6.91-.13 7.754 1.69 8.453 2.42.93 5.747.433 15.152-2.266z" fill-opacity="0" stroke-width="14.031"/>
    <path d="M25.193 192.613c1.822-5.92 6.935-34.395 8.338-46.438 1.245-10.667 1.523-19.816 1.16-38.036l-.478-23.992 5.156.014c7.476.02 9.437.8 10.636 4.24.737 2.117 1.53 2.862 2.608 2.45.852-.328 6.363-2.062 12.248-3.855 10.55-3.215 10.73-3.322 12.81-7.6 1.158-2.388 2.585-4.32 3.17-4.295 2.797.12 7.096 3.1 14.024 9.72l7.576 7.242-2.38 5.89c-6.5 16.1-5.98 44.06 1.47 79.042 1.706 8.01 2.954 14.71 2.774 14.89-.63.63-5.603-5.275-10.688-12.698-5.75-8.393-10.41-19.554-12.264-29.38-.682-3.612-1.573-6.938-1.98-7.392-.407-.455-4.19-.114-8.407.757-4.217.87-10.3 1.59-13.52 1.595-3.217.006-7.554.293-9.638.637-3.332.55-3.788.97-3.788 3.473 0 4.917-5.053 19.138-11.376 32.022-5.51 11.226-8.98 16.68-7.45 11.713zm41.302-56.565l14.9-2.77v-6.888c0-4.478-.402-6.887-1.15-6.887-1.265 0-24.334 3.776-27.758 4.543-1.71.383-2.382 1.718-3.354 6.657-.668 3.397-1.485 6.88-1.815 7.742-.472 1.23-.08 1.437 1.84.968 1.34-.327 9.142-1.842 17.337-3.365zM64.728 111.2c9.432-2.707 18.687-7.44 18.687-9.553 0-2.977-3.44-12.67-4.664-13.14-.654-.25-7.792 1.633-15.86 4.187l-14.672 4.642-.332 7.677c-.298 6.91-.13 7.754 1.69 8.453 2.42.93 5.747.433 15.152-2.266z" fill-opacity="0" stroke-width="14.031"/>
    <path d="M25.193 192.613c1.822-5.92 6.935-34.395 8.338-46.438 1.245-10.667 1.523-19.816 1.16-38.036l-.478-23.992 5.156.014c7.476.02 9.437.8 10.636 4.24.737 2.117 1.53 2.862 2.608 2.45.852-.328 6.363-2.062 12.248-3.855 10.55-3.215 10.73-3.322 12.81-7.6 1.158-2.388 2.585-4.32 3.17-4.295 2.797.12 7.096 3.1 14.024 9.72l7.576 7.242-2.38 5.89c-6.5 16.1-5.98 44.06 1.47 79.042 1.706 8.01 2.954 14.71 2.774 14.89-.63.63-5.603-5.275-10.688-12.698-5.75-8.393-10.41-19.554-12.264-29.38-.682-3.612-1.573-6.938-1.98-7.392-.407-.455-4.19-.114-8.407.757-4.217.87-10.3 1.59-13.52 1.595-3.217.006-7.554.293-9.638.637-3.332.55-3.788.97-3.788 3.473 0 4.917-5.053 19.138-11.376 32.022-5.51 11.226-8.98 16.68-7.45 11.713zm41.302-56.565l14.9-2.77v-6.888c0-4.478-.402-6.887-1.15-6.887-1.265 0-24.334 3.776-27.758 4.543-1.71.383-2.382 1.718-3.354 6.657-.668 3.397-1.485 6.88-1.815 7.742-.472 1.23-.08 1.437 1.84.968 1.34-.327 9.142-1.842 17.337-3.365zM64.728 111.2c9.432-2.707 18.687-7.44 18.687-9.553 0-2.977-3.44-12.67-4.664-13.14-.654-.25-7.792 1.633-15.86 4.187l-14.672 4.642-.332 7.677c-.298 6.91-.13 7.754 1.69 8.453 2.42.93 5.747.433 15.152-2.266z" fill-opacity="0" stroke-width="14.031"/>
    <path d="M25.193 192.613c1.822-5.92 6.935-34.395 8.338-46.438 1.245-10.667 1.523-19.816 1.16-38.036l-.478-23.992 5.156.014c7.476.02 9.437.8 10.636 4.24.737 2.117 1.53 2.862 2.608 2.45.852-.328 6.363-2.062 12.248-3.855 10.55-3.215 10.73-3.322 12.81-7.6 1.158-2.388 2.585-4.32 3.17-4.295 2.797.12 7.096 3.1 14.024 9.72l7.576 7.242-2.38 5.89c-6.5 16.1-5.98 44.06 1.47 79.042 1.706 8.01 2.954 14.71 2.774 14.89-.63.63-5.603-5.275-10.688-12.698-5.75-8.393-10.41-19.554-12.264-29.38-.682-3.612-1.573-6.938-1.98-7.392-.407-.455-4.19-.114-8.407.757-4.217.87-10.3 1.59-13.52 1.595-3.217.006-7.554.293-9.638.637-3.332.55-3.788.97-3.788 3.473 0 4.917-5.053 19.138-11.376 32.022-5.51 11.226-8.98 16.68-7.45 11.713zm41.302-56.565l14.9-2.77v-6.888c0-4.478-.402-6.887-1.15-6.887-1.265 0-24.334 3.776-27.758 4.543-1.71.383-2.382 1.718-3.354 6.657-.668 3.397-1.485 6.88-1.815 7.742-.472 1.23-.08 1.437 1.84.968 1.34-.327 9.142-1.842 17.337-3.365zM64.728 111.2c9.432-2.707 18.687-7.44 18.687-9.553 0-2.977-3.44-12.67-4.664-13.14-.654-.25-7.792 1.633-15.86 4.187l-14.672 4.642-.332 7.677c-.298 6.91-.13 7.754 1.69 8.453 2.42.93 5.747.433 15.152-2.266zM130.526 186.714c-7.384-2.633-12.562-9.52-15.747-20.945-1.503-5.39-1.448-7.847.857-38.444L118.1 94.64l-2.85-5.827c-1.57-3.205-3.07-8.116-3.34-10.914-.565-5.884-.838-5.864 10.52-.767 6.252 2.804 6.388 2.818 18.744 1.92 6.846-.497 14.348-.918 16.67-.935 3.488-.026 4.59-.54 6.305-2.952l2.08-2.92-2.77-1.866c-2.336-1.574-4.818-1.867-15.9-1.878-10.856-.01-13.745-.34-16.667-1.895-5.653-3.01-8.924-6.672-11.342-12.697-1.99-4.964-2.257-7.458-2.275-21.28l-.02-15.657-3.23-4.653-3.232-4.652 8.282-1.157c10.982-1.534 13.963-1.46 16.643.418 2.92 2.046 2.865 2.39-1.143 7.085-2.647 3.1-3.5 5.142-3.897 9.326-.35 3.67-.157 5.235.61 4.972.616-.21 7.86-2.82 16.096-5.8 14.29-5.166 15.065-5.588 16.914-9.214 1.844-3.614 2.088-3.748 4.977-2.74 3.513 1.224 10.88 9.168 11.763 12.685.78 3.105-1.835 6.023-6.608 7.376-13.408 3.798-24.12 5.276-34.2 4.718-10.262-.57-10.354-.555-9.903 1.642.25 1.22.75 4.483 1.113 7.254 1.222 9.35 4.594 13.147 12.66 14.253 6.41.878 12.446-1.042 21.2-6.745l7.64-4.976 4.483 1.547c2.465.852 5.56 2.375 6.88 3.385l2.397 1.837-3.69 19.553c-2.31 12.236-4.304 20.232-5.332 21.367-1.902 2.103-8.35 2.453-11.74.64-2.007-1.076-24.95-3.765-32.773-3.843l-3.283-.033V112.657l3.283-.56c1.806-.308 7.72-.868 13.143-1.244 9.19-.638 9.9-.843 10.446-3.015.444-1.77 1.54-2.494 4.556-3.003 3.6-.608 4.643-.213 11.144 4.22 3.945 2.69 7.38 5.423 7.632 6.074.673 1.734-1.416 5.14-4.32 7.042-2.4 1.573-2.896 1.515-9.65-1.134-6.785-2.663-7.643-2.762-18.392-2.112-6.202.375-12.753.936-14.56 1.247l-3.282.565v21.767l5.613.7c3.087.387 9.233.702 13.66.702 8.94 0 14.067-2.034 15.035-5.966.52-2.106.772-2.022 5.846 1.94 4.804 3.75 5.303 4.516 5.303 8.132v3.992l-23.727-.734-23.726-.733 1.597 5.444c2.27 7.737 4.397 11.917 6.688 13.143 2.11 1.13 35.296-.51 37.52-1.852.628-.38 3.93-2.872 7.338-5.54s6.476-4.85 6.82-4.85c.34 0 .62 2.637.62 5.862 0 5.374.296 6.148 3.537 9.29 1.944 1.884 3.535 3.81 3.535 4.28 0 .468-.96 2.15-2.132 3.736-1.846 2.496-3.032 2.976-8.84 3.57-3.687.38-12.753 1.563-20.145 2.632-15.632 2.26-28.37 2.435-33.9.464z" fill-opacity="0" stroke-width="14.031"/>
</svg>
