<svg xmlns="http://www.w3.org/2000/svg" version="1" width="400" height="400" viewBox="0 0 300.000000 300.000000">
    <path d="M180.9 2.6L176.3 4l.5 4.9c1.2 12.7-11.3 42.4-29.6 70.2-9.6 14.5-26.2 37.2-28.3 38.4-2.8 1.8.4-5.2 4.2-9 6-6.2 5.5-8.4-3.4-17.3-6.7-6.6-7.7-7.3-10.8-7-2.9.3-3.8 1-5.9 5-1.4 2.6-2.8 4.9-3.1 5.2-.3.3-4.7 1.2-9.7 1.9L81 97.7V73c0-26.6.8-32.6 5.5-40.6 2.4-4.1 2.4-4.2.5-5.5-1-.8-7.2-6.2-13.8-12.1L61.3 4.1l-4.9 3.1-5 3 2.8 8.2C59.1 33 60 41.6 60 72.1v27.8l-4.2.5c-11.7 1.5-10.5 2.1-16.9-8.4-3.2-5.2-6-9.9-6.1-10.3-.3-.7-6.6 1.8-12.6 4.9-.2.1.4 2.6 1.3 5.6 6.1 20.3 7.2 68 1.8 79.3-1.6 3.4-1.6 3.5 1.7 9.7 6.4 12 11.1 18.8 13.6 19.4 5.3 1.4 6.9-1.2 8-12.9l.7-7.5 3.6-.6c2-.3 4.8-.6 6.4-.6H60v48.6l-16.2 5.2C27.5 238 9.2 243 6.1 243c-2.7 0-3.8 1.3-4.5 5.2l-.7 3.7 11 5.5 10.9 5.5 7.4-3.3c7.3-3.4 71.3-27.6 72.9-27.6.4 0 1.7 2.8 2.7 6.2 1.7 5.9 2 6.3 5.6 7.2 3.5.8 4.1.6 5.7-1.5 2.9-3.7 7.6-13 8.9-17.4 1.1-3.8 1-4.4-2-9.5-3.6-6.2-15.3-22.7-19.8-28l-2.9-3.4-4.1 1.8c-6.5 3-7.1 6.3-2.7 15.9 1.9 4.2 3.8 8.9 4.1 10.5.6 2.7.5 2.8-7.9 5-4.7 1.2-8.8 2.2-9.1 2.2-.3 0-.6-10.1-.6-22.4v-22.3l8.8-1.1c29.8-3.8 26.8-3.1 28.5-6.6 1.4-3.1 1.4-3.5-1.5-8.5-2.7-4.6-2.9-5.8-2.4-10.5.7-4.9 1.2-5.8 8.1-12.6 4.1-4.1 7.8-7 8.2-6.6.4.4.9 29.6 1.1 64.8.3 66.8.4 66-3.9 76.4-1.2 3-.9 3.5 6 14.7 4 6.4 7.9 12.1 8.6 12.7.8.6 2.6 1 4.2.8 4.5-.5 5.6-4.3 6.3-20.8l.5-14.4 9 10.4c5 5.8 11 13.3 13.5 16.8 4.3 6 4.6 6.2 8 5.6 4.7-.8 4.6-.6 6.9-7.7 4.9-15 5.1-18.8 5.1-85.7 0-60.1.1-62.9 1.9-65.1l1.9-2.3 1.3 3.9c2 6.4 2.5 58 .6 64.6l-1.5 5.1 6.3 9.8c3.5 5.3 7.1 10 8.1 10.4 2.9 1.1 6.2-2 7.9-7.6 1.2-4.2 1.5-11.2 1.5-36.5 0-26.3.3-31.9 1.6-35.2 1.5-3.8 1.5-4.2-.4-6.8-1.1-1.5-5.4-6.1-9.5-10.2l-7.5-7.4-3.1 2.2-3.1 2.3-7.5-7.2c-6.9-6.8-7.6-7.2-10.8-6.6-2.7.5-4.1 1.7-6.4 5.4l-3 4.8-11.4 1.7c-6.3.9-12 1.7-12.6 1.7-.7 0-3.1-2.7-5.4-6.1-4.6-6.8-4.5-8 1.2-13.5l2.7-2.6 4.2 2.5 4.1 2.4 10.9-2.3c6-1.3 20.6-4.2 32.6-6.4 20.5-3.8 23.3-4.7 23.4-7.7 0-.6.3-1.8.6-2.6.4-1.1-1.8-3.3-7.1-7.3l-7.6-5.7-10.2 3.1c-15.4 4.7-38.7 10-38.7 8.7 0-.3 1.7-3.2 3.8-6.3 4-5.9 12.5-20.2 18.4-31l3.5-6.2 20.4 22.7c11.3 12.6 25.6 28.6 31.8 35.8 6.3 7.1 12.1 13.8 13.1 14.8 1.6 1.8 2 1.8 9.6-.2 8.1-2 17.6-3.5 29.7-4.6l6.7-.7v-12.7l-5.7-.6c-12.6-1.3-26-3.8-29.8-5.4-10.6-4.7-27.8-20.7-55.9-51.9-11.7-13.1-11.8-13.2-10.2-15.7.9-1.3 2.5-2.9 3.6-3.5 1-.6 2.2-2.6 2.6-4.4.5-3.2 0-4.2-7.3-13-4.3-5.2-8.2-9.5-8.8-9.5-.5 0-3.1.7-5.6 1.5zM97.6 116.2c-.3 1.3-1.3 10.2-2.2 19.8-.9 9.6-2 17.8-2.3 18.2-.3.3-3.2.9-6.4 1.3l-5.7.7.2-19.8.3-19.9 7.5-1.1c4.1-.6 7.8-1.2 8.3-1.3.4 0 .5.9.3 2.1zM60 139v20h-3.4c-1.8 0-4.8.3-6.5.6l-3.1.6v-40.1l4.3-.4c2.3-.2 5.2-.4 6.5-.5l2.2-.2v20zm116 19.6v10.6l-5.1-3.7c-3.3-2.4-5.5-3.3-6.2-2.7-1 .8-10.3 4.2-11.4 4.2-.2 0-.3-3.5-.3-7.9v-7.9l9.3-1.5c15.2-2.4 13.7-3.4 13.7 8.9zm0 30.9c0 5.2-.3 9.5-.7 9.5-.5-.1-2.3-1.4-4.1-2.9l-3.3-2.8-5.7 2.3c-9 3.7-9.3 3.6-9-4.3l.3-6.7 9.5-2.2c14.2-3.3 13-3.9 13 7.1zm0 48c0 14-.3 25.5-.6 25.5-.4 0-3.4-2.2-6.8-4.8-8.3-6.5-8.1-6.4-12.1-5.3l-3.5 1 .2-18.2.3-18.1 10-2.7c5.5-1.5 10.6-2.8 11.3-2.8.9-.1 1.2 5.6 1.2 25.4z"/>
    <path d="M226.8 117.1l-3.8 4 2 2.9c1.1 1.6 3.3 5.5 4.8 8.7l2.7 5.8.3 63.8c.1 35.1-.1 63.6-.5 63.4-.4-.3-5.1-3.9-10.3-8.1-11.8-9.4-15.3-9.9-19-2.6l-1.9 3.8 6.2 6.9c9.5 10.3 19.7 22.1 24.7 28.5 4.2 5.4 4.7 5.8 8.7 5.8 4 0 4.2-.1 6.8-5.4 6-12.2 5.8-10.4 6.4-82.6.6-65.5.7-66.6 2.8-72.4l2.3-5.9-4.7-4.1c-2.6-2.3-7.9-6.9-11.8-10.3-8.5-7.6-10.3-7.8-15.7-2.2z"/>
</svg>
