<svg xmlns="http://www.w3.org/2000/svg" version="1.0" width="300.000000pt" height="300.000000pt" viewBox="0 0 300.000000 300.000000" preserveAspectRatio="xMidYMid meet">
    <metadata>
        Created by potrace 1.11, written by Peter Selinger 2001-2013
    </metadata>
    <g transform="translate(0.000000,300.000000) scale(0.100000,-0.100000)" fill="#000000" stroke="none">
        <path d="M1809 2974 l-46 -14 5 -49 c12 -127 -113 -424 -296 -702 -96 -145 -262 -372 -283 -384 -28 -18 4 52 42 90 60 62 55 84 -34 173 -67 66 -77 73 -108 70 -29 -3 -38 -10 -59 -50 -14 -26 -28 -49 -31 -52 -3 -3 -47 -12 -97 -19 l-92 -14 0 247 c0 266 8 326 55 406 24 41 24 42 5 55 -10 8 -72 62 -138 121 l-119 107 -49 -31 -50 -30 28 -82 c49 -146 58 -232 58 -537 l0 -278 -42 -5 c-117 -15 -105 -21 -169 84 -32 52 -60 99 -61 103 -3 7 -66 -18 -126 -49 -2 -1 4 -26 13 -56 61 -203 72 -680 18 -793 -16 -34 -16 -35 17 -97 64 -120 111 -188 136 -194 53 -14 69 12 80 129 l7 75 36 6 c20 3 48 6 64 6 l27 0 0 -243 0 -243 -162 -52 c-163 -52 -346 -102 -377 -102 -27 0 -38 -13 -45 -52 l-7 -37 110 -55 109 -55 74 33 c73 34 713 276 729 276 4 0 17 -28 27 -62 17 -59 20 -63 56 -72 35 -8 41 -6 57 15 29 37 76 130 89 174 11 38 10 44 -20 95 -36 62 -153 227 -198 280 l-29 34 -41 -18 c-65 -30 -71 -63 -27 -159 19 -42 38 -89 41 -105 6 -27 5 -28 -79 -50 -47 -12 -88 -22 -91 -22 -3 0 -6 101 -6 224 l0 223 88 11 c298 38 268 31 285 66 14 31 14 35 -15 85 -27 46 -29 58 -24 105 7 49 12 58 81 126 41 41 78 70 82 66 4 -4 9 -296 11 -648 3 -668 4 -660 -39 -764 -12 -30 -9 -35 60 -147 40 -64 79 -121 86 -127 8 -6 26 -10 42 -8 45 5 56 43 63 208 l5 144 90 -104 c50 -58 110 -133 135 -168 43 -60 46 -62 80 -56 47 8 46 6 69 77 49 150 51 188 51 857 0 601 1 629 19 651 l19 23 13 -39 c20 -64 25 -580 6 -646 l-15 -51 63 -98 c35 -53 71 -100 81 -104 29 -11 62 20 79 76 12 42 15 112 15 365 0 263 3 319 16 352 15 38 15 42 -4 68 -11 15 -54 61 -95 102 l-75 74 -31 -22 -31 -23 -75 72 c-69 68 -76 72 -108 66 -27 -5 -41 -17 -64 -54 l-30 -48 -114 -17 c-63 -9 -120 -17 -126 -17 -7 0 -31 27 -54 61 -46 68 -45 80 12 135 l27 26 42 -25 41 -24 109 23 c60 13 206 42 326 64 205 38 233 47 234 77 0 6 3 18 6 26 4 11 -18 33 -71 73 l-76 57 -102 -31 c-154 -47 -387 -100 -387 -87 0 3 17 32 38 63 40 59 125 202 184 310 l35 62 204 -227 c113 -126 256 -286 318 -358 63 -71 121 -138 131 -148 16 -18 20 -18 96 2 81 20 176 35 297 46 l67 7 0 63 0 64 -57 6 c-126 13 -260 38 -298 54 -106 47 -278 207 -559 519 -117 131 -118 132 -102 157 9 13 25 29 36 35 10 6 22 26 26 44 5 32 0 42 -73 130 -43 52 -82 95 -88 95 -5 0 -31 -7 -56 -15z m-833 -1136 c-3 -13 -13 -102 -22 -198 -9 -96 -20 -178 -23 -182 -3 -3 -32 -9 -64 -13 l-57 -7 2 198 3 199 75 11 c41 6 78 12 83 13 4 0 5 -9 3 -21z m-376 -228 l0 -200 -34 0 c-18 0 -48 -3 -65 -6 l-31 -6 0 200 0 201 43 4 c23 2 52 4 65 5 l22 2 0 -200z m1160 -196 l0 -106 -51 37 c-33 24 -55 33 -62 27 -10 -8 -103 -42 -114 -42 -2 0 -3 35 -3 79 l0 79 93 15 c152 24 137 34 137 -89z m0 -309 c0 -52 -3 -95 -7 -95 -5 1 -23 14 -41 29 l-33 28 -57 -23 c-90 -37 -93 -36 -90 43 l3 67 95 22 c142 33 130 39 130 -71z m0 -480 c0 -140 -3 -255 -6 -255 -4 0 -34 22 -68 48 -83 65 -81 64 -121 53 l-35 -10 2 182 3 181 100 27 c55 15 106 28 113 28 9 1 12 -56 12 -254z"/>
        <path d="M2268 1829 l-38 -40 20 -29 c11 -16 33 -55 48 -87 l27 -58 3 -638 c1 -351 -1 -636 -5 -634 -4 3 -51 39 -103 81 -118 94 -153 99 -190 26 l-19 -38 62 -69 c95 -103 197 -221 247 -285 42 -54 47 -58 87 -58 40 0 42 1 68 54 60 122 58 104 64 826 6 655 7 666 28 724 l23 59 -47 41 c-26 23 -79 69 -118 103 -85 76 -103 78 -157 22z"/>
    </g>
</svg>