<svg xmlns="http://www.w3.org/2000/svg" width="200" height="200" version="1">
    <path d="M11.604 182.05C5.948 174.524 0 163.585 0 160.71c0-1.584 2.824-1.894 8.77-.964 7.636 1.195 10.157.49 19.51-5.456 16.368-10.403 26.22-14.992 28.062-13.07.916.958.286 1.793-.97 2.662-1.03.712-1.795 2.58-2.638 3.688-.928 1.222-3.76 6.784-8.356 11.692-4.595 4.91-10.824 11.587-13.84 14.842-3.018 3.255-5.018 7.11-4.447 8.566.588 1.496-.96 3.172-3.56 3.854-6.42 1.685-6.24 1.76-10.926-4.475zM82.44 171.6c-1.257-2.296-2.284-6.914-2.284-10.262 0-3.35-1.376-10.606-3.058-16.126-1.68-5.52-4.625-20.25-6.54-32.733-1.916-12.484-5.208-25.637-7.315-29.23s-3.277-7.075-2.6-7.737c2.38-2.326 9.216-1.164 17.517 2.98 8.036 4.01 8.885 4.045 20.482.865 6.655-1.824 14.235-3.815 16.846-4.423 2.61-.61 4.78-2.16 4.823-3.446.043-1.287.28-14.64.528-29.673.15-9.112 1.327-16.214.45-27.334-1.32-3.725 6.33-1.295 9.09-.005 7.024 3.285 5.24 4.84 10.036 8.403 3.937 4.256 4.014 3.36-2.987 34.923-1.175 5.294-1.27 10.216-.224 11.453 1.046 1.236 9.36 2.067 19.327 1.93 20.25-.275 31.975 3.74 39.325 13.462l3.407 4.507c1.12 1.017.943 2.51-.377 4.42l-2.685 4.9c-2.337 4.265-4.248 10.834-4.248 14.6 0 3.767-2.315 14.922-5.144 24.79-4.79 16.706-6.918 26.314-7.34 33.126-.128 2.083-2.44 3.592-8.31 2.632-19.455-3.18-33.62-4.784-46.514-2.698-7.646 1.238-19.757 2.835-26.912 3.55-11.65 1.164-13.248.863-15.293-2.874zm37.266-13.397c1.675-1.02 2.637-6.547 2.637-15.138v-13.53c-1.073-.146-3.867.97-5.8 1.455-3.19.8-9.712 1.92-14.49 2.49-2.897.345-8.722.404-8.69 1.036l-1.223 11.592c-.673 6.375-.358 12.61.7 13.858 2.056 2.424 22.162 1.105 26.866-1.763zm38.496-3.392c4.854-1.248 5.325-2.432 5.925-14.866.742-15.384-.03-16.035-19.068-16.09-8.983-.025-10.117.505-11.348 5.303-1.4 5.458.155 24.22 2.287 27.595 1.136 1.8 11.025.935 22.202-1.94zm-45.35-40.652c3.48-.64 7.44-2.03 8.798-3.088 2.964-2.306 2.648-20.174-.362-20.447-4.697-.426-21.3.47-24.26 1.31-2.412.683-3.062 3.727-2.73 12.785.242 6.538.48 12.228.53 12.644.052.416 2.704.127 5.894-.64 3.19-.77 8.648-1.923 12.13-2.564zm57.018-15.475c2.355-13.636-4.023-16.73-26.75-12.974-4.466.737-8.2 2.188-8.297 3.223-.096 1.035-.248 5.363-.337 9.62l-.08 9.08c-.033 1.834 8.486-.896 12.73-1.344 7.045 0 12.598 1.164 13.606 1.642 5.846 2.766 8.507-1.454 9.128-9.25zM10.02 114.15c-2.408-.614-3.692-2.952-3.692-6.723 0-3.18-.593-8.682-1.318-12.228-1.005-4.917-.57-6.45 1.828-6.45 5.26 0 25.152 9.263 29.63 12.756 2.196 1.712 4.925 3.216 5.926 3.75 1.038.557 1.565.93.848 2.065-.717 1.135-3.505 2.064-6.195 2.064-2.69 0-8.3 1.393-12.464 3.095-7.817 3.193-8.364 3.256-14.564 1.67zM25.747 58.3c-2.66-1.75-7.698-3.104-11.194-3.007-7.266.202-7.618-.46-8.775-16.575l-.706-9.815c-.155-1.55-.583-2.248 1.64-2.05h5.168c4.73 0 9.275 1.993 14.202 6.224 5.89 5.06 7.39 7.984 8.01 15.628.9 11.06-1.655 13.997-8.346 9.594z"/>
</svg>
