<svg xmlns:svg="http://www.w3.org/2000/svg" xmlns="http://www.w3.org/2000/svg" xmlns:sodipodi="http://sodipodi.sourceforge.net/DTD/sodipodi-0.dtd" xmlns:inkscape="http://www.inkscape.org/namespaces/inkscape" width="200" height="200" id="svg2" sodipodi:version="0.32" inkscape:version="0.46" version="1.0" sodipodi:docname="Toad Symbol.svg" inkscape:output_extension="org.inkscape.output.svg.inkscape">
    <defs id="defs4"/>
    <sodipodi:namedview id="base" pagecolor="#ffffff" bordercolor="#666666" borderopacity="1.0" gridtolerance="10000" guidetolerance="10" objecttolerance="10" inkscape:pageopacity="0.0" inkscape:pageshadow="2" inkscape:zoom="1" inkscape:cx="194.78624" inkscape:cy="117.11273" inkscape:document-units="px" inkscape:current-layer="layer1" showgrid="false" inkscape:window-width="1280" inkscape:window-height="930" inkscape:window-x="-4" inkscape:window-y="-4"/>
    <g inkscape:label="Layer 1" inkscape:groupmode="layer" id="layer1" transform="translate(-266.0047,-354.19707)">
        <path style="fill:#000000" d="M 277.60855,536.24579 C 271.95302,528.72208 266.0047,517.78302 266.0047,514.90607 C 266.0047,513.32337 268.82873,513.01334 274.77437,513.94329 C 282.41102,515.13775 284.93192,514.43281 294.28597,508.48706 C 310.65231,498.08406 320.50552,493.49522 322.34685,495.41852 C 323.26277,496.37521 322.63302,497.20975 321.37544,498.07905 C 320.34534,498.79109 319.58154,500.65757 318.73874,501.76736 C 317.81092,502.98913 314.97861,508.55061 310.38293,513.4591 C 305.78722,518.36761 299.5588,525.04656 296.54197,528.30123 C 293.52514,531.55589 291.52431,535.41038 292.09565,536.86674 C 292.68283,538.36342 291.13445,540.03937 288.53437,540.72145 C 282.11326,542.40591 282.29513,542.48041 277.60855,536.24579 z M 348.44404,525.79699 C 347.18806,523.50147 346.16044,518.8835 346.16044,515.53486 C 346.16044,512.1862 344.78463,504.92956 343.10307,499.40902 C 341.42151,493.88846 338.47819,479.15853 336.56232,466.67585 C 334.64647,454.19318 331.35507,441.04019 329.24809,437.44702 C 327.14111,433.85385 325.97119,430.37211 326.64826,429.70982 C 329.02637,427.38369 335.86353,428.54652 344.16482,432.68895 C 352.20022,436.6987 353.04972,436.73464 364.64706,433.55544 C 371.30159,431.73124 378.88192,429.74052 381.49225,429.13166 C 384.10259,428.5228 386.2731,426.97228 386.31562,425.68609 C 386.35813,424.3999 386.59543,411.04727 386.84296,396.01359 C 386.99298,386.90227 388.17015,379.80038 387.293,368.67963 C 385.97224,364.95478 393.62159,367.38477 396.38228,368.6755 C 403.40719,371.95993 401.62394,373.5162 406.41902,377.0776 C 410.35581,381.3326 410.43246,380.43645 403.43128,411.99968 C 402.25681,417.29447 402.16068,422.21638 403.20756,423.45332 C 404.2537,424.6894 412.56695,425.51975 422.53518,425.38383 C 442.78412,425.10772 454.50979,429.12165 461.8595,438.84537 L 465.26623,443.3525 C 466.38638,444.36882 466.20955,445.86086 464.88966,447.77217 L 462.20426,452.67306 C 459.86805,456.93663 457.95661,463.50653 457.95661,467.27285 C 457.95661,471.03918 455.64201,482.1945 452.81306,492.06243 C 448.02382,508.76826 445.8952,518.37602 445.4739,525.18846 C 445.34514,527.27046 443.03322,528.779 437.16155,527.81945 C 417.70809,524.64038 403.54126,523.03522 390.64861,525.12156 C 383.00228,526.35893 370.89201,527.95615 363.73691,528.67099 C 352.08817,529.83473 350.48881,529.53417 348.44404,525.79699 z M 385.71098,512.39965 C 387.38522,511.379 388.34768,505.85348 388.34768,497.26235 L 388.34768,483.73245 C 387.27446,483.5862 384.48052,484.7023 382.54693,485.18723 C 379.35652,485.98734 372.83598,487.10789 368.05684,487.67732 C 365.16039,488.02245 359.33604,488.08117 359.36749,488.71267 L 358.14436,500.30472 C 357.47164,506.68033 357.78636,512.91641 358.84376,514.16265 C 360.90081,516.58706 381.0063,515.26775 385.71098,512.39965 z M 424.20683,509.00787 C 429.06028,507.7589 429.5321,506.57496 430.13154,494.14127 C 430.87325,478.75682 430.10154,478.10565 411.0635,478.05192 C 402.08146,478.02657 400.94755,478.55643 399.71642,483.35436 C 398.31604,488.81197 399.87123,507.57401 402.00375,510.94908 C 403.14086,512.74875 413.02976,511.88416 424.20683,509.00787 z M 378.85555,468.35486 C 382.336,467.71367 386.29556,466.32408 387.65458,465.26692 C 390.61838,462.96144 390.30238,445.09346 387.293,444.8204 C 382.59541,444.39419 365.99315,445.28992 363.03291,446.12929 C 360.62031,446.81336 359.97054,449.85733 360.30373,458.91475 C 360.54424,465.45292 360.78264,471.14271 360.8335,471.5587 C 360.88436,471.97468 363.53631,471.6863 366.72672,470.91786 C 369.91713,470.1494 375.3751,468.99606 378.85555,468.35486 z M 435.87476,452.88 C 438.23005,439.24388 431.85168,436.15012 409.12584,439.90571 C 404.65874,440.64392 400.92475,442.09476 400.82807,443.12981 C 400.73138,444.16484 400.57959,448.49344 400.49075,452.7489 L 400.41008,461.83105 C 400.3773,463.66408 408.89642,460.93442 413.1396,460.48609 C 420.18531,460.48609 425.73843,461.65142 426.74692,462.12871 C 432.59261,464.89541 435.25351,460.67501 435.87476,452.88 z M 276.02417,468.34847 C 273.61648,467.73305 272.33279,465.39468 272.33279,461.62435 C 272.33279,458.44503 271.73953,452.94233 271.01443,449.39612 C 270.00926,444.48006 270.44351,442.94845 272.84251,442.94845 C 278.10419,442.94845 297.99433,452.20979 302.47337,455.70284 C 304.66858,457.4148 307.39763,458.91908 308.39859,459.45447 C 309.43692,460.00986 309.96363,460.38294 309.24661,461.51773 C 308.5296,462.65251 305.74187,463.58098 303.05165,463.58098 C 300.36141,463.58098 294.75266,464.97367 290.58771,466.67585 C 282.77098,469.87051 282.22419,469.9333 276.02417,468.34847 z M 291.75235,412.49656 C 289.09141,410.74592 284.05447,409.39311 280.55917,409.49031 C 273.29252,409.6924 272.94119,409.0288 271.7834,392.91459 L 271.07822,383.0997 C 270.92407,381.55084 270.49545,380.85164 272.7184,381.05089 L 277.88659,381.05089 C 282.6155,381.05089 287.16196,383.04317 292.08867,387.27432 C 297.97862,392.33271 299.47831,395.25819 300.09981,402.90172 C 300.99909,413.96149 298.44367,416.89878 291.75235,412.49656 z" id="path2402" sodipodi:nodetypes="cssssssssssccsssssssssccscsssccccssscssccccccccsccssssccssssssccsscccsccssssssssccsccccssc"/>
    </g>
</svg>