<svg xmlns:dc="http://purl.org/dc/elements/1.1/" xmlns:cc="http://creativecommons.org/ns#" xmlns:rdf="http://www.w3.org/1999/02/22-rdf-syntax-ns#" xmlns:svg="http://www.w3.org/2000/svg" xmlns="http://www.w3.org/2000/svg" xmlns:xlink="http://www.w3.org/1999/xlink" xmlns:sodipodi="http://sodipodi.sourceforge.net/DTD/sodipodi-0.dtd" xmlns:inkscape="http://www.inkscape.org/namespaces/inkscape" id="svg2" sodipodi:version="0.32" inkscape:version="0.91 r13725" width="300" height="299.99991" version="1.0" sodipodi:docname="Rinne_Sharingan.svg" inkscape:output_extension="org.inkscape.output.svg.inkscape">
    <metadata id="metadata7">
        <rdf:RDF>
            <cc:Work rdf:about="">
                <dc:format>image/svg+xml</dc:format>
                <dc:type rdf:resource="http://purl.org/dc/dcmitype/StillImage"/>
                <dc:title/>
            </cc:Work>
        </rdf:RDF>
    </metadata>
    <defs id="defs5">
        <radialGradient id="fondo" r="147" gradientUnits="userSpaceOnUse" fy="150" fx="150" cy="150" cx="150" gradientTransform="matrix(1.0204081,0,0,1.0204081,-3.0612193,-3.0613109)">
            <stop id="fondo 7" offset="0" style="stop-color:#600;stop-opacity:1"/>
            <stop offset="0.25" id="fondo 6" style="stop-color:#c30000;stop-opacity:1"/>
            <stop id="fondo 5" offset="0.375" style="stop-color:#ab0000;stop-opacity:1"/>
            <stop offset="0.5" id="fondo 4" style="stop-color:#c30000;stop-opacity:1"/>
            <stop id="fondo 3" offset="0.63" style="stop-color:#a00000;stop-opacity:1"/>
            <stop offset="0.75" id="fondo 2" style="stop-color:#c30000;stop-opacity:1"/>
            <stop offset="1" id="fondo 1" style="stop-color:#a00000;stop-opacity:1"/>
        </radialGradient>
    </defs>
    <sodipodi:namedview inkscape:window-height="657" inkscape:window-width="1280" inkscape:pageshadow="2" inkscape:pageopacity="0.0" guidetolerance="10.0" gridtolerance="10.0" objecttolerance="10.0" borderopacity="1.0" bordercolor="#666666" pagecolor="#ffffff" id="namedview4066" showgrid="false" inkscape:zoom="1.0619507" inkscape:cx="110.70005" inkscape:cy="161.9654" inkscape:window-x="-8" inkscape:window-y="-8" inkscape:current-layer="svg2" inkscape:window-maximized="1">
        <inkscape:grid type="xygrid" id="grid2605" visible="true" enabled="true"/>
    </sodipodi:namedview>
    <circle id="base" cx="150" cy="149.99991" r="150" style="fill:url(#fondo);stroke:#000000;stroke-width:0;stroke-miterlimit:4;stroke-dasharray:none"/>
    <path style="fill:#000000" d="m 164,150 c 0,6.59966 -7.40034,14 -14,14 -6.59966,0 -14,-7.40034 -14,-14 0,-6.59966 7.40034,-14 14,-14 6.59966,0 14,7.40034 14,14 z" id="centro" inkscape:connector-curvature="0" sodipodi:nodetypes="aaaaa"/>
    <g id="iris">
        <circle id="iris1" cx="150" cy="150" r="50" sodipodi:cx="150" sodipodi:cy="150" sodipodi:rx="50" sodipodi:ry="50" style="fill:none;stroke:#0a0000;stroke-width:2.50000000000000000px;stroke-opacity:1"/>
        <circle style="fill:none;stroke:#0a0000;stroke-width:2.50000000000000000px;stroke-opacity:1" sodipodi:ry="87" sodipodi:rx="87" sodipodi:cy="150" sodipodi:cx="150" r="87" cy="150" cx="150" id="iris 2"/>
        <circle id="iris 3" cx="150" cy="150" r="122.5" sodipodi:cx="150" sodipodi:cy="150" sodipodi:rx="122.5" sodipodi:ry="122.5" style="fill:none;stroke:#0a0000;stroke-width:2.50000000000000000px;stroke-opacity:1"/>
    </g>
    <g id="tomoe 1">
        <path style="fill:black;stroke:black;stroke-width:1;stroke-linejoin:round" d="m 157.30532,82.667729 c -8.08498,1.425605 -13.34628,5.758173 -16.07194,12.830177 -0.64992,1.625862 -1.11497,5.413334 -0.78894,7.262314 0.93457,5.30024 6.00061,8.84234 11.31033,7.90609 5.30972,-0.93624 8.85877,-5.99743 7.92419,-11.297657 -0.83182,-4.717494 -4.93573,-8.024147 -9.57246,-8.037997 2.85972,-4.109924 7.008,-7.320355 12.00511,-8.939232 -1.5739,-0.09228 -3.18673,-0.0093 -4.80629,0.276305 z" id="tomoe 1a" inkscape:connector-curvature="0"/>
        <use x="0" y="0" xlink:href="#tomoe 1a" id="tomoe 1b" width="300" height="300" transform="matrix(-0.5,0.8660254,-0.8660254,-0.5,354.90381,95.096189)"/>
        <use transform="matrix(-0.5,-0.8660254,0.8660254,-0.5,95.096189,354.90381)" height="300" width="300" id="tomoe 1c" xlink:href="#tomoe 1a" y="0" x="0"/>
    </g>
    <g id="tomoe 2">
        <path inkscape:connector-curvature="0" id="tomoe 2a" d="m 145.97342,253.8582 c 7.7146,-2.80789 12.14362,-7.98825 13.59983,-15.42612 0.35772,-1.71402 0.15802,-5.52471 -0.48413,-7.28898 -1.84075,-5.05743 -7.4449,-7.66601 -12.51138,-5.82196 -5.06648,1.84404 -7.68274,7.44462 -5.84199,12.50204 1.63837,4.50138 6.25413,7.04516 10.82282,6.25364 -2.10259,4.54407 -5.63037,8.42607 -10.27044,10.88809 1.56601,-0.18243 3.13992,-0.54424 4.68529,-1.10671 z" style="fill:black;stroke:black;stroke-width:1;stroke-linejoin:round"/>
        <use x="0" y="0" xlink:href="#tomoe 2a" id="tomoe 2b" width="300" height="300" transform="matrix(-0.5,0.8660254,-0.8660254,-0.5,354.90381,95.096189)"/>
        <use transform="matrix(-0.5,-0.8660254,0.8660254,-0.5,95.096189,354.90381)" height="300" width="300" id="tomoe 2c" xlink:href="#tomoe 2a" y="0" x="0"/>
    </g>
    <g id="tomoe 3">
        <path inkscape:connector-curvature="0" id="tomoe 3a" d="m 157.30532,9.9672682 c -8.08498,1.4256048 -13.34628,5.7581728 -16.07194,12.8301768 -0.64992,1.625862 -1.11497,5.413331 -0.78894,7.262311 0.93457,5.300237 6.00061,8.842337 11.31033,7.906087 5.30972,-0.93624 8.85877,-5.997427 7.92419,-11.297651 -0.83182,-4.717494 -4.93573,-8.024147 -9.57246,-8.037997 2.85972,-4.109924 7.008,-7.320355 12.00511,-8.9392318 -1.5739,-0.09228 -3.18673,-0.0093 -4.80629,0.276305 z" style="fill:black;stroke:black;stroke-width:1;stroke-linejoin:round"/>
        <use x="0" y="0" xlink:href="#tomoe 3a" id="tomoe 3b" width="300" height="300" transform="matrix(-0.5,0.8660254,-0.8660254,-0.5,354.90381,95.096189)"/>
        <use transform="matrix(-0.5,-0.8660254,0.8660254,-0.5,95.096189,354.90381)" height="300" width="300" id="tomoe 3c" xlink:href="#tomoe 3a" y="0" x="0"/>
    </g>
</svg>