<svg xmlns:svg="http://www.w3.org/2000/svg" xmlns="http://www.w3.org/2000/svg" xmlns:xlink="http://www.w3.org/1999/xlink" xmlns:sodipodi="http://sodipodi.sourceforge.net/DTD/sodipodi-0.dtd" xmlns:inkscape="http://www.inkscape.org/namespaces/inkscape" id="svg3347" sodipodi:version="0.32" inkscape:version="0.46" width="100" height="100" sodipodi:docname="Nature Icon Ice.svg" inkscape:output_extension="org.inkscape.output.svg.inkscape" version="1.0">
    <defs id="defs3350">
        <linearGradient id="linearGradientIce">
            <stop offset="0" id="stopIce0" style="stop-color:#00f89e;stop-opacity:1"/>
            <stop offset="1" id="stopIce1" style="stop-color:#badcff;stop-opacity:1"/>
        </linearGradient>
        <radialGradient gradientUnits="userSpaceOnUse" r="50" fy="50" fx="49.999996" cy="50" cx="49.999996" id="radialGradientIce" xlink:href="#linearGradientIce" inkscape:collect="always"/>
    </defs>
    <sodipodi:namedview inkscape:window-height="922" inkscape:window-width="632" inkscape:pageshadow="2" inkscape:pageopacity="0.0" guidetolerance="10.0" gridtolerance="10.0" objecttolerance="10.0" borderopacity="1.0" bordercolor="#666666" pagecolor="#ffffff" id="base" showgrid="false" inkscape:zoom="2.4199999" inkscape:cx="49.999997" inkscape:cy="49.999999" inkscape:window-x="640" inkscape:window-y="0" inkscape:current-layer="svg3347"/>
    <path style="fill:url(#radialGradientIce);fill-opacity:1;fill-rule:evenodd;stroke:#000000;stroke-width:5.6603775;stroke-linecap:butt;stroke-linejoin:miter;stroke-miterlimit:4;stroke-dasharray:none;stroke-opacity:1" d="M 2.830185,68.867926 L 2.830185,31.132076 L 12.264148,21.698114 L 12.264148,12.264151 L 21.69811,12.264151 L 31.132072,2.8301885 L 68.867922,2.8301885 L 78.301885,12.264151 L 87.735848,12.264151 L 87.735848,21.698114 L 97.16981,31.132076 L 97.16981,68.867926 L 87.735848,78.301889 L 87.735848,87.735851 L 78.301885,87.735851 L 68.867922,97.169814 L 31.132072,97.169814 L 21.69811,87.735851 L 12.264148,87.735851 L 12.264148,78.301889 L 2.830185,68.867926 z" id="Ice icon"/>
    <path transform="scale(0.9843215,1.0159282)" style="font-size:65.42832947px;font-style:normal;font-variant:normal;font-weight:normal;font-stretch:normal;text-align:start;line-height:125%;writing-mode:lr-tb;text-anchor:start;fill:#000000;fill-opacity:1;stroke:none;stroke-width:1px;stroke-linecap:butt;stroke-linejoin:miter;stroke-opacity:1;font-family:MS Gothic;-inkscape-font-specification:MS Gothic" d="M 53.224402,31.0699 C 54.246683,35.329594 55.865351,39.333667 58.080411,43.082132 C 61.828865,40.185598 65.832938,36.181524 70.092643,31.0699 L 74.948652,35.41475 C 75.118981,36.266717 74.693016,36.522297 73.670755,36.181488 C 69.751819,40.100405 65.406973,43.934092 60.636205,47.682562 C 65.236587,55.009189 71.540873,60.887509 79.549081,65.317541 L 76.737708,71.195868 C 66.855255,65.573127 59.017494,56.968629 53.224402,45.382347 L 53.224402,72.984924 C 53.224367,75.711101 51.861278,77.074189 49.135131,77.074194 L 44.534702,77.074194 L 43.512384,71.451447 L 47.090496,71.451447 C 47.772011,71.451448 48.112783,71.110676 48.112814,70.42913 L 48.112814,21.357882 L 52.968822,21.357882 C 54.672648,21.698706 54.757842,22.38025 53.224402,23.402518 L 53.224402,31.0699 z M 24.343928,44.615609 L 24.343928,38.992862 L 44.279122,38.992862 C 44.279096,54.327644 37.97481,65.743513 25.366246,73.240503 L 22.043714,67.873335 C 31.585331,62.420984 37.037687,54.668417 38.400796,44.615609 L 24.343928,44.615609 z M 33.289208,24.424835 C 36.867301,26.128744 39.93425,28.173377 42.490067,30.558741 L 38.911955,35.159171 C 36.696914,32.944188 33.715158,30.814362 29.966675,28.769685 L 33.289208,24.424835 z" id="Ice kanji"/>
</svg>