<svg xmlns:svg="http://www.w3.org/2000/svg" xmlns="http://www.w3.org/2000/svg" xmlns:xlink="http://www.w3.org/1999/xlink" xmlns:sodipodi="http://sodipodi.sourceforge.net/DTD/sodipodi-0.dtd" xmlns:inkscape="http://www.inkscape.org/namespaces/inkscape" id="svg3347" sodipodi:version="0.32" inkscape:version="0.47 r22583" width="100" height="100" sodipodi:docname="Nature Icon Dust.svg" inkscape:output_extension="org.inkscape.output.svg.inkscape" version="1.0">
    <defs id="defs3350">
        <linearGradient id="linearGradientDust">
            <stop id="stopDust0" offset="0" style="stop-color:#9c9c9c;stop-opacity:1"/>
            <stop offset="1" id="stopDust1" style="stop-color:#a66f24;stop-opacity:1"/>
        </linearGradient>
        <radialGradient gradientUnits="userSpaceOnUse" r="49.999813" fy="50" fx="50" cy="50" cx="50" id="radialGradientDust" xlink:href="#linearGradientDust" inkscape:collect="always"/>
    </defs>
    <sodipodi:namedview inkscape:window-height="930" inkscape:window-width="1280" inkscape:pageshadow="2" inkscape:pageopacity="0.0" guidetolerance="10.0" gridtolerance="10.0" objecttolerance="50" borderopacity="1.0" bordercolor="#666666" pagecolor="#ffffff" id="base" showgrid="true" inkscape:zoom="2" inkscape:cx="180.86151" inkscape:cy="63.558069" inkscape:window-x="-4" inkscape:window-y="-4" inkscape:current-layer="svg3347" inkscape:snap-center="true" inkscape:object-paths="false" inkscape:object-nodes="true" inkscape:snap-smooth-nodes="true" inkscape:window-maximized="0"/>
    <path id="Dust icon" style="fill:url(#radialGradientDust);fill-opacity:1;fill-rule:evenodd;stroke:#000000;stroke-width:5.65999985;stroke-linecap:butt;stroke-linejoin:miter;stroke-miterlimit:4;stroke-opacity:1;stroke-dasharray:none" d="m 26.415093,7.5471686 4.716983,-4.7169824 37.73585,0 4.716983,4.7169838 9.433962,0 0,9.43396 9.433962,0 0,9.43396 4.716981,4.716984 0,37.73585 -4.716983,4.716981 0,9.433962 -9.43396,0 0,9.433962 -9.43396,0 -4.716985,4.716982 -37.73585,0 -4.716981,-4.716984 -9.433962,0 0,-9.43396 -9.4339619,0 0,-9.43396 -4.7169823,-4.716983 0,-37.73585 4.7169842,-4.716982 0,-9.433962 9.43396,0 0,-9.4339614 9.43396,0 z" sodipodi:nodetypes="ccccccccccccccccccccccccccccc"/>
    <path transform="scale(0.9891655,1.0109532)" style="font-size:17.53992271px;font-style:normal;font-weight:normal;fill:#000000;fill-opacity:1;stroke:none;stroke-width:1px;stroke-linecap:butt;stroke-linejoin:miter;stroke-opacity:1;font-family:Bitstream Vera Sans" d="M 70.773384,56.734599 C 72.088826,56.734615 72.828791,56.323524 72.993281,55.501323 L 73.486591,53.281426 L 77.679729,54.268047 C 77.021925,58.543418 75.541995,60.681094 73.239936,60.681081 L 60.907178,60.681081 C 57.947278,60.681094 56.467348,59.201164 56.467385,56.241288 L 56.467385,45.635116 L 42.901351,45.635116 L 42.901351,49.334944 L 52.520902,49.334944 L 52.520902,53.281426 L 42.901351,53.281426 L 42.901351,56.734599 L 53.260868,55.994633 L 53.754178,59.20115 L 35.008385,61.667702 C 34.679497,62.983206 34.350624,63.229861 34.021765,62.407668 L 33.035144,57.227909 L 38.708213,57.227909 L 38.708213,45.635116 L 31.801868,45.635116 L 31.801868,55.501323 C 31.801856,63.887608 29.66418,71.0406 25.388834,76.960322 L 21.935661,74.00046 C 25.717701,67.916305 27.608722,61.174404 27.60873,53.774737 L 27.60873,27.135979 L 49.314385,27.135979 L 49.314385,21.46291 L 54.000833,21.46291 C 55.316292,21.627398 55.39851,22.120708 54.247488,22.942841 L 54.247488,27.135979 L 77.679729,27.135979 L 77.679729,31.082461 L 60.660523,31.082461 L 60.660523,34.288979 L 73.486591,34.288979 L 73.486591,45.635116 L 60.660523,45.635116 L 60.660523,50.074909 L 73.486591,47.608358 L 75.706488,50.814875 C 75.870868,51.965953 75.377558,52.212608 74.226557,51.55484 L 60.660523,53.528082 L 60.660523,55.008013 C 60.660482,56.159087 61.23601,56.734615 62.387109,56.734599 L 70.773384,56.734599 L 70.773384,56.734599 z M 51.534281,68.820702 L 35.25504,68.820702 L 35.25504,64.874219 L 51.534281,64.874219 L 51.534281,61.174392 L 55.480764,61.174392 C 56.796221,61.33884 56.87844,61.83215 55.727419,62.654323 L 55.727419,64.874219 L 72.746626,64.874219 L 72.746626,68.820702 L 55.727419,68.820702 L 55.727419,73.50715 L 79.15966,73.50715 L 79.15966,77.453633 L 30.321937,77.453633 L 30.321937,73.50715 L 51.534281,73.50715 L 51.534281,68.820702 z M 42.654695,41.688634 L 42.654695,38.235461 L 31.801868,38.235461 L 31.801868,41.688634 L 42.654695,41.688634 z M 56.467385,41.688634 L 56.467385,38.235461 L 46.847833,38.235461 L 46.847833,41.688634 L 56.467385,41.688634 z M 69.293453,41.688634 L 69.293453,38.235461 L 60.660523,38.235461 L 60.660523,41.688634 L 69.293453,41.688634 z M 56.467385,34.288979 L 56.467385,31.082461 L 46.847833,31.082461 L 46.847833,34.288979 L 56.467385,34.288979 z M 42.654695,34.288979 L 42.654695,31.082461 L 31.801868,31.082461 L 31.801868,34.288979 L 42.654695,34.288979 z" id="Dust kanji"/>
</svg>