<svg xmlns:svg="http://www.w3.org/2000/svg" xmlns="http://www.w3.org/2000/svg" xmlns:xlink="http://www.w3.org/1999/xlink" xmlns:sodipodi="http://sodipodi.sourceforge.net/DTD/sodipodi-0.dtd" xmlns:inkscape="http://www.inkscape.org/namespaces/inkscape" id="svg3347" sodipodi:version="0.32" inkscape:version="0.46" width="100" height="100" sodipodi:docname="Nature Icon Storm.svg" inkscape:output_extension="org.inkscape.output.svg.inkscape" version="1.0">
    <defs id="defs3350">
        <linearGradient id="linearGradientStorm">
            <stop offset="0" id="stopStorm0" style="stop-color:#7e8e99;stop-opacity:1"/>
            <stop id="stopStorm1" offset="1" style="stop-color:#0f011b;stop-opacity:1"/>
        </linearGradient>
        <radialGradient r="26.5" fy="392.36218" fx="115" cy="392.36218" cx="115" gradientTransform="matrix(1.8867925,0,0,1.8867925,-166.98114,-690.30602)" gradientUnits="userSpaceOnUse" id="radialGradientStorm" xlink:href="#linearGradientStorm" inkscape:collect="always"/>
    </defs>
    <sodipodi:namedview inkscape:window-height="930" inkscape:window-width="1280" inkscape:pageshadow="2" inkscape:pageopacity="0.0" guidetolerance="10.0" gridtolerance="10.0" objecttolerance="50" borderopacity="1.0" bordercolor="#666666" pagecolor="#ffffff" id="base" showgrid="false" inkscape:zoom="7.1699998" inkscape:cx="50.000001" inkscape:cy="50.000001" inkscape:window-x="-4" inkscape:window-y="-4" inkscape:current-layer="svg3347" inkscape:snap-center="true" inkscape:object-paths="false" inkscape:object-nodes="true"/>
    <path style="fill:url(#radialGradientStorm);fill-opacity:1;fill-rule:evenodd;stroke:#000000;stroke-width:5.6603775;stroke-linecap:butt;stroke-linejoin:miter;stroke-miterlimit:4;stroke-dasharray:none;stroke-opacity:1" d="M 2.8301888,31.132074 L 12.264152,21.698111 L 12.264152,12.264149 L 21.698114,12.264149 L 31.132076,2.8301862 L 68.867926,2.8301862 L 78.301889,12.264149 L 87.735852,12.264149 L 87.735852,21.698111 L 97.169814,31.132074 L 97.169814,68.867924 L 87.735852,78.301886 L 87.735852,87.735849 L 78.301889,87.735849 L 68.867926,97.169811 L 31.132076,97.169811 L 21.698114,87.735849 L 12.264152,87.735849 L 12.264152,78.301886 L 2.8301888,68.867924 L 2.8301888,31.132074 z" id="Storm icon" sodipodi:nodetypes="ccccccccccccccccccccc"/>
    <path style="font-size:61.15058517px;font-style:normal;font-weight:normal;fill:#000000;fill-opacity:1;stroke:none;stroke-width:1px;stroke-linecap:butt;stroke-linejoin:miter;stroke-opacity:1;font-family:Bitstream Vera Sans" d="M 33.480381,68.211721 L 45.870091,67.719512 L 45.870091,60.82859 L 40.768441,60.82859 L 40.768441,64.027947 L 36.638541,64.027947 L 36.638541,49.999999 L 45.870091,49.999999 L 45.870091,46.800643 L 35.909731,47.292851 L 35.180921,43.84739 C 44.736361,43.519277 52.753241,42.69893 59.231551,41.386346 L 60.689171,45.324016 L 50.000001,46.554538 L 50.000001,49.999999 L 58.988611,49.999999 L 58.988611,60.82859 L 50.000001,60.82859 L 50.000001,67.227303 L 56.073391,66.981199 L 53.886961,64.027947 L 57.288071,62.059112 C 59.555421,64.520161 61.741851,67.47341 63.847331,70.918868 L 59.717421,73.133807 L 58.016881,70.672764 L 35.666791,72.641599 C 35.342861,73.790082 35.018951,74.036186 34.695061,73.379912 L 33.480381,68.211721 z M 77.694661,62.797425 L 77.208791,65.504573 C 75.751121,74.036186 72.754921,76.005019 68.220171,71.411077 C 64.980981,68.129687 63.361411,62.633362 63.361461,54.922086 L 63.361461,39.417512 L 32.751571,39.417512 L 32.751571,56.890921 C 32.751561,63.45371 30.160241,69.688347 24.977631,75.594851 L 21.090661,71.903286 C 25.625441,67.637479 27.892841,62.469293 27.892851,56.398712 L 27.892851,35.479842 L 68.220171,35.479842 L 68.220171,54.922086 C 68.220121,60.172322 68.948931,63.863883 70.406591,65.996782 C 71.216331,67.309341 71.783181,67.227305 72.107141,65.750677 L 73.078881,60.582486 L 77.694661,62.797425 z M 54.858711,57.875338 L 54.858711,52.953252 L 50.000001,52.953252 L 50.000001,57.875338 L 54.858711,57.875338 z M 45.870091,57.875338 L 45.870091,52.953252 L 40.768441,52.953252 L 40.768441,57.875338 L 45.870091,57.875338 z M 68.706041,21.698 C 70.001651,21.862116 70.082621,22.354325 68.948981,23.174625 L 68.948981,32.034381 L 26.921111,32.034381 L 26.921111,21.698 L 31.536891,21.698 C 32.832531,21.862116 32.913511,22.354325 31.779821,23.174625 L 31.779821,28.096712 L 45.141281,28.096712 L 45.141281,18.990851 L 49.757061,18.990851 C 51.052691,19.154971 51.133661,19.647179 50.000001,20.467477 L 50.000001,28.096712 L 64.090261,28.096712 L 64.090261,21.698 L 68.706041,21.698 L 68.706041,21.698 z" id="Storm kanji"/>
</svg>