<svg xmlns="http://www.w3.org/2000/svg" xmlns:xlink="http://www.w3.org/1999/xlink" width="100" height="100" version="1">
    <defs>
        <linearGradient id="a">
            <stop offset="0" stop-color="#fff"/>
            <stop offset="1" stop-color="#b00000"/>
        </linearGradient>
        <radialGradient gradientUnits="userSpaceOnUse" r="50" fy="50" fx="50" cy="50" cx="50" id="b" xlink:href="#a"/>
    </defs>
    <path d="M2.83 31.132l9.434-9.434v-9.434h9.434l9.434-9.434h37.736l9.434 9.434h9.434v9.434l9.434 9.434v37.736l-9.434 9.434v9.434h-9.434l-9.434 9.434H31.132l-9.434-9.434h-9.434v-9.434L2.83 68.868V31.132z" fill="url(#b)" fill-rule="evenodd" stroke="#000" stroke-width="5.66"/>
    <path d="M70.32 47.45V45.99h-5.08v6.316h13.062l-.968 12.875c-.322 3.725-2.096 5.588-5.32 5.588h-3.63l-.484-4.615h2.66c1.614 0 2.42-.972 2.42-2.915l.242-6.316H65.24v20.65h-4.838v-20.65h-5.564c.16 11.013-5.08 18.14-15.723 21.378L37.18 73.2C45.725 70.933 50 65.507 50 56.924h-5.564l-.483 3.887-4.838-.242 1.693-19.192H50v-6.56H39.115v-4.615H50V21.7h4.596c1.29.162 1.37.648.242 1.458V30.2h5.564V21.7h4.596c1.29.162 1.37.648.242 1.458V30.2h9.917v17.25H70.32zM26.05 38.702c4.032 1.782 7.176 3.887 9.434 6.317l-3.145 4.86c-2.417-2.593-5.4-4.94-8.95-7.047l2.662-4.13zM50 52.308v-6.316h-4.596l-.484 6.316H50zm10.402-6.316h-5.564v6.316h5.564v-6.316zm0-4.616v-6.56h-5.564v6.56h5.564zm9.917 0v-6.56h-5.08v6.56h5.08zM27.986 24.37c3.87 1.62 7.015 3.644 9.434 6.074l-3.143 4.615c-2.258-2.106-5.322-4.21-9.192-6.317l2.902-4.373zm-6.29 48.83c5.323-6.64 8.95-12.794 10.886-18.463l4.113 2.915c-1.452 4.697-4.516 10.69-9.192 17.978.322 1.295.08 1.62-.726.97l-5.08-3.4z" font-size="17.238" font-family="Bitstream Vera Sans"/>
</svg>