<svg xmlns:svg="http://www.w3.org/2000/svg" xmlns="http://www.w3.org/2000/svg" xmlns:xlink="http://www.w3.org/1999/xlink" xmlns:sodipodi="http://sodipodi.sourceforge.net/DTD/sodipodi-0.dtd" xmlns:inkscape="http://www.inkscape.org/namespaces/inkscape" id="svg3347" sodipodi:version="0.32" inkscape:version="0.46" width="100" height="100" sodipodi:docname="Nature Icon Swift.svg" inkscape:output_extension="org.inkscape.output.svg.inkscape" version="1.0">
    <defs id="defs3350">
        <linearGradient id="linearGradientSwift">
            <stop offset="0" id="stopSwift0" style="stop-color:#ff4a00;stop-opacity:1;"/>
            <stop id="stopSwift1" offset="1" style="stop-color:#e5e332;stop-opacity:1;"/>
        </linearGradient>
        <radialGradient inkscape:collect="always" xlink:href="#linearGradientSwift" id="radialGradientSwift" cx="49.999996" cy="49.999996" fx="49.999996" fy="49.999996" r="50" gradientUnits="userSpaceOnUse"/>
    </defs>
    <sodipodi:namedview inkscape:window-height="930" inkscape:window-width="1280" inkscape:pageshadow="2" inkscape:pageopacity="0.0" guidetolerance="10.0" gridtolerance="10.0" objecttolerance="50" borderopacity="1.0" bordercolor="#666666" pagecolor="#ffffff" id="base" showgrid="false" inkscape:zoom="1" inkscape:cx="-4.6093725" inkscape:cy="61.548693" inkscape:window-x="-4" inkscape:window-y="-4" inkscape:current-layer="svg3347" inkscape:snap-center="true" inkscape:object-nodes="true"/>
    <path style="fill:url(#radialGradientSwift);fill-opacity:1;fill-rule:evenodd;stroke:#000000;stroke-width:5.6603775;stroke-linecap:butt;stroke-linejoin:miter;stroke-miterlimit:4;stroke-dasharray:none;stroke-opacity:1" d="M 2.830185,31.132074 L 12.264148,21.698111 L 12.264148,12.264149 L 21.69811,12.264149 L 31.132072,2.830186 L 68.867922,2.830186 L 78.301885,12.264149 L 87.735848,12.264149 L 87.735848,21.698111 L 97.16981,31.132074 L 97.16981,68.867924 L 87.735848,78.301886 L 87.735848,87.735849 L 78.301885,87.735849 L 68.867922,97.169811 L 31.132072,97.169811 L 21.69811,87.735849 L 12.264148,87.735849 L 12.264148,78.301886 L 2.830185,68.867924 L 2.830185,31.132074 z" id="Swift icon" sodipodi:nodetypes="ccccccccccccccccccccc"/>
    <path style="font-size:40px;font-style:normal;font-weight:normal;fill:#000000;fill-opacity:1;stroke:none;stroke-width:1px;stroke-linecap:butt;stroke-linejoin:miter;stroke-opacity:1;font-family:Bitstream Vera Sans" d="M 78.301997,72.798829 L 77.076807,77.777889 L 49.142357,77.777889 C 41.954527,77.777889 36.563677,75.244679 32.969787,70.178279 C 30.846107,73.672349 28.150677,76.380259 24.883508,78.301999 L 21.697997,72.274719 C 25.455257,70.702389 28.314037,68.780649 30.274357,66.509499 L 30.274357,51.048229 L 22.188077,51.048229 L 22.188077,46.069169 L 35.175137,46.069169 L 35.175137,65.723329 C 38.115587,70.440339 43.751477,72.798829 52.082827,72.798829 L 78.301997,72.798829 z M 29.539247,21.697999 C 32.806417,24.143899 35.256807,26.764459 36.890417,29.559669 L 32.479707,34.276669 C 30.356027,30.782639 28.068997,27.987379 25.618617,25.890899 L 29.539247,21.697999 z M 71.930987,61.530449 C 72.584367,61.530459 73.156127,59.521369 73.646257,55.503169 L 78.056957,56.813449 C 76.913387,64.675119 75.034757,68.605949 72.421057,68.605949 C 67.683597,68.605949 65.314887,61.355759 65.314937,46.855329 L 65.314937,26.939109 L 38.605687,26.939109 L 38.605687,21.960059 L 70.215707,21.960059 L 70.215707,46.855329 C 70.215657,56.638759 70.787417,61.530459 71.930987,61.530449 L 71.930987,61.530449 z M 38.605687,42.662449 L 48.652287,42.662449 L 48.652287,29.035559 L 53.308027,29.035559 C 54.614867,29.210309 54.696547,29.734429 53.553057,30.607889 L 53.553057,42.662449 L 63.109577,42.662449 L 63.109577,47.641499 L 53.553057,47.641499 L 53.553057,69.392119 L 48.652287,69.392119 L 48.652287,47.641499 L 38.605687,47.641499 L 38.605687,42.662449 z" id="Swift kanji"/>
</svg>