<svg xmlns:svg="http://www.w3.org/2000/svg" xmlns="http://www.w3.org/2000/svg" xmlns:xlink="http://www.w3.org/1999/xlink" xmlns:sodipodi="http://sodipodi.sourceforge.net/DTD/sodipodi-0.dtd" xmlns:inkscape="http://www.inkscape.org/namespaces/inkscape" id="svg3347" sodipodi:version="0.32" inkscape:version="0.46" width="100" height="100" sodipodi:docname="Nature Icon Crystal.svg" inkscape:output_extension="org.inkscape.output.svg.inkscape" version="1.0">
    <defs id="defs3350">
        <linearGradient id="linearGradientCrystal">
            <stop offset="0" id="stopCrystal0" style="stop-color:#86c88e;stop-opacity:1"/>
            <stop id="stopCrystal1" offset="1" style="stop-color:#e26ccd;stop-opacity:1"/>
        </linearGradient>
        <radialGradient gradientTransform="matrix(1.8867925,0,0,1.8867925,-270.75472,-586.53243)" r="26.5" fy="337.36218" fx="170" cy="337.36218" cx="170" gradientUnits="userSpaceOnUse" id="radialGradientCrystal" xlink:href="#linearGradientCrystal" inkscape:collect="always"/>
    </defs>
    <sodipodi:namedview inkscape:window-height="930" inkscape:window-width="1280" inkscape:pageshadow="2" inkscape:pageopacity="0.0" guidetolerance="10.0" gridtolerance="10.0" objecttolerance="10.0" borderopacity="1.0" bordercolor="#666666" pagecolor="#ffffff" id="base" showgrid="false" inkscape:zoom="7.1699998" inkscape:cx="50.000005" inkscape:cy="49.999999" inkscape:window-x="-4" inkscape:window-y="-4" inkscape:current-layer="svg3347"/>
    <path style="fill:url(#radialGradientCrystal);fill-opacity:1;fill-rule:evenodd;stroke:#000000;stroke-width:5.6603775;stroke-linecap:butt;stroke-linejoin:miter;stroke-miterlimit:4;stroke-dasharray:none;stroke-opacity:1" d="M 2.8301925,31.132076 L 12.264155,21.698114 L 12.264155,12.264151 L 21.698117,12.264151 L 31.13208,2.8301885 L 68.86793,2.8301885 L 78.301893,12.264151 L 87.735855,12.264151 L 87.735855,21.698114 L 97.169818,31.132076 L 97.169818,68.867926 L 87.735855,78.301889 L 87.735855,87.735851 L 78.301893,87.735851 L 68.86793,97.169814 L 31.13208,97.169814 L 21.698117,87.735851 L 12.264155,87.735851 L 12.264155,78.301889 L 2.8301925,68.867926 L 2.8301925,31.132076 z" id="Crystal icon" sodipodi:nodetypes="ccccccccccccccccccccc"/>
    <path transform="scale(1.0334221,0.9676588)" style="font-size:68.06759644px;font-style:normal;font-variant:normal;font-weight:normal;font-stretch:normal;text-align:start;line-height:125%;writing-mode:lr-tb;text-anchor:start;fill:#000000;fill-opacity:1;stroke:none;stroke-width:1px;stroke-linecap:butt;stroke-linejoin:miter;stroke-opacity:1;font-family:MS Gothic;-inkscape-font-specification:MS Gothic" d="M 26.314162,80.918893 L 20.996382,80.918893 L 20.996382,51.13932 L 45.458174,51.13932 L 45.458174,80.121226 L 40.140393,80.121226 L 40.140393,76.930558 L 26.314162,76.930558 L 26.314162,80.918893 z M 30.302498,22.423303 L 65.931631,22.423303 L 65.931631,47.150984 L 30.302498,47.150984 L 30.302498,22.423303 z M 40.140393,55.393545 L 26.314162,55.393545 L 26.314162,61.774882 L 40.140393,61.774882 L 40.140393,55.393545 z M 26.314162,66.029107 L 26.314162,72.676333 L 40.140393,72.676333 L 40.140393,66.029107 L 26.314162,66.029107 z M 60.61385,26.677527 L 35.620279,26.677527 L 35.620279,32.792976 L 60.61385,32.792976 L 60.61385,26.677527 z M 35.620279,37.0472 L 35.620279,42.896759 L 60.61385,42.896759 L 60.61385,37.0472 L 35.620279,37.0472 z M 55.827847,55.393545 L 55.827847,61.774882 L 70.451745,61.774882 L 70.451745,55.393545 L 55.827847,55.393545 z M 55.827847,66.029107 L 55.827847,72.676333 L 70.451745,72.676333 L 70.451745,66.029107 L 55.827847,66.029107 z M 50.510066,80.918893 L 50.510066,51.13932 L 75.769526,51.13932 L 75.769526,80.121226 L 70.451745,80.121226 L 70.451745,76.930558 L 55.827847,76.930558 L 55.827847,80.918893 L 50.510066,80.918893 z" id="Crystal kanji"/>
</svg>