<svg xmlns:svg="http://www.w3.org/2000/svg" xmlns="http://www.w3.org/2000/svg" xmlns:xlink="http://www.w3.org/1999/xlink" xmlns:sodipodi="http://sodipodi.sourceforge.net/DTD/sodipodi-0.dtd" xmlns:inkscape="http://www.inkscape.org/namespaces/inkscape" id="svg3347" sodipodi:version="0.32" inkscape:version="0.46" width="100" height="100" sodipodi:docname="Nature Icon Steel.svg" inkscape:output_extension="org.inkscape.output.svg.inkscape" version="1.0">
    <defs id="defs3350">
        <linearGradient id="linearGradientSteel">
            <stop offset="0" id="stopSteel0" style="stop-color:#4682b4;stop-opacity:1;"/>
            <stop id="stopSteel1" offset="1" style="stop-color:#808080;stop-opacity:1;"/>
        </linearGradient>
        <radialGradient gradientUnits="userSpaceOnUse" r="50" fy="49.999996" fx="49.999996" cy="49.999996" cx="49.999996" id="radialGradientSteel" xlink:href="#linearGradientSteel" inkscape:collect="always"/>
    </defs>
    <sodipodi:namedview inkscape:window-height="930" inkscape:window-width="1280" inkscape:pageshadow="2" inkscape:pageopacity="0.0" guidetolerance="10.0" gridtolerance="10.0" objecttolerance="50" borderopacity="1.0" bordercolor="#666666" pagecolor="#ffffff" id="base" showgrid="false" inkscape:zoom="1" inkscape:cx="-4.6093725" inkscape:cy="61.548693" inkscape:window-x="-4" inkscape:window-y="-4" inkscape:current-layer="svg3347" inkscape:snap-center="true" inkscape:object-nodes="true"/>
    <path style="fill:url(#radialGradientSteel);fill-opacity:1;fill-rule:evenodd;stroke:#000000;stroke-width:5.6603775;stroke-linecap:butt;stroke-linejoin:miter;stroke-miterlimit:4;stroke-dasharray:none;stroke-opacity:1" d="M 2.830185,31.132074 L 12.264148,21.698111 L 12.264148,12.264149 L 21.69811,12.264149 L 31.132072,2.830186 L 68.867922,2.830186 L 78.301885,12.264149 L 87.735848,12.264149 L 87.735848,21.698111 L 97.16981,31.132074 L 97.16981,68.867924 L 87.735848,78.301886 L 87.735848,87.735849 L 78.301885,87.735849 L 68.867922,97.169811 L 31.132072,97.169811 L 21.69811,87.735849 L 12.264148,87.735849 L 12.264148,78.301886 L 2.830185,68.867924 L 2.830185,31.132074 z" id="Steel icon" sodipodi:nodetypes="ccccccccccccccccccccc"/>
    <path style="font-size:63.01760483px;font-style:normal;font-weight:normal;fill:#000000;fill-opacity:1;stroke:none;stroke-width:1px;stroke-linecap:butt;stroke-linejoin:miter;stroke-opacity:1;font-family:Bitstream Vera Sans" d="M 44.339598,38.11117 C 41.823841,35.171535 38.804965,32.06855 35.282958,28.802207 C 33.773504,31.74192 32.180207,34.518275 30.503065,37.131279 L 42.578584,37.131279 L 42.578584,41.050842 L 36.792398,41.050842 L 36.792398,47.17516 L 45.094317,47.17516 L 45.094317,51.094723 L 36.792398,51.094723 L 36.792398,69.712648 L 45.345891,67.507894 L 45.849037,71.67243 L 25.723171,77.061829 C 25.55545,78.531659 25.052303,78.694974 24.213732,77.551775 L 22.704292,72.652321 L 32.515651,70.69254 L 32.515651,51.094723 L 24.213732,51.094723 L 24.213732,47.17516 L 32.515651,47.17516 L 32.515651,41.050842 L 27.735759,41.050842 C 26.897173,42.357394 25.807023,43.663913 24.465305,44.970405 L 21.697999,40.560897 C 26.058596,36.151425 29.91605,29.863798 33.270371,21.697999 L 38.050265,22.922862 C 39.224254,23.576172 39.056537,23.984459 37.547118,24.147726 L 37.295544,24.882644 C 41.823841,28.312306 45.094291,31.007003 47.106904,32.966743 L 44.339598,38.11117 z M 59.182423,30.272043 C 60.356391,32.06855 61.278826,34.599932 61.94973,37.866197 L 58.17613,39.091061 C 57.505229,36.804685 56.666653,34.191645 55.660397,31.251934 L 59.182423,30.272043 z M 70.754796,30.517016 C 71.761037,31.007003 71.509464,31.496948 70.000076,31.986853 L 67.232769,40.070952 L 71.761089,40.070952 L 71.761089,43.990515 L 64.968609,43.990515 L 64.968609,62.853413 L 68.239063,62.853413 L 68.239063,48.400023 L 71.761089,48.400023 L 71.761089,68.487785 L 68.239063,68.487785 L 68.239063,66.772976 L 58.17613,66.772976 L 58.17613,69.467676 L 54.654103,69.467676 L 54.654103,48.889968 L 58.17613,48.889968 L 58.17613,62.853413 L 61.446583,62.853413 L 61.446583,43.990515 L 53.64781,43.990515 L 53.64781,40.070952 L 63.710743,40.070952 L 65.974902,29.537125 L 70.754796,30.517016 z M 47.610051,23.412807 L 78.301996,23.412807 L 78.301996,74.612103 C 78.301936,76.735195 77.211787,77.796742 75.031542,77.796748 L 71.509516,77.796748 L 70.503223,73.142266 L 73.018956,73.142266 C 73.689763,73.142265 74.025194,72.815636 74.025249,72.162376 L 74.025249,27.332371 L 51.886797,27.332371 L 51.886797,78.286693 L 47.610051,78.286693 L 47.610051,23.412807 z M 45.094317,55.014286 C 45.932868,55.504248 45.849011,55.912536 44.842744,56.23915 C 44.339572,59.66878 43.752569,63.016737 43.081731,66.28303 L 39.056558,65.793085 C 39.559684,62.690107 39.978972,58.852205 40.314424,54.279368 L 45.094317,55.014286 z M 28.238905,55.259259 C 29.245188,59.01552 30.083765,62.690107 30.754638,66.28303 L 26.226318,67.507894 C 25.55545,63.588339 24.716873,59.913752 23.710585,56.484122 L 28.238905,55.259259 z" id="Steel kanji"/>
</svg>