<svg xmlns:svg="http://www.w3.org/2000/svg" xmlns="http://www.w3.org/2000/svg" xmlns:xlink="http://www.w3.org/1999/xlink" xmlns:sodipodi="http://sodipodi.sourceforge.net/DTD/sodipodi-0.dtd" xmlns:inkscape="http://www.inkscape.org/namespaces/inkscape" id="svg3347" sodipodi:version="0.32" inkscape:version="0.47 r22583" width="100" height="100" sodipodi:docname="Nature Icon Explosion.svg" inkscape:output_extension="org.inkscape.output.svg.inkscape" version="1.0">
    <defs id="defs3350">
        <linearGradient id="linearGradientExplosion">
            <stop offset="0" id="stopExplosion0" style="stop-color:#ffefb1;stop-opacity:1;"/>
            <stop id="stopExplosion0.5" offset="0.5" style="stop-color:#ffaa37;stop-opacity:1"/>
            <stop id="stopExplosion1" offset="1" style="stop-color:#b00000;stop-opacity:1;"/>
        </linearGradient>
        <radialGradient gradientUnits="userSpaceOnUse" r="50" fy="49.999996" fx="49.999996" cy="49.999996" cx="49.999996" id="radialGradientExplosion" xlink:href="#linearGradientExplosion" inkscape:collect="always" gradientTransform="translate(-1.2487793e-6,2.6512207e-6)"/>
    </defs>
    <sodipodi:namedview inkscape:window-height="940" inkscape:window-width="1280" inkscape:pageshadow="2" inkscape:pageopacity="0.0" guidetolerance="10.0" gridtolerance="10.0" objecttolerance="50" borderopacity="1.0" bordercolor="#666666" pagecolor="#ffffff" id="base" showgrid="false" inkscape:zoom="1.4142136" inkscape:cx="204.31965" inkscape:cy="-15.335036" inkscape:window-x="-8" inkscape:window-y="-8" inkscape:current-layer="svg3347" inkscape:snap-center="false" inkscape:object-nodes="false" inkscape:window-maximized="1" inkscape:snap-object-midpoints="true"/>
    <path style="fill:url(#radialGradientExplosion);fill-opacity:1;fill-rule:evenodd;stroke:#000000;stroke-width:5.6603775;stroke-linecap:butt;stroke-linejoin:miter;stroke-miterlimit:4;stroke-opacity:1;stroke-dasharray:none" d="m 2.8301888,31.132076 9.4339602,-9.433962 0,-9.433962 9.43396,0 9.43396,-9.4339632 37.73585,0 9.43397,9.4339632 9.43396,0 0,9.433962 9.43396,9.433962 0,37.735851 -9.43396,9.433962 0,9.433963 -9.43396,0 -9.43397,9.433961 -37.73585,0 -9.43396,-9.433961 -9.43396,0 0,-9.433963 -9.4339602,-9.433962 0,-37.735851 z" id="Explosion icon" sodipodi:nodetypes="ccccccccccccccccccccc"/>
    <path d="m 66.946319,56.262771 c 2.7834,3.274663 6.71298,5.894381 11.78874,7.859161 l -1.96479,3.929581 c -2.12858,-0.98239 -4.0115,-2.04665 -5.64877,-3.192784 l -2.21039,3.683982 c 2.2922,1.14613 4.83005,2.619722 7.61356,4.420779 l -2.70158,3.683982 c -4.7483,-3.765849 -8.92347,-6.221835 -12.52554,-7.367965 l 0,4.911977 c -5e-5,2.455983 -0.90057,3.683976 -2.70159,3.683982 l -3.68398,0 -0.9824,-3.929581 2.45599,0 c 0.49116,-2e-6 0.73676,-0.245601 0.7368,-0.736797 l 0,-3.683982 -11.29755,6.13997 c -0.32749,1.146124 -0.65495,1.391722 -0.98239,0.736797 l -2.21039,-4.17518 8.10476,-3.192784 -3.19279,-4.420779 c -1.80108,1.473599 -3.52027,2.619726 -5.15757,3.438383 0.32744,0.327469 0.57304,0.900533 0.7368,1.719192 l -4.17518,2.701587 c -1.63735,-4.09331 -3.52027,-7.449823 -5.64878,-10.069551 -1.30987,5.730643 -4.25705,10.888213 -8.84155,15.472725 l -2.70159,-3.929581 c 5.5669,-5.566903 8.35035,-12.361796 8.35036,-20.384701 l 0,-31.436648 3.92958,0 c 1.30984,0.163783 1.39171,0.65498 0.2456,1.473593 l 0,14.49033 c 1.63731,-1.473557 3.27463,-3.35648 4.91197,-5.648773 l 3.68399,3.929581 c 0.32744,0.654965 -0.0819,0.98243 -1.228,0.982395 -1.96481,2.128556 -4.42079,4.420809 -7.36796,6.876767 l 0,12.771138 c 2.1285,2.128536 4.09329,4.666388 5.89437,7.613563 4.25702,-2.128513 7.61353,-4.911964 10.06955,-8.350359 l -10.56075,0 0,-3.929581 10.56075,0 0,-3.438384 -7.61356,0 0,-3.929581 7.61356,0 0,-4.420778 -3.43838,0 -3.19279,0 0,-17.191917 29.71746,0 0,17.191917 -6.38557,0 0,4.420778 7.85916,0 0,3.929581 -7.85916,0 0,3.438384 11.05195,0 0,3.929581 z m -45.68138,-4.666378 c 1.47359,-5.075683 2.21039,-10.806316 2.21039,-17.191916 l 4.66638,0.982395 c 0.49119,0.491234 0.32745,0.982431 -0.4912,1.473593 0.16372,4.584542 -0.57307,10.151442 -2.21039,16.700719 z m 35.85743,14.49033 0,-8.104761 3.92958,0 c 1.30981,0.163747 1.39168,0.654944 0.2456,1.473593 l 0,6.13997 3.92958,1.473593 2.70159,-4.666377 c -2.29231,-1.964779 -4.0115,-4.011434 -5.15758,-6.13997 l -8.35036,0 c -0.49123,1.637339 -1.88296,3.683994 -4.17518,6.13997 l 4.17518,5.157575 z m -9.33276,-39.787007 0,4.17518 21.3671,0 0,-4.17518 z m 0,7.122365 0,4.17518 21.3671,0 0,-4.17518 z m 6.63117,7.122366 0,4.420778 8.35036,0 0,-4.420778 z m 0,8.350359 0,3.438384 8.35036,0 0,-3.438384 z" style="font-size:62.87329483px;font-family:MS Gothic;-inkscape-font-specification:MS Gothic" id="Explosion kanji"/>
</svg>