<svg xmlns:svg="http://www.w3.org/2000/svg" xmlns="http://www.w3.org/2000/svg" xmlns:xlink="http://www.w3.org/1999/xlink" xmlns:sodipodi="http://sodipodi.sourceforge.net/DTD/sodipodi-0.dtd" xmlns:inkscape="http://www.inkscape.org/namespaces/inkscape" id="svg3347" sodipodi:version="0.32" inkscape:version="0.46" width="100" height="100" sodipodi:docname="Nature Icon Dark.svg" inkscape:output_extension="org.inkscape.output.svg.inkscape" version="1.0">
    <defs id="defs3350">
        <linearGradient id="linearGradientDark">
            <stop offset="0" id="stopDark0" style="stop-color:#8300f4;stop-opacity:1;"/>
            <stop id="stopDark1" offset="1" style="stop-color:#1e0038;stop-opacity:1;"/>
        </linearGradient>
        <radialGradient gradientUnits="userSpaceOnUse" r="50" fy="49.999996" fx="49.999996" cy="49.999996" cx="49.999996" id="radialGradientDark" xlink:href="#linearGradientDark" inkscape:collect="always"/>
    </defs>
    <sodipodi:namedview inkscape:window-height="930" inkscape:window-width="1280" inkscape:pageshadow="2" inkscape:pageopacity="0.0" guidetolerance="10.0" gridtolerance="10.0" objecttolerance="50" borderopacity="1.0" bordercolor="#666666" pagecolor="#ffffff" id="base" showgrid="false" inkscape:zoom="0.2" inkscape:cx="49.999998" inkscape:cy="50.000002" inkscape:window-x="-4" inkscape:window-y="-4" inkscape:current-layer="svg3347" inkscape:snap-center="true" inkscape:object-nodes="true"/>
    <path style="fill:url(#radialGradientDark);fill-opacity:1;fill-rule:evenodd;stroke:#000000;stroke-width:5.6603775;stroke-linecap:butt;stroke-linejoin:miter;stroke-miterlimit:4;stroke-dasharray:none;stroke-opacity:1" d="M 2.830185,31.132074 L 12.264148,21.698111 L 12.264148,12.264149 L 21.69811,12.264149 L 31.132072,2.830186 L 68.867922,2.830186 L 78.301885,12.264149 L 87.735848,12.264149 L 87.735848,21.698111 L 97.16981,31.132074 L 97.16981,68.867924 L 87.735848,78.301886 L 87.735848,87.735849 L 78.301885,87.735849 L 68.867922,97.169811 L 31.132072,97.169811 L 21.69811,87.735849 L 12.264148,87.735849 L 12.264148,78.301886 L 2.830185,68.867924 L 2.830185,31.132074 z" id="Dark icon" sodipodi:nodetypes="ccccccccccccccccccccc"/>
    <path style="font-size:40px;font-style:normal;font-weight:normal;fill:#000000;fill-opacity:1;stroke:none;stroke-width:1px;stroke-linecap:butt;stroke-linejoin:miter;stroke-opacity:1;font-family:Bitstream Vera Sans" d="M 45.304147,68.997231 C 38.027677,73.994234 31.681947,77.09582 26.266928,78.301998 L 24.236288,72.615752 C 30.835857,70.892647 36.927757,67.963373 42.512027,63.827915 L 21.697997,63.827915 L 21.697997,58.917067 L 47.080947,58.917067 L 47.080947,53.747752 L 37.943097,53.747752 L 37.943097,55.557012 L 32.866497,55.557012 L 32.866497,30.485833 L 66.879658,30.485833 L 66.879658,55.040081 L 61.803077,55.040081 L 61.803077,53.747752 L 52.919047,53.747752 L 52.919047,58.917067 L 78.301997,58.917067 L 78.301997,63.827915 L 58.757127,63.827915 C 62.818347,66.757199 68.994857,69.42801 77.286677,71.840354 L 74.748387,77.268135 C 67.641107,75.200406 61.041538,72.012665 54.949678,67.704904 L 57.995628,63.827915 L 43.019687,63.827915 L 46.319467,68.221834 C 46.319447,69.083389 45.980998,69.341855 45.304147,68.997231 L 45.304147,68.997231 z M 23.982467,21.697998 L 75.763708,21.697998 L 75.763708,34.362821 L 70.687107,34.362821 L 70.687107,26.608848 L 29.059057,26.608848 L 29.059057,35.655148 L 23.982467,35.655148 L 23.982467,21.697998 z M 61.803077,35.396683 L 37.943097,35.396683 L 37.943097,39.790601 L 61.803077,39.790601 L 61.803077,35.396683 z M 61.803077,43.926052 L 37.943097,43.926052 L 37.943097,48.836902 L 61.803077,48.836902 L 61.803077,43.926052 z" id="Dark kanji"/>
</svg>