<svg xmlns:svg="http://www.w3.org/2000/svg" xmlns="http://www.w3.org/2000/svg" xmlns:xlink="http://www.w3.org/1999/xlink" xmlns:sodipodi="http://sodipodi.sourceforge.net/DTD/sodipodi-0.dtd" xmlns:inkscape="http://www.inkscape.org/namespaces/inkscape" id="svg3347" sodipodi:version="0.32" inkscape:version="0.47 r22583" width="100.00001" height="100" sodipodi:docname="Nature Icon Scorch.svg" inkscape:output_extension="org.inkscape.output.svg.inkscape" version="1.0">
    <defs id="defs3350">
        <inkscape:perspective sodipodi:type="inkscape:persp3d" inkscape:vp_x="0 : 50 : 1" inkscape:vp_y="0 : 1000 : 0" inkscape:vp_z="100 : 50 : 1" inkscape:persp3d-origin="50 : 33.333333 : 1" id="perspective13"/>
        <linearGradient id="linearGradientScorch">
            <stop offset="0" id="stopScorch0" style="stop-color:#ffff64;stop-opacity:1;"/>
            <stop style="stop-color:#ff0000;stop-opacity:1;" id="stop3703" offset="0.5"/>
            <stop id="stopScorch1" offset="1" style="stop-color:#660000;stop-opacity:1;"/>
        </linearGradient>
        <radialGradient gradientUnits="userSpaceOnUse" r="50" fy="50" fx="50" cy="50" cx="50" id="radialGradientScorch" xlink:href="#linearGradientScorch" inkscape:collect="always" gradientTransform="translate(-1.2487793e-6,2.5512207e-6)"/>
        <inkscape:perspective id="perspective2841" inkscape:persp3d-origin="283.48227 : 38.893702 : 1" inkscape:vp_z="566.96454 : 58.340553 : 1" inkscape:vp_y="0 : 1000 : 0" inkscape:vp_x="0 : 58.340553 : 1" sodipodi:type="inkscape:persp3d"/>
        <inkscape:perspective id="perspective2857" inkscape:persp3d-origin="283.48227 : 38.893702 : 1" inkscape:vp_z="566.96454 : 58.340553 : 1" inkscape:vp_y="0 : 1000 : 0" inkscape:vp_x="0 : 58.340553 : 1" sodipodi:type="inkscape:persp3d"/>
        <inkscape:perspective id="perspective2873" inkscape:persp3d-origin="283.48227 : 38.893702 : 1" inkscape:vp_z="566.96454 : 58.340553 : 1" inkscape:vp_y="0 : 1000 : 0" inkscape:vp_x="0 : 58.340553 : 1" sodipodi:type="inkscape:persp3d"/>
        <inkscape:perspective id="perspective2889" inkscape:persp3d-origin="283.48227 : 38.893702 : 1" inkscape:vp_z="566.96454 : 58.340553 : 1" inkscape:vp_y="0 : 1000 : 0" inkscape:vp_x="0 : 58.340553 : 1" sodipodi:type="inkscape:persp3d"/>
        <inkscape:perspective id="perspective2905" inkscape:persp3d-origin="283.48227 : 38.893702 : 1" inkscape:vp_z="566.96454 : 58.340553 : 1" inkscape:vp_y="0 : 1000 : 0" inkscape:vp_x="0 : 58.340553 : 1" sodipodi:type="inkscape:persp3d"/>
        <inkscape:perspective id="perspective2919" inkscape:persp3d-origin="0.5 : 0.33333333 : 1" inkscape:vp_z="1 : 0.5 : 1" inkscape:vp_y="0 : 1000 : 0" inkscape:vp_x="0 : 0.5 : 1" sodipodi:type="inkscape:persp3d"/>
    </defs>
    <sodipodi:namedview inkscape:window-height="940" inkscape:window-width="1280" inkscape:pageshadow="2" inkscape:pageopacity="0.0" guidetolerance="10.0" gridtolerance="10.0" objecttolerance="50" borderopacity="1.0" bordercolor="#666666" pagecolor="#ffffff" id="base" showgrid="false" inkscape:zoom="2.9772152" inkscape:cx="169.49783" inkscape:cy="38.862067" inkscape:window-x="-8" inkscape:window-y="-8" inkscape:current-layer="svg3347" inkscape:snap-center="true" inkscape:object-paths="false" inkscape:object-nodes="false" inkscape:snap-object-midpoints="true" inkscape:snap-smooth-nodes="false" inkscape:window-maximized="1"/>
    <path style="fill:url(#radialGradientScorch);fill-opacity:1;fill-rule:evenodd;stroke:#000000;stroke-width:5.6603775;stroke-linecap:butt;stroke-linejoin:miter;stroke-miterlimit:4;stroke-opacity:1;stroke-dasharray:none" d="m 2.8301888,31.132076 9.4339602,-9.433963 0,-9.433961 9.43397,0 9.43396,-9.4339632 37.73585,0 9.43396,9.4339632 9.43396,0 0,9.433961 9.43397,9.433963 0,37.73585 -9.43397,9.433962 0,9.433963 -9.43396,0 -9.43396,9.433962 -37.73585,0 -9.43396,-9.433962 -9.43397,0 0,-9.433963 -9.4339602,-9.433962 0,-37.73585 z" id="Scorch icon" sodipodi:nodetypes="ccccccccccccccccccccc"/>
    <path d="m 37.392749,21.946264 c 1.372196,0.16556 1.457954,0.662087 0.257291,1.489579 l 0,13.406211 c 1.543729,-1.324032 3.430523,-3.392889 5.660401,-6.206579 l 4.116655,2.979158 c 0.857606,1.1586 0.428787,1.655126 -1.286455,1.489579 -2.915989,3.144702 -5.746192,5.710086 -8.490601,7.696157 l 0,5.46179 c -1.7e-5,3.972231 -0.171549,6.868632 -0.514582,8.68921 4.459687,3.475697 8.233283,7.199642 11.320801,11.171843 l -3.602072,5.213526 c -2.74446,-3.972206 -5.660418,-7.447887 -8.747893,-10.427053 -1.37223,5.296287 -4.80277,10.427053 -10.29164,15.392316 l -3.85936,-4.468737 c 7.03261,-5.461785 10.54891,-13.406198 10.54893,-23.833263 l 0,-28.053737 z m -7.976015,13.902737 c -2e-5,5.958348 -0.85765,11.502886 -2.57291,16.633632 l -5.14582,-1.241316 c 1.71526,-4.799727 2.57291,-10.096002 2.57291,-15.888842 z M 58.233314,23.18758 c 1.71523,0.662085 1.629467,1.241365 -0.257291,1.737842 -0.857676,2.813695 -1.715311,5.627342 -2.572909,8.440947 l 22.89889,0 -1.543745,31.777685 c -0.343114,7.778913 -3.430601,11.668365 -9.262473,11.668368 l -6.432272,0 -2.058328,-5.461789 6.946855,0 c 3.430493,10e-7 5.231528,-2.234364 5.403109,-6.703106 l 1.286454,-26.564158 -19.296817,0 c -2.229888,4.468769 -5.060085,8.523729 -8.4906,12.164895 l -4.631238,-3.97221 C 46.397904,40.648788 50.600317,32.456112 52.830205,21.698001 z m 8.233309,26.564158 0,4.717 -18.782236,0 0,-4.717 z" style="fill:#000000;font-family:MS Gothic;-inkscape-font-specification:MS Gothic" id="Scorch kanji"/>
</svg>