<svg xmlns:svg="http://www.w3.org/2000/svg" xmlns="http://www.w3.org/2000/svg" xmlns:xlink="http://www.w3.org/1999/xlink" xmlns:sodipodi="http://sodipodi.sourceforge.net/DTD/sodipodi-0.dtd" xmlns:inkscape="http://www.inkscape.org/namespaces/inkscape" id="svg3347" sodipodi:version="0.32" inkscape:version="0.46" width="100" height="100" sodipodi:docname="Nature Icon Lightning.svg" inkscape:output_extension="org.inkscape.output.svg.inkscape" version="1.0">
    <defs id="defs3350">
        <linearGradient id="linearGradientLightning2">
            <stop offset="0" id="stopLightning20" style="stop-color:#fff101;stop-opacity:1;"/>
            <stop id="stopLightning21" offset="1" style="stop-color:#ccc000;stop-opacity:1;"/>
        </linearGradient>
        <linearGradient id="linearGradientLightning1">
            <stop id="stopLightning10" offset="0" style="stop-color:#b051ff;stop-opacity:1"/>
            <stop offset="1" id="stopLightning11" style="stop-color:#8b00ff;stop-opacity:1"/>
        </linearGradient>
        <radialGradient gradientTransform="matrix(1.8867925,0,0,1.8867925,-478.3019,-690.30602)" r="26.5" fy="392.36218" fx="280" cy="392.36218" cx="280" gradientUnits="userSpaceOnUse" id="radialGradientLightning" xlink:href="#linearGradientLightning2" inkscape:collect="always"/>
    </defs>
    <sodipodi:namedview inkscape:window-height="922" inkscape:window-width="632" inkscape:pageshadow="2" inkscape:pageopacity="0.0" guidetolerance="10.0" gridtolerance="10.0" objecttolerance="10.0" borderopacity="1.0" bordercolor="#666666" pagecolor="#ffffff" id="base" showgrid="false" inkscape:zoom="1" inkscape:cx="50" inkscape:cy="50.000001" inkscape:window-x="640" inkscape:window-y="0" inkscape:current-layer="svg3347"/>
    <path style="fill:url(#radialGradientLightning);fill-opacity:1.0;fill-rule:evenodd;stroke:#000000;stroke-width:5.66037750000000010;stroke-linecap:butt;stroke-linejoin:miter;stroke-miterlimit:4;stroke-dasharray:none;stroke-opacity:1" d="M 2.8301875,31.132074 L 31.132075,2.830186 L 68.867925,2.830186 L 97.169813,31.132074 L 97.169813,68.867924 L 68.867925,97.169811 L 31.132075,97.169811 L 2.8301875,68.867924 L 2.8301875,31.132074 z" id="Lightning icon" sodipodi:nodetypes="ccccccccc"/>
    <path transform="scale(1.0161487,0.9841079)" style="font-size:66.32688904px;font-style:normal;font-variant:normal;font-weight:normal;font-stretch:normal;text-align:start;line-height:125%;writing-mode:lr-tb;text-anchor:start;fill:#000000;fill-opacity:1;stroke:none;stroke-width:1px;stroke-linecap:butt;stroke-linejoin:miter;stroke-opacity:1;font-family:MS Gothic;-inkscape-font-specification:MS Gothic" d="M 66.693907,78.789073 L 66.693907,76.716357 L 31.975926,76.716357 L 31.975926,79.566341 L 27.571406,79.566341 L 27.571406,53.139221 L 71.098427,53.139221 L 71.098427,78.789073 L 66.693907,78.789073 z M 31.975926,57.284652 L 31.975926,62.46644 L 47.003111,62.46644 L 47.003111,57.284652 L 31.975926,57.284652 z M 51.407631,66.61187 L 51.407631,72.570927 L 66.693907,72.570927 L 66.693907,66.61187 L 51.407631,66.61187 z M 31.975926,66.61187 L 31.975926,72.570927 L 47.003111,72.570927 L 47.003111,66.61187 L 31.975926,66.61187 z M 51.407631,57.284652 L 51.407631,62.46644 L 66.693907,62.46644 L 66.693907,57.284652 L 51.407631,57.284652 z M 54.516704,45.107449 L 69.80298,45.107449 L 69.80298,48.216522 L 54.516704,48.216522 L 54.516704,45.107449 z M 54.516704,38.371125 L 69.80298,38.371125 L 69.80298,41.480198 L 54.516704,41.480198 L 54.516704,38.371125 z M 28.607763,45.107449 L 43.894039,45.107449 L 43.894039,48.216522 L 28.607763,48.216522 L 28.607763,45.107449 z M 28.607763,38.371125 L 43.894039,38.371125 L 43.894039,41.480198 L 28.607763,41.480198 L 28.607763,38.371125 z M 47.003111,30.598442 L 47.003111,26.193922 L 26.275959,26.193922 L 26.275959,22.048492 L 72.134784,22.048492 L 72.134784,26.193922 L 51.407631,26.193922 L 51.407631,30.598442 L 77.057483,30.598442 L 77.057483,41.739287 L 72.652963,41.739287 L 72.652963,34.743873 L 51.407631,34.743873 L 51.407631,50.807416 L 47.003111,50.807416 L 47.003111,34.743873 L 25.75778,34.743873 L 25.75778,41.998376 L 21.35326,41.998376 L 21.35326,30.598442 L 47.003111,30.598442 z" id="Lightning kanji"/>
</svg>