<svg xmlns:svg="http://www.w3.org/2000/svg" xmlns="http://www.w3.org/2000/svg" xmlns:xlink="http://www.w3.org/1999/xlink" xmlns:sodipodi="http://sodipodi.sourceforge.net/DTD/sodipodi-0.dtd" xmlns:inkscape="http://www.inkscape.org/namespaces/inkscape" id="svg3347" sodipodi:version="0.32" inkscape:version="0.46" width="100" height="100" sodipodi:docname="Nature Icon Wood.svg" inkscape:output_extension="org.inkscape.output.svg.inkscape" version="1.0">
    <defs id="defs3350">
        <linearGradient id="linearGradientWood">
            <stop id="stopWood0" offset="0" style="stop-color:#734a12;stop-opacity:1"/>
            <stop offset="1" id="stopWood1" style="stop-color:#358e20;stop-opacity:1"/>
        </linearGradient>
        <radialGradient gradientUnits="userSpaceOnUse" r="50.000004" fy="49.999996" fx="50.000004" cy="49.999996" cx="50.000004" id="radialGradientWood" xlink:href="#linearGradientWood" inkscape:collect="always"/>
    </defs>
    <sodipodi:namedview inkscape:window-height="930" inkscape:window-width="1280" inkscape:pageshadow="2" inkscape:pageopacity="0.0" guidetolerance="10.0" gridtolerance="10.0" objecttolerance="10.0" borderopacity="1.0" bordercolor="#666666" pagecolor="#ffffff" id="base" showgrid="false" inkscape:zoom="7.1699998" inkscape:cx="50.000005" inkscape:cy="50.000002" inkscape:window-x="-4" inkscape:window-y="-4" inkscape:current-layer="svg3347"/>
    <path style="fill:url(#radialGradientWood);fill-opacity:1;fill-rule:evenodd;stroke:#000000;stroke-width:5.6603775;stroke-linecap:butt;stroke-linejoin:miter;stroke-miterlimit:4;stroke-dasharray:none;stroke-opacity:1" d="M 2.8301925,31.132074 L 12.264155,21.698111 L 12.264155,12.264149 L 21.698117,12.264149 L 31.13208,2.830186 L 68.86793,2.830186 L 78.301893,12.264149 L 87.735855,12.264149 L 87.735855,21.698111 L 97.169818,31.132074 L 97.169818,68.867924 L 87.735855,78.301886 L 87.735855,87.735849 L 78.301893,87.735849 L 68.86793,97.169811 L 31.13208,97.169811 L 21.698117,87.735849 L 12.264155,87.735849 L 12.264155,78.301886 L 2.8301925,68.867924 L 2.8301925,31.132074 z" id="Wood icon" sodipodi:nodetypes="ccccccccccccccccccccc"/>
    <path transform="scale(0.9911503,1.0089287)" style="font-size:64.40505981px;font-style:normal;font-variant:normal;font-weight:normal;font-stretch:normal;text-align:start;line-height:125%;writing-mode:lr-tb;text-anchor:start;fill:#000000;fill-opacity:1;stroke:none;stroke-width:1px;stroke-linecap:butt;stroke-linejoin:miter;stroke-opacity:1;font-family:MS Gothic;-inkscape-font-specification:MS Gothic" d="M 21.891848,65.533013 C 33.967781,59.159609 42.186127,50.102656 46.54691,38.362128 L 24.407671,38.362128 L 24.407671,32.827318 L 47.553239,32.827318 L 47.553239,21.506117 L 52.333302,21.506117 C 53.675039,21.673889 53.7589,22.177053 52.584885,23.01561 L 52.584885,32.827318 L 76.4852,32.827318 L 76.4852,38.362128 L 53.591214,38.362128 C 57.281048,48.928607 65.750976,57.650117 79.001023,64.526684 L 76.233618,70.313076 C 66.002558,64.778274 58.119655,57.063092 52.584885,47.167508 L 52.584885,77.608962 L 47.553239,77.608962 L 47.553239,47.922254 C 42.689291,56.81151 35.225691,64.526692 25.162418,71.067823 L 21.891848,65.533013 L 21.891848,65.533013 z" id="Wood kanji"/>
</svg>