<svg xmlns="http://www.w3.org/2000/svg" version="1" width="100" height="100">
    <g stroke="#000" stroke-width="4.207" fill="none" stroke-linecap="round" stroke-linejoin="round">
        <path d="M-142.125-55.25c1.25.583 2.688 1.313 2.25 5.375-1.313 3.563-3.813 6.604-10.125 6.375-5.063-1.23-10.563-2.667-10.125-12.75.438-5.208 5.875-12.438 15.125-12.5 13.375.188 19.938 12 19.375 21.125-.688 13-11.083 19.75-25.375 21-7.667 0-16.563-4.188-20.625-10.5-5.063-6.563-7.02-20.083-2.75-29 4.52-9.542 13.05-15.547 23.125-15.75 9.354-.188 15.5 3.333 19 5.5l8.25-8" overflow="visible" transform="matrix(1.359 0 0 1.3562 265.674 124.785)"/>
        <path d="M-172.625-69.25c-4.95 7.712-8.26 17.754-11.625 23.875-2.417 5.25-5.708 8.25-9.125 12.25 13.567 7.868 34.476 8.502 48.063 5.688" overflow="visible" transform="matrix(1.359 0 0 1.3562 265.674 124.785)"/>
    </g>
</svg>
