<svg xmlns:dc="http://purl.org/dc/elements/1.1/" xmlns:cc="http://creativecommons.org/ns#" xmlns:rdf="http://www.w3.org/1999/02/22-rdf-syntax-ns#" xmlns:svg="http://www.w3.org/2000/svg" xmlns="http://www.w3.org/2000/svg" xmlns:sodipodi="http://sodipodi.sourceforge.net/DTD/sodipodi-0.dtd" xmlns:inkscape="http://www.inkscape.org/namespaces/inkscape" version="1.0" width="100" height="100.00001" id="svg2211" sodipodi:version="0.32" inkscape:version="0.47 r22583" sodipodi:docname="Village Symbol Nadeshiko.svg" inkscape:output_extension="org.inkscape.output.svg.inkscape">
    <metadata id="metadata9">
        <rdf:RDF>
            <cc:Work rdf:about="">
                <dc:format>image/svg+xml</dc:format>
                <dc:type rdf:resource="http://purl.org/dc/dcmitype/StillImage"/>
            </cc:Work>
        </rdf:RDF>
    </metadata>
    <sodipodi:namedview inkscape:window-height="940" inkscape:window-width="1280" inkscape:pageshadow="2" inkscape:pageopacity="0.0" guidetolerance="10.0" gridtolerance="10.0" objecttolerance="10.0" borderopacity="1.0" bordercolor="#666666" pagecolor="#ffffff" id="base" showgrid="false" inkscape:zoom="0.35355339" inkscape:cx="4.8887171" inkscape:cy="141.02633" inkscape:window-x="-8" inkscape:window-y="-8" inkscape:current-layer="svg2211" inkscape:snap-object-midpoints="true" inkscape:object-nodes="true" inkscape:snap-smooth-nodes="true" inkscape:window-maximized="1">
        <inkscape:grid type="xygrid" id="grid3154" visible="true" enabled="true" empspacing="5" snapvisiblegridlinesonly="true"/>
    </sodipodi:namedview>
    <defs id="defs2214">
        <inkscape:perspective sodipodi:type="inkscape:persp3d" inkscape:vp_x="0 : 50 : 1" inkscape:vp_y="6.1230318e-14 : 1000 : 0" inkscape:vp_z="100 : 50 : 1" inkscape:persp3d-origin="50 : 33.333333 : 1" id="perspective11"/>
        <inkscape:perspective id="perspective3204" inkscape:persp3d-origin="50 : 33.333333 : 1" inkscape:vp_z="100 : 50 : 1" inkscape:vp_y="0 : 1000 : 0" inkscape:vp_x="0 : 50 : 1" sodipodi:type="inkscape:persp3d"/>
        <inkscape:perspective id="perspective2390" inkscape:persp3d-origin="372.04724 : 350.78739 : 1" inkscape:vp_z="744.09448 : 526.18109 : 1" inkscape:vp_y="0 : 1000 : 0" inkscape:vp_x="0 : 526.18109 : 1" sodipodi:type="inkscape:persp3d"/>
        <inkscape:perspective id="perspective2825" inkscape:persp3d-origin="0.5 : 0.33333333 : 1" inkscape:vp_z="1 : 0.5 : 1" inkscape:vp_y="0 : 1000 : 0" inkscape:vp_x="0 : 0.5 : 1" sodipodi:type="inkscape:persp3d"/>
    </defs>
    <path id="path3735" style="fill:#000000;fill-opacity:1;stroke:#000000;stroke-width:1;stroke-linecap:butt;stroke-linejoin:round;stroke-miterlimit:4;stroke-opacity:1;stroke-dasharray:none;stroke-dashoffset:0" d="m 50.000013,0.5 c -7.99926,0 -15.55521,1.90986 -22.23592,5.30023 -2.11307,1.28252 -2.85884,2.29509 -1.51585,4.7359 l 14.60393,24.44184 c 3.90131,6.53372 5.95695,-7.99554 9.14784,-7.91817 3.1909,-0.0773 5.24654,14.45197 9.14785,7.91824 L 73.751793,10.5362 c 1.343,-2.44081 0.59722,-3.45338 -1.51585,-4.7359 C 65.555233,2.40993 57.999273,0.5 50.000013,0.5 z" sodipodi:nodetypes="ccccccccc"/>
    <path sodipodi:nodetypes="ccccccccc" d="m 2.9351529,34.90991 c -2.47191003,7.65563 -3.00180003,15.47717 -1.86199,22.91857 0.55914,2.41861 1.28568,3.44526 4.00752,2.91421 L 32.693733,54.31905 c 7.38065,-1.71469 -5.71585,-8.1718 -4.6567,-11.20171 0.91297,-3.07772 15.27995,-0.55526 10.31044,-6.30801 L 19.760163,15.27981 c -1.89183,-2.03955 -3.07928,-1.63872 -4.94437,-0.0128 C 9.5470729,20.61305 5.4070629,27.25422 2.9351529,34.90985 z" style="fill:#000000;fill-opacity:1;stroke:#000000;stroke-width:1;stroke-linecap:butt;stroke-linejoin:round;stroke-miterlimit:4;stroke-opacity:1;stroke-dasharray:none;stroke-dashoffset:0" id="path3750"/>
    <path id="path3752" style="fill:#000000;fill-opacity:1;stroke:#000000;stroke-width:1;stroke-linecap:butt;stroke-linejoin:round;stroke-miterlimit:4;stroke-opacity:1;stroke-dasharray:none;stroke-dashoffset:0" d="m 20.912333,90.58615 c 6.47153,4.73144 13.7,7.65555 21.08514,8.86423 2.45864,0.21228 3.65344,-0.16581 3.99264,-2.93482 l 2.46186,-28.41187 c 0.66019,-7.59345 -9.48953,2.94507 -12.02583,0.99513 -2.62665,-1.8248 4.19699,-14.79513 -2.77565,-11.8168 L 7.5589729,68.41787 c -2.51221,1.18031 -2.50031,2.44061 -1.53998,4.72802 3.42447,6.69441 8.4217601,12.7088 14.8933001,17.44025 z" sodipodi:nodetypes="ccccccccc"/>
    <path sodipodi:nodetypes="ccccccccc" d="m 79.087723,90.58612 c 6.47154,-4.73144 11.46887,-10.74579 14.89333,-17.44018 0.96039,-2.28742 0.97227,-3.54772 -1.53993,-4.72803 L 66.349583,57.28205 c -6.97264,-2.97832 -0.149,9.99197 -2.77568,11.81674 -2.53632,1.94992 -12.68607,-8.58865 -12.02587,-0.99518 l 2.46185,28.41185 c 0.33921,2.76903 1.534,3.14711 3.99262,2.93487 7.38515,-1.20868 14.61366,-4.13274 21.08519,-8.86418 z" style="fill:#000000;fill-opacity:1;stroke:#000000;stroke-width:1;stroke-linecap:butt;stroke-linejoin:round;stroke-miterlimit:4;stroke-opacity:1;stroke-dasharray:none;stroke-dashoffset:0" id="path3754"/>
    <path id="path3756" style="fill:#000000;fill-opacity:1;stroke:#000000;stroke-width:1;stroke-linecap:butt;stroke-linejoin:round;stroke-miterlimit:4;stroke-opacity:1;stroke-dasharray:none;stroke-dashoffset:0" d="m 97.064873,34.90987 c -2.4719,-7.65562 -6.61186,-14.29681 -11.88056,-19.64285 -1.86508,-1.62599 -3.05254,-2.02681 -4.94437,0.0128 l -18.58732,21.52953 c -4.9695,5.75275 9.39745,3.23029 10.31037,6.30802 1.05912,3.02992 -12.03741,9.48706 -4.65675,11.20173 l 27.61303,6.42365 c 2.72185,0.53105 3.44838,-0.49559 4.00755,-2.91418 1.139807,-7.4414 0.60999,-15.26297 -1.86193,-22.9186 z" sodipodi:nodetypes="ccccccccc"/>
</svg>