<svg xmlns="http://www.w3.org/2000/svg" version="1" width="100" height="100">
    <path d="M39.118 68.684L41.95 11.1M17.872 97.03c-.336-6.68 3.168-12.382 8.056-18.152 4.888-5.77 8.882-7.332 13.102-8.227.797 6.29-2.892 11.745-6.463 16.454-3.57 4.71-9.767 10.998-14.695 9.925z" stroke="#000" stroke-width="5.699" stroke-linecap="round" stroke-linejoin="round" overflow="visible"/>
    <path d="M39.332 2.476c1.17-3.96 10.736-2.907 16.836 1.286 6.1 4.192 9.297 3.513 15.86 3.815 6.562.302 14.29 6.988 12.78 15.354-1.51 8.368-7.806 16.578-8.686 15.544 1.045-2.35 5.233-11.814 3.29-17.862-1.963-6.104-5.48-5.115-14.954-5.703-9.475-.588-8.058-.56-13.96-3.134-5.904-2.575-11.562 3.892-11.525 2.64l.36-11.94z" stroke-width="5.712" stroke-linecap="round" stroke-linejoin="round" stroke-opacity=".502" overflow="visible"/>
</svg>
