<svg xmlns:dc="http://purl.org/dc/elements/1.1/" xmlns:cc="http://creativecommons.org/ns#" xmlns:rdf="http://www.w3.org/1999/02/22-rdf-syntax-ns#" xmlns:svg="http://www.w3.org/2000/svg" xmlns="http://www.w3.org/2000/svg" xmlns:xlink="http://www.w3.org/1999/xlink" xmlns:sodipodi="http://sodipodi.sourceforge.net/DTD/sodipodi-0.dtd" xmlns:inkscape="http://www.inkscape.org/namespaces/inkscape" width="100" height="100" id="svg2839" version="1.1" inkscape:version="0.47 r22583" sodipodi:docname="New document 2">
    <defs id="defs2841">
        <radialGradient inkscape:collect="always" xlink:href="#linearGradientWind" id="radialGradient3239" gradientUnits="userSpaceOnUse" gradientTransform="matrix(1,0,0,0.85945027,0,11.573318)" cx="-1021.5062" cy="82.343224" fx="-1021.5062" fy="82.343224" r="83.034187"/>
        <linearGradient id="linearGradientWind">
            <stop offset="0" id="stopWind0" style="stop-color:#00f89e;stop-opacity:1"/>
            <stop id="stopWind1" offset="1" style="stop-color:#00a86b;stop-opacity:1"/>
        </linearGradient>
    </defs>
    <sodipodi:namedview id="base" pagecolor="#ffffff" bordercolor="#666666" borderopacity="1.0" inkscape:pageopacity="0.0" inkscape:pageshadow="2" inkscape:zoom="0.35" inkscape:cx="327.85714" inkscape:cy="155.71428" inkscape:document-units="px" inkscape:current-layer="layer1" showgrid="false" inkscape:window-width="1280" inkscape:window-height="930" inkscape:window-x="-4" inkscape:window-y="-4" inkscape:window-maximized="1"/>
    <g inkscape:label="Layer 1" inkscape:groupmode="layer" id="layer1" transform="translate(-47.142857,-588.07647)">
        <g transform="translate(-52.857147,-364.28571)" id="Wind Country 1">
            <path sodipodi:type="arc" style="fill:url(#radialGradient3239);fill-opacity:1;stroke:#000000;stroke-width:6.8012886;stroke-linecap:butt;stroke-linejoin:round;stroke-miterlimit:4;stroke-opacity:1;stroke-dasharray:none;stroke-dashoffset:55.5000029" id="Wind Country Icon 1" sodipodi:cx="-1021.5062" sodipodi:cy="82.343224" sodipodi:rx="79.633545" sodipodi:ry="67.963112" d="m -941.87268,82.343224 c 0,37.534986 -35.65315,67.963116 -79.63352,67.963116 -43.9804,0 -79.6336,-30.42813 -79.6336,-67.963116 0,-37.534991 35.6532,-67.963112 79.6336,-67.963112 43.98037,0 79.63352,30.428121 79.63352,67.963112 z" transform="matrix(0.60013489,0,0,0.70318836,763.04153,944.45938)"/>
            <path sodipodi:nodetypes="cccscccccccccscccccccccccccccccccccsssccccsccccccsssscccccccsccsssssssccssccsccsssscccscccccsscccccccccccccsccccscccccsccccccccc" id="Wind Country Kanji 1" d="m 115.00518,1037.1831 c -0.025,-0.4177 0.0324,-0.5635 0.53253,-1.2875 4.32651,-6.4409 7.76272,-13.0311 9.39505,-19.6719 1.86192,-6.3769 2.08411,-14.3698 2.64518,-22.25758 0.58825,-8.26873 1.18452,-16.47928 -1.28192,-23.69294 -0.56216,-1.77641 -0.57722,-2.38987 -0.0679,-2.7709 1.75107,-0.87714 8.41736,2.6132 9.47726,3.50308 l 0.78377,0.84175 0.83166,0.0982 c 3.14642,0.12383 6.30701,-0.0578 9.45459,-0.16607 8.62472,-0.28963 17.20013,-0.85889 25.83081,-0.49184 1.11763,0.0495 2.42111,0.23716 3.33952,0.3606 1.80711,1.09024 2.85012,3.23478 3.86493,5.01396 0.0821,0.14857 0.18219,0.51131 0.22262,0.80631 0.0669,0.4865 0.044,0.5554 -0.23863,0.74109 -0.72751,1.02657 -1.84919,1.84538 -2.49962,2.93867 0.1064,13.14181 -1.38019,25.53707 0.69722,39.12767 0.61791,5.3997 1.92002,10.3379 5.58495,14.3109 0.1536,0.3307 1.54233,1.5666 1.41492,1.9561 -0.17599,0 -0.9615,-0.3121 -1.52482,-0.6061 -6.88148,-3.9826 -11.00067,-13.3591 -12.20929,-20.0702 -0.86906,-7.1255 -0.73203,-14.3402 -0.78296,-21.51063 0.10286,-3.74985 -0.0796,-7.48807 -0.0968,-11.23202 -0.007,-3.43601 -0.0143,-4.49714 -0.25429,-4.55575 -0.35249,-0.38586 -1.78006,-0.77004 -2.3566,-0.97364 -2.03388,-0.78009 -3.9091,-0.71837 -6.26012,-0.63623 -7.62562,0.55038 -15.54791,-0.10034 -23.18134,1.18116 -2.19116,0.44335 -1.76157,0.30821 -2.11691,0.94396 -0.22678,0.60285 -0.27215,1.17882 -0.42986,5.47614 -0.60074,9.56353 -2.89592,24.52851 -4.0361,28.34811 -2.68177,8.2326 -6.66297,16.7191 -13.31076,22.5627 -1.25421,0.8581 -1.60746,1.216 -3.027,1.8605 -0.32323,0.064 -0.38886,0.039 -0.4006,-0.1475 l -1.1e-4,0 z m 50.02709,-6.4721 c -0.52329,-0.1458 -1.25922,-0.402 -1.63538,-0.5697 -0.73632,-0.3282 -0.8291,-0.5221 -0.52986,-1.1066 0.18822,-0.3678 0.50725,-1.2495 0.62501,-1.7279 0.1055,-0.4283 0.15253,-3.3344 0.17431,-3.6043 -0.0108,-0.083 -0.12571,-0.065 -0.41933,-0.049 -4.38844,-0.06 -8.76101,-0.2271 -13.14142,0.1961 -4.03818,0.6423 -8.55747,0.2936 -12.28876,2.2733 -0.43104,0.2546 -0.84862,0.4098 -1.10608,0.4092 -0.47745,-10e-4 -0.98467,-0.3057 -1.11548,-0.5308 -0.87976,-1.1946 -3.54636,-4.9509 -3.72053,-6.8617 0.12106,-0.4642 0.42049,-0.5002 2.02909,-0.2439 2.86534,0.5887 3.72925,0.4668 7.29254,0.5855 2.22661,0 5.17477,-0.087 7.31345,-0.8228 0.5657,-0.032 0.27214,-4.7188 0.21996,-6.9634 -0.032,-1.1798 -0.0589,-2.2945 -0.0593,-2.477 -6.7e-4,-0.1904 -0.0625,-0.3243 -0.14502,-0.3136 -0.30393,0.039 -0.432,-0.015 -0.37738,-0.1589 0.0432,-0.1136 -0.34606,-0.159 -1.64514,-0.1908 -1.92632,-0.047 -2.51062,0.068 -3.01444,0.5951 -0.23856,0.2714 -0.5613,0.402 -0.82832,0.6391 -2.38998,1.1882 -2.18703,0.613 -4.19293,-0.2668 -0.58623,-0.5276 -0.64689,-1.5855 -0.4107,-2.3104 0.22359,-0.6652 0.1568,-1.2971 0.0321,-2.0118 -0.42847,-2.9283 -0.18145,-5.73228 -1.67015,-8.34214 -0.26574,-0.56352 0.42579,-1.56089 0.81081,-1.98429 0.75421,-0.79617 1.42319,-1.19803 2.05422,-1.23397 0.58638,-0.0321 0.67427,-0.0179 0.85307,0.14967 0.52999,0.33859 1.05832,0.6584 1.5351,1.07561 1.45295,1.29039 1.4002,0.93735 4.35318,0.8961 1.87192,-0.025 2.56147,-0.075 2.67611,-0.18998 0.0973,-0.0975 0.14894,-0.42926 0.13997,-0.89379 -0.0447,-2.26754 -0.14892,-4.591 -0.21786,-4.85659 -0.0789,-0.30355 -0.0807,-0.30392 -0.93425,-0.19963 -0.96801,0.11821 -7.57762,0.16464 -8.77774,0.0614 -0.43239,-0.0374 -0.90395,-0.13073 -1.04789,-0.20787 -0.65954,-0.35358 0.12932,-1.02117 1.53676,-1.30017 8.28134,-2.99631 16.71879,-5.09404 21.20052,-8.34471 0.235,-0.20894 0.32715,-0.40426 0.32716,-0.69325 1.3e-4,-0.40889 0.22463,-0.73838 0.65418,-0.95901 0.17537,-0.09 0.36296,-0.0702 0.71361,0.075 2.67328,1.23339 4.68422,3.7057 6.01204,6.30318 0.13,0.43502 0.1182,0.48367 -0.20145,0.82143 -0.58854,0.6221 -1.10806,0.83449 -2.83727,1.15986 -4.23854,0.96631 -8.30947,1.16942 -12.07212,2.18216 -0.0982,0.0321 0.15787,0.17966 0.56859,0.33037 1.75244,0.64225 2.33219,1.47843 2.35712,3.39959 0.007,0.62269 -0.0528,1.39802 -0.13601,1.72294 -0.13358,0.52261 -0.1282,0.60815 0.0464,0.74103 0.29071,0.22144 1.46788,0.18324 3.8725,-0.12534 l 2.12915,-0.27359 0.42798,-0.4727 c 0.72036,-0.79565 0.88966,-1.02949 1.28201,-1.77115 0.29536,-0.5581 0.44623,-0.72341 0.68776,-0.75313 2.24738,0.46256 2.54066,1.53272 3.8374,3.20251 0.19034,0.24143 0.22821,2.5862 0.0447,2.77007 -0.71548,1.83984 -1.55291,3.64509 -1.79952,5.62519 -0.28679,1.7333 -0.69821,3.4567 -0.8249,5.2119 0.0107,0.1486 0.0143,0.3318 0.0107,0.4071 -0.0176,0.1843 -1.87642,1.2816 -2.14124,1.3526 -0.24249,0.065 -2.35578,-1.0803 -3.00014,-1.6579 -1.46516,-0.1564 -3.43207,-0.3719 -4.96608,0.049 -0.24251,0.2492 -0.30907,5.8206 -0.0461,8.5448 0.14928,1.8832 -0.22392,1.7294 0.74497,1.6251 2.03094,0.057 5.10779,0.2171 6.44567,0.6777 l 0.32144,0.079 0.0251,-0.8334 c -0.0843,-1.4888 -0.47967,-3.0697 -0.90792,-4.3246 -0.17681,-0.6138 -0.2793,-1.1832 -0.46638,-1.7952 -0.32928,-0.959 0.45508,-1.6204 1.37616,-1.1605 3.13692,2.2685 4.12813,6.1801 5.5084,9.592 0.81243,2.0758 1.12346,4.3086 1.98686,6.3642 0.37803,0.9855 0.7401,2.0248 0.74424,3.0798 -0.0106,0.8955 -0.0528,1.1209 -0.27571,1.4344 -0.2182,0.3068 -0.345,0.3719 -0.72493,0.3719 -1.77859,-0.3025 -3.54967,-0.9118 -5.29163,-1.4223 z m -16.40338,-26.061 c 0.30679,-0.076 0.36147,0.078 0.41362,-2.4886 0.0248,-0.4835 0.14502,-1.5654 -0.0675,-2.29538 -0.0918,-0.31534 -0.3207,-0.51592 -0.57023,-0.65564 l -0.90384,0.075 c -1.9568,0.11107 -2.91641,0.0564 -4.20618,0.18999 -0.58068,0.0143 -0.9068,0.27179 -0.72895,0.56833 0.60279,2.4511 0.36323,2.3581 0.48108,3.7571 0.10859,0.8503 0.24608,0.8914 3.01503,0.9018 1.27563,0 2.43078,-0.018 2.56705,-0.053 l 0,0 z m 13.36567,-5.53536 c -0.0839,-0.13607 -5.49688,-0.0443 -6.17892,0.105 -0.39574,0.0864 -0.41989,0.12144 -0.51201,0.74168 -0.0366,1.57918 0.16466,2.96048 0.25395,4.43508 0.67467,0.062 1.44129,10e-5 2.79184,0.055 0.91826,0.088 1.8137,0.1188 2.63899,-0.025 0.68254,-1.8479 1.1435,-5.22266 1.00611,-5.31102 z" style="fill:#000000;fill-opacity:1"/>
        </g>
    </g>
    <metadata id="metadata2870">
        <rdf:RDF>
            <cc:Work rdf:about="">
                <dc:title/>
            </cc:Work>
        </rdf:RDF>
    </metadata>
</svg>