<svg xmlns:dc="http://purl.org/dc/elements/1.1/" xmlns:cc="http://creativecommons.org/ns#" xmlns:rdf="http://www.w3.org/1999/02/22-rdf-syntax-ns#" xmlns:svg="http://www.w3.org/2000/svg" xmlns="http://www.w3.org/2000/svg" xmlns:xlink="http://www.w3.org/1999/xlink" xmlns:sodipodi="http://sodipodi.sourceforge.net/DTD/sodipodi-0.dtd" xmlns:inkscape="http://www.inkscape.org/namespaces/inkscape" width="100" height="100" id="svg3862" version="1.1" inkscape:version="0.47 r22583" sodipodi:docname="New document 20">
    <defs id="defs3864">
        <inkscape:perspective sodipodi:type="inkscape:persp3d" inkscape:vp_x="0 : 526.18109 : 1" inkscape:vp_y="0 : 1000 : 0" inkscape:vp_z="744.09448 : 526.18109 : 1" inkscape:persp3d-origin="372.04724 : 350.78739 : 1" id="perspective3870"/>
        <inkscape:perspective id="perspective3880" inkscape:persp3d-origin="0.5 : 0.33333333 : 1" inkscape:vp_z="1 : 0.5 : 1" inkscape:vp_y="0 : 1000 : 0" inkscape:vp_x="0 : 0.5 : 1" sodipodi:type="inkscape:persp3d"/>
        <radialGradient inkscape:collect="always" xlink:href="#linearGradientUnknown" id="radialGradient3484" gradientUnits="userSpaceOnUse" gradientTransform="matrix(1,0,0,0.85945027,0,11.573318)" cx="-1021.5062" cy="82.343224" fx="-1021.5062" fy="82.343224" r="83.034187"/>
        <linearGradient id="linearGradientUnknown">
            <stop offset="0" id="stopUnknown0" style="stop-color:#afafaf;stop-opacity:0;"/>
            <stop style="stop-color:#afafaf;stop-opacity:0.39215687;" id="stop6169" offset="0.5"/>
            <stop offset="1" id="stopUnknown1" style="stop-color:#afafaf;stop-opacity:1;"/>
        </linearGradient>
    </defs>
    <sodipodi:namedview id="base" pagecolor="#ffffff" bordercolor="#666666" borderopacity="1.0" inkscape:pageopacity="0.0" inkscape:pageshadow="2" inkscape:zoom="0.35" inkscape:cx="-349.28571" inkscape:cy="301.42857" inkscape:document-units="px" inkscape:current-layer="layer1" showgrid="false" inkscape:window-width="566" inkscape:window-height="488" inkscape:window-x="66" inkscape:window-y="66" inkscape:window-maximized="0"/>
    <metadata id="metadata3867">
        <rdf:RDF>
            <cc:Work rdf:about="">
                <dc:format>image/svg+xml</dc:format>
                <dc:type rdf:resource="http://purl.org/dc/dcmitype/StillImage"/>
                <dc:title/>
            </cc:Work>
        </rdf:RDF>
    </metadata>
    <g inkscape:label="Layer 1" inkscape:groupmode="layer" id="layer1" transform="translate(-724.28571,-733.79076)">
        <g transform="translate(724.28571,-518.57144)" id="Sound Country">
            <path transform="matrix(0.60013489,0,0,0.70318836,663.04153,1244.4594)" d="m -941.87268,82.343224 c 0,37.534986 -35.65315,67.963116 -79.63352,67.963116 -43.9804,0 -79.6336,-30.42813 -79.6336,-67.963116 0,-37.534991 35.6532,-67.963112 79.6336,-67.963112 43.98037,0 79.63352,30.428121 79.63352,67.963112 z" sodipodi:ry="67.963112" sodipodi:rx="79.633545" sodipodi:cy="82.343224" sodipodi:cx="-1021.5062" id="Sound Country Icon" style="fill:url(#radialGradient3484);fill-opacity:1;stroke:#000000;stroke-width:6.8012886;stroke-linecap:butt;stroke-linejoin:round;stroke-miterlimit:4;stroke-opacity:1;stroke-dasharray:none;stroke-dashoffset:55.5000029" sodipodi:type="arc"/>
            <path d="m 65.60606,1327.6652 0,-7.2727 -30.60606,0 0,7.2727 z m -22.42424,-36.0606 14.24242,0 3.9394,-11.2121 -22.42425,0 z m 41.21212,0 0,5.7576 -68.78788,0 0,-5.7576 21.51515,0 -4.84848,-11.2121 -9.69697,0 0,-5.7576 24.54545,0 0,-7.2727 5.75758,0 c 1.61612,0.2021 1.71713,0.8081 0.30303,1.8182 l 0,5.4545 24.84848,0 0,5.7576 -9.69697,0 -5.15151,11.2121 z m -18.78788,23.0303 0,-6.3636 -30.60606,0 0,6.3636 z m 6.06061,21.2121 -6.06061,0 0,-2.4242 -30.60606,0 0,3.9394 -6.06061,0 0,-34.8485 42.72728,0 z" id="Sound Country Kanji" style="font-size:77.57575989px;font-style:normal;font-variant:normal;font-weight:normal;font-stretch:normal;text-align:center;text-anchor:middle;fill:#000000;fill-opacity:1;stroke:none;font-family:MS PGothic;-inkscape-font-specification:MS PGothic"/>
        </g>
    </g>
</svg>