<svg xmlns:dc="http://purl.org/dc/elements/1.1/" xmlns:cc="http://creativecommons.org/ns#" xmlns:rdf="http://www.w3.org/1999/02/22-rdf-syntax-ns#" xmlns:svg="http://www.w3.org/2000/svg" xmlns="http://www.w3.org/2000/svg" xmlns:xlink="http://www.w3.org/1999/xlink" xmlns:sodipodi="http://sodipodi.sourceforge.net/DTD/sodipodi-0.dtd" xmlns:inkscape="http://www.inkscape.org/namespaces/inkscape" width="100" height="100" id="svg3349" version="1.1" inkscape:version="0.47 r22583" sodipodi:docname="New document 12">
    <defs id="defs3351">
        <inkscape:perspective sodipodi:type="inkscape:persp3d" inkscape:vp_x="0 : 526.18109 : 1" inkscape:vp_y="0 : 1000 : 0" inkscape:vp_z="744.09448 : 526.18109 : 1" inkscape:persp3d-origin="372.04724 : 350.78739 : 1" id="perspective3357"/>
        <inkscape:perspective id="perspective3685" inkscape:persp3d-origin="0.5 : 0.33333333 : 1" inkscape:vp_z="1 : 0.5 : 1" inkscape:vp_y="0 : 1000 : 0" inkscape:vp_x="0 : 0.5 : 1" sodipodi:type="inkscape:persp3d"/>
        <radialGradient r="83.034187" fy="82.343224" fx="-1021.5062" cy="82.343224" cx="-1021.5062" gradientTransform="matrix(1,0,0,0.85945027,0,11.573318)" gradientUnits="userSpaceOnUse" id="radialGradient3496" xlink:href="#linearGradientUnknown" inkscape:collect="always"/>
        <linearGradient id="linearGradientUnknown">
            <stop style="stop-color:#afafaf;stop-opacity:0;" id="stopUnknown0" offset="0"/>
            <stop offset="0.5" id="stop6169" style="stop-color:#afafaf;stop-opacity:0.39215687;"/>
            <stop style="stop-color:#afafaf;stop-opacity:1;" id="stopUnknown1" offset="1"/>
        </linearGradient>
    </defs>
    <sodipodi:namedview id="base" pagecolor="#ffffff" bordercolor="#666666" borderopacity="1.0" inkscape:pageopacity="0.0" inkscape:pageshadow="2" inkscape:zoom="0.35" inkscape:cx="125" inkscape:cy="75.714284" inkscape:document-units="px" inkscape:current-layer="layer1" showgrid="false" inkscape:window-width="566" inkscape:window-height="488" inkscape:window-x="22" inkscape:window-y="22" inkscape:window-maximized="0"/>
    <metadata id="metadata3354">
        <rdf:RDF>
            <cc:Work rdf:about="">
                <dc:format>image/svg+xml</dc:format>
                <dc:type rdf:resource="http://purl.org/dc/dcmitype/StillImage"/>
                <dc:title/>
            </cc:Work>
        </rdf:RDF>
    </metadata>
    <g inkscape:label="Layer 1" inkscape:groupmode="layer" id="layer1" transform="translate(-250,-508.07647)">
        <g id="Sand Country" transform="translate(-149.99997,-944.28573)">
            <path transform="matrix(0.60013489,0,0,0.70318836,1063.0415,1444.4594)" d="m -941.87268,82.343224 c 0,37.534986 -35.65315,67.963116 -79.63352,67.963116 -43.9804,0 -79.6336,-30.42813 -79.6336,-67.963116 0,-37.534991 35.6532,-67.963112 79.6336,-67.963112 43.98037,0 79.63352,30.428121 79.63352,67.963112 z" sodipodi:ry="67.963112" sodipodi:rx="79.633545" sodipodi:cy="82.343224" sodipodi:cx="-1021.5062" id="Sand Country Icon" style="fill:url(#radialGradient3496);fill-opacity:1;stroke:#000000;stroke-width:6.8012886;stroke-linecap:butt;stroke-linejoin:round;stroke-miterlimit:4;stroke-opacity:1;stroke-dasharray:none;stroke-dashoffset:55.5000029" sodipodi:type="arc"/>
            <path d="m 441.6239,1493.9862 0,31.4102 -12.5641,0 0,7.7778 -5.08547,0 0,-27.8205 c -1.39603,2.3932 -3.1909,4.6866 -5.38462,6.8804 l -3.58974,-5.6838 c 6.58118,-6.1823 10.6695,-15.5555 12.26495,-28.1197 l -9.2735,0 0,-5.6837 28.11966,0 0,5.6837 -12.86325,0 c -0.99717,5.983 -2.09404,11.1682 -3.2906,15.5556 z m 40.08547,14.9573 c 0.59822,0.3988 0.0996,0.7977 -1.49573,1.1965 -7.97726,15.5556 -20.54135,24.4302 -37.69231,26.624 l -1.79487,-6.5812 c 15.95437,-1.5955 27.4216,-10.0713 34.40171,-25.4274 l 6.5812,4.1881 z m -7.17949,-27.5214 c 5.58398,6.3818 9.07401,12.5641 10.47009,18.547 l -6.28205,3.5897 c -1.79494,-6.5812 -4.8861,-12.8632 -9.27351,-18.8461 z m -20.04273,34.1025 -0.89744,-5.6838 5.38462,0 c 0.79767,0 1.19653,-0.3988 1.19658,-1.1966 l 0,-40.6838 5.68376,0 c 1.59539,0.1995 1.6951,0.7978 0.29914,1.795 l 0,41.5812 c -5e-5,2.792 -1.29634,4.1881 -3.88888,4.1881 z m 0.59829,-31.7094 c -0.59834,6.3819 -2.59264,13.661 -5.98291,21.8377 l -6.5812,-3.2906 c 3.19085,-6.7807 5.18515,-13.9602 5.98291,-21.5385 l 7.47863,1.4957 c 0.79768,0.7978 0.49853,1.2964 -0.89743,1.4957 z m -18.54701,35.8975 0,-20.0428 -7.47863,0 0,20.0428 z" id="Sand Country Kanji" style="font-size:76.58119965px;font-style:normal;font-variant:normal;font-weight:normal;font-stretch:normal;text-align:center;text-anchor:middle;fill:#000000;fill-opacity:1;stroke:none;font-family:MS PGothic;-inkscape-font-specification:MS PGothic"/>
        </g>
    </g>
</svg>