<svg xmlns:svg="http://www.w3.org/2000/svg" xmlns="http://www.w3.org/2000/svg" xmlns:xlink="http://www.w3.org/1999/xlink" xmlns:sodipodi="http://sodipodi.sourceforge.net/DTD/sodipodi-0.dtd" xmlns:inkscape="http://www.inkscape.org/namespaces/inkscape" width="100" height="100" id="svg3349" version="1.1" inkscape:version="0.47 r22583" sodipodi:docname="Land of Lightning Symbol 2.svg">
    <defs id="defs3351">
        <radialGradient inkscape:collect="always" xlink:href="#linearGradientLightning2" id="radialGradient3219" gradientUnits="userSpaceOnUse" gradientTransform="matrix(1,0,0,0.85945027,0,11.573318)" cx="-1021.5062" cy="82.343224" fx="-1021.5062" fy="82.343224" r="83.034187"/>
        <linearGradient id="linearGradientLightning2">
            <stop offset="0" id="stopLightning20" style="stop-color:#fff101;stop-opacity:1;"/>
            <stop id="stopLightning21" offset="1" style="stop-color:#ccc000;stop-opacity:1;"/>
        </linearGradient>
    </defs>
    <sodipodi:namedview id="base" pagecolor="#ffffff" bordercolor="#666666" borderopacity="1.0" inkscape:pageopacity="0.0" inkscape:pageshadow="2" inkscape:zoom="1.4" inkscape:cx="-19.703668" inkscape:cy="44.026489" inkscape:document-units="px" inkscape:current-layer="layer1" showgrid="false" inkscape:window-width="722" inkscape:window-height="488" inkscape:window-x="-1" inkscape:window-y="152" inkscape:window-maximized="0"/>
    <g inkscape:label="Layer 1" inkscape:groupmode="layer" id="layer1" transform="translate(-92.857144,-399.50504)">
        <path sodipodi:type="arc" style="fill:url(#radialGradient3219);fill-opacity:1;stroke:#000000;stroke-width:6.8012886;stroke-linecap:butt;stroke-linejoin:round;stroke-miterlimit:4;stroke-opacity:1;stroke-dasharray:none;stroke-dashoffset:55.5000029" id="Lightning Country Icon 1" sodipodi:cx="-1021.5062" sodipodi:cy="82.343224" sodipodi:rx="79.633545" sodipodi:ry="67.963112" d="m -941.87268,82.343224 a 79.633545,67.963112 0 1 1 -159.26712,0 79.633545,67.963112 0 1 1 159.26712,0 z" transform="matrix(0.60013489,0,0,0.70318836,755.89867,391.60224)"/>
        <path sodipodi:nodetypes="ccsccccccccccssscccccccccssccccccsssssssssscccccccccccssssssssscccccscccsccsscccccccccssscccscccccscccccccssscccccccccccccccccccccsssccccccccssssscccccscccscccccsccccc" id="Lightning Country Kanji 1" d="m 119.06659,477.86876 c -0.38013,-0.4537 -0.0518,-0.5444 0.0856,-0.9914 0.0696,-0.2711 0.34652,-0.9625 0.61547,-1.5365 0.74745,-1.5952 1.06967,-3.0384 1.12649,-5.045 0.0251,-5.8227 -0.24848,-10.4251 -1.01655,-15.635 -0.16491,-1.1678 0.0869,-2.9012 1.90348,-2.6937 1.30809,0.02 3.60668,1.4222 5.88501,1.8594 0.56326,1.3602 18.44064,-0.7259 28.91881,0.4396 4.26464,-0.6024 7.1589,1.3409 10.08796,3.5817 0.82981,0.7522 2.05103,1.3934 2.65714,2.2953 0.29006,0.4666 0.30973,0.6621 0.19686,1.9588 -0.12915,2.2428 -0.79019,4.4231 -1.02155,6.654 -0.69458,4.7472 -1.07653,10.1729 -4.49607,14.1849 -1.64895,1.5768 -2.41183,1.7055 -4.44105,0.7489 -0.67072,-0.3162 -1.91481,-1.0458 -2.76462,-1.6214 -0.84982,-0.5755 -1.61307,-1.0132 -1.6543,-1.0502 -0.27645,-0.2482 -0.21577,-0.1763 -0.33637,-0.2079 -7.52088,-0.2968 -16.66088,-0.39 -24.10314,0.2152 -1.42928,0.082 -1.58248,0.1298 -1.82743,0.5709 -0.60513,0.5804 -0.83044,1.6007 -1.60834,2.0105 -0.1308,0.043 -0.24383,0.1434 -0.38041,0.1347 -2.52916,-0.065 -6.70316,-3.9422 -7.82719,-5.8728 z m 18.41093,-2.3645 c 0.14251,-1.118 0.55107,-1.2612 0.87006,-1.9378 0.16579,-0.3478 0.97434,-4.3279 0.26739,-4.6496 -0.19356,-0.069 -0.39517,-0.1059 -0.44803,-0.082 -0.0529,0.024 -1.65592,0.016 -3.56239,-0.016 -1.90647,-0.033 -3.69905,-0.026 -3.98353,0.015 l -0.51721,0.074 c -0.48463,2.1801 -0.56456,4.527 -0.55183,6.8893 l -0.0189,0.5105 c 2.46783,-0.1817 8.21439,0.103 7.9449,-0.8022 z m 10.2888,0.032 c 0.48012,-0.032 2.7875,-0.015 5.12746,0.037 2.33995,0.052 4.30956,0.048 4.37689,-0.01 0.0673,-0.057 0.33753,-0.5732 0.6005,-1.1474 0.42652,-0.9313 0.48799,-1.244 0.56945,-2.8971 0.0504,-1.0191 0.0615,-1.9287 0.0253,-2.0211 -0.0362,-0.092 -0.19627,-0.1725 -0.3558,-0.1781 -0.15956,-0.01 -0.32797,-0.065 -0.3743,-0.133 -0.0463,-0.067 -0.92128,-0.1294 -1.94439,-0.1375 -7.4676,-0.059 -8.21817,-0.035 -8.42471,0.2706 -0.27999,0.4138 -0.85811,6.7407 -0.58568,6.4096 0.0617,-0.075 0.50483,-0.1622 0.98499,-0.1942 z m -8.12538,-11.5486 c 0.0585,-0.072 0.0347,-0.3253 -0.0105,-0.6469 -0.14395,-1.5776 -0.12053,-3.2495 -2.3759,-5.1302 -2.07906,-0.4153 -4.78145,-0.3663 -7.05,-0.1688 l -0.8374,0.1268 0.05,1.0652 c 0.19367,2.0647 0.0617,3.9364 0.31859,5.4173 0.0316,0.056 0.21425,0.079 0.40586,0.05 2.10448,-0.2472 7.66702,0.2437 9.49932,-0.7139 z m 9.9029,0.051 c 0.76777,-0.012 1.9317,-0.059 2.58649,-0.1053 0.6548,-0.046 1.6184,-0.091 2.1413,-0.1013 1.07826,-0.021 1.93078,-0.099 2.8661,-0.263 0.63265,-0.1107 0.64459,-0.1235 0.68679,-0.7316 0.0239,-0.3403 0.0672,-0.7373 0.0968,-0.8821 0.10212,-0.4988 -0.13059,-2.3874 -0.32486,-2.6369 -0.10705,-0.1375 -0.46242,-0.3815 -0.78965,-0.5423 -0.56774,-0.279 -0.75104,-0.2934 -4.00456,-0.3144 -1.87532,-0.012 -3.87265,-0.027 -4.43854,-0.033 -0.56591,-0.01 -1.23068,-0.01 -1.47729,-6e-4 l -0.44832,0.011 0.69081,0.6207 c 0.78994,0.7097 0.85215,0.9141 0.77149,2.5349 -0.13719,0.6739 -0.29962,1.3251 -0.35075,2.0763 -0.0137,0.3284 0.23052,0.548 0.48738,0.4382 0.061,-0.026 0.73901,-0.058 1.50681,-0.07 z m 20.19969,-6.9584 c -1.57236,-0.2924 -4.4295,-2.6866 -6.41556,-4.1761 -2.60128,-1.9664 -2.95701,-2.4 -1.8074,-2.2027 0.73062,0.1254 1.21757,-0.071 1.65263,-0.7841 0.70413,-0.9617 1.18171,-10.43226 0.64383,-14.69793 -0.0662,-0.5343 -0.1508,-0.86579 -0.3733,-1.04674 -0.17939,-0.14589 -0.64817,-0.33153 -0.79586,-0.45507 -0.33899,-0.28359 -0.57921,-0.3018 -8.686,-0.65758 -2.06158,-0.13029 -6.39619,-0.50392 -7.16168,-0.26419 -0.39623,0.23822 -0.45889,0.52753 -0.3633,1.56691 0.39548,4.60909 0.32809,9.25179 1.04741,13.8366 0.42804,1.5108 -0.18217,3.8158 -1.0948,4.1357 -1.19813,0.619 -1.991,0.052 -3.02156,-0.4213 -0.62076,-0.2661 -2.16252,-1.3657 -3.0492,-2.1747 -2.0196,-2.4057 -1.44453,-1.8914 -1.87441,-4.63979 -0.2685,-4.00363 -0.60725,-7.98374 -0.23728,-11.97227 0.0443,-0.38009 0.0417,-0.73818 -0.006,-0.79575 -0.0476,-0.0576 -2.22139,-0.1863 -4.83073,-0.28619 -2.60934,-0.10016 -5.17059,-0.21719 -5.69165,-0.26081 -0.94466,-0.079 -1.97741,-0.0365 -2.39773,0.10656 -0.59776,0.60138 -0.40283,1.41824 -0.51572,2.12362 0.15866,5.64027 -0.17889,11.36561 1.39771,16.91253 0.22194,0.6884 -0.02,1.3172 -0.57249,1.4875 -0.42121,0.1298 -0.57949,0.097 -1.48218,-0.3091 -2.55586,-1.097 -4.56402,-2.6476 -6.06235,-4.6494 -0.62847,-0.83372 -0.66333,-0.93454 -0.68621,-1.98607 0.0817,-4.96822 0.91839,-11.5983 0.19597,-16.28122 -0.29858,-1.18049 -0.51251,-2.3984 -1.14197,-3.49949 -0.51441,-0.84416 -0.54991,-1.14142 -0.15537,-1.30081 0.2988,-0.1207 1.7471,0.37216 5.12517,1.7441 0.84298,0.40824 1.53458,0.6501 2.41979,0.99444 2.73279,0.84303 5.9595,0.9237 8.78815,1.02489 3.15665,0.0944 4.58128,-0.0433 4.75602,-0.17954 -0.005,-1.19799 0.0994,-2.67334 -0.0257,-3.99392 l -0.014,-0.39823 c -5.44471,-0.22425 -10.65138,-0.73319 -15.53064,-1.40998 -1.12072,-0.0483 -1.62092,-0.28228 -4.45816,-2.08731 -1.44841,-0.92149 -2.91315,-1.83011 -3.25491,-2.01917 -1.35261,-0.74819 -3.32949,-2.19521 -3.31737,-2.42827 0.0222,-0.43449 0.25663,-0.47255 1.45737,-0.23694 1.72895,0.38917 2.90813,1.12453 5.06612,1.5473 6.28783,1.40862 17.41062,1.15826 25.78998,0.62091 5.97141,-0.0962 8.46536,-1.8986 11.95292,-2.76438 0.98798,-0.13807 1.21804,-0.12519 2.49291,0.13962 4.55269,0.99717 10.81793,6.03392 14.36133,9.74893 -0.008,0.33912 -0.90721,0.44391 -3.33704,0.38887 -3.43291,-0.003 -6.86851,-0.27027 -10.26852,-0.70109 -4.31691,-0.58763 -10.54173,-0.87472 -11.46218,-0.5287 l -0.48137,0.181 c 0.0696,1.37133 -0.41232,2.7234 0.25163,4.11549 4.08485,-0.12631 10.0581,1.02449 13.79781,-0.22144 1.17365,-0.36749 2.21403,-0.47294 3.10686,-0.58336 0.85371,-0.19605 1.70022,-0.12529 2.39272,0.20009 2.70988,1.35655 5.37986,3.1768 7.49071,4.93526 1.44706,1.62197 1.60781,3.55879 1.60897,5.50941 0.0217,3.71558 -0.41815,7.80676 -1.18869,11.46261 -0.38007,1.901 -0.77765,3.8007 -1.14625,5.7038 -0.31383,1.6393 -0.4473,1.9857 -0.87425,2.0484 -0.62811,0.1261 -1.30909,0.026 -2.01466,-0.1209 z m -13.82402,-7.2279 c -0.38849,-0.2936 -1.18774,-1.4152 -1.86031,-2.6103 -0.25547,-0.45407 -1.42909,-1.67952 -2.82648,-2.95141 -0.76043,-0.69212 -2.40591,-2.78504 -2.32171,-2.95302 0.18173,-0.36252 1.13437,-0.32089 2.38809,0.10439 3.31748,1.2766 6.339,3.32909 8.61813,5.71774 0.26775,0.3568 0.29355,0.5141 0.16239,0.99 -0.32247,0.9838 -1.42408,1.394 -2.4548,1.8227 -0.68856,0.286 -1.21717,0.2488 -1.70532,-0.1201 z m -22.69866,-2.215 c -0.74661,-0.2061 -1.35402,-0.566 -1.75776,-1.04153 -0.68206,-0.92784 -1.25553,-1.79254 -1.64429,-2.88142 -0.23039,-0.73762 -0.71837,-1.41536 -1.78704,-2.48196 -1.49628,-1.49342 -1.73773,-1.93824 -1.21753,-2.24317 0.16638,-0.0975 0.40929,-0.17418 0.53978,-0.17035 0.91011,0.0268 4.71204,2.45669 7.53883,4.81825 1.01237,0.84571 1.04366,0.89218 1.04686,1.55273 0.005,1.04392 -0.2256,1.59984 -0.83068,2.00165 -0.50939,0.2793 -1.26667,0.5475 -1.88817,0.4458 z m 23.95492,-6.03403 c -2.19261,-1.04373 -2.97352,-2.79383 -5.20574,-4.27472 -1.39796,-0.98017 -4.41098,-1.68669 -4.53726,-2.9114 -0.0108,-0.10216 0.0671,-0.347 0.63278,-0.43171 0.63255,-0.0948 0.79057,-0.0573 1.42297,0.0632 2.5852,0.82661 5.09371,1.78349 7.61084,2.75225 1.10525,0.50683 2.12201,1.21868 3.2651,1.52263 0.86891,0.29002 1.49829,0.85053 1.48189,1.31974 -0.007,0.2049 -0.0446,0.28639 -0.14204,0.36798 -0.78454,0.87689 -1.53797,1.45014 -2.82238,1.82215 -0.87251,0.22174 -0.8676,0.22241 -1.70614,-0.23014 z m -24.09882,-1.69417 c -2.41439,-1.47135 -3.09202,-4.10235 -5.27198,-5.72224 -0.20459,-0.11812 -0.52624,-0.72711 -0.44831,-0.94377 0.11101,-0.30883 0.38344,-0.38014 1.12528,-0.35645 2.0057,0.34122 3.76231,1.46195 5.40624,2.47244 1.08224,0.67874 2.1787,1.35189 3.12028,2.16993 0.13188,0.14175 0.13215,0.28727 10e-4,0.53926 -0.56098,1.19062 -2.23947,2.39788 -3.93258,1.8408 z" style="fill:#000000;fill-opacity:1"/>
    </g>
</svg>