<svg xmlns:dc="http://purl.org/dc/elements/1.1/" xmlns:cc="http://creativecommons.org/ns#" xmlns:rdf="http://www.w3.org/1999/02/22-rdf-syntax-ns#" xmlns:svg="http://www.w3.org/2000/svg" xmlns="http://www.w3.org/2000/svg" xmlns:xlink="http://www.w3.org/1999/xlink" xmlns:sodipodi="http://sodipodi.sourceforge.net/DTD/sodipodi-0.dtd" xmlns:inkscape="http://www.inkscape.org/namespaces/inkscape" width="100" height="100" id="svg3316" version="1.1" inkscape:version="0.47 r22583" sodipodi:docname="New document 4">
    <defs id="defs3318">
        <radialGradient inkscape:collect="always" xlink:href="#linearGradientWater" id="radialGradient3229" gradientUnits="userSpaceOnUse" gradientTransform="matrix(1,0,0,0.85945027,0,11.573318)" cx="-1021.5062" cy="82.343224" fx="-1021.5062" fy="82.343224" r="83.034187"/>
        <linearGradient id="linearGradientWater">
            <stop offset="0" id="stopWater0" style="stop-color:#51a8ff;stop-opacity:1"/>
            <stop id="stopWater1" offset="1" style="stop-color:#007fff;stop-opacity:1"/>
        </linearGradient>
    </defs>
    <sodipodi:namedview id="base" pagecolor="#ffffff" bordercolor="#666666" borderopacity="1.0" inkscape:pageopacity="0.0" inkscape:pageshadow="2" inkscape:zoom="0.35" inkscape:cx="-260.71428" inkscape:cy="361.42857" inkscape:document-units="px" inkscape:current-layer="layer1" showgrid="false" inkscape:window-width="566" inkscape:window-height="488" inkscape:window-x="66" inkscape:window-y="66" inkscape:window-maximized="0"/>
    <g inkscape:label="Layer 1" inkscape:groupmode="layer" id="layer1" transform="translate(-635.71428,-793.79076)">
        <g transform="translate(435.71428,-158.57142)" id="Water Country 1">
            <path transform="matrix(0.60013489,0,0,0.70318836,863.04153,944.45938)" d="m -941.87268,82.343224 c 0,37.534986 -35.65315,67.963116 -79.63352,67.963116 -43.9804,0 -79.6336,-30.42813 -79.6336,-67.963116 0,-37.534991 35.6532,-67.963112 79.6336,-67.963112 43.98037,0 79.63352,30.428121 79.63352,67.963112 z" sodipodi:ry="67.963112" sodipodi:rx="79.633545" sodipodi:cy="82.343224" sodipodi:cx="-1021.5062" id="Water Country Icon 1" style="fill:url(#radialGradient3229);fill-opacity:1;stroke:#000000;stroke-width:6.8012886;stroke-linecap:butt;stroke-linejoin:round;stroke-miterlimit:4;stroke-opacity:1;stroke-dasharray:none;stroke-dashoffset:55.5000029" sodipodi:type="arc"/>
            <path sodipodi:nodetypes="cccssccccsccsccsscccccccccscsscssccccccccsscccccsccccscccccccsssccscccccssscccssss" id="Water Country Kanji 1" d="m 246.1262,1036.7918 c -0.93129,-0.927 -1.65155,-2.104 -2.35909,-3.1992 -1.36514,-2.1041 -3.42328,-3.6697 -5.64762,-4.9879 -1.70272,-0.9916 -1.72477,-1.2272 -0.12418,-1.3263 0.79892,-0.05 1.58685,-0.012 2.84971,0.1354 1.44064,0.168 3.91434,0.2144 4.07706,0.076 1.05036,-1.7891 1.16784,-4.0632 1.24519,-6.0662 0.26553,-9.5354 0.0872,-19.0975 0.0414,-28.70651 -0.0473,-1.25926 0.0142,-2.77515 0.0297,-3.36287 0.0746,-2.13866 -0.0263,-4.66923 -0.25769,-7.18173 -0.3179,-3.45313 -0.73567,-5.14225 -0.90023,-6.3226 -0.42932,-2.69937 -1.86872,-4.39964 -2.65686,-7.02712 -0.0684,-0.42213 -0.0318,-0.47991 0.41828,-0.92781 0.52276,-0.51932 1.01509,-0.70258 1.59198,-0.5506 3.47281,1.18178 9.17352,5.24233 9.59074,6.33314 0.21595,0.53357 0.21834,0.6212 0.0536,1.93814 -0.0949,0.75857 -0.20952,1.62133 -0.25399,1.91714 -0.0769,0.50853 -0.11724,1.0511 -0.17977,2.41046 -0.25184,5.27819 -0.562,10.55674 -0.81215,15.83596 -0.0105,5.4524 -0.16046,10.8748 -0.0928,16.3312 0.25191,6.2357 0.36094,12.4588 0.62433,18.6977 l 0.15522,3.6236 c -0.34419,0.5607 -0.71986,1.0095 -1.24787,1.4433 -0.23723,0.2165 -0.81245,0.5817 -1.27859,0.8114 -1.47432,0.6801 -3.41626,0.8853 -4.86713,0.1053 z m 26.67588,-8.6112 c -5.0158,-3.0897 -8.62752,-8.546 -11.55744,-13.5649 -4.10799,-7.037 -6.7579,-14.5396 -7.07403,-21.54297 -0.0203,-0.18671 0.008,-0.46419 0.0642,-0.61701 0.0814,-0.22722 0.17669,-0.28175 0.52257,-0.30015 0.33144,-0.0179 0.49407,0.0468 0.7517,0.29827 0.95377,1.04286 2.1495,1.93166 3.41288,2.27423 0.19358,0.0524 0.33955,0.0776 0.72383,-0.0492 0.6409,-0.21185 2.73785,-1.26254 3.34399,-1.67571 1.72815,-1.01104 3.30978,-2.19321 4.95171,-3.30386 2.09249,-1.80204 4.56682,-3.99974 5.28754,-6.68532 0.14401,-0.79925 0.4398,-1.57009 0.62857,-2.36161 0.0337,-0.16484 0.17315,-0.41217 0.30964,-0.55001 0.42929,-0.25722 0.88229,-0.007 1.08097,0.18792 0.17987,0.0531 0.53482,0.64891 1.39398,2.64408 1.63393,2.72663 2.02331,5.5422 2.975,8.37824 0.0803,0.23043 0.15759,0.68096 0.17163,1.00106 0.0263,0.56524 0.006,0.59998 -0.60824,1.20613 -1.19024,1.1729 -4.47521,2.54977 -7.59191,3.18213 -3.95436,0.9966 -8.06633,1.09565 -12.08974,1.65184 -0.017,0.0152 0.026,0.16237 0.0923,0.32979 2.60226,6.16375 6.59275,10.58895 12.18159,15.81075 1.4818,1.5995 6.58781,4.9483 9.92165,5.2248 0.39426,-0.032 1.97017,0.1685 2.32218,0.2957 0.39627,0.143 0.59194,0.487 0.47103,0.828 -2.27647,2.664 -7.91979,6.2969 -11.27677,7.4605 -0.0281,-10e-4 -0.21175,-0.056 -0.40868,-0.1226 z m -56.82421,1.4853 c -0.14101,-0.1276 -0.17733,-0.4212 -0.16613,-0.5804 0.0209,-0.2946 0.34487,-0.6528 0.52762,-0.7387 1.59903,-0.7748 2.88952,-1.9807 4.25338,-3.0444 2.62897,-2.2336 5.11889,-4.6053 7.46389,-7.0866 2.51186,-3.017 4.78896,-6.2386 6.73819,-9.5785 1.32802,-2.174 2.22219,-4.4899 3.01609,-6.8173 0.25289,-0.713 0.17283,-1.1499 -0.0768,-2.02901 -1.46196,-0.9509 -5.21358,-0.47259 -7.18394,-0.36255 -4.22676,0.25007 -5.29431,0.30337 -8.08643,0.3943 -1.44966,0.0484 -2.74276,0.0602 -2.87356,0.0274 -0.26629,-0.0668 -0.68904,-0.71049 -0.6816,-1.03811 0.0142,-0.6213 -0.54114,-2.78673 -0.74129,-2.89102 -0.81523,-1.69237 -2.08868,-2.62768 -3.51796,-4.46974 -0.26665,-0.1693 -0.093,-0.4299 0.35332,-0.53072 0.37668,-0.0849 1.69427,0.12483 1.96933,0.25972 1.53025,0.51974 4.71021,1.4562 4.71021,1.4562 -0.0547,0.14445 3.76569,0.95113 5.68222,1.35349 2.27153,0.56467 4.62828,0.80091 6.94972,1.16293 2.00658,0.25838 3.94267,0.63566 5.96109,0.77867 0.51806,0.0333 1.33096,0.11261 1.8065,0.17618 0.927,0.1241 0.95586,0.14118 3.12246,1.86485 0.75794,0.60298 0.78907,0.72697 0.58801,2.34301 -0.11725,0.9414 -0.21142,1.284 -0.61075,2.22 -0.76764,2.4933 -2.64308,4.6415 -3.8386,6.8735 -2.48887,4.0835 -5.74949,7.8754 -9.40687,11.1289 -2.32188,1.9583 -2.73901,2.2712 -5.8872,4.417 -3.30568,2.2532 -7.25093,4.3241 -8.71339,4.5737 -0.21335,0.036 -0.51201,0.2075 -0.71897,0.2439 -0.27964,0.051 -0.51622,0.01 -0.63981,-0.1067 z" style="fill:#000000;fill-opacity:1"/>
        </g>
    </g>
    <metadata id="metadata3347">
        <rdf:RDF>
            <cc:Work rdf:about="">
                <dc:title/>
            </cc:Work>
        </rdf:RDF>
    </metadata>
</svg>