<svg xmlns="http://www.w3.org/2000/svg" width="322pt" height="234pt" viewBox="0 0 322 234" version="1.1">
    <path fill="#525756" d=" M 78.34 0.00 L 80.00 0.00 C 86.04 2.48 92.79 2.47 98.78 5.09 C 144.33 17.26 189.32 31.43 234.13 46.06 C 247.69 50.76 261.36 55.12 274.79 60.19 C 290.56 67.99 305.97 78.44 315.13 93.85 C 318.96 100.25 321.35 107.55 322.00 114.97 L 322.00 129.27 C 320.80 136.31 318.85 143.20 316.49 149.94 C 310.07 148.89 304.06 146.29 297.80 144.62 C 242.11 127.94 186.50 110.93 130.79 94.37 C 126.11 99.22 122.06 104.69 117.64 109.78 C 86.90 100.82 56.33 91.31 25.64 82.19 C 20.52 80.73 15.55 78.68 10.24 77.98 C 11.11 73.89 13.18 70.21 14.62 66.32 C 22.39 48.57 31.38 30.95 44.63 16.61 C 53.44 7.39 65.13 -0.17 78.34 0.00 Z"/>
    <path fill="#525756" d=" M 5.14 87.22 C 9.28 87.10 13.04 89.01 16.99 89.96 C 70.07 105.81 123.08 121.95 176.18 137.73 C 180.41 133.24 185.37 129.53 189.71 125.15 C 191.47 125.35 193.26 125.53 194.96 126.08 C 222.18 134.99 249.46 143.72 276.70 152.56 C 276.88 157.86 275.52 162.99 274.01 168.02 C 268.75 184.73 260.32 200.54 248.99 213.94 C 239.99 224.16 228.13 233.51 213.93 234.00 L 208.24 234.00 C 177.15 225.71 146.01 217.43 115.39 207.51 C 93.55 200.56 71.77 193.44 50.26 185.52 C 32.37 176.97 15.78 163.73 7.10 145.52 C 2.32 136.07 0.43 125.41 0.00 114.91 L 0.00 112.43 C 0.73 103.85 2.70 95.46 5.14 87.22 Z"/>
</svg>