<svg xmlns:svg="http://www.w3.org/2000/svg" xmlns="http://www.w3.org/2000/svg" xmlns:xlink="http://www.w3.org/1999/xlink" xmlns:sodipodi="http://sodipodi.sourceforge.net/DTD/sodipodi-0.dtd" xmlns:inkscape="http://www.inkscape.org/namespaces/inkscape" width="100" height="100" id="svg3650" version="1.1" inkscape:version="0.47 r22583" sodipodi:docname="Land of Iron Symbol.svg">
    <defs id="defs3652">
        <linearGradient id="linearGradientUnknown-8">
            <stop offset="0" id="stopUnknown0-8" style="stop-color:#afafaf;stop-opacity:0;"/>
            <stop style="stop-color:#afafaf;stop-opacity:0.39215687;" id="stop6169-2" offset="0.5"/>
            <stop offset="1" id="stopUnknown1-4" style="stop-color:#afafaf;stop-opacity:1;"/>
        </linearGradient>
        <radialGradient inkscape:collect="always" xlink:href="#linearGradientUnknown-8" id="radialGradient2894" gradientUnits="userSpaceOnUse" gradientTransform="matrix(1,0,0,0.85945027,0,11.573318)" cx="-1021.5062" cy="82.343224" fx="-1021.5062" fy="82.343224" r="83.034187"/>
    </defs>
    <sodipodi:namedview id="base" pagecolor="#ffffff" bordercolor="#666666" borderopacity="1.0" inkscape:pageopacity="0.0" inkscape:pageshadow="2" inkscape:zoom="6.78" inkscape:cx="50.000004" inkscape:cy="50.000004" inkscape:document-units="px" inkscape:current-layer="svg3650" showgrid="false" inkscape:window-width="1280" inkscape:window-height="940" inkscape:window-x="-8" inkscape:window-y="-8" inkscape:window-maximized="1" inkscape:snap-object-midpoints="true" inkscape:snap-center="true"/>
    <path sodipodi:type="arc" style="fill:url(#radialGradient2894);fill-opacity:1;stroke:#000000;stroke-width:6.8012886;stroke-linecap:butt;stroke-linejoin:round;stroke-miterlimit:4;stroke-opacity:1;stroke-dasharray:none;stroke-dashoffset:55.5000029;display:inline" id="Iron Country Icon" sodipodi:cx="-1021.5062" sodipodi:cy="82.343224" sodipodi:rx="79.633545" sodipodi:ry="67.963112" d="m -941.87268,82.343224 a 79.633545,67.963112 0 1 1 -159.26712,0 79.633545,67.963112 0 1 1 159.26712,0 z" transform="matrix(0.60013489,0,0,0.70318836,663.04153,-7.9027966)"/>
    <path style="fill:#000000;fill-opacity:1;stroke:none" d="m 29.93724,15.87866 5.85774,1.46443 c 0.89277,0.84959 0.31459,1.29604 -0.87866,1.46444 l -0.29289,0.87866 c 7.50349,3.84379 10.32881,6.75195 13.17992,9.66527 l -3.22176,5.56485 c -2.99213,-3.08226 -4.48653,-5.191 -11.4226,-10.83682 -1.33057,3.22264 -2.85538,6.50598 -5.85774,10.25105 l 13.76569,0 0,5.56485 -6.15062,0 0,7.61507 9.37238,0 0,5.56485 -9.37238,0 0,18.74477 11.1297,-3.22176 0.87867,5.27197 c -7.64464,2.6073 -15.09318,5.20865 -25.77406,7.90795 -0.20323,1.88841 -0.79133,1.62158 -1.46444,0.87866 l -2.3431,-7.02929 11.71549,-2.34309 0,-20.20921 -10.83682,0 0,-5.56485 10.83682,0 0,-7.61507 -5.56486,0 -3.80753,3.80754 L 15,39.01673 C 22.2061,32.39005 27.9293,24.05099 29.93724,15.87866 z" id="path3780" sodipodi:nodetypes="ccccccccccccccccccccccccccccccc"/>
    <path style="fill:#000000;fill-opacity:1;stroke:none" d="m 17.92887,59.22594 5.85774,-1.75732 c 1.20287,2.9677 2.79405,8.51064 3.22176,12.00836 l -5.85774,2.05021 C 20.40854,67.17082 19.94051,64.79892 17.92887,59.22594 z" id="path3782" sodipodi:nodetypes="ccccc"/>
    <path style="fill:#000000;fill-opacity:1;stroke:none" d="m 45.46025,56.58996 c 0.82919,0.25152 2.18109,0.60056 -0.29289,1.46443 -0.25795,3.97283 -1.11283,7.3028 -2.05021,10.54393 l -5.85774,-0.87866 c 1.14894,-4.14328 1.80189,-8.34491 2.05021,-12.59414 l 6.15063,1.46444 z" id="path3784" sodipodi:nodetypes="cccccc"/>
    <path style="fill:#000000;fill-opacity:1;stroke:none" d="m 67.13389,16.46443 c 1.07032,0.16602 2.03394,0.47744 0.29289,1.75732 l 0,12.88703 12.00837,0 0,5.56486 -12.00837,0 0,11.71548 15.8159,0 0,5.56485 -15.23013,0 C 71.0559,65.10841 77.03806,72.29147 85,76.79916 l -4.39331,6.15063 C 73.78234,78.30032 68.47836,71.75038 65.37657,62.4477 63.13698,72.10819 56.42502,79.11557 46.33891,84.12134 L 41.94561,78.2636 C 56.40622,72.30768 60.48782,62.50882 60.98326,53.95397 l -14.05857,0 0,-5.56485 14.64435,0 0,-11.71548 -6.44352,0 c -0.90446,2.77705 -1.68376,5.41105 -4.3933,10.25104 L 45.16736,43.70293 C 48.8521,37.92364 51.17291,30.57584 52.19665,21.7364 l 6.44352,2.05021 c 1.3201,0.65652 0.77897,1.10623 -0.58578,1.46443 l -1.46443,5.85774 4.97908,0 0,-14.64435 5.56485,0 z" id="path3788" sodipodi:nodetypes="cccccccccccccccccccccccccccccc"/>
</svg>