<svg width="100" height="100" xmlns="http://www.w3.org/2000/svg" preserveAspectRatio="xMidYMid meet">
    <g>
        <title>Layer 1</title>
        <path fill="black" d="m20.90557,8.74472c-4.22942,1.65243 -11.44894,10.85879 -14.97016,19.08156c-1.7311,4.05237 -3.10813,8.81291 -3.83599,13.19971c-2.43929,14.91114 1.47537,30.41243 10.64238,42.31383c2.18358,2.85237 6.70805,7.29816 7.98672,7.86867c1.8688,0.82619 3.30484,0.49179 4.34744,-1.02295c0.96391,-1.41637 0.55081,-2.34089 -2.51799,-5.72445c-1.41635,-1.55405 -3.2655,-3.71797 -4.11137,-4.7999c-1.79013,-2.28191 -5.13432,-7.14082 -5.13432,-7.47522c0,-0.21642 21.06837,-8.16377 21.65853,-8.16377c0.15737,0 0.53112,0.25571 0.82621,0.55082l0.53115,0.55078l0,3.73764c0,4.28841 0.15737,5.17362 1.41635,7.75066c1.08196,2.18356 3.67862,4.87858 5.76382,5.94083c2.63601,1.35735 3.63925,1.6131 6.49166,1.6131c2.85239,0 3.85564,-0.25575 6.49163,-1.6131c2.08521,-1.06225 4.68188,-3.75727 5.76382,-5.94083c1.25898,-2.57703 1.41635,-3.46225 1.41635,-7.75066l0,-3.73764l0.53114,-0.55078c0.29507,-0.2951 0.66884,-0.55082 0.82621,-0.55082c0.59017,0 21.65854,7.94735 21.65854,8.16377c0,0.3344 -3.3442,5.19331 -5.13432,7.47522c-0.84589,1.08192 -2.69502,3.24585 -4.11137,4.7999c-3.06881,3.38356 -3.48192,4.30808 -2.49831,5.72445c1.02291,1.51474 2.45897,1.84914 4.32776,1.02295c1.27868,-0.5705 5.80317,-5.0163 7.98672,-7.86867c9.16702,-11.90141 13.08167,-27.40269 10.64239,-42.31383c-1.23932,-7.59328 -4.03271,-14.87182 -8.00638,-20.97003c-4.70154,-7.18017 -9.56045,-11.70467 -12.57022,-11.70467c-1.65241,0 -2.83272,1.12129 -2.83272,2.636c0,1.43604 0.62949,2.36062 3.42288,5.13432c2.69502,2.65568 4.78021,5.25235 6.6687,8.30146c1.1803,1.92782 2.57699,4.56384 2.47864,4.68186c-0.05902,0.03934 -13.75053,6.05889 -19.77007,8.67521l-0.62949,0.25574l-1.41637,-1.63276l-1.43602,-1.63274l-0.03934,-3.61959c-0.05903,-4.13107 -0.33443,-5.62611 -1.37703,-7.75064c-1.3967,-2.81307 -3.65894,-4.99662 -6.68838,-6.39332c-2.10487,-0.98357 -3.36385,-1.27866 -5.70478,-1.27866c-2.34094,0 -3.59992,0.29508 -5.70481,1.27866c-3.02943,1.39669 -5.29168,3.58025 -6.68837,6.39332c-1.04259,2.12453 -1.318,3.61957 -1.37702,7.75064l-0.03934,3.61959l-1.43602,1.63274l-1.41637,1.63276l-0.62949,-0.25574c-6.01954,-2.61633 -19.71105,-8.63587 -19.77007,-8.67521c-0.09835,-0.11802 1.29835,-2.75404 2.47863,-4.68186c1.88849,-3.04911 3.9737,-5.64578 6.66872,-8.30146c2.79337,-2.7737 3.42286,-3.69827 3.42286,-5.13432c0,-2.16388 -2.12453,-3.20647 -4.60317,-2.24257zm32.18289,14.39969c1.35735,0.62949 2.7147,1.94749 3.38354,3.2655c0.57046,1.14096 0.94422,3.18681 0.74751,4.11139l-0.1377,0.62949l-0.92457,-0.47212c-2.85239,-1.45569 -9.46209,-1.45569 -12.31449,0l-0.92457,0.47212l-0.1377,-0.62949c-0.19672,-0.86555 0.15737,-2.97043 0.66883,-3.95402c0.9049,-1.79013 2.02619,-2.81305 3.87534,-3.59991c1.57372,-0.64918 4.15072,-0.59016 5.7638,0.17704zm-34.22875,16.17012c12.45218,5.17366 11.37024,4.66221 11.37024,5.23268c-0.01967,0.53112 -0.49179,2.95076 -0.60982,3.00978c-0.03935,0.01967 -4.97695,0.01967 -10.93746,-0.01968l-10.87847,-0.07869l0.11804,-1.10163c0.23606,-2.45894 1.23931,-7.27852 1.98684,-9.54075c0.25573,-0.8459 0.35408,-0.94424 0.74753,-0.8459c0.25574,0.05902 3.954,1.57374 8.20309,3.34419zm35.03528,-2.81305c2.79339,0.82621 4.70154,1.98684 6.64903,4.05238c4.01303,4.24908 4.95728,10.32763 2.45897,15.69799c-1.73111,3.6983 -4.9966,6.41299 -9.26537,7.71132c-1.65243,0.49181 -5.82282,0.49181 -7.47525,0c-6.07856,-1.84914 -9.97355,-6.49164 -10.60303,-12.66859c-0.25573,-2.45894 0.53113,-5.90147 1.8688,-8.26209c0.74753,-1.29832 2.85241,-3.58025 4.05237,-4.42613c1.77045,-1.19998 4.66219,-2.34094 6.55069,-2.577c1.45569,-0.17704 4.38678,0.05902 5.7638,0.47212zm36.2156,0.31475c0.72785,2.26223 1.73111,7.08181 1.96717,9.54075l0.11803,1.10163l-10.87846,0.07869c-5.96052,0.03935 -10.89811,0.03935 -10.93745,0.01968c-0.11803,-0.05902 -0.59014,-2.47866 -0.60982,-3.00978c0,-0.41311 0.19671,-0.57047 1.33768,-1.04259c2.91141,-1.23933 16.3275,-6.8261 17.25208,-7.19985c0.5508,-0.21639 1.08195,-0.39343 1.21965,-0.39343c0.11803,-0.01968 0.35408,0.39343 0.53113,0.9049zm-59.90031,18.19631c0.84587,2.00653 1.23933,3.50156 1.00327,3.79666c-0.13772,0.15736 -3.87534,1.47535 -8.32113,2.93106c-12.5112,4.09172 -11.80301,3.87532 -12.07842,3.54091c-0.55082,-0.72784 -2.24257,-7.08181 -2.69502,-10.05222l-0.11802,-0.84592l8.8916,-0.03931c4.89825,-0.03935 9.81618,-0.0787 10.93747,-0.11804l2.00651,-0.05902l0.37376,0.84588zm53.48736,-0.62951l8.30144,0l-0.11802,0.82624c-0.45245,2.99009 -2.14423,9.34405 -2.69503,10.0719c-0.27541,0.33441 0.43277,0.55081 -12.07842,-3.54091c-4.44581,-1.45571 -8.18343,-2.7737 -8.32113,-2.93106c-0.23605,-0.2951 0.15739,-1.80981 1.02293,-3.81633l0.35408,-0.86555l2.61636,0.11804c1.41635,0.0787 6.33427,0.13768 10.9178,0.13768zm-39.87455,14.93082c1.27865,0.5705 4.15074,1.04262 6.17693,1.04262c2.02616,0 4.91792,-0.47211 6.1769,-1.04262c0.47213,-0.2164 0.92458,-0.33439 0.98358,-0.25571c0.25573,0.25571 0.01967,2.61633 -0.37375,3.67857c-0.59015,1.57375 -2.18356,3.24584 -3.77697,3.99335c-1.08194,0.49181 -1.47536,0.57049 -3.00976,0.57049c-1.53441,0 -1.92785,-0.07868 -2.9901,-0.57049c-2.20323,-1.0229 -3.79664,-3.10812 -4.19007,-5.54739c-0.15739,-0.9049 -0.09837,-2.24258 0.09835,-2.24258c0.01967,0 0.43277,0.17702 0.9049,0.37374z" id="svg_2"></path>
    </g>
</svg>