<svg width="100" height="100" xmlns="http://www.w3.org/2000/svg">
    <path d="M20.906 8.745c-4.23 1.652-11.45 10.86-14.97 19.082-1.73 4.052-3.108 8.813-3.836 13.2C-.34 55.937 3.575 71.44 12.742 83.34c2.184 2.853 6.708 7.3 7.987 7.87 1.868.826 3.304.492 4.346-1.023.964-1.416.55-2.34-2.518-5.724-1.416-1.554-3.265-3.718-4.11-4.8-1.79-2.282-5.135-7.14-5.135-7.475 0-.216 21.068-8.164 21.66-8.164.156 0 .53.256.825.55l.53.552v3.738c0 4.288.158 5.174 1.417 7.75 1.082 2.185 3.68 4.88 5.764 5.942 2.635 1.357 3.638 1.613 6.49 1.613 2.853 0 3.857-.257 6.493-1.614 2.085-1.062 4.682-3.757 5.764-5.94 1.26-2.578 1.416-3.463 1.416-7.752v-3.738l.53-.55c.296-.296.67-.552.827-.552.59 0 21.66 7.947 21.66 8.164 0 .334-3.345 5.193-5.135 7.475-.846 1.082-2.695 3.246-4.11 4.8-3.07 3.384-3.483 4.308-2.5 5.724 1.024 1.515 2.46 1.85 4.33 1.023 1.278-.57 5.802-5.016 7.986-7.87 9.168-11.9 13.083-27.402 10.643-42.313-1.24-7.593-4.033-14.872-8.006-20.97-4.702-7.18-9.56-11.705-12.57-11.705-1.652 0-2.833 1.12-2.833 2.636 0 1.436.63 2.36 3.423 5.134 2.695 2.656 4.78 5.252 6.67 8.3 1.18 1.93 2.576 4.565 2.478 4.683-.06.04-13.75 6.06-19.77 8.675l-.63.256-1.415-1.633-1.436-1.633-.04-3.62c-.058-4.13-.333-5.626-1.376-7.75-1.397-2.814-3.66-4.998-6.688-6.394-2.105-.984-3.364-1.28-5.705-1.28s-3.6.296-5.705 1.28c-3.03 1.397-5.292 3.58-6.688 6.393-1.043 2.124-1.318 3.62-1.377 7.75l-.04 3.62-1.435 1.633-1.416 1.633-.63-.256c-6.02-2.616-19.71-8.636-19.77-8.675-.097-.118 1.3-2.754 2.48-4.682 1.888-3.05 3.974-5.646 6.67-8.3 2.792-2.775 3.422-3.7 3.422-5.135 0-2.164-2.125-3.206-4.603-2.243zm32.183 14.4c1.356.63 2.714 1.947 3.383 3.265.57 1.14.944 3.187.748 4.11l-.137.63-.925-.472c-2.852-1.456-9.462-1.456-12.314 0l-.925.472-.14-.63c-.196-.865.158-2.97.67-3.953.905-1.79 2.026-2.813 3.875-3.6 1.574-.65 4.15-.59 5.764.177zm-34.23 16.17c12.452 5.174 11.37 4.662 11.37 5.233-.02.53-.492 2.95-.61 3.01-.04.02-4.977.02-10.937-.02l-10.878-.08.118-1.1c.236-2.46 1.24-7.28 1.987-9.542.256-.846.354-.944.748-.846.256.06 3.954 1.574 8.203 3.344zm35.035-2.813c2.793.826 4.702 1.987 6.65 4.052 4.012 4.25 4.956 10.328 2.458 15.698-1.73 3.698-4.997 6.413-9.265 7.71-1.652.493-5.823.493-7.475 0-6.08-1.848-9.974-6.49-10.603-12.668-.256-2.46.53-5.9 1.87-8.262.747-1.298 2.85-3.58 4.05-4.426 1.77-1.2 4.663-2.34 6.552-2.577 1.456-.178 4.387.058 5.764.47zm36.216.315c.73 2.262 1.732 7.082 1.968 9.54l.118 1.103-10.878.08c-5.96.038-10.898.038-10.937.02-.117-.06-.59-2.48-.61-3.01 0-.414.198-.57 1.34-1.044 2.91-1.24 16.327-6.826 17.25-7.2.552-.216 1.083-.393 1.22-.393.12-.02.355.393.532.905zm-59.9 18.196c.847 2.007 1.24 3.502 1.004 3.797-.138.157-3.875 1.475-8.32 2.93-12.512 4.093-11.804 3.876-12.08 3.542-.55-.728-2.242-7.082-2.694-10.052l-.118-.846 8.892-.04c4.898-.038 9.816-.078 10.937-.117l2.008-.06.374.847zm53.488-.63h8.3l-.117.826c-.45 2.99-2.143 9.343-2.694 10.07-.275.335.433.552-12.078-3.54-4.446-1.456-8.183-2.774-8.32-2.93-.237-.296.156-1.81 1.022-3.817l.354-.866 2.616.118c1.416.08 6.334.138 10.918.138zm-39.875 14.93c1.28.572 4.15 1.044 6.177 1.044s4.918-.472 6.177-1.043c.472-.216.925-.334.984-.256.257.256.02 2.616-.373 3.68-.59 1.573-2.184 3.245-3.777 3.992-1.082.492-1.475.57-3.01.57-1.534 0-1.928-.08-2.99-.57-2.203-1.023-3.797-3.108-4.19-5.547-.157-.905-.098-2.243.098-2.243.02 0 .433.177.905.374z"/>
</svg>
