<svg xmlns="http://www.w3.org/2000/svg" width="100" height="90">
    <g stroke="#000" fill="none">
        <path d="M497.375 777.156a1 1 0 0 0-.906 1c-.064 4.088-1.084 5.666-2.19 7.344-1.104 1.678-2.37 3.543-2.28 7.156a1 1 0 0 0 0 .03c.234 4.89 2.134 8.205 4.594 10.22 2.46 2.015 5.4 2.75 7.75 2.75 2.35 0 5.29-.735 7.75-2.75s4.36-5.33 4.593-10.22a1 1 0 0 0 0-.03c.09-3.613-1.176-5.478-2.28-7.156-1.106-1.678-2.126-3.256-2.188-7.344a1 1 0 1 0-2 .03c.067 4.442 1.393 6.713 2.53 8.44 1.132 1.717 2.008 2.825 1.938 5.968v.03c-.22 4.407-1.818 7.09-3.844 8.75-2.032 1.665-4.57 2.282-6.5 2.282-1.93 0-4.438-.617-6.47-2.28-2.025-1.66-3.655-4.345-3.874-8.75v-.032c-.07-3.143.837-4.25 1.97-5.97 1.136-1.725 2.43-3.996 2.5-8.437a1 1 0 0 0-1.095-1.03z" style="text-indent:0;text-align:start;line-height:normal;text-transform:none;block-progression:tb;-inkscape-font-specification:Bitstream Vera Sans" color="#000" overflow="visible" font-family="Bitstream Vera Sans" transform="matrix(1.66855 0 0 1.68025 -791.542 -1304.97)"/>
        <path transform="matrix(2.68764 0 0 2.38332 -1303.57 -1861.14)" d="M507.35 792.185c0 2.336-1.67 4.23-3.726 4.23-2.057 0-3.725-1.894-3.725-4.23 0-2.336 1.667-4.23 3.724-4.23 2.057 0 3.725 1.894 3.725 4.23z" stroke-width=".662" stroke-linecap="round" stroke-linejoin="round"/>
        <path d="M475.75 814.97a1 1 0 0 0-.72 1.5c3.146 5.498 7.662 8.853 12.783 10.78 5.12 1.927 10.824 2.47 16.53 2.47 5.707 0 11.443-.543 16.563-2.47 5.12-1.927 9.637-5.282 12.782-10.78a1.008 1.008 0 1 0-1.75-1c-2.913 5.09-6.977 8.108-11.75 9.905-4.774 1.797-10.265 2.344-15.844 2.344-5.58 0-11.07-.548-15.844-2.345-4.773-1.797-8.838-4.814-11.75-9.906a1 1 0 0 0-1-.5z" style="text-indent:0;text-align:start;line-height:normal;text-transform:none;block-progression:tb;-inkscape-font-specification:Bitstream Vera Sans" color="#000" overflow="visible" font-family="Bitstream Vera Sans" transform="matrix(1.66855 0 0 1.68025 -791.542 -1304.97)"/>
        <path d="M484.344 801.344a1 1 0 0 0-.875 1.125c.308 3.28 1.714 6.67 5 9.155 3.283 2.484 8.338 4.03 15.874 4.03 7.536 0 12.59-1.546 15.875-4.03 3.283-2.484 4.69-5.876 5-9.156a1 1 0 1 0-1.97-.19c-.27 2.86-1.403 5.59-4.22 7.72-2.815 2.13-7.428 3.656-14.686 3.656-7.26 0-11.84-1.526-14.656-3.656-2.817-2.13-3.95-4.86-4.22-7.72a1 1 0 0 0-1.124-.936z" style="text-indent:0;text-align:start;line-height:normal;text-transform:none;block-progression:tb;-inkscape-font-specification:Bitstream Vera Sans" color="#000" overflow="visible" font-family="Bitstream Vera Sans" transform="matrix(1.66855 0 0 1.68025 -791.542 -1304.97)"/>
    </g>
</svg>
