<svg xmlns:dc="http://purl.org/dc/elements/1.1/" xmlns:cc="http://creativecommons.org/ns#" xmlns:rdf="http://www.w3.org/1999/02/22-rdf-syntax-ns#" xmlns:svg="http://www.w3.org/2000/svg" xmlns="http://www.w3.org/2000/svg" xmlns:sodipodi="http://sodipodi.sourceforge.net/DTD/sodipodi-0.dtd" xmlns:inkscape="http://www.inkscape.org/namespaces/inkscape" width="100" height="90" id="svg2" version="1.1" inkscape:version="0.47 r22583" sodipodi:docname="Unknown Clan 5 Symbol.svg">
    <defs id="defs4">
        <inkscape:perspective sodipodi:type="inkscape:persp3d" inkscape:vp_x="0 : 526.18109 : 1" inkscape:vp_y="0 : 1000 : 0" inkscape:vp_z="744.09448 : 526.18109 : 1" inkscape:persp3d-origin="372.04724 : 350.78739 : 1" id="perspective10"/>
        <inkscape:perspective id="perspective3710" inkscape:persp3d-origin="0.5 : 0.33333333 : 1" inkscape:vp_z="1 : 0.5 : 1" inkscape:vp_y="0 : 1000 : 0" inkscape:vp_x="0 : 0.5 : 1" sodipodi:type="inkscape:persp3d"/>
        <inkscape:perspective id="perspective3730" inkscape:persp3d-origin="0.5 : 0.33333333 : 1" inkscape:vp_z="1 : 0.5 : 1" inkscape:vp_y="0 : 1000 : 0" inkscape:vp_x="0 : 0.5 : 1" sodipodi:type="inkscape:persp3d"/>
        <inkscape:perspective id="perspective3752" inkscape:persp3d-origin="0.5 : 0.33333333 : 1" inkscape:vp_z="1 : 0.5 : 1" inkscape:vp_y="0 : 1000 : 0" inkscape:vp_x="0 : 0.5 : 1" sodipodi:type="inkscape:persp3d"/>
        <inkscape:perspective id="perspective3768" inkscape:persp3d-origin="0.5 : 0.33333333 : 1" inkscape:vp_z="1 : 0.5 : 1" inkscape:vp_y="0 : 1000 : 0" inkscape:vp_x="0 : 0.5 : 1" sodipodi:type="inkscape:persp3d"/>
        <inkscape:perspective id="perspective3784" inkscape:persp3d-origin="0.5 : 0.33333333 : 1" inkscape:vp_z="1 : 0.5 : 1" inkscape:vp_y="0 : 1000 : 0" inkscape:vp_x="0 : 0.5 : 1" sodipodi:type="inkscape:persp3d"/>
        <inkscape:perspective id="perspective3805" inkscape:persp3d-origin="0.5 : 0.33333333 : 1" inkscape:vp_z="1 : 0.5 : 1" inkscape:vp_y="0 : 1000 : 0" inkscape:vp_x="0 : 0.5 : 1" sodipodi:type="inkscape:persp3d"/>
    </defs>
    <sodipodi:namedview id="base" pagecolor="#ffffff" bordercolor="#666666" borderopacity="1.0" inkscape:pageopacity="0.0" inkscape:pageshadow="2" inkscape:zoom="0.35" inkscape:cx="227.86496" inkscape:cy="403.01349" inkscape:document-units="px" inkscape:current-layer="layer1" showgrid="false" inkscape:window-width="1280" inkscape:window-height="940" inkscape:window-x="-8" inkscape:window-y="-8" inkscape:window-maximized="1"/>
    <metadata id="metadata7">
        <rdf:RDF>
            <cc:Work rdf:about="">
                <dc:format>image/svg+xml</dc:format>
                <dc:type rdf:resource="http://purl.org/dc/dcmitype/StillImage"/>
                <dc:title/>
            </cc:Work>
        </rdf:RDF>
    </metadata>
    <g inkscape:label="Layer 1" inkscape:groupmode="layer" id="layer1" transform="translate(-147.13503,-845.37564)">
        <g transform="matrix(1.6685487,0,0,1.6802482,-644.4073,-459.59499)" id="g3914" style="stroke:#000000;stroke-opacity:1">
            <path id="use3868" d="m 497.375,777.15625 a 1.0001,1.0001 0 0 0 -0.90625,1 c -0.0624,4.08728 -1.08251,5.66614 -2.1875,7.34375 -1.10499,1.67761 -2.3712,3.54287 -2.28125,7.15625 a 1.0001,1.0001 0 0 0 0,0.0312 c 0.23446,4.88907 2.13444,8.20371 4.59375,10.21875 2.45931,2.01504 5.39875,2.75 7.75,2.75 2.35125,0 5.29069,-0.73496 7.75,-2.75 2.45931,-2.01504 4.35929,-5.32968 4.59375,-10.21875 a 1.0001,1.0001 0 0 0 0,-0.0312 c 0.09,-3.61338 -1.17626,-5.47864 -2.28125,-7.15625 -1.10499,-1.67761 -2.12506,-3.25647 -2.1875,-7.34375 a 1.0001221,1.0001221 0 1 0 -2,0.0312 c 0.0678,4.4402 1.39443,6.71157 2.53125,8.4375 1.13193,1.71851 2.00781,2.82652 1.9375,5.96875 -3e-4,0.0136 3.4e-4,0.0176 0,0.0312 -0.21893,4.4062 -1.8176,7.08987 -3.84375,8.75 -2.03134,1.66438 -4.5693,2.28125 -6.5,2.28125 -1.9307,0 -4.43741,-0.61687 -6.46875,-2.28125 -2.02615,-1.66013 -3.65607,-4.3438 -3.875,-8.75 -3.4e-4,-0.0136 3e-4,-0.0177 0,-0.0312 -0.0703,-3.1423 0.83681,-4.25022 1.96875,-5.96875 1.13682,-1.72593 2.43217,-3.9973 2.5,-8.4375 A 1.0001,1.0001 0 0 0 497.375,777.1562 z" style="font-size:medium;font-style:normal;font-variant:normal;font-weight:normal;font-stretch:normal;text-indent:0;text-align:start;text-decoration:none;line-height:normal;letter-spacing:normal;word-spacing:normal;text-transform:none;direction:ltr;block-progression:tb;writing-mode:lr-tb;text-anchor:start;color:#000000;fill:none;stroke:#000000;stroke-width:1;stroke-miterlimit:4;stroke-opacity:1;stroke-dasharray:none;marker:none;visibility:visible;display:inline;overflow:visible;enable-background:accumulate;font-family:Bitstream Vera Sans;-inkscape-font-specification:Bitstream Vera Sans"/>
            <path transform="matrix(1.6107653,0,0,1.418435,-306.86927,-331.00388)" d="m 507.34911,792.18475 c 0,2.33618 -1.66771,4.23002 -3.72493,4.23002 -2.05723,0 -3.72494,-1.89384 -3.72494,-4.23002 0,-2.33617 1.66771,-4.23001 3.72494,-4.23001 2.05722,0 3.72493,1.89384 3.72493,4.23001 z" sodipodi:ry="4.2300138" sodipodi:rx="3.7249374" sodipodi:cy="792.18475" sodipodi:cx="503.62418" id="path3870" style="fill:none;stroke:#000000;stroke-width:0.66157508;stroke-linecap:round;stroke-linejoin:round;stroke-miterlimit:4;stroke-opacity:1;stroke-dasharray:none;stroke-dashoffset:0" sodipodi:type="arc"/>
            <path id="use3888" d="m 475.75,814.96875 a 1.0001,1.0001 0 0 0 -0.71875,1.5 c 3.14479,5.49911 7.66105,8.85413 12.78125,10.78125 5.1202,1.92712 10.82486,2.46875 16.53125,2.46875 5.70639,0 11.4423,-0.54163 16.5625,-2.46875 5.1202,-1.92712 9.63646,-5.28214 12.78125,-10.78125 a 1.0077822,1.0077822 0 1 0 -1.75,-1 c -2.91203,5.09208 -6.97668,8.10969 -11.75,9.90625 -4.77332,1.79656 -10.26447,2.34375 -15.84375,2.34375 -5.57928,0 -11.07043,-0.54719 -15.84375,-2.34375 -4.77332,-1.79656 -8.83797,-4.81417 -11.75,-9.90625 a 1.0001,1.0001 0 0 0 -1,-0.5 z" style="font-size:medium;font-style:normal;font-variant:normal;font-weight:normal;font-stretch:normal;text-indent:0;text-align:start;text-decoration:none;line-height:normal;letter-spacing:normal;word-spacing:normal;text-transform:none;direction:ltr;block-progression:tb;writing-mode:lr-tb;text-anchor:start;color:#000000;fill:none;stroke:#000000;stroke-width:1;stroke-miterlimit:4;stroke-opacity:1;stroke-dasharray:none;marker:none;visibility:visible;display:inline;overflow:visible;enable-background:accumulate;font-family:Bitstream Vera Sans;-inkscape-font-specification:Bitstream Vera Sans"/>
            <path id="use3890" d="m 484.34375,801.34375 a 1.0001,1.0001 0 0 0 -0.875,1.125 c 0.30891,3.2798 1.71572,6.67229 5,9.15625 3.28428,2.48396 8.33911,4.03125 15.875,4.03125 7.53589,0 12.59072,-1.54729 15.875,-4.03125 3.28428,-2.48396 4.69109,-5.87645 5,-9.15625 a 1.0001,1.0001 0 1 0 -1.96875,-0.1875 c -0.2692,2.8581 -1.40271,5.58893 -4.21875,7.71875 -2.81604,2.12982 -7.42914,3.65625 -14.6875,3.65625 -7.25836,0 -11.84021,-1.52643 -14.65625,-3.65625 -2.81604,-2.12982 -3.94955,-4.86065 -4.21875,-7.71875 a 1.0001,1.0001 0 0 0 -1.125,-0.9375 z" style="font-size:medium;font-style:normal;font-variant:normal;font-weight:normal;font-stretch:normal;text-indent:0;text-align:start;text-decoration:none;line-height:normal;letter-spacing:normal;word-spacing:normal;text-transform:none;direction:ltr;block-progression:tb;writing-mode:lr-tb;text-anchor:start;color:#000000;fill:none;stroke:#000000;stroke-width:1;stroke-miterlimit:4;stroke-opacity:1;stroke-dasharray:none;marker:none;visibility:visible;display:inline;overflow:visible;enable-background:accumulate;font-family:Bitstream Vera Sans;-inkscape-font-specification:Bitstream Vera Sans"/>
        </g>
    </g>
</svg>