<svg width="100" height="100" xmlns="http://www.w3.org/2000/svg" preserveAspectRatio="xMidYMid meet">
    <g>
        <title>Layer 1</title>
        <path fill="black" d="m25.57089,25.39012c-13.45497,13.45502 -24.47885,24.51034 -24.4998,24.57316c-0.02096,0.06293 10.99243,11.13916 24.45791,24.61509l24.49984,24.49982l24.37403,-24.36357c13.40262,-13.40258 24.42648,-24.48932 24.51031,-24.63598c0.13626,-0.27253 -0.07333,-0.48202 -24.10162,-24.52084c-13.32923,-13.32926 -24.36359,-24.33215 -24.51028,-24.4369l-0.26199,-0.19909l-24.46839,24.46831zm30.01178,-10.77239l5.41761,5.41766l-5.42809,5.42817l-5.41763,5.41756l-5.44908,-5.44908l-5.44905,-5.44908l5.39667,-5.39665c2.96554,-2.96555 5.41762,-5.39665 5.44905,-5.39665c0.03144,0 2.49399,2.44161 5.48052,5.42806zm-15.0478,25.87266l-5.41762,5.42806l-5.44908,-5.44908l-5.44906,-5.44908l5.41762,-5.41755l5.4281,-5.42817l5.44908,5.44908l5.44906,5.44908l-5.4281,5.41766zm29.96983,-10.95058c2.95506,2.95504 5.37572,5.40715 5.37572,5.45958c0,0.04192 -2.42065,2.50443 -5.37572,5.45948l-5.38618,5.38625l-5.43859,-5.43857l-5.43857,-5.43858l5.39668,-5.39676c2.96555,-2.96555 5.41761,-5.39665 5.44905,-5.39665c0.03143,0 2.47301,2.4207 5.41761,5.36524zm-44.95476,25.93548l-5.41763,5.42806l-5.44905,-5.44907l-5.44908,-5.44908l5.41762,-5.41756l5.42811,-5.42817l5.44907,5.44908l5.44906,5.44907l-5.42811,5.41766zm29.95937,-0.0105l-5.42812,5.41766l-5.43858,-5.43857l-5.43859,-5.43868l5.41764,-5.41756l5.42812,-5.42817l5.44905,5.44908l5.43859,5.43857l-5.42812,5.41767zm30.01175,-10.90856l5.39668,5.39665l-5.42812,5.42807l-5.41761,5.41766l-5.41764,-5.41766l-5.42809,-5.42807l5.39665,-5.39665c2.96555,-2.96566 5.41764,-5.39676 5.44907,-5.39676c0.03141,0 2.4835,2.4311 5.44904,5.39676zm-44.99669,25.89346l-5.43857,5.40716l-5.4281,-5.42806l-5.4386,-5.43868l5.41762,-5.41755l5.4281,-5.42807l5.43859,5.43858l5.44905,5.44907l-5.4281,5.41756zm29.9384,-0.04192l-5.42809,5.42817l-5.41763,-5.41766l-5.42809,-5.42817l5.41764,-5.41755l5.42809,-5.42807l5.41763,5.41756l5.42809,5.42806l-5.41763,5.41766zm-14.98491,14.98491l-5.42809,5.42816l-5.41765,-5.41766l-5.42812,-5.42806l5.41764,-5.41766l5.42812,-5.42817l5.41761,5.41766l5.42812,5.42817l-5.41764,5.41756z" id="svg_2"></path>
    </g>
</svg>