<svg width="100" height="100" xmlns="http://www.w3.org/2000/svg">
    <path d="M25.57 25.39C12.117 38.845 1.093 49.9 1.07 49.963c-.02.063 10.994 11.14 24.46 24.615l24.5 24.5 24.373-24.363c13.402-13.403 24.426-24.49 24.51-24.636.136-.274-.073-.483-24.1-24.522C61.482 12.228 50.447 1.226 50.3 1.12l-.26-.198L25.57 25.39zm30.013-10.772L61 20.035l-5.428 5.43-5.417 5.416-5.45-5.448-5.45-5.45 5.398-5.396c2.966-2.965 5.418-5.396 5.45-5.396.03 0 2.493 2.44 5.48 5.428zM40.535 40.49l-5.418 5.428-5.45-5.45-5.448-5.448 5.417-5.417 5.428-5.428 5.45 5.45 5.448 5.448-5.428 5.417zm29.97-10.95c2.955 2.955 5.375 5.407 5.375 5.46 0 .04-2.42 2.504-5.375 5.46l-5.386 5.385-5.44-5.438-5.44-5.44 5.398-5.396c2.966-2.964 5.418-5.395 5.45-5.395.03 0 2.472 2.42 5.417 5.365zM25.55 55.475l-5.418 5.428-5.45-5.45-5.448-5.448 5.418-5.417 5.428-5.43 5.45 5.45 5.448 5.45-5.428 5.417zm29.96-.01l-5.43 5.417-5.437-5.438-5.44-5.44 5.42-5.416 5.427-5.43 5.45 5.45 5.437 5.44-5.428 5.417zm30.01-10.91l5.398 5.398-5.428 5.428-5.418 5.42-5.418-5.42-5.428-5.427 5.397-5.397c2.965-2.965 5.418-5.397 5.45-5.397.03 0 2.483 2.43 5.448 5.396zM40.525 70.45l-5.438 5.407-5.428-5.428-5.44-5.44 5.42-5.417 5.427-5.43 5.438 5.44 5.45 5.45-5.43 5.417zm29.94-.042l-5.43 5.428-5.417-5.418-5.428-5.428 5.417-5.417 5.428-5.43 5.417 5.42 5.428 5.427-5.417 5.418zM55.477 85.393L50.05 90.82l-5.418-5.417-5.428-5.428 5.418-5.418 5.428-5.428 5.417 5.417 5.428 5.428-5.417 5.418z"/>
</svg>
