<svg xmlns="http://www.w3.org/2000/svg" width="100" height="100">
    <path d="M50 2.374C-27.427-9.16-.496 98.49 50 98.49M50 2.374C127.427-9.16 100.496 98.49 50 98.49" fill="none" stroke="#000" stroke-width="3.017"/>
    <path d="M50 2.374c50.496 11.534 30.297 96.117 0 96.117M50 2.374C-.496 13.908 19.703 98.49 50 98.49M50 2.374V98.49" fill="none" stroke="#000" stroke-width="3.017" stroke-linecap="round" stroke-linejoin="round"/>
    <path d="M45.977 65.873c-12.813-2.26-21.37-14.478-19.11-27.29 1.72-9.755 9.356-17.39 19.11-19.11M54.023 65.873c12.813-2.26 21.37-14.478 19.11-27.29-1.72-9.755-9.356-17.39-19.11-19.11"/>
</svg>
