<svg width="100" height="100" xmlns="http://www.w3.org/2000/svg">
    <path d="M47.68 10.134c-7.77.823-15.5 3.573-21.784 7.73-2.81 1.867-5.02 3.694-7.59 6.284-1.726 1.747-2.308 2.23-2.45 2.028-.1-.16-.52-.863-.923-1.586-.4-.723-.783-1.345-.863-1.406-.08-.06-.823-1.285-1.666-2.73-.824-1.466-1.707-2.932-1.968-3.293-.26-.34-1.265-2.047-2.21-3.774l-1.725-3.152-2.65-.06-2.65-.06.462.783c.26.44 1.265 2.108 2.27 3.734 1.003 1.627 2.488 4.097 3.312 5.503.823 1.405 1.927 3.192 2.43 3.955.5.783 1.264 2.028 1.685 2.81.44.764.903 1.527 1.023 1.647.14.14.864 1.345 1.587 2.67.743 1.326 1.425 2.47 1.526 2.53.1.06.682.984 1.305 2.05.643 1.063 1.607 2.71 2.19 3.653.58.943 1.525 2.51 2.107 3.513.583.985 1.125 1.85 1.205 1.91.1.06.803 1.224 1.606 2.61.803 1.384 2.29 3.854 3.313 5.52 1.045 1.647 2.53 4.137 3.314 5.502.803 1.365 1.727 2.87 2.048 3.313.32.462 1.104 1.727 1.727 2.83.62 1.105 1.183 2.05 1.264 2.11.08.06.843 1.304 1.686 2.79.844 1.486 1.667 2.81 1.807 2.97.16.142.803 1.206 1.426 2.33.642 1.125 1.345 2.31 1.586 2.65.24.322 1.103 1.728 1.907 3.113.803 1.385 1.546 2.55 1.606 2.61.08.06.803 1.265 1.626 2.71.802 1.446 1.525 2.65 1.585 2.71.08.06.3.403.502.744.462.783.743.823 1.165.18.18-.26.44-.58.582-.742.14-.16.944-1.446 1.747-2.89.824-1.447 1.547-2.652 1.627-2.712.06-.06.803-1.225 1.606-2.61.804-1.385 1.667-2.79 1.908-3.112.242-.342.945-1.526 1.587-2.65.622-1.125 1.265-2.19 1.426-2.33.14-.16.963-1.485 1.807-2.97.843-1.487 1.606-2.732 1.686-2.792.08-.06.643-1.004 1.265-2.108.624-1.105 1.407-2.37 1.728-2.83.32-.443 1.245-1.95 2.048-3.314.783-1.365 2.27-3.855 3.313-5.502 1.023-1.666 2.508-4.136 3.312-5.52.803-1.386 1.505-2.55 1.606-2.61.08-.06.622-.925 1.205-1.91.582-1.003 1.525-2.57 2.108-3.512.583-.944 1.547-2.59 2.19-3.655.622-1.064 1.204-1.987 1.304-2.048.1-.06.783-1.204 1.526-2.53.723-1.325 1.446-2.53 1.586-2.67.12-.12.583-.883 1.025-1.646.422-.784 1.225-2.09 1.767-2.913.542-.823 1.627-2.59 2.39-3.915 1.686-2.91 3.634-6.083 4.98-8.152.56-.843 1.003-1.586 1.003-1.666 0-.08-1.185-.1-2.65-.08l-2.63.06-1.727 3.152c-.944 1.727-1.948 3.434-2.21 3.775-.26.362-1.143 1.828-1.946 3.254-.824 1.425-1.607 2.71-1.747 2.87-.2.202-.502.02-1.647-.983-7.127-6.304-14.978-10.098-24.194-11.685-3.233-.562-9.377-.803-12.37-.48zm11.044 4.316c8.955 1.526 16.685 5.34 23.893 11.786l.964.864-.983 1.606c-.562.883-1.446 2.35-1.988 3.253-2.45 4.095-3.996 6.644-4.498 7.387-.28.442-.823 1.346-1.205 2.008-.823 1.506-1.847 3.173-2.028 3.313-.06.06-.864 1.365-1.788 2.91-3.433 5.844-4.276 7.25-4.9 8.133-.36.503-1.264 2.01-2.027 3.354-.763 1.345-1.425 2.41-1.466 2.39-.04-.04.18-.643.48-1.346 1.588-3.795 1.93-7.208.965-10.12-.3-.883-.803-1.987-1.104-2.45-.822-1.183-2.67-2.77-3.874-3.292l-1.024-.46-.02-4.017c0-3.876-.02-4.137-.643-6.446-.824-3.072-3.053-7.65-5-10.24-1.948-2.59-5.06-5.642-7.148-7.007-.984-.643-1.747-1.185-1.707-1.225.12-.12 3.775-.723 5.48-.904 2.39-.26 6.447-.04 9.62.502zm-14.978 1.446c1.044 2.37 1.827 4.457 2.028 5.38.682 3.193.883 4.84.883 6.928 0 1.988-.06 2.51-.502 3.654-.803 2.17-1.707 3.474-4.116 6.004-2.892 3.05-3.735 4.136-4.68 6.003-1.525 3.052-2.208 6.104-2.188 9.818 0 2.35.24 3.855.864 5.542.08.22-.3-.382-.844-1.345-.542-.944-1.224-2.028-1.505-2.41-.482-.642-1.185-1.807-4.76-7.89-.923-1.547-1.726-2.852-1.786-2.912-.18-.14-1.204-1.807-2.027-3.313-.38-.662-.923-1.566-1.205-2.008-.3-.44-1.204-1.887-2.007-3.212-.782-1.325-1.887-3.132-2.43-4.016-.54-.884-.983-1.727-.983-1.888 0-.34 1.466-2.108 3.032-3.654 3.694-3.675 9.556-7.43 14.837-9.537 1.948-.762 6.064-2.068 6.646-2.088.18 0 .482.382.743.944zm7.57 11.143c1.565 2.77 2.45 5.36 2.91 8.493.262 1.666.322 7.348.1 7.73-.06.1-.36.2-.662.2-.943 0-3.03.743-4.417 1.566-1.546.923-3.212 2.57-3.855 3.834-1.064 2.088-.923 4.68.362 6.606 1.445 2.19 3.493 3.172 6.264 3.012 2.088-.12 2.79-.562 3.634-2.29.602-1.224.643-1.364.522-2.99-.14-1.848-.422-2.73-.642-2.01-.06.222-.402.965-.743 1.668-.784 1.606-1.648 2.25-3.033 2.25-1.727 0-2.85-.885-3.353-2.612-.422-1.465 1.225-3.814 3.433-4.9 1.345-.64 3.534-1.002 4.538-.74 1.887.52 3.534 2.127 4.216 4.094 1.286 3.695-.842 9.738-4.195 11.987-2.67 1.786-5.923 2.168-9.497 1.103-3.413-1.003-5.622-2.73-7.007-5.54-1.606-3.234-1.565-7.09.08-11.406 1.025-2.67 1.99-4.035 5.12-7.248 1.005-1.045 2.11-2.27 2.45-2.71.944-1.246 2.048-3.575 2.39-5.08.34-1.447.482-5.22.22-6.125-.28-1.044.242-.542 1.165 1.104zm10.44 36.04c-.3.542-.663 1.104-.803 1.265-.12.16-.522.803-.884 1.405-.824 1.406-3.434 5.743-4.76 7.89-1.385 2.23-2.57 4.237-3.915 6.546-.622 1.064-1.244 1.928-1.385 1.928-.14 0-.763-.864-1.385-1.928-1.346-2.31-2.53-4.316-3.916-6.545-1.326-2.147-3.936-6.484-4.76-7.89-.36-.602-.742-1.245-.883-1.405-.12-.16-.44-.663-.702-1.105l-.462-.803 1.185 1.125c2.208 2.108 4.096 3.112 7.308 3.915 2.31.582 5.662.662 7.75.16 2.83-.642 5.502-2.288 7.148-4.397.482-.602.883-1.104.924-1.104.04 0-.16.422-.462.944z"/>
</svg>
