<svg width="100" height="100" xmlns="http://www.w3.org/2000/svg" preserveAspectRatio="xMidYMid meet">
    <metadata>Created by Lukas Pessoa Dantas</metadata>
    <g>
        <title>Layer 1</title>
        <path id="svg_2" d="m47.681,10.1336c-7.7703,0.8232 -15.5004,3.5739 -21.7848,7.7301c-2.811,1.8673 -5.0196,3.6944 -7.5896,6.2845c-1.7267,1.7468 -2.309,2.2287 -2.4495,2.0279c-0.1004,-0.1607 -0.5221,-0.8634 -0.9236,-1.5862c-0.4016,-0.7228 -0.7831,-1.3453 -0.8634,-1.4055c-0.0803,-0.0602 -0.8232,-1.285 -1.6665,-2.7306c-0.8232,-1.4657 -1.7066,-2.9314 -1.9676,-3.2928c-0.2611,-0.3414 -1.26498,-2.048 -2.20864,-3.7747l-1.72673,-3.1523l-2.65032,-0.0603l-2.65032,-0.0602l0.46179,0.783c0.26102,0.4418 1.26493,2.1083 2.26883,3.7346c1.00392,1.6263 2.4897,4.0959 3.31291,5.5014c0.82319,1.4055 1.92749,3.1924 2.42945,3.9554c0.50193,0.7831 1.26493,2.0279 1.68653,2.811c0.4418,0.7629 0.9036,1.5259 1.024,1.6464c0.1406,0.1405 0.8634,1.3452 1.5862,2.6704c0.7429,1.3251 1.4256,2.4696 1.526,2.5298c0.1003,0.0603 0.6826,0.9839 1.305,2.048c0.6425,1.0641 1.6063,2.7105 2.1886,3.6542c0.5822,0.9437 1.5259,2.5098 2.1081,3.5137c0.5823,0.9838 1.1244,1.8472 1.2047,1.9074c0.1004,0.0603 0.8032,1.2248 1.6063,2.6102c0.8031,1.3854 2.2889,3.855 3.3129,5.5215c1.0441,1.6464 2.5299,4.1361 3.3129,5.5014c0.8031,1.3653 1.7267,2.8712 2.048,3.3129c0.3212,0.4618 1.1043,1.7267 1.7267,2.831c0.6224,1.1043 1.1846,2.048 1.2649,2.1082c0.0803,0.0602 0.8433,1.3051 1.6866,2.7909c0.8433,1.4858 1.6665,2.8109 1.807,2.9716c0.1607,0.1405 0.8031,1.2046 1.4256,2.32899c0.6425,1.1244 1.3452,2.30901 1.5862,2.65031c0.2409,0.3213 1.1042,1.7268 1.9074,3.1122c0.8031,1.3854 1.546,2.5499 1.6062,2.6101c0.0803,0.0603 0.8032,1.2649 1.6263,2.7106c0.8032,1.44559 1.526,2.6503 1.5862,2.71049c0.0803,0.0603 0.3012,0.4016 0.502,0.7429c0.4618,0.7831 0.7429,0.8232 1.1645,0.18069c0.1807,-0.26099 0.4417,-0.5822 0.5823,-0.7429c0.1405,-0.1606 0.9436,-1.4456 1.7468,-2.8912c0.8232,-1.4457 1.546,-2.65031 1.6263,-2.7106c0.0602,-0.0602 0.8032,-1.2247 1.6063,-2.6102c0.8031,-1.3853 1.6665,-2.7908 1.9074,-3.1121c0.2409,-0.3413 0.9437,-1.5259 1.5862,-2.65031c0.6224,-1.1244 1.2649,-2.1885 1.4255,-2.32899c0.1406,-0.16071 0.9638,-1.4858 1.8071,-2.9716c0.8432,-1.4858 1.6062,-2.7307 1.6865,-2.7909c0.08041,-0.0602 0.6425,-1.0039 1.265,-2.1082c0.62241,-1.1043 1.4054,-2.3692 1.7267,-2.831c0.32121,-0.4417 1.2448,-1.9476 2.0479,-3.3129c0.7831,-1.3653 2.2689,-3.855 3.3129,-5.5014c1.024,-1.6665 2.5098,-4.1361 3.3129,-5.5215c0.8032,-1.3854 1.5059,-2.5499 1.6063,-2.6102c0.0803,-0.0602 0.6224,-0.9236 1.2047,-1.9074c0.5823,-1.0039 1.5259,-2.57 2.1082,-3.5137c0.5823,-0.9437 1.546,-2.5901 2.1885,-3.6542c0.6224,-1.0642 1.2047,-1.9877 1.3051,-2.048c0.1004,-0.0602 0.7831,-1.2047 1.5259,-2.5298c0.7229,-1.3252 1.4457,-2.5299 1.5862,-2.6705c0.12051,-0.1204 0.58231,-0.8834 1.024,-1.6464c0.4216,-0.783 1.2248,-2.0881 1.7669,-2.9113c0.5421,-0.8232 1.6263,-2.5901 2.3893,-3.9152c1.68661,-2.9114 3.6341,-6.0837 4.9794,-8.1518c0.5622,-0.8433 1.00391,-1.5861 1.00391,-1.6664c0,-0.0804 -1.1846,-0.1004 -2.65031,-0.0804l-2.63029,0.0603l-1.7267,3.1522c-0.9437,1.7268 -1.9476,3.4334 -2.2086,3.7747c-0.261,0.3614 -1.1444,1.8272 -1.9476,3.2527c-0.8232,1.4256 -1.6062,2.7106 -1.7468,2.8712c-0.2008,0.2008 -0.5019,0.0201 -1.6464,-0.9839c-7.1278,-6.3045 -14.9783,-10.0993 -24.1942,-11.6854c-3.2326,-0.5622 -9.3765,-0.80316 -12.3681,-0.4819l0,0zm11.043,4.3168c8.9548,1.5259 16.6849,5.3408 23.893,11.7859l0.96371,0.8634l-0.9838,1.6062c-0.5622,0.8834 -1.4456,2.3491 -1.9877,3.2527c-2.4496,4.0959 -3.9956,6.6459 -4.4976,7.3888c-0.28101,0.4417 -0.8231,1.3452 -1.20461,2.0078c-0.8232,1.5058 -1.8472,3.1723 -2.0279,3.3129c-0.0603,0.0602 -0.8634,1.3653 -1.78699,2.9113c-3.4333,5.8427 -4.2766,7.2482 -4.8991,8.1316c-0.3614,0.502 -1.2649,2.0079 -2.0279,3.3531c-0.7629,1.3453 -1.4255,2.4094 -1.4657,2.3893c-0.0401,-0.0401 0.1807,-0.6425 0.4819,-1.3452c1.5862,-3.7948 1.9275,-7.2081 0.9638,-10.1194c-0.3012,-0.8835 -0.8032,-1.9878 -1.10431,-2.4496c-0.8232,-1.1846 -2.6704,-2.7707 -3.8751,-3.2928l-1.024,-0.4618l-0.0201,-4.0156c0,-3.8751 -0.0201,-4.1361 -0.6425,-6.4451c-0.8232,-3.072 -3.0519,-7.6498 -4.9994,-10.2399c-1.9476,-2.5901 -5.0597,-5.6419 -7.1479,-7.0073c-0.9838,-0.6425 -1.7468,-1.1846 -1.7066,-1.2247c0.1205,-0.1205 3.7747,-0.7228 5.4813,-0.9035c2.3893,-0.2611 6.4451,-0.0402 9.6175,0.5019zm-14.9783,1.4456c1.044,2.3693 1.8271,4.4574 2.0279,5.381c0.6826,3.1924 0.8834,4.8388 0.8834,6.927c0,1.9877 -0.0602,2.5097 -0.502,3.6542c-0.8031,2.1684 -1.7066,3.4735 -4.116,6.0034c-2.8912,3.0518 -3.7345,4.1361 -4.6782,6.0033c-1.5259,3.0519 -2.2086,6.1038 -2.1885,9.8183c0,2.3491 0.2409,3.855 0.8633,5.5415c0.0803,0.2209 -0.3011,-0.3814 -0.8433,-1.3452c-0.5421,-0.9437 -1.2247,-2.0279 -1.5058,-2.4094c-0.4819,-0.6425 -1.1846,-1.807 -4.7585,-7.8907c-0.9236,-1.546 -1.7268,-2.8511 -1.787,-2.9114c-0.1807,-0.1405 -1.2047,-1.807 -2.0279,-3.3128c-0.3815,-0.6626 -0.9236,-1.5661 -1.2047,-2.0079c-0.3012,-0.4417 -1.2047,-1.8873 -2.0078,-3.2125c-0.7831,-1.3251 -1.8873,-3.1322 -2.4295,-4.0156c-0.5421,-0.8834 -0.9838,-1.7267 -0.9838,-1.8874c0,-0.3413 1.4657,-2.1082 3.0318,-3.6542c3.6944,-3.6743 9.5572,-7.4289 14.8378,-9.5371c1.9476,-0.763 6.0636,-2.0681 6.6459,-2.0882c0.1807,0 0.4818,0.3816 0.7429,0.9437l0,0zm7.5694,11.1434c1.5661,2.7708 2.4496,5.3609 2.9114,8.4931c0.261,1.6665 0.3212,7.3486 0.1004,7.7301c-0.0603,0.1004 -0.3615,0.2008 -0.6626,0.2008c-0.9437,0 -3.0318,0.7429 -4.4172,1.5661c-1.5461,0.9236 -3.2125,2.57 -3.855,3.8349c-1.0642,2.0881 -0.9236,4.6782 0.3614,6.6057c1.4456,2.1885 3.4936,3.1724 6.2644,3.0117c2.0881,-0.1204 2.7908,-0.5621 3.6341,-2.2889c0.6023,-1.2247 0.6425,-1.3653 0.522,-2.9916c-0.1405,-1.8472 -0.4216,-2.7307 -0.6425,-2.0078c-0.0602,0.2208 -0.4015,0.9637 -0.7428,1.6665c-0.7831,1.6062 -1.6465,2.2487 -3.0319,2.2487c-1.7267,0 -2.8511,-0.8834 -3.353,-2.6102c-0.4217,-1.4657 1.2248,-3.8148 3.4334,-4.899c1.3452,-0.6425 3.5337,-1.0039 4.5376,-0.7429c1.8874,0.522 3.5338,2.1283 4.2164,4.0959c1.285,3.6944 -0.8432,9.7379 -4.1963,11.9867c-2.6704,1.78699 -5.9231,2.1684 -9.497,1.1043c-3.4133,-1.0039 -5.6219,-2.7306 -7.0072,-5.5416c-1.6063,-3.2326 -1.5661,-7.0876 0.0803,-11.4044c1.0239,-2.6704 1.9877,-4.0357 5.1199,-7.2482c1.0039,-1.0441 2.1082,-2.2688 2.4495,-2.7106c0.9437,-1.2448 2.048,-3.5739 2.3893,-5.0797c0.3414,-1.4457 0.4819,-5.2204 0.2209,-6.1239c-0.2811,-1.044 0.2409,-0.5421 1.1645,1.1043l0,0zm10.4407,36.0404c-0.3012,0.542 -0.6626,1.1042 -0.8032,1.2649c-0.1204,0.1606 -0.522,0.80309 -0.8834,1.4054c-0.8232,1.4055 -3.4334,5.7424 -4.7585,7.8908c-1.3854,2.2286 -2.57,4.2365 -3.9153,6.5454c-0.6224,1.0642 -1.2448,1.9276 -1.3853,1.9276c-0.1406,0 -0.763,-0.8634 -1.3855,-1.9276c-1.3452,-2.3089 -2.5298,-4.3167 -3.9152,-6.5454c-1.3251,-2.1484 -3.9353,-6.4853 -4.7585,-7.8908c-0.3614,-0.6023 -0.7429,-1.2448 -0.8835,-1.4054c-0.1204,-0.16061 -0.4417,-0.66261 -0.7027,-1.10431l-0.4618,-0.8032l1.1846,1.1244c2.2086,2.1082 4.096,3.1121 7.3085,3.9153c2.309,0.5822 5.662,0.6625 7.7502,0.1606c2.831,-0.64249 5.5014,-2.28889 7.1478,-4.3971c0.4818,-0.6024 0.8834,-1.1043 0.9236,-1.1043c0.0401,0 -0.1607,0.4216 -0.4618,0.9437l0,0z" fill="black"></path>
    </g>
</svg>