<svg width="100" height="100" xmlns="http://www.w3.org/2000/svg" preserveAspectRatio="xMidYMid meet">
    <g>
        <title>Layer 1</title>
        <path id="svg_3" d="m1.01746,33.7875c-0.25871,1.3223 -0.20122,5.1167 0.11499,9.0261c2.15592,24.9224 14.97645,39.9851 36.50695,42.8597c1.6672,0.20119 3.162,0.4025 3.3057,0.4025c0.1725,0 -1.0061,-1.3223 -2.5871,-2.9321c-7.5026,-7.6751 -11.9294,-18.081 -13.108,-30.7866c-0.4024,-4.1106 -0.1724,-11.6707 0.4599,-15.8675c0.23,-1.5811 0.4312,-3.0471 0.4312,-3.2483c0,-0.2587 -2.6733,-0.3449 -12.4756,-0.3449l-12.44681,0l-0.20122,0.8911l-0.00001,0z" fill="#000000"></path>
        <path id="svg_4" d="m73.85887,33.24129c0,0.20123 0.20122,1.66725 0.43118,3.24827c0.63242,4.19686 0.86237,11.75696 0.45993,15.86758c-1.17857,12.70556 -5.60538,23.11147 -13.108,30.78656c-1.58102,1.60976 -2.73084,2.93206 -2.58711,2.93206c0.17247,0 1.6385,-0.20123 3.30575,-0.40244c21.53046,-2.87458 34.35101,-17.93728 36.50694,-42.85973c0.31619,-3.9094 0.3737,-7.70382 0.11497,-9.02612l-0.17246,-0.89111l-12.47561,0c-9.80225,0 -12.47559,0.08623 -12.47559,0.34493z" fill="#000000"></path>
        <path transform="rotate(-45 50.00000762939453,13.974332809448235) " id="svg_1" d="m42.26528,21.70905l0,-15.46944l15.46944,15.46944l-15.46944,0z" stroke-linecap="null" stroke-linejoin="null" fill="#000000"></path>
    </g>
</svg>