<svg width="100" height="100" xmlns="http://www.w3.org/2000/svg">
    <path d="M1.017 33.788c-.258 1.322-.2 5.116.115 9.026C3.288 67.736 16.11 82.8 37.64 85.674c1.667.2 3.16.402 3.305.402.173 0-1.006-1.322-2.587-2.932-7.503-7.675-11.93-18.08-13.108-30.787-.402-4.11-.172-11.67.46-15.867.23-1.582.43-3.048.43-3.25 0-.257-2.672-.344-12.474-.344H1.22l-.203.89zM73.86 33.24c0 .203.2 1.67.43 3.25.632 4.196.862 11.757.46 15.867-1.18 12.706-5.605 23.112-13.108 30.787-1.58 1.61-2.73 2.932-2.587 2.932.172 0 1.638-.2 3.306-.403C83.89 82.8 96.713 67.736 98.87 42.813c.316-3.91.373-7.703.115-9.026l-.173-.89H86.334c-9.802 0-12.475.086-12.475.344zM50 24.913l-10.94-10.94h21.88L50 24.914z"/>
</svg>
