<svg width="300" height="300" xmlns="http://www.w3.org/2000/svg">
    <path fill="none" stroke="#c80000" stroke-width="8.571" stroke-linecap="round" stroke-linejoin="round" stroke-dashoffset="55.5" d="M30 4.286C12.857 4.286 4.286 12.856 4.286 30v240c0 17.143 8.57 25.714 25.714 25.714h240c17.143 0 25.714-8.57 25.714-25.714V30c0-17.143-8.57-25.714-25.714-25.714H30z"/>
    <path fill="none" stroke="#c80000" stroke-width="8.571" stroke-linecap="round" stroke-linejoin="round" stroke-dashoffset="55.5" d="M21.43 137.143v-90c0-12.857 0-25.714 15-25.714s15 12.856 15 25.713V120c0 17.143 4.284 21.43 21.427 21.43H90c12.857 0 17.143-4.287 17.143-17.144V111.43c0-17.144-4.286-17.144-12.857-17.144-8.572 0-12.857 0-12.857-8.572v-38.57c0-21.43 4.284-25.715 25.713-25.715h8.57c21.43 0 25.716 4.284 25.716 25.713v90M81.43 278.57V210c0-12.857 4.284-17.143 17.14-17.143h25.716c12.857 0 17.143 4.286 17.143 17.143v68.57M111.43 180v30M98.57 210v68.57M124.286 278.57V210M94.286 210h34.285M81.43 167.143h60M111.43 162.857v4.286M42.857 162.857v98.572c0 8.57 0 17.14-10.714 17.14S21.43 270 21.43 261.43v-47.144"/>
    <path fill="none" stroke="#c80000" stroke-width="8.571" stroke-linecap="round" stroke-linejoin="round" stroke-dashoffset="55.5" d="M21.43 162.857v12.857c0 12.857 4.284 17.143 17.14 17.143h8.573c12.857 0 17.143-4.286 17.143-17.143v-12.857M64.286 278.57v-51.427C64.286 214.286 60 210 47.143 210h-4.286"/>
    <g fill="#c80000">
        <path d="M249.45 22.7c-17.373 2.63-58.8 5.754-75.68 5.754-3.123 0-4.603.22-4.603.658 0 .328.44 1.918.932 3.562l.93 2.904h5.206c4.987 0 19.126-.658 32.004-1.425l5.863-.383v10.575h-54.8v7.673h54.8v8.768h-41.1v42.196h41.1v9.864H168.62v7.672h45.538l-.164 6.137-.165 6.193-27.84.164-27.783.11v7.124h121.656v-7.124l-28.332-.11-28.385-.164-.164-6.193-.164-6.137H271.095v-7.672H222.87v-9.864h43.293V60.786H222.87v-8.768h55.897v-7.672h-55.952l.165-5.644.165-5.59 1.918-.164c7.343-.548 26.36-2.576 33.318-3.562l8.386-1.206-3.07-3.452c-3.56-3.946-2.52-3.782-14.247-2.028zm-35.456 50.25l.164 5.372H181.77v-10.96l16.058.11 16 .164.166 5.315zm42.853-.108v5.48H222.87v-5.097c0-2.85.165-5.315.385-5.48.164-.22 7.836-.383 16.988-.383h16.604v5.48zm-42.744 17.536v5.48H181.77v-10.96h32.333v5.48zm42.744 0v5.48H222.87v-10.96h33.977v5.48zM168.07 167.37v4.11h17.592c16.44 0 17.536.056 17.317.933-.166.548-.933 3.89-1.755 7.398l-1.48 6.467H174.1v7.672h23.728l-.384 1.753c-.22.986-1.37 5.425-2.576 9.864l-2.246 8.11H157.66v8.22H280.41v-8.22H254.656v-27.4h-22.797c-21.426 0-22.742-.054-22.468-.986.384-1.26 3.07-13.096 3.07-13.48 0-.164 13.206-.33 29.317-.33h29.318v-8.22H168.07v4.11zm77.27 36.443v9.864h-21.373c-11.727 0-21.372-.22-21.372-.438 0-.494 4.22-17.427 4.658-18.633.165-.493 4.494-.658 19.18-.658h18.906v9.863zM177.935 258.613v24.112h8.767V276.698l32.77.11 32.716.164.163 2.577.165 2.63h8.714V234.5h-83.297v24.113zm74.254-3.014v13.15l-32.716.165-32.77.11v-26.853l32.77.11 32.715.164V255.6z"/>
    </g>
</svg>
