<svg width="300" height="300" xmlns="http://www.w3.org/2000/svg">
    <metadata id="metadata7">image/svg+xml</metadata>
    <g>
        <title>Layer 1</title>
        <path fill="none" stroke="#c80000" stroke-width="8.57143" stroke-linecap="round" stroke-linejoin="round" stroke-miterlimit="4" stroke-dashoffset="55.5" id="path6367" d="m30.00001,4.28571c-17.14287,0 -25.71428,8.57141 -25.71428,25.71426l0,240.00003c0,17.14282 8.57141,25.71429 25.71428,25.71429l239.99999,0c17.14285,0 25.71426,-8.57147 25.71426,-25.71429l0,-240.00003c0,-17.14285 -8.57141,-25.71426 -25.71426,-25.71426l-239.99999,0z"></path>
        <path fill="none" stroke="#c80000" stroke-width="8.57143" stroke-linecap="round" stroke-linejoin="round" stroke-miterlimit="4" stroke-dashoffset="55.5" id="path5311" d="m21.42857,137.14288l0,-90c0,-12.85718 0,-25.71429 15,-25.71429c15,0 15,12.85712 15,25.71429l0,72.85712c0,17.14288 4.28571,21.42859 21.42854,21.42859l17.14288,0c12.85712,0 17.14285,-4.28571 17.14285,-17.14288l0,-12.85712c0,-17.14288 -4.28574,-17.14288 -12.85715,-17.14288c-8.57141,0 -12.85712,0 -12.85712,-8.57141l0,-38.57141c0,-21.42856 4.28571,-25.71426 25.71426,-25.71426l8.57144,0c21.42856,0 25.71429,4.28571 25.71429,25.71426l0,90"></path>
        <path fill="none" stroke="#c80000" stroke-width="8.57143" stroke-linecap="round" stroke-linejoin="round" stroke-miterlimit="4" stroke-dashoffset="55.5" id="path5309" d="m81.42859,278.57141l0,-68.57141c0,-12.85712 4.28571,-17.14288 17.14282,-17.14288l25.71429,0c12.85718,0 17.14288,4.28577 17.14288,17.14288l0,68.57141"></path>
        <path fill="none" stroke="#c80000" stroke-width="8.57143" stroke-linecap="round" stroke-linejoin="round" stroke-miterlimit="4" stroke-dashoffset="55.5" id="path5313" d="m111.42859,180l0,30"></path>
        <path fill="none" stroke="#c80000" stroke-width="8.57143" stroke-linecap="round" stroke-linejoin="round" stroke-miterlimit="4" stroke-dashoffset="55.5" id="path5315" d="m98.57141,210l0,68.57141"></path>
        <path fill="none" stroke="#c80000" stroke-width="8.57143" stroke-linecap="round" stroke-linejoin="round" stroke-miterlimit="4" stroke-dashoffset="55.5" id="path5317" d="m124.28571,278.57141l0,-68.57141"></path>
        <path fill="none" stroke="#c80000" stroke-width="8.57143" stroke-linecap="round" stroke-linejoin="round" stroke-miterlimit="4" stroke-dashoffset="55.5" id="path5319" d="m94.28571,210l34.28571,0"></path>
        <path fill="none" stroke="#c80000" stroke-width="8.57143" stroke-linecap="round" stroke-linejoin="round" stroke-miterlimit="4" stroke-dashoffset="55.5" id="path5321" d="m81.42859,167.14288l60,0"></path>
        <path fill="none" stroke="#c80000" stroke-width="8.57143" stroke-linecap="round" stroke-linejoin="round" stroke-miterlimit="4" stroke-dashoffset="55.5" id="path5323" d="m111.42859,162.85712l0,4.28577"></path>
        <path fill="none" stroke="#c80000" stroke-width="8.57143" stroke-linecap="round" stroke-linejoin="round" stroke-miterlimit="4" stroke-dashoffset="55.5" id="path5325" d="m42.85713,162.85712l0,98.57147c0,8.57141 0,17.14282 -10.71426,17.14282c-10.71428,0 -10.71428,-8.57141 -10.71428,-17.14282l0,-47.14288"></path>
        <path fill="none" stroke="#c80000" stroke-width="8.57143" stroke-linecap="round" stroke-linejoin="round" stroke-miterlimit="4" stroke-dashoffset="55.5" id="path5327" d="m21.42857,162.85712l0,12.85718c0,12.85712 4.28571,17.14282 17.14284,17.14282l8.57146,0c12.85713,0 17.14284,-4.28571 17.14284,-17.14282l0,-12.85718"></path>
        <path fill="none" stroke="#c80000" stroke-width="8.57143" stroke-linecap="round" stroke-linejoin="round" stroke-miterlimit="4" stroke-dashoffset="55.5" id="path5329" d="m64.28571,278.57141l0,-51.42853c0,-12.85718 -4.28571,-17.14288 -17.14284,-17.14288l-4.28574,0"></path>
        <metadata transform="matrix(0.39465921384206126,0,0,0.40238001022033915,129.84265188487765,6.0745128592755835) ">Created by Lukas Pessoa Dantas</metadata>
        <metadata transform="matrix(0.4185335397581429,0,0,0.4185335397581429,130.5697503827663,-23.77090954766374) ">Created by Lukas Pessoa Dantas</metadata>
        <g id="svg_20">
            <g id="svg_16" fill="#000000">
                <path fill="#c80000" id="svg_17" d="m249.44901,22.70002c-17.37154,2.63039 -58.80017,5.75398 -75.67851,5.75398c-3.12358,0 -4.60318,0.2192 -4.60318,0.6576c0,0.3288 0.4384,1.91799 0.93159,3.56199l0.93161,2.90439l5.20596,0c4.98679,0 19.12514,-0.6576 32.00308,-1.4248l5.86357,-0.3836l0,5.31558l0,5.26078l-27.3999,0l-27.39987,0l0,3.83599l0,3.83598l27.39987,0l27.3999,0l0,4.38398l0,4.38398l-20.54993,0l-20.54991,0l0,21.09792l0,21.09792l20.54991,0l20.54993,0l0,4.93198l0,4.93198l-22.7419,0l-22.74191,0l0,3.83599l0,3.83598l22.74191,0l22.79671,0l-0.1644,6.13757l-0.16441,6.19238l-27.83829,0.16438l-27.78348,0.10962l0,3.56198l0,3.56198l60.82774,0l60.82777,0l0,-3.56198l0,-3.56198l-28.33148,-0.10962l-28.38629,-0.16438l-0.1644,-6.19238l-0.16441,-6.13757l24.16672,0l24.11192,0l0,-3.83598l0,-3.83599l-24.11192,0l-24.11192,0l0,-4.93198l0,-4.93198l21.64594,0l21.6459,0l0,-21.09792l0,-21.09792l-21.6459,0l-21.64594,0l0,-4.38398l0,-4.38398l27.94791,0l27.94791,0l0,-3.83598l0,-3.83599l-27.94791,0l-28.0027,0l0.16441,-5.64438l0.1644,-5.58958l1.91798,-0.16439c7.34319,-0.548 26.3587,-2.57559 33.31828,-3.56199l8.38437,-1.2056l-3.06879,-3.45238c-3.56201,-3.94559 -2.52081,-3.78119 -14.24796,-2.02759zm-35.45546,50.2514l0.1644,5.37038l-16.22075,0l-16.16592,0l0,-5.47998l0,-5.47998l16.05634,0.1096l16.00153,0.1644l0.16441,5.31557zm42.85344,-0.1096l0,5.47998l-16.98795,0l-16.98795,0l0,-5.09638c0,-2.84959 0.16441,-5.31557 0.38361,-5.47998c0.1644,-0.21919 7.83636,-0.3836 16.98795,-0.3836l16.60434,0l0,5.47998zm-42.74385,17.53593l0,5.47997l-16.16594,0l-16.16592,0l0,-5.47997l0,-5.47998l16.16592,0l16.16594,0l0,5.47998zm42.74385,0l0,5.47997l-16.98795,0l-16.98795,0l0,-5.47997l0,-5.47998l16.98795,0l16.98795,0l0,5.47998z"></path>
                <path fill="#c80000" id="svg_18" d="m168.07132,167.37148l0,4.10997l17.59073,0c16.43994,0 17.53593,0.05479 17.31673,0.93159c-0.16438,0.548 -0.93158,3.89079 -1.75359,7.39798l-1.47958,6.46637l-12.82315,0l-12.82315,0l0,3.83598l0,3.83598l11.83673,0l11.89157,0l-0.38359,1.7536c-0.21922,0.9864 -1.37001,5.42519 -2.57561,9.86395l-2.2468,8.11037l-17.48112,0l-17.48112,0l0,4.11l0,4.10997l61.37575,0l61.37578,0l0,-4.10997l0,-4.11l-12.87793,0l-12.87796,0l0,-13.69994l0,-13.69995l-22.79672,0c-21.42673,0 -22.74193,-0.05479 -22.46791,-0.9864c0.38359,-1.26038 3.06879,-13.09714 3.06879,-13.48073c0,-0.16441 13.20674,-0.32881 29.31789,-0.32881l29.3179,0l0,-4.10997l0,-4.11l-51.51183,0l-51.5118,0l0,4.11zm77.2677,36.44185l0,9.86395l-21.37192,0c-11.72716,0 -21.37193,-0.21919 -21.37193,-0.43839c0,-0.49321 4.21959,-17.42635 4.658,-18.63193c0.1644,-0.49321 4.49358,-0.65761 19.17992,-0.65761l18.90593,0l0,9.86397z"></path>
                <path fill="#c80000" id="svg_19" d="m177.93529,258.6131l0,24.11191l4.38399,0l4.38396,0l0,-3.01401l0,-3.01395l32.77028,0.10959l32.71548,0.1644l0.1644,2.57559l0.1644,2.6304l4.384,0l4.32916,0l0,-23.83792l0,-23.83791l-41.64784,0l-41.64783,0l0,24.11189zm74.25371,-3.01398l0,13.15195l-32.71548,0.1644l-32.77028,0.10962l0,-13.42596l0,-13.42595l32.77028,0.1096l32.71548,0.16438l0,13.15196z"></path>
            </g>
        </g>
    </g>
</svg>