<svg xmlns="http://www.w3.org/2000/svg" width="97.573" height="107.657">
    <path d="M12.123 26.503c5.41-3.59 18.65 5.625 18.65 5.625S22.957 13.278 28.7 7.26c9.34-9.785 31.623-8.677 40.556 1.48 5.693 6.475-2.368 25.756-2.368 25.756s9.593-8.832 17.17-5.33C98.6 35.892 101.336 65.24 90.274 76.83c-6.563 6.876-28.42-2.368-28.42-2.368s7.05 19.313 1.186 25.458c-9.13 9.565-30.725 9.74-39.668 0-5.493-5.98 5.624-25.458 5.624-25.458S11.9 79.364 7.09 73.868C-3.367 61.92-1.105 35.284 12.123 26.503z" fill="#f9f9f9" stroke="#000"/>
    <path d="M60.46 52.674a13.617 13.913 0 1 1-27.236 0 13.617 13.913 0 1 1 27.235 0z" fill="#f9f9f9" stroke="#000"/>
</svg>
