<svg xmlns:dc="http://purl.org/dc/elements/1.1/" xmlns:cc="http://creativecommons.org/ns#" xmlns:rdf="http://www.w3.org/1999/02/22-rdf-syntax-ns#" xmlns:svg="http://www.w3.org/2000/svg" xmlns="http://www.w3.org/2000/svg" xmlns:sodipodi="http://sodipodi.sourceforge.net/DTD/sodipodi-0.dtd" xmlns:inkscape="http://www.inkscape.org/namespaces/inkscape" id="svg2985" version="1.1" inkscape:version="0.48.4 r9939" width="97.573364" height="107.65745" sodipodi:docname="Fūta Kagetsu Symbol.svg">
    <metadata id="metadata2991">
        <rdf:RDF>
            <cc:Work rdf:about="">
                <dc:format>image/svg+xml</dc:format>
                <dc:type rdf:resource="http://purl.org/dc/dcmitype/StillImage"/>
                <dc:title/>
            </cc:Work>
        </rdf:RDF>
    </metadata>
    <defs id="defs2989"/>
    <sodipodi:namedview pagecolor="#ffffff" bordercolor="#666666" borderopacity="1" objecttolerance="10" gridtolerance="10" guidetolerance="10" inkscape:pageopacity="0" inkscape:pageshadow="2" inkscape:window-width="1920" inkscape:window-height="1018" id="namedview2987" showgrid="false" fit-margin-top="0" fit-margin-left="0" fit-margin-right="0" fit-margin-bottom="0" inkscape:zoom="3.3780488" inkscape:cx="75.09954" inkscape:cy="35.593901" inkscape:window-x="-8" inkscape:window-y="-8" inkscape:window-maximized="1" inkscape:current-layer="svg2985"/>
    <path style="fill:#f9f9f9;fill-opacity:1;stroke:#000000;stroke-width:1px;stroke-linecap:butt;stroke-linejoin:miter;stroke-opacity:1" d="m 12.122618,26.503136 c 5.40979,-3.591023 18.64983,5.624549 18.64983,5.624549 0,0 -7.81478,-18.849426 -2.0722,-24.8664157 9.33974,-9.786038 31.62271,-8.678334 40.55595,1.480137 5.69307,6.4739047 -2.36824,25.7545047 -2.36824,25.7545047 0,0 9.59255,-8.83204 17.16969,-5.32851 14.54216,6.72403 17.278702,36.071124 6.2166,47.660664 -6.56329,6.87623 -28.41877,-2.36824 -28.41877,-2.36824 0,0 7.05001,19.31341 1.18411,25.45849 -9.13002,9.564545 -30.72453,9.739325 -39.66787,0 -5.49269,-5.98156 5.62456,-25.45849 5.62456,-25.45849 0,0 -17.09523,4.90467 -21.9061401,-0.59206 -10.4567,-11.94734 -8.19552,-38.583877 5.0324801,-47.364629 z" id="path3765-7-4" inkscape:connector-curvature="0" sodipodi:nodetypes="acaacccccccaa"/>
    <path sodipodi:type="arc" style="fill:#f9f9f9;fill-opacity:1;fill-rule:nonzero;stroke:#000000;stroke-opacity:1" id="path2995" sodipodi:cx="158.96751" sodipodi:cy="101.5379" sodipodi:rx="13.617329" sodipodi:ry="13.913358" d="m 172.58484,101.5379 a 13.617329,13.913358 0 1 1 -27.23465,0 13.617329,13.913358 0 1 1 27.23465,0 z" transform="translate(-112.12601,-48.864253)"/>
</svg>