<svg xmlns:dc="http://purl.org/dc/elements/1.1/" xmlns:cc="http://creativecommons.org/ns#" xmlns:rdf="http://www.w3.org/1999/02/22-rdf-syntax-ns#" xmlns:svg="http://www.w3.org/2000/svg" xmlns="http://www.w3.org/2000/svg" xmlns:sodipodi="http://sodipodi.sourceforge.net/DTD/sodipodi-0.dtd" xmlns:inkscape="http://www.inkscape.org/namespaces/inkscape" width="299.99997" height="300" id="svg2" version="1.1" inkscape:version="0.47 r22583" sodipodi:docname="Kamizuru Symbol.svg">
    <defs id="defs4">
        <inkscape:perspective sodipodi:type="inkscape:persp3d" inkscape:vp_x="0 : 526.18109 : 1" inkscape:vp_y="0 : 1000 : 0" inkscape:vp_z="744.09448 : 526.18109 : 1" inkscape:persp3d-origin="372.04724 : 350.78739 : 1" id="perspective10"/>
        <inkscape:perspective id="perspective8716" inkscape:persp3d-origin="0.5 : 0.33333333 : 1" inkscape:vp_z="1 : 0.5 : 1" inkscape:vp_y="0 : 1000 : 0" inkscape:vp_x="0 : 0.5 : 1" sodipodi:type="inkscape:persp3d"/>
        <inkscape:perspective id="perspective8756" inkscape:persp3d-origin="0.5 : 0.33333333 : 1" inkscape:vp_z="1 : 0.5 : 1" inkscape:vp_y="0 : 1000 : 0" inkscape:vp_x="0 : 0.5 : 1" sodipodi:type="inkscape:persp3d"/>
        <inkscape:perspective id="perspective8789" inkscape:persp3d-origin="0.5 : 0.33333333 : 1" inkscape:vp_z="1 : 0.5 : 1" inkscape:vp_y="0 : 1000 : 0" inkscape:vp_x="0 : 0.5 : 1" sodipodi:type="inkscape:persp3d"/>
        <inkscape:perspective id="perspective8840" inkscape:persp3d-origin="0.5 : 0.33333333 : 1" inkscape:vp_z="1 : 0.5 : 1" inkscape:vp_y="0 : 1000 : 0" inkscape:vp_x="0 : 0.5 : 1" sodipodi:type="inkscape:persp3d"/>
    </defs>
    <sodipodi:namedview id="base" pagecolor="#ffffff" bordercolor="#666666" borderopacity="1.0" inkscape:pageopacity="0.0" inkscape:pageshadow="2" inkscape:zoom="1.495" inkscape:cx="-182.18044" inkscape:cy="130.45929" inkscape:document-units="px" inkscape:current-layer="layer1" showgrid="false" inkscape:window-width="1280" inkscape:window-height="940" inkscape:window-x="-8" inkscape:window-y="-8" inkscape:window-maximized="1"/>
    <metadata id="metadata7">
        <rdf:RDF>
            <cc:Work rdf:about="">
                <dc:format>image/svg+xml</dc:format>
                <dc:type rdf:resource="http://purl.org/dc/dcmitype/StillImage"/>
                <dc:title/>
            </cc:Work>
        </rdf:RDF>
    </metadata>
    <g inkscape:label="Layer 1" inkscape:groupmode="layer" id="layer1" transform="translate(-753.44004,-539.0846)">
        <path sodipodi:nodetypes="cccccccccccccccc" id="path5550" d="m 774.86862,676.22746 0,-90 c 0,-12.85716 0,-25.71428 15,-25.71428 15,0 15,12.85712 15,25.71428 l 0,72.85713 c 0,17.14287 4.28571,21.42858 21.42855,21.42858 l 17.14287,0 c 12.85713,0 17.14287,-4.28571 17.14287,-17.14287 l 0,-12.85713 c 0,-17.14287 -4.28574,-17.14287 -12.85716,-17.14287 -8.57142,0 -12.85713,0 -12.85713,-8.57142 l 0,-38.57142 c 0,-21.42857 4.28571,-25.71428 25.71429,-25.71428 l 8.57142,0 c 21.42858,0 25.71429,4.28571 25.71429,25.71428 l 0,90" style="fill:none;stroke:#c80000;stroke-width:8.5714283;stroke-linecap:round;stroke-linejoin:round;stroke-miterlimit:4;stroke-opacity:1;stroke-dasharray:none;stroke-dashoffset:55.5000029"/>
        <path sodipodi:nodetypes="cccccc" id="path5548" d="m 834.86862,817.65601 0,-68.57142 c 0,-12.85713 4.28571,-17.14287 17.14284,-17.14287 l 25.71429,0 c 12.85716,0 17.14287,4.28574 17.14287,17.14287 l 0,68.57142" style="fill:none;stroke:#c80000;stroke-width:8.5714283;stroke-linecap:round;stroke-linejoin:round;stroke-miterlimit:4;stroke-opacity:1;stroke-dasharray:none;stroke-dashoffset:55.5000029"/>
        <path id="path5552" d="m 864.86862,719.08459 0,30" style="fill:none;stroke:#c80000;stroke-width:8.5714283;stroke-linecap:round;stroke-linejoin:round;stroke-miterlimit:4;stroke-opacity:1;stroke-dasharray:none;stroke-dashoffset:55.5000029"/>
        <path sodipodi:nodetypes="cc" id="path5554" d="m 852.01146,749.08459 0,68.57142" style="fill:none;stroke:#c80000;stroke-width:8.5714283;stroke-linecap:round;stroke-linejoin:round;stroke-miterlimit:4;stroke-opacity:1;stroke-dasharray:none;stroke-dashoffset:55.5000029"/>
        <path id="path5556" d="m 877.72575,817.65601 0,-68.57142" style="fill:none;stroke:#c80000;stroke-width:8.5714283;stroke-linecap:round;stroke-linejoin:round;stroke-miterlimit:4;stroke-opacity:1;stroke-dasharray:none;stroke-dashoffset:55.5000029"/>
        <path sodipodi:nodetypes="cc" id="path5558" d="m 847.72575,749.08459 34.28571,0" style="fill:none;stroke:#c80000;stroke-width:8.5714283;stroke-linecap:round;stroke-linejoin:round;stroke-miterlimit:4;stroke-opacity:1;stroke-dasharray:none;stroke-dashoffset:55.5000029"/>
        <path sodipodi:nodetypes="cc" id="path5560" d="m 834.86862,706.22746 60,0" style="fill:none;stroke:#c80000;stroke-width:8.5714283;stroke-linecap:round;stroke-linejoin:round;stroke-miterlimit:4;stroke-opacity:1;stroke-dasharray:none;stroke-dashoffset:55.5000029"/>
        <path sodipodi:nodetypes="cc" id="path5562" d="m 864.86862,701.94172 0,4.28574" style="fill:none;stroke:#c80000;stroke-width:8.5714283;stroke-linecap:round;stroke-linejoin:round;stroke-miterlimit:4;stroke-opacity:1;stroke-dasharray:none;stroke-dashoffset:55.5000029"/>
        <path sodipodi:nodetypes="ccccc" id="path5564" d="m 796.29717,701.94172 0,98.57145 c 0,8.57142 0,17.14284 -10.71426,17.14284 -10.71429,0 -10.71429,-8.57142 -10.71429,-17.14284 l 0,-47.14287" style="fill:none;stroke:#c80000;stroke-width:8.5714283;stroke-linecap:round;stroke-linejoin:round;stroke-miterlimit:4;stroke-opacity:1;stroke-dasharray:none;stroke-dashoffset:55.5000029"/>
        <path sodipodi:nodetypes="cccccc" id="path5566" d="m 774.86862,701.94172 0,12.85716 c 0,12.85713 4.28571,17.14284 17.14284,17.14284 l 8.57145,0 c 12.85713,0 17.14284,-4.28571 17.14284,-17.14284 l 0,-12.85716" style="fill:none;stroke:#c80000;stroke-width:8.5714283;stroke-linecap:round;stroke-linejoin:round;stroke-miterlimit:4;stroke-opacity:1;stroke-dasharray:none;stroke-dashoffset:55.5000029"/>
        <path sodipodi:nodetypes="cccc" id="path5568" d="m 817.72575,817.65601 0,-51.42855 c 0,-12.85716 -4.28571,-17.14287 -17.14284,-17.14287 l -4.28574,0" style="fill:none;stroke:#c80000;stroke-width:8.5714283;stroke-linecap:round;stroke-linejoin:round;stroke-miterlimit:4;stroke-opacity:1;stroke-dasharray:none;stroke-dashoffset:55.5000029"/>
        <path style="fill:none;stroke:#c80000;stroke-width:8.57142735;stroke-linecap:round;stroke-linejoin:round;stroke-miterlimit:4;stroke-opacity:1;stroke-dasharray:none;stroke-dashoffset:55.5000029" d="m 972.01146,669.51934 42.85714,0 c 12.8571,3e-5 17.1429,-4.19253 17.1429,-9.78261 0,-5.59005 -4.2858,-9.78261 -17.1429,-9.78261 l -21.42856,0" id="path6210" sodipodi:nodetypes="ccccc"/>
        <path style="fill:none;stroke:#c80000;stroke-width:8.57142735;stroke-linecap:round;stroke-linejoin:round;stroke-miterlimit:4;stroke-opacity:1;stroke-dasharray:none;stroke-dashoffset:55.5000029" d="m 972.01146,649.95412 0,78.26091" id="path6212"/>
        <path style="fill:none;stroke:#c80000;stroke-width:8.57142735;stroke-linecap:round;stroke-linejoin:round;stroke-miterlimit:4;stroke-opacity:1;stroke-dasharray:none;stroke-dashoffset:55.5000029" d="m 1032.0115,711.44485 0,-16.77021 c 0,-5.59008 -8.5715,-11.18013 -17.1429,-11.18013 -8.5714,0 -17.14285,5.59005 -17.14285,11.18013 l 0,22.36026 c 0,5.59008 8.57145,11.18013 17.14285,11.18013 l 12.8571,0" id="path6214" sodipodi:nodetypes="ccccccc"/>
        <path sodipodi:nodetypes="ccccccc" id="path6258" d="m 946.29717,711.44485 0,-16.77021 c 0,-5.59008 -8.57142,-11.18013 -17.14284,-11.18013 -8.57142,0 -17.14287,5.59005 -17.14287,11.18013 l 0,22.36026 c 0,5.59008 8.57145,11.18013 17.14287,11.18013 l 12.85713,0" style="fill:none;stroke:#c80000;stroke-width:8.57142735;stroke-linecap:round;stroke-linejoin:round;stroke-miterlimit:4;stroke-opacity:1;stroke-dasharray:none;stroke-dashoffset:55.5000029"/>
        <path sodipodi:nodetypes="ccccc" id="path6330" d="m 912.01146,669.51934 17.14287,0 c 12.85713,3e-5 17.14284,-4.19253 17.14284,-9.78261 0,-5.59005 -4.28571,-9.78261 -17.14284,-9.78261 l -17.14287,0" style="fill:none;stroke:#c80000;stroke-width:8.57142735;stroke-linecap:round;stroke-linejoin:round;stroke-miterlimit:4;stroke-opacity:1;stroke-dasharray:none;stroke-dashoffset:55.5000029"/>
        <path style="fill:none;stroke:#c80000;stroke-width:8.57142735;stroke-linecap:round;stroke-linejoin:round;stroke-miterlimit:4;stroke-opacity:1;stroke-dasharray:none;stroke-dashoffset:55.5000029" d="m 912.01146,560.51309 98.57144,0 c 12.8571,0 21.4286,5.59008 21.4286,12.57764 0,9.78261 -8.5715,12.57765 -21.4286,12.57765 l -47.14286,0 c -12.85713,0 -21.42858,5.59008 -21.42858,13.97514 l 0,39.13047" id="path6448" sodipodi:nodetypes="ccccccc"/>
        <path style="fill:none;stroke:#c80000;stroke-width:8.57142735;stroke-linecap:round;stroke-linejoin:round;stroke-miterlimit:4;stroke-opacity:1;stroke-dasharray:none;stroke-dashoffset:55.5000029" d="m 912.01146,638.77399 120.00004,0" id="path6450"/>
        <path style="fill:none;stroke:#c80000;stroke-width:8.57142735;stroke-linecap:round;stroke-linejoin:round;stroke-miterlimit:4;stroke-opacity:1;stroke-dasharray:none;stroke-dashoffset:55.5000029" d="m 942.01146,608.02864 90.00004,0" id="path6452"/>
        <path style="fill:none;stroke:#c80000;stroke-width:8.57142735;stroke-linecap:round;stroke-linejoin:round;stroke-miterlimit:4;stroke-opacity:1;stroke-dasharray:none;stroke-dashoffset:55.5000029" d="m 912.01146,739.39513 0,16.77018" id="path6628"/>
        <path style="fill:none;stroke:#c80000;stroke-width:8.57142735;stroke-linecap:round;stroke-linejoin:round;stroke-miterlimit:4;stroke-opacity:1;stroke-dasharray:none;stroke-dashoffset:55.5000029" d="m 937.72575,772.93549 0,44.72052" id="path6632"/>
        <path style="fill:none;stroke:#c80000;stroke-width:8.57142735;stroke-linecap:round;stroke-linejoin:round;stroke-miterlimit:4;stroke-opacity:1;stroke-dasharray:none;stroke-dashoffset:55.5000029" d="m 937.72575,739.39513 0,11.18013 c 0,16.77018 -25.71429,13.97514 -25.71429,33.54036 l 0,33.54039" id="path6634" sodipodi:nodetypes="cccc"/>
        <path style="fill:none;stroke:#c80000;stroke-width:8.57142735;stroke-linecap:round;stroke-linejoin:round;stroke-miterlimit:4;stroke-opacity:1;stroke-dasharray:none;stroke-dashoffset:55.5000029" d="m 1002.0115,753.37027 30,13.97517 -77.14288,0 38.57142,-22.36026 0,-5.59005" id="path6636"/>
        <path style="fill:none;stroke:#c80000;stroke-width:8.57142735;stroke-linecap:round;stroke-linejoin:round;stroke-miterlimit:4;stroke-opacity:1;stroke-dasharray:none;stroke-dashoffset:55.5000029" d="m 954.86862,744.98518 77.14288,0" id="path6638"/>
        <path style="fill:none;stroke:#c80000;stroke-width:8.57142735;stroke-linecap:round;stroke-linejoin:round;stroke-miterlimit:4;stroke-opacity:1;stroke-dasharray:none;stroke-dashoffset:55.5000029" d="m 954.86862,778.52557 8.57142,0 c 4.28571,0 8.57142,2.79504 8.57142,5.59005 l 0,8.38512 c 0,2.79504 -4.28571,5.59005 -8.57142,5.59005 -4.28571,0 -8.57142,2.79504 -8.57142,5.59005 l 0,8.38512 c 0,2.79501 4.28571,5.59005 8.57142,5.59005 l 8.57142,0" id="path6662" sodipodi:nodetypes="ccccccccc"/>
        <path sodipodi:nodetypes="ccccccccc" id="path6706" d="m 984.86862,778.52557 8.57142,0 c 4.28571,0 8.57146,2.79504 8.57146,5.59005 l 0,8.38512 c 0,2.79504 -4.28575,5.59005 -8.57146,5.59005 -4.28571,0 -8.57142,2.79504 -8.57142,5.59005 l 0,8.38512 c 0,2.79501 4.28571,5.59005 8.57142,5.59005 l 8.57146,0" style="fill:none;stroke:#c80000;stroke-width:8.57142735;stroke-linecap:round;stroke-linejoin:round;stroke-miterlimit:4;stroke-opacity:1;stroke-dasharray:none;stroke-dashoffset:55.5000029"/>
        <path style="fill:none;stroke:#c80000;stroke-width:8.57142735;stroke-linecap:round;stroke-linejoin:round;stroke-miterlimit:4;stroke-opacity:1;stroke-dasharray:none;stroke-dashoffset:55.5000029" d="m 1014.8686,778.52557 8.5714,0 c 4.2857,0 8.5715,2.79504 8.5715,5.59005 l 0,8.38512 c 0,2.79504 -4.2858,5.59005 -8.5715,5.59005 -4.2857,0 -8.5714,2.79504 -8.5714,5.59005 l 0,8.38512 c 0,2.79501 4.2857,5.59005 8.5714,5.59005 l 8.5715,0" id="path6708" sodipodi:nodetypes="ccccccccc"/>
        <path style="fill:none;stroke:#c80000;stroke-width:8.5714283;stroke-linecap:round;stroke-linejoin:round;stroke-miterlimit:4;stroke-opacity:1;stroke-dasharray:none;stroke-dashoffset:55.5000029" d="m 783.44004,543.37031 c -17.14287,0 -25.71429,8.57142 -25.71429,25.71428 l 0,240 c 0,17.14287 8.57142,25.71429 25.71429,25.71429 l 239.99996,0 c 17.1429,0 25.7143,-8.57142 25.7143,-25.71429 l 0,-240 c 0,-17.14286 -8.5714,-25.71428 -25.7143,-25.71428 l -239.99996,0 z" id="path8133" sodipodi:nodetypes="ccccccccc"/>
    </g>
</svg>