<svg xmlns="http://www.w3.org/2000/svg" width="300" height="300">
    <g fill="none" stroke="#c80000" stroke-width="8.571" stroke-linecap="round" stroke-linejoin="round" stroke-dashoffset="55.5">
        <path d="M21.43 137.143v-90c0-12.857 0-25.714 15-25.714s15 12.856 15 25.713V120c0 17.143 4.284 21.43 21.427 21.43H90c12.857 0 17.143-4.287 17.143-17.144V111.43c0-17.144-4.286-17.144-12.857-17.144-8.572 0-12.857 0-12.857-8.572v-38.57c0-21.43 4.284-25.715 25.713-25.715h8.57c21.43 0 25.716 4.284 25.716 25.713v90M81.43 278.57V210c0-12.857 4.284-17.143 17.14-17.143h25.716c12.857 0 17.143 4.286 17.143 17.143v68.57M111.43 180v30M98.57 210v68.57M124.286 278.57V210M94.286 210h34.285M81.43 167.143h60M111.43 162.857v4.286M42.857 162.857v98.572c0 8.57 0 17.14-10.714 17.14S21.43 270 21.43 261.43v-47.144"/>
        <path d="M21.43 162.857v12.857c0 12.857 4.284 17.143 17.14 17.143h8.573c12.857 0 17.143-4.286 17.143-17.143v-12.857M64.286 278.57v-51.427C64.286 214.286 60 210 47.143 210h-4.286M218.57 130.435h42.86c12.856 0 17.14-4.193 17.14-9.783s-4.284-9.782-17.14-9.782H240M218.57 110.87v78.26M278.57 172.36v-16.77c0-5.59-8.57-11.18-17.14-11.18-8.573 0-17.144 5.59-17.144 11.18v22.36c0 5.59 8.57 11.18 17.143 11.18h12.856M192.857 172.36v-16.77c0-5.59-8.57-11.18-17.143-11.18-8.57 0-17.143 5.59-17.143 11.18v22.36c0 5.59 8.573 11.18 17.144 11.18h12.857M158.57 130.435h17.144c12.857 0 17.143-4.193 17.143-9.783s-4.286-9.782-17.143-9.782H158.57M158.57 21.428h98.573c12.857 0 21.428 5.59 21.428 12.578 0 9.783-8.57 12.578-21.427 12.578H210c-12.857 0-21.43 5.59-21.43 13.975v39.13M158.57 99.69h120M188.57 68.944h90M158.57 200.31v16.77M184.286 233.85v44.72M184.286 200.31v11.18c0 16.77-25.715 13.976-25.715 33.54v33.54M248.57 214.286l30 13.975h-77.14L240 205.9v-5.59M201.43 205.9h77.14M201.43 239.44H210c4.286 0 8.57 2.796 8.57 5.59v8.386c0 2.795-4.284 5.59-8.57 5.59-4.286 0-8.57 2.795-8.57 5.59v8.385c0 2.796 4.284 5.59 8.57 5.59h8.57M231.43 239.44H240c4.286 0 8.57 2.796 8.57 5.59v8.386c0 2.795-4.284 5.59-8.57 5.59-4.286 0-8.57 2.795-8.57 5.59v8.385c0 2.796 4.284 5.59 8.57 5.59h8.57M261.43 239.44H270c4.286 0 8.57 2.796 8.57 5.59v8.386c0 2.795-4.284 5.59-8.57 5.59-4.286 0-8.57 2.795-8.57 5.59v8.385c0 2.796 4.284 5.59 8.57 5.59h8.57"/>
        <path d="M30 4.286C12.857 4.286 4.286 12.856 4.286 30v240c0 17.143 8.57 25.714 25.714 25.714h240c17.143 0 25.714-8.57 25.714-25.714V30c0-17.143-8.57-25.714-25.714-25.714H30z"/>
    </g>
</svg>
