<svg xmlns="http://www.w3.org/2000/svg" width="300" height="300">
    <g fill="none" stroke="#c80000" stroke-width="8.571" stroke-linecap="round" stroke-linejoin="round" stroke-dashoffset="55.5">
        <path d="M21.43 137.143v-90c0-12.857 0-25.714 15-25.714s15 12.856 15 25.713V120c0 17.143 4.284 21.43 21.427 21.43H90c12.857 0 17.143-4.287 17.143-17.144V111.43c0-17.144-4.286-17.144-12.857-17.144-8.572 0-12.857 0-12.857-8.572v-38.57c0-21.43 4.284-25.715 25.713-25.715h8.57c21.43 0 25.716 4.284 25.716 25.713v90M81.43 278.57V210c0-12.857 4.284-17.143 17.14-17.143h25.716c12.857 0 17.143 4.286 17.143 17.143v68.57M111.43 180v30M98.57 210v68.57M124.286 278.57V210M94.286 210h34.285M81.43 167.143h60M111.43 162.857v4.286M42.857 162.857v98.572c0 8.57 0 17.14-10.714 17.14S21.43 270 21.43 261.43v-47.144"/>
        <path d="M21.43 162.857v12.857c0 12.857 4.284 17.143 17.14 17.143h8.573c12.857 0 17.143-4.286 17.143-17.143v-12.857M64.286 278.57v-51.427C64.286 214.286 60 210 47.143 210h-4.286M158.57 49.38v50.31M158.57 21.428H210M158.57 35.404H210M184.286 35.404V99.69M210 49.38v50.31M278.57 99.69h-34.284c-12.857 0-17.143-2.796-17.143-11.18V60.56c0-8.386 4.286-11.18 17.143-11.18h17.143c12.856 0 17.14 2.794 17.14 11.18v5.59c0 8.384-4.284 11.18-17.14 11.18h-34.287M244.286 35.404c-8.572 0-17.143 0-17.143-6.988s8.57-6.988 17.143-6.988h17.143c8.57 0 17.14 0 17.14 6.988s-8.57 6.988-17.14 6.988h-17.144zM158.57 189.13v-30.745c0-11.18 8.573-16.77 25.716-16.77h68.57c17.144 0 25.715 5.59 25.715 16.77v30.745M175.714 152.795h85.715M218.57 141.615v-5.59"/>
        <path d="M175.714 161.18v16.77c0 8.385 4.286 11.18 17.143 11.18h51.43c12.856 0 17.142-2.795 17.142-11.18v-16.77M175.714 172.36h85.715M182.143 110.87v22.36M158.57 133.23c0-13.975 0-13.975 23.573-13.975 23.57 0 23.57 0 23.57 13.975M255 110.87v22.36M231.43 133.23c0-13.975 0-13.975 23.57-13.975s23.57 0 23.57 13.975M158.57 214.286h25.716M184.286 211.49v11.18c0 8.386-4.286 11.18-17.143 11.18h-8.572M158.57 245.03h25.716M184.286 242.236v11.18c0 8.385-4.286 11.18-17.143 11.18h-8.572"/>
        <path d="M184.286 200.31h-8.572c-12.857 0-17.143 2.796-17.143 11.18v67.08M218.57 278.57v-27.95c0-8.384 4.287-11.18 17.144-11.18h8.572c12.857 0 17.143 2.796 17.143 6.99 0 6.986-8.573 6.986-12.86 6.986-8.57 0-12.856 0-12.856 11.18v2.795c0 8.386 4.286 11.18 12.857 11.18 8.573 0 12.86-2.794 12.86-11.18v-5.59M240 239.44v-13.974M218.57 225.466h42.86"/>
        <path d="M201.43 278.57v-61.49c0-8.384 8.57-13.974 21.427-13.974h34.286c12.857 0 21.428 5.59 21.428 13.975v61.49M218.57 214.286h42.86M235.714 200.31h8.572"/>
        <path d="M30 4.286C12.857 4.286 4.286 12.856 4.286 30v240c0 17.143 8.57 25.714 25.714 25.714h240c17.143 0 25.714-8.57 25.714-25.714V30c0-17.143-8.57-25.714-25.714-25.714H30z"/>
    </g>
</svg>
