<svg xmlns:dc="http://purl.org/dc/elements/1.1/" xmlns:cc="http://creativecommons.org/ns#" xmlns:rdf="http://www.w3.org/1999/02/22-rdf-syntax-ns#" xmlns:svg="http://www.w3.org/2000/svg" xmlns="http://www.w3.org/2000/svg" xmlns:sodipodi="http://sodipodi.sourceforge.net/DTD/sodipodi-0.dtd" xmlns:inkscape="http://www.inkscape.org/namespaces/inkscape" width="300" height="300" id="svg2" version="1.1" inkscape:version="0.47 r22583" sodipodi:docname="KedÅin Symbol.svg">
    <defs id="defs4">
        <inkscape:perspective sodipodi:type="inkscape:persp3d" inkscape:vp_x="0 : 526.18109 : 1" inkscape:vp_y="0 : 1000 : 0" inkscape:vp_z="744.09448 : 526.18109 : 1" inkscape:persp3d-origin="372.04724 : 350.78739 : 1" id="perspective10"/>
        <inkscape:perspective id="perspective8716" inkscape:persp3d-origin="0.5 : 0.33333333 : 1" inkscape:vp_z="1 : 0.5 : 1" inkscape:vp_y="0 : 1000 : 0" inkscape:vp_x="0 : 0.5 : 1" sodipodi:type="inkscape:persp3d"/>
        <inkscape:perspective id="perspective8756" inkscape:persp3d-origin="0.5 : 0.33333333 : 1" inkscape:vp_z="1 : 0.5 : 1" inkscape:vp_y="0 : 1000 : 0" inkscape:vp_x="0 : 0.5 : 1" sodipodi:type="inkscape:persp3d"/>
        <inkscape:perspective id="perspective8789" inkscape:persp3d-origin="0.5 : 0.33333333 : 1" inkscape:vp_z="1 : 0.5 : 1" inkscape:vp_y="0 : 1000 : 0" inkscape:vp_x="0 : 0.5 : 1" sodipodi:type="inkscape:persp3d"/>
    </defs>
    <sodipodi:namedview id="base" pagecolor="#ffffff" bordercolor="#666666" borderopacity="1.0" inkscape:pageopacity="0.0" inkscape:pageshadow="2" inkscape:zoom="1.495" inkscape:cx="219.28276" inkscape:cy="107.44814" inkscape:document-units="px" inkscape:current-layer="layer1" showgrid="false" inkscape:window-width="1280" inkscape:window-height="940" inkscape:window-x="-8" inkscape:window-y="-8" inkscape:window-maximized="1"/>
    <metadata id="metadata7">
        <rdf:RDF>
            <cc:Work rdf:about="">
                <dc:format>image/svg+xml</dc:format>
                <dc:type rdf:resource="http://purl.org/dc/dcmitype/StillImage"/>
                <dc:title/>
            </cc:Work>
        </rdf:RDF>
    </metadata>
    <g inkscape:label="Layer 1" inkscape:groupmode="layer" id="layer1" transform="translate(-351.97683,-513.79196)">
        <path style="fill:none;stroke:#c80000;stroke-width:8.5714283;stroke-linecap:round;stroke-linejoin:round;stroke-miterlimit:4;stroke-opacity:1;stroke-dasharray:none;stroke-dashoffset:55.5000029" d="m 373.40541,650.93482 0,-90 c 0,-12.85716 0,-25.71428 15,-25.71428 15,0 15,12.85712 15,25.71428 l 0,72.85713 c 0,17.14287 4.28571,21.42858 21.42855,21.42858 l 17.14287,0 c 12.85713,0 17.14287,-4.28571 17.14287,-17.14287 l 0,-12.85713 c 0,-17.14287 -4.28574,-17.14287 -12.85716,-17.14287 -8.57142,0 -12.85713,0 -12.85713,-8.57142 l 0,-38.57142 c 0,-21.42857 4.28571,-25.71428 25.71429,-25.71428 l 8.57142,0 c 21.42858,0 25.71429,4.28571 25.71429,25.71428 l 0,90" id="path5576" sodipodi:nodetypes="cccccccccccccccc"/>
        <path style="fill:none;stroke:#c80000;stroke-width:8.5714283;stroke-linecap:round;stroke-linejoin:round;stroke-miterlimit:4;stroke-opacity:1;stroke-dasharray:none;stroke-dashoffset:55.5000029" d="m 433.40541,792.36337 0,-68.57142 c 0,-12.85713 4.28571,-17.14287 17.14284,-17.14287 l 25.71429,0 c 12.85716,0 17.14287,4.28574 17.14287,17.14287 l 0,68.57142" id="path5574" sodipodi:nodetypes="cccccc"/>
        <path style="fill:none;stroke:#c80000;stroke-width:8.5714283;stroke-linecap:round;stroke-linejoin:round;stroke-miterlimit:4;stroke-opacity:1;stroke-dasharray:none;stroke-dashoffset:55.5000029" d="m 463.40541,693.79195 0,30" id="path5578"/>
        <path style="fill:none;stroke:#c80000;stroke-width:8.5714283;stroke-linecap:round;stroke-linejoin:round;stroke-miterlimit:4;stroke-opacity:1;stroke-dasharray:none;stroke-dashoffset:55.5000029" d="m 450.54825,723.79195 0,68.57142" id="path5580" sodipodi:nodetypes="cc"/>
        <path style="fill:none;stroke:#c80000;stroke-width:8.5714283;stroke-linecap:round;stroke-linejoin:round;stroke-miterlimit:4;stroke-opacity:1;stroke-dasharray:none;stroke-dashoffset:55.5000029" d="m 476.26254,792.36337 0,-68.57142" id="path5582"/>
        <path style="fill:none;stroke:#c80000;stroke-width:8.5714283;stroke-linecap:round;stroke-linejoin:round;stroke-miterlimit:4;stroke-opacity:1;stroke-dasharray:none;stroke-dashoffset:55.5000029" d="m 446.26254,723.79195 34.28571,0" id="path5584" sodipodi:nodetypes="cc"/>
        <path style="fill:none;stroke:#c80000;stroke-width:8.5714283;stroke-linecap:round;stroke-linejoin:round;stroke-miterlimit:4;stroke-opacity:1;stroke-dasharray:none;stroke-dashoffset:55.5000029" d="m 433.40541,680.93482 60,0" id="path5586" sodipodi:nodetypes="cc"/>
        <path style="fill:none;stroke:#c80000;stroke-width:8.5714283;stroke-linecap:round;stroke-linejoin:round;stroke-miterlimit:4;stroke-opacity:1;stroke-dasharray:none;stroke-dashoffset:55.5000029" d="m 463.40541,676.64908 0,4.28574" id="path5588" sodipodi:nodetypes="cc"/>
        <path style="fill:none;stroke:#c80000;stroke-width:8.5714283;stroke-linecap:round;stroke-linejoin:round;stroke-miterlimit:4;stroke-opacity:1;stroke-dasharray:none;stroke-dashoffset:55.5000029" d="m 394.83396,676.64908 0,98.57145 c 0,8.57142 0,17.14284 -10.71426,17.14284 -10.71429,0 -10.71429,-8.57142 -10.71429,-17.14284 l 0,-47.14287" id="path5590" sodipodi:nodetypes="ccccc"/>
        <path style="fill:none;stroke:#c80000;stroke-width:8.5714283;stroke-linecap:round;stroke-linejoin:round;stroke-miterlimit:4;stroke-opacity:1;stroke-dasharray:none;stroke-dashoffset:55.5000029" d="m 373.40541,676.64908 0,12.85716 c 0,12.85713 4.28571,17.14284 17.14284,17.14284 l 8.57145,0 c 12.85713,0 17.14284,-4.28571 17.14284,-17.14284 l 0,-12.85716" id="path5592" sodipodi:nodetypes="cccccc"/>
        <path style="fill:none;stroke:#c80000;stroke-width:8.5714283;stroke-linecap:round;stroke-linejoin:round;stroke-miterlimit:4;stroke-opacity:1;stroke-dasharray:none;stroke-dashoffset:55.5000029" d="m 416.26254,792.36337 0,-51.42855 c 0,-12.85716 -4.28571,-17.14287 -17.14284,-17.14287 l -4.28574,0" id="path5594" sodipodi:nodetypes="cccc"/>
        <path style="fill:none;stroke:#c80000;stroke-width:8.5714283;stroke-linecap:round;stroke-linejoin:round;stroke-miterlimit:4;stroke-opacity:1;stroke-dasharray:none;stroke-dashoffset:55.5000029" d="m 510.54825,563.17075 0,50.31057" id="path4383"/>
        <path style="fill:none;stroke:#c80000;stroke-width:8.5714283;stroke-linecap:round;stroke-linejoin:round;stroke-miterlimit:4;stroke-opacity:1;stroke-dasharray:none;stroke-dashoffset:55.5000029" d="m 510.54825,535.22042 51.42858,0" id="path4385"/>
        <path style="fill:none;stroke:#c80000;stroke-width:8.5714283;stroke-linecap:round;stroke-linejoin:round;stroke-miterlimit:4;stroke-opacity:1;stroke-dasharray:none;stroke-dashoffset:55.5000029" d="m 510.54825,549.19558 51.42858,0" id="path4387"/>
        <path style="fill:none;stroke:#c80000;stroke-width:8.5714283;stroke-linecap:round;stroke-linejoin:round;stroke-miterlimit:4;stroke-opacity:1;stroke-dasharray:none;stroke-dashoffset:55.5000029" d="m 536.26254,549.19558 0,64.28574" id="path4389"/>
        <path style="fill:none;stroke:#c80000;stroke-width:8.5714283;stroke-linecap:round;stroke-linejoin:round;stroke-miterlimit:4;stroke-opacity:1;stroke-dasharray:none;stroke-dashoffset:55.5000029" d="m 561.97683,563.17075 0,50.31057" id="path4391"/>
        <path style="fill:none;stroke:#c80000;stroke-width:8.5714283;stroke-linecap:round;stroke-linejoin:round;stroke-miterlimit:4;stroke-opacity:1;stroke-dasharray:none;stroke-dashoffset:55.5000029" d="m 630.54824,613.48132 -34.2857,0 c -12.85713,0 -17.14284,-2.79504 -17.14284,-11.18013 l 0,-27.95031 c 0,-8.38512 4.28571,-11.18013 17.14284,-11.18013 l 17.14287,0 c 12.85712,0 17.14283,2.79501 17.14283,11.18013 l 0,5.59005 c 0,8.38509 -4.28571,11.18013 -17.14283,11.18013 l -34.28571,0" id="path3136" sodipodi:nodetypes="cccccccccc"/>
        <path style="fill:none;stroke:#c80000;stroke-width:8.5714283;stroke-linecap:round;stroke-linejoin:round;stroke-miterlimit:4;stroke-opacity:1;stroke-dasharray:none;stroke-dashoffset:55.5000029" d="m 596.26254,549.19558 c -8.57142,0 -17.14284,0 -17.14284,-6.98756 0,-6.9876 8.57142,-6.9876 17.14284,-6.9876 l 17.14287,0 c 8.57142,0 17.14283,0 17.14283,6.9876 0,6.98756 -8.57141,6.98756 -17.14283,6.98756 l -17.14287,0 z" id="path3138" sodipodi:nodetypes="ccccccc"/>
        <path style="fill:none;stroke:#c80000;stroke-width:8.5714283;stroke-linecap:round;stroke-linejoin:round;stroke-miterlimit:4;stroke-opacity:1;stroke-dasharray:none;stroke-dashoffset:55.5000029" d="m 510.54825,702.92233 0,-30.74535 c 0,-11.18013 8.57145,-16.77018 25.71429,-16.77018 l 68.57142,0 c 17.14287,0 25.71428,5.59005 25.71428,16.77018 l 0,30.74535" id="path3398" sodipodi:nodetypes="cccccc"/>
        <path style="fill:none;stroke:#c80000;stroke-width:8.5714283;stroke-linecap:round;stroke-linejoin:round;stroke-miterlimit:4;stroke-opacity:1;stroke-dasharray:none;stroke-dashoffset:55.5000029" d="m 527.69112,666.58693 85.71429,0" id="path4172"/>
        <path style="fill:none;stroke:#c80000;stroke-width:8.5714283;stroke-linecap:round;stroke-linejoin:round;stroke-miterlimit:4;stroke-opacity:1;stroke-dasharray:none;stroke-dashoffset:55.5000029" d="m 570.54825,655.4068 0,-5.59008" id="path4174"/>
        <path style="fill:none;stroke:#c80000;stroke-width:8.5714283;stroke-linecap:round;stroke-linejoin:round;stroke-miterlimit:4;stroke-opacity:1;stroke-dasharray:none;stroke-dashoffset:55.5000029" d="m 527.69112,674.97202 0,16.77018 c 0,8.38512 4.28571,11.18013 17.14284,11.18013 l 51.42858,0 c 12.85716,0 17.14287,-2.79501 17.14287,-11.18013 l 0,-16.77018" id="path4176" sodipodi:nodetypes="cccccc"/>
        <path style="fill:none;stroke:#c80000;stroke-width:8.5714283;stroke-linecap:round;stroke-linejoin:round;stroke-miterlimit:4;stroke-opacity:1;stroke-dasharray:none;stroke-dashoffset:55.5000029" d="m 527.69112,686.15215 85.71429,0" id="path4178"/>
        <path style="fill:none;stroke:#c80000;stroke-width:8.5714283;stroke-linecap:round;stroke-linejoin:round;stroke-miterlimit:4;stroke-opacity:1;stroke-dasharray:none;stroke-dashoffset:55.5000029" d="m 534.1197,624.66145 0,22.36026" id="path4292" sodipodi:nodetypes="cc"/>
        <path style="fill:none;stroke:#c80000;stroke-width:8.5714283;stroke-linecap:round;stroke-linejoin:round;stroke-miterlimit:4;stroke-opacity:1;stroke-dasharray:none;stroke-dashoffset:55.5000029" d="m 510.54825,647.02171 c 0,-13.97517 0,-13.97517 23.57145,-13.97517 23.57142,0 23.57142,0 23.57142,13.97517" id="path4294" sodipodi:nodetypes="ccc"/>
        <path sodipodi:nodetypes="cc" id="path4296" d="m 606.97683,624.66145 0,22.36026" style="fill:none;stroke:#c80000;stroke-width:8.5714283;stroke-linecap:round;stroke-linejoin:round;stroke-miterlimit:4;stroke-opacity:1;stroke-dasharray:none;stroke-dashoffset:55.5000029"/>
        <path sodipodi:nodetypes="ccc" id="path4298" d="m 583.40541,647.02171 c 0,-13.97517 0,-13.97517 23.57142,-13.97517 23.57141,0 23.57141,0 23.57141,13.97517" style="fill:none;stroke:#c80000;stroke-width:8.5714283;stroke-linecap:round;stroke-linejoin:round;stroke-miterlimit:4;stroke-opacity:1;stroke-dasharray:none;stroke-dashoffset:55.5000029"/>
        <path style="fill:none;stroke:#c80000;stroke-width:8.5714283;stroke-linecap:round;stroke-linejoin:round;stroke-miterlimit:4;stroke-opacity:1;stroke-dasharray:none;stroke-dashoffset:55.5000029" d="m 510.54825,728.07766 25.71429,0" id="path4453"/>
        <path style="fill:none;stroke:#c80000;stroke-width:8.5714283;stroke-linecap:round;stroke-linejoin:round;stroke-miterlimit:4;stroke-opacity:1;stroke-dasharray:none;stroke-dashoffset:55.5000029" d="m 536.26254,725.28262 0,11.18013 c 0,8.38509 -4.28571,11.18013 -17.14284,11.18013 l -8.57145,0" id="path4456" sodipodi:nodetypes="cccc"/>
        <path id="path4464" d="m 510.54825,758.82301 25.71429,0" style="fill:none;stroke:#c80000;stroke-width:8.5714283;stroke-linecap:round;stroke-linejoin:round;stroke-miterlimit:4;stroke-opacity:1;stroke-dasharray:none;stroke-dashoffset:55.5000029"/>
        <path sodipodi:nodetypes="cccc" id="path4466" d="m 536.26254,756.02797 0,11.18013 c 0,8.38509 -4.28571,11.18013 -17.14284,11.18013 l -8.57145,0" style="fill:none;stroke:#c80000;stroke-width:8.5714283;stroke-linecap:round;stroke-linejoin:round;stroke-miterlimit:4;stroke-opacity:1;stroke-dasharray:none;stroke-dashoffset:55.5000029"/>
        <path style="fill:none;stroke:#c80000;stroke-width:8.5714283;stroke-linecap:round;stroke-linejoin:round;stroke-miterlimit:4;stroke-opacity:1;stroke-dasharray:none;stroke-dashoffset:55.5000029" d="m 536.26254,714.10249 -8.57142,0 c -12.85716,0 -17.14287,2.79504 -17.14287,11.18013 l 0,67.08075" id="path4486" sodipodi:nodetypes="cccc"/>
        <path style="fill:none;stroke:#c80000;stroke-width:8.5714283;stroke-linecap:round;stroke-linejoin:round;stroke-miterlimit:4;stroke-opacity:1;stroke-dasharray:none;stroke-dashoffset:55.5000029" d="m 570.54825,792.36337 0,-27.95031 c 0,-8.38509 4.28571,-11.18013 17.14287,-11.18013 l 8.57142,0 c 12.85716,0 17.14287,2.79504 17.14287,6.9876 0,6.98757 -8.57145,6.98757 -12.85716,6.98757 -8.57142,0 -12.85713,0 -12.85713,11.18013 l 0,2.79501 c 0,8.38512 4.28571,11.18013 12.85713,11.18013 8.57145,0 12.85716,-2.79501 12.85716,-11.18013 l 0,-5.59005" id="path4619" sodipodi:nodetypes="ccccccccccc"/>
        <path style="fill:none;stroke:#c80000;stroke-width:8.5714283;stroke-linecap:round;stroke-linejoin:round;stroke-miterlimit:4;stroke-opacity:1;stroke-dasharray:none;stroke-dashoffset:55.5000029" d="m 591.97683,753.23293 0,-13.97517" id="path4713"/>
        <path style="fill:none;stroke:#c80000;stroke-width:8.5714283;stroke-linecap:round;stroke-linejoin:round;stroke-miterlimit:4;stroke-opacity:1;stroke-dasharray:none;stroke-dashoffset:55.5000029" d="m 570.54825,739.25776 42.85716,0" id="path4727"/>
        <path style="fill:none;stroke:#c80000;stroke-width:8.5714283;stroke-linecap:round;stroke-linejoin:round;stroke-miterlimit:4;stroke-opacity:1;stroke-dasharray:none;stroke-dashoffset:55.5000029" d="m 553.40541,792.36337 0,-61.49067 c 0,-8.38512 8.57142,-13.97517 21.42855,-13.97517 l 34.28574,0 c 12.85713,0 21.42854,5.59005 21.42854,13.97517 l 0,61.49067" id="path4731" sodipodi:nodetypes="cccccc"/>
        <path id="path4745" d="m 570.54825,728.07766 42.85716,0" style="fill:none;stroke:#c80000;stroke-width:8.5714283;stroke-linecap:round;stroke-linejoin:round;stroke-miterlimit:4;stroke-opacity:1;stroke-dasharray:none;stroke-dashoffset:55.5000029"/>
        <path style="fill:none;stroke:#c80000;stroke-width:8.5714283;stroke-linecap:round;stroke-linejoin:round;stroke-miterlimit:4;stroke-opacity:1;stroke-dasharray:none;stroke-dashoffset:55.5000029" d="m 587.69112,714.10249 8.57142,0" id="path4797"/>
        <path sodipodi:nodetypes="ccccccccc" id="path8125" d="m 381.97683,518.07767 c -17.14287,0 -25.71429,8.57142 -25.71429,25.71428 l 0,240 c 0,17.14287 8.57142,25.71429 25.71429,25.71429 l 240,0 c 17.14286,0 25.71428,-8.57142 25.71428,-25.71429 l 0,-240 c 0,-17.14286 -8.57142,-25.71428 -25.71428,-25.71428 l -240,0 z" style="fill:none;stroke:#c80000;stroke-width:8.5714283;stroke-linecap:round;stroke-linejoin:round;stroke-miterlimit:4;stroke-opacity:1;stroke-dasharray:none;stroke-dashoffset:55.5000029"/>
    </g>
</svg>