<svg xmlns="http://www.w3.org/2000/svg" width="100" height="100">
    <path d="M24.057 6.685C7.473 16.608-1.258 35.24.147 53.79 1.814 44.6 7.19 36.198 15.62 31.155c15.33-9.174 34.933-3.73 43.784 12.16l30.33-18.39C76.456 1.09 47.05-7.076 24.056 6.684z"/>
    <path d="M89.728 24.917c5.31 9.533 2.16 21.724-7.04 27.228-9.198 5.505-20.96 2.238-26.27-7.296-5.31-9.534-2.16-21.725 7.04-27.23 9.197-5.503 20.96-2.237 26.27 7.297z"/>
    <g>
        <path d="M75.943 93.315c16.584-9.923 25.315-28.556 23.91-47.106-1.667 9.19-7.044 17.593-15.472 22.636-15.33 9.174-34.933 3.73-43.784-12.16l-30.33 18.39c13.277 23.834 42.682 32 65.677 18.24z"/>
        <path d="M10.272 75.083c-5.31-9.533-2.16-21.724 7.04-27.228 9.198-5.505 20.96-2.238 26.27 7.296 5.31 9.534 2.16 21.725-7.04 27.23-9.197 5.503-20.96 2.237-26.27-7.297z"/>
    </g>
</svg>
