<svg xmlns="http://www.w3.org/2000/svg" width="100" height="200" version="1">
    <g fill="#fff" stroke="#000" stroke-width="3.529" stroke-linejoin="round">
        <path d="M47.598 167.09c.034-6.962-4.587-12.316-5.012-12.784 8.696 4.03 14.455 11.588 14.45 20.213m0 .02c-.023 13.1-13.34 23.715-29.722 23.696-16.383-.02-25.573-13.496-25.55-26.595.503-16.846 15.742-26.265 29.557-33.26 46.765-23.68 61.882-48.257 64.895-67.04 11.952 50.614-32.135 65.956-52.933 71.9-11.087 2.613-26.726 12.163-27.236 24.17-1.414 8.356 6.138 17.104 15.168 17.118 9.03.014 16.37-7.79 16.384-17.42" stroke-linecap="round"/>
        <path d="M91.822 34.625c15.53 32.843-26.325 69.377-51.226 79.77 19.202-17.22 44.453-52.864 51.226-79.77z" fill-rule="evenodd"/>
        <path d="M79.37 1.764C97.003 31.774 62.928 77.51 39.662 88.61 57.462 65.96 75.4 28.433 79.37 1.763z" fill-rule="evenodd"/>
    </g>
</svg>
