<svg xmlns="http://www.w3.org/2000/svg" width="100" height="100">
    <g fill="none" stroke="#000" stroke-linejoin="round">
        <path transform="matrix(.89738 0 0 .90014 -169.995 -197.538)" d="M295 275c0 27.614-22.386 50-50 50s-50-22.386-50-50 22.386-50 50-50 50 22.386 50 50z" stroke-width="11.111" stroke-linecap="round"/>
        <path d="M88.72 27.523C80.524 37.545 72.868 44.32 49.863 50.026c-23.005 5.707-30.66 12.482-38.857 22.504M75.063 8.642C66.867 18.664 59.21 25.438 36.205 31.145c-15.882 3.94-24.45 8.39-30.928 14.064M95.007 54.347C88.46 60.26 79.863 64.853 63.52 68.907c-23.004 5.707-30.66 12.48-38.857 22.504M49.567 72.478v22.528M56.163 25.728l-.65-20.38M39.112 29.802v22.296" stroke-width="9.986"/>
    </g>
</svg>
