<svg xmlns="http://www.w3.org/2000/svg" version="1" width="142.667" height="137.333" viewBox="0 0 107.000000 103.000000">
    <path d="M53.5 1.4c-35.8 8.2-52 47.1-31.8 76.4C34 95.7 59.8 104.1 81.8 97.5c4.5-1.4 5.3-1.9 5-3.8-.2-1.8-1.6-2.5-7.1-3.9C65.6 86.1 55.1 78 49.4 66.5c-2.6-5.5-2.9-6.9-2.9-16.5s.3-11 2.9-16.5C55.1 22 65.6 13.9 79.7 10.2c5.5-1.4 6.9-2.1 7.1-3.9.3-1.9-.5-2.4-5-3.8C74.5.2 60.9-.3 53.5 1.4zm12 7.9C52.7 16.1 43.2 29.1 40.8 43c-3.2 18.6 7 38.2 24.7 47.7l6 3.2H65c-22.9.1-42.1-15.5-46.1-37.3-3.3-17.5 7.4-37.4 24.4-45.5 8.1-3.9 12.4-4.9 21.2-5h7l-6 3.2z"/>
    <path d="M67.6 29.4C59 32.6 52 41.5 52 49.2c0 7.7 4.8 15 12.5 19.1 5.6 3 17.4 3 23 0 16.5-8.8 16.5-29.1 0-37.5-5.1-2.6-14.7-3.3-19.9-1.4zm14.9 4.7c4.8 1.3 11 7.5 12 11.9 2.3 10.3-6.7 20-18.5 20-12.9 0-22.4-12.1-17.5-22.4 4-8.4 13.8-12.3 24-9.5z"/>
</svg>
