<svg xmlns="http://www.w3.org/2000/svg" version="1.0" width="107.000000pt" height="103.000000pt" viewBox="0 0 107.000000 103.000000" preserveAspectRatio="xMidYMid meet">
    <g transform="translate(0.000000,103.000000) scale(0.100000,-0.100000)" fill="#000000" stroke="none">
        <path d="M535 1016 c-358 -82 -520 -471 -318 -764 123 -179 381 -263 601 -197 45 14 53 19 50 38 -2 18 -16 25 -71 39 -141 37 -246 118 -303 233 -26 55 -29 69 -29 165 0 96 3 110 29 165 57 115 162 196 303 233 55 14 69 21 71 39 3 19 -5 24 -50 38 -73 23 -209 28 -283 11z m120 -79 c-128 -68 -223 -198 -247 -337 -32 -186 70 -382 247 -477 l60 -32 -65 0 c-229 -1 -421 155 -461 373 -33 175 74 374 244 455 81 39 124 49 212 50 l70 0 -60 -32z"/>
        <path d="M676 736 c-86 -32 -156 -121 -156 -198 0 -77 48 -150 125 -191 56 -30 174 -30 230 0 165 88 165 291 0 375 -51 26 -147 33 -199 14z m149 -47 c48 -13 110 -75 120 -119 23 -103 -67 -200 -185 -200 -129 0 -224 121 -175 224 40 84 138 123 240 95z"/>
    </g>
</svg>