<svg xmlns="http://www.w3.org/2000/svg" width="300" height="300" viewBox="0 0 300.00001 300.00001"><g transform="translate(0 -752.362)" stroke="#000"><ellipse cx="149.701" cy="900.497" rx="140.675" ry="140.307" fill="#806600" stroke-width="10" stroke-miterlimit="1"/><path d="M230.902 162.536l39.258-332.804L524.556 44.674l263.087-207.568 27.898 331.872 332.805 39.258-214.943 254.396L1140.97 725.72l-331.872 27.897-39.258 332.804-254.396-214.94-263.087 207.567-27.898-331.872-332.805-39.26 214.943-254.394-207.568-263.087z" transform="matrix(-.18016 .07865 -.079 -.18218 280.514 940.904)" fill="#554419" stroke-width="40.491"/><path d="M168.263 143.713l-26.618-.37-18.044 19.57-18.558-19.083-26.6 1.08.372-26.618-19.572-18.044 19.084-18.56-1.08-26.598 26.618.37 18.044-19.57 18.56 19.083 26.598-1.08-.37 26.617 19.57 18.044-19.083 18.56z" transform="matrix(.4022 -.91152 .9021 .37856 11.443 971.727)" fill="#adad44" stroke-width="3.039" stroke-linejoin="bevel" stroke-miterlimit="1"/><path d="M168.862 164.072l-12.424-.105-8.957 8.61-8.71-8.86-12.423-.244.106-12.424-8.61-8.958 8.858-8.71.246-12.424 12.425.105 8.958-8.61 8.71 8.86 12.423.244-.104 12.424 8.61 8.958-8.86 8.71z" transform="matrix(1.56023 -.01432 .01544 1.53503 -82.08 680.723)" fill="none" stroke-width="1.322" stroke-linejoin="bevel" stroke-miterlimit="1"/><path d="M183.812 897.572a32.615 33.214 0 0 1-32.57 33.213 32.615 33.214 0 0 1-32.66-33.12 32.615 33.214 0 0 1 32.48-33.307 32.615 33.214 0 0 1 32.75 33.03l-32.614.184z" stroke-width="3.04" stroke-linejoin="bevel" stroke-miterlimit="1"/></g></svg>