<svg xmlns:dc="http://purl.org/dc/elements/1.1/" xmlns:cc="http://creativecommons.org/ns#" xmlns:rdf="http://www.w3.org/1999/02/22-rdf-syntax-ns#" xmlns:svg="http://www.w3.org/2000/svg" xmlns="http://www.w3.org/2000/svg" xmlns:sodipodi="http://sodipodi.sourceforge.net/DTD/sodipodi-0.dtd" xmlns:inkscape="http://www.inkscape.org/namespaces/inkscape" width="100" height="100" preserveAspectRatio="xMidYMid meet" id="svg5340" version="1.1" inkscape:version="0.91 r13725" sodipodi:docname="Clã Dragão.svg">
    <sodipodi:namedview pagecolor="#ffffff" bordercolor="#666666" borderopacity="1" objecttolerance="10" gridtolerance="10" guidetolerance="10" inkscape:pageopacity="0" inkscape:pageshadow="2" inkscape:window-width="1280" inkscape:window-height="737" id="namedview5391" showgrid="false" inkscape:zoom="5.3915097" inkscape:cx="40.236856" inkscape:cy="49.132903" inkscape:window-x="-8" inkscape:window-y="-8" inkscape:window-maximized="1" inkscape:current-layer="svg_36"/>
    <metadata id="metadata5342">Created by Lukas Pessoa Dantas<rdf:RDF>
        <cc:Work rdf:about="">
            <dc:format>image/svg+xml</dc:format>
            <dc:type rdf:resource="http://purl.org/dc/dcmitype/StillImage"/>
            <dc:title/>
        </cc:Work>
    </rdf:RDF>
    </metadata>
    <defs id="defs5344">
        <radialGradient id="svg_5" cx="0.5" cy="0.5" r="0.5">
            <stop offset="0" stop-color="#ff0000" id="stop5347"/>
            <stop offset="1" stop-color="#ffff00" id="stop5349"/>
        </radialGradient>
        <radialGradient id="svg_6" cx="0.5" cy="0.5" r="0.5">
            <stop offset="0" stop-color="#ff0000" id="stop5352"/>
            <stop offset="1" stop-color="#ffff00" id="stop5354"/>
        </radialGradient>
    </defs>
    <g id="g5356" transform="matrix(0.16009977,0,0,0.16405613,0.30345869,1.4616139)">
        <title id="title5358">Layer 1</title>
        <metadata id="metadata5360">Created by potrace 1.12, written by Peter Selinger 2001-2015</metadata>
        <g id="svg_36">
            <ellipse stroke-linejoin="null" stroke-linecap="null" cx="459.66669" cy="467" id="svg_13" rx="118.80759" ry="86.037918" transform="matrix(0.81530431,-0.57903272,0.57903272,0.81530431,-185.5098,352.41493)" style="fill:#63dbb5;stroke:#000000;stroke-width:0"/>
            <ellipse stroke-linejoin="null" stroke-linecap="null" cx="490.33334" cy="174" rx="96.666672" ry="78" id="svg_12" style="fill:#63dbb5;stroke:#000000;stroke-width:0"/>
            <ellipse stroke-linejoin="null" stroke-linecap="null" cx="175" cy="124.66667" id="svg_11" rx="96.666672" ry="78" style="fill:#63dbb5;stroke:#000000;stroke-width:0"/>
            <ellipse stroke-linejoin="null" stroke-linecap="null" cx="310.5" cy="301" id="svg_10" rx="305" ry="295" style="fill:#63dbb5;stroke:#000000;stroke-width:0"/>
            <ellipse stroke-linejoin="null" stroke-linecap="null" cx="314" cy="302.5" id="svg_7" rx="232.99998" ry="228.50002" style="fill:#2f6651;stroke:#000000;stroke-width:0"/>
            <ellipse stroke-linejoin="null" stroke-linecap="null" cx="525.5" cy="309.12308" rx="61.5" ry="66.123077" id="svg_9" style="fill:#5ed0ac;stroke:#000000;stroke-width:0"/>
            <ellipse stroke-linejoin="null" stroke-linecap="null" cx="100.5" cy="291.12308" id="svg_8" rx="61.5" ry="66.123077" style="fill:#5ed0ac;stroke:#63dbb5;stroke-width:0"/>
            <g transform="matrix(0.1,0,0,-0.1,0,602)" id="svg_3" style="fill:#000000">
                <path d="M 2770,6009 C 2500,5984 2261,5938 2020,5863 1247,5624 734,5197 400,4515 234,4179 130,3825 85,3455 76,3384 64,3298 58,3265 52,3232 46,3188 45,3167 43,3146 36,3099 28,3062 19,3016 15,2919 16,2750 16,2528 19,2493 43,2370 105,2051 224,1741 390,1462 667,996 1172,567 1748,306 2352,32 3030,-59 3710,40 c 456,67 944,246 1280,471 361,241 643,571 850,994 166,336 270,690 315,1060 9,72 20,157 26,190 19,111 20,139 25,478 5,312 4,347 -15,446 -55,287 -180,609 -341,879 -277,466 -782,895 -1358,1156 -309,140 -649,235 -1002,281 -151,19 -571,28 -720,14 z m 670,-114 c 652,-83 1245,-335 1749,-744 466,-377 785,-922 908,-1551 24,-120 27,-158 27,-345 -1,-168 -4,-221 -17,-265 -10,-30 -19,-68 -21,-85 -6,-51 -61,-181 -110,-259 -64,-102 -154,-184 -265,-239 -112,-57 -256,-92 -341,-84 -33,3 -60,1 -60,-4 0,-12 -120,-11 -200,2 -77,12 -172,55 -217,97 -75,70 -150,215 -199,379 -29,100 -28,157 7,303 55,228 164,351 353,400 95,24 154,25 272,5 95,-17 156,-45 186,-85 26,-36 108,-259 122,-331 7,-39 -13,-107 -60,-203 -57,-117 -170,-181 -274,-156 -124,30 -210,122 -195,208 7,41 69,152 86,152 5,0 19,-21 30,-47 12,-27 25,-55 29,-63 4,-9 24,-16 48,-18 l 42,-3 -6,48 c -11,87 -25,126 -59,160 -28,28 -40,33 -79,33 -38,0 -52,-6 -83,-34 -21,-19 -53,-60 -72,-91 -30,-50 -35,-67 -39,-140 -4,-71 -1,-90 17,-129 28,-57 97,-121 169,-154 50,-24 70,-27 157,-27 123,0 172,19 249,99 130,136 196,387 183,700 -10,231 -57,424 -148,615 -49,101 -226,366 -345,516 -126,158 -434,463 -574,567 -344,256 -700,407 -1122,475 -160,25 -666,26 -848,0 C 2244,5527 1813,5378 1461,5155 952,4832 549,4344 259,3700 c -21,-47 -39,-78 -39,-69 0,25 66,287 100,394 48,151 115,316 187,459 247,493 581,837 1038,1068 390,197 809,314 1275,357 139,13 464,5 620,-14 z m 105,-399 c 416,-67 774,-219 1115,-474 138,-103 400,-362 523,-517 120,-150 297,-415 346,-516 84,-176 137,-384 146,-578 l 5,-106 -23,66 c -37,108 -84,163 -180,211 -25,13 -35,32 -73,149 -54,163 -168,397 -263,539 -330,497 -861,868 -1436,1003 -214,51 -320,62 -590,62 -270,0 -376,-11 -590,-62 -318,-75 -633,-226 -910,-436 -177,-136 -393,-367 -523,-562 -70,-105 -203,-358 -223,-424 -12,-39 -12,-39 -73,-46 -142,-16 -309,-74 -399,-137 -16,-11 -30,-18 -33,-16 -5,6 96,213 166,338 516,921 1281,1404 2415,1524 93,9 503,-3 600,-18 z m -105,-281 c 255,-39 476,-107 705,-219 466,-228 801,-557 1030,-1011 63,-125 145,-327 145,-358 0,-9 -32,-11 -115,-9 -205,6 -328,-41 -450,-170 -110,-115 -170,-280 -182,-493 -5,-95 -3,-121 16,-190 35,-124 77,-222 137,-312 116,-175 248,-243 472,-243 87,0 87,13 3,-165 C 5085,1801 4952,1611 4765,1424 4579,1237 4394,1106 4145,984 3806,819 3491,746 3115,746 c -376,0 -691,73 -1030,238 -378,185 -670,438 -893,771 -113,169 -229,414 -286,605 l -14,46 127,-4 c 219,-7 341,38 466,170 110,115 170,280 182,493 5,95 3,121 -16,190 -70,254 -198,439 -352,509 -63,29 -156,46 -251,46 -52,0 -68,3 -68,14 0,27 145,301 212,401 223,333 515,586 893,771 272,132 526,203 860,238 81,8 393,-4 495,-19 z M 1130,3699 c 77,-12 172,-55 217,-97 75,-70 150,-215 199,-379 29,-100 28,-157 -7,-303 -55,-228 -164,-351 -353,-400 -95,-24 -154,-25 -272,-5 -95,17 -156,45 -186,85 -26,36 -108,259 -122,331 -7,39 13,107 60,203 57,117 170,181 274,156 124,-30 210,-122 195,-208 -7,-41 -69,-152 -86,-152 -5,0 -19,21 -30,48 -12,26 -25,54 -29,62 -4,9 -24,16 -48,18 l -42,3 6,-48 c 11,-87 25,-126 59,-160 28,-28 40,-33 79,-33 38,0 52,6 83,34 21,19 53,60 72,91 30,50 35,67 39,140 4,71 1,90 -17,129 -28,57 -97,121 -169,154 -50,24 -70,27 -157,27 -123,0 -172,-19 -249,-99 -130,-136 -196,-387 -183,-700 10,-231 57,-424 148,-615 49,-101 226,-366 345,-516 126,-158 434,-463 574,-567 344,-256 700,-407 1122,-475 160,-25 666,-26 848,0 496,70 927,219 1279,442 509,323 912,811 1202,1455 21,47 39,78 39,69 0,-8 -15,-78 -34,-155 C 5806,1504 5451,953 4940,611 4451,284 3696,78 3080,104 2330,135 1630,399 1051,869 585,1246 266,1791 143,2420 c -24,120 -27,158 -27,345 1,171 4,220 18,265 9,30 21,75 26,100 12,66 53,163 105,245 133,213 379,332 695,334 58,0 134,-4 170,-10 z M 634,2541 c 24,-34 95,-92 127,-103 4,-2 22,-50 39,-107 187,-631 633,-1152 1235,-1447 232,-113 447,-179 715,-221 162,-25 568,-25 730,0 518,80 961,297 1323,646 248,240 441,524 557,817 l 32,82 78,11 c 147,22 285,71 373,133 16,11 30,18 33,16 5,-6 -96,-213 -166,-338 C 5220,1154 4492,668 3450,523 c -179,-25 -591,-25 -748,0 -422,68 -778,219 -1122,475 -138,103 -400,362 -523,517 -120,150 -297,415 -346,516 -84,176 -137,384 -146,578 l -5,106 23,-66 c 12,-37 35,-85 51,-108 z" id="svg_4" inkscape:connector-curvature="0" style="stroke-width:13"/>
            </g>
            <path stroke-linejoin="null" stroke-linecap="null" id="svg_20" d="m -122,219 c 9,5 23.5723,7.23383 54,41 2.41366,2.67847 6.18834,6.94366 7,10 1.30875,4.92819 3.82443,7.0979 5,9 0.52573,0.85065 2,3 3,3 l 0,1" inkscape:connector-curvature="0" style="fill:none;stroke:#000000;stroke-width:0"/>
            <path stroke-linejoin="null" stroke-linecap="null" id="svg_21" d="m 167,188 c 0,0 -0.69344,-0.4588 -2,-1 -0.92387,-0.38269 -1,-1 -2,-2 -1,-1 -2.02675,-0.77025 -3,-1 -2.17625,-0.51375 -2.61731,-1.07613 -3,-2 -0.5412,-1.30656 -2,-1 -2,0 0,1 -0.29289,1.29289 -1,2 l -2,2 c -0.70711,0.70711 -1.61731,1.07613 -2,2 -0.5412,1.30656 -1,2 -1,3 0,1 -0.4588,1.69344 -1,3 -0.38269,0.92387 0,2 0,3 0,1 -0.23463,2.15224 -1,4 -0.5412,1.30656 -1.29289,1.29289 -2,2 -0.70711,0.70711 0.70711,2.29289 0,3 -0.70711,0.70711 -2,0 -2,1 0,1 -1.4588,0.69344 -2,2 -0.38269,0.92387 0,2 0,3 0,1 -1,1 -1,0 0,-1 0.4588,-2.69344 1,-4 0.76537,-1.84776 -0.40601,-4.50432 2,-9 1.33461,-2.49376 4.41589,-6.76108 6,-10 1.38936,-2.84073 2.33749,-6.31001 4,-9 0.7435,-1.203 1,-2 1,-3 0,-1 1,-2 1,-3 0,-1 1,-3 1,-4 0,-1 -0.70711,-2.29289 0,-3 0.70711,-0.70711 2.15224,0.76537 4,0 2.61313,-1.0824 3.186,-1.69255 5,-3 1.14726,-0.8269 2.09789,-3.82443 4,-5 0.85065,-0.52573 1.61731,-1.07613 2,-2 0.5412,-1.30656 2,-2 2,-3 0,-1 1.29289,-0.29289 2,-1 0.70711,-0.70711 0,-2 1,-2 1,0 1.61731,0.0761 2,1 0.5412,1.30656 2,2 3,2 1,0 1.69344,0.4588 3,1 0.92387,0.38269 3.82375,1.48625 6,2 0.97325,0.22975 1.69344,-0.4588 3,-1 0.92387,-0.38269 1.69344,-1.4588 3,-2 1.84776,-0.76537 2.69344,-1.4588 4,-2 0.92387,-0.38269 2.4588,0.30656 3,-1 0.38269,-0.92387 1,-2 3,-2 1,0 1.69344,-0.4588 3,-1 0.92387,-0.38269 2.4588,0.30656 3,-1 0.38269,-0.92387 1,-2 2,-2 1,0 1.69344,-0.4588 3,-1 1.84776,-0.76537 3,0 5,0 1,0 3,1 3,0 0,-1 -2.03874,-0.48055 -5,0 -3.12144,0.50655 -7.93414,3.14429 -10,4 -5.84312,2.4203 -7.87856,3.49345 -11,4 -1.97418,0.32036 -3,0 -4,0 -1,0 -1.70711,-1.29289 -1,-2 0.70711,-0.70711 2.00966,0.1387 3,0 7.20975,-1.00977 15.08264,-2.69446 23,-5 3.03616,-0.88414 4.87856,-2.49345 8,-3 1.97418,-0.32036 6.56511,1.28069 10,-1 4.16542,-2.76573 4.69344,-5.4588 6,-6 1.84776,-0.76537 5.02986,0.54558 10,0 9.16449,-1.00601 11.88153,-2.19028 15,-4 1.93399,-1.12234 5,-1 7,-1 1,0 2.69345,-0.4588 4,-1 0.92389,-0.38269 2.85272,-0.1731 4,-1 1.814,-1.30745 3.58578,-3.41422 5,-2 0.70709,0.70711 0.29291,1.29289 1,2 0.70709,0.70711 -1,1 -2,1 -2,0 -7,2 -8,2 l -7,0 -5,0 c -3,0 -6,1 -12,3 -3,1 -6.69344,2.4588 -8,3 -2.77164,1.14806 -4,0 -5,0 -2,0 -4.02675,0.22975 -5,0 -2.17625,-0.51375 -3,-1 -4,-1 l -3,0 -3,0 c -1,0 -1,1 0,1 2,0 4.10701,-0.91901 8,0 4.35251,1.02748 6.29289,2.29289 7,3 0.70711,0.70711 1,1 1,2 0,1 -1,2 -2,2 -1,0 -1.85274,0.1731 -3,1 -1.814,1.30745 -1,1 0,1 l 4,0 c 1,0 4,-1 8,-1 4,0 7.96384,-1.11586 11,-2 3.95868,-1.15277 5.31,-1.33749 8,-3 1.203,-0.7435 2,-1 3,-1 l 3,0 3,0 c 2,0 3.02582,-0.32036 5,0 3.12143,0.50655 6.186,0.69255 8,2 1.14728,0.8269 0.87875,1.34387 2,3 3.01907,4.45927 8.69238,3.41092 12,8 1.30746,1.814 3.07611,1.61731 4,2 1.30655,0.5412 1.69254,1.186 3,3 0.8269,1.14726 2.14935,1.47427 3,2 1.9021,1.17557 1.29291,2.29289 2,3 0.70709,0.70711 0.29291,1.29289 1,2 0.70709,0.70711 1.29291,0.29289 2,1 0.70709,0.70711 1,1 1,2 0,1 1.4588,2.69344 2,4 0.76538,1.84776 0,4 1,5 1,1 2,2 2,3 0,1 2,3 2,4 0,2 0,3 1,4 1,1 2,2 2,3 l 0,3 c 0,1 0.1731,2.85274 1,4 1.30746,1.814 1,3 1,5 0,2 -0.22977,5.02675 0,6 0.51373,2.17625 1.49347,2.87856 2,6 0.16019,0.98709 0.1731,4.85274 1,6 1.30746,1.814 2,3 2,2 0,-2 -0.21268,-4.00755 0,-7 0.50125,-7.05328 1,-12 2,-16 1,-4 1,-5 1,-7 0,-3 1,-6 1,-7 l 0,-15 0,-8 c 0,-2 -0.29291,-3.29289 -1,-4 -0.70709,-0.70711 -0.4588,-1.69344 -1,-3 -0.38269,-0.92387 0,-2 -1,-2 -1,0 -1,-1 -2,-1 -1,0 -1.29291,-0.29289 -2,-1 -0.70709,-0.70711 -2,-1 -3,-3 -1,-2 -4,-4 -5,-5 l -5,-5 c -2,-2 -4.15225,-2.23463 -6,-3 -1.30655,-0.5412 -2.07611,-1.61731 -3,-2 -1.30655,-0.5412 -1,-2 -2,-2 l -3,0 -3,0 c -1,0 -2,0 -3,-1 -1,-1 -2,-1 -4,-1 -1,0 -1.61731,-1.07612 -2,-2 -0.5412,-1.30656 -1.06586,0.14429 1,1 2.92157,1.21014 6,2 8,3 4,2 6.51779,3.42726 11,8 5.46719,5.57762 10.7695,9.39099 13,13 1.66251,2.68999 2.9176,4.38687 4,7 1.91342,4.6194 0,6 0,7 l 0,5 c 0,1 1,2 2,2 1,0 0.70709,1.70711 0,1 -0.70709,-0.70711 0.2565,-0.203 1,1 1.66251,2.68999 3.83179,8.52216 7,15 1.38934,2.84073 3,8 3,12 0,3 0.77023,6.02675 1,7 0.51373,2.17625 1,3 1,9 0,2 0.38269,4.07613 0,5 -3.96118,9.92855 -8.70935,19.44274 -12,29 -6.89232,14.00424 -8.09634,29.31291 -16,42 -5.70115,7.11124 -10.49685,14.25402 -14,22 -0.16019,0.98709 -2.4588,1.69345 -3,3 -0.76538,1.84775 -0.88135,5.02521 -2,10 -0.90457,4.02264 -2.78986,7.07843 -4,10 -0.85571,2.06586 -3.48627,4.82376 -4,7 -0.4595,1.9465 -0.34518,3.17697 -2,8 -0.72568,2.11505 -2.48627,4.82376 -3,7 -0.4595,1.9465 -1.95517,2.54916 -3,6 -0.57956,1.91418 0,3 0,4 0,1 -1,1 -1,2 0,1 1.11832,1.47186 2,1 3.17892,-1.70129 5.87183,-6.08954 8,-9 3.77945,-5.16873 7.83521,-6.77374 10,-12 0.76538,-1.84775 2,-5 3,-6 1,-1 2.9725,-1.64749 4,-6 0.22977,-0.97324 2.5582,-4.51929 6,-7 1.814,-1.30746 3.85196,-6.22836 5,-9 1.0824,-2.61313 1.38687,-3.9176 4,-5 0.92389,-0.38269 1.14935,-1.47427 2,-2 1.9021,-1.17557 2.14429,-3.93414 3,-6 1.21014,-2.92157 2.4588,-4.69345 3,-6 0.38269,-0.92389 1.29291,-1.29291 2,-2 0.70709,-0.70709 -0.29291,-0.70709 -1,0 -0.70709,0.70709 -4,7 -5,8 -1,1 -1.33749,1.31 -3,4 -0.7435,1.203 -1.51944,2.03873 -2,5 -0.50653,3.12143 -3.49622,3.90778 -4,8 -0.12219,0.99249 -0.14935,2.47427 -1,3 -1.9021,1.17557 -0.87781,3.00751 -1,4 -1.00754,8.18442 -3,8 -4,8 -1,0 -2.29291,-0.70709 -3,0 -0.70709,0.70709 0.30655,2.4588 -1,3 -0.92389,0.38269 -2.58578,-0.41422 -4,1 -0.70709,0.70709 -1.07611,1.61731 -2,2 -1.30655,0.5412 -3,1 -5,1 -1,0 -3,-2 -7,-6 -4,-4 -8.38528,-12.77173 -13,-21 -3.28137,-5.85086 -3.49622,-11.90778 -4,-16 -0.36655,-2.97751 0.93414,-4.14429 3,-5 2.92157,-1.21014 9.64709,-2.6741 13,-4 5.65652,-2.23688 9.02582,-2.67963 11,-3 3.12143,-0.50653 4.84775,-1.76538 3,-1 -1.30655,0.5412 -2.2478,3.47504 -5,7 -5.67383,7.26691 -10.44043,10.58975 -16,17 -3.276,3.77728 -5.70251,7.56351 -11,10 -7.65571,2.01186 -13.01951,2.72104 -20,6 -4,2 -6.50424,2.03552 -11,5 -1.18065,0.7785 -4,1 -4,0 l 0,-4 c 0,-1 1.29289,-3.29291 2,-4 1.41422,-1.41422 0.48625,-2.82376 1,-5 0.22975,-0.97324 0.5405,-1.0535 1,-3 0.51375,-2.17624 2,-3 2,-4 0,-1 0,-2 1,-3 1,-1 1.07613,-2.61731 2,-3 1.30656,-0.5412 3.41885,-1.41885 5,-3 1.58115,-1.58115 2.87857,-3.49347 6,-4 0.98709,-0.16019 4.07611,-0.61731 5,-1 2.61313,-1.0824 3,-2 5,-4 1,-1 1.61731,-2.07611 2,-3 1.0824,-2.61313 3,-2 3,-3 0,-1 0.29291,-2.29291 1,-3 0.70709,-0.70709 0,1 -1,1 -1,0 -2.08032,3.3764 -6,5 -1.84775,0.76538 -4.58578,3.41422 -6,2 -0.70709,-0.70709 0.70709,-2.29291 0,-3 -0.70709,-0.70709 -1.70709,-1.29291 -1,-2 0.70709,-0.70709 2,0 4,0 l 3,0 c 1,0 2.04291,0.28979 3,0 3.45084,-1.04483 5.07843,-2.78986 8,-4 2.06586,-0.85571 4,-4 5,-5 1,-1 1.29291,-2.29291 2,-3 1.41422,-1.41422 3.4588,-0.69345 4,-2 0.38269,-0.92389 2.4588,-1.69345 3,-3 0.38269,-0.92389 1.07611,-0.61731 2,-1 1.30655,-0.5412 2,-2 4,-2 1,0 2.29291,-1.70709 3,-1 0.70709,0.70709 -1.0535,1.5405 -3,2 -4.35251,1.0275 -10.12704,4.67862 -13,6 -5.29749,2.43649 -7,5 -11,5 -1,0 -3.41885,0.41885 -5,2 -1.58115,1.58115 -3.70709,0.29291 -3,1 0.70709,0.70709 0,2 0,3 0,1 -0.92807,1.61105 -3,4 -1.46509,1.68924 -4.07611,1.61731 -5,2 -2.61313,1.0824 -4.07613,1.61731 -5,2 -1.30656,0.5412 -1,2 -1,3 0,1 -1,2 -1,3 0,1 1.02675,1.22977 2,1 2.17624,-0.51373 2.70251,-1.56351 8,-4 5.74594,-2.64276 8.83127,-2.22055 14,-6 2.91046,-2.12817 8.3736,-6.57321 13,-11 7.68051,-7.34912 11,-12 13,-14 3,-3 4.5405,-4.0535 5,-6 0.51373,-2.17624 2.4588,-2.69345 3,-4 0.76538,-1.84775 0.70709,-4.29291 0,-5 -0.70709,-0.70709 -2.02582,-0.32037 -4,0 -3.12143,0.50653 -6,2 -8,2 -3,0 -2.70709,0.29291 -2,1 0.70709,0.70709 2.02676,1.22977 3,1 2.17624,-0.51373 4.09442,-1.57584 5,-2 7.07288,-3.31277 8.42334,-10.42824 14,-15 3.28101,-2.68979 2.69345,-4.4588 4,-5 0.92389,-0.38269 1.513,-0.59399 3,-3 1.66251,-2.68999 1.69345,-7.4588 3,-8 0.92389,-0.38269 -0.41422,-1.58578 1,-3 0.70709,-0.70711 2,0 3,0 1,0 -0.0761,0.61731 -1,1 -2.61313,1.0824 -3.77194,6.11955 -7,12 -2.80591,5.11145 -8.15085,9.87744 -13,16 -1.38831,1.75287 -1.76395,7.76395 -4,10 -2.23605,2.23605 -3.9176,1.38687 -5,4 -0.38269,0.92389 1.12131,4.87869 -1,7 -0.70709,0.70709 -1,-1 -1,-2 0,-2 0.87766,-3.06601 2,-5 1.80972,-3.11847 3.22421,-7.90283 4,-10 1.43048,-3.867 1.0979,-6.82443 3,-8 0.85065,-0.52573 -0.0268,-0.22975 -1,0 -2.17624,0.51375 -3,2 -4,2 -2,0 -2,1 -2,2 0,1 1.29291,0.29291 2,1 0.70709,0.70709 1,1 2,1 l 11,0 7,0 c 1,0 0.18912,1.01804 0,2 -1.01837,5.28799 -4.34619,9.70547 -6,12 -4.99336,6.35447 -5.75515,14.09655 -8,20 -0.8269,1.14728 -1.61731,3.07611 -2,4 -4.33346,5.65968 -4.9413,12.82732 -6,20 -0.91901,3.89301 0,10 0,12 0,2 0.76538,4.15225 0,6 -1.0824,2.61313 -2.21167,2.71411 -5,5 -2.18735,1.79318 -3.29291,2.70709 -4,2 -0.70709,-0.70709 -0.70709,-3.29291 0,-4 0.70709,-0.70709 4.21167,-2.71411 7,-5 3.28101,-2.68979 4.69345,-5.4588 6,-6 0.92389,-0.38269 2,0 2,-1 0,-1 -0.29291,-1.29291 -1,-2 -0.70709,-0.70709 -1,-2 -2,-2 l -6,0 c -6,0 -11.92578,1.49756 -17,2 -2.98541,0.29562 -4.87857,-0.49347 -8,-1 -0.98709,-0.16019 -1,-2 -2,-2 -2,0 -3.54916,-0.95517 -7,-2 -2.87128,-0.86935 -5,0 -6,0 -1,0 -2.4588,-0.30655 -3,1 -0.76538,1.84775 -0.78986,5.07843 -2,8 -3.36571,6.54884 -0.79621,13.19755 1,19 3.60648,7.80981 6.54135,13.70267 8,17 1.66803,3.77063 2,6 3,9 1,3 2,4 2,5 0,1 0.77023,0.97324 1,0 0.51373,-2.17624 2.01074,-8.26871 6,-21 1.6102,-5.13879 4,-9 4,-12 l 0,-6 c -4.61022,-0.13693 -12.04519,10.76455 -15,17 l 0,5 c 0,1 0.28357,2.01007 0,6 -0.50125,7.05328 -3,19 -3,25 l 0,14 c 0,1 -2,4 -2,7 0,1 -0.76538,2.15225 0,4 0.5412,1.30655 3.81146,3.13464 6,6 1.91949,2.51309 2.34619,4.70547 4,7 1.30746,1.814 1.71411,3.21167 4,6 1.79318,2.18735 3.1731,4.85272 4,6 1.30746,1.814 2.69345,3.4588 4,4 1.84775,0.76538 3.88153,2.19028 7,4 3.86798,2.24469 9.21167,4.71411 12,7 2.18735,1.79318 4.07843,2.78986 7,4 2.06586,0.85571 2.82376,1.48627 5,2 0.97324,0.22977 3.02582,-0.32037 5,0 3.12143,0.50653 3.64709,2.6741 7,4 5.65652,2.23688 8.38687,1.9176 11,3 0.92389,0.38269 2,1 3,1 l 4,0 c 2,0 2.82376,-0.48627 5,-1 1.9465,-0.4595 5,-1 6,-1 l 3,0 c 1,0 1,1 0,1 -2,0 -6,1 -12,1 l -13,0 c -4,0 -7,-1 -9,-1 l -4,0 c -1,0 -3,1 -4,1 l -5,0 -3,0 -4,0 c -1,0 -2.29291,0.70709 -3,0 -0.70709,-0.70709 -1.61731,-1.07611 -2,-2 -1.0824,-2.61313 -2.90283,-2.22421 -5,-3 -7.32066,-1.35903 -11.14015,-3.10318 -15,-8 -1,-1 -1.69345,-1.4588 -3,-2 -0.92389,-0.38269 -0.69345,-1.4588 -2,-2 -1.84775,-0.76538 -3.29291,0.70709 -4,0 -0.70709,-0.70709 -0.0761,-1.61731 -1,-2 -1.30655,-0.5412 -1.07611,-1.61731 -2,-2 -1.30655,-0.5412 -2.29291,-2.29291 -3,-3 -0.70709,-0.70709 0.70709,-2.29291 0,-3 -0.70709,-0.70709 -2.186,-1.69254 -4,-3 -1.14728,-0.8269 -2.90634,-6.10339 -4,-7 -2.78833,-2.28589 -3,-3 -5,-5 -1,-1 -2,-2 -3,-4 -1,-2 -1.5405,-5.0535 -2,-7 -0.51375,-2.17624 -1.48625,-3.82376 -2,-6 -0.68925,-2.91974 -1,-4 -1,-5 0,-1 -0.77025,-2.02676 -1,-3 -0.51375,-2.17624 -1.29289,-4.29291 -2,-5 -0.70711,-0.70709 -1.95517,-1.54916 -3,-5 -0.57957,-1.91418 -0.82375,-4.48627 -3,-5 -0.97325,-0.22977 -2.9176,0.61313 -4,-2 -0.38269,-0.92389 -0.69344,-3.4588 -2,-4 -1.84776,-0.76538 -2.29289,-1.29291 -3,-2 -0.70711,-0.70709 -1.29289,-0.29291 -2,-1 -0.70711,-0.70709 1,-1 2,1 2,4 3.82443,6.0979 5,8 0.52573,0.85065 1.14935,1.47427 2,2 1.90211,1.17557 2,3 2,4 0,2 -1,2 -2,2 -2,0 -2.29289,-0.29291 -3,-1 -1.41422,-1.41422 -0.83981,-3.01291 -1,-4 -0.50655,-3.12143 -2,-4 -3,-5 -1,-1 -1.29289,-1.29291 -2,-2 -0.70711,-0.70709 -0.0761,-1.61731 -1,-2 -1.30656,-0.5412 -2.14935,-1.47427 -3,-2 -1.90211,-1.17557 -3.82443,-3.0979 -5,-5 -0.52573,-0.85065 -1.29289,-1.70709 -2,-1 -0.70711,0.70709 0,2 -1,2 -1,0 -2.07613,-0.38269 -3,0 -3.91969,1.6236 -4.29289,4.29291 -5,5 -0.70711,0.70709 -2.14935,-0.52573 -3,0 -1.90211,1.17557 -2.07613,2.61731 -3,3 -1.30656,0.5412 -2.29289,0.70709 -3,0 -0.70711,-0.70709 -0.31075,-2.08026 -1,-5 -0.51375,-2.17624 -1,-3 -1,-5 0,-1 0,-2 -1,-2 -1,0 -1,-1 -1,-2 0,-1 -1,-1 -1,-2 0,-1 0.70711,-2.29291 0,-3 -0.70711,-0.70709 -0.5412,-0.69345 0,-2 0.38269,-0.92389 0.4588,-1.69345 1,-3 0.38269,-0.92389 1.29289,-0.29291 2,-1 0.70711,-0.70709 1,-1 1,0 l 0,5 0,3 0,9 c 0,5 -0.49623,7.90778 -1,12 -0.12218,0.99249 -1,3 -1,5 0,1 -1.29289,2.29291 -2,3 -0.70711,0.70709 0,2 0,3 l 0,3 c 0,1 -1,2 -1,3 0,1 -1,1 -1,2 0,1 -0.0761,1.61731 -1,2 -1.30656,0.5412 -1,2 -1,3 0,1 0.70711,2.29291 0,3 -0.70711,0.70709 -1.29289,1.70709 -2,1 -0.70711,-0.70709 0,-2 3,-4 3,-2 5.31021,-7.71899 8,-11 2.28587,-2.78833 4.49623,-4.90778 5,-9 0.12218,-0.99249 1.29289,-2.29291 2,-3 0.70711,-0.70709 1.69344,-3.4588 3,-4 0.92387,-0.38269 2.58578,-0.58578 4,-2 0.70711,-0.70709 1,-2 2,-2 1,0 1,1 1,2 0,1 -1.02675,0.77023 -2,1 -2.17625,0.51373 -3,2 -5,4 -1,1 0.0761,1.38269 1,1 3.91969,-1.6236 4.4588,-3.69345 5,-5 0.76537,-1.84775 1.29289,-3.70709 2,-3 0.70711,0.70709 1.69344,-0.4588 3,-1 1.84776,-0.76538 2.82375,-2.48627 5,-3 0.97325,-0.22977 2,0 2,-1 0,-1 -1,-1 -1,-2 0,-1 -1.69255,-4.186 -3,-6 -1.65381,-2.29453 -4,-2 -5,-2 -1,0 -1.29289,-0.29291 -2,-1 -0.70711,-0.70709 -2,0 -2,-1 l 0,-5 c 0,-1 0.61731,-1.07611 1,-2 0.5412,-1.30655 2.4588,-1.69345 3,-3 0.38269,-0.92389 0.0761,-1.61731 1,-2 1.30656,-0.5412 1.69344,-3.4588 3,-4 1.84776,-0.76538 2.02675,-0.77023 3,-1 2.17625,-0.51373 4,-1 5,-1 1,0 4,-1 5,-1 l 3,0 c 2,0 3.34619,0.70547 5,3 1.30745,1.814 2.84628,8.37814 5,13 2.70454,5.80392 9.14859,12.94583 12,21 2.11072,5.96194 3.48627,8.82376 4,11 0.22977,0.97324 -1.07611,1.38269 -2,1 -2.61313,-1.0824 -2.71594,-7.55591 -8,-18 -1.62772,-3.21722 -3.54915,-6.95517 -7,-8 -2.87128,-0.86935 -6.56511,1.28067 -10,-1 -4.16542,-2.76575 -5.49623,-6.90778 -6,-11 -0.36655,-2.97751 1.07613,-5.38269 2,-5 2.61313,1.0824 5.45049,5.4505 8,8 7.64853,7.64853 4.86377,16.57275 8,24 2.49083,5.8988 4.84796,10.07971 7,14 2.80591,5.11145 3.09789,8.82443 5,10 0.85065,0.52573 0.38269,-0.0761 0,-1 -1.62358,-3.91968 -7.46873,-10.53976 -9,-18 1.72074,-10.92321 4.47089,-18.91775 5,-31 1.17557,-1.9021 4.4588,-1.30655 5,0 0.38269,0.92389 3.46585,5.7485 6,11 3.71323,7.69492 4.37668,10.88733 6,17 1.30875,4.92819 0.67007,9.01364 1,13 0.50171,6.06204 2.48627,8.82376 3,11 0.4595,1.9465 1,5 3,9 3,6 4.75531,10.13202 7,14 1.80972,3.11847 5,6 7,8 1,1 1.29291,2.29291 2,3 0.70709,0.70709 1.29291,2.29291 2,3 0.70709,0.70709 0,2 2,2 1,0 -0.56952,-1.133 -2,-5 -0.77579,-2.09717 -3,-6 -6,-12 -1,-2 -2,-6 -3,-7 -1,-1 -1,-3 -1,-4 0,-1 0.4595,-2.0535 0,-4 -0.51373,-2.17624 -0.83293,-4.64975 -1,-7 -0.16547,-2.32774 0,-7 0,-7 0,0 -0.2854,-4.68335 0,-7 0.33573,-2.72526 2,-5 2,-8 0,-1 -0.28589,-2.21167 2,-5 1.79318,-2.18735 1.42044,-4.08582 2,-6 1.04483,-3.45084 2.49347,-4.87857 3,-8 0.32037,-1.97418 1,-2 1,-3 0,-1 -2.04291,0.71021 -3,1 -3.45084,1.04483 -5.04443,5.76147 -10,11 -3.43607,3.63226 -7.35928,7.05164 -8,11 -0.50653,3.12143 -1,7 -1,11 0,4 -0.64276,8.25406 2,14 2.43649,5.29749 5,9 10,14 3,3 3.70547,4.34619 6,6 1.814,1.30746 3.23462,1.15225 4,3 1.0824,2.61313 4.82376,3.48627 7,4 0.97324,0.22977 4.37134,2.74673 7,7 2.35114,3.80423 6,8 7,9 1,1 2.51703,2.53165 7,8 2.28589,2.78833 4.08032,6.3764 8,8 2.77164,1.14804 4.64749,2.9725 9,4 1.9465,0.4595 5,0 6,0 2,0 3.29291,0.70709 4,0 0.70709,-0.70709 1,-1 4,-2 3,-1 8,-1 10,-1 1,0 2,-1 3,-1 1,0 8.10699,-1.08099 12,-2 2.17624,-0.51373 4.15225,-0.23462 6,-1 1.30655,-0.5412 3.29291,-0.29291 4,-1 0.70709,-0.70709 0.87857,-1.49347 4,-2 0.98709,-0.16019 3.4588,0.30655 4,-1 0.38269,-0.92389 1.69345,-1.4588 3,-2 1.84775,-0.76538 4.07611,-0.61731 5,-1 1.30655,-0.5412 2,-1 3,-1 1,0 1.07611,-0.61731 2,-1 1.30655,-0.5412 3.5412,-0.69345 3,-2 -0.38269,-0.92389 -2,0 -5,0 -5,0 -11.87857,2.49347 -15,3 -5.92252,0.96109 -10.87857,1.49347 -14,2 -2.96127,0.48056 -4.38687,0.9176 -7,2 -2.77164,1.14804 -4,0 -8,0 l -13,0 c -5,0 -8.06458,0.8009 -13,0 -3.12143,-0.50653 -7,-3 -9,-3 l -10,0 c -3,0 -10.15686,-1.57971 -16,-4 -2.06586,-0.85571 -1.81937,-2.2215 -3,-3 -13.86639,-12.37216 -22.3451,-30.53398 -24,-47 -1.16748,-12.94748 0,-21 0,-23 0.88393,-25.25911 20.96116,-33.31029 36,-55 6.39426,-9.75259 13.11447,-24.86575 19,-30 7.59379,-6.07954 15.07948,-10.82425 20,-19 1.55387,-5.46065 1.32475,-12.24322 2,-17 1.90679,-4.07565 1.38378,-10.06077 2,-15 0.16019,-0.98709 1.61066,-2.15927 3,-5 1.58411,-3.23892 2.95517,-5.54915 4,-9 0.28979,-0.95709 0,-2 0,-4 0,-3 -0.48627,-5.82375 -1,-8 -0.22977,-0.97325 0.4595,-2.0535 0,-4 -0.51373,-2.17625 -5,-13 -5,-18 0,-4 -1.30655,-5.4588 0,-6 0.92389,-0.38269 2.23462,-2.15224 3,-4 0.5412,-1.30656 3,-3 5,-5 2,-2 2,-3 3,-5 1,-2 -0.41422,-3.58578 1,-5 2.12131,-2.12132 3.96854,-3.41208 6,-7 1.39355,-2.4613 4,-2 4,-3 l 0,-3 0,-3 0,-3 c 0,-1 -1,-3 -1,-2 0,1 1.57956,1.08582 1,3 -1.04483,3.45085 -4.34518,6.17697 -6,11 -2.90274,8.46014 -5.90634,11.10341 -7,12 -2.78833,2.28587 -6,2 -8,2 -3,0 -4.69345,-0.4588 -6,-1 -0.92389,-0.38269 -2.12219,-2.00749 -2,-3 0.50378,-4.09221 5,-4 5,-6 0,-1 -1.61731,0.0761 -2,1 -0.5412,1.30656 -3.44839,1.80565 -5,6 -1.43048,3.867 -3.49756,12.9258 -4,18 -0.39417,3.98053 -0.48627,6.82375 -1,9 -1.14877,4.86624 -0.69125,10.07179 -2,15 -0.81165,3.05634 -4.49295,5.23401 -7,10 -1.67856,3.19099 -4,4 -6,8 -3,6 -2.23462,10.15224 -3,12 -0.5412,1.30656 -0.72961,2.22885 -5,7 -5.65903,6.32263 -12.21539,8.11893 -18,10 -2.12646,0.6915 -4.0535,1.4595 -6,1 -2.17624,-0.51373 -3.9176,-1.38687 -5,-4 -0.38269,-0.92389 -1,-2 -1,-3 0,-2 -0.4588,-3.69345 -1,-5 -0.38269,-0.92389 -0.70709,-1.70709 0,-1 0.70709,0.70709 0.85065,0.47427 0,1 -1.9021,1.17557 -3,3 -6,3 -2,0 -3.69254,-1.186 -5,-3 -0.8269,-1.14728 -2.69345,-1.4588 -4,-2 -0.92389,-0.38269 -2,-1 -4,-1 -1,0 -2.29291,-0.70711 -3,0 -0.70709,0.70711 0,2 -1,2 -1,0 -0.58472,0.18875 0,1 1.84903,2.56537 5.02582,1.67963 7,2 3.12143,0.50653 4.29291,1.29291 5,2 0.70709,0.70709 2.30655,1.5412 1,1 -0.92389,-0.38269 0.0979,-1.82443 2,-3 1.70129,-1.05145 4,-2 7,-2 1,0 3.01007,-0.28357 7,0 7.05328,0.50125 13.89398,0.51416 22,-1 7.92517,-1.48038 14,-3 16,-3 1,0 2,0 3,-1 7.8933,-7.18814 16.8302,-12.54985 26,-16 3,-1 5.82376,-1.48625 8,-2 0.97324,-0.22975 0.38687,-1.9176 3,-3 0.92389,-0.38269 2.29291,-0.70711 3,0 0.70709,0.70711 3,1 5,1 l 5,0 c 1,0 3.5387,-2.60643 6,-4 3.58792,-2.03145 11.62131,-4.86517 16,-8 7.4964,-5.36691 10.04733,-11.93788 14,-15 5.06186,-3.92142 10.724,-12.22273 14,-16 2.77979,-3.20512 2.76083,-4.21347 1,-2 -5.87314,7.38283 -13.43625,11.43967 -20,17 -5.39536,4.57056 -9.11237,6.54706 -14,8 -5.16193,1.53448 -8.82443,3.09789 -10,5 -0.52573,0.85065 -1,2 0,2 1,0 2.50433,1.40601 7,-1 2.49374,-1.33461 7.35498,-3.58443 10,-5 7.46119,-7.12869 11.74925,-17.06962 16,-26 1.65381,-2.29454 3.58578,-1.58578 5,-3 0.70709,-0.70711 -0.39417,-2.01947 0,-6 0.50244,-5.0742 1,-6 1,-7 l 0,-3 c 0,-2 1.29291,-2.70711 2,-2 0.70709,0.70711 -0.58115,2.41885 1,4 3.16229,3.16228 7.41885,5.41885 9,7 4.61099,4.0821 10.24042,7.57177 14,11 9.77955,6.35668 20.71886,13.40401 30,17 0.70709,0.70711 1.28979,0.95709 1,0 -1.04483,-3.45085 -11.73325,-11.23274 -17,-17 -3.81464,-4.17715 -7,-6 -7,-9 0,-2 0.29291,-1.70711 1,-1 1.41422,1.41422 2.29291,2.29289 3,3 0.70709,0.70711 0.60693,0.81824 4,5 2.27176,2.79984 7.15097,3.43463 9,6 -2.09427,-4.47119 -8.83529,-11.65243 -14,-15 -9.23065,-9.39665 -17.00793,-14.25595 -26,-21 -2.69,-1.66251 -3.69345,-2.4588 -5,-3 -1.84775,-0.76537 -5.38687,-2.9176 -8,-4 -0.92389,-0.38269 0.41422,-1.58578 -1,-3 -1.41422,-1.41422 -2,-1 -3,-2 -1,-1 -3,-3 -3,-4 0,-1 -1.29291,-0.29289 -2,-1 -0.70709,-0.70711 0,-2 -1,-2 l -1,0 c -1,0 0.724,1.22273 4,5 1.85318,2.13675 4.92398,8.03986 6,10 2.80591,5.11145 3.61075,12.05182 5,21 0.78229,5.03865 1.0947,10.20399 3,19 2.55798,11.80917 6.61731,15.07613 7,16 0.5412,1.30656 4.31387,0.73051 12,10 3.72189,4.4886 5.9176,7.38687 7,10 0.38269,0.92387 0,5 0,7 0,3 1.07611,2.61731 2,3 1.30655,0.5412 2,3 2,2 0,-1 -2.49347,-0.87856 -3,-4 -0.64072,-3.94835 -0.76538,-7.15224 0,-9 0.5412,-1.30656 2,-1 4,-1 2,0 3.07843,-0.78986 6,-2 2.06586,-0.85571 5,-2 5,-3 0,-2 3.51373,-0.82375 3,-3 -0.22977,-0.97325 -1.97614,0.77997 -6,5 -2.48813,2.60944 -6,4 -6,6 0,2 -0.67963,3.02582 -1,5 -0.50653,3.12144 -1,6 -1,7 l 0,-2 c 0,-1 0.26163,-2.91594 4,-15 2.15158,-6.9549 1.69345,-8.4588 3,-9 1.84775,-0.76537 3.0535,-0.4595 5,0 2.17624,0.51375 5,1 8,1 l 5,0 c 2,0 4.29291,-0.70711 5,0 0.70709,0.70711 -1,2 -3,2 -7.75452,-1.82528 -14.50517,-4.46534 -22,-4 -0.70709,0.70711 0.15277,4.04132 -1,8 -0.88412,3.03616 -3.49347,8.87856 -4,12 -0.32037,1.97418 0,4 0,5 l 0,3 c 0,1 1,1 1,0 0,-1 -0.4733,-7.29366 -4,-13 -2.62866,-4.25325 -6,-8 -9,-8 l -8,0 c -3,0 -7.23462,-2.84776 -8,-1 -0.5412,1.30656 2,1 6,6 4,5 6,6 6,7 0,1 1.70709,0.70711 1,0 -0.70709,-0.70711 -2.20682,-1.81265 -4,-4 -2.28589,-2.78833 -4.12128,-8.09039 -3,-15 8.85181,-8.35263 36.90428,-17.17406 1,-18 -3.79036,6.68696 -8.95635,10.92878 -17,14 -2,1 -4.69238,1.41092 -8,6 -3.92236,5.44197 -5.82376,9.48625 -8,10 -0.97324,0.22975 -2.1731,1.85274 -3,3 -1.30746,1.814 -1.58578,8.58578 -3,10 -0.70709,0.70711 -1.70709,1.29289 -1,2 1.41422,1.41422 2.51929,-1.5582 5,-5 2.6149,-3.62799 4,-6 5,-6 3,0 4.57111,-2.67947 9,-5 5.60217,-2.93527 7.69345,-4.4588 9,-5 0.92389,-0.38269 2,0 1,0 -1,0 -4,-1 -13,-1 -7,0 -11.70547,0.34619 -14,2 -3.62799,2.6149 -4,5 -5,8 -1,3 -2,5 -4,7 -1,1 -3,3 -4,3 -1,0 -1.69345,-0.4588 -3,-1 -0.92389,-0.38269 0,0 1,0 2,0 11.03815,-0.72169 15,-5 3.0386,-3.28131 3,-7 5,-7 l 0,1" inkscape:connector-curvature="0" style="fill:none;stroke:#63dbb5;stroke-width:18" sodipodi:nodetypes="cssssssssssssssssssssssssssssssssssssssssssssssssssssssssssssssscssscsssssscssssssssssssscsssssssssssssssssssssccsssssscsssssssssssscsssssssssssssssscsccccssssssssssssscsssssssssssssssssssssssssssssccssscssssssssssssssssssssssssssssssssssssssscsssssssssscssssscsssssssssssssssscscccccsssssssssssssssssccssscssccsssssssssssssscssssssssssssssccsssccssssssssssssssssscssssssssscsssssssssssssssssssssssccssssssssssssssssscsscssssscssssssssssscsssssscsssssssssssccssssssssssssssssacassssssssssssscssssssssssssssssssssssssssssssccccccccssscsssssssssccssssssssssssssssssssssssssssssssssssssssccssssssssssssssscccssssscccssscsscccssssssssssssssssssssssscssscsssssssccssssssssssssscccsssccssssssssssssscc"/>
            <path stroke-linejoin="null" stroke-linecap="null" id="svg_22" d="m 326.60001,184.8 c -0.39999,0 -1.26926,-0.34109 -1.60001,-0.8 -0.52298,-0.7256 -0.96756,-1.36754 -1.60001,-2 -0.63245,-0.63245 -1.29385,-1.6609 -1.60001,-2.39999 -0.64941,-1.56787 -2.04135,-2.36253 -2.39999,-2.8 -0.91434,-1.11533 -1.077,-2.07439 -1.60001,-2.79999 -0.33075,-0.45889 -0.79999,-1.20001 -0.79999,-1.60002 0,-0.39998 0,-0.79999 0,-1.2 0,-0.39999 -0.11716,-0.51717 -0.39999,-0.8 -0.28284,-0.28284 -0.19449,-1.1295 -0.39999,-2 -0.0919,-0.3893 -0.36707,-0.55472 -0.80002,-1.59999 -0.15308,-0.36954 -0.59448,-1.12949 -0.79999,-2 -0.0919,-0.3893 -0.53848,-1.08217 -1.20001,-2 -0.52298,-0.72559 -0.13498,-1.724 -0.79999,-2.79999 -0.29739,-0.4812 -2.0473,-2.34262 -4,-4 -4.10284,-3.48236 -6.62244,-6.18741 -11.20001,-11.20001 -2.10669,-2.30692 -2.98578,-3.78577 -4.39999,-5.2 -1.41422,-1.41422 -2.40515,-1.93593 -2.79999,-2 -1.2486,-0.20262 -3.21655,-0.73889 -4.80002,-1.20001 -1.21445,-0.35364 -3.19998,-0.79999 -4.79999,-1.59999 -1.60001,-0.79999 -2.93793,-0.70218 -3.20001,-0.40001 -1.85318,2.13675 -6.30493,2.31178 -12.39999,4 -7.10803,1.96881 -12.4538,2.5061 -17.60001,3.60002 -4.46103,0.94826 -6.37033,1.39902 -8.39999,1.60001 -1.59222,0.15767 -3.23433,-0.23183 -4,0 -1.38033,0.41792 -2.69673,2.53087 -5.2,4.39999 -2.31125,1.72574 -4.68961,3.6891 -6,5.2 -1.11191,1.28204 -1.2,2.40001 -1.60001,2.40001 -0.8,0 -2,0.79999 -3.59999,1.59999 -1.60002,0.8 -5.12245,2.51334 -8,4.40001 -1.95053,1.27885 -3.60002,2.39999 -5.20001,4 -1.2,1.2 -2.02139,1.81621 -2.79999,2 -0.8705,0.20549 -1.20001,1.2 -1.20001,2 0,0.39999 0,0.79999 0,1.2 0,1.2 0.0785,3.97478 1.20001,7.59999 0.86064,2.78197 1.39737,4.35143 1.59999,5.60001 0.25629,1.57936 0.60294,2.80974 0.79999,4.8 0.20097,2.02968 0.39999,2.8 0.39999,4.39999 0,2 -0.12814,2.41034 0,3.2 0.20262,1.2486 0.59503,2.45219 1.20001,4.40001 0.90358,2.90923 1.53889,5.21652 2,6.8 0.35365,1.21446 0.22778,2.4532 0.79999,4 0.31032,0.83887 0.9985,1.96312 1.20001,3.59999 0.1955,1.58801 -0.265,2.924 0.39999,4 0.29738,0.4812 0.30809,0.8107 0.39998,1.2 0.20552,0.8705 0.43916,1.12978 1.20001,1.60001 0.34027,0.21028 0.55307,0.36955 0.39999,0 -0.21648,-0.5226 -0.70233,-1.26314 -2.8,-4.39998 -1.91275,-2.86032 -3.53482,-5.64642 -6.39999,-9.60002 -1.1736,-1.61945 -2.4787,-3.55739 -4.40001,-7.2 -0.83455,-1.58224 -1.75403,-4.54881 -2.79999,-6 -0.66153,-0.91782 -1.735,-2.52402 -2.40001,-3.60001 -0.5948,-0.9624 -1.28273,-1.52505 -2,-2.39999 -1.82869,-2.23067 -3.08565,-4.08467 -4,-5.2 -1.07591,-1.31241 -3.06377,-2.62613 -5.59999,-4 -2.67856,-1.45097 -6,-1.60001 -9.20001,-2.40001 -1.59999,-0.39999 -4.01549,-0.19223 -5.2,0 -1.24858,0.20262 -2.4744,0.67702 -3.2,1.2 -0.45891,0.33076 -1.08286,0.91716 -0.8,1.20001 0.28285,0.28285 1.60001,0 2.8,0 4.8,0 8.77032,-0.19902 10.8,-0.40001 1.19415,-0.11824 2.51715,-0.28285 2.8,0 0.28284,0.28285 0.15308,0.76956 0,0.40001 -0.21649,-0.52264 -0.40001,-0.8 -0.40001,-1.20001 0,-0.39999 0.45871,-0.7453 1.2,-1.59999 1.31041,-1.51093 3.63107,-7.02321 5.20001,-9.2 0.6615,-0.91782 1.92842,-3.31947 3.2,-4 0.35266,-0.18874 1.2,0 0.8,0 -0.8,0 -1.12245,0.51332 -4,2.39999 -3.90106,2.55771 -9.66896,5.24077 -13.60002,4.39998 -2.47386,-0.5291 -2.68285,-1.31714 -2.39998,-1.59999 0.28284,-0.28284 0.46213,-0.74956 2.39998,-3.2 1.2406,-1.56874 2,-1.60001 2.8,-1.60001 l 0.39999,0 0,0.39999" inkscape:connector-curvature="0" style="fill:none;stroke:#63dbb5;stroke-width:18"/>
            <path stroke-linejoin="null" stroke-linecap="null" id="svg_23" d="m 149,178.8 c 0,0.39999 -0.77365,0.45772 -1.60001,0.8 -1.16862,0.48404 -2,0.39998 -2,0 0,-0.40001 0,-0.8 0.40001,-1.20001 0.39999,-0.39999 0.8,-1.2 1.2,-1.2 0.39999,0 0.39999,-0.39999 0.8,-0.39999 l 0.39999,-0.40001 0.40001,0 0.39998,0" inkscape:connector-curvature="0" style="fill:none;stroke:#63dbb5;stroke-width:18"/>
            <path stroke-linejoin="null" stroke-linecap="null" id="svg_24" d="m 371.39999,180.8 c -0.13333,0.22499 -0.32785,0.38103 -0.39999,0.675 -0.051,0.20787 -0.19452,0.38103 -0.26666,0.67499 -0.051,0.20789 -0.0823,0.69212 -0.13333,0.90001 -0.0722,0.29398 -0.26666,0.22499 -0.26666,0.45 0,0.22501 0,0.45 0,0.675 l 0,0.22499 -0.13336,0 0,-0.22499" inkscape:connector-curvature="0" style="fill:none;stroke:#000000;stroke-width:0"/>
            <path stroke-linejoin="null" stroke-linecap="null" id="svg_25" d="m 343,182.8 c 0.79999,2.39999 2.44296,5.63872 4,8 3.55737,5.39491 3.20001,10 3.20001,12.39999 0,2.40001 0,3.60001 0,4.40001 0,0.79999 0.19223,1.61548 0,2.79999 -0.20264,1.2486 -0.40002,2 -0.40002,2.40001 0,1.2 0,1.59999 0,2 0,2 0.0281,2.80362 -0.39999,6 -0.37543,2.80341 -0.69324,4.41797 -0.39999,6.8 0.40302,3.27376 1.87701,5.2744 2.39999,6 1.32306,1.83562 2.39999,2 2.80002,2.79999 l 0.79999,0.40001 0.39999,0.39999 0.39999,0.40001" inkscape:connector-curvature="0" style="fill:none;stroke:#63dbb5;stroke-width:0"/>
            <path stroke-linejoin="null" stroke-linecap="null" id="svg_26" d="m 266.20001,250.8 c 0.39999,0 0.75397,0.10973 1.59998,0.39999 1.9292,0.66193 3.96112,0.88968 4.80002,1.2 C 274.14682,252.97218 275,252.8 275.4,252.8 c 0.80002,0 1.10617,0.3391 0.80002,-0.40001 -0.43298,-1.04526 -2.3522,-1.58313 -3.20001,-4 -0.13242,-0.37744 -1.0025,-2.26614 -2,-2.79999 -1.79828,-0.9624 -2.83917,-1.5298 -3.60001,-2 -0.34024,-0.21031 -1.59998,0.39998 -1.19998,0.39998 0.39999,0 -0.18353,-1.07736 -0.40002,-1.60001 -0.15308,-0.36954 -0.59448,-1.1295 -0.79999,-2 -0.2757,-1.16789 -0.59738,-1.95142 -0.79999,-3.2 -0.12814,-0.78967 -0.18353,-1.07736 -0.40002,-1.59999 -0.30615,-0.73911 -0.39996,-0.8 -0.39996,-2 0,-0.40001 -0.36703,-0.55476 -0.80002,-1.60001 -0.15308,-0.36955 -0.39996,0 -0.39996,0.79999 0,1.20001 0,2.39999 0,3.59999 0,1.60002 -0.53812,3.27081 -1.20001,5.20001 -0.58054,1.69203 -0.9985,3.9631 -1.20001,5.59999 -0.0978,0.79401 -0.39999,0.8 -0.79999,0.8 -0.39999,0 -0.39999,-0.39999 -0.39999,-0.8 0,-1.2 -0.19223,-2.01549 0,-3.2 0.40521,-2.49715 0.99738,-4.35143 1.19998,-5.60001 0.25629,-1.57933 0,-4.39999 0,-6 0,-1.2 -0.0475,-2.01009 0.40002,-4 0.36182,-1.60905 0.39996,-2.79999 0.39996,-4 0,-1.2 0.43817,-3.99094 0.80002,-5.59999 0.44745,-1.98991 0.39996,-2.40001 0.39996,-2.8 0,-0.39999 0.51718,-0.91716 0.80002,-1.2 0.28287,-0.28285 0,-0.8 0,-1.60001 0,-2 0,-2.39999 0,-2.8 0,-0.79999 0,-1.2 0,-1.59999 0,-0.8 0,-1.2 0,-1.60001 0,-0.8 -0.1835,-1.07739 -0.39996,-1.59999 -0.30615,-0.73912 -0.18353,-1.47737 -0.40002,-2 -0.15308,-0.36955 0.0305,-1.04695 0.40002,-1.20001 0.52258,-0.21648 0.98352,-0.67737 1.19998,-1.2 0.15308,-0.36955 0,-0.8 0,-1.20001 0,-0.39998 -0.11719,-0.51715 -0.39999,-0.79999 -0.28284,-0.28285 -1.14032,0.88402 -2.79999,2 -1.93555,1.30144 -3.05014,2.96544 -4.80003,4.40001 -1.11533,0.91434 -2.23431,1.03432 -2.79999,1.59999 -0.28285,0.28284 -0.0414,0.76253 -0.40001,1.2 -0.91437,1.11533 -1.44691,2.03046 -1.59999,2.40001 -0.21649,0.52263 -0.8744,1.07701 -1.60001,1.59999 -0.45891,0.33075 -0.51715,0.91716 -0.8,1.20001 -0.28284,0.28284 -0.39999,0.39998 -0.8,0.39998 -0.39999,0 -0.67737,0.18353 -1.2,0.39999 -0.36955,0.15306 -0.7411,0.46924 -1.2,0.8 -0.7256,0.52299 -1.03433,0.23431 -1.60002,0.8 -0.28284,0.28284 -0.3295,0.99451 -1.2,1.2 -0.3893,0.0919 -0.51715,0.11716 -0.8,0.40001 -0.28284,0.28284 -0.40001,1.2 0,1.2 0.40001,0 0,-0.8 0,-1.2 l 0,-0.40001" inkscape:connector-curvature="0" style="fill:none;stroke:#63dbb5;stroke-width:13"/>
            <path stroke-linejoin="null" stroke-linecap="null" id="svg_27" d="m 335.79999,281.97037 c 4.37617,-10.20184 5.42968,-20.16506 7.2,-29.97037 25.71841,-15.49625 57.41542,-21.96849 85.20002,-24.39997 3.76878,0.54606 7.32937,0.16075 10.79999,0 0.39999,0 0.39999,-0.40001 0.79999,-0.40001 l 0.40002,0" inkscape:connector-curvature="0" style="fill:none;stroke:#63dbb5;stroke-width:18" sodipodi:nodetypes="ccccss"/>
            <path stroke-linejoin="null" stroke-linecap="null" id="svg_28" d="m 175.39999,165.2 c 0.40001,0 1.52951,-0.1945 2.40001,-0.39999 2.7251,-0.6433 5.17365,-0.0577 6,-0.40001 1.16861,-0.48404 1.84694,-0.43044 2,-0.79999 0.21648,-0.52263 2,-2 3.59999,-3.60001 l 0.8,-1.2" inkscape:connector-curvature="0" style="fill:none;stroke:#000000;stroke-width:0"/>
            <path stroke-linejoin="null" stroke-linecap="null" id="svg_29" d="m 451,434.39999 c -0.39999,0 -1.5188,0.1026 -2,0.39999 -1.07602,0.66501 -3.25281,1.10214 -4.79999,2 -1.24741,0.72391 -2.12402,1.33496 -3.20001,2 -0.4812,0.29742 -0.73511,1.5351 -2,2.80002 -0.63245,0.63245 -1.71948,1.17941 -2.39999,1.60001 -0.76083,0.47021 -0.81073,0.7081 -1.20001,0.79999 -0.87048,0.20551 -1.61072,0.7081 -2,0.79999 -1.741,0.41101 -1.74707,1.0256 -3.19998,2.40002 -1.0477,0.99112 -3.2847,1.88565 -4.40002,2.79999 -0.43747,0.35864 -1.63135,0.71594 -2.79999,1.20001 -1.65268,0.68457 -2.79999,1.19998 -3.60001,1.19998 l 0,0.39999 -1.19998,0.80002 -0.80002,0" inkscape:connector-curvature="0" style="fill:none;stroke:#000000;stroke-width:0"/>
            <path stroke-linejoin="null" stroke-linecap="null" id="svg_30" d="m 415.79999,456.39999 c 0.13846,0 0.27692,-0.27097 0.41537,-0.54193 0.13849,-0.27097 0.35803,-0.15872 0.55386,-0.54193 0.0979,-0.19162 0.31747,-0.0794 0.41537,-0.27097 0.0979,-0.19162 0.0406,-0.35034 0.13849,-0.54193 0.0979,-0.19162 0.27692,-0.27097 0.41537,-0.27097 0.13846,0 0.28748,0.1037 0.41534,0 0.18091,-0.14667 0.41537,-0.54196 0.55386,-0.81293 0.13846,-0.271 0.4024,-0.56998 0.55383,-0.81293 0.38608,-0.61942 0.69229,-0.8129 0.96924,-1.35483 0.13846,-0.27097 0.30087,-0.23108 0.41537,-0.54193 0.18103,-0.49155 0.43936,-0.50201 0.55386,-0.81293 0.181,-0.49152 0.37292,-0.93723 0.55383,-1.08386 0.25586,-0.20737 0.41541,-0.27097 0.55386,-0.27097 l 0.27692,-0.27097 0.41537,-0.27097" inkscape:connector-curvature="0" style="fill:none;stroke:#63dbb5;stroke-width:0"/>
            <path stroke-linejoin="null" stroke-linecap="null" id="svg_31" d="m 401.33334,329.33334 c 0,0 0,1.33331 -0.33334,2.33331 -0.33334,1 -0.41058,2.30923 -1,4.33334 -0.38425,1.31958 -0.88025,4.35361 -1.33334,6.66666 -0.26419,1.34875 -0.51971,3.0058 -0.33331,6 0.16699,2.68225 1.04843,4.63632 3.33331,8.33334 1.02182,1.65335 2.14276,3.47446 3.66669,5.33334 0.59772,0.7291 1.02536,0.87247 1.33331,1 0.43552,0.18039 0.4866,0.94745 1.33334,3.66666 1.63446,5.2489 3.83054,12.25397 4.33334,17 0.10535,0.99445 0.33331,1.66666 0.33331,2.33334 0,0.33328 -0.19461,0.67633 -0.33331,1.66666 -0.67319,4.80649 -1.33334,5.33334 -1.33334,5.66666 0,0.33334 -0.33334,0.33334 -0.33334,0.66669 0,0.66666 0,2.33331 0,3.33331 l -0.33331,0 -0.33334,0" inkscape:connector-curvature="0" style="fill:none;stroke:#63dbb5;stroke-width:0"/>
            <path stroke-linejoin="null" stroke-linecap="null" id="svg_32" d="M 410,397.66666 C 410,397 410,396.33335 410,396 c 0,-0.33334 0.056,-0.97345 0.66666,-2.33334 0.73535,-1.63751 1.16611,-3.31262 1.33334,-5.33331 0.0825,-0.99658 0.33334,-1 0.33334,-1.33334 l 0.33331,0 0,-0.33334" inkscape:connector-curvature="0" style="fill:none;stroke:#63dbb5;stroke-width:0"/>
            <path stroke-linejoin="null" stroke-linecap="null" id="svg_33" d="m 421.66666,385.66666 c -2,-2 -4.03394,-3.9722 -5.66666,-6 -2.38354,-2.96027 -3.12378,-3.58224 -4,-5 -0.78369,-1.26807 -0.66666,-2.66666 -0.66666,-3.33331 0,-1.33334 0.0657,-2.33658 0,-3 -0.16748,-1.69144 -0.027,-3.70236 -0.33334,-5 -0.51373,-2.17624 -1.76089,-4.94324 -2.33334,-6 -1.20917,-2.23215 -2,-3.33334 -2.33331,-4 l -0.66669,-0.33334 -0.33331,-0.33334 0,-0.33328" inkscape:connector-curvature="0" style="fill:none;stroke:#63dbb5;stroke-width:11"/>
            <path stroke-linejoin="null" stroke-linecap="null" id="svg_34" d="m 390,350.33334 c -0.33334,-0.66669 -0.44583,-1.43668 -1,-2.33334 -0.49567,-0.802 -1.52042,-2.04684 -2.33334,-4.33334 -0.8504,-2.39191 -2.0386,-4.98795 -2.33331,-6 -0.38425,-1.31955 -0.33334,-1.66666 -0.33334,-2.33331 0,-0.33334 -0.0394,-0.5094 -0.33334,-0.66669 -1.05963,-0.56711 -0.94907,-2.34708 -1.33328,-3.66666 -0.29474,-1.01205 -1.11441,-2.62534 -1.66672,-4.33334 -0.42285,-1.30768 -0.43094,-1.43094 -0.66666,-1.66666 -0.23572,-0.23572 -0.56418,-0.39536 -1,-1 -0.27563,-0.38245 -0.63348,-1.69348 -3.33334,-5 -1.64658,-2.01657 -3.15289,-4.89783 -3.33328,-5.33334 -0.12753,-0.30795 -0.35535,-0.9838 -1.33334,-2.33331 -2.38766,-3.29465 -3.52097,-4.87677 -5,-7.33334 -0.76892,-1.2771 -1.33334,-3.33334 -2,-4 -0.33334,-0.33334 -0.76428,-0.0976 -1,-0.33334 -0.23569,-0.23569 -0.23083,-0.39529 -0.66666,-1 -0.27563,-0.38242 -0.97345,-0.38928 -2.33334,-1 -1.63751,-0.73535 -4.12399,-2.12836 -5.33334,-3 -1.14728,-0.82687 -2.61575,-2.01373 -3,-3.33328 -0.29471,-1.01205 -1.13806,-1.52859 -0.66666,-2 0.23572,-0.23575 0.8959,0.26453 4,1.33328 3.8985,1.34232 4.66666,0.66672 4.66666,0 0,-0.33328 0.46155,-0.0706 0.66669,-0.33328 0.84579,-1.08328 -1.37198,-4.32129 -1.66669,-5.33334 -0.38425,-1.31958 -0.71643,-1.49139 -1,-1.66666 -0.63403,-0.39191 -0.97461,-0.87247 -0.66666,-1 0.87103,-0.36078 0.9725,0.68555 1.66666,1.66666 1.92523,2.72113 4.69553,6.46021 5.33334,8 0.90201,2.17761 1.60373,5.37961 3.33334,7.66666 1.28745,1.70236 2.24878,3.38708 3.33328,5 0.92999,1.38309 1.52689,2.62866 5,7.66669 1.47766,2.14343 3,4.33331 4,6 1,1.66666 1.27463,3.50455 2,3.33331 0.3244,-0.0766 -0.14319,-0.42261 -1,-2 -3.3107,-6.09509 -5.81464,-9.70361 -8.33328,-14.33331 -1.01999,-1.87491 -2.66672,-4.33334 -4.33334,-6 -0.33334,-0.33334 -1,-1.33334 -1,-2.33334 0,-0.33334 0.95715,0.0984 3.33334,3.33334 6.90381,9.3988 9.27365,17.19696 10.33328,19.66666 1.37219,3.19818 3.15912,5.87747 4.66672,8 1.12549,1.58463 2.10907,3.5806 3.66666,5.66666 0.71906,0.96301 1.96741,2.27481 1.33334,2.66669 -1.41779,0.87622 -3.64011,-5.06491 -5.33334,-10 -1.65482,-4.82303 -2.61594,-8.41156 -2,-8.66669 0.43555,-0.18039 0.599,0.75217 1,1 0.89667,0.55417 1.55954,1.04233 2,2 0.81216,1.76584 1.80786,3.50195 3,4.66669 2.05103,2.00388 3.11572,3.09622 4.66666,4 1.84412,1.07462 3.28946,3.09619 4.66669,3.66666 0.97385,0.40338 2.98846,1.68222 4.33331,2.66666 4.62759,3.38739 8.13074,4.31479 10.33334,5.33334 1.09085,0.50446 2.9595,1.16449 4,1.33334 1.64514,0.26697 2.62616,-0.16449 3.66666,-0.33334 1.31613,-0.21359 2.29285,0.16449 3.33334,0.33334 1.31613,0.21359 3.00485,-0.0985 4,0 1.69138,0.16748 3.66275,0.30038 6.33334,0 3.32895,-0.37445 6.01291,-0.83981 7,-1 1.0405,-0.16885 2,-0.33334 2.66666,-0.33334 0.66666,0 0.64471,-1.28525 1.33334,-1 0.97385,0.40341 -0.77548,2.97406 -5.33334,22.33334 -4.78091,20.30676 -5.31839,22.18304 -5.66666,23.33331 -0.28979,0.95709 -0.38409,1.07822 -1,1.33334 -0.43558,0.18039 -0.53912,0.3587 -0.66672,0.66666 -0.5412,1.30655 -1.29254,1.68869 -1.66666,2.33334 -1.20651,2.07898 -2.20236,3.80255 -3,5.66666 -0.65567,1.53229 -2.37875,2.16544 -4,6.33334 -0.87973,2.26163 -0.92133,3.66666 -1.66666,3.66666 -0.74536,0 -0.48587,-1.05411 1,-5 2.42166,-6.43097 8.64835,-24.34119 11.66666,-31.33331 3.31326,-7.67538 4.82446,-10.29001 5.66666,-13.66669 0.41135,-1.64914 0.44516,-7.03867 1,-11 0.33661,-2.40323 1.33334,-3.66666 1.33334,-5 0,-0.66666 0.20578,-1.02533 0.33334,-1.33331 0.18039,-0.43555 -0.68472,-1.18912 -1.66669,-1 -1.76266,0.33945 -3.36682,0.74335 -4.33331,1 -2.59738,0.68976 -3.33334,1.33331 -5,1.33331 -1.33334,0 -2.64197,-0.16583 -4.33334,-0.33331 -1.65854,-0.16422 -4.48145,0.75076 -8,-0.33334 -3.27972,-1.0105 -6.31451,-2.06985 -8.66666,-2.66666 -2.97879,-0.7558 -6.78806,-1.23944 -11,-2.66669 -3.81464,-1.2926 -3.88043,-2.10675 -3,-1 1.9577,2.46097 13.396,23.33664 19.66666,38.33334 3.90454,9.33801 3,10.66666 3,12 0,0.66666 -0.0761,2.18915 2.33334,-4 2.00171,-5.14175 6.24756,-12.83118 8,-15.66666 1.17557,-1.9021 1.82498,-4.50439 0.33331,-8 -0.76288,-1.78769 -1.83276,-2.646 -2,-4.66669 -0.0825,-0.99658 0.33334,-1 2,-1 0.66669,0 4.83795,-0.39209 4.66669,0.33334 -0.0766,0.32443 -3.89862,-1.14346 -10.66669,-2.33334 -9.57144,-1.68274 -14.60251,-0.45264 -16,1.66669 -0.55051,0.83484 7.45071,2.47479 19.33334,15.66666 3.21747,3.57196 1.76398,5.95627 -7.33334,-4 -6.29974,-6.89456 -5.20395,-11.92755 -4.33331,-11.33334 2.1503,1.46762 2.4444,3.91681 4.66666,7 1.40549,1.94998 0.2196,2.78125 -0.66666,0.33334 -0.68085,-1.88055 2.48627,-2.56445 2.66666,-3 0.12756,-0.30798 -4.00195,2.35538 -15.33334,1.33334 -17.55762,-1.58362 -20.23639,-8.21332 -21.33328,-10.66669 -0.8605,-1.92459 -1.28473,-5.07053 -4.33334,-6.33331 -0.30798,-0.12756 -1.19284,-0.4429 -2,-1.33334 -3.80579,-4.19846 -3.16693,-8.31949 -3,-11.33334 0.0553,-0.99847 -1.96286,-1.39801 -3.66666,-2.33331 -0.65341,-0.35867 -1.07062,-0.87183 -1.33334,-0.66669 -1.08328,0.84579 0.0516,3.0159 -0.33334,7.66669 -0.33447,4.04135 -2.3707,9.63943 -3.33331,11 -1.38831,1.96225 -3.31839,2.8497 -3.66669,4 -0.28979,0.95709 0,1.33331 0,2.33331 0,0.33334 0.25238,0.99567 2.33334,1.33334 3.61932,0.58731 7.45819,0.41409 9,1.33334 2.23615,1.33319 3.58759,3.3501 4.33334,6.66666 0.30148,1.34088 0.30618,4.33737 0.66666,6.66666 0.31006,2.00375 0.66666,4.33334 0.66666,6.33334 0,1.66666 -0.18362,3.6734 -0.33331,5.33334 -0.33469,3.7117 -1.31024,6.73596 -2,9.33331 -0.4278,1.61084 -0.003,2.59677 0.33331,5 0.0925,0.66025 0,0.33334 0.33334,0.33334 1,0 6.33676,0.51559 9.66666,0.66666 3.67804,0.16684 6.21631,0.0653 7,1.33334 0.17526,0.28357 0.0242,0.48871 0.66669,0.66666 1.87311,0.51883 2.66666,1.33334 3.66666,2.33334 0.66666,0.66666 2.55154,1.92807 3.33334,4.66666 0.46658,1.6344 1.04959,3.71127 0.66666,5.33334 -0.17126,0.7254 -0.38278,1.29034 -0.66666,1.66666 -2.06668,2.73984 -3.70663,7.31546 -5.33334,11 -1.0253,2.32233 -2.58136,4.25674 -5,6 -1.91211,1.37817 -3.18875,1.74863 -4,2.33334 -0.85513,0.61633 -0.6413,1.12756 -0.33334,1 1.30655,-0.5412 9.69861,-5.20126 15.33334,-10 3.23004,-2.75079 6.79562,-5.63922 7.66666,-6 0.30798,-0.12756 1,0 2.66669,-0.33334 1.66666,-0.33331 2.63919,-0.12894 3,-1 0.12756,-0.30795 0,0 -0.33334,0.33334 -3.66666,3.66666 -6.67505,5.29376 -8.33334,5.66666 -1.34088,0.30151 -2.76617,1.27371 -3.33328,2.33334 -0.78647,1.46945 -0.35007,1.32355 2,-2.66666 7.28171,-12.36389 10.72058,-22.73874 13,-31 1.48618,-5.38641 2.06601,-7.13367 0.33328,-3.33334 -6.34451,13.91531 -6.71771,17.79645 -8.66666,18.66666 -1.85141,0.82666 -2,0 -2.33334,0 -0.33328,0 -0.56567,-0.26797 -2.33328,-7 -2.69034,-10.24619 -3.71344,-18.46515 -5.66672,-22.33331 -1.7522,-3.47 -1.94653,-4.35312 3.33334,10 4.04095,10.98502 7.51358,16.673 9,15.66666 2.20816,-1.495 -9.9545,-15.23917 -7.33334,-18.33334 0.21545,-0.25433 0.35086,2.03754 -5.33328,4.66669 -3.65561,1.69086 -5.311,0.9223 -8.66672,0 -2.65045,-0.72845 -4.11411,-1.52115 -5,-2.33334 -1.57324,-1.44235 -3.08322,-3.00131 -3,-5.66666 0.16675,-5.34116 1.19528,-9.47141 1.66672,-9 2.59268,2.59271 0.26563,6.00052 0.33328,10.33331 0.16672,10.67059 0.28522,11.3288 1,4 1.56158,-16.01059 4.5928,-23.05933 0.66672,-29.33331 -1.27515,-2.03763 -4.43091,-1.3829 -4.33334,-0.33334 0.31757,3.41714 2.66666,3.66666 1.33334,2.33334 -1.33334,-1.33334 -6.25388,-4.71396 -7.66672,-7 -0.63184,-1.02234 -0.0101,-1.08359 -0.33328,-1.66669 -1.52444,-2.75046 -6.63156,-3.33148 -6.66672,-3 -0.50281,4.74606 25.58878,8.35922 29.66672,3.33334 1.05011,-1.29422 -5.02762,-4.77499 -10.66672,-5.33334 -1.69138,-0.16748 -1.94278,0 -1,0 1.88562,0 1.33398,-1.69778 1,3.66669 -1.40848,22.62286 -0.84515,32.82147 0.33334,34 0.47141,0.47141 5.48611,-10.75201 6.66666,-13.66669 1.79172,-4.42352 3.00003,-10.66666 1.66672,-10.66666 -2.33334,0 -2.48276,16.71814 -0.66672,20.66666 1.77283,3.85449 8.8515,1.85068 6.33334,-0.33331 -3.56122,-3.08865 -11.3176,2.11557 -10.33334,0 3.49261,-7.50717 14.91354,-11.59024 14.33334,-12.33334 -1.19614,-1.53198 -10.51239,10.1452 -12.33334,7.33334 -1.14597,-1.76953 11.66672,-3.66669 17.33334,-4.33334 l 1,3.33334 1.33334,3 0.33331,0.33331" inkscape:connector-curvature="0" style="fill:none;stroke:#63dbb5;stroke-width:11"/>
            <path stroke-linejoin="null" stroke-linecap="null" id="svg_35" d="m 452.20001,434.79999 c -0.43298,0 -1.34943,0.31796 -2.16495,0.80002 -2.33539,1.3804 -3.14206,2.56754 -5.19589,3.19998 -1.2323,0.37949 -2.08862,0.99451 -3.03094,1.20001 -0.8428,0.18381 -1.22263,0.19449 -2.16495,0.39999 -0.42139,0.0919 -0.76645,0.41071 -0.86597,0.80002 -0.22244,0.87048 -0.43298,1.19998 -0.866,1.19998 -0.86597,0 -0.73318,0.58353 -1.29895,0.80002 -0.39999,0.15308 -0.46594,0.24692 -0.866,0.39999 -0.5657,0.21646 -0.55978,0.51715 -0.86597,0.79999 -0.30615,0.28284 -0.9465,0.67703 -1.73196,1.20001 -0.49673,0.33075 -1.22293,0.43912 -1.73196,1.19998 -0.22763,0.34027 -1.36484,0.89386 -2.16495,1.20001 -0.5657,0.21646 -0.70026,0.43045 -0.86597,0.79999 -0.23431,0.52264 -1.96063,1.24734 -2.16495,1.60001 -0.73666,1.27158 -2.60953,1.50812 -3.03091,1.60001 -0.94229,0.20551 -1.42831,0.77945 -2.16495,1.20001 -0.82361,0.47021 -0.94653,1.077 -1.73196,1.59998 -0.49677,0.33078 -1.22266,0.99451 -2.16495,1.20001 -0.84283,0.18381 -1.73196,0.39999 -2.16495,0.39999 -0.43298,0 -0.866,0 -0.43298,0 0.43298,0 1.74353,-0.30807 2.16495,-0.39999 0.94229,-0.20551 1.86615,-0.935 3.03091,-1.60001 1.04178,-0.59479 3.24164,-2.69095 3.89691,-4 1.32309,-2.6431 1.24603,-4.40298 1.29895,-4.79999 0.21814,-1.6369 0.43301,-2 0.43301,-2.39999 0,-0.40002 -0.43301,-0.40002 -0.86603,-0.40002 -0.86597,0 -2.1012,0.86926 -2.59793,1.20001 -0.78543,0.52298 -1.80087,0.64426 -3.03088,1.20001 -1.4024,0.63364 -2.6785,1.87701 -3.46393,2.39999 -0.9935,0.6615 -0.99283,1.31714 -1.29898,1.60001 -0.30615,0.28284 -0.96756,0.46088 -1.29895,1.19998 -0.23431,0.52261 -0.43298,0.80002 -0.86603,1.20001 -0.43295,0.39999 -0.86597,0.39999 -1.29895,0.39999 l -0.43295,0 0,-0.39999" inkscape:connector-curvature="0" style="fill:none;stroke:#63dbb5;stroke-width:11"/>
            <g id="svg_19">
                <g id="svg_17" style="fill:#000000">
                    <path d="m 388.74701,111.535 c -2.32501,2.325 -1.35602,6.975 2.32498,10.559 1.93701,1.744 4.26202,4.84299 5.23102,6.781 1.647,3.196 1.647,3.681 0.38699,5.618 -0.871,1.16301 -1.35599,3.584 -1.16199,5.619 0.29099,3.099 0.87198,3.87399 6.103,6.974 7.556,4.55301 10.46198,9.3 9.784,16.177 -1.06601,12.01199 -11.431,28.964 -27.31702,44.657 -6.00598,6.006 -11.431,10.946 -11.91498,10.946 -0.48502,0 -1.35703,-2.80899 -2.035,-6.29599 l -1.16202,-6.39401 5.909,-6.19899 C 380.901,193.68 384.388,187.38401 386.422,179.15 c 3.875,-16.46799 0.96899,-38.845 -6.29599,-47.46599 -1.841,-2.32501 -3.19702,-2.90601 -6.103,-2.90601 -2.034,0 -4.06802,0.58099 -4.55301,1.162 -0.58099,0.67799 -2.61499,6.68399 -4.55301,13.271 -1.93698,6.58701 -4.16498,13.078 -4.84299,14.43401 -1.259,2.325 -1.259,2.325 -4.26199,-3.972 -10.172,-21.698 -27.12402,-37.77901 -43.591,-41.26601 -6.491,-1.356 -34.97,-1.356 -45.72302,0 -20.43898,2.519 -43.59099,9.106 -63.83598,18.211 -11.043,4.94101 -11.14,4.94101 -20.924,4.94101 -5.425,0 -11.237,0.48399 -12.981,1.06499 -1.84,0.67801 -5.32701,3.681 -8.718,7.75 -3.10001,3.681 -8.13701,8.33101 -11.33301,10.36501 -6.588,4.26201 -12.59299,10.55901 -14.53099,15.30501 -0.77501,1.74399 -1.356,6.48999 -1.356,10.46199 0,4.843 -0.96899,10.849 -2.90601,18.502 -3.19699,12.496 -3.68099,21.311 -1.45299,25.67 1.937,3.681 4.16499,4.84401 9.396,4.84401 5.909,0 10.075,-3.19701 16.468,-12.496 l 5.32799,-7.847 0.58101,4.26199 c 0.58099,3.972 10.26801,27.12401 11.043,26.349 0.194,-0.194 -0.58099,-5.32799 -1.647,-11.431 l -2.034,-10.946 3.19701,-10.752 c 2.80899,-9.106 3.487,-10.65599 4.93999,-10.172 3.584,1.25999 9.59001,8.52501 19.664,23.636 13.562,20.343 13.272,20.052 18.599,20.052 3.875,0 4.84401,-0.48401 8.42801,-4.26201 3.584,-3.681 4.26199,-4.06799 5.812,-2.90599 2.422,1.841 6.68401,1.647 12.884,-0.48401 l 5.037,-1.74399 0,17.049 c 0,15.78999 0.194,17.43599 2.228,21.408 1.453,3.00299 3.293,4.94 6.006,6.297 l 3.87401,2.034 -5.71501,5.23099 c -10.849,10.07401 -18.502,22.37701 -23.345,38.069 l -2.616,8.42801 -3.87399,0 c -8.041,0 -12.49701,1.93701 -18.89,8.23401 -3.39,3.19699 -6.10301,5.521 -6.10301,5.03699 0,-0.38699 -1.06499,-1.84 -2.42099,-3.10001 -3.48801,-3.58398 -10.75301,-3.38998 -14.33701,0.194 -5.909,6.29602 -9.396,19.95502 -9.299,37.10101 0,5.61801 0.58099,11.91501 1.259,14.04599 1.065,3.487 0.96899,4.26202 -0.87201,7.26501 -1.74399,3.00299 -1.937,5.03699 -1.937,17.63 0,13.659 0.096,14.23999 2.32401,16.66199 1.938,2.034 3.29399,2.51801 6.97499,2.51801 5.81201,0 11.043,-3.77802 17.533,-12.59302 2.519,-3.487 7.26601,-9.202 10.55901,-12.883 l 5.909,-6.48999 3.584,3.00201 c 1.938,1.64697 5.909,4.35999 8.815,6.103 5.03799,2.80899 5.328,3.29398 6.103,7.84698 3.778,22.086 16.371,41.65302 35.93901,55.89301 7.26498,5.23099 33.323,12.302 52.793,14.23999 39.71698,4.06802 76.33298,-4.069 107.13699,-23.927 17.24301,-11.043 43.495,-34.97 58.21899,-53.08398 7.26501,-9.009 8.815,-12.884 6.00601,-15.69299 -2.71301,-2.71201 -6.58701,-1.259 -13.659,5.134 -14.24002,12.98099 -37.10101,25.57397 -60.737,33.41998 -19.76102,6.48999 -55.89301,15.49899 -62.48001,15.49899 -13.36801,0 -32.936,-8.91199 -46.30402,-21.21399 -7.94299,-7.16901 -10.36499,-20.53699 -6.58698,-36.229 2.616,-11.13998 8.52499,-19.76199 23.927,-35.26099 7.362,-7.362 13.36798,-18.599 19.17999,-36.13202 2.32498,-6.974 4.55301,-12.69 4.84299,-12.69 2.228,0 6.68402,4.069 8.91202,8.23401 2.51898,4.64999 2.616,5.03699 1.453,10.65601 -1.55002,7.556 -4.55301,13.65799 -8.52402,17.53299 -2.228,2.13101 -3.19699,3.97202 -3.19699,6.00601 0,3.58398 1.259,4.64999 6.297,5.42499 6.78,1.065 13.94901,3.58401 16.564,5.81201 l 2.51901,2.228 -3.00302,13.17401 c -3.29398,14.53 -3.77798,21.21399 -1.54999,23.05499 0.96899,0.87201 4.06799,0.96899 11.431,0.48401 7.362,-0.48401 10.26801,-0.38702 10.849,0.48499 0.77499,1.16199 -2.80899,6.87701 -13.659,21.98901 -7.45901,10.17099 -8.815,14.23999 -5.715,16.758 2.034,1.74399 10.849,0.67798 20.92398,-2.51801 15.40201,-4.84399 26.832,-11.81799 36.81,-22.37701 7.84601,-8.33099 11.33401,-14.33698 15.88702,-27.414 6.005,-17.04898 8.32999,-28.86697 8.91199,-44.56 0.67801,-17.92099 1.259,-17.24298 -13.56201,-15.69299 -15.78998,1.647 -27.31699,-0.38699 -35.16397,-6.19901 -3.39001,-2.51898 -16.08002,-18.88998 -29.25403,-37.87598 l -8.91199,-12.69 0,-6.68402 c 0,-6.97501 2.71201,-14.821 5.03699,-14.821 3.39102,0 19.37402,7.265 24.70203,11.23701 1.84,1.453 4.35898,2.32498 6.48999,2.32498 3.19699,0 3.77798,-0.48499 8.13699,-7.07199 5.715,-8.33099 12.884,-15.20799 15.88699,-15.20799 2.80902,0 14.04602,6.103 26.15402,14.14299 9.396,6.19901 13.85199,7.65201 16.07999,4.94 0.582,-0.58099 2.035,-3.97198 3.39099,-7.459 2.80902,-7.556 7.94302,-16.177 10.36502,-17.436 0.96899,-0.582 6.58698,-0.96899 12.39899,-0.96899 15.98398,0 16.75803,-1.744 8.815,-21.311 -8.815,-21.98999 -20.34201,-39.81299 -34.97,-54.34399 -5.42401,-5.424 -12.98001,-11.237 -24.41101,-18.79201 -16.177,-10.55899 -38.64999,-24.31499 -46.78699,-28.48 -4.55301,-2.228 -9.009,-2.615 -10.75299,-0.87199 l 0,0 z m -81.37,10.559 c 7.556,1.55 17.24298,7.07099 23.24899,13.077 6.29599,6.394 13.465,17.82399 17.82401,28.674 1.74298,4.45599 3.77798,8.233 4.45599,8.427 0.67801,0.194 1.74298,1.06599 2.32401,1.841 1.45398,2.034 5.522,0.87099 8.62198,-2.51901 3.39001,-3.487 6.00601,-8.71799 9.202,-18.114 l 2.61603,-7.75 1.16199,5.522 c 2.51901,11.62401 1.16299,22.47301 -3.87399,33.323 -2.616,5.521 -5.522,8.815 -11.91501,13.271 -3.10001,2.13101 -3.19699,4.843 -0.96899,18.01701 1.93698,10.84999 3.681,13.465 9.88098,14.33699 3.681,0.48401 4.552,0.097 9.20203,-3.487 8.71799,-6.68399 25.47699,-24.508 30.99799,-33.13 8.33099,-12.68999 10.65601,-19.08299 11.14001,-30.02899 0.48499,-11.14 -0.87201,-14.627 -8.52402,-21.505 -4.55301,-4.16499 -4.94101,-4.74699 -4.64999,-8.33099 l 0.29099,-3.875 9.68701,5.909 c 19.17999,11.528 39.81299,25.86501 45.431,31.386 11.72101,11.72099 23.24899,29.545 31.095,48.338 l 4.35901,10.36501 -7.65201,-0.67801 c -6.00601,-0.485 -8.23401,-0.388 -10.55899,0.87201 -4.26202,2.131 -10.07501,9.299 -13.659,16.564 -1.74301,3.487 -3.293,6.297 -3.487,6.297 -0.097,0 -4.45602,-2.616 -9.59003,-5.909 -17.62997,-11.043 -25.767,-13.562 -32.35397,-10.172 -2.80902,1.453 -15.69302,14.43399 -17.34003,17.437 -0.96899,1.84 -1.35599,1.743 -7.65298,-1.55 -10.55801,-5.522 -16.758,-7.556 -23.24802,-7.556 -5.32797,0 -6.103,0.291 -8.91199,3.10001 -4.94,5.231 -6.00601,9.009 -6.00601,21.60199 l 0,11.33301 8.91202,12.69 c 4.84299,7.07199 12.69,17.92099 17.436,24.121 16.85599,22.18298 22.95798,25.47598 47.17599,25.47598 l 13.94901,0 -0.67801,6.97501 c -1.26001,15.11099 -9.009,42.42902 -15.20901,53.181 -3.97098,6.97501 -9.87997,13.465 -16.564,17.92102 -6.19998,4.26199 -17.92099,10.07397 -22.37698,11.13998 -2.71201,0.58099 -2.616,0.29001 3.487,-8.42801 10.75299,-15.59598 11.72101,-19.56699 6.39398,-24.702 -2.81,-2.61499 -3.39099,-2.80899 -12.59299,-3.099 -8.42801,-0.29099 -9.59,-0.582 -9.203,-1.93799 2.61499,-8.621 5.42499,-24.12 4.84299,-26.832 -0.77399,-4.16602 -8.23297,-11.431 -13.56097,-12.98102 -2.034,-0.67798 -4.35901,-1.35599 -5.03702,-1.54999 -0.87198,-0.29001 -0.582,-1.453 0.871,-4.26199 3.00299,-5.81201 4.74701,-13.36801 4.74701,-20.73001 0,-10.17099 -4.06799,-16.758 -14.53,-23.44199 -3.48801,-2.32501 -6.97501,-4.94101 -7.65302,-5.716 -0.77499,-0.871 -2.51898,-1.55002 -4.06799,-1.55002 -2.32501,0 -2.90698,0.48502 -3.68201,3.58502 -0.58099,2.034 -1.065,4.552 -1.065,5.61798 0,3.487 -8.42798,27.12302 -12.59299,35.35703 -2.80899,5.52197 -6.297,10.36499 -11.043,15.40198 -15.30499,16.27402 -21.11801,24.41101 -23.34601,32.936 -4.06799,15.79001 -3.681,32.548 0.87201,41.45999 4.16599,8.23401 17.72699,19.664 31.19199,26.34802 10.94601,5.328 18.50201,7.16898 29.93301,7.16898 8.815,0.096 11.72101,-0.48499 32.45099,-5.81299 27.22,-7.168 43.49402,-12.39899 55.79602,-18.211 5.03799,-2.32501 8.91199,-3.875 8.62198,-3.39001 -0.29099,0.48401 -5.03699,4.45602 -10.46201,8.815 -29.448,23.733 -55.31198,34.582 -89.89499,37.77902 -20.052,1.84 -44.26898,-1.35602 -66.258,-8.815 -9.49301,-3.19702 -11.33401,-4.263 -18.599,-10.36502 -12.787,-10.84998 -22.86101,-29.35199 -24.992,-46.013 -0.485,-3.681 -1.356,-5.13397 -4.84399,-8.42798 -2.42101,-2.228 -6.19901,-4.94 -8.621,-6.00601 -4.64999,-2.32498 -6.97501,-5.909 -7.94299,-12.78601 -0.77501,-4.84399 -2.81001,-7.45898 -5.81201,-7.45898 -2.519,0 -6.2,4.16501 -6.2,6.974 0,3.875 -3.19701,9.203 -9.106,15.306 -3.39,3.487 -7.94299,9.008 -10.26799,12.302 -4.06801,5.909 -7.94301,9.49301 -9.106,8.33099 -0.871,-0.87201 -0.67801,-11.91501 0.388,-16.177 0.48399,-2.422 1.937,-4.64999 3.778,-6.103 3.681,-2.90601 3.681,-3.97198 0.48399,-10.46201 -3.09999,-6.48999 -3.875,-13.659 -2.325,-23.82999 1.25999,-8.91202 4.45599,-18.599 5.909,-17.82401 0.485,0.388 0.87201,6.78101 0.87201,14.23999 0,14.82101 0.77499,17.24301 5.32799,17.24301 3.293,0 4.843,-2.71301 6.58701,-12.10901 4.06799,-20.827 13.562,-31.19199 25.864,-28.47998 13.077,2.90698 24.799,13.56198 29.64201,26.92999 0.96899,2.422 2.32498,5.23099 3.09998,6.103 1.93701,2.228 5.328,2.228 7.26501,0 1.54999,-1.647 1.453,-2.228 -0.67801,-8.52499 -3.58398,-10.55801 -6.103,-14.724 -13.077,-21.60101 -4.45599,-4.35999 -8.13699,-7.07199 -11.334,-8.33099 -2.616,-0.96899 -4.84399,-1.841 -4.94,-1.93799 -0.582,-0.38702 5.42401,-16.85501 7.94301,-21.79501 3.778,-7.556 10.46199,-16.66199 15.11099,-20.633 5.134,-4.45599 15.112,-9.29999 28.189,-13.75601 9.88101,-3.38998 10.46201,-3.77798 11.52802,-6.974 0.96799,-3.00299 0.87201,-3.681 -0.87201,-5.328 l -1.93701,-1.93698 -6.103,1.93698 c -6.97498,2.228 -27.995,3.681 -30.901,2.13101 -0.96899,-0.48401 -2.228,-2.32501 -2.81,-3.97202 -1.45299,-4.16498 -1.35599,-33.51599 0.097,-39.03798 1.06601,-3.875 0.96899,-4.55301 -0.67801,-6.39301 -1.84,-2.034 -5.715,-2.616 -6.78099,-0.96899 -0.77501,1.25899 -10.26801,6.103 -10.752,5.52199 -0.291,-0.291 2.131,-3.875 5.32799,-8.03999 6.78,-9.009 18.98601,-21.118 20.63301,-20.44 0.87201,0.194 1.16199,2.228 1.065,6.103 -0.67801,26.73601 -0.58099,29.836 1.647,36.616 1.647,5.328 3.19699,7.944 7.26498,12.10901 5.03702,5.231 5.23102,5.328 11.52802,5.715 5.81198,0.388 7.168,0.097 12.883,-2.71201 7.45898,-3.681 18.30899,-13.94899 24.121,-22.66699 3.58398,-5.425 3.77798,-6.2 4.06799,-14.24001 0.48499,-12.302 -2.13101,-19.47099 -16.27399,-43.49399 -7.94302,-13.46501 -13.85202,-19.47101 -21.40802,-21.69901 -10.94598,-3.29401 -27.12299,-1.453 -54.82799,6.103 -16.08,4.35901 -19.955,6.19901 -23.927,11.14 -4.35901,5.327 -4.649,14.14301 -1.065,27.317 1.453,5.231 3.487,12.593 4.45599,16.371 1.93701,7.265 2.519,15.886 1.259,18.211 -0.67799,1.16299 -3.39,-2.228 -11.043,-13.658 -10.17101,-15.209 -19.27699,-25.57399 -23.83,-27.31799 -6.78099,-2.61501 -17.145,0.388 -22.76399,6.491 -1.453,1.453 -5.61801,7.265 -9.29901,12.883 -7.75,11.625 -9.49399,13.46501 -11.14,11.81801 -0.87199,-0.87201 -0.388,-4.16501 1.93701,-13.465 2.131,-8.427 3.09999,-14.72401 3.09999,-19.567 0,-11.431 4.65001,-18.405 15.20801,-22.95801 1.74399,-0.77499 4.84399,-3.681 6.97499,-6.49001 7.74901,-10.36499 9.39601,-11.043 22.183,-9.978 l 7.459,0.67801 12.10901,-5.52101 c 20.245,-9.20299 44.075,-16.17699 63.93298,-18.69599 9.49301,-1.259 31.19202,-1.162 37.00403,0 l 0,0 z M 284.613,158.323 c 7.168,2.131 9.29898,4.26201 16.66098,16.758 12.69,21.60201 17.14603,32.45201 16.27402,39.13501 -1.065,8.23399 -12.78601,21.79599 -23.24802,26.92999 -4.94098,2.422 -6.58698,2.80901 -8.62198,2.034 -8.13702,-3.099 -12.689,-21.698 -9.396,-38.16599 3.29398,-15.983 -4.45602,-26.34801 -16.27402,-21.89301 -5.425,1.938 -25.18599,23.24899 -30.707,32.839 l -2.325,4.16499 -0.67799,-3.77699 c -0.77501,-4.65001 -3.584,-16.468 -6.78101,-27.996 -3.487,-12.302 -2.228,-16.66101 5.812,-19.664 4.94,-1.841 24.60501,-7.071 35.842,-9.396 12.689,-2.71301 16.952,-2.90601 23.44202,-0.96901 z" id="svg_18" inkscape:connector-curvature="0" style="fill:#000000"/>
                </g>
            </g>
        </g>
    </g>
</svg>