<svg xmlns="http://www.w3.org/2000/svg" width="100" height="100">
    <g transform="matrix(.1601 0 0 .16406 .303 1.462)">
        <ellipse cx="459.667" cy="467" rx="118.808" ry="86.038" transform="rotate(-35.383 459.667 467)" fill="#63dbb5"/>
        <ellipse cx="490.333" cy="174" rx="96.667" ry="78" fill="#63dbb5"/>
        <ellipse cx="175" cy="124.667" rx="96.667" ry="78" fill="#63dbb5"/>
        <ellipse cx="310.5" cy="301" rx="305" ry="295" fill="#63dbb5"/>
        <ellipse cx="314" cy="302.5" rx="233" ry="228.5" fill="#2f6651"/>
        <ellipse cx="525.5" cy="309.123" rx="61.5" ry="66.123" fill="#5ed0ac"/>
        <ellipse cx="100.5" cy="291.123" rx="61.5" ry="66.123" fill="#5ed0ac"/>
        <path d="M277 1.1c-27 2.5-50.9 7.1-75 14.6C124.7 39.6 73.4 82.3 40 150.5c-16.6 33.6-27 69-31.5 106-.9 7.1-2.1 15.7-2.7 19-.6 3.3-1.2 7.7-1.3 9.8-.2 2.1-.9 6.8-1.7 10.5-.9 4.6-1.3 14.3-1.2 31.2 0 22.2.3 25.7 2.7 38 6.2 31.9 18.1 62.9 34.7 90.8 27.7 46.6 78.2 89.5 135.8 115.6C235.2 598.8 303 607.9 371 598c45.6-6.7 94.4-24.6 128-47.1 36.1-24.1 64.3-57.1 85-99.4 16.6-33.6 27-69 31.5-106 .9-7.2 2-15.7 2.6-19 1.9-11.1 2-13.9 2.5-47.8.5-31.2.4-34.7-1.5-44.6-5.5-28.7-18-60.9-34.1-87.9-27.7-46.6-78.2-89.5-135.8-115.6-30.9-14-64.9-23.5-100.2-28.1-15.1-1.9-57.1-2.8-72-1.4zm67 11.4c65.2 8.3 124.5 33.5 174.9 74.4 46.6 37.7 78.5 92.2 90.8 155.1 2.4 12 2.7 15.8 2.7 34.5-.1 16.8-.4 22.1-1.7 26.5-1 3-1.9 6.8-2.1 8.5-.6 5.1-6.1 18.1-11 25.9-6.4 10.2-15.4 18.4-26.5 23.9-11.2 5.7-25.6 9.2-34.1 8.4-3.3-.3-6-.1-6 .4 0 1.2-12 1.1-20-.2-7.7-1.2-17.2-5.5-21.7-9.7-7.5-7-15-21.5-19.9-37.9-2.9-10-2.8-15.7.7-30.3 5.5-22.8 16.4-35.1 35.3-40 9.5-2.4 15.4-2.5 27.2-.5 9.5 1.7 15.6 4.5 18.6 8.5 2.6 3.6 10.8 25.9 12.2 33.1.7 3.9-1.3 10.7-6 20.3-5.7 11.7-17 18.1-27.4 15.6-12.4-3-21-12.2-19.5-20.8.7-4.1 6.9-15.2 8.6-15.2.5 0 1.9 2.1 3 4.7 1.2 2.7 2.5 5.5 2.9 6.3.4.9 2.4 1.6 4.8 1.8l4.2.3-.6-4.8c-1.1-8.7-2.5-12.6-5.9-16-2.8-2.8-4-3.3-7.9-3.3-3.8 0-5.2.6-8.3 3.4-2.1 1.9-5.3 6-7.2 9.1-3 5-3.5 6.7-3.9 14-.4 7.1-.1 9 1.7 12.9 2.8 5.7 9.7 12.1 16.9 15.4 5 2.4 7 2.7 15.7 2.7 12.3 0 17.2-1.9 24.9-9.9 13-13.6 19.6-38.7 18.3-70-1-23.1-5.7-42.4-14.8-61.5-4.9-10.1-22.6-36.6-34.5-51.6-12.6-15.8-43.4-46.3-57.4-56.7-34.4-25.6-70-40.7-112.2-47.5-16-2.5-66.6-2.6-84.8 0-49.6 7-92.7 21.9-127.9 44.2C95.2 118.8 54.9 167.6 25.9 232c-2.1 4.7-3.9 7.8-3.9 6.9 0-2.5 6.6-28.7 10-39.4 4.8-15.1 11.5-31.6 18.7-45.9 24.7-49.3 58.1-83.7 103.8-106.8 39-19.7 80.9-31.4 127.5-35.7 13.9-1.3 46.4-.5 62 1.4zm10.5 39.9c41.6 6.7 77.4 21.9 111.5 47.4 13.8 10.3 40 36.2 52.3 51.7 12 15 29.7 41.5 34.6 51.6 8.4 17.6 13.7 38.4 14.6 57.8l.5 10.6-2.3-6.6c-3.7-10.8-8.4-16.3-18-21.1-2.5-1.3-3.5-3.2-7.3-14.9-5.4-16.3-16.8-39.7-26.3-53.9-33-49.7-86.1-86.8-143.6-100.3-21.4-5.1-32-6.2-59-6.2s-37.6 1.1-59 6.2c-31.8 7.5-63.3 22.6-91 43.6-17.7 13.6-39.3 36.7-52.3 56.2-7 10.5-20.3 35.8-22.3 42.4-1.2 3.9-1.2 3.9-7.3 4.6-14.2 1.6-30.9 7.4-39.9 13.7-1.6 1.1-3 1.8-3.3 1.6-.5-.6 9.6-21.3 16.6-33.8 51.6-92.1 128.1-140.4 241.5-152.4 9.3-.9 50.3.3 60 1.8zM344 80.5c25.5 3.9 47.6 10.7 70.5 21.9 46.6 22.8 80.1 55.7 103 101.1 6.3 12.5 14.5 32.7 14.5 35.8 0 .9-3.2 1.1-11.5.9-20.5-.6-32.8 4.1-45 17-11 11.5-17 28-18.2 49.3-.5 9.5-.3 12.1 1.6 19 3.5 12.4 7.7 22.2 13.7 31.2 11.6 17.5 24.8 24.3 47.2 24.3 8.7 0 8.7-1.3.3 16.5-11.6 24.4-24.9 43.4-43.6 62.1-18.6 18.7-37.1 31.8-62 44-33.9 16.5-65.4 23.8-103 23.8-37.6 0-69.1-7.3-103-23.8-37.8-18.5-67-43.8-89.3-77.1-11.3-16.9-22.9-41.4-28.6-60.5l-1.4-4.6 12.7.4c21.9.7 34.1-3.8 46.6-17 11-11.5 17-28 18.2-49.3.5-9.5.3-12.1-1.6-19-7-25.4-19.8-43.9-35.2-50.9-6.3-2.9-15.6-4.6-25.1-4.6-5.2 0-6.8-.3-6.8-1.4 0-2.7 14.5-30.1 21.2-40.1 22.3-33.3 51.5-58.6 89.3-77.1 27.2-13.2 52.6-20.3 86-23.8 8.1-.8 39.3.4 49.5 1.9zM113 232.1c7.7 1.2 17.2 5.5 21.7 9.7 7.5 7 15 21.5 19.9 37.9 2.9 10 2.8 15.7-.7 30.3-5.5 22.8-16.4 35.1-35.3 40-9.5 2.4-15.4 2.5-27.2.5-9.5-1.7-15.6-4.5-18.6-8.5-2.6-3.6-10.8-25.9-12.2-33.1-.7-3.9 1.3-10.7 6-20.3 5.7-11.7 17-18.1 27.4-15.6 12.4 3 21 12.2 19.5 20.8-.7 4.1-6.9 15.2-8.6 15.2-.5 0-1.9-2.1-3-4.8-1.2-2.6-2.5-5.4-2.9-6.2-.4-.9-2.4-1.6-4.8-1.8l-4.2-.3.6 4.8c1.1 8.7 2.5 12.6 5.9 16 2.8 2.8 4 3.3 7.9 3.3 3.8 0 5.2-.6 8.3-3.4 2.1-1.9 5.3-6 7.2-9.1 3-5 3.5-6.7 3.9-14 .4-7.1.1-9-1.7-12.9-2.8-5.7-9.7-12.1-16.9-15.4-5-2.4-7-2.7-15.7-2.7-12.3 0-17.2 1.9-24.9 9.9-13 13.6-19.6 38.7-18.3 70 1 23.1 5.7 42.4 14.8 61.5 4.9 10.1 22.6 36.6 34.5 51.6 12.6 15.8 43.4 46.3 57.4 56.7 34.4 25.6 70 40.7 112.2 47.5 16 2.5 66.6 2.6 84.8 0 49.6-7 92.7-21.9 127.9-44.2 50.9-32.3 91.2-81.1 120.2-145.5 2.1-4.7 3.9-7.8 3.9-6.9 0 .8-1.5 7.8-3.4 15.5-18 73-53.5 128.1-104.6 162.3-48.9 32.7-124.4 53.3-186 50.7-75-3.1-145-29.5-202.9-76.5-46.6-37.7-78.5-92.2-90.8-155.1-2.4-12-2.7-15.8-2.7-34.5.1-17.1.4-22 1.8-26.5.9-3 2.1-7.5 2.6-10 1.2-6.6 5.3-16.3 10.5-24.5 13.3-21.3 37.9-33.2 69.5-33.4 5.8 0 13.4.4 17 1zM63.4 347.9c2.4 3.4 9.5 9.2 12.7 10.3.4.2 2.2 5 3.9 10.7 18.7 63.1 63.3 115.2 123.5 144.7 23.2 11.3 44.7 17.9 71.5 22.1 16.2 2.5 56.8 2.5 73 0 51.8-8 96.1-29.7 132.3-64.6 24.8-24 44.1-52.4 55.7-81.7l3.2-8.2 7.8-1.1c14.7-2.2 28.5-7.1 37.3-13.3 1.6-1.1 3-1.8 3.3-1.6.5.6-9.6 21.3-16.6 33.8-49 87.6-121.8 136.2-226 150.7-17.9 2.5-59.1 2.5-74.8 0-42.2-6.8-77.8-21.9-112.2-47.5-13.8-10.3-40-36.2-52.3-51.7-12-15-29.7-41.5-34.6-51.6-8.4-17.6-13.7-38.4-14.6-57.8l-.5-10.6 2.3 6.6c1.2 3.7 3.5 8.5 5.1 10.8z"/>
        <path d="M-122 219c9 5 23.572 7.234 54 41 2.414 2.678 6.188 6.944 7 10 1.31 4.928 3.824 7.098 5 9 .526.85 2 3 3 3v1" fill="none"/>
        <path stroke-linejoin="null" stroke-linecap="null" d="M167 188s-.693-.46-2-1c-.924-.383-1-1-2-2s-2.027-.77-3-1c-2.176-.514-2.617-1.076-3-2-.54-1.307-2-1-2 0s-.293 1.293-1 2l-2 2c-.707.707-1.617 1.076-2 2-.54 1.307-1 2-1 3s-.46 1.693-1 3c-.383.924 0 2 0 3s-.235 2.152-1 4c-.54 1.307-1.293 1.293-2 2-.707.707.707 2.293 0 3-.707.707-2 0-2 1s-1.46.693-2 2c-.383.924 0 2 0 3s-1 1-1 0 .46-2.693 1-4c.765-1.848-.406-4.504 2-9 1.335-2.494 4.416-6.76 6-10 1.39-2.84 2.337-6.31 4-9 .744-1.203 1-2 1-3s1-2 1-3 1-3 1-4-.707-2.293 0-3c.707-.707 2.152.765 4 0 2.613-1.082 3.186-1.693 5-3 1.147-.827 2.098-3.824 4-5 .85-.526 1.617-1.076 2-2 .54-1.307 2-2 2-3s1.293-.293 2-1c.707-.707 0-2 1-2s1.617.076 2 1c.54 1.307 2 2 3 2s1.693.46 3 1c.924.383 3.824 1.486 6 2 .973.23 1.693-.46 3-1 .924-.383 1.693-1.46 3-2 1.848-.765 2.693-1.46 4-2 .924-.383 2.46.307 3-1 .383-.924 1-2 3-2 1 0 1.693-.46 3-1 .924-.383 2.46.307 3-1 .383-.924 1-2 2-2s1.693-.46 3-1c1.848-.765 3 0 5 0 1 0 3 1 3 0s-2.04-.48-5 0c-3.12.507-7.934 3.144-10 4-5.843 2.42-7.88 3.493-11 4-1.974.32-3 0-4 0s-1.707-1.293-1-2c.707-.707 2.01.14 3 0 7.21-1.01 15.083-2.694 23-5 3.036-.884 4.88-2.493 8-3 1.974-.32 6.565 1.28 10-1 4.165-2.766 4.693-5.46 6-6 1.848-.765 5.03.546 10 0 9.164-1.006 11.882-2.19 15-4 1.934-1.122 5-1 7-1 1 0 2.693-.46 4-1 .924-.383 2.853-.173 4-1 1.814-1.307 3.586-3.414 5-2 .707.707.293 1.293 1 2 .707.707-1 1-2 1-2 0-7 2-8 2h-12c-3 0-6 1-12 3-3 1-6.693 2.46-8 3-2.772 1.148-4 0-5 0-2 0-4.027.23-5 0-2.176-.514-3-1-4-1h-6c-1 0-1 1 0 1 2 0 4.107-.92 8 0 4.353 1.027 6.293 2.293 7 3 .707.707 1 1 1 2s-1 2-2 2-1.853.173-3 1c-1.814 1.307-1 1 0 1h4c1 0 4-1 8-1s7.964-1.116 11-2c3.96-1.153 5.31-1.337 8-3 1.203-.744 2-1 3-1h6c2 0 3.026-.32 5 0 3.12.507 6.186.693 8 2 1.147.827.88 1.344 2 3 3.02 4.46 8.692 3.41 12 8 1.307 1.814 3.076 1.617 4 2 1.307.54 1.693 1.186 3 3 .827 1.147 2.15 1.474 3 2 1.902 1.176 1.293 2.293 2 3 .707.707.293 1.293 1 2 .707.707 1.293.293 2 1 .707.707 1 1 1 2s1.46 2.693 2 4c.765 1.848 0 4 1 5s2 2 2 3 2 3 2 4c0 2 0 3 1 4s2 2 2 3v3c0 1 .173 2.853 1 4 1.307 1.814 1 3 1 5s-.23 5.027 0 6c.514 2.176 1.493 2.88 2 6 .16.987.173 4.853 1 6 1.307 1.814 2 3 2 2 0-2-.213-4.008 0-7 .5-7.053 1-12 2-16s1-5 1-7c0-3 1-6 1-7v-23c0-2-.293-3.293-1-4-.707-.707-.46-1.693-1-3-.383-.924 0-2-1-2s-1-1-2-1-1.293-.293-2-1c-.707-.707-2-1-3-3s-4-4-5-5l-5-5c-2-2-4.152-2.235-6-3-1.307-.54-2.076-1.617-3-2-1.307-.54-1-2-2-2h-6c-1 0-2 0-3-1s-2-1-4-1c-1 0-1.617-1.076-2-2-.54-1.307-1.066.144 1 1 2.922 1.21 6 2 8 3 4 2 6.518 3.427 11 8 5.467 5.578 10.77 9.39 13 13 1.663 2.69 2.918 4.387 4 7 1.913 4.62 0 6 0 7v5c0 1 1 2 2 2s.707 1.707 0 1c-.707-.707.257-.203 1 1 1.663 2.69 3.832 8.522 7 15 1.39 2.84 3 8 3 12 0 3 .77 6.027 1 7 .514 2.176 1 3 1 9 0 2 .383 4.076 0 5-3.96 9.93-8.71 19.443-12 29-6.892 14.004-8.096 29.313-16 42-5.7 7.11-10.497 14.254-14 22-.16.987-2.46 1.693-3 3-.765 1.848-.88 5.025-2 10-.905 4.023-2.79 7.078-4 10-.856 2.066-3.486 4.824-4 7-.46 1.946-.345 3.177-2 8-.726 2.115-2.486 4.824-3 7-.46 1.946-1.955 2.55-3 6-.58 1.914 0 3 0 4s-1 1-1 2 1.118 1.472 2 1c3.18-1.7 5.872-6.09 8-9 3.78-5.17 7.835-6.774 10-12 .765-1.848 2-5 3-6s2.973-1.647 4-6c.23-.973 2.558-4.52 6-7 1.814-1.307 3.852-6.228 5-9 1.082-2.613 1.387-3.918 4-5 .924-.383 1.15-1.474 2-2 1.902-1.176 2.144-3.934 3-6 1.21-2.922 2.46-4.693 3-6 .383-.924 1.293-1.293 2-2 .707-.707-.293-.707-1 0-.707.707-4 7-5 8s-1.337 1.31-3 4c-.744 1.203-1.52 2.04-2 5-.507 3.12-3.496 3.908-4 8-.122.992-.15 2.474-1 3-1.902 1.176-.878 3.008-1 4-1.008 8.184-3 8-4 8s-2.293-.707-3 0c-.707.707.307 2.46-1 3-.924.383-2.586-.414-4 1-.707.707-1.076 1.617-2 2-1.307.54-3 1-5 1-1 0-3-2-7-6s-8.385-12.772-13-21c-3.28-5.85-3.496-11.908-4-16-.367-2.978.934-4.144 3-5 2.922-1.21 9.647-2.674 13-4 5.657-2.237 9.026-2.68 11-3 3.12-.507 4.848-1.765 3-1-1.307.54-2.248 3.475-5 7-5.674 7.267-10.44 10.59-16 17-3.276 3.777-5.703 7.564-11 10-7.656 2.012-13.02 2.72-20 6-4 2-6.504 2.036-11 5-1.18.778-4 1-4 0v-4c0-1 1.293-3.293 2-4 1.414-1.414.486-2.824 1-5 .23-.973.54-1.054 1-3 .514-2.176 2-3 2-4s0-2 1-3 1.076-2.617 2-3c1.307-.54 3.42-1.42 5-3s2.88-3.493 6-4c.987-.16 4.076-.617 5-1 2.613-1.082 3-2 5-4 1-1 1.617-2.076 2-3 1.082-2.613 3-2 3-3s.293-2.293 1-3c.707-.707 0 1-1 1s-2.08 3.376-6 5c-1.848.765-4.586 3.414-6 2-.707-.707.707-2.293 0-3-.707-.707-1.707-1.293-1-2 .707-.707 2 0 4 0h3c1 0 2.043.29 3 0 3.45-1.045 5.078-2.79 8-4 2.066-.856 4-4 5-5s1.293-2.293 2-3c1.414-1.414 3.46-.693 4-2 .383-.924 2.46-1.693 3-3 .383-.924 1.076-.617 2-1 1.307-.54 2-2 4-2 1 0 2.293-1.707 3-1 .707.707-1.054 1.54-3 2-4.353 1.028-10.127 4.68-13 6-5.297 2.436-7 5-11 5-1 0-3.42.42-5 2s-3.707.293-3 1c.707.707 0 2 0 3s-.928 1.61-3 4c-1.465 1.69-4.076 1.617-5 2-2.613 1.082-4.076 1.617-5 2-1.307.54-1 2-1 3s-1 2-1 3 1.027 1.23 2 1c2.176-.514 2.703-1.564 8-4 5.746-2.643 8.83-2.22 14-6 2.91-2.128 8.374-6.573 13-11 7.68-7.35 11-12 13-14 3-3 4.54-4.053 5-6 .514-2.176 2.46-2.693 3-4 .765-1.848.707-4.293 0-5-.707-.707-2.026-.32-4 0-3.12.507-6 2-8 2-3 0-2.707.293-2 1 .707.707 2.027 1.23 3 1 2.176-.514 4.094-1.576 5-2 7.073-3.313 8.423-10.428 14-15 3.28-2.69 2.693-4.46 4-5 .924-.383 1.513-.594 3-3 1.663-2.69 1.693-7.46 3-8 .924-.383-.414-1.586 1-3 .707-.707 2 0 3 0s-.076.617-1 1c-2.613 1.082-3.772 6.12-7 12-2.806 5.11-8.15 9.877-13 16-1.388 1.753-1.764 7.764-4 10-2.236 2.236-3.918 1.387-5 4-.383.924 1.12 4.88-1 7-.707.707-1-1-1-2 0-2 .878-3.066 2-5 1.81-3.118 3.224-7.903 4-10 1.43-3.867 1.098-6.824 3-8 .85-.526-.027-.23-1 0-2.176.514-3 2-4 2-2 0-2 1-2 2s1.293.293 2 1c.707.707 1 1 2 1h18c1 0 .19 1.018 0 2-1.018 5.288-4.346 9.705-6 12-4.993 6.354-5.755 14.097-8 20-.827 1.147-1.617 3.076-2 4-4.333 5.66-4.94 12.827-6 20-.92 3.893 0 10 0 12s.765 4.152 0 6c-1.082 2.613-2.212 2.714-5 5-2.187 1.793-3.293 2.707-4 2-.707-.707-.707-3.293 0-4 .707-.707 4.212-2.714 7-5 3.28-2.69 4.693-5.46 6-6 .924-.383 2 0 2-1s-.293-1.293-1-2c-.707-.707-1-2-2-2h-6c-6 0-11.926 1.498-17 2-2.985.296-4.88-.493-8-1-.987-.16-1-2-2-2-2 0-3.55-.955-7-2-2.87-.87-5 0-6 0s-2.46-.307-3 1c-.765 1.848-.79 5.078-2 8-3.366 6.55-.796 13.198 1 19 3.606 7.81 6.54 13.703 8 17 1.668 3.77 2 6 3 9s2 4 2 5 .77.973 1 0c.514-2.176 2.01-8.27 6-21 1.61-5.14 4-9 4-12v-6c-4.61-.137-12.045 10.765-15 17v5c0 1 .284 2.01 0 6-.5 7.053-3 19-3 25v14c0 1-2 4-2 7 0 1-.765 2.152 0 4 .54 1.307 3.81 3.135 6 6 1.92 2.513 2.346 4.705 4 7 1.307 1.814 1.714 3.212 4 6 1.793 2.187 3.173 4.853 4 6 1.307 1.814 2.693 3.46 4 4 1.848.765 3.882 2.19 7 4 3.868 2.245 9.212 4.714 12 7 2.187 1.793 4.078 2.79 7 4 2.066.856 2.824 1.486 5 2 .973.23 3.026-.32 5 0 3.12.507 3.647 2.674 7 4 5.657 2.237 8.387 1.918 11 3 .924.383 2 1 3 1h4c2 0 2.824-.486 5-1 1.946-.46 5-1 6-1h3c1 0 1 1 0 1-2 0-6 1-12 1h-13c-4 0-7-1-9-1h-4c-1 0-3 1-4 1h-12c-1 0-2.293.707-3 0-.707-.707-1.617-1.076-2-2-1.082-2.613-2.903-2.224-5-3-7.32-1.36-11.14-3.103-15-8-1-1-1.693-1.46-3-2-.924-.383-.693-1.46-2-2-1.848-.765-3.293.707-4 0-.707-.707-.076-1.617-1-2-1.307-.54-1.076-1.617-2-2-1.307-.54-2.293-2.293-3-3-.707-.707.707-2.293 0-3-.707-.707-2.186-1.693-4-3-1.147-.827-2.906-6.103-4-7-2.788-2.286-3-3-5-5-1-1-2-2-3-4s-1.54-5.053-2-7c-.514-2.176-1.486-3.824-2-6-.69-2.92-1-4-1-5s-.77-2.027-1-3c-.514-2.176-1.293-4.293-2-5-.707-.707-1.955-1.55-3-5-.58-1.914-.824-4.486-3-5-.973-.23-2.918.613-4-2-.383-.924-.693-3.46-2-4-1.848-.765-2.293-1.293-3-2-.707-.707-1.293-.293-2-1-.707-.707 1-1 2 1 2 4 3.824 6.098 5 8 .526.85 1.15 1.474 2 2 1.902 1.176 2 3 2 4 0 2-1 2-2 2-2 0-2.293-.293-3-1-1.414-1.414-.84-3.013-1-4-.507-3.12-2-4-3-5l-2-2c-.707-.707-.076-1.617-1-2-1.307-.54-2.15-1.474-3-2-1.902-1.176-3.824-3.098-5-5-.526-.85-1.293-1.707-2-1-.707.707 0 2-1 2s-2.076-.383-3 0c-3.92 1.624-4.293 4.293-5 5-.707.707-2.15-.526-3 0-1.902 1.176-2.076 2.617-3 3-1.307.54-2.293.707-3 0-.707-.707-.31-2.08-1-5-.514-2.176-1-3-1-5 0-1 0-2-1-2s-1-1-1-2-1-1-1-2 .707-2.293 0-3c-.707-.707-.54-.693 0-2 .383-.924.46-1.693 1-3 .383-.924 1.293-.293 2-1 .707-.707 1-1 1 0v17c0 5-.496 7.908-1 12-.122.992-1 3-1 5 0 1-1.293 2.293-2 3-.707.707 0 2 0 3v3c0 1-1 2-1 3s-1 1-1 2-.076 1.617-1 2c-1.307.54-1 2-1 3s.707 2.293 0 3c-.707.707-1.293 1.707-2 1-.707-.707 0-2 3-4s5.31-7.72 8-11c2.286-2.788 4.496-4.908 5-9 .122-.992 1.293-2.293 2-3 .707-.707 1.693-3.46 3-4 .924-.383 2.586-.586 4-2 .707-.707 1-2 2-2s1 1 1 2-1.027.77-2 1c-2.176.514-3 2-5 4-1 1 .076 1.383 1 1 3.92-1.624 4.46-3.693 5-5 .765-1.848 1.293-3.707 2-3 .707.707 1.693-.46 3-1 1.848-.765 2.824-2.486 5-3 .973-.23 2 0 2-1s-1-1-1-2-1.693-4.186-3-6c-1.654-2.295-4-2-5-2s-1.293-.293-2-1c-.707-.707-2 0-2-1v-5c0-1 .617-1.076 1-2 .54-1.307 2.46-1.693 3-3 .383-.924.076-1.617 1-2 1.307-.54 1.693-3.46 3-4 1.848-.765 2.027-.77 3-1 2.176-.514 4-1 5-1s4-1 5-1h3c2 0 3.346.705 5 3 1.307 1.814 2.846 8.378 5 13 2.705 5.804 9.15 12.946 12 21 2.11 5.962 3.486 8.824 4 11 .23.973-1.076 1.383-2 1-2.613-1.082-2.716-7.556-8-18-1.628-3.217-3.55-6.955-7-8-2.87-.87-6.565 1.28-10-1-4.165-2.766-5.496-6.908-6-11-.367-2.978 1.076-5.383 2-5 2.613 1.082 5.45 5.45 8 8 7.65 7.65 4.864 16.573 8 24 2.49 5.9 4.848 10.08 7 14 2.806 5.11 3.098 8.824 5 10 .85.526.383-.076 0-1-1.624-3.92-7.47-10.54-9-18 1.72-10.923 4.47-18.918 5-31 1.176-1.902 4.46-1.307 5 0 .383.924 3.466 5.748 6 11 3.713 7.695 4.377 10.887 6 17 1.31 4.928.67 9.014 1 13 .502 6.062 2.486 8.824 3 11 .46 1.946 1 5 3 9 3 6 4.755 10.132 7 14 1.81 3.118 5 6 7 8 1 1 1.293 2.293 2 3 .707.707 1.293 2.293 2 3 .707.707 0 2 2 2 1 0-.57-1.133-2-5-.776-2.097-3-6-6-12-1-2-2-6-3-7s-1-3-1-4 .46-2.054 0-4c-.514-2.176-.833-4.65-1-7-.165-2.328 0-7 0-7s-.285-4.683 0-7c.336-2.725 2-5 2-8 0-1-.286-2.212 2-5 1.793-2.187 1.42-4.086 2-6 1.045-3.45 2.493-4.88 3-8 .32-1.974 1-2 1-3s-2.043.71-3 1c-3.45 1.045-5.044 5.76-10 11-3.436 3.632-7.36 7.052-8 11-.507 3.12-1 7-1 11s-.643 8.254 2 14c2.436 5.297 5 9 10 14 3 3 3.705 4.346 6 6 1.814 1.307 3.235 1.152 4 3 1.082 2.613 4.824 3.486 7 4 .973.23 4.37 2.747 7 7 2.35 3.804 6 8 7 9s2.517 2.532 7 8c2.286 2.788 4.08 6.376 8 8 2.772 1.148 4.647 2.973 9 4 1.946.46 5 0 6 0 2 0 3.293.707 4 0 .707-.707 1-1 4-2s8-1 10-1c1 0 2-1 3-1s8.107-1.08 12-2c2.176-.514 4.152-.235 6-1 1.307-.54 3.293-.293 4-1 .707-.707.88-1.493 4-2 .987-.16 3.46.307 4-1 .383-.924 1.693-1.46 3-2 1.848-.765 4.076-.617 5-1 1.307-.54 2-1 3-1s1.076-.617 2-1c1.307-.54 3.54-.693 3-2-.383-.924-2 0-5 0-5 0-11.88 2.493-15 3-5.923.96-10.88 1.493-14 2-2.96.48-4.387.918-7 2-2.772 1.148-4 0-8 0h-13c-5 0-8.065.8-13 0-3.12-.507-7-3-9-3h-10c-3 0-10.157-1.58-16-4-2.066-.856-1.82-2.22-3-3-13.866-12.372-22.345-30.534-24-47-1.167-12.947 0-21 0-23 .884-25.26 20.96-33.31 36-55 6.394-9.753 13.114-24.866 19-30 7.594-6.08 15.08-10.824 20-19 1.554-5.46 1.325-12.243 2-17 1.907-4.076 1.384-10.06 2-15 .16-.987 1.61-2.16 3-5 1.584-3.24 2.955-5.55 4-9 .29-.957 0-2 0-4 0-3-.486-5.824-1-8-.23-.973.46-2.054 0-4-.514-2.176-5-13-5-18 0-4-1.307-5.46 0-6 .924-.383 2.235-2.152 3-4 .54-1.307 3-3 5-5s2-3 3-5-.414-3.586 1-5c2.12-2.12 3.97-3.412 6-7 1.394-2.46 4-2 4-3v-9c0-1-1-3-1-2s1.58 1.086 1 3c-1.045 3.45-4.345 6.177-6 11-2.903 8.46-5.906 11.103-7 12-2.788 2.286-6 2-8 2-3 0-4.693-.46-6-1-.924-.383-2.122-2.007-2-3 .504-4.092 5-4 5-6 0-1-1.617.076-2 1-.54 1.307-3.448 1.806-5 6-1.43 3.867-3.498 12.926-4 18-.394 3.98-.486 6.824-1 9-1.15 4.866-.69 10.072-2 15-.812 3.056-4.493 5.234-7 10-1.68 3.19-4 4-6 8-3 6-2.235 10.152-3 12-.54 1.307-.73 2.23-5 7-5.66 6.323-12.215 8.12-18 10-2.126.692-4.053 1.46-6 1-2.176-.514-3.918-1.387-5-4-.383-.924-1-2-1-3 0-2-.46-3.693-1-5-.383-.924-.707-1.707 0-1 .707.707.85.474 0 1-1.902 1.176-3 3-6 3-2 0-3.693-1.186-5-3-.827-1.147-2.693-1.46-4-2-.924-.383-2-1-4-1-1 0-2.293-.707-3 0-.707.707 0 2-1 2s-.585.19 0 1c1.85 2.565 5.026 1.68 7 2 3.12.507 4.293 1.293 5 2 .707.707 2.307 1.54 1 1-.924-.383.098-1.824 2-3 1.7-1.05 4-2 7-2 1 0 3.01-.284 7 0 7.053.5 13.894.514 22-1 7.925-1.48 14-3 16-3 1 0 2 0 3-1 7.893-7.188 16.83-12.55 26-16 3-1 5.824-1.486 8-2 .973-.23.387-1.918 3-3 .924-.383 2.293-.707 3 0 .707.707 3 1 5 1h5c1 0 3.54-2.606 6-4 3.588-2.03 11.62-4.865 16-8 7.496-5.367 10.047-11.938 14-15 5.062-3.92 10.724-12.223 14-16 2.78-3.205 2.76-4.213 1-2-5.873 7.383-13.436 11.44-20 17-5.395 4.57-9.112 6.547-14 8-5.162 1.534-8.824 3.098-10 5-.526.85-1 2 0 2s2.504 1.406 7-1c2.494-1.335 7.355-3.584 10-5 7.46-7.13 11.75-17.07 16-26 1.654-2.295 3.586-1.586 5-3 .707-.707-.394-2.02 0-6 .502-5.074 1-6 1-7v-3c0-2 1.293-2.707 2-2 .707.707-.58 2.42 1 4 3.162 3.162 7.42 5.42 9 7 4.61 4.082 10.24 7.572 14 11 9.78 6.357 20.72 13.404 30 17 .707.707 1.29.957 1 0-1.045-3.45-11.733-11.233-17-17-3.815-4.177-7-6-7-9 0-2 .293-1.707 1-1l3 3c.707.707.607.818 4 5 2.272 2.8 7.15 3.435 9 6-2.094-4.47-8.835-11.652-14-15-9.23-9.397-17.008-14.256-26-21-2.69-1.663-3.693-2.46-5-3-1.848-.765-5.387-2.918-8-4-.924-.383.414-1.586-1-3s-2-1-3-2-3-3-3-4-1.293-.293-2-1c-.707-.707 0-2-1-2h-1c-1 0 .724 1.223 4 5 1.853 2.137 4.924 8.04 6 10 2.806 5.11 3.61 12.052 5 21 .782 5.04 1.095 10.204 3 19 2.558 11.81 6.617 15.076 7 16 .54 1.307 4.314.73 12 10 3.722 4.49 5.918 7.387 7 10 .383.924 0 5 0 7 0 3 1.076 2.617 2 3 1.307.54 2 3 2 2s-2.493-.88-3-4c-.64-3.948-.765-7.152 0-9 .54-1.307 2-1 4-1s3.078-.79 6-2c2.066-.856 5-2 5-3 0-2 3.514-.824 3-3-.23-.973-1.976.78-6 5-2.488 2.61-6 4-6 6s-.68 3.026-1 5c-.507 3.12-1 6-1 7v-2c0-1 .262-2.916 4-15 2.152-6.955 1.693-8.46 3-9 1.848-.765 3.054-.46 5 0 2.176.514 5 1 8 1h5c2 0 4.293-.707 5 0 .707.707-1 2-3 2-7.755-1.825-14.505-4.465-22-4-.707.707.153 4.04-1 8-.884 3.036-3.493 8.88-4 12-.32 1.974 0 4 0 5v3c0 1 1 1 1 0s-.473-7.294-4-13c-2.63-4.253-6-8-9-8h-8c-3 0-7.235-2.848-8-1-.54 1.307 2 1 6 6s6 6 6 7 1.707.707 1 0c-.707-.707-2.207-1.813-4-4-2.286-2.788-4.12-8.09-3-15 8.852-8.353 36.904-17.174 1-18-3.79 6.687-8.956 10.93-17 14-2 1-4.692 1.41-8 6-3.922 5.442-5.824 9.486-8 10-.973.23-2.173 1.853-3 3-1.307 1.814-1.586 8.586-3 10-.707.707-1.707 1.293-1 2 1.414 1.414 2.52-1.558 5-5 2.615-3.628 4-6 5-6 3 0 4.57-2.68 9-5 5.602-2.935 7.693-4.46 9-5 .924-.383 2 0 1 0s-4-1-13-1c-7 0-11.705.346-14 2-3.628 2.615-4 5-5 8s-2 5-4 7c-1 1-3 3-4 3s-1.693-.46-3-1c-.924-.383 0 0 1 0 2 0 11.038-.722 15-5 3.04-3.28 3-7 5-7v1" fill="none" stroke="#63dbb5" stroke-width="18"/>
        <path stroke-linejoin="null" stroke-linecap="null" d="M326.6 184.8c-.4 0-1.27-.34-1.6-.8-.523-.726-.968-1.368-1.6-2-.632-.632-1.294-1.66-1.6-2.4-.65-1.568-2.04-2.363-2.4-2.8-.914-1.115-1.077-2.074-1.6-2.8-.33-.46-.8-1.2-.8-1.6v-1.2c0-.4-.117-.517-.4-.8-.283-.283-.194-1.13-.4-2-.092-.39-.367-.555-.8-1.6-.153-.37-.594-1.13-.8-2-.092-.39-.538-1.082-1.2-2-.523-.726-.135-1.724-.8-2.8-.297-.48-2.047-2.343-4-4-4.103-3.482-6.622-6.187-11.2-11.2-2.107-2.307-2.986-3.786-4.4-5.2-1.414-1.414-2.405-1.936-2.8-2-1.25-.203-3.217-.74-4.8-1.2-1.214-.354-3.2-.8-4.8-1.6-1.6-.8-2.938-.702-3.2-.4-1.853 2.137-6.305 2.312-12.4 4-7.108 1.97-12.454 2.506-17.6 3.6-4.46.948-6.37 1.4-8.4 1.6-1.592.158-3.234-.232-4 0-1.38.418-2.697 2.53-5.2 4.4-2.31 1.726-4.69 3.69-6 5.2-1.112 1.282-1.2 2.4-1.6 2.4-.8 0-2 .8-3.6 1.6s-5.122 2.513-8 4.4c-1.95 1.28-3.6 2.4-5.2 4-1.2 1.2-2.02 1.816-2.8 2-.87.206-1.2 1.2-1.2 2v1.2c0 1.2.078 3.975 1.2 7.6.86 2.782 1.397 4.35 1.6 5.6.256 1.58.603 2.81.8 4.8.2 2.03.4 2.8.4 4.4 0 2-.128 2.41 0 3.2.203 1.25.595 2.452 1.2 4.4.904 2.91 1.54 5.217 2 6.8.354 1.214.228 2.453.8 4 .31.84.998 1.963 1.2 3.6.195 1.588-.265 2.924.4 4 .297.48.308.81.4 1.2.205.87.44 1.13 1.2 1.6.34.21.553.37.4 0-.217-.523-.702-1.263-2.8-4.4-1.913-2.86-3.535-5.646-6.4-9.6-1.174-1.62-2.48-3.557-4.4-7.2-.835-1.582-1.754-4.55-2.8-6-.662-.918-1.735-2.524-2.4-3.6-.595-.962-1.283-1.525-2-2.4-1.83-2.23-3.086-4.085-4-5.2-1.076-1.312-3.064-2.626-5.6-4-2.68-1.45-6-1.6-9.2-2.4-1.6-.4-4.016-.192-5.2 0-1.25.203-2.474.677-3.2 1.2-.46.33-1.083.917-.8 1.2.283.283 1.6 0 2.8 0 4.8 0 8.77-.2 10.8-.4 1.194-.118 2.517-.283 2.8 0 .283.283.153.77 0 .4-.217-.523-.4-.8-.4-1.2 0-.4.46-.745 1.2-1.6 1.31-1.51 3.63-7.023 5.2-9.2.66-.918 1.928-3.32 3.2-4 .353-.19 1.2 0 .8 0-.8 0-1.122.513-4 2.4-3.9 2.558-9.67 5.24-13.6 4.4-2.474-.53-2.683-1.317-2.4-1.6.283-.283.462-.75 2.4-3.2 1.24-1.57 2-1.6 2.8-1.6h.4v.4M149 178.8c0 .4-.774.458-1.6.8-1.17.484-2 .4-2 0s0-.8.4-1.2c.4-.4.8-1.2 1.2-1.2.4 0 .4-.4.8-.4l.4-.4h.8" fill="none" stroke="#63dbb5" stroke-width="18"/>
        <path d="M371.4 180.8c-.133.225-.328.38-.4.675-.05.208-.195.38-.267.675-.05.208-.082.692-.133.9-.072.294-.267.225-.267.45v.9h-.133v-.225M343 182.8c.8 2.4 2.443 5.64 4 8 3.557 5.395 3.2 10 3.2 12.4v4.4c0 .8.192 1.615 0 2.8-.203 1.25-.4 2-.4 2.4v2c0 2 .028 2.804-.4 6-.375 2.803-.693 4.418-.4 6.8.403 3.274 1.877 5.274 2.4 6 1.323 1.836 2.4 2 2.8 2.8l.8.4.4.4.4.4" fill="none"/>
        <path stroke-linejoin="null" stroke-linecap="null" d="M266.2 250.8c.4 0 .754.11 1.6.4 1.93.662 3.96.89 4.8 1.2 1.547.572 2.4.4 2.8.4.8 0 1.106.34.8-.4-.433-1.045-2.352-1.583-3.2-4-.132-.377-1.002-2.266-2-2.8-1.798-.962-2.84-1.53-3.6-2-.34-.21-1.6.4-1.2.4.4 0-.184-1.077-.4-1.6-.153-.37-.594-1.13-.8-2-.276-1.168-.597-1.95-.8-3.2-.128-.79-.184-1.077-.4-1.6-.306-.74-.4-.8-.4-2 0-.4-.367-.555-.8-1.6-.153-.37-.4 0-.4.8v3.6c0 1.6-.538 3.27-1.2 5.2-.58 1.692-.998 3.963-1.2 5.6-.098.794-.4.8-.8.8s-.4-.4-.4-.8c0-1.2-.192-2.016 0-3.2.405-2.497.997-4.35 1.2-5.6.256-1.58 0-4.4 0-6 0-1.2-.047-2.01.4-4 .362-1.61.4-2.8.4-4 0-1.2.438-3.99.8-5.6.447-1.99.4-2.4.4-2.8 0-.4.517-.917.8-1.2.283-.283 0-.8 0-1.6v-2.8-1.6-1.6c0-.8-.183-1.077-.4-1.6-.306-.74-.183-1.477-.4-2-.153-.37.03-1.047.4-1.2.523-.217.984-.677 1.2-1.2.153-.37 0-.8 0-1.2 0-.4-.117-.517-.4-.8-.283-.283-1.14.884-2.8 2-1.935 1.3-3.05 2.965-4.8 4.4-1.115.914-2.234 1.034-2.8 1.6-.283.283-.04.762-.4 1.2-.914 1.115-1.447 2.03-1.6 2.4-.216.523-.874 1.077-1.6 1.6-.46.33-.517.917-.8 1.2-.283.283-.4.4-.8.4s-.677.183-1.2.4c-.37.153-.74.47-1.2.8-.726.523-1.034.234-1.6.8-.283.283-.33.994-1.2 1.2-.39.092-.517.117-.8.4-.283.283-.4 1.2 0 1.2s0-.8 0-1.2v-.4" fill="none" stroke="#63dbb5" stroke-width="13"/>
        <path stroke-linejoin="null" stroke-linecap="null" d="M335.8 281.97c4.376-10.2 5.43-20.165 7.2-29.97 25.718-15.496 57.415-21.968 85.2-24.4 3.77.546 7.33.16 10.8 0 .4 0 .4-.4.8-.4h.4" fill="none" stroke="#63dbb5" stroke-width="18"/>
        <path d="M175.4 165.2c.4 0 1.53-.195 2.4-.4 2.725-.643 5.174-.058 6-.4 1.17-.484 1.847-.43 2-.8.216-.523 2-2 3.6-3.6l.8-1.2M451 434.4c-.4 0-1.52.103-2 .4-1.076.665-3.253 1.102-4.8 2-1.247.724-2.124 1.335-3.2 2-.48.297-.735 1.535-2 2.8-.632.632-1.72 1.18-2.4 1.6-.76.47-.81.708-1.2.8-.87.206-1.61.708-2 .8-1.74.41-1.747 1.026-3.2 2.4-1.048.99-3.285 1.886-4.4 2.8-.437.36-1.63.716-2.8 1.2-1.653.685-2.8 1.2-3.6 1.2v.4l-1.2.8h-.8" fill="none"/>
        <path d="M415.8 456.4c.138 0 .277-.27.415-.542.14-.27.358-.16.554-.542.097-.19.317-.08.415-.27.097-.192.04-.35.138-.543.098-.19.277-.27.415-.27.14 0 .288.103.416 0 .18-.147.415-.543.554-.814.138-.272.402-.57.553-.814.388-.62.694-.812.97-1.354.14-.27.302-.232.416-.542.18-.492.44-.502.554-.813.18-.492.373-.938.554-1.084.256-.208.415-.27.554-.27l.277-.272.415-.27M401.333 329.333s0 1.334-.333 2.334-.41 2.31-1 4.333c-.384 1.32-.88 4.354-1.333 6.667-.265 1.348-.52 3.005-.334 6 .167 2.682 1.05 4.636 3.334 8.333 1.02 1.653 2.142 3.474 3.666 5.333.598.73 1.026.873 1.334 1 .435.18.486.948 1.333 3.667 1.634 5.25 3.83 12.254 4.333 17 .106.994.334 1.667.334 2.333 0 .334-.195.677-.334 1.667-.673 4.806-1.333 5.333-1.333 5.667 0 .333-.333.333-.333.666v3.334H410" fill="none"/>
        <path d="M410 397.667V396c0-.333.056-.973.667-2.333.735-1.638 1.166-3.313 1.333-5.334.083-.996.333-1 .333-1.333h.334v-.333" fill="none"/>
        <path stroke-linejoin="null" stroke-linecap="null" d="M421.667 385.667c-2-2-4.034-3.973-5.667-6-2.384-2.96-3.124-3.583-4-5-.784-1.268-.667-2.667-.667-3.334 0-1.333.066-2.336 0-3-.167-1.69-.027-3.702-.333-5-.514-2.176-1.76-4.943-2.333-6-1.21-2.232-2-3.333-2.334-4l-.666-.333-.334-.333v-.334" fill="none" stroke="#63dbb5" stroke-width="11"/>
        <path stroke-linejoin="null" stroke-linecap="null" d="M390 350.333c-.333-.666-.446-1.436-1-2.333-.496-.802-1.52-2.047-2.333-4.333-.85-2.392-2.04-4.988-2.334-6-.384-1.32-.333-1.667-.333-2.334 0-.333-.04-.51-.333-.666-1.06-.567-.95-2.347-1.334-3.667-.294-1.012-1.114-2.625-1.666-4.333-.423-1.308-.43-1.43-.667-1.667-.236-.236-.564-.395-1-1-.276-.382-.633-1.693-3.333-5-1.647-2.017-3.153-4.898-3.334-5.333-.127-.308-.355-.984-1.333-2.334-2.388-3.294-3.52-4.876-5-7.333-.77-1.277-1.333-3.333-2-4-.333-.333-.764-.098-1-.333-.236-.236-.23-.396-.667-1-.275-.383-.973-.39-2.333-1-1.637-.736-4.124-2.13-5.333-3-1.148-.827-2.616-2.014-3-3.334-.295-1.012-1.138-1.528-.667-2 .236-.235.896.265 4 1.334 3.9 1.342 4.667.666 4.667 0 0-.334.46-.07.666-.334.846-1.083-1.372-4.32-1.666-5.333-.385-1.32-.717-1.49-1-1.667-.634-.392-.975-.872-.667-1 .87-.36.973.686 1.667 1.667 1.925 2.72 4.695 6.46 5.333 8 .902 2.178 1.604 5.38 3.333 7.667 1.288 1.702 2.25 3.387 3.334 5 .93 1.383 1.527 2.628 5 7.666 1.477 2.144 3 4.334 4 6 1 1.667 1.274 3.505 2 3.334.324-.077-.144-.423-1-2-3.31-6.095-5.815-9.704-8.334-14.334-1.02-1.875-2.666-4.333-4.333-6-.333-.333-1-1.333-1-2.333 0-.333.957.098 3.333 3.333 6.904 9.4 9.274 17.197 10.334 19.667 1.372 3.198 3.16 5.878 4.666 8 1.126 1.585 2.11 3.58 3.667 5.667.72.963 1.967 2.275 1.333 2.666-1.417.877-3.64-5.065-5.333-10-1.655-4.823-2.616-8.41-2-8.666.436-.18.6.752 1 1 .897.554 1.56 1.042 2 2 .812 1.766 1.808 3.502 3 4.666 2.05 2.004 3.116 3.097 4.667 4 1.844 1.075 3.29 3.097 4.666 3.667.974.403 2.99 1.682 4.334 2.667 4.627 3.387 8.13 4.315 10.333 5.333 1.09.505 2.96 1.165 4 1.333 1.645.267 2.626-.164 3.667-.333 1.316-.214 2.293.165 3.333.333 1.316.214 3.005-.098 4 0 1.69.168 3.663.3 6.333 0 3.33-.374 6.013-.84 7-1 1.04-.168 2-.333 2.667-.333.667 0 .645-1.285 1.333-1 .974.403-.775 2.974-5.333 22.333-4.78 20.307-5.318 22.183-5.667 23.334-.29.957-.384 1.078-1 1.333-.435.18-.54.36-.666.667-.542 1.306-1.293 1.688-1.667 2.333-1.207 2.08-2.202 3.803-3 5.667-.656 1.532-2.38 2.165-4 6.333-.88 2.262-.92 3.667-1.667 3.667-.745 0-.486-1.054 1-5 2.422-6.43 8.65-24.34 11.667-31.334 3.313-7.675 4.824-10.29 5.667-13.666.41-1.65.445-7.04 1-11 .336-2.404 1.333-3.667 1.333-5 0-.667.206-1.026.333-1.334.18-.435-.684-1.19-1.666-1-1.763.34-3.367.744-4.334 1-2.597.69-3.333 1.334-5 1.334-1.333 0-2.642-.166-4.333-.334-1.66-.164-4.48.75-8-.333-3.28-1.01-6.315-2.07-8.667-2.667-2.978-.755-6.788-1.24-11-2.666-3.814-1.293-3.88-2.107-3-1C399.29 335.127 410.73 356.003 417 371c3.905 9.338 3 10.667 3 12 0 .667-.076 2.19 2.333-4 2.002-5.142 6.248-12.83 8-15.667 1.176-1.902 1.825-4.504.334-8-.763-1.787-1.833-2.646-2-4.666-.083-.997.333-1 2-1 .666 0 4.838-.392 4.666.333-.076.324-3.898-1.143-10.666-2.333-9.572-1.683-14.603-.453-16 1.666-.55.835 7.45 2.475 19.333 15.667 3.217 3.572 1.764 5.956-7.333-4-6.3-6.895-5.204-11.927-4.334-11.333 2.15 1.467 2.445 3.917 4.667 7 1.405 1.95.22 2.78-.667.333-.68-1.88 2.487-2.564 2.667-3 .128-.308-4.002 2.355-15.333 1.333-17.558-1.583-20.237-8.213-21.334-10.666-.86-1.925-1.284-5.07-4.333-6.334-.308-.127-1.193-.443-2-1.333-3.806-4.198-3.167-8.32-3-11.333.055-1-1.963-1.398-3.667-2.334-.653-.358-1.07-.87-1.333-.666-1.083.846.052 3.016-.333 7.666-.335 4.042-2.37 9.64-3.334 11-1.388 1.963-3.318 2.85-3.666 4-.29.957 0 1.334 0 2.334 0 .333.252.995 2.333 1.333 3.62.587 7.458.414 9 1.333 2.236 1.334 3.588 3.35 4.333 6.667.302 1.34.307 4.337.667 6.667.31 2.003.667 4.333.667 6.333 0 1.667-.184 3.673-.334 5.333-.334 3.712-1.31 6.736-2 9.334-.427 1.61-.003 2.596.334 5 .092.66 0 .333.333.333 1 0 6.337.516 9.667.667 3.678.167 6.216.065 7 1.333.175.284.024.49.666.667C399.207 393.187 400 394 401 395c.667.667 2.552 1.928 3.333 4.667.467 1.634 1.05 3.71.667 5.333-.17.725-.383 1.29-.667 1.667-2.066 2.74-3.706 7.315-5.333 11-1.025 2.322-2.58 4.256-5 6-1.912 1.378-3.19 1.748-4 2.333-.855.616-.64 1.128-.333 1 1.306-.54 9.698-5.2 15.333-10 3.23-2.75 6.796-5.64 7.667-6 .308-.128 1 0 2.666-.333 1.667-.334 2.64-.13 3-1 .128-.308 0 0-.333.333-3.667 3.667-6.675 5.294-8.333 5.667-1.34.3-2.766 1.273-3.334 2.333-.786 1.47-.35 1.324 2-2.667 7.282-12.364 10.72-22.738 13-31 1.487-5.386 2.066-7.133.334-3.333-6.345 13.915-6.718 17.796-8.667 18.667-1.85.826-2 0-2.333 0-.334 0-.566-.268-2.334-7-2.69-10.246-3.713-18.465-5.666-22.334-1.752-3.47-1.947-4.353 3.333 10 4.04 10.985 7.514 16.673 9 15.667 2.208-1.495-9.954-15.24-7.333-18.333.215-.255.35 2.037-5.334 4.666-3.655 1.69-5.31.923-8.666 0-2.65-.728-4.114-1.52-5-2.333-1.574-1.442-3.083-3-3-5.667.166-5.34 1.195-9.47 1.666-9 2.593 2.593.266 6 .334 10.334.166 10.67.285 11.33 1 4 1.56-16.01 4.593-23.06.666-29.334-1.275-2.037-4.43-1.382-4.333-.333.318 3.417 2.667 3.667 1.333 2.333-1.333-1.333-6.253-4.714-7.666-7-.632-1.022-.01-1.083-.334-1.666-1.524-2.75-6.63-3.332-6.666-3-.503 4.746 25.59 8.36 29.666 3.333 1.05-1.294-5.027-4.775-10.666-5.333-1.692-.168-1.943 0-1 0 1.885 0 1.334-1.698 1 3.666-1.41 22.623-.845 32.822.333 34 .47.472 5.486-10.752 6.667-13.666 1.79-4.424 3-10.667 1.666-10.667-2.333 0-2.482 16.718-.666 20.667 1.773 3.854 8.85 1.85 6.333-.334-3.56-3.088-11.318 2.116-10.333 0C398.16 364.826 409.58 360.743 409 360c-1.196-1.532-10.512 10.145-12.333 7.333-1.146-1.77 11.666-3.666 17.333-4.333l1 3.333 1.333 3 .334.334M452.2 434.8c-.433 0-1.35.318-2.165.8-2.335 1.38-3.142 2.568-5.196 3.2-1.233.38-2.09.994-3.032 1.2-.843.184-1.222.194-2.165.4-.42.092-.766.41-.866.8-.222.87-.433 1.2-.866 1.2-.865 0-.732.584-1.298.8-.4.153-.466.247-.866.4-.565.216-.56.517-.866.8-.306.283-.946.677-1.732 1.2-.496.33-1.222.44-1.732 1.2-.227.34-1.364.894-2.164 1.2-.566.216-.7.43-.866.8-.235.523-1.96 1.247-2.165 1.6-.736 1.272-2.61 1.508-3.03 1.6-.943.206-1.43.78-2.165 1.2-.824.47-.947 1.077-1.732 1.6-.497.33-1.223.995-2.165 1.2-.843.184-1.732.4-2.165.4h-.433c.433 0 1.743-.308 2.165-.4.942-.206 1.866-.935 3.03-1.6 1.043-.595 3.242-2.69 3.898-4 1.323-2.643 1.246-4.403 1.3-4.8.217-1.637.432-2 .432-2.4 0-.4-.433-.4-.866-.4-.867 0-2.103.87-2.6 1.2-.785.523-1.8.644-3.03 1.2-1.403.634-2.68 1.877-3.464 2.4-.994.662-.993 1.317-1.3 1.6-.305.283-.967.46-1.298 1.2-.234.523-.433.8-.866 1.2-.433.4-.866.4-1.3.4h-.432v-.4" fill="none" stroke="#63dbb5" stroke-width="11"/>
        <path d="M388.747 111.535c-2.325 2.325-1.356 6.975 2.325 10.56 1.937 1.743 4.262 4.842 5.23 6.78 1.648 3.196 1.648 3.68.388 5.618-.87 1.163-1.356 3.584-1.162 5.62.29 3.098.872 3.873 6.103 6.973 7.557 4.553 10.463 9.3 9.785 16.177-1.066 12.012-11.43 28.964-27.317 44.657-6.006 6.006-11.43 10.946-11.915 10.946-.485 0-1.357-2.81-2.035-6.296l-1.162-6.394 5.91-6.2c6.005-6.296 9.492-12.592 11.526-20.826 3.875-16.468.97-38.845-6.296-47.466-1.84-2.325-3.197-2.906-6.103-2.906-2.034 0-4.068.58-4.553 1.162-.58.678-2.615 6.684-4.553 13.27-1.937 6.588-4.165 13.08-4.843 14.435-1.26 2.325-1.26 2.325-4.262-3.972-10.172-21.698-27.124-37.78-43.59-41.266-6.492-1.356-34.97-1.356-45.724 0-20.44 2.52-43.59 9.106-63.836 18.21-11.043 4.942-11.14 4.942-20.924 4.942-5.425 0-11.237.483-12.98 1.064-1.84.678-5.328 3.68-8.72 7.75-3.1 3.68-8.136 8.33-11.332 10.365-6.588 4.26-12.593 10.558-14.53 15.304-.776 1.744-1.357 6.49-1.357 10.462 0 4.843-.97 10.85-2.907 18.502-3.197 12.496-3.68 21.31-1.453 25.67 1.937 3.68 4.165 4.844 9.396 4.844 5.91 0 10.075-3.197 16.468-12.496l5.328-7.847.58 4.26c.582 3.973 10.27 27.125 11.044 26.35.194-.194-.58-5.328-1.647-11.43l-2.035-10.947 3.197-10.752c2.81-9.105 3.487-10.655 4.94-10.17 3.584 1.26 9.59 8.524 19.664 23.635 13.562 20.343 13.272 20.052 18.6 20.052 3.874 0 4.843-.484 8.427-4.262 3.584-3.68 4.262-4.068 5.812-2.906 2.422 1.84 6.684 1.646 12.884-.485l5.036-1.744v17.05c0 15.79.194 17.436 2.228 21.408 1.453 3.003 3.293 4.94 6.006 6.297l3.874 2.034-5.715 5.23c-10.85 10.074-18.503 22.377-23.346 38.07l-2.616 8.427h-3.874c-8.04 0-12.497 1.937-18.89 8.234-3.39 3.198-6.103 5.522-6.103 5.038 0-.387-1.064-1.84-2.42-3.1-3.488-3.584-10.753-3.39-14.337.194-5.91 6.296-9.396 19.955-9.3 37.1 0 5.62.582 11.916 1.26 14.047 1.065 3.486.97 4.26-.872 7.264-1.743 3.003-1.936 5.037-1.936 17.63 0 13.66.096 14.24 2.324 16.662 1.938 2.034 3.294 2.518 6.975 2.518 5.812 0 11.043-3.778 17.533-12.593 2.52-3.486 7.266-9.2 10.56-12.882l5.908-6.49 3.584 3.002c1.938 1.647 5.91 4.36 8.815 6.103 5.038 2.81 5.328 3.294 6.103 7.847 3.778 22.086 16.37 41.653 35.94 55.893 7.264 5.23 33.322 12.302 52.792 14.24 39.717 4.068 76.333-4.07 107.137-23.927 17.243-11.043 43.495-34.97 58.22-53.084 7.264-9.01 8.814-12.884 6.005-15.693-2.713-2.713-6.587-1.26-13.66 5.133-14.24 12.98-37.1 25.574-60.736 33.42-19.76 6.49-55.893 15.5-62.48 15.5-13.368 0-32.936-8.913-46.304-21.215-7.943-7.17-10.365-20.537-6.587-36.23 2.616-11.14 8.525-19.76 23.927-35.26 7.362-7.362 13.368-18.6 19.18-36.132 2.325-6.974 4.553-12.69 4.843-12.69 2.228 0 6.684 4.07 8.912 8.234 2.52 4.65 2.616 5.037 1.453 10.656-1.55 7.556-4.553 13.658-8.524 17.533-2.228 2.13-3.197 3.97-3.197 6.005 0 3.584 1.26 4.65 6.297 5.425 6.78 1.065 13.95 3.584 16.564 5.812l2.52 2.228-3.004 13.174c-3.294 14.53-3.778 21.214-1.55 23.055.97.87 4.068.968 11.43.483 7.363-.484 10.27-.387 10.85.485.775 1.162-2.81 6.877-13.66 21.99-7.458 10.17-8.814 14.24-5.714 16.757 2.034 1.744 10.85.678 20.924-2.518 15.402-4.844 26.832-11.818 36.81-22.377 7.846-8.33 11.334-14.337 15.887-27.414 6.006-17.05 8.33-28.867 8.913-44.56.678-17.92 1.26-17.243-13.562-15.693-15.79 1.647-27.316-.387-35.163-6.2-3.39-2.518-16.08-18.89-29.254-37.875l-8.912-12.69v-6.684c0-6.975 2.713-14.82 5.038-14.82 3.39 0 19.374 7.264 24.702 11.236 1.84 1.453 4.36 2.325 6.49 2.325 3.197 0 3.778-.485 8.137-7.072 5.715-8.33 12.884-15.208 15.887-15.208 2.81 0 14.046 6.103 26.154 14.143 9.396 6.2 13.852 7.652 16.08 4.94.582-.58 2.035-3.972 3.39-7.46 2.81-7.555 7.944-16.176 10.366-17.435.97-.582 6.587-.97 12.4-.97 15.983 0 16.757-1.743 8.814-21.31-8.815-21.99-20.342-39.813-34.97-54.344-5.424-5.425-12.98-11.238-24.41-18.793-16.178-10.56-38.65-24.315-46.788-28.48-4.553-2.228-9.01-2.615-10.753-.872zm-81.37 10.56c7.556 1.55 17.243 7.07 23.25 13.076 6.295 6.395 13.464 17.825 17.823 28.675 1.743 4.456 3.778 8.233 4.456 8.427.678.194 1.743 1.066 2.324 1.84 1.454 2.035 5.522.872 8.622-2.518 3.39-3.487 6.006-8.718 9.202-18.114l2.616-7.75 1.162 5.522c2.52 11.624 1.163 22.473-3.874 33.323-2.616 5.52-5.522 8.815-11.915 13.27-3.1 2.132-3.197 4.844-.97 18.018 1.938 10.85 3.682 13.465 9.882 14.337 3.68.484 4.552.097 9.202-3.487 8.718-6.684 25.477-24.508 30.998-33.13 8.33-12.69 10.656-19.083 11.14-30.03.485-11.14-.872-14.626-8.524-21.504-4.552-4.166-4.94-4.748-4.65-8.332l.292-3.875 9.687 5.91c19.18 11.527 39.812 25.864 45.43 31.385 11.72 11.72 23.25 29.545 31.095 48.338l4.36 10.365-7.653-.677c-6.006-.485-8.234-.388-10.56.872-4.26 2.13-10.074 9.3-13.658 16.564-1.743 3.486-3.293 6.296-3.487 6.296-.097 0-4.456-2.616-9.59-5.91-17.63-11.042-25.767-13.56-32.354-10.17-2.81 1.452-15.693 14.433-17.34 17.436-.97 1.84-1.356 1.743-7.653-1.55-10.558-5.522-16.758-7.556-23.248-7.556-5.328 0-6.103.29-8.912 3.1-4.94 5.23-6.006 9.01-6.006 21.602v11.333l8.912 12.69c4.843 7.073 12.69 17.922 17.436 24.122 16.856 22.183 22.958 25.476 47.176 25.476h13.95l-.68 6.975c-1.26 15.11-9.008 42.43-15.208 53.18-3.97 6.976-9.88 13.466-16.564 17.922-6.2 4.262-17.92 10.074-22.377 11.14-2.713.58-2.617.29 3.486-8.428 10.753-15.596 11.72-19.567 6.394-24.702-2.81-2.615-3.39-2.81-12.593-3.1-8.428-.29-9.59-.58-9.203-1.937 2.615-8.62 5.425-24.12 4.843-26.832-.774-4.166-8.233-11.43-13.56-12.98-2.035-.68-4.36-1.357-5.038-1.55-.873-.29-.583-1.454.87-4.263 3.003-5.812 4.747-13.368 4.747-20.73 0-10.17-4.068-16.758-14.53-23.442-3.488-2.324-6.975-4.94-7.653-5.715-.775-.87-2.52-1.55-4.068-1.55-2.325 0-2.907.485-3.682 3.585-.58 2.034-1.065 4.552-1.065 5.618 0 3.487-8.43 27.123-12.594 35.357-2.81 5.522-6.297 10.365-11.043 15.402-15.305 16.274-21.118 24.41-23.346 32.936-4.068 15.79-3.68 32.548.872 41.46 4.165 8.234 17.726 19.664 31.19 26.348 10.947 5.33 18.503 7.17 29.934 7.17 8.815.096 11.72-.485 32.45-5.813 27.22-7.168 43.495-12.4 55.797-18.21 5.04-2.326 8.913-3.876 8.623-3.39-.29.483-5.037 4.455-10.462 8.814-29.447 23.734-55.31 34.583-89.894 37.78-20.052 1.84-44.27-1.356-66.258-8.815-9.493-3.197-11.334-4.263-18.6-10.365-12.786-10.85-22.86-29.352-24.99-46.013-.486-3.68-1.357-5.134-4.845-8.428-2.42-2.23-6.2-4.94-8.62-6.007-4.65-2.325-6.976-5.91-7.944-12.786-.776-4.844-2.81-7.46-5.813-7.46-2.52 0-6.2 4.166-6.2 6.975 0 3.875-3.197 9.203-9.106 15.306-3.39 3.487-7.942 9.008-10.267 12.302-4.068 5.91-7.943 9.493-9.106 8.33-.87-.87-.678-11.914.388-16.176.484-2.422 1.937-4.65 3.778-6.103 3.68-2.905 3.68-3.97.484-10.46-3.1-6.49-3.875-13.66-2.325-23.83 1.26-8.913 4.456-18.6 5.91-17.825.484.388.87 6.78.87 14.24 0 14.82.776 17.243 5.33 17.243 3.292 0 4.842-2.713 6.586-12.11 4.068-20.826 13.562-31.19 25.864-28.48 13.077 2.908 24.8 13.563 29.642 26.93.97 2.423 2.325 5.232 3.1 6.104 1.937 2.228 5.328 2.228 7.265 0 1.55-1.647 1.452-2.228-.68-8.525-3.583-10.558-6.102-14.724-13.076-21.6-4.456-4.36-8.137-7.073-11.334-8.332-2.616-.97-4.844-1.84-4.94-1.938-.582-.387 5.424-16.855 7.943-21.795 3.778-7.556 10.462-16.662 15.11-20.633 5.135-4.457 15.113-9.3 28.19-13.757 9.88-3.39 10.462-3.778 11.528-6.974.97-3.004.873-3.682-.87-5.33l-1.938-1.936-6.103 1.937c-6.976 2.23-27.996 3.682-30.902 2.132-.97-.484-2.228-2.325-2.81-3.972-1.453-4.165-1.356-33.516.097-39.038 1.066-3.875.97-4.553-.678-6.393-1.84-2.035-5.715-2.617-6.78-.97-.776 1.26-10.27 6.103-10.753 5.522-.29-.29 2.13-3.875 5.328-8.04 6.78-9.01 18.986-21.118 20.633-20.44.872.194 1.162 2.228 1.065 6.103-.678 26.736-.58 29.836 1.647 36.616 1.647 5.33 3.197 7.945 7.265 12.11 5.037 5.23 5.23 5.328 11.528 5.715 5.812.388 7.168.097 12.883-2.712 7.46-3.68 18.31-13.95 24.12-22.667 3.585-5.425 3.78-6.2 4.07-14.24.484-12.302-2.132-19.47-16.275-43.494-7.943-13.465-13.852-19.47-21.408-21.7-10.946-3.293-27.123-1.452-54.828 6.104-16.08 4.36-19.955 6.2-23.927 11.14-4.36 5.327-4.65 14.143-1.065 27.317 1.453 5.23 3.487 12.593 4.456 16.37 1.937 7.266 2.52 15.887 1.26 18.212-.68 1.163-3.39-2.228-11.044-13.658-10.17-15.21-19.277-25.574-23.83-27.318-6.78-2.616-17.145.387-22.764 6.49-1.453 1.453-5.618 7.265-9.3 12.883-7.75 11.625-9.493 13.465-11.14 11.818-.87-.87-.387-4.164 1.938-13.464 2.13-8.427 3.1-14.724 3.1-19.567 0-11.432 4.65-18.406 15.208-22.96 1.744-.774 4.844-3.68 6.975-6.49 7.748-10.364 9.395-11.042 22.182-9.977l7.46.678 12.108-5.52c20.245-9.203 44.075-16.177 63.933-18.696 9.493-1.26 31.192-1.162 37.004 0zm-22.764 36.228c7.168 2.13 9.3 4.262 16.66 16.758 12.69 21.603 17.147 32.453 16.275 39.136-1.065 8.234-12.786 21.796-23.248 26.93-4.94 2.422-6.587 2.81-8.622 2.034-8.137-3.1-12.69-21.698-9.396-38.166 3.294-15.983-4.456-26.348-16.274-21.893-5.425 1.94-25.186 23.25-30.707 32.84l-2.324 4.165-.678-3.777c-.775-4.65-3.584-16.468-6.78-27.996-3.488-12.302-2.23-16.66 5.81-19.664 4.94-1.84 24.606-7.07 35.843-9.396 12.69-2.713 16.953-2.906 23.443-.97z"/>
    </g>
</svg>
