<svg width="100" height="100" xmlns="http://www.w3.org/2000/svg">
    <path stroke="#000" stroke-width="2" d="M47.196 1.702c-2.578.662-5.178 2.852-6.387 5.406-.708 1.483-.822 1.756-1.095 4.494.273 2.555.387 2.828 1.094 4.31 1.276 2.715 3.9 4.837 6.682 5.43l1.14.25V45.11l-1.185-.16c-3.673-.48-8.828-2.737-11.976-5.246-2.12-1.688-4.447-4.47-5.655-6.798-.753-1.414-.8-1.573-.41-1.687 2.348-.777 4.698-2.647 5.93-4.678 1.916-3.216 1.916-8.143 0-11.336-1.962-3.262-5.27-5.064-9.284-5.064-4.082 0-7.435 1.87-9.42 5.246-1.254 2.167-1.665 5.794-.958 8.554 1.118 4.266 5.36 7.64 9.626 7.64h.98l.89 1.803c2.966 5.863 8.782 10.812 15.238 12.91 1.414.48 5.2 1.255 6.067 1.255.09 0 .16 3.08.16 6.843 0 3.764-.07 6.843-.16 6.843-.114 0-1.118.16-2.235.342-8.075 1.3-15.465 6.66-19.07 13.846l-.89 1.78h-.98c-3.307 0-6.843 2.143-8.668 5.246-1.78 3.056-1.733 8.03.137 11.13 1.962 3.263 5.27 5.065 9.284 5.065 4.015 0 7.323-1.802 9.285-5.064 1.916-3.193 1.916-8.12 0-11.336-1.232-2.03-3.582-3.9-5.93-4.676-.39-.114-.343-.274.41-1.688 1.208-2.326 3.535-5.11 5.656-6.797 3.15-2.51 8.304-4.767 11.977-5.246l1.186-.16V97.048h2.28V63.517h.753c.388 0 1.666.16 2.783.342 5.998.957 11.838 4.265 15.26 8.576 1.345 1.71 3.033 4.47 2.827 4.653-.022.022-.73.227-1.55.433-4.7 1.186-7.756 5.29-7.756 10.4 0 4.084 1.872 7.437 5.247 9.42 2.966 1.735 7.984 1.735 10.95 0 3.375-1.983 5.245-5.336 5.245-9.42 0-5.405-3.24-9.442-8.485-10.583-.524-.114-.82-.48-1.528-1.916-2.967-5.908-8.783-10.835-15.238-12.933-2.076-.683-5.36-1.254-7.185-1.254h-1.323V47.55h1.323c1.824 0 5.11-.57 7.185-1.254 6.432-2.1 12.27-7.048 15.237-12.91.706-1.46 1.002-1.825 1.527-1.94 3.148-.684 5.61-2.44 7.185-5.132 1.734-2.942 1.734-7.96 0-10.926-1.984-3.375-5.337-5.246-9.42-5.246s-7.436 1.87-9.42 5.246c-1.255 2.167-1.666 5.794-.96 8.554.914 3.513 3.856 6.41 7.414 7.322.822.205 1.53.41 1.55.434.207.182-1.48 2.942-2.827 4.653-3.422 4.312-9.262 7.62-15.26 8.577-1.118.183-2.396.342-2.784.342h-.752V21.592l1.117-.16c2.853-.388 5.818-2.69 7.164-5.52.707-1.483.943-1.715 1.093-4.402-.3-2.586-.386-2.92-1.093-4.402-.958-2.03-2.76-3.832-4.79-4.767-1.37-.637-1.985-.934-4.13-.98-1.322-.045-2.6.23-3.078.343zm6.113 2.92c1.755.844 2.76 1.848 3.625 3.695.594 1.232.708 1.757.708 3.194 0 1.438-.114 1.962-.708 3.194-.89 1.87-1.87 2.85-3.74 3.74-1.232.594-1.757.708-3.194.708-1.436 0-1.96-.114-3.192-.707-1.87-.89-2.85-1.87-3.74-3.74-1.734-3.673-.23-8.144 3.307-9.946 2.35-1.187 4.584-1.233 6.934-.138zm-24.27 8.485c2.713 1.027 4.4 3.01 5.13 6 .48 1.87.23 3.603-.73 5.588-1.14 2.35-3.306 3.878-6.18 4.425-1.757.32-3.9-.137-5.748-1.255-4.996-2.965-4.996-11.04 0-14.005 2.486-1.482 4.972-1.733 7.527-.753zm47.9 0c2.714 1.027 4.402 3.01 5.132 6 .32 1.3.342 1.8.137 2.965-.73 3.832-3.217 6.318-7.05 7.048-1.756.32-3.9-.137-5.748-1.255-4.995-2.965-4.995-11.04 0-14.005 2.487-1.482 4.973-1.733 7.528-.753zM29.04 80.17c2.713 1.025 4.4 3.01 5.13 5.998.32 1.3.343 1.802.138 2.965-.73 3.832-3.216 6.318-7.048 7.048-1.757.32-3.9-.136-5.748-1.253-4.996-2.966-4.996-11.04 0-14.006 2.486-1.48 4.972-1.732 7.527-.75zm47.9 0c2.714 1.025 4.402 3.01 5.132 5.998.32 1.3.342 1.802.137 2.965-.73 3.832-3.217 6.318-7.05 7.048-1.756.32-3.9-.136-5.748-1.253-4.995-2.966-4.995-11.04 0-14.006 2.487-1.48 4.973-1.732 7.528-.75z"/>
</svg>
