<svg width="100" height="100" xmlns="http://www.w3.org/2000/svg" preserveAspectRatio="xMidYMid meet">
    <metadata>Created by Lukas Pessoa Dantas</metadata>
    <g>
        <title>Layer 1</title>
        <path id="svg_2" fill="black" stroke="#000000" stroke-width="2" d="m47.19568,1.70248c-2.57751,0.6615 -5.1778,2.85124 -6.3868,5.40594c-0.7071,1.48265 -0.8208,1.75604 -1.0935,4.49321c0.2727,2.5554 0.3864,2.8288 1.0935,4.3114c1.2774,2.7144 3.9005,4.8357 6.6833,5.4288l1.1405,0.2509l0,11.7471l0,11.7699l-1.18609,-0.1597c-3.6724,-0.479 -8.8274,-2.7372 -11.9752,-5.2462c-2.1213,-1.688 -4.4479,-4.4708 -5.6568,-6.7974c-0.7528,-1.4142 -0.7984,-1.5739 -0.4106,-1.6879c2.3494,-0.7756 4.6988,-2.646 5.9306,-4.6761c1.916,-3.2162 1.916,-8.1431 0,-11.3365c-1.9617,-3.2618 -5.2691,-5.0638 -9.2837,-5.0638c-4.0829,0 -7.43604,1.8704 -9.42044,5.2463c-1.2546,2.1669 -1.6652,5.7937 -0.9581,8.5537c1.1177,4.2654 5.36044,7.6413 9.62584,7.6413l0.9808,0l0.8896,1.802c2.9653,5.8622 8.7818,10.8119 15.237,12.9104c1.4142,0.479 5.2007,1.2545 6.0675,1.2545c0.0912,0 0.1596,3.0794 0.1596,6.843c0,3.7636 -0.06839,6.843 -0.1596,6.843c-0.1141,0 -1.1177,0.1596 -2.2354,0.3421c-8.0747,1.3002 -15.4651,6.6605 -19.0691,13.8456l-0.8896,1.7792l-0.9808,0c-3.3074,0 -6.84304,2.1441 -8.66774,5.2463c-1.7792,3.0565 -1.7336,8.029 0.1368,11.1312c1.9617,3.2618 5.26914,5.0638 9.28364,5.0638c4.0146,0 7.322,-1.802 9.2837,-5.0638c1.916,-3.19341 1.916,-8.1203 0,-11.3365c-1.2318,-2.0301 -3.5812,-3.90051 -5.9306,-4.676c-0.3878,-0.1141 -0.3422,-0.2738 0.4106,-1.688c1.2089,-2.3266 3.5355,-5.10941 5.6568,-6.7973c3.1478,-2.5091 8.3028,-4.7673 11.9752,-5.2463l1.18609,-0.1597l0,16.6969l0,16.674l1.14051,0l1.1405,0l0,-16.7653l0,-16.7653l0.7527,0c0.3878,0 1.6652,0.1597 2.7829,0.3422c5.999,0.95799 11.8383,4.2655 15.2598,8.57649c1.3458,1.7108 3.0337,4.4708 2.8284,4.65321c-0.0228,0.0229 -0.7299,0.2282 -1.5511,0.4334c-4.6988,1.1862 -7.7554,5.2919 -7.7554,10.4013c0,4.083 1.87051,7.4361 5.2463,9.4205c2.9653,1.7336 7.98351,1.7336 10.94881,0c3.3758,-1.9844 5.2463,-5.3375 5.2463,-9.4205c0,-5.4059 -3.23911,-9.4432 -8.4853,-10.58369c-0.5246,-0.11411 -0.82121,-0.479 -1.52831,-1.9161c-2.9653,-5.9077 -8.7818,-10.8347 -15.237,-12.9332c-2.0757,-0.6843 -5.3603,-1.2545 -7.1851,-1.2545l-1.323,0l0,-6.843l0,-6.843l1.323,0c1.8248,0 5.10941,-0.5702 7.1851,-1.2545c6.4324,-2.0985 12.2717,-7.0482 15.237,-12.9104c0.7071,-1.4598 1.0037,-1.8248 1.52831,-1.9389c3.1477,-0.6842 5.6112,-2.4406 7.1851,-5.1322c1.7335,-2.9424 1.7335,-7.9606 0,-10.9259c-1.9845,-3.3759 -5.3375,-5.2463 -9.4205,-5.2463c-4.083,0 -7.436,1.8704 -9.4205,5.2463c-1.2545,2.1669 -1.6651,5.7937 -0.958,8.5537c0.9124,3.5127 3.8549,6.4096 7.4132,7.322c0.82121,0.2053 1.52831,0.4105 1.5511,0.4334c0.2053,0.1824 -1.4826,2.9424 -2.8284,4.6532c-3.4215,4.311 -9.2608,7.6185 -15.2598,8.5765c-1.1177,0.1825 -2.3951,0.3422 -2.7829,0.3422l-0.7527,0l0,-11.8384l0,-11.8383l1.1177,-0.1597c2.8512,-0.3877 5.81651,-2.6915 7.1623,-5.52c0.7071,-1.4826 0.9435,-1.7151 1.0935,-4.4023c-0.3,-2.58712 -0.3864,-2.9196 -1.0935,-4.40225c-0.958,-2.03006 -2.75999,-3.83204 -4.7901,-4.76725c-1.3686,-0.63869 -1.9842,-0.93505 -4.1284,-0.98067c-1.3229,-0.04563 -2.6005,0.22794 -3.0795,0.34198l0,-0.00002l0,-0.00002l0,-0.00002zm6.11309,2.91968c1.75631,0.84395 2.76001,1.84758 3.62671,3.69519c0.59309,1.23174 0.7071,1.75635 0.7071,3.19338c0,1.437 -0.11401,1.9617 -0.7071,3.1934c-0.88961,1.8704 -1.8704,2.8512 -3.74081,3.7408c-1.2317,0.5931 -1.75639,0.7071 -3.19339,0.7071c-1.437,0 -1.96161,-0.114 -3.1934,-0.7071c-1.8704,-0.8896 -2.8512,-1.8704 -3.7408,-3.7408c-1.73351,-3.6724 -0.2281,-8.14313 3.3075,-9.94511c2.3494,-1.18611 4.58471,-1.23174 6.9342,-0.13686zm-24.2698,8.48527c2.7144,1.0264 4.4023,3.0109 5.1323,5.999c0.479,1.8704 0.2281,3.6039 -0.73,5.5884c-1.1405,2.3495 -3.3074,3.8777 -6.1814,4.4252c-1.7564,0.3193 -3.9005,-0.1369 -5.7481,-1.2546c-4.99544,-2.9653 -4.99544,-11.04 0,-14.0053c2.4862,-1.4826 4.9725,-1.7335 7.5272,-0.7527zm47.9008,0c2.7144,1.0264 4.40231,3.0109 5.1322,5.999c0.3193,1.3002 0.3421,1.802 0.1368,2.9653c-0.7298,3.832 -3.2161,6.3183 -7.0482,7.0483c-1.7563,0.3193 -3.9005,-0.1369 -5.7482,-1.2546c-4.9952,-2.9653 -4.9952,-11.04 0,-14.0053c2.4864,-1.4826 4.9726,-1.7335 7.5274,-0.7527zm-47.9008,67.0611c2.7144,1.0264 4.4023,3.01089 5.1323,5.999c0.3193,1.30009 0.3421,1.80199 0.1368,2.96529c-0.7299,3.832 -3.2162,6.31831 -7.0482,7.0482c-1.7564,0.3194 -3.9005,-0.1368 -5.7481,-1.2545c-4.99544,-2.9653 -4.99544,-11.04 0,-14.00529c2.4862,-1.4826 4.9725,-1.73351 7.5272,-0.7527zm47.9008,0c2.7144,1.0264 4.40231,3.01089 5.1322,5.999c0.3193,1.30009 0.3421,1.80199 0.1368,2.96529c-0.7298,3.832 -3.2161,6.31831 -7.0482,7.0482c-1.7563,0.3194 -3.9005,-0.1368 -5.7482,-1.2545c-4.9952,-2.9653 -4.9952,-11.04 0,-14.00529c2.4864,-1.4826 4.9726,-1.73351 7.5274,-0.7527z"></path>
    </g>
</svg>