<svg xmlns="http://www.w3.org/2000/svg" width="600" height="250" version="1">
    <path d="M292.58 78.843c0-5.13 0-5.13 4.947-5.13h4.946c4.946 0 4.946 0 4.946 5.13v92.314c0 5.13 0 5.13-4.947 5.13h-4.946c-4.946 0-4.946 0-4.946-5.13V78.843z" fill-rule="evenodd" stroke="#000" stroke-width="1.007" stroke-linejoin="round"/>
    <path d="M25.504 125c272.023-13.334 276.97-13.334 548.992 0-272.023 13.334-276.97 13.334-548.992 0z" fill-rule="evenodd" stroke="#000" stroke-width="1.007"/>
    <path d="M445.903 119.87c-.99-13.333 10.88-34.873 34.622-37.95 25.718-1.026 30.664 9.23 44.513 19.488 7.913 5.13 12.86 6.657 24.73 7.18-8.456-2.05-15.828-5.128-19.785-9.23-19.783-22.567-32.642-28.72-49.458-28.72-23.74 2.05-44.513 15.385-49.46 49.233M445.903 130.13c-.99 13.333 10.88 34.873 34.622 37.95 25.718 1.026 30.664-9.23 44.513-19.488 7.913-5.13 12.86-6.657 24.73-7.18-8.456 2.05-15.828 5.128-19.785 9.23-19.783 22.567-32.642 28.72-49.458 28.72-23.74-2.05-44.513-15.385-49.46-49.233M154.097 130.13c.99 13.333-10.88 34.873-34.622 37.95-25.718 1.026-30.664-9.23-44.513-19.488-7.913-5.13-12.86-6.657-24.73-7.18 8.456 2.05 15.828 5.128 19.785 9.23 19.783 22.567 32.642 28.72 49.458 28.72 23.74-2.05 44.513-15.385 49.46-49.233M154.097 119.87c.99-13.333-10.88-34.873-34.622-37.95-25.718-1.026-30.664 9.23-44.513 19.488-7.913 5.13-12.86 6.657-24.73 7.18 8.456-2.05 15.828-5.128 19.785-9.23 19.783-22.567 32.642-28.72 49.458-28.72 23.74 2.05 44.513 15.385 49.46 49.233" fill-rule="evenodd" stroke="#000" stroke-width="1.007"/>
    <path d="M381.607 119.87c4.946-46.156 36.777-82.056 84.08-83.082 14.838-.888 39.567 6.154 59.35 26.67 4.946 5.127 10.88 15.385 24.73 25.642 2.578 1.85 7.913 5.128 22.75 5.128-11.87-2.05-16.815-6.154-20.772-10.257-6.924-6.153-6.924-13.572-25.718-32.822-20.773-18.463-35.61-25.764-65.286-25.643-41.566 2.052-91.166 22.566-96.938 94.366M381.607 130.13c4.946 46.156 36.777 82.056 84.08 83.082 14.838.888 39.567-6.154 59.35-26.67 4.946-5.127 10.88-15.385 24.73-25.642 2.578-1.85 7.913-5.128 22.75-5.128-11.87 2.05-16.815 6.154-20.772 10.257-6.924 6.153-6.924 13.572-25.718 32.822-20.773 18.463-35.61 25.764-65.286 25.643-41.566-2.052-91.166-22.566-96.938-94.366M218.393 119.87c-4.946-46.156-36.777-82.056-84.08-83.082-14.838-.888-39.567 6.154-59.35 26.67-4.946 5.127-10.88 15.385-24.73 25.642-2.578 1.85-7.913 5.128-22.75 5.128 11.87-2.05 16.815-6.154 20.772-10.257C55.18 77.818 55.18 70.4 73.973 51.15c20.773-18.463 35.61-25.764 65.286-25.643 41.566 2.052 91.166 22.566 96.938 94.366M218.393 130.13c-4.946 46.156-36.777 82.056-84.08 83.082-14.838.888-39.567-6.154-59.35-26.67-4.946-5.127-10.88-15.385-24.73-25.642-2.578-1.85-7.913-5.128-22.75-5.128 11.87 2.05 16.815 6.154 20.772 10.257 6.924 6.153 6.924 13.572 25.718 32.822 20.773 18.463 35.61 25.764 65.286 25.643 41.566-2.052 91.166-22.566 96.938-94.366" fill-rule="evenodd" stroke="#000" stroke-width="1.007"/>
</svg>
