<svg width="300" height="300" xmlns="http://www.w3.org/2000/svg">
    <metadata id="metadata7">image/svg+xml</metadata>
    <g>
        <title>Layer 1</title>
        <path fill="none" stroke="#c80000" stroke-width="8.57143" stroke-linecap="round" stroke-linejoin="round" stroke-miterlimit="4" stroke-dashoffset="55.5" id="path6367" d="m30.00001,4.28571c-17.14287,0 -25.71428,8.57141 -25.71428,25.71426l0,240.00003c0,17.14282 8.57141,25.71429 25.71428,25.71429l239.99999,0c17.14285,0 25.71426,-8.57147 25.71426,-25.71429l0,-240.00003c0,-17.14285 -8.57141,-25.71426 -25.71426,-25.71426l-239.99999,0z"></path>
        <path fill="none" stroke="#c80000" stroke-width="8.57143" stroke-linecap="round" stroke-linejoin="round" stroke-miterlimit="4" stroke-dashoffset="55.5" id="path5311" d="m21.42857,137.14288l0,-90c0,-12.85718 0,-25.71429 15,-25.71429c15,0 15,12.85712 15,25.71429l0,72.85712c0,17.14288 4.28571,21.42859 21.42854,21.42859l17.14288,0c12.85712,0 17.14285,-4.28571 17.14285,-17.14288l0,-12.85712c0,-17.14288 -4.28574,-17.14288 -12.85715,-17.14288c-8.57141,0 -12.85712,0 -12.85712,-8.57141l0,-38.57141c0,-21.42856 4.28571,-25.71426 25.71426,-25.71426l8.57144,0c21.42856,0 25.71429,4.28571 25.71429,25.71426l0,90"></path>
        <path fill="none" stroke="#c80000" stroke-width="8.57143" stroke-linecap="round" stroke-linejoin="round" stroke-miterlimit="4" stroke-dashoffset="55.5" id="path5309" d="m81.42859,278.57141l0,-68.57141c0,-12.85712 4.28571,-17.14288 17.14282,-17.14288l25.71429,0c12.85718,0 17.14288,4.28577 17.14288,17.14288l0,68.57141"></path>
        <path fill="none" stroke="#c80000" stroke-width="8.57143" stroke-linecap="round" stroke-linejoin="round" stroke-miterlimit="4" stroke-dashoffset="55.5" id="path5313" d="m111.42859,180l0,30"></path>
        <path fill="none" stroke="#c80000" stroke-width="8.57143" stroke-linecap="round" stroke-linejoin="round" stroke-miterlimit="4" stroke-dashoffset="55.5" id="path5315" d="m98.57141,210l0,68.57141"></path>
        <path fill="none" stroke="#c80000" stroke-width="8.57143" stroke-linecap="round" stroke-linejoin="round" stroke-miterlimit="4" stroke-dashoffset="55.5" id="path5317" d="m124.28571,278.57141l0,-68.57141"></path>
        <path fill="none" stroke="#c80000" stroke-width="8.57143" stroke-linecap="round" stroke-linejoin="round" stroke-miterlimit="4" stroke-dashoffset="55.5" id="path5319" d="m94.28571,210l34.28571,0"></path>
        <path fill="none" stroke="#c80000" stroke-width="8.57143" stroke-linecap="round" stroke-linejoin="round" stroke-miterlimit="4" stroke-dashoffset="55.5" id="path5321" d="m81.42859,167.14288l60,0"></path>
        <path fill="none" stroke="#c80000" stroke-width="8.57143" stroke-linecap="round" stroke-linejoin="round" stroke-miterlimit="4" stroke-dashoffset="55.5" id="path5323" d="m111.42859,162.85712l0,4.28577"></path>
        <path fill="none" stroke="#c80000" stroke-width="8.57143" stroke-linecap="round" stroke-linejoin="round" stroke-miterlimit="4" stroke-dashoffset="55.5" id="path5325" d="m42.85713,162.85712l0,98.57147c0,8.57141 0,17.14282 -10.71426,17.14282c-10.71428,0 -10.71428,-8.57141 -10.71428,-17.14282l0,-47.14288"></path>
        <path fill="none" stroke="#c80000" stroke-width="8.57143" stroke-linecap="round" stroke-linejoin="round" stroke-miterlimit="4" stroke-dashoffset="55.5" id="path5327" d="m21.42857,162.85712l0,12.85718c0,12.85712 4.28571,17.14282 17.14284,17.14282l8.57146,0c12.85713,0 17.14284,-4.28571 17.14284,-17.14282l0,-12.85718"></path>
        <path fill="none" stroke="#c80000" stroke-width="8.57143" stroke-linecap="round" stroke-linejoin="round" stroke-miterlimit="4" stroke-dashoffset="55.5" id="path5329" d="m64.28571,278.57141l0,-51.42853c0,-12.85718 -4.28571,-17.14288 -17.14284,-17.14288l-4.28574,0"></path>
        <metadata transform="matrix(0.39465921384206126,0,0,0.40238001022033915,129.84265188487765,6.0745128592755835) ">Created by potrace 1.12, written by Peter Selinger 2001-2015</metadata>
        <g id="svg_13">
            <g id="svg_4" fill="#000000">
                <path fill="#c80000" id="svg_5" d="m217.41977,29.36655l0,10.91064l-28.20203,0l-28.20203,0l0,4.34254l0,4.34254l28.20203,0l28.20203,0l0,11.94199l0,11.94199l-23.73438,0l-23.73438,0l0,4.34254l0,4.34255l52.77408,0l52.77408,0l0,-4.34255l0,-4.34254l-24.40451,0l-24.46037,0l0.11169,-11.77915l0.11169,-11.83342l28.53709,-0.16285l28.48126,-0.10856l0,-4.34254l0,-4.34254l-28.59296,0l-28.64879,0l0.16754,-9.28218c0.16754,-8.84793 0.22337,-9.33647 1.39613,-10.25926c0.67015,-0.54282 1.11691,-1.08564 0.94937,-1.24848c-0.16753,-0.16284 -2.84811,-0.43425 -5.97546,-0.65138l-5.75211,-0.37997l0,10.91064z"></path>
                <path fill="#c80000" id="svg_6" d="m206.97664,85.92817l-2.95981,2.71409l1.73122,0.92279c7.20407,3.79972 15.30168,9.60788 20.7187,14.92749l3.90919,3.79972l3.29489,-3.20262l3.29489,-3.14835l-2.12213,-2.11699c-2.4572,-2.44267 -8.15346,-7.05663 -12.1185,-9.71643c-3.7975,-2.55125 -11.56003,-6.94807 -12.28603,-6.94807c-0.27922,0 -1.89874,1.24848 -3.46243,2.76837z"></path>
                <path fill="#c80000" id="svg_7" d="m195.30492,99.39005c-0.11169,0.10856 -0.22339,7.54517 -0.22339,16.44738c0,17.37018 0.16754,18.45581 2.84813,20.89848c2.79228,2.44269 6.53394,2.87694 26.47081,2.87694c20.71872,0 23.06424,-0.32568 25.63313,-3.31119c1.73122,-2.00842 3.51826,-7.4366 4.18842,-12.97336c0.50261,-4.12541 0.16754,-5.42817 -1.34029,-5.42817c-0.6143,0 -4.69104,-1.62845 -6.47809,-2.55125c-0.16754,-0.10856 -0.50261,2.27984 -0.726,5.31962c-0.22339,3.03977 -0.726,6.35096 -1.17276,7.32804c-1.50783,3.52831 -1.56367,3.52831 -20.94209,3.36546l-17.42383,-0.16284l-1.06107,-1.30275c-1.00522,-1.13992 -1.06107,-2.27985 -1.06107,-14.43896l0,-13.19047l1.50783,-0.9228c1.11691,-0.75994 1.28445,-1.03136 0.67015,-1.35705c-0.83769,-0.43425 -10.49898,-0.97707 -10.88989,-0.59709z"></path>
                <path fill="#c80000" id="svg_8" d="m256.06491,101.45276l-3.51826,1.84558l5.91963,6.02528c8.54437,8.73937 18.70828,22.20124 18.70828,24.80677c0,0.86852 0.89352,0.59711 5.47287,-1.89984l3.46243,-1.89987l-1.78708,-3.25691c-3.1832,-5.59102 -10.49896,-14.65607 -17.31213,-21.27846c-3.5741,-3.47404 -6.75729,-6.29669 -6.98068,-6.29669c-0.22339,0.05428 -2.01044,0.9228 -3.96506,1.95415z"></path>
                <path fill="#c80000" id="svg_9" d="m176.42911,106.3924c-2.73643,9.44503 -7.595,16.88165 -14.07309,21.54987c-1.78706,1.35704 -3.1832,2.60551 -3.07152,2.82265c0.11169,0.27141 1.73122,1.46562 3.57413,2.7141c3.35074,2.27983 3.35074,2.27983 4.97026,1.35704c5.08194,-2.87694 11.3925,-10.91064 14.40816,-18.23869c1.39613,-3.47403 3.90919,-11.50774 3.90919,-12.53909c0,-0.37998 -1.61952,-0.97707 -5.41702,-2.06271l-2.79228,-0.81422l-1.50783,5.21105z"></path>
                <path fill="#c80000" id="svg_10" d="m181.67859,172.45332l0,14.38467l-12.56526,0l-12.56526,0l0,4.34256l0,4.34253l11.78343,0c10.94574,0 11.72757,0.05429 11.44835,0.92279c-0.16754,0.54282 -0.83769,2.65982 -1.50784,4.77681c-2.62474,8.41367 -9.77298,24.26396 -14.07309,31.21202c-2.84811,4.66823 -6.2547,9.4993 -8.54437,12.26768l-2.51305,2.98549l1.34029,1.73703c0.726,0.97707 1.89876,2.76836 2.62474,4.01686c1.61952,2.87692 1.67537,2.87692 6.98071,-4.99394c5.24948,-7.7623 10.83405,-18.51009 15.97183,-30.88634l1.3403,-3.20262l0.16753,33.43758l0.11169,33.49185l4.46765,0l4.46765,0l0.11168,-30.83203l0.16754,-30.77779l4.18842,4.88536c2.28967,2.65981 5.69626,6.89378 7.53915,9.33647c1.84291,2.44269 3.51828,4.39682 3.74167,4.34254c0.16753,-0.05429 1.61952,-1.68274 3.12735,-3.63689l2.79228,-3.47403l-2.84813,-3.25691c-1.61952,-1.79129 -6.47809,-6.83951 -10.83405,-11.23633l-7.98592,-7.97942l0,-6.5681l0,-6.5681l10.61066,0l10.61066,0l0,-4.34253l0,-4.34256l-10.61066,0l-10.61066,0l0,-13.29903c0,-10.91064 0.11168,-13.29903 0.78183,-13.29903c0.39091,0 1.06107,-0.3257 1.39615,-0.75996c0.50261,-0.59709 0,-0.75995 -2.79228,-1.08563c-1.89876,-0.16284 -4.57935,-0.32568 -5.86378,-0.32568l-2.45721,0l0,14.38466z"></path>
                <path fill="#c80000" id="svg_11" d="m257.6286,172.45332l0,14.38467l-20.94209,0l-20.94211,0l0,4.34256l0,4.34253l20.94211,0l20.94209,0l0,37.67157c0,33.43758 -0.11169,37.72585 -0.83771,37.99724c-0.50259,0.16284 -5.91962,0.32568 -12.00677,0.32568l-11.16913,0.05429l0.89354,2.00842c0.50261,1.08563 1.34029,3.31119 1.78705,4.83109l0.83769,2.87692l7.31577,0c11.78345,-0.05429 18.70828,-1.68274 21.22134,-5.04819c1.17273,-1.5199 1.17273,-2.22556 1.45197,-40.98276l0.27924,-39.46286l7.42746,-0.16284l7.37161,-0.16284l0,-4.28825l0,-4.28827l-7.37161,-0.16286l-7.42746,-0.16284l-0.16754,-12.81049l-0.11169,-12.8105l1.39615,-0.59711c0.78183,-0.32568 1.39615,-0.86852 1.39615,-1.08565c0,-0.48853 -5.69626,-1.19418 -9.88467,-1.19418l-2.40137,0l0,14.38466z"></path>
                <path fill="#c80000" id="svg_12" d="m222.55757,211.97047l-3.51828,1.79129l1.00522,1.30278c4.24426,5.42816 12.34189,19.70427 15.3017,26.86946c0.94937,2.38841 1.84291,4.39684 1.89876,4.5054c0.11168,0.10857 1.95459,-0.70566 4.13257,-1.84558c2.51305,-1.24847 3.96504,-2.33412 3.96504,-2.93123c0,-2.98549 -16.92122,-31.5377 -18.65244,-31.48343c-0.33507,0.05429 -2.17798,0.86852 -4.13257,1.79131z"></path>
            </g>
        </g>
    </g>
</svg>