<svg width="300" height="300" xmlns="http://www.w3.org/2000/svg">
    <path fill="none" stroke="#c80000" stroke-width="8.571" stroke-linecap="round" stroke-linejoin="round" stroke-dashoffset="55.5" d="M30 4.286C12.857 4.286 4.286 12.856 4.286 30v240c0 17.143 8.57 25.714 25.714 25.714h240c17.143 0 25.714-8.57 25.714-25.714V30c0-17.143-8.57-25.714-25.714-25.714H30z"/>
    <path fill="none" stroke="#c80000" stroke-width="8.571" stroke-linecap="round" stroke-linejoin="round" stroke-dashoffset="55.5" d="M21.43 137.143v-90c0-12.857 0-25.714 15-25.714s15 12.856 15 25.713V120c0 17.143 4.284 21.43 21.427 21.43H90c12.857 0 17.143-4.287 17.143-17.144V111.43c0-17.144-4.286-17.144-12.857-17.144-8.572 0-12.857 0-12.857-8.572v-38.57c0-21.43 4.284-25.715 25.713-25.715h8.57c21.43 0 25.716 4.284 25.716 25.713v90M81.43 278.57V210c0-12.857 4.284-17.143 17.14-17.143h25.716c12.857 0 17.143 4.286 17.143 17.143v68.57M111.43 180v30M98.57 210v68.57M124.286 278.57V210M94.286 210h34.285M81.43 167.143h60M111.43 162.857v4.286M42.857 162.857v98.572c0 8.57 0 17.14-10.714 17.14S21.43 270 21.43 261.43v-47.144"/>
    <path fill="none" stroke="#c80000" stroke-width="8.571" stroke-linecap="round" stroke-linejoin="round" stroke-dashoffset="55.5" d="M21.43 162.857v12.857c0 12.857 4.284 17.143 17.14 17.143h8.573c12.857 0 17.143-4.286 17.143-17.143v-12.857M64.286 278.57v-51.427C64.286 214.286 60 210 47.143 210h-4.286"/>
    <g fill="#c80000">
        <path d="M217.42 29.367v10.91h-56.404V48.962h56.404v23.884H169.95v8.683H275.5V72.847h-48.865l.11-11.78.113-11.832 28.537-.163 28.48-.108V40.277h-57.242l.17-9.282c.166-8.848.222-9.336 1.395-10.26.67-.542 1.117-1.085.95-1.248-.168-.163-2.85-.434-5.976-.65l-5.752-.38v10.91zM206.977 85.928l-2.96 2.714 1.73.923c7.205 3.8 15.303 9.608 20.72 14.928l3.91 3.8 3.294-3.203 3.296-3.15-2.122-2.116c-2.458-2.442-8.154-7.056-12.12-9.716-3.796-2.55-11.56-6.948-12.285-6.948-.28 0-1.9 1.248-3.463 2.768zM195.305 99.39c-.112.11-.223 7.545-.223 16.447 0 17.37.167 18.456 2.848 20.9 2.792 2.442 6.534 2.876 26.47 2.876 20.72 0 23.065-.326 25.634-3.31 1.73-2.01 3.518-7.438 4.188-12.975.503-4.125.168-5.428-1.34-5.428-.615 0-4.69-1.628-6.478-2.55-.168-.11-.503 2.28-.726 5.318-.224 3.04-.726 6.35-1.173 7.33-1.508 3.527-1.564 3.527-20.942 3.364l-17.424-.163-1.062-1.304c-1.005-1.14-1.06-2.28-1.06-14.44v-13.19l1.507-.922c1.117-.76 1.284-1.03.67-1.357-.838-.434-10.5-.977-10.89-.597zM256.065 101.453l-3.518 1.845 5.92 6.026c8.544 8.74 18.708 22.2 18.708 24.806 0 .87.893.597 5.472-1.9l3.463-1.9-1.787-3.256c-3.183-5.59-10.5-14.656-17.312-21.28-3.573-3.473-6.757-6.295-6.98-6.295-.223.053-2.01.92-3.965 1.953zM176.43 106.392c-2.737 9.445-7.596 16.882-14.074 21.55-1.787 1.357-3.183 2.606-3.07 2.823.11.27 1.73 1.466 3.573 2.714 3.35 2.28 3.35 2.28 4.97 1.356 5.08-2.877 11.39-10.91 14.407-18.24 1.396-3.473 3.91-11.506 3.91-12.538 0-.38-1.62-.977-5.418-2.062l-2.793-.815-1.508 5.212zM181.68 172.453v14.385H156.547v8.686h11.784c10.945 0 11.727.054 11.448.923-.168.543-.838 2.66-1.508 4.777-2.625 8.413-9.773 24.264-14.073 31.212-2.85 4.668-6.256 9.5-8.545 12.267l-2.513 2.986 1.34 1.737c.726.977 1.9 2.768 2.625 4.017 1.62 2.877 1.675 2.877 6.98-4.994 5.25-7.762 10.834-18.51 15.972-30.887l1.34-3.2.167 33.436.112 33.492H190.613l.112-30.832.167-30.778 4.19 4.886c2.288 2.66 5.695 6.894 7.538 9.336 1.844 2.443 3.52 4.397 3.742 4.343.168-.054 1.62-1.683 3.128-3.637l2.792-3.474-2.848-3.257c-1.62-1.79-6.478-6.84-10.834-11.236l-7.986-7.98v-13.137h21.22v-8.684h-21.22v-13.3c0-10.91.112-13.298.782-13.298.39 0 1.06-.326 1.396-.76.502-.597 0-.76-2.792-1.086-1.9-.163-4.58-.325-5.864-.325h-2.457v14.383zM257.63 172.453v14.385h-41.886v8.686H257.63v37.672c0 33.437-.113 37.726-.84 37.997-.502.163-5.92.326-12.006.326l-11.17.054.895 2.008c.5 1.086 1.34 3.31 1.786 4.83l.837 2.878h7.316c11.782-.054 18.707-1.682 21.22-5.048 1.173-1.52 1.173-2.225 1.452-40.983l.28-39.463 7.427-.162 7.37-.163v-8.578l-7.37-.163-7.428-.163-.168-12.81-.112-12.81 1.397-.6c.78-.324 1.395-.867 1.395-1.084 0-.49-5.697-1.194-9.885-1.194h-2.4v14.383z"/>
        <path d="M222.558 211.97l-3.52 1.792 1.007 1.303c4.244 5.428 12.34 19.704 15.3 26.87.95 2.387 1.844 4.396 1.9 4.504.112.108 1.955-.706 4.133-1.846 2.513-1.25 3.965-2.334 3.965-2.93 0-2.987-16.922-31.54-18.653-31.485-.335.053-2.178.868-4.132 1.79z"/>
    </g>
</svg>
