<svg xmlns="http://www.w3.org/2000/svg" width="100" height="100">
    <g fill="#f5c839" stroke="#000" stroke-linecap="round" stroke-linejoin="round">
        <path d="M54.7 6.49c2.686-3.77 6.07-3.086 9.198-2.87C60.592 1.71 57.05.91 53.563 1.016c-7.674.24-15.065 4.953-18.938 12.398-1.74 3.428-2.9 7.07-3 10.922 0 10.15 8.227 18.375 18.375 18.375s18.375-8.226 18.375-18.375c0-8.53-5.796-15.776-13.676-17.847zM9.97 67.685c-4.61-.44-5.71-3.715-7.087-6.53 0 3.818 1.077 7.285 2.915 10.25 4.044 6.528 11.822 10.57 20.206 10.202 3.838-.207 7.57-1.023 10.96-2.863 8.788-5.074 11.8-16.312 6.725-25.1-5.075-8.79-16.313-11.8-25.102-6.726-7.387 4.265-10.765 12.908-8.62 20.767zM85.33 75.825c1.924 4.212-.362 6.8-2.112 9.402 3.307-1.91 5.77-4.575 7.42-7.65 3.63-6.765 3.244-15.523-1.267-22.6-2.098-3.22-4.67-6.045-7.958-8.06-8.79-5.073-20.027-2.062-25.1 6.727-5.075 8.788-2.064 20.026 6.725 25.1 7.387 4.265 16.56 2.87 22.294-2.92z"/>
    </g>
</svg>
