<svg xmlns:dc="http://purl.org/dc/elements/1.1/" xmlns:cc="http://creativecommons.org/ns#" xmlns:rdf="http://www.w3.org/1999/02/22-rdf-syntax-ns#" xmlns:svg="http://www.w3.org/2000/svg" xmlns="http://www.w3.org/2000/svg" xmlns:sodipodi="http://sodipodi.sourceforge.net/DTD/sodipodi-0.dtd" xmlns:inkscape="http://www.inkscape.org/namespaces/inkscape" width="100" height="100" id="svg2" version="1.1" inkscape:version="0.47 r22583" sodipodi:docname="New document 1">
    <defs id="defs4"/>
    <sodipodi:namedview id="base" pagecolor="#ffffff" bordercolor="#666666" borderopacity="1.0" inkscape:pageopacity="0.0" inkscape:pageshadow="2" inkscape:zoom="2.3962103" inkscape:cx="109.18725" inkscape:cy="9.8532875" inkscape:document-units="px" inkscape:current-layer="layer1" showgrid="false" inkscape:snap-global="true" inkscape:object-nodes="true" inkscape:snap-smooth-nodes="true" inkscape:object-paths="true" inkscape:snap-nodes="true" inkscape:snap-object-midpoints="true" inkscape:snap-center="true" inkscape:window-width="1280" inkscape:window-height="940" inkscape:window-x="-8" inkscape:window-y="-8" inkscape:window-maximized="1"/>
    <g inkscape:label="Layer 1" inkscape:groupmode="layer" id="layer1" transform="translate(155.40626,-765.96686)">
        <path style="fill:#f5c839;fill-opacity:1;stroke:#000000;stroke-width:1;stroke-linecap:round;stroke-linejoin:round;stroke-miterlimit:4;stroke-opacity:1;stroke-dashoffset:0" d="m -100.70703,772.45654 c 2.686883,-3.7708 6.072049,-3.0857 9.199217,-2.87109 -3.306943,-1.90927 -6.847832,-2.71005 -10.335937,-2.60156 -7.67383,0.23867 -15.06453,4.9531 -18.9375,12.39844 -1.73901,3.42704 -2.89943,7.06821 -3,10.92187 0,10.14824 8.22676,18.375 18.375,18.375 10.148232,0 18.375,-8.22676 18.375,-18.375 0,-8.52954 -5.796266,-15.77668 -13.67578,-17.84766 z" id="path2830" sodipodi:nodetypes="cccccssc"/>
        <path sodipodi:nodetypes="cccccssc" id="path3632" d="m -145.43685,833.65224 c -4.60905,-0.44151 -5.70832,-3.7157 -7.08605,-6.53121 0,3.81853 1.07695,7.28542 2.91495,10.25196 4.04362,6.5264 11.82178,10.56972 20.20612,10.20114 3.83741,-0.20749 7.57096,-1.02313 10.95862,-2.86286 8.78863,-5.07412 11.79983,-16.31209 6.72571,-25.10072 -5.07411,-8.78862 -16.31208,-11.79983 -25.10071,-6.72571 -7.3868,4.26477 -10.76487,12.90805 -8.61864,20.7674 z" style="fill:#f5c839;fill-opacity:1;stroke:#000000;stroke-width:1;stroke-linecap:round;stroke-linejoin:round;stroke-miterlimit:4;stroke-opacity:1;stroke-dashoffset:0"/>
        <path style="fill:#f5c839;fill-opacity:1;stroke:#000000;stroke-width:1;stroke-linecap:round;stroke-linejoin:round;stroke-miterlimit:4;stroke-opacity:1;stroke-dashoffset:0" d="m -70.074872,841.79162 c 1.922171,4.21231 -0.363728,6.8014 -2.113172,9.4023 3.306946,-1.90926 5.770888,-4.57537 7.420988,-7.6504 3.630219,-6.76507 3.24275,-15.52282 -1.268612,-22.59958 -2.098401,-3.21954 -4.671543,-6.04508 -7.958621,-8.05901 -8.78863,-5.07412 -20.026599,-2.06291 -25.100717,6.72572 -5.074114,8.78862 -2.062914,20.0266 6.725717,25.10071 7.386798,4.26477 16.561136,2.86863 22.294417,-2.91974 z" id="path3638" sodipodi:nodetypes="cccccssc"/>
    </g>
    <metadata id="metadata3670">
        <rdf:RDF>
            <cc:Work rdf:about="">
                <dc:title/>
            </cc:Work>
        </rdf:RDF>
    </metadata>
</svg>