<svg xmlns="http://www.w3.org/2000/svg" width="75" height="100">
    <g stroke="#000" stroke-linecap="round" stroke-linejoin="round" stroke-dashoffset="55.5">
        <path d="M29.696 51.987l-14.67 28.957M28.826 47.987L2.483 59.63M30.5 43.007L3.553 31.434M34.394 39.216L20.734 19.76" stroke-width="4.907"/>
        <path d="M12.953 81.608l9.163 18.085-4.605-18.75-4.557.665zM.307 59.602l2.075 22.323L4.967 59.63l-4.66-.028zM13.64 12.037L1.622 30.447l4.415.987 7.603-19.397zM23.22 19.76L30.087.307l-11.26 18.438 4.39 1.015z" stroke-width=".613"/>
        <path d="M298.214 439.483c0 9.008-6.483 16.31-14.48 16.31-8 0-14.483-7.302-14.483-16.31s6.484-16.31 14.483-16.31c7.998 0 14.48 7.302 14.48 16.31z" transform="matrix(.7268 0 0 .6296 -168.713 -228.837)"/>
        <path d="M46.485 58.418l-6.68 14.737c-.862 1.904-3.798 1.794-4.61 0l-6.68-14.737.84-4.47h16.29l.84 4.47z" stroke-width=".613"/>
        <path d="M45.304 51.987l14.67 28.957M46.174 47.987L72.517 59.63M44.5 43.007l26.947-11.573M40.606 39.216l13.66-19.456" stroke-width="4.907"/>
        <path d="M62.047 81.608l-9.163 18.085 4.605-18.75 4.557.665zM74.693 59.602l-2.075 22.323-2.585-22.294 4.66-.028zM61.36 12.037l12.018 18.41-4.415.987-7.603-19.397zM51.78 19.76L44.913.307l11.26 18.438-4.39 1.015z" stroke-width=".613"/>
    </g>
</svg>
