<svg xmlns="http://www.w3.org/2000/svg" version="1" width="150" height="200">
    <path d="M75 2.86C35.18 2.86 2.86 34.4 2.86 73.258c0 6.122.798 12.058 2.305 17.722C21.627 75.02 46.805 64.81 75 64.81c28.196 0 53.373 10.21 69.835 26.17 1.507-5.665 2.304-11.6 2.304-17.723 0-38.86-32.32-70.396-72.14-70.396z" fill="#e10000" stroke="#000" stroke-width="5.721" stroke-linecap="round"/>
    <path d="M75 77.38c-27.21 0-50.97 11.576-63.75 28.784 10.612 19.53 30.34 33.595 53.656 36.784v54.19h20.188v-54.19c23.317-3.19 43.044-17.255 53.656-36.784C125.97 88.956 102.21 77.38 75 77.38z" fill="#fff" stroke="#000" stroke-width="5.721" stroke-linecap="round"/>
</svg>
