<svg xmlns="http://www.w3.org/2000/svg" width="300" height="300">
    <path style="text-align:center;-inkscape-font-specification:MS Gothic" d="M273.525 99.894c-4.838 18.237-13.966 33.51-27.382 45.82l-6.27-13.678c12.978-10.03 21.665-23.024 26.064-38.98 4.18-15.047 6.27-35.336 6.27-60.868h-41.9v45.137h-7.588V17.143h58.063c0 36.93-2.42 64.514-7.258 82.75zM248.454 195.247l22.65-1.707v35.272c0 18.584-.86 31.668-2.58 39.254-1.722 7.585-5.353 11.378-10.896 11.378h-6.88l-.86-14.223c2.866.76 5.35 1.14 7.454 1.14 2.867 0 4.682-1.897 5.447-5.69 1.146-6.068 1.72-16.688 1.72-31.858v-23.325l-16.342 1.138c-1.147 32.237-8.697 57.648-22.65 76.232l-4.873-9.67c13.188-17.447 20.164-39.634 20.93-66.562l-20.356 1.137-.575-11.378 21.215-1.137v-31.86h6.02c2.103.76 2.294 2.277.574 4.552zm22.935-9.672c-3.25-7.585-6.212-13.843-8.888-18.774l3.44-6.825c2.676 4.93 5.64 11.188 8.888 18.773l-3.44 6.827zm8.027-5.69c-3.44-7.963-6.403-14.22-8.888-18.772l3.44-6.827c2.675 4.93 5.638 11.188 8.887 18.773l-3.44 6.826zM170.035 133.11c20.566-10.505 32.122-32.564 34.666-66.177h-48.34V53.067h48.66l2.86-1.89 5.726 6.932c1.272 2.1 1.06 3.99-.636 5.67-3.392 42.018-15.796 69.33-37.21 81.934zm35.938-102.102h-43.89V17.143h43.89zM160.995 265.946c22.16-9.925 38.83-33.29 50.013-70.098l5.49 11.166c-10.37 33.912-26.43 57.898-48.184 71.96-.61 4.962-1.627 5.17-3.05.62zm-2.135-75.06c5.083 5.376 10.267 11.993 15.553 19.85l-4.88 13.027c-6.098-9.098-11.18-15.715-15.247-19.85l4.574-13.027zm8.54-36.6c5.488 6.203 10.673 12.82 15.552 19.85l-4.27 13.028c-5.49-7.858-10.57-14.475-15.247-19.85l3.964-13.028z" font-size="70" text-anchor="middle" fill="#c80000" font-family="MS Gothic"/>
    <path d="M21.43 137.143v-90c0-12.857 0-25.714 15-25.714s15 12.856 15 25.713V120c0 17.143 4.284 21.43 21.427 21.43H90c12.857 0 17.143-4.287 17.143-17.144V111.43c0-17.144-4.286-17.144-12.857-17.144-8.572 0-12.857 0-12.857-8.572v-38.57c0-21.43 4.284-25.715 25.713-25.715h8.57c21.43 0 25.716 4.284 25.716 25.713v90M21.43 158.57H30c12.857 0 17.143 8.573 17.143 17.144V278.57" fill="none" stroke="#c80000" stroke-width="8.571" stroke-linecap="round" stroke-linejoin="round" stroke-dashoffset="55.5"/>
    <path d="M21.43 278.57V210c0-17.143 8.57-21.43 21.427-21.43h4.286M77.143 278.57v-17.14c0-8.573 4.286-17.144 12.857-17.144h12.857M102.857 278.57v-77.14M124.286 201.43v77.14" fill="none" stroke="#c80000" stroke-width="8.571" stroke-linecap="round" stroke-linejoin="round" stroke-dashoffset="55.5"/>
    <path d="M60 278.57v-94.284c0-17.143 8.57-21.43 17.143-21.43h47.143c8.57 0 17.143 4.287 17.143 21.43v94.285M72.857 222.857h51.43M72.857 180h55.714" fill="none" stroke="#c80000" stroke-width="8.571" stroke-linecap="round" stroke-linejoin="round" stroke-dashoffset="55.5"/>
    <path d="M72.857 201.43H98.57c12.86 0 12.86-4.287 12.86-12.86V180M94.286 158.57h8.57" fill="none" stroke="#c80000" stroke-width="8.571" stroke-linecap="round" stroke-linejoin="round" stroke-dashoffset="55.5"/>
    <path d="M30 4.286C12.857 4.286 4.286 12.856 4.286 30v240c0 17.143 8.57 25.714 25.714 25.714h240c17.143 0 25.714-8.57 25.714-25.714V30c0-17.143-8.57-25.714-25.714-25.714H30z" fill="none" stroke="#c80000" stroke-width="8.571" stroke-linecap="round" stroke-linejoin="round" stroke-dashoffset="55.5"/>
</svg>
