<svg xmlns:dc="http://purl.org/dc/elements/1.1/" xmlns:cc="http://creativecommons.org/ns#" xmlns:rdf="http://www.w3.org/1999/02/22-rdf-syntax-ns#" xmlns:svg="http://www.w3.org/2000/svg" xmlns="http://www.w3.org/2000/svg" xmlns:sodipodi="http://sodipodi.sourceforge.net/DTD/sodipodi-0.dtd" xmlns:inkscape="http://www.inkscape.org/namespaces/inkscape" width="300" height="300" id="svg2" version="1.1" inkscape:version="0.47 r22583" sodipodi:docname="Wagarashi Symbol.svg">
    <defs id="defs4">
        <inkscape:perspective sodipodi:type="inkscape:persp3d" inkscape:vp_x="0 : 526.18109 : 1" inkscape:vp_y="0 : 1000 : 0" inkscape:vp_z="744.09448 : 526.18109 : 1" inkscape:persp3d-origin="372.04724 : 350.78739 : 1" id="perspective10"/>
        <inkscape:perspective id="perspective8716" inkscape:persp3d-origin="0.5 : 0.33333333 : 1" inkscape:vp_z="1 : 0.5 : 1" inkscape:vp_y="0 : 1000 : 0" inkscape:vp_x="0 : 0.5 : 1" sodipodi:type="inkscape:persp3d"/>
        <inkscape:perspective id="perspective8756" inkscape:persp3d-origin="0.5 : 0.33333333 : 1" inkscape:vp_z="1 : 0.5 : 1" inkscape:vp_y="0 : 1000 : 0" inkscape:vp_x="0 : 0.5 : 1" sodipodi:type="inkscape:persp3d"/>
        <inkscape:perspective id="perspective8789" inkscape:persp3d-origin="0.5 : 0.33333333 : 1" inkscape:vp_z="1 : 0.5 : 1" inkscape:vp_y="0 : 1000 : 0" inkscape:vp_x="0 : 0.5 : 1" sodipodi:type="inkscape:persp3d"/>
        <inkscape:perspective id="perspective8840" inkscape:persp3d-origin="0.5 : 0.33333333 : 1" inkscape:vp_z="1 : 0.5 : 1" inkscape:vp_y="0 : 1000 : 0" inkscape:vp_x="0 : 0.5 : 1" sodipodi:type="inkscape:persp3d"/>
        <inkscape:perspective id="perspective8880" inkscape:persp3d-origin="0.5 : 0.33333333 : 1" inkscape:vp_z="1 : 0.5 : 1" inkscape:vp_y="0 : 1000 : 0" inkscape:vp_x="0 : 0.5 : 1" sodipodi:type="inkscape:persp3d"/>
        <inkscape:perspective id="perspective8918" inkscape:persp3d-origin="0.5 : 0.33333333 : 1" inkscape:vp_z="1 : 0.5 : 1" inkscape:vp_y="0 : 1000 : 0" inkscape:vp_x="0 : 0.5 : 1" sodipodi:type="inkscape:persp3d"/>
        <inkscape:perspective id="perspective8955" inkscape:persp3d-origin="0.5 : 0.33333333 : 1" inkscape:vp_z="1 : 0.5 : 1" inkscape:vp_y="0 : 1000 : 0" inkscape:vp_x="0 : 0.5 : 1" sodipodi:type="inkscape:persp3d"/>
        <inkscape:perspective id="perspective8982" inkscape:persp3d-origin="0.5 : 0.33333333 : 1" inkscape:vp_z="1 : 0.5 : 1" inkscape:vp_y="0 : 1000 : 0" inkscape:vp_x="0 : 0.5 : 1" sodipodi:type="inkscape:persp3d"/>
    </defs>
    <sodipodi:namedview id="base" pagecolor="#ffffff" bordercolor="#666666" borderopacity="1.0" inkscape:pageopacity="0.0" inkscape:pageshadow="2" inkscape:zoom="1.495" inkscape:cx="369.15736" inkscape:cy="97.850593" inkscape:document-units="px" inkscape:current-layer="layer1" showgrid="false" inkscape:window-width="1280" inkscape:window-height="940" inkscape:window-x="-8" inkscape:window-y="-8" inkscape:window-maximized="1"/>
    <metadata id="metadata7">
        <rdf:RDF>
            <cc:Work rdf:about="">
                <dc:format>image/svg+xml</dc:format>
                <dc:type rdf:resource="http://purl.org/dc/dcmitype/StillImage"/>
                <dc:title/>
            </cc:Work>
        </rdf:RDF>
    </metadata>
    <g inkscape:label="Layer 1" inkscape:groupmode="layer" id="layer1" transform="translate(-202.10224,-506.47589)">
        <path id="path5223" style="font-size:70px;font-style:normal;font-variant:normal;font-weight:normal;font-stretch:normal;text-align:center;text-anchor:middle;fill:#c80000;fill-opacity:1;stroke:none;font-family:MS Gothic;-inkscape-font-specification:MS Gothic" d="m 475.62765,606.36949 c -4.8389,18.23709 -13.96643,33.51066 -27.38279,45.82068 l -6.26829,-13.67781 c 12.97647,-10.03038 21.66414,-23.02431 26.06298,-38.98179 4.17891,-15.04551 6.26828,-35.33424 6.26846,-60.86622 l -41.89886,0 0,45.13674 -7.58793,0 0,-60.18233 58.06439,0 c 0,36.93014 -2.41938,64.5137 -7.25796,82.75073 z"/>
        <path id="path5225" style="font-size:70px;font-style:normal;font-variant:normal;font-weight:normal;font-stretch:normal;text-align:center;text-anchor:middle;fill:#c80000;fill-opacity:1;stroke:none;font-family:MS Gothic;-inkscape-font-specification:MS Gothic" d="m 450.55642,701.72242 22.64861,-1.70673 0,35.27181 c 0,18.58413 -0.86006,31.66881 -2.58017,39.25413 -1.72029,7.58532 -5.35164,11.37801 -10.89429,11.37801 l -6.88062,0 -0.86004,-14.22252 c 2.8668,0.75855 5.35146,1.13781 7.45386,1.13781 2.86698,0 4.68276,-1.89633 5.44716,-5.68902 1.14684,-6.06825 1.72011,-16.68768 1.72029,-31.85841 l 0,-23.32491 -16.34145,1.13784 c -1.14684,32.2377 -8.6964,57.64854 -22.64862,76.23258 l -4.87371,-9.67128 c 13.18767,-17.44626 20.16393,-39.63333 20.92833,-66.5613 l -20.35491,1.13778 -0.57342,-11.37801 21.21513,-1.13778 0,-31.85844 6.0204,0 c 2.1024,0.75867 2.29356,2.27571 0.57345,4.55121 z m 22.93523,-9.67131 c -3.24908,-7.58526 -6.21152,-13.84314 -8.88734,-18.77373 l 3.44022,-6.8268 c 2.67582,4.93059 5.63828,11.1885 8.88752,18.77373 l -3.4404,6.8268 z m 8.02749,-5.68902 c -3.4404,-7.96449 -6.40284,-14.2224 -8.88752,-18.7737 l 3.44039,-6.8268 c 2.67564,4.93059 5.63811,11.1885 8.88735,18.7737 l -3.44022,6.8268 z"/>
        <path id="path5227" style="font-size:70px;font-style:normal;font-variant:normal;font-weight:normal;font-stretch:normal;text-align:center;text-anchor:middle;fill:#c80000;fill-opacity:1;stroke:none;font-family:MS Gothic;-inkscape-font-specification:MS Gothic" d="m 372.13726,639.58513 c 20.56647,-10.5042 32.12178,-32.56299 34.66611,-66.17649 l -48.34164,0 0,-13.86555 48.65964,0 2.86236,-1.89075 5.72469,6.93276 c 1.27215,2.10093 1.06011,3.99168 -0.636,5.67228 -3.39258,42.01683 -15.79596,69.32775 -37.21047,81.93279 z m 35.93829,-102.10086 -43.88913,0 0,-13.86551 43.88913,0 z"/>
        <path id="path5229" style="font-size:70px;font-style:normal;font-variant:normal;font-weight:normal;font-stretch:normal;text-align:center;text-anchor:middle;fill:#c80000;fill-opacity:1;stroke:none;font-family:MS Gothic;-inkscape-font-specification:MS Gothic" d="m 363.09715,772.42213 c 22.1604,-9.92535 38.83149,-33.29136 50.01342,-70.098 l 5.48934,11.16606 c -10.36869,33.91176 -26.43,57.89802 -48.18378,71.95899 -0.60996,4.96269 -1.62651,5.16948 -3.04956,0.62034 z m -2.1348,-75.06072 c 5.08269,5.37636 10.26702,11.99325 15.55302,19.85076 l -4.87935,13.02708 c -6.09927,-9.09819 -11.18196,-15.71511 -15.24807,-19.85076 l 4.5744,-13.02708 z m 8.53887,-36.59982 c 5.48931,6.20346 10.67364,12.82038 15.55302,19.85076 l -4.26942,13.02708 c -5.48931,-7.85751 -10.572,-14.47443 -15.24807,-19.85076 l 3.96447,-13.02708 z"/>
        <path sodipodi:nodetypes="cccccccccccccccc" id="path5283" d="m 223.53082,643.61875 0,-90 c 0,-12.85716 0,-25.71428 15,-25.71428 15,0 15,12.85712 15,25.71428 l 0,72.85713 c 0,17.14287 4.28571,21.42858 21.42855,21.42858 l 17.14287,0 c 12.85713,0 17.14287,-4.28571 17.14287,-17.14287 l 0,-12.85713 c 0,-17.14287 -4.28574,-17.14287 -12.85716,-17.14287 -8.57142,0 -12.85713,0 -12.85713,-8.57142 l 0,-38.57142 c 0,-21.42857 4.28571,-25.71428 25.71429,-25.71428 l 8.57142,0 c 21.42858,0 25.71429,4.28571 25.71429,25.71428 l 0,90" style="fill:none;stroke:#c80000;stroke-width:8.5714283;stroke-linecap:round;stroke-linejoin:round;stroke-miterlimit:4;stroke-opacity:1;stroke-dasharray:none;stroke-dashoffset:55.5000029"/>
        <path sodipodi:nodetypes="cccc" id="path5285" d="m 223.53082,665.0473 8.57142,0 c 12.85713,0 17.14287,8.57145 17.14287,17.14287 l 0,102.85713" style="fill:none;stroke:#c80000;stroke-width:8.5714283;stroke-linecap:round;stroke-linejoin:round;stroke-miterlimit:4;stroke-opacity:1;stroke-dasharray:none;stroke-dashoffset:55.5000029"/>
        <path sodipodi:nodetypes="cccc" id="path5287" d="m 223.53082,785.0473 0,-68.57142 c 0,-17.14287 8.57142,-21.42858 21.42855,-21.42858 l 4.28574,0" style="fill:none;stroke:#c80000;stroke-width:8.5714283;stroke-linecap:round;stroke-linejoin:round;stroke-miterlimit:4;stroke-opacity:1;stroke-dasharray:none;stroke-dashoffset:55.5000029"/>
        <path sodipodi:nodetypes="cccc" id="path5289" d="m 279.24511,785.0473 0,-17.14284 c 0,-8.57145 4.28571,-17.14287 12.85713,-17.14287 l 12.85713,0" style="fill:none;stroke:#c80000;stroke-width:8.5714283;stroke-linecap:round;stroke-linejoin:round;stroke-miterlimit:4;stroke-opacity:1;stroke-dasharray:none;stroke-dashoffset:55.5000029"/>
        <path id="path5291" d="m 304.95937,785.0473 0,-77.14284" style="fill:none;stroke:#c80000;stroke-width:8.5714283;stroke-linecap:round;stroke-linejoin:round;stroke-miterlimit:4;stroke-opacity:1;stroke-dasharray:none;stroke-dashoffset:55.5000029"/>
        <path id="path5293" d="m 326.38795,707.90446 0,77.14284" style="fill:none;stroke:#c80000;stroke-width:8.5714283;stroke-linecap:round;stroke-linejoin:round;stroke-miterlimit:4;stroke-opacity:1;stroke-dasharray:none;stroke-dashoffset:55.5000029"/>
        <path sodipodi:nodetypes="cccccc" id="path5295" d="m 262.10224,785.0473 0,-94.28571 c 0,-17.14284 8.57142,-21.42858 17.14287,-21.42858 l 47.14284,0 c 8.57142,0 17.14287,4.28574 17.14287,21.42858 l 0,94.28571" style="fill:none;stroke:#c80000;stroke-width:8.5714283;stroke-linecap:round;stroke-linejoin:round;stroke-miterlimit:4;stroke-opacity:1;stroke-dasharray:none;stroke-dashoffset:55.5000029"/>
        <path id="path5297" d="m 274.95937,729.33301 51.42858,0" style="fill:none;stroke:#c80000;stroke-width:8.5714283;stroke-linecap:round;stroke-linejoin:round;stroke-miterlimit:4;stroke-opacity:1;stroke-dasharray:none;stroke-dashoffset:55.5000029"/>
        <path id="path5299" d="m 274.95937,686.47588 55.71429,0" style="fill:none;stroke:#c80000;stroke-width:8.5714283;stroke-linecap:round;stroke-linejoin:round;stroke-miterlimit:4;stroke-opacity:1;stroke-dasharray:none;stroke-dashoffset:55.5000029"/>
        <path sodipodi:nodetypes="cccc" id="path5301" d="m 274.95937,707.90446 25.71429,0 c 12.85716,0 12.85716,-4.28571 12.85716,-12.85716 l 0,-8.57142" style="fill:none;stroke:#c80000;stroke-width:8.5714283;stroke-linecap:round;stroke-linejoin:round;stroke-miterlimit:4;stroke-opacity:1;stroke-dasharray:none;stroke-dashoffset:55.5000029"/>
        <path id="path5303" d="m 296.38795,665.0473 8.57142,0" style="fill:none;stroke:#c80000;stroke-width:8.5714283;stroke-linecap:round;stroke-linejoin:round;stroke-miterlimit:4;stroke-opacity:1;stroke-dasharray:none;stroke-dashoffset:55.5000029"/>
        <path sodipodi:nodetypes="ccccccccc" id="path8141" d="m 232.10224,510.7616 c -17.14287,0 -25.71429,8.57142 -25.71429,25.71428 l 0,240 c 0,17.14287 8.57142,25.71429 25.71429,25.71429 l 240,0 c 17.14286,0 25.71428,-8.57142 25.71428,-25.71429 l 0,-240 c 0,-17.14286 -8.57142,-25.71428 -25.71428,-25.71428 l -240,0 z" style="fill:none;stroke:#c80000;stroke-width:8.5714283;stroke-linecap:round;stroke-linejoin:round;stroke-miterlimit:4;stroke-opacity:1;stroke-dasharray:none;stroke-dashoffset:55.5000029"/>
    </g>
</svg>