<svg xmlns="http://www.w3.org/2000/svg" xmlns:xlink="http://www.w3.org/1999/xlink" width="100" height="100">
    <defs>
        <linearGradient id="a">
            <stop offset="0" stop-color="red"/>
            <stop offset="1" stop-color="red" stop-opacity="0"/>
        </linearGradient>
    </defs>
    <g transform="translate(0 -952.362)">
        <image y="492.362" x="1067" height="1200" width="746" xlink:href="file:///E:/Manga/Naruto/Raws/Naruto%20Vol.33%20(Ch.290%E2%80%93299)%20%5BRAW,%20HQ%5D/naruto33_0151.jpg"/>
        <g stroke="#000">
            <path transform="matrix(13.06855 0 0 10.69245 -587.337 -5858.806)" d="M51.255 641.683c0 1.754-1.162 3.175-2.597 3.175-1.434 0-2.597-1.42-2.597-3.175 0-1.753 1.164-3.174 2.598-3.174 1.435 0 2.597 1.42 2.597 3.173z" fill="#fff" stroke-width=".179"/>
            <path d="M40.732 1014.042c-1.245 0-2.255-1.01-2.255-2.256 0-1.246 1.01-2.256 2.255-2.256l5.45-.027c1.236-.002 2.238-1.005 2.238-2.24 0-1.238-1.002-2.24-2.237-2.24l-20.103-.006c-1.234-.006-2.235-1.006-2.235-2.24 0-1.236 1-2.237 2.235-2.237h3.732c1.443 0 2.613-1.17 2.613-2.615 0-1.444-1.17-2.615-2.613-2.615h-8.958c-.825 0-1.493-.67-1.493-1.494 0-.825.67-1.494 1.494-1.494h2.24c1.443 0 2.612-1.17 2.612-2.615 0-1.444-1.17-2.615-2.612-2.615H3.684c-1.442 0-2.612 1.17-2.612 2.615 0 1.444 1.17 2.615 2.613 2.615h9.704c.824 0 1.492.67 1.492 1.494 0 .825-.668 1.494-1.493 1.494h-1.494c-1.443 0-2.613 1.17-2.613 2.615 0 1.444 1.17 2.615 2.613 2.615h4.48c1.233 0 2.233 1 2.233 2.236 0 1.235-1 2.236-2.235 2.24l-8.958.007c-1.235 0-2.237 1.002-2.237 2.24 0 1.235 1.002 2.238 2.237 2.24l23.17.027c1.246 0 2.255 1.01 2.255 2.256 0 1.246-1.01 2.256-2.254 2.256h-5.636c-1.442 0-2.612 1.17-2.612 2.615 0 1.444 1.17 2.614 2.612 2.614h71.364c1.442 0 2.612-1.17 2.612-2.613 0-1.444-1.17-2.615-2.612-2.615h-9.704c-1.236 0-2.24-1.003-2.24-2.24 0-1.24 1.004-2.242 2.24-2.242h4.48c1.442 0 2.61-1.17 2.61-2.614s-1.168-2.615-2.61-2.615H79.894c-.825 0-1.493-.668-1.493-1.493 0-.825.668-1.494 1.493-1.494h3.732c1.236 0 2.24-1.003 2.24-2.24 0-1.24-1.004-2.242-2.24-2.242H69.445c-1.237 0-2.24 1.004-2.24 2.242s1.003 2.24 2.24 2.24h4.478c.825 0 1.493.67 1.493 1.495 0 .825-.668 1.494-1.493 1.494h-6.717c-1.443 0-2.613 1.172-2.613 2.616 0 1.444 1.17 2.614 2.613 2.614h8.956c1.237 0 2.24 1.003 2.24 2.24 0 1.24-1.003 2.242-2.24 2.242h-35.43z" stroke-width="2.144" stroke-linecap="round" stroke-linejoin="round"/>
        </g>
    </g>
</svg>
