<svg xmlns:dc="http://purl.org/dc/elements/1.1/" xmlns:cc="http://creativecommons.org/ns#" xmlns:rdf="http://www.w3.org/1999/02/22-rdf-syntax-ns#" xmlns:svg="http://www.w3.org/2000/svg" xmlns="http://www.w3.org/2000/svg" xmlns:xlink="http://www.w3.org/1999/xlink" xmlns:sodipodi="http://sodipodi.sourceforge.net/DTD/sodipodi-0.dtd" xmlns:inkscape="http://www.inkscape.org/namespaces/inkscape" width="100" height="100" id="svg2" version="1.1" inkscape:version="0.47 r22583" sodipodi:docname="New document 1">
    <defs id="defs4">
        <linearGradient inkscape:collect="always" id="linearGradient3702">
            <stop style="stop-color:#ff0000;stop-opacity:1;" offset="0" id="stop3704"/>
            <stop style="stop-color:#ff0000;stop-opacity:0;" offset="1" id="stop3706"/>
        </linearGradient>
        <inkscape:perspective sodipodi:type="inkscape:persp3d" inkscape:vp_x="NaN : NaN : 1" inkscape:vp_y="NaN : NaN : 0" inkscape:vp_z="NaN : NaN : 1" inkscape:persp3d-origin="NaN : NaN : 1" id="perspective10"/>
        <inkscape:perspective id="perspective3603" inkscape:persp3d-origin="0.5 : 0.33333333 : 1" inkscape:vp_z="1 : 0.5 : 1" inkscape:vp_y="0 : 1000 : 0" inkscape:vp_x="0 : 0.5 : 1" sodipodi:type="inkscape:persp3d"/>
        <inkscape:perspective id="perspective3637" inkscape:persp3d-origin="50 : 33.333333 : 1" inkscape:vp_z="100 : 50 : 1" inkscape:vp_y="0 : 1000 : 0" inkscape:vp_x="0 : 50 : 1" sodipodi:type="inkscape:persp3d"/>
        <linearGradient inkscape:collect="always" xlink:href="#linearGradient3702" id="linearGradient3708" x1="448.39288" y1="328.96933" x2="486.25" y2="328.96933" gradientUnits="userSpaceOnUse"/>
    </defs>
    <sodipodi:namedview id="base" pagecolor="#ffffff" bordercolor="#666666" borderopacity="1.0" inkscape:pageopacity="0.0" inkscape:pageshadow="2" inkscape:zoom="1" inkscape:cx="52.085337" inkscape:cy="46.847039" inkscape:document-units="px" inkscape:current-layer="layer1" showgrid="false" inkscape:object-nodes="true" inkscape:snap-smooth-nodes="true" inkscape:snap-object-midpoints="true" inkscape:snap-center="true" inkscape:snap-global="false" inkscape:window-width="1280" inkscape:window-height="940" inkscape:window-x="-8" inkscape:window-y="-8" inkscape:window-maximized="1">
        <inkscape:grid type="xygrid" id="grid3746" empspacing="5" visible="true" enabled="true" snapvisiblegridlinesonly="true"/>
    </sodipodi:namedview>
    <metadata id="metadata7">
        <rdf:RDF>
            <cc:Work rdf:about="">
                <dc:format>image/svg+xml</dc:format>
                <dc:type rdf:resource="http://purl.org/dc/dcmitype/StillImage"/>
                <dc:title/>
            </cc:Work>
        </rdf:RDF>
    </metadata>
    <g inkscape:label="Layer 1" inkscape:groupmode="layer" id="layer1" transform="translate(0,-952.36218)">
        <image y="492.36218" x="1067" id="image3605" height="1200" width="746" xlink:href="file:///E:/Manga/Naruto/Raws/Naruto%20Vol.33%20(Ch.290%E2%80%93299)%20%5BRAW,%20HQ%5D/naruto33_0151.jpg"/>
        <g id="g3905" transform="translate(-2.2289043,329.92686)">
            <path transform="matrix(13.06855,0,0,10.692451,-585.10846,-6188.7331)" d="m 51.25548,641.68341 c 0,1.75329 -1.162899,3.17461 -2.597407,3.17461 -1.434507,0 -2.597406,-1.42132 -2.597406,-3.17461 0,-1.75329 1.162899,-3.17461 2.597406,-3.17461 1.434508,0 2.597407,1.42132 2.597407,3.17461 z" sodipodi:ry="3.1746073" sodipodi:rx="2.5974061" sodipodi:cy="641.68341" sodipodi:cx="48.658073" id="path3897" style="fill:#ffffff;fill-opacity:1;fill-rule:nonzero;stroke:#000000;stroke-width:0.1786098;stroke-miterlimit:4;stroke-opacity:1;stroke-dasharray:none" sodipodi:type="arc"/>
            <path sodipodi:nodetypes="csccsccsccssssccsccsccssssccsccsccscssssssssssssssssssssssssssssssc" d="m 42.96057,684.11526 c -1.244945,0 -2.254171,-1.01004 -2.254171,-2.25597 0,-1.24593 1.009226,-2.25593 2.254171,-2.25593 l 5.450902,-0.0272 c 1.235467,-0.002 2.236992,-1.00481 2.236992,-2.24125 0,-1.23646 -1.001525,-2.23879 -2.236992,-2.23879 l -20.103024,-0.006 c -1.233987,-0.006 -2.234341,-1.00627 -2.234341,-2.24126 0,-1.23495 1.000354,-2.2361 2.234341,-2.2361 l 3.732485,0 c 1.442964,0 2.612727,-1.17069 2.612727,-2.6148 0,-1.44411 -1.169747,-2.6148 -2.612727,-2.6148 -1.442979,0 -8.133401,0 -8.957966,0 -0.824566,0 -1.492995,-0.66897 -1.492995,-1.49416 0,-0.82524 0.668429,-1.4942 1.492995,-1.4942 l 2.239491,0 c 1.442966,0 2.612725,-1.17072 2.612725,-2.6148 0,-1.44415 -1.169759,-2.61483 -2.612725,-2.61483 l -19.4089288,0 c -1.442994,0 -2.6127403,1.17068 -2.6127403,2.61483 0,1.44408 1.1697463,2.6148 2.6127403,2.6148 l 9.7044648,0 c 0.824565,0 1.492995,0.66896 1.492995,1.4942 0,0.82519 -0.66843,1.49416 -1.492995,1.49416 -0.824566,0 -0.05002,0 -1.492995,0 -1.442995,0 -2.612741,1.17069 -2.612741,2.6148 0,1.44411 1.169746,2.6148 2.612741,2.6148 l 4.478984,0 c 1.234005,0 2.23434,1.00115 2.23434,2.2361 0,1.23499 -1.000335,2.23611 -2.23434,2.24126 l -8.9579675,0.006 c -1.2354679,0 -2.2369981,1.00233 -2.2369981,2.23879 0,1.23644 1.0015302,2.23877 2.2369981,2.24125 l 23.1707775,0.0272 c 1.244943,0 2.254175,1.01 2.254175,2.25593 0,1.24593 -1.009232,2.25597 -2.254175,2.25597 -3.782958,0 -5.322359,0 -5.635431,0 -1.442804,0 -2.612453,1.17057 -2.612453,2.61453 0,1.44395 1.169649,2.61453 2.612453,2.61453 1.442806,0 69.920427,0 71.363233,0 1.442803,0 2.612455,-1.17058 2.612455,-2.61453 0,-1.44396 -1.169652,-2.61453 -2.612455,-2.61453 -1.442806,0 -8.466702,0 -9.703397,0 -1.236686,0 -2.239238,-1.00333 -2.239238,-2.24102 0,-1.23768 1.002552,-2.24101 2.239238,-2.24101 1.236695,0 3.035681,0 4.47849,0 1.442806,0 2.612453,-1.17057 2.612453,-2.61453 0,-1.44396 -1.169647,-2.61452 -2.612453,-2.61452 -1.442809,0 -10.371758,0 -11.196217,0 -0.824458,0 -1.492833,-0.66889 -1.492833,-1.494 0,-0.82512 0.668375,-1.494 1.492833,-1.494 0.824459,0 2.495379,0 3.732067,0 1.236693,0 2.23925,-1.00334 2.23925,-2.24102 0,-1.23768 -1.002557,-2.24102 -2.23925,-2.24102 -1.236688,0 -12.945188,0 -14.181879,0 -1.236692,0 -2.239244,1.00334 -2.239244,2.24102 0,1.23768 1.002552,2.24102 2.239244,2.24102 1.236691,0 3.654029,0 4.478489,0 0.82446,0 1.492833,0.66888 1.492833,1.494 0,0.82511 -0.668373,1.494 -1.492833,1.494 -0.82446,0 -5.274926,0 -6.717733,0 -1.442808,0 -2.61245,1.17056 -2.61245,2.61452 0,1.44396 1.169642,2.61453 2.61245,2.61453 1.442807,0 7.720289,0 8.956981,0 1.236685,0 2.239242,1.00333 2.239242,2.24101 0,1.23769 -1.002557,2.24102 -2.239242,2.24102 -0.790152,0 -20.401935,0 -35.430826,0 z" style="fill:#000000;fill-opacity:1;fill-rule:nonzero;stroke:#000000;stroke-width:2.14376926;stroke-linecap:round;stroke-linejoin:round;stroke-miterlimit:4;stroke-opacity:1;stroke-dasharray:none;stroke-dashoffset:0" id="path3813"/>
        </g>
    </g>
</svg>