<svg xmlns="http://www.w3.org/2000/svg" width="100" height="100">
    <g stroke-width="5">
        <g fill="none" stroke="#000" stroke-linecap="round">
            <path d="M50 50V2.38" stroke-width="4.7619"/>
            <path d="M50 2.38l-1.905 1.906V6.19L50 8.095l1.905-1.905V4.286L50 2.38zM50 16.667l7.62-7.62M50 26.19l4.762-4.76M45.238 21.43L50 26.19M50 16.667l-7.62-7.62" stroke-linejoin="round" stroke-width="4.7619"/>
        </g>
        <g fill="none" stroke="#000" stroke-linecap="round">
            <path d="M50 50L8.76 26.19" stroke-width="4.7619"/>
            <path d="M8.76 26.19l.698 2.602 1.65.953 2.6-.697-.696-2.602-1.65-.953-2.6.697zM21.132 33.333l-2.788-10.407M29.38 38.095l-1.743-6.505M22.875 39.838l6.505-1.743M21.132 33.333l-10.407 2.79" stroke-linejoin="round" stroke-width="4.7619"/>
        </g>
        <g fill="none" stroke="#000" stroke-linecap="round">
            <path d="M50 50L8.76 73.81" stroke-width="4.7619"/>
            <path d="M8.76 73.81l2.603.697 1.65-.953.696-2.602-2.603-.697-1.65.953-.696 2.6zM21.132 66.667l-10.407-2.79M29.38 61.905l-6.505-1.743M27.637 68.41l1.743-6.505M21.132 66.667l-2.788 10.407" stroke-linejoin="round" stroke-width="4.7619"/>
        </g>
        <g fill="none" stroke="#000" stroke-linecap="round">
            <path d="M50 50v47.62" stroke-width="4.7619"/>
            <path d="M50 97.62l1.905-1.905V93.81L50 91.905l-1.905 1.905v1.905L50 97.62zM50 83.334l-7.62 7.62M50 73.81l-4.762 4.762M54.762 78.572L50 73.81M50 83.334l7.62 7.62" stroke-linejoin="round" stroke-width="4.7619"/>
        </g>
        <g fill="none" stroke="#000" stroke-linecap="round">
            <path d="M50 50l41.24 23.81" stroke-width="4.7619"/>
            <path d="M91.24 73.81l-.698-2.602-1.65-.953-2.6.697.696 2.602 1.65.953 2.6-.697zM78.868 66.667l2.788 10.408M70.62 61.905l1.743 6.505M77.125 60.162l-6.505 1.743M78.868 66.667l10.407-2.79" stroke-linejoin="round" stroke-width="4.7619"/>
        </g>
        <g fill="none" stroke="#000" stroke-linecap="round">
            <path d="M50 50l41.24-23.81" stroke-width="4.7619"/>
            <path d="M91.24 26.19l-2.603-.697-1.65.953-.696 2.602 2.603.697 1.65-.953.696-2.6zM78.868 33.333l10.407 2.79M70.62 38.095l6.505 1.743M72.363 31.59l-1.743 6.505M78.868 33.333l2.788-10.407" stroke-linejoin="round" stroke-width="4.7619"/>
        </g>
        <g fill="none" stroke="#000" stroke-linecap="round" stroke-linejoin="round">
            <path d="M50 50H2.38M2.38 50l1.906-1.905h24.762L30.952 50l-1.904 1.905H4.286L2.38 50z" stroke-width="4.7619"/>
        </g>
        <g fill="none" stroke="#000" stroke-linecap="round" stroke-linejoin="round">
            <path d="M50 50L26.19 91.24M26.19 91.24l-.697-2.603 12.38-21.444 2.603-.697.697 2.602-12.38 21.444-2.602.697z" stroke-width="4.7619"/>
        </g>
        <g fill="none" stroke="#000" stroke-linecap="round" stroke-linejoin="round">
            <path d="M50 50l23.81 41.24M73.81 91.24l-2.602-.698-12.38-21.444.696-2.602 2.602.697 12.38 21.445-.696 2.602z" stroke-width="4.7619"/>
        </g>
        <g fill="none" stroke="#000" stroke-linecap="round" stroke-linejoin="round">
            <path d="M50 50L73.81 8.76M73.81 8.76l.697 2.603-12.38 21.444-2.603.697-.697-2.602 12.38-21.444 2.603-.697z" stroke-width="4.7619"/>
        </g>
        <g fill="none" stroke="#000" stroke-linecap="round" stroke-linejoin="round">
            <path d="M50 50L26.19 8.76M26.19 8.76l2.602.698 12.38 21.445-.696 2.6-2.602-.696-12.38-21.444.696-2.602z" stroke-width="4.7619"/>
        </g>
        <g fill="none" stroke="#000" stroke-linecap="round" stroke-linejoin="round">
            <path d="M50 50h47.62M97.62 50l-1.906 1.905H70.952L69.048 50l1.904-1.905h24.762L97.62 50z" stroke-width="4.7619"/>
        </g>
    </g>
</svg>
