<svg xmlns="http://www.w3.org/2000/svg" xmlns:xlink="http://www.w3.org/1999/xlink" width="320" height="320" version="1"><defs><linearGradient id="b"><stop offset="0" stop-color="#fff" stop-opacity="0"/><stop offset=".631" stop-color="#fff" stop-opacity="0"/><stop offset=".847" stop-color="#cfeefd"/><stop offset="1" stop-color="#cfeefd"/></linearGradient><linearGradient id="a"><stop offset="0" stop-color="#a6cfea"/><stop offset="1" stop-color="#91b0c1"/></linearGradient><filter id="d" x="-.18" width="1.36" y="-.18" height="1.36" color-interpolation-filters="sRGB"><feGaussianBlur stdDeviation="6.027"/></filter><filter id="c" x="-.297" width="1.595" y="-.303" height="1.606" color-interpolation-filters="sRGB"><feGaussianBlur stdDeviation="29.383"/></filter><linearGradient xlink:href="#a" id="e" x1="214.37" y1="100.138" x2="135.329" y2="191.355" gradientUnits="userSpaceOnUse"/><filter id="g" x="-.048" width="1.096" y="-.048" height="1.096" color-interpolation-filters="sRGB"><feGaussianBlur stdDeviation="4.979"/></filter><radialGradient xlink:href="#b" id="f" cx="160" cy="160" fx="160" fy="160" r="160" gradientUnits="userSpaceOnUse"/></defs><circle cx="160" cy="160" r="155.733" overflow="visible" fill="#eef9fa" fill-rule="evenodd" enable-background="accumulate"/><path d="M161.84 251.942c-31.595-3.662-65.34-20.762-88.38-44.785-12.047-12.562-19.522-26.623-24.416-45.927-3.22-12.707-4.187-23.21-3.795-41.23.402-18.447 1.56-26.952 8.475-38.712 14.207-24.16 31.657-39.1 44.856-45.926 16.954-8.768 33.204-17.963 57.597-15.563 17.995 1.77 38.305 9.326 52.776 16.468 32.042 15.812 40.222 37.543 62.276 77.603 16.43 29.846 12.203 51.346 3.143 72.637-5.412 12.718-14.46 31.043-29.033 40.992-13.862 9.462-39.695 20.746-53.485 23.362-7.153 1.357-22.773 1.92-30.014 1.08z" transform="scale(1.06667)" fill="#fff" filter="url(#c)"/><circle cx="150.677" cy="150.328" r="40.181" transform="matrix(1.0862 0 0 1.0862 -1.875 -4)" fill="#cdeefa" fill-rule="evenodd" stroke="#afdfc9" filter="url(#d)"/><g fill="none" stroke="url(#e)" stroke-width="5.333" stroke-linecap="round" stroke-linejoin="round"><path d="M167.41 117.982a42.667 42.667 0 0 1 33.282 29.19 42.667 42.667 0 0 1-10.522 43M156.28 202.505a42.667 42.667 0 0 1-28.965-15.08M121.33 178.032a42.667 42.667 0 0 1 17.336-54.982" overflow="visible" enable-background="accumulate"/></g><ellipse ry="155.294" rx="155.294" cy="160" cx="160" overflow="visible" fill="url(#f)" fill-rule="evenodd" stroke="#000" stroke-width="9.412" stroke-linejoin="round" enable-background="accumulate"/><path d="M147.935 272.968c-1.44-5.774-1.962-15.542-1.962-36.652s.523-30.88 1.962-36.653c1.83-7.332 4 12.57 4 36.653s-2.17 43.984-4 36.652zm30.223-4.704c-6.703-12.537-21.603-71.298-18.08-71.298 3.695 0 20.265 59.23 19.68 70.346l-.188 3.593zm-63.004-1.643c.01-11.845 16.436-70.29 19.757-70.29 2.502 0-4.533 32.667-11.958 55.522-3.126 9.625-6.635 18.1-7.493 18.1-.17 0-.308-1.498-.306-3.33zm93.097-11.29c-6.375-7.46-18.554-27.353-27.768-45.353-6.15-12.017-8.2-17.042-7.31-17.93 2.755-2.756 38.56 58.804 37.69 64.8-.167 1.136-.52.93-2.61-1.517zm-122.69.026c.59-3.183 10.723-23.39 17.422-34.743 9.97-16.894 18.648-29.36 20.442-29.36 1.616 0-5 14.658-13.107 29.04-9.783 17.356-18.873 31.32-22.822 35.063l-2.345 2.22zm146.595-19.886c-14.272-10.538-51.01-48.857-48.882-50.986 2.462-2.462 47.65 41.647 53.102 51.834 1.202 2.245-.492 1.905-4.22-.848zm-172.22.91c0-.315 1.084-2.015 2.41-3.78 11.144-14.83 49.196-51.514 51.278-49.433 2.25 2.25-31.365 37.676-48.003 50.59-3.922 3.044-5.686 3.858-5.686 2.622zm187.128-27.285c-11.8-5.323-30.348-15.875-44.327-25.216-9.16-6.122-12.56-8.837-11.9-9.498 1.93-1.93 32.638 14.136 53.47 27.975 4.888 3.246 9.725 6.788 10.75 7.872l1.865 1.968-1.546-.026c-.85-.014-4.59-1.4-8.31-3.077zM42.48 208.68c10.694-9.828 61.227-38.016 63.668-35.516 1.1 1.127-12.932 10.96-29.395 20.595-12.244 7.166-31.204 16.53-34.272 16.925l-2.538.327zm-13.344-26.92c2.955-4.78 72.687-23.085 72.687-19.08 0 3.295-52.97 18.474-68.167 19.533-3.95.276-4.91.18-4.52-.453zm223.737-1.26c-23.678-4.96-56.135-15.013-56.972-17.648-1.35-4.247 65.025 12.684 71.76 18.305 1.39 1.16 1.373 1.17-2.41 1.153-2.093-.01-7.663-.823-12.377-1.81zm-212.09-27.967c-4.077-.3-9.05-.85-11.053-1.22-5.503-1.018-5.562-1.577-.272-2.58C45 145.785 101.823 146.78 101.823 150c0 .63-1.806 1.053-8.25 1.93-6.37.866-43.49 1.29-52.79.603zm172.63 0c-4.076-.3-9.05-.85-11.05-1.22-5.504-1.018-5.563-1.577-.273-2.58 15.542-2.948 72.364-1.953 72.364 1.267 0 .63-1.805 1.053-8.25 1.93-6.37.866-43.49 1.29-52.79.603zm-123.02-15.87c-14.72-2.595-47.78-11.9-57.51-16.188-12.37-5.45 8.046-2.7 35.665 4.804 10.978 2.982 27.284 8.362 30.83 10.17 5.282 2.695 1.964 3.143-8.986 1.213zm105.36.61c0-3.29 53.724-18.59 68.23-19.43 5.07-.295 5.074-.294 3.68.934-4 3.52-41.846 14.638-61.024 17.928-8.133 1.396-10.886 1.54-10.886.567zm-95.846-13.49C83.225 116.5 51.52 97.753 43.29 90.308c-2.34-2.118-2.525-2.458-1.34-2.48 5.607-.106 46.234 22.457 61.28 34.036 5.913 4.55 4.53 5.348-3.323 1.92zm91.762-1.14c2.373-2.508 17.014-12.243 28.52-18.964 11.03-6.445 30.977-16.383 33.954-16.92l2.222-.4-2.222 2.35c-7.464 7.893-56.43 35.887-62.792 35.9l-1.547.003 1.864-1.97zm-82.983-10.395C97.127 103.586 64.9 70.59 61.14 63.564c-1.27-2.37.832-1.623 5.568 1.98 10.895 8.286 35.993 33.37 44.058 44.035 5.57 7.363 5.06 8.018-2.08 2.668zm73.105 2.305c0-.297 1.387-2.373 3.083-4.613 11.364-15.012 48.553-50.682 50.652-48.583 2.418 2.418-36.89 43.147-50.233 52.05-2.648 1.766-3.502 2.046-3.502 1.146zm-61.74-11.043c-11.675-15.525-33.46-54.79-33.46-60.31 0-1.238.137-1.2 1.958.532 4.7 4.47 20.85 30.663 29.394 47.67 8.246 16.41 9.12 21.43 2.11 12.108zm51.585 3.28c0-1.488 4.094-10.81 8.007-18.238 12.112-22.982 28.88-48.892 30.228-46.71 1.37 2.22-12.836 29.675-25.917 50.085-7.674 11.974-12.318 17.577-12.318 14.862zm-39.19-7.405c-6.294-14.084-17.702-58.315-17.174-66.588l.195-3.068 1.988 3.807c6.778 12.987 21 70.132 17.455 70.132-.302 0-1.41-1.93-2.463-4.285zm27.134 1.904c.016-10.444 12.72-58.406 18.25-68.893l1.74-3.302.19 3.593c.234 4.474-2.505 18.216-6.872 34.477-6.496 24.183-13.318 41.68-13.307 34.124zm-11.645-.953c-1.44-5.774-1.962-15.542-1.962-36.653 0-21.11.523-30.878 1.962-36.652 1.83-7.332 4 12.57 4 36.652 0 24.083-2.17 43.985-4 36.653z" transform="matrix(1.06667 0 0 1.06667 0 0)" opacity=".52" fill="#fff" stroke="#fff" filter="url(#g)"/></svg>
