<svg width="100" height="100" xmlns="http://www.w3.org/2000/svg" xmlns:svg="http://www.w3.org/2000/svg" xmlns:xlink="http://www.w3.org/1999/xlink">
    <defs>
        <linearGradient id="linearGradient5364">
            <stop offset="0" id="stop5366" stop-color="#e5eaf3"></stop>
            <stop offset="1" id="stop5370" stop-color="#202125"></stop>
        </linearGradient>
        <linearGradient id="linearGradient4775">
            <stop offset="0" id="stop4777" stop-color="#a3977f"></stop>
            <stop stop-color="#93a0c1" id="stop4779" offset="0.80269"></stop>
            <stop offset="1" id="stop4781" stop-color="#3c4351"></stop>
        </linearGradient>
        <radialGradient xlink:href="#linearGradient5364" id="radialGradient4717" cx="70.71067" cy="-0.00024" fx="70.71067" fy="-0.00024" r="35.30465" gradientTransform="scale(1,1.0028715)" gradientUnits="userSpaceOnUse"></radialGradient>
        <radialGradient xlink:href="#linearGradient4775" id="radialGradient4773" cx="50" cy="50" fx="50" fy="50" r="41.81483" gradientTransform="translate(0,1.368425e-5)" gradientUnits="userSpaceOnUse"></radialGradient>
    </defs>
    <metadata id="metadata7">image/svg+xmlimage/svg+xmlimage/svg+xmlimage/svg+xmlimage/svg+xmlimage/svg+xmlimage/svg+xml</metadata>
    <g>
        <title>Layer 1</title>
        <ellipse fill="url(#radialGradient4773)" fill-rule="evenodd" stroke="#000000" stroke-width="3" stroke-miterlimit="4" ry="40.31482" rx="40.31483" cy="50" cx="50" id="path4757"></ellipse>
        <rect fill="url(#radialGradient4717)" fill-rule="evenodd" stroke="#000000" stroke-width="2.89203" stroke-linecap="square" stroke-miterlimit="4" transform="matrix(0.70710438,0.70710918,-0.70710438,0.70710918,0,0) " y="-33.96025" x="36.85204" height="67.92002" width="67.71727" id="rect4709"></rect>
        <g fill="#000000" id="g4161" transform="matrix(0.65145153,0,0,0.65145153,17.42743,17.45591) ">
            <path fill="#000000" d="m25.11949,15.81608c-0.0408,0.14281 -0.12241,9.89508 -0.16322,21.68756c-0.08161,22.85049 -0.10201,23.48295 -1.14252,28.23667c-0.8977,4.06004 -3.40717,8.38531 -7.46721,12.81259l-1.34655,1.46897l0.8773,0.79568c1.75459,1.61178 3.52958,3.10113 3.6724,3.10113c0.26523,0 2.7747,-3.24394 4.44769,-5.77382c2.65229,-3.99884 4.67211,-8.58934 5.32498,-12.22093c0.14281,-0.77528 0.34684,-1.38734 0.44885,-1.38734c0.34684,0 2.7747,2.06062 4.08044,3.46837c0.73448,0.79568 1.38735,1.42815 1.48936,1.42815c0.08161,0 0.42844,-0.24482 0.73448,-0.55086l0.57126,-0.55087l0,1.16293l0,1.16293l1.73419,0c0.9589,0 1.73419,0.04081 1.73419,0.08161c0,0.04079 -0.18362,0.53046 -0.40805,1.06091c-1.16293,2.6727 -4.06004,5.87584 -7.3856,8.12009c-0.99971,0.67327 -1.7954,1.26494 -1.7954,1.32614c0,0.0612 1.08132,0.81609 2.40746,1.67297c1.65258,1.08133 2.48907,1.50977 2.69309,1.40777c0.71408,-0.40806 2.97873,-2.46867 4.20286,-3.87643c1.36695,-1.59137 3.18275,-4.08044 4.5701,-6.26349l0.81609,-1.26494l-1.59137,-0.85689c-0.8569,-0.46925 -1.75459,-0.9793 -1.97902,-1.14252c-0.32644,-0.22443 2.32585,-0.26524 16.38298,-0.26524c10.75197,0 16.75022,0.06121 16.66861,0.20402c-0.0612,0.10202 -0.79568,0.67328 -1.63218,1.24454c-0.83649,0.57126 -1.53017,1.10171 -1.53017,1.18332c0,0.06121 0.53046,0.48965 1.14252,0.9385c2.44827,1.75459 5.12096,5.03935 6.73273,8.32411c0.42844,0.85689 0.8569,1.57097 0.9385,1.57097c0.32644,0 4.65171,-2.89712 4.65171,-3.10114c0,-0.40804 -2.08102,-3.7132 -3.36637,-5.36578c-1.38734,-1.77499 -2.71349,-3.08074 -4.26406,-4.18246l-0.97931,-0.71409l3.28476,-0.0612l3.28476,-0.04081l0,-2.7543l0,-2.7543l-10.54795,-0.0408l-10.56834,-0.0612l-0.06121,-1.59138l-0.06121,-1.57097l8.38531,0l8.36491,0l0,-2.7543l0,-2.7543l-8.36491,0l-8.36491,0l0,-1.42815l0,-1.42816l8.77295,0l8.77296,0l0,-9.48703l0,-9.48703l-8.77296,0l-8.77295,0l0,-1.32614l0,-1.32615l10.20111,0l10.2011,0l0,-2.7543l0,-2.7543l-10.2011,0l-10.20111,0l0,-1.42816c0,-1.59137 -0.12241,-1.48936 1.93821,-1.73419c2.26464,-0.26523 7.30399,-1.18333 9.89507,-1.77499c2.63189,-0.59166 6.95716,-1.75459 7.12038,-1.91781c0.06121,-0.06121 -0.8569,-1.22413 -2.73389,-3.46838c-0.40805,-0.48965 -0.42845,-0.48965 -1.67298,-0.18362c-2.01982,0.46925 -8.05888,1.48936 -11.48645,1.91781c-7.48761,0.9589 -15.73011,1.44856 -24.21743,1.44856l-5.32498,0l1.32614,2.48907c0.73448,1.38735 1.38735,2.59108 1.46896,2.67269c0.08161,0.08161 4.10085,0.0204 8.91577,-0.12241c4.81492,-0.16322 8.81376,-0.24483 8.91577,-0.20402c0.08161,0.0408 0.14281,0.59166 0.14281,1.20373l0,1.10172l-9.58904,0l-9.58905,0l0,2.04022c0,2.01982 -0.12241,2.32585 -0.61206,1.71379c-0.75488,-0.8977 -0.9181,-0.81609 -3.12154,1.44856c-1.14252,1.18333 -2.20344,2.14223 -2.32586,2.14223c-0.20402,0 -0.26523,-1.95861 -0.26523,-9.07899l0,-9.07899l-2.65229,0c-1.95861,0 -2.69309,0.06121 -2.7543,0.24483l0.00002,0.00004zm30.90937,17.4031l0,1.32614l-8.77296,0l-8.77295,0l0,9.48703l0,9.48703l8.77295,0l8.77296,0l0,1.42816l0,1.42815l-8.2629,0l-8.2629,0l0,2.7543l0,2.7543l8.2629,0l8.2833,0l-0.06121,1.57097l-0.06121,1.59138l-8.44652,0.0612l-8.44652,0.0408l-1.65258,-1.61177c-1.75459,-1.69339 -3.89682,-3.20315 -5.99825,-4.18246l-1.26494,-0.61207l0.10201,-2.34625c0.06121,-1.30574 0.16322,-5.5494 0.22443,-9.42583l0.12241,-7.03876l0.9589,-0.61207c1.63218,-1.02011 4.75372,-3.46838 6.4471,-5.03935l1.63218,-1.50976l-0.67327,-0.34684c-0.34684,-0.18362 -0.65287,-0.38764 -0.65287,-0.42845c0,-0.06121 3.99883,-0.10201 8.87497,-0.10201l8.87497,0l0,1.32615l0,0.00001zm-10.30312,7.99767l-1.40775,0.9385l0.48965,0.32644c2.04022,1.34655 5.5086,4.69251 5.5086,5.32498c0,0.12241 -1.24453,0.20402 -3.06033,0.20402l-3.06033,0l0,-3.87642l0,-3.87642l1.46896,0l1.48936,0l-1.42816,0.9589zm10.30312,2.91752l0,3.87642l-1.26494,0l-1.28534,0l1.02011,-0.8977l0.99971,-0.8773l-1.18333,-1.46896c-1.34655,-1.63218 -2.57068,-2.7951 -4.10085,-3.81521l-1.02011,-0.69368l3.42757,0l3.40717,0l0,3.87642l0.00001,0.00001zm11.79248,-3.03993c-0.67327,1.22413 -2.7951,3.44798 -4.42727,4.65171c-0.77529,0.57126 -1.44856,1.04051 -1.53017,1.04051c-0.06121,0 -0.12241,-1.46896 -0.12241,-3.26435l0,-3.26435l3.28475,0l3.26436,0l-0.46925,0.83649l-0.00001,-0.00001zm5.75343,3.03993l0,3.87642l-2.57068,0l-2.59108,0l0.9181,-0.97931c1.20374,-1.28534 2.44827,-2.97873 3.10114,-4.20286c0.28564,-0.57126 0.48965,-1.04051 0.46925,-1.06092c-0.0204,-0.0204 -0.63247,-0.36724 -1.36695,-0.77528l-1.32614,-0.73448l1.69338,0l1.67298,0l0,3.87642l0,0.00001z" id="path4163"></path>
            <path fill="#000000" d="m18.34595,31.91343c-0.06121,5.26377 -0.71408,9.79306 -2.06062,14.28156l-0.57126,1.95861l2.50947,1.26494c1.38735,0.67327 2.55028,1.24454 2.61149,1.24454c0.14282,0 1.08132,-3.22355 1.53016,-5.24337c0.8569,-3.95803 1.55057,-10.79277 1.38735,-13.93472l-0.06121,-1.32615l-2.16263,-0.63247c-1.20373,-0.34684 -2.38706,-0.69367 -2.65229,-0.75488l-0.48965,-0.12241l-0.04081,3.26435z" id="path4165"></path>
            <path fill="#000000" d="m61.08861,71.79977l-2.18304,0.93851l1.10172,1.44855c1.95861,2.55029 3.14194,5.28418 3.46838,7.95687c0.08161,0.63247 0.20403,1.16293 0.26523,1.16293c0.12241,0 5.20256,-1.85661 5.30458,-1.93822c0.18362,-0.16321 -1.50977,-4.6925 -2.32585,-6.22267c-0.99971,-1.87701 -2.7951,-4.28447 -3.20314,-4.28447c-0.12241,0 -1.22414,0.42845 -2.42787,0.9385l-0.00001,0z" id="path4167"></path>
            <path fill="#000000" d="m50.11221,71.92218c-1.18333,0.44885 -2.18304,0.8365 -2.22384,0.8773c-0.0408,0.0408 0.26523,0.53046 0.67327,1.08132c1.67298,2.28504 3.16234,6.54911 3.18275,9.05859l0,0.75488l2.61148,-1.08133c2.52987,-1.06091 2.59108,-1.10172 2.52987,-1.67297c-0.14281,-1.44856 -0.9589,-3.99883 -1.77499,-5.69222c-0.81609,-1.65258 -2.48907,-4.20286 -2.7543,-4.16205c-0.06121,0 -1.06091,0.36724 -2.24424,0.83648z" id="path4169"></path>
        </g>
    </g>
</svg>