<svg width="100" height="100" xmlns="http://www.w3.org/2000/svg" xmlns:svg="http://www.w3.org/2000/svg" xmlns:xlink="http://www.w3.org/1999/xlink">
    <defs>
        <linearGradient id="linearGradient4775">
            <stop stop-color="#a3977f" id="stop4777" offset="0"></stop>
            <stop offset="0.74558" id="stop4779" stop-color="#f4ff06"></stop>
            <stop stop-color="#7c2424" id="stop4781" offset="1"></stop>
        </linearGradient>
        <linearGradient id="linearGradient4739">
            <stop offset="0" id="stop4741" stop-color="#a3977f"></stop>
            <stop stop-color="#6b644d" id="stop4155" offset="0.51743"></stop>
            <stop offset="1" id="stop4743" stop-color="#2c2e23"></stop>
        </linearGradient>
        <radialGradient gradientUnits="userSpaceOnUse" gradientTransform="matrix(0.67667481,-2.4143896e-7,-2.4216181e-7,0.6787007,36.852038,-34.41871)" r="50.0368" fy="50.71226" fx="50.0368" cy="50.71226" cx="50.0368" id="radialGradient4717" xlink:href="#linearGradient4739"></radialGradient>
        <radialGradient gradientUnits="userSpaceOnUse" gradientTransform="translate(0,4.561417e-6)" r="41.81483" fy="50" fx="50" cy="50" cx="50" id="radialGradient4773" xlink:href="#linearGradient4775"></radialGradient>
    </defs>
    <metadata id="metadata7">image/svg+xmlimage/svg+xmlimage/svg+xmlimage/svg+xmlimage/svg+xmlimage/svg+xml</metadata>
    <g>
        <title>Layer 1</title>
        <ellipse fill="url(#radialGradient4773)" fill-rule="evenodd" stroke="#000000" stroke-width="3" stroke-miterlimit="4" ry="40.31482" rx="40.31483" cy="50" cx="50" id="path4757"></ellipse>
        <rect fill="url(#radialGradient4717)" fill-rule="evenodd" stroke="#000000" stroke-width="2.89203" stroke-linecap="square" stroke-miterlimit="4" transform="matrix(0.70710438,0.70710918,-0.70710438,0.70710918,0,0) " y="-33.96025" x="36.85204" height="67.92002" width="67.71727" id="rect4709"></rect>
        <path fill="#ffffff" id="path4138" d="m33.77074,60.12573l-0.03134,-13.2404l-1.09028,1.77255c-1.15845,1.88339 -3.66434,5.42108 -3.76741,5.31864c-0.03389,-0.03357 -0.39509,-0.98476 -0.80283,-2.11363l-0.74134,-2.05251l0.52652,-0.7353c3.65107,-5.09868 7.4384,-12.76815 9.93406,-20.11678c0.37349,-1.09974 0.70441,-2.02488 0.73539,-2.05586c0.06353,-0.06353 3.50847,1.19342 3.67748,1.3418c0.17814,0.15638 -2.3614,6.52081 -4.03493,10.11213l-0.5628,1.20773l0,16.901l0,16.901l-1.90563,0l-1.90563,0l-0.03134,-13.24037l0.00008,0zm34.8334,11.14973l0,-1.47576l-12.11348,0l-12.11348,0l0,-16.60223l0,-16.60224l2.02916,0l2.02917,0l0,14.81904l0,14.81903l3.99682,0l3.99683,0l0,-19.7997l0,-19.79971l2.02917,0l2.02916,0l0,19.79971l0,19.7997l4.05833,0l4.05833,0l0,-14.81903l0,-14.81904l2.02916,0l2.02915,0l0,18.07799l0,18.07799l-2.02915,0l-2.02916,0l0,-1.47575l-0.00001,0z"></path>
    </g>
</svg>