<svg width="100" height="100" xmlns="http://www.w3.org/2000/svg" xmlns:svg="http://www.w3.org/2000/svg" xmlns:xlink="http://www.w3.org/1999/xlink">
    <defs>
        <linearGradient id="linearGradient5364">
            <stop stop-color="#3c3c3c" id="stop5366" offset="0"></stop>
            <stop stop-color="#000000" id="stop5370" offset="1"></stop>
        </linearGradient>
        <linearGradient id="linearGradient4775">
            <stop stop-color="#a3977f" id="stop4777" offset="0"></stop>
            <stop offset="0.86739" id="stop4779" stop-color="#646464"></stop>
            <stop stop-color="#000000" id="stop4781" offset="1"></stop>
        </linearGradient>
        <radialGradient gradientUnits="userSpaceOnUse" gradientTransform="matrix(0.67667481,-2.4143896e-7,-2.4216181e-7,0.6787007,36.852038,-34.41871)" r="50.0368" fy="50.71226" fx="50.0368" cy="50.71226" cx="50.0368" id="radialGradient4717" xlink:href="#linearGradient5364"></radialGradient>
        <radialGradient gradientUnits="userSpaceOnUse" gradientTransform="translate(0,4.561417e-6)" r="41.81483" fy="50" fx="50" cy="50" cx="50" id="radialGradient4773" xlink:href="#linearGradient4775"></radialGradient>
    </defs>
    <metadata id="metadata7">image/svg+xmlimage/svg+xmlimage/svg+xmlimage/svg+xmlimage/svg+xmlimage/svg+xml</metadata>
    <g>
        <title>Layer 1</title>
        <ellipse fill="url(#radialGradient4773)" fill-rule="evenodd" stroke="#000000" stroke-width="3" stroke-miterlimit="4" ry="40.31482" rx="40.31483" cy="50" cx="50" id="path4757"></ellipse>
        <rect fill="url(#radialGradient4717)" fill-rule="evenodd" stroke="#000000" stroke-width="2.89203" stroke-linecap="square" stroke-miterlimit="4" transform="matrix(0.70710438,0.70710918,-0.70710438,0.70710918,0,0) " y="-33.96025" x="36.85204" height="67.92002" width="67.71727" id="rect4709"></rect>
        <g id="svg_7" transform="matrix(0.64124383,0,0,0.64124383,17.959764,17.937809) ">
            <g fill="#000000" id="svg_4"></g>
        </g>
        <g fill="#ffffff" id="g4735" transform="matrix(0.64901484,0,0,0.64901484,17.549261,17.576905) ">
            <path fill="#ffffff" d="m35.21049,15.34087c-0.13195,0.32988 -0.46183,1.18756 -0.74772,1.91329c-1.82532,4.79422 -5.43198,12.3814 -7.91706,16.73578c-1.82532,3.14483 -3.40873,5.58593 -3.65065,5.58593c-0.10996,0 -0.96764,-0.52781 -1.91329,-1.16557c-0.92365,-0.65976 -1.80333,-1.25354 -1.93528,-1.31951c-0.15394,-0.08797 -0.57179,0.35187 -1.03362,1.01162c-0.41785,0.61577 -1.27553,1.84731 -1.8913,2.72699l-1.12158,1.58341l3.03487,2.13321c4.88218,3.47471 10.42413,7.87307 13.85485,11.01791l1.16556,1.05561l-2.35312,3.73861c-2.90292,4.64028 -5.69588,8.86271 -6.97141,10.46811l-0.96764,1.20955l-3.58467,0.2639c-1.95727,0.13195 -3.60666,0.2859 -3.67264,0.35187c-0.08797,0.08797 2.04524,6.61954 2.26516,6.90543c0.04398,0.06598 26.28024,-3.2328 28.69934,-3.60666l0.79171,-0.10995l0.79171,2.08922c0.43984,1.14358 0.96764,2.70499 1.16557,3.47471c0.21992,0.76971 0.43983,1.45146 0.5278,1.56142c0.10996,0.13195 5.56393,-2.04524 5.84983,-2.33114c0.17593,-0.17593 -1.42947,-5.38799 -2.44109,-7.85108c-1.6054,-3.98052 -4.61828,-9.32453 -6.64153,-11.78762l-0.39585,-0.48382l-2.74898,1.01162c-1.51744,0.5498 -2.77097,1.01162 -2.81496,1.05561c-0.04398,0.02199 0.52781,0.96764 1.23154,2.08923c1.95727,3.12284 3.18882,5.25605 3.10085,5.34402c-0.10996,0.10995 -13.92083,1.6274 -14.00879,1.53943c-0.04398,-0.022 0.59378,-1.03362 1.42947,-2.22118c6.13572,-8.66478 11.17185,-17.19761 15.30632,-25.95036c1.6054,-3.38675 4.61828,-10.42413 4.50832,-10.4901c-1.09959,-0.63776 -6.00377,-2.74898 -6.11373,-2.61703c-0.08797,0.08797 -0.65976,1.45146 -1.25354,3.03487c-2.37512,6.15771 -7.78511,17.37355 -8.37889,17.37355c-0.13195,0 -2.11121,-1.56142 -4.39836,-3.47471l-4.17845,-3.4967l2.04524,-3.10085c2.57304,-3.95853 4.92617,-8.09299 7.12535,-12.57933c2.35313,-4.79422 4.72824,-10.44612 4.50832,-10.64404c-0.10996,-0.10996 -1.51743,-0.72573 -3.12284,-1.40748l-2.92492,-1.23154l-0.21992,0.59378l0.00002,-0.00001z" id="path4737"></path>
            <path fill="#ffffff" d="m50.18693,22.31228l0,2.9689l14.22872,0l14.20672,0l-0.13195,8.29092c-0.28589,15.48225 -1.47345,36.68237 -2.24316,40.02513c-0.65975,2.79296 -1.86931,4.42036 -3.69463,4.92617c-1.8913,0.52781 -7.93905,-0.08797 -12.27145,-1.23154l-0.59378,-0.15394l0.72573,3.56268c0.39585,1.93528 0.76971,3.58467 0.8137,3.65064c0.19793,0.19793 7.49921,0.76971 10.29218,0.8137c6.04775,0.08797 8.75275,-1.91328 10.33616,-7.56519c1.45146,-5.21207 2.50706,-22.67358 2.99089,-49.96544l0.15394,-8.29092l-17.39554,0l-17.41753,0l0,2.9689l0,-0.00001z" id="path4739"></path>
        </g>
    </g>
</svg>