<svg xmlns="http://www.w3.org/2000/svg" xmlns:xlink="http://www.w3.org/1999/xlink" width="300" height="300"><defs><radialGradient gradientUnits="userSpaceOnUse" r="206.902" cy="238.672" fy="297.787" id="a" cx="150" fx="150" gradientTransform="matrix(1.03448 0 0 1.03448 -5.172 -5.172)"><stop offset="0" stop-color="#98a6a9"/><stop offset="1" stop-color="#8b7496"/></radialGradient></defs><circle cx="150" cy="150" r="150" fill="url(#a)"/><ellipse cx="150.907" cy="149.093" rx="24.138" ry="24.138" fill="none" stroke="#000" stroke-width="3.017"/><circle cx="150.907" cy="149.094" r="45.259" fill="none" stroke="#000" stroke-width="3.017"/><circle cx="150.907" cy="149.093" r="66.379" fill="none" stroke="#000" stroke-width="3.018"/><ellipse cx="150.907" cy="149.094" rx="6.034" ry="6.034"/><g transform="matrix(.60345 0 0 .60345 60.39 58.57)"><g id="b"><circle cx="150" cy="110" r="12.5"/><path d="M156.29 99.33c1.78-2.506 10.7-3.238 16.566.21.126.075 1.087.764.346-.56-26.254-24.99-45.892 10.965-31.182 20.52l14.27-20.17z"/></g><use transform="rotate(120 150 150)" height="300" width="300" xlink:href="#b"/><use xlink:href="#b" width="300" height="300" transform="rotate(-120 150 150)"/></g><g transform="matrix(.60345 0 0 .60345 60.39 58.57)"><g id="c"><circle cx="150" cy="225" r="12.5"/><path d="M143.19 235.72c-1.782 2.505-10.7 3.238-16.567-.21-.125-.075-1.086-.765-.345.56 26.254 24.99 45.892-10.965 31.182-20.52l-14.27 20.17z"/></g><use xlink:href="#c" width="300" height="300" transform="rotate(120 150 150)"/><use transform="rotate(-120 150 150)" height="300" width="300" xlink:href="#c"/></g><g transform="matrix(-.29878 -.5243 .5243 -.29878 116.686 272.686)"><g id="d"><circle cx="150" cy="110" r="12.5"/><path d="M156.29 99.33c1.78-2.506 10.7-3.238 16.566.21.126.075 1.087.764.346-.56-26.254-24.99-45.892 10.965-31.182 20.52l14.27-20.17z"/></g><use transform="rotate(120 150 150)" height="300" width="300" xlink:href="#d"/><use xlink:href="#d" width="300" height="300" transform="rotate(-120 150 150)"/></g><g transform="matrix(-.29878 -.5243 .5243 -.29878 116.686 272.686)"><g id="e"><circle cx="150" cy="225" r="12.5"/><path d="M143.19 235.72c-1.782 2.505-10.7 3.238-16.567-.21-.125-.075-1.086-.765-.345.56 26.254 24.99 45.892-10.965 31.182-20.52l-14.27 20.17z"/></g><use xlink:href="#e" width="300" height="300" transform="rotate(120 150 150)"/><use transform="rotate(-120 150 150)" height="300" width="300" xlink:href="#e"/></g><g transform="matrix(-.29747 .52503 -.52503 -.29747 274.208 115.364)"><g id="f"><circle cx="150" cy="110" r="12.5"/><path d="M156.29 99.33c1.78-2.506 10.7-3.238 16.566.21.126.075 1.087.764.346-.56-26.254-24.99-45.892 10.965-31.182 20.52l14.27-20.17z"/></g><use transform="rotate(120 150 150)" height="300" width="300" xlink:href="#f"/><use xlink:href="#f" width="300" height="300" transform="rotate(-120 150 150)"/></g><g transform="matrix(-.29747 .52503 -.52503 -.29747 274.208 115.364)"><g id="g"><circle cx="150" cy="225" r="12.5"/><path d="M143.19 235.72c-1.782 2.505-10.7 3.238-16.567-.21-.125-.075-1.086-.765-.345.56 26.254 24.99 45.892-10.965 31.182-20.52l-14.27 20.17z"/></g><use xlink:href="#g" width="300" height="300" transform="rotate(120 150 150)"/><use transform="rotate(-120 150 150)" height="300" width="300" xlink:href="#g"/></g><ellipse cx="149.967" cy="150.033" rx="107.682" ry="107.682" fill="none" stroke="#000" stroke-width="3.018"/><circle cx="149.497" cy="150.503" r="128.333" fill="none" stroke="#000" stroke-width="3.018"/><circle cx="150.437" cy="149.564" r="87.031" fill="none" stroke="#000" stroke-width="3.018"/></svg>
