<svg width="100" height="100" xmlns="http://www.w3.org/2000/svg" xmlns:svg="http://www.w3.org/2000/svg" xmlns:xlink="http://www.w3.org/1999/xlink">
    <defs>
        <linearGradient id="linearGradient4788">
            <stop stop-color="#ffffff" id="stop4790" offset="0"></stop>
            <stop offset="0.64499" id="stop4794" stop-color="#f2f5f4"></stop>
            <stop stop-color="#a4a6aa" id="stop4792" offset="1"></stop>
        </linearGradient>
        <linearGradient id="linearGradient4202">
            <stop stop-color="#ffffff" id="stop4204" offset="0"></stop>
            <stop offset="0.86739" id="stop4206" stop-color="#ffffff"></stop>
            <stop stop-color="#0bf7ff" id="stop4208" offset="1"></stop>
        </linearGradient>
        <linearGradient id="linearGradient4155">
            <stop stop-color="#ffffff" id="stop4157" offset="0"></stop>
            <stop stop-color="#000000" stop-opacity="0" id="stop4159" offset="1"></stop>
        </linearGradient>
        <radialGradient r="49.99983" fy="50" fx="50" cy="50" cx="50" gradientTransform="matrix(1,0,0,1.0000068,0,-3.3941239e-4)" gradientUnits="userSpaceOnUse" id="radialGradient4167" xlink:href="#linearGradient4155"></radialGradient>
        <radialGradient r="49.99983" fy="50" fx="50" cy="50" cx="50" gradientTransform="matrix(1,0,0,1.0000068,0,-3.3941239e-4)" gradientUnits="userSpaceOnUse" id="radialGradient4169" xlink:href="#linearGradient4155"></radialGradient>
        <radialGradient gradientUnits="userSpaceOnUse" gradientTransform="translate(6.1435547e-6,1.436438e-5)" r="41.81483" fy="50" fx="50" cy="50" cx="50" id="radialGradient4192" xlink:href="#linearGradient4202"></radialGradient>
        <radialGradient gradientUnits="userSpaceOnUse" gradientTransform="scale(1,1.0028715)" r="35.30465" fy="-0.00024" fx="70.71068" cy="-0.00024" cx="70.71068" id="radialGradient4200" xlink:href="#linearGradient4788"></radialGradient>
    </defs>
    <metadata id="metadata7">image/svg+xmlimage/svg+xmlimage/svg+xmlimage/svg+xmlimage/svg+xmlimage/svg+xmlimage/svg+xml</metadata>
    <g>
        <title>Layer 1</title>
        <ellipse fill="url(#radialGradient4192)" fill-rule="evenodd" stroke="#000000" stroke-width="3" stroke-miterlimit="4" ry="40.31482" rx="40.31483" cy="50" cx="50" id="path4757"></ellipse>
        <rect fill="url(#radialGradient4200)" fill-rule="evenodd" stroke="#000000" stroke-width="2.89203" stroke-linecap="square" stroke-miterlimit="4" transform="matrix(0.70710438,0.70710918,-0.70710438,0.70710918,0,0) " y="-33.96025" x="36.85204" height="67.92002" width="67.71727" id="rect4709"></rect>
        <g fill="url(#radialGradient4169)" id="svg_7" transform="matrix(0.64124383,0,0,0.64124383,17.959764,17.937809) ">
            <g fill="url(#radialGradient4167)" id="svg_4"></g>
        </g>
        <g id="svg_7-5" transform="matrix(0.67462004,0,0,0.67462004,16.292096,16.268998) ">
            <g fill="#000000" id="svg_4-7">
                <path id="svg_5" d="m51.1275,25.73308l0,9.95462l10.86882,0l10.86882,0l0,1.92992l0,1.93001l-10.86882,0l-10.86882,0l0,-1.32049l0,-1.32048l-4.87574,0l-4.89607,0l0.5892,-0.87364c0.77193,-1.11734 1.23919,-2.05186 2.255,-4.46936l0.8329,-1.99098l-1.68613,-0.79226l-1.66589,-0.79235l3.20985,0l3.18952,-0.02032l0,-2.64097l0,-2.64106l-5.78994,0l-5.78994,0l0,-3.35211l0,-3.35202l-2.94573,0l-2.94573,0l0,3.35202l0,3.35211l-6.39946,0l-6.4197,0l0.06097,2.58009l0.06088,2.60041l3.04735,0.10153l3.04735,0.10162l-1.32049,0.48759c-0.73137,0.26411 -1.40178,0.56879 -1.5034,0.65008c-0.10153,0.10153 0.20315,0.58911 0.71105,1.13766c1.21896,1.30016 2.07218,2.58009 2.92541,4.36783c1.13775,2.37695 1.54404,2.19413 -4.57098,2.19413l-5.28203,0l0,2.74258l0,2.74259l18.08086,0l18.08086,0l0,16.80093c0,13.6115 0.06097,17.02449 0.28444,17.8574c0.65008,2.47856 2.4175,4.57107 4.51001,5.34299c1.07678,0.40639 1.5034,0.42661 11.92528,0.42661l10.80785,0l1.01582,-0.4875c1.17831,-0.54855 2.51912,-1.90968 3.20985,-3.31145c0.65009,-1.25961 1.46275,-3.88026 1.7471,-5.54615c0.12194,-0.73137 0.28444,-1.52372 0.32508,-1.74718c0.0813,-0.40629 -0.1625,-0.54846 -2.49879,-1.48299c-1.4221,-0.56888 -2.70203,-1.03613 -2.82388,-1.03613c-0.18282,0 -0.26411,0.30476 -0.26411,0.89387c0,1.5034 -0.58911,4.36793 -1.11734,5.40397c-0.99548,1.95034 -0.30476,1.8284 -10.70632,1.8284c-10.05624,0 -10.07647,0 -10.50318,-1.2392c-0.12185,-0.36573 -0.22347,-1.4221 -0.22347,-2.3363l0,-1.70654l10.32036,-0.04065l10.29994,-0.06097l0.06097,-2.60033l0.06097,-2.58009l-10.38132,0l-10.36092,0l0,-1.82838l0,-1.8284l10.56415,0l10.56406,0l0,-2.64105l0,-2.64106l-10.50318,-0.04056l-10.52341,-0.06097l-0.06097,-1.99098l-0.06097,-1.97057l10.58447,0l10.56406,0l0,-2.64106l0,-2.64097l-10.56406,0l-10.56415,0l0,-1.82839l0,-1.82848l10.97044,0l10.97035,0l0,-7.21194l0,-7.21204l-10.97035,0l-10.97044,0l0,-1.93001l0,-1.93001l12.39254,0l12.39245,0l0,-2.84411l0,-2.8442l-12.39245,0l-12.37222,0l-0.06097,-2.4988l-0.06088,-2.47856l-2.78323,-0.06088l-2.80356,-0.06097l0,9.97495l0,0l0.00001,0zm-11.90496,2.88476c-0.36564,1.72686 -2.17371,5.83058 -3.27082,7.5168l-0.52814,0.77203l-2.07218,0l-2.07218,0l-0.34541,-1.27993c-0.44694,-1.66589 -2.13315,-5.05856 -3.14888,-6.39937c-0.46726,-0.5892 -0.83299,-1.11743 -0.83299,-1.15799c0,-0.06097 2.80356,-0.10162 6.21664,-0.10162l6.21646,0l-0.1625,0.65008l0,0z"></path>
                <path id="svg_6" d="m20.04466,65.55158l0,18.69029l2.94573,0l2.94582,0l0,-6.29784l0,-6.29775l7.11042,0l7.11051,0l0,2.07217c0,1.70645 -0.0813,2.21436 -0.40638,2.74258c-0.77193,1.27985 -1.15799,1.38146 -4.48969,1.3205l-2.98647,-0.06097l0.18291,0.87364c0.10152,0.48749 0.46726,1.72677 0.81258,2.74258l0.62985,1.88937l3.41299,0c4.24589,0 5.13986,-0.26411 6.9276,-2.01131c1.9096,-1.86904 1.80807,-0.87355 1.80807,-18.85279l0,-15.50077l-13.00198,0l-13.00198,0l0,18.6903l0,0l0.00002,0zm20.1124,-11.27521l0,1.93002l-7.11042,0l-7.11042,0l0,-1.93002l0,-1.92992l7.11042,0l7.11042,0l0,1.92992zm0,9.75149l0,2.3363l-7.11042,0l-7.11042,0l0,-2.3363l0,-2.33621l7.11042,0l7.11042,0l0,2.33621z"></path>
            </g>
        </g>
    </g>
</svg>