<svg width="100" height="100" xmlns="http://www.w3.org/2000/svg" xmlns:svg="http://www.w3.org/2000/svg" xmlns:xlink="http://www.w3.org/1999/xlink">
    <defs>
        <linearGradient id="linearGradient4775">
            <stop offset="0" id="stop4777" stop-color="#a3977f"></stop>
            <stop stop-color="#ffffff" id="stop4779" offset="0.74558"></stop>
            <stop offset="1" id="stop4781" stop-color="#9f9f9f"></stop>
        </linearGradient>
        <linearGradient id="linearGradient4739">
            <stop stop-color="#e3eaf2" id="stop4741" offset="0"></stop>
            <stop stop-color="#59698e" id="stop4743" offset="1"></stop>
        </linearGradient>
        <radialGradient xlink:href="#linearGradient4739" id="radialGradient4717" cx="50.0368" cy="50.71226" fx="50.0368" fy="50.71226" r="50.0368" gradientTransform="matrix(0.67667481,-2.4143896e-7,-2.4216181e-7,0.6787007,36.852038,-34.41871)" gradientUnits="userSpaceOnUse"></radialGradient>
        <radialGradient xlink:href="#linearGradient4775" id="radialGradient4773" cx="50" cy="50" fx="50" fy="50" r="41.81483" gradientTransform="translate(0,1.368425e-5)" gradientUnits="userSpaceOnUse"></radialGradient>
    </defs>
    <metadata id="metadata7">image/svg+xmlimage/svg+xmlimage/svg+xmlimage/svg+xmlimage/svg+xmlimage/svg+xmlimage/svg+xml</metadata>
    <g>
        <title>Layer 1</title>
        <ellipse fill="url(#radialGradient4773)" fill-rule="evenodd" stroke="#000000" stroke-width="3" stroke-miterlimit="4" ry="40.31482" rx="40.31483" cy="50" cx="50" id="path4757"></ellipse>
        <rect fill="url(#radialGradient4717)" fill-rule="evenodd" stroke="#000000" stroke-width="2.89203" stroke-linecap="square" stroke-miterlimit="4" transform="matrix(0.70710438,0.70710918,-0.70710438,0.70710918,0,0) " y="-33.96025" x="36.85204" height="67.92002" width="67.71727" id="rect4709"></rect>
        <g fill="#000000" id="g4187" transform="matrix(0.65496383,0,0,0.65496383,17.251805,17.278492) ">
            <path d="m16.81263,20.83503l0,2.74949l11.83299,0l11.85336,0l-0.14257,1.42566c-0.3666,3.93075 -2.60693,14.58249 -3.17719,15.15275c-0.14257,0.14256 -0.32587,0.04073 -0.5499,-0.28513c-1.1609,-1.6497 -4.84725,-5.84521 -7.59674,-8.61508l-3.17719,-3.23829l-2.28106,1.36456c-1.26273,0.75356 -2.28106,1.44603 -2.28106,1.54786c0,0.10183 0.8554,1.07943 1.89409,2.15886c4.09369,4.33809 7.98371,8.96131 10.40733,12.34216l1.12016,1.58859l-0.50916,1.1609c-1.54786,3.50306 -6.08961,10.89613 -8.73727,14.19552c-3.07536,3.84929 -5.33605,6.15072 -9.91853,10.1222l-0.5499,0.46844l1.83299,2.17922c1.01833,1.222 1.93483,2.19959 2.05703,2.19959c0.38696,0 8.9002,-8.69653 10.63137,-10.89613c2.58655,-3.25866 5.41752,-7.59674 7.12831,-10.9165l1.50713,-2.89205l1.01833,2.03666c1.32383,2.62729 2.85132,6.25255 4.25661,10.1222c0.611,1.69043 1.14053,3.09573 1.18127,3.13646c0.04073,0.04073 1.26273,-0.59064 2.70876,-1.38493l2.64766,-1.44603l-0.50916,-1.67006c-1.5886,-5.21385 -4.86762,-12.48473 -7.51527,-16.68025l-0.4888,-0.77393l0.81466,-2.38289c2.17923,-6.31365 3.50305,-13.78819 4.15479,-23.74746l0.1222,-1.77189l-14.86762,0l-14.86762,0l0,2.74949l0,0.00001z" id="path4189"></path>
            <path d="m48.38086,20.83503l0,2.74949l1.38493,0l1.36456,0l1.26273,5.15275c2.1385,8.67617 4.41956,15.66192 7.61711,23.15682l1.60897,3.74746l-0.8554,1.44603c-4.19552,7.10794 -10.22403,13.72709 -17.27087,18.94093l-1.83299,1.38493l0.95723,1.14053c2.38289,2.81059 2.79023,3.27902 2.97352,3.27902c0.10184,0 0.7332,-0.4277 1.42567,-0.95723c6.17108,-4.68432 11.87373,-10.73319 16.10998,-17.00611l1.60896,-2.38288l1.67006,2.79022c4.92872,8.32994 9.40937,13.82893 13.62525,16.72098c1.14053,0.7943 0.87577,0.9165 3.38086,-1.81262l1.58859,-1.75153l-1.42566,-1.09979c-2.15886,-1.69043 -5.94704,-5.70265 -8.10591,-8.5947c-2.13849,-2.85133 -4.19552,-6.15072 -6.10998,-9.79634l-1.26273,-2.38289l0.93686,-2.09776c3.44196,-7.75967 6.06925,-16.61914 7.65784,-25.96741c0.4888,-2.79023 0.611,-4.11405 0.611,-6.45621l0,-2.95316l-14.46029,0l-14.46029,0l0,2.74949l0,-0.00002zm23.21792,2.87169c0,0.0611 -0.7943,3.42159 -1.75153,7.45418c-2.3829,10 -4.29736,16.88391 -4.76579,17.16904c-0.40733,0.2444 -2.87169,-5.49898 -4.56212,-10.52953c-1.26272,-3.78819 -3.99185,-13.40123 -3.99185,-14.07332c0,-0.08147 3.40123,-0.14257 7.53564,-0.14257c4.15479,0 7.53564,0.0611 7.53564,0.1222l0.00001,0z" id="path4191"></path>
        </g>
    </g>
</svg>