<svg xmlns:dc="http://purl.org/dc/elements/1.1/" xmlns:cc="http://creativecommons.org/ns#" xmlns:rdf="http://www.w3.org/1999/02/22-rdf-syntax-ns#" xmlns:svg="http://www.w3.org/2000/svg" xmlns="http://www.w3.org/2000/svg" xmlns:xlink="http://www.w3.org/1999/xlink" xmlns:sodipodi="http://sodipodi.sourceforge.net/DTD/sodipodi-0.dtd" xmlns:inkscape="http://www.inkscape.org/namespaces/inkscape" width="299.99998" height="299.99998" id="svg4197" version="1.1" inkscape:version="0.91 r13725" sodipodi:docname="Símbolo_Byakugan.svg">
    <sodipodi:namedview pagecolor="#ffffff" bordercolor="#666666" borderopacity="1" objecttolerance="10" gridtolerance="10" guidetolerance="10" inkscape:pageopacity="0" inkscape:pageshadow="2" inkscape:window-width="1280" inkscape:window-height="737" id="namedview4236" showgrid="false" inkscape:zoom="1.5733335" inkscape:cx="155.40253" inkscape:cy="149.99998" inkscape:window-x="-8" inkscape:window-y="-8" inkscape:window-maximized="1" inkscape:current-layer="layer1"/>
    <defs id="defs4199">
        <radialGradient id="svg_6" cx="150.03194" cy="149.96805" r="166.42232" gradientTransform="matrix(0.87317698,1.4262981e-4,-1.4471675e-4,0.88593181,19.01725,769.4794)" fx="150.03194" fy="149.96805" gradientUnits="userSpaceOnUse" spreadMethod="pad">
            <stop offset="0.52397" stop-color="#d8efea" id="stop51"/>
            <stop id="stop4388" stop-color="#8eb5d2" offset="0.83228"/>
            <stop id="stop4386" stop-color="#34758f" offset="0.94189" stop-opacity="0.94118"/>
            <stop offset="1" stop-color="#2a4e6e" id="stop53"/>
        </radialGradient>
        <filter id="filter5159" x="-0.05037" width="1.10074" y="-0.04584" height="1.09169" color-interpolation-filters="sRGB">
            <feGaussianBlur stdDeviation="10.42085" id="feGaussianBlur5161"/>
        </filter>
        <filter id="filter4178" x="-0.05739" width="1.11478" y="-0.06286" height="1.12572" color-interpolation-filters="sRGB">
            <feGaussianBlur stdDeviation="5.46685" id="feGaussianBlur4180"/>
        </filter>
        <radialGradient xlink:href="#svg_7-9-5" id="radialGradient6090" cx="427.80228" cy="548.80481" fx="427.80228" fy="548.80481" r="287.35678" gradientTransform="matrix(0.40181225,0,0,0.38306323,-21.895156,692.13684)" gradientUnits="userSpaceOnUse"/>
        <radialGradient id="svg_7-9-5" cx="146.35814" cy="153.73248" r="336.9295" gradientTransform="matrix(0.35666156,1.2680122e-8,-1.2895293e-8,0.41269323,332.46576,58.36474)" fx="146.35814" fy="153.73248" gradientUnits="userSpaceOnUse" spreadMethod="pad">
            <stop offset="0.45518" stop-color="#f8efcb" id="stop56-6-5"/>
            <stop id="stop6208-0" stop-color="#cbf7dc" offset="0.87972"/>
            <stop offset="1" stop-color="#cbf7dc" id="stop58-8-2"/>
        </radialGradient>
        <filter id="filter6266" x="-0.07032" width="1.14063" y="-0.07377" height="1.14753" color-interpolation-filters="sRGB">
            <feGaussianBlur stdDeviation="6.75181" id="feGaussianBlur6268"/>
        </filter>
        <radialGradient inkscape:collect="always" xlink:href="#svg_6" id="radialGradient4814" gradientUnits="userSpaceOnUse" gradientTransform="translate(0,2.4300827e-5)" cx="149.99998" cy="150" fx="149.99998" fy="150" r="149.99998"/>
        <radialGradient inkscape:collect="always" xlink:href="#svg_7-9-5" id="radialGradient4816" gradientUnits="userSpaceOnUse" gradientTransform="translate(0,2.4300827e-5)" cx="149.99998" cy="150" fx="149.99998" fy="150" r="149.99998"/>
        <radialGradient inkscape:collect="always" xlink:href="#svg_6" id="radialGradient4840" gradientUnits="userSpaceOnUse" gradientTransform="translate(0,2.4300827e-5)" cx="149.99998" cy="150" fx="149.99998" fy="150" r="149.99998"/>
        <filter inkscape:collect="always" style="color-interpolation-filters:sRGB" id="filter4178-2" x="-0.057387754" width="1.1147755" y="-0.062861398" height="1.1257228">
            <feGaussianBlur inkscape:collect="always" stdDeviation="5.4668491" id="feGaussianBlur4180-7"/>
        </filter>
    </defs>
    <metadata id="metadata4221">image/svg+xml<rdf:RDF>
        <cc:Work rdf:about="">
            <dc:format>image/svg+xml</dc:format>
            <dc:type rdf:resource="http://purl.org/dc/dcmitype/StillImage"/>
            <dc:title/>
        </cc:Work>
    </rdf:RDF>
    </metadata>
    <g style="fill:url(#radialGradient4840);fill-opacity:1" id="layer1">
        <path inkscape:connector-curvature="0" style="opacity:0.95999995;fill:url(#radialGradient4814);fill-opacity:1;fill-rule:evenodd;stroke:#000000;stroke-width:8.147;stroke-miterlimit:4;stroke-dashoffset:0;stroke-dasharray:none" id="path3834" d="m 295.92625,149.99999 c 0.0353,80.58258 -65.30844,145.92627 -145.92626,145.92627 -80.61783,0 -145.9616,-65.34369 -145.92627,-145.92627 C 4.03842,69.41743 69.38216,4.07375 149.99999,4.07375 c 80.61782,0 145.96159,65.34368 145.92626,145.92624 z" stroke-miterlimit="4"/>
        <path inkscape:connector-curvature="0" style="fill:url(#radialGradient4816);fill-opacity:1.0;fill-rule:evenodd;stroke:#96b5b5;stroke-width:1.23800004;stroke-miterlimit:4;filter:url(#filter6266)" stroke-miterlimit="4" id="path5505" d="m 123.63694,259.25086 c -3.69986,-1.8722 -7.02082,-12.16815 -7.06364,-21.89955 l -0.0168,-3.8268 -1.60685,2.0091 c -7.55188,9.4421 -12.65163,12.30605 -15.62368,8.774 -1.80847,-2.1492 -2.38219,-4.4564 -2.68141,-10.7831 -0.2984,-6.30947 0.69726,-14.4177 2.56033,-20.85 0.63912,-2.20665 1.0743,-4.0121 0.96701,-4.0121 -0.10729,0 -2.88344,2.09068 -6.16923,4.64595 -10.44445,8.1224 -18.02907,12.30838 -23.23601,12.82408 -5.80347,0.5748 -7.74975,-4.57814 -5.41208,-14.32892 1.70285,-7.10285 6.15606,-17.50223 10.27091,-23.98513 0.87669,-1.38122 1.76061,-2.78836 1.96426,-3.12699 0.20365,-0.33862 -2.56849,0.85823 -6.16032,2.65967 -3.59181,1.80144 -8.16175,3.83015 -10.15541,4.50824 -4.31101,1.46627 -8.5016,1.63333 -9.74638,0.38853 -2.16527,-2.16526 0.76706,-9.19083 7.60675,-18.22509 3.82796,-5.05617 4.21566,-5.77492 4.21566,-7.81511 l 0,-2.24683 -3.13915,-0.0255 -3.13916,-0.0256 4.77152,-2.49636 c 2.86385,-1.4983 4.1691,-2.39164 3.26473,-2.23442 -5.11556,0.88933 -19.30313,2.75453 -23.19839,3.04983 -6.98361,0.52944 -9.02325,-0.32526 -5.30408,-2.22264 3.88247,-1.98069 17.47452,-5.56122 23.47981,-6.18525 1.18997,-0.12364 0.34506,-0.55935 -4.01812,-2.07211 -8.85468,-3.06999 -12.80065,-5.94984 -12.80589,-9.34597 -10e-4,-0.78086 0.7794,-1.96479 2.18087,-3.30763 3.85886,-3.69742 14.40294,-7.32496 26.78307,-9.21432 l 5.94162,-0.90675 -4.52039,-1.35731 c -17.97477,-5.39717 -27.87572,-10.36602 -27.87572,-13.9896 0,-1.65113 1.27838,-2.72578 4.6539,-3.91219 4.55392,-1.60056 9.59198,-2.13612 18.06611,-1.92046 4.355,0.11082 7.91818,0.13709 7.91818,0.0584 0,-0.0787 -1.6101,-2.31362 -3.57798,-4.96645 -6.95512,-9.37589 -10.98772,-17.47781 -10.98772,-22.0755 0,-1.04941 0.45405,-2.20441 1.21326,-3.08625 1.16046,-1.3479 1.40642,-1.40884 5.65049,-1.39997 3.32534,0.007 5.31823,0.3075 7.95308,1.19944 4.79116,1.62188 11.80568,5.14584 16.19805,8.13757 2.00277,1.36413 3.64142,2.34391 3.64142,2.17726 0,-0.16663 -0.69375,-2.26256 -1.54166,-4.65759 -3.47415,-9.81324 -4.52242,-18.08067 -2.76272,-21.78896 1.30726,-2.75483 3.67905,-3.70328 7.48901,-2.99474 4.15721,0.77311 10.23023,3.91793 16.15258,8.3644 3.91711,2.94093 5.39379,3.77166 6.70876,3.77413 1.16049,0.002 1.60097,-0.19255 1.41297,-0.62467 -7.89383,-18.14565 -10.99386,-27.203 -9.91058,-28.95577 0.30721,-0.4971 0.65368,-0.52317 1.4301,-0.10764 3.00115,1.60616 11.55143,14.02766 16.51699,23.9952 1.86627,3.74622 3.44641,6.61688 3.51144,6.37925 0.0651,-0.23765 0.58508,-3.19931 1.15569,-6.5815 1.67413,-9.92318 3.98484,-16.40019 7.128,-19.98007 3.84585,-4.38017 7.76784,-4.33427 13.00931,0.15223 2.49147,2.13261 6.38282,7.88519 8.04226,11.88886 0.63541,1.5331 1.30068,2.78744 1.47834,2.78744 0.17766,0 0.60015,-1.50399 0.93885,-3.34221 0.87047,-4.72421 3.36656,-12.27105 4.72563,-14.28778 2.31505,-3.43529 4.86935,-1.59046 6.89978,4.9833 2.37476,7.68856 4.40756,24.93842 3.86747,32.81824 -0.14843,2.16545 -0.12172,3.92887 0.0593,3.9187 0.18105,-0.0103 1.79833,-2.20106 3.59393,-4.86864 8.61389,-12.79695 17.77877,-23.91874 22.68873,-27.53324 3.75091,-2.76126 6.09583,-3.30949 7.61968,-1.78144 1.00175,1.0045 1.07944,1.56634 1.03331,7.47311 -0.0426,5.4583 -0.2773,7.23968 -1.61412,12.25177 -1.27467,4.77909 -3.33245,10.58007 -5.47048,15.42159 -0.16845,0.38145 2.27197,-1.39123 5.42316,-3.9393 6.36503,-5.14678 14.48879,-10.74163 18.20599,-12.53851 2.96007,-1.4309 6.55089,-1.92396 7.61001,-1.04498 3.2458,2.69379 -4.51067,19.12635 -13.82108,29.28077 -1.71999,1.87591 -3.0413,3.49669 -2.93627,3.60175 0.10506,0.10505 1.98649,-0.23679 4.18097,-0.75962 6.18275,-1.47302 13.25245,-2.11869 16.13225,-1.47331 3.09478,0.69356 3.73102,1.24263 3.73102,3.21983 0,4.38568 -8.56062,12.5909 -19.10632,18.31313 -4.09062,2.21963 -3.86539,2.56239 1.69369,2.57753 4.41312,0.0121 13.11534,1.13685 17.41517,2.25104 4.13357,1.07112 7.65261,2.8734 9.03768,4.62865 1.38973,1.76117 1.16782,4.80838 -0.51605,7.08593 -1.52388,2.06116 -6.0357,5.1536 -9.69883,6.64767 -3.31982,1.35405 -3.50826,1.1764 3.43487,3.23847 5.60874,1.66577 10.21064,3.8152 12.25306,5.7231 6.3654,5.94617 -7.81336,12.46666 -31.53819,14.50373 l -4.21715,0.36209 4.21715,1.70641 c 8.97838,3.63296 18.33734,8.82034 23.41294,12.97704 6.11694,5.0095 6.89763,11.10378 1.90977,14.90821 -5.73973,4.37791 -20.3285,7.97303 -28.83826,7.10665 -3.71493,-0.37822 -5.07505,-0.96824 -5.07505,-2.20157 0,-0.67457 -1.3451,-1.32033 -5.81355,-2.791 -3.19746,-1.05237 -5.91125,-1.8157 -6.03065,-1.6963 -0.11938,0.11939 0.69981,2.68291 1.82046,5.6967 4.16968,11.21365 6.63553,21.02243 6.68067,26.57473 0.0481,5.91227 -1.71021,7.35407 -6.3692,5.22287 -3.41742,-1.5632 -12.2025,-10.32077 -16.04438,-15.99414 -1.57987,-2.33303 -2.87061,-3.91515 -2.86831,-3.51586 0.002,0.3993 0.33662,3.2122 0.74297,6.25091 1.16603,8.71969 1.49591,18.52709 0.78639,23.37999 -1.0991,7.51745 -3.09658,10.52285 -6.99385,10.52285 -3.50948,0 -6.36271,-1.7153 -11.64482,-7.00065 -4.88927,-4.8923 -10.49103,-12.6242 -13.31877,-18.3835 l -1.46994,-2.99377 -0.30946,9.29187 c -0.3359,10.0859 -1.24755,15.37875 -3.13226,18.18515 -2.24787,3.3471 -6.16901,2.0084 -9.86913,-3.3696 -2.29273,-3.33225 -5.29629,-9.63065 -6.52635,-13.68545 -0.60757,-2.0028 -1.17054,-3.6414 -1.25108,-3.6414 -0.0806,0 -0.98778,2.3167 -2.01611,5.1482 -4.19888,11.56165 -9.07419,19.79805 -12.588,21.26625 -2.04707,0.8553 -2.15531,0.8572 -3.72036,0.065 l 10e-6,3e-4 z"/>
        <path style="fill:#ffffff;fill-opacity:1;stroke:#e6e4c7;stroke-width:3.99999952;stroke-miterlimit:4;stroke-dasharray:none;stroke-opacity:1;filter:url(#filter4178-2)" d="m 87.475616,254.14642 c 0,-0.1362 0.55845,-2.3971 1.24099,-5.0241 2.52635,-9.72343 2.85865,-14.00603 2.7171,-35.01753 -0.12503,-18.5598 -0.0799,-19.6509 1.02031,-24.6581 0.63312,-2.8814 1.71864,-6.7468 2.4123,-8.5896 0.69364,-1.8429 1.20103,-3.3858 1.12752,-3.4287 -0.0735,-0.043 -1.84868,-0.7235 -3.94483,-1.5125 -5.1133,-1.9246 -11.22366,-5.2409 -21.59661,-11.7214 -11.57127,-7.229 -20.28084,-11.4717 -28.17811,-13.7261 -6.14741,-1.7549 -6.58822,-2.4572 -6.58822,-2.4572 0,0 3.29878,-1.1506 7.07184,-2.3391 9.21906,-2.9039 15.19531,-5.8096 26.67817,-12.9713 11.08218,-6.91167 19.23326,-11.20337 24.51852,-12.90937 2.02627,-0.6541 3.68413,-1.3947 3.68413,-1.6457 0,-0.2511 -0.3786,-2.6835 -0.84134,-5.4055 -0.66351,-3.903 -0.79988,-7.3656 -0.64517,-16.382597 0.42008,-24.48319 -0.026,-31.06631 -2.81098,-41.485926 -0.66184,-2.47618 -1.11616,-4.59028 -1.00959,-4.698 0.10656,-0.10771 2.57764,2.0802 5.49129,4.86202 6.544224,6.248126 12.394244,10.204246 25.477694,17.229446 11.49231,6.17086 18.33339,10.50876 23.0532,14.61786 l 3.23511,2.8166 2.22405,-2.7303 c 4.6475,-5.7053 13.09582,-11.49238 29.67149,-20.325 10.29274,-5.48465 17.67263,-10.542676 23.77851,-16.297296 2.87695,-2.71145 5.45361,-4.70711 5.45361,-4.70711 0,0 -0.23227,1.80852 -0.78846,3.74661 -2.89228,10.0782 -3.7356,19.966456 -2.97958,34.936696 0.65376,12.9457 0.11512,21.420897 -1.85499,29.187297 -0.68762,2.7108 -1.25023,5.0747 -1.25023,5.2533 0,0.1785 1.42919,0.8427 3.17597,1.4758 5.25078,1.9031 12.7455,5.8767 21.92815,11.62577 4.77854,2.9918 9.94594,6.1561 11.48311,7.0317 3.89966,2.2214 13.03869,5.8692 18.92881,7.5554 2.72498,0.7801 4.95452,1.5956 4.95452,1.8122 0,0.2166 -0.97185,0.6435 -2.15967,0.9488 -12.88765,3.3115 -17.37748,5.4537 -37.73057,18.0018 -6.64735,4.0982 -14.1717,7.9246 -18.03954,9.1736 -1.53717,0.4964 -2.84469,0.9406 -2.9056,0.9871 -0.0609,0.047 0.44147,1.7167 1.11638,3.7116 2.94372,8.7009 3.05364,9.8655 3.08214,32.654 0.0279,22.2995 0.26387,25.269 2.74596,34.55473 1.66527,6.2298 1.54808,6.2684 -3.65777,1.206 -7.79863,-7.58383 -11.3974,-10.03413 -27.23551,-18.54413 -15.06378,-8.0939 -23.42913,-14.2306 -28.9091,-21.2072 l -0.93919,-1.1957 -1.47306,2.1257 c -2.26465,3.2678 -8.53046,8.8591 -13.93204,12.4321 -2.6828,1.7746 -9.45123,5.6737 -15.04096,8.6646 -13.46293,7.2038 -19.12264,11.0311 -25.679074,17.36553 -4.96414,4.796 -6.08068,5.7147 -6.08068,5.0032 z m 18.039544,-26.72143 c 4.75387,-4.1191 8.65215,-6.6351 18.57447,-11.988 9.24656,-4.9884 14.07317,-8.9425 17.71008,-14.5086 l 1.97124,-3.0169 -1.43698,-4.2248 c -2.06158,-6.0612 -2.6673,-9.8826 -2.64064,-16.6593 0.0129,-3.284 -0.0905,-5.9709 -0.22975,-5.9709 -0.13927,0 -0.9063,0.4651 -1.70449,1.0334 -4.87683,3.4726 -15.52173,6.5298 -24.18037,6.9445 l -6.16481,0.2953 -0.88253,1.8342 c -2.99998,6.2353 -3.37237,8.992 -3.33664,24.7013 0.0268,11.8047 -0.10958,14.3941 -0.97718,18.5477 -1.11802,5.3524 -0.64061,6.0961 -0.64061,6.0961 0,0 1.98181,-1.3888 3.93821,-3.084 z m 92.40264,2.1965 c 0.12777,-0.2097 -0.24137,-2.3249 -0.82031,-4.7005 -0.94678,-3.8849 -1.04398,-5.7084 -0.96658,-18.1325 0.0946,-15.1864 -0.35353,-19.2221 -2.71987,-24.495 l -1.32848,-2.9603 -5.93424,-0.2904 c -9.00086,-0.4406 -19.52931,-3.5897 -24.98176,-7.4722 -0.78957,-0.5622 -1.56223,-1.0222 -1.71701,-1.0222 -0.15477,0 -0.14452,2.2469 0.0228,4.9932 0.36638,6.0139 -0.40352,11.8756 -2.36084,17.9744 l -1.41852,4.42 1.29173,1.9319 c 4.05781,6.0691 8.22011,9.6988 15.60704,13.6101 11.90237,6.3022 19.26106,11.1136 22.83505,14.9306 1.51908,1.6224 2.07608,1.8936 2.491,1.2129 z m -74.23864,-63.1472 c 3.7043,-1.3948 7.43887,-3.7275 6.32989,-3.9539 -1.57014,-0.3205 -7.59777,1.8074 -10.5196,3.7136 l -2.79486,1.8234 2.2867,-0.3376 c 1.25769,-0.1857 3.37172,-0.7462 4.69787,-1.2455 z m 57.08809,-0.2388 c -2.89369,-2.0573 -7.06743,-3.7266 -10.40625,-4.162 l -2.34265,-0.3055 1.2704,1.0173 c 2.78525,2.2305 9.8855,5.1343 12.70226,5.195 1.10647,0.024 0.94993,-0.1994 -1.22376,-1.7448 z m -75.8308,-1.7963 c 3.21528,-3.9783 9.68659,-9.1267 14.39819,-11.4547 l 3.74283,-1.8494 -3.69959,-2.5294 c -2.03478,-1.3912 -5.03286,-3.8262 -6.6624,-5.411 -3.22434,-3.136 -8.61476,-10.0353 -9.88425,-12.6511 -0.67341,-1.3876 -0.9963,-1.5918 -2.10469,-1.3309 -2.723174,0.6411 -8.675434,3.7103 -15.791704,8.1427 -8.97971,5.5932 -10.21768,6.2312 -16.00691,8.249 -2.51536,0.8768 -4.88499,1.7055 -5.26582,1.8416 -1.36212,0.4867 0.45419,1.6818 4.66874,3.072 5.37061,1.7715 7.7061,2.9626 16.45393,8.392 3.97,2.464 8.19771,4.9798 9.39493,5.5905 2.21483,1.13 6.855734,2.896 7.778364,2.9599 0.27948,0.019 1.61975,-1.3401 2.97838,-3.0212 z m 99.32681,0.5031 c 2.3271,-1.1037 7.12918,-3.8062 10.67128,-6.0056 8.31243,-5.1614 11.03031,-6.5418 16.6033,-8.433 3.03672,-1.0305 4.5734,-1.8081 4.5734,-2.3142 0,-0.5048 -1.54462,-1.2924 -4.5734,-2.332 -5.62439,-1.9305 -8.515,-3.3842 -16.00692,-8.0498 -8.55144,-5.3255 -10.33565,-6.3065 -13.92867,-7.6589 l -3.24452,-1.2213 -2.59583,3.4909 c -4.90479,6.5959 -12.58248,12.7241 -19.50104,15.5654 l -3.36445,1.3816 3.8388,1.6688 c 6.58323,2.8619 9.37698,4.8364 15.16269,10.7165 6.41558,6.5202 5.72354,6.3415 12.36536,3.1916 z m -67.24285,-24.3759 c -1.39483,-2.6974 -6.48279,-7.4167 -9.80283,-9.0926 -3.13199,-1.581 -6.84534,-2.698 -11.23063,-3.3781 l -2.2321,-0.3462 1.72394,2.4056 c 4.81941,6.7249 13.33519,11.7484 20.15767,11.8911 l 2.17271,0.045 -0.78876,-1.5253 z m 34.28999,-3.8391 c 4.01985,-0.9474 8.72182,-3.511 12.02292,-6.555 l 2.47048,-2.278 -2.54078,0.2981 c -6.10852,0.7167 -12.89462,3.8114 -16.4877,7.5189 l -1.75119,1.807 1.49711,-0.01 c 0.82341,0 2.97854,-0.3567 4.78916,-0.7835 z m -18.34212,-13.69147 c 0.0467,-2.8365 -1.19489,-9.334 -1.92269,-10.0618 -0.66821,-0.6682 -1.25928,4.6851 -0.84408,7.645 0.18646,1.3292 0.7122,3.5602 1.16832,4.9576 0.75577,2.31547 0.86155,2.42807 1.19296,1.27037 0.20001,-0.69867 0.38248,-2.41377 0.40549,-3.81117 z m -13.19057,-11.9417 c 0.32251,-1.2576 1.32049,-4.4292 2.21776,-7.0479 l 1.6314,-4.761097 -2.87372,-2.6071 c -3.0675,-2.7829 -4.81635,-3.8811 -14.43153,-9.0627 -7.83161,-4.2205 -12.39207,-7.2354 -16.31298,-10.78442 -2.97783,-2.69539 -4.2394,-3.3989 -4.2394,-2.36408 0,0.25743 0.48436,2.48696 1.07636,4.9545 0.95968,4.0001 1.08733,6.1668 1.17736,19.9853 0.0555,8.524297 0.28387,16.013197 0.50737,16.642097 0.36145,1.0169 0.751,1.1435 3.52309,1.1452 7.15378,0.01 17.73634,2.6176 23.46565,5.7944 l 3.02624,1.678 0.32301,-5.6427 c 0.17766,-3.1035 0.58689,-6.6718 0.90939,-7.9295 z m 27.63198,10.3979 c 4.80149,-2.1982 12.2124,-3.8164 18.99906,-4.1485 6.07645,-0.2973 6.20477,-0.3283 6.72484,-1.6247 1.69734,-4.231 2.05626,-8.0641 2.07458,-22.155997 0.016,-12.2595 0.15762,-14.8577 1.02382,-18.77605 0.55293,-2.50122 1.00532,-4.73075 1.00532,-4.95452 0,-0.94825 -1.28599,-0.24678 -3.98381,2.17306 -4.03015,3.61488 -9.67247,7.26271 -19.2216,12.42691 -8.47995,4.5859 -13.28199,8.2566 -16.0759,12.2882 l -1.38898,2.0043 2.26418,4.787297 c 2.50393,5.2942 4.57007,11.8822 5.12867,16.353 0.20042,1.6042 0.42477,2.9167 0.49854,2.9167 0.0738,0 1.40184,-0.5804 2.95128,-1.2897 z" id="path6483" inkscape:connector-curvature="0" sodipodi:nodetypes="csssscssscssssssscssscssscsssssssscssscsscsssccssscssscssssscssscscssscsssssccssccssscsssscscssscsssssscssccsssssssscsscssscsscscccccscssccccsssssssscssscssccscssssssscssscsscs"/>
        <g style="fill:#ffffff;fill-opacity:1;filter:url(#filter5159)" id="g7096" transform="matrix(0.37767146,0,0,0.37767146,9.4883554,719.87326)">
            <g style="fill:#ffffff;fill-opacity:1" id="g7086">
                <path inkscape:connector-curvature="0" style="fill:#ffffff;fill-opacity:1;stroke-width:36.54793167;stroke-miterlimit:4" stroke-miterlimit="4" d="m 367.72035,-1769.0404 c -7.16965,29.232 -26.47966,52.9653 -40.93789,78.7125 -12.79559,22.5915 -18.31781,49.6486 -12.1859,75.1595 4.19969,24.7496 19.56468,48.8975 43.3364,58.6302 14.58412,3.5325 31.42799,2.2026 42.85055,-8.5097 23.00781,-17.6855 31.55255,-47.9981 31.2107,-75.939 -0.69798,-30.746 -18.52554,-57.0523 -34.67199,-81.9198 -10.8844,-17.0098 -18.76854,-35.7574 -23.49326,-55.3676 -2.43926,-10.7609 -5.09908,7.1616 -6.10861,9.2339 z m 8.52365,50.9525 c 7.1573,25.0486 29.23186,43.2601 33.71455,69.2679 2.67181,20.3761 -0.33517,44.0078 -17.28523,57.7517 -7.79243,8.5432 -20.22535,9.1482 -30.80114,6.778 -17.92262,-8.1201 -28.3418,-27.8534 -28.33089,-47.1312 -1.45425,-16.1985 3.21904,-32.3897 12.5259,-45.6637 9.52769,-15.4981 19.9211,-30.8582 24.35233,-48.7687 2.44469,-8.9905 4.69086,6.124 5.82448,7.766 z" id="path4212-3"/>
                <path inkscape:connector-curvature="0" style="fill:#ffffff;fill-opacity:1;stroke-width:36.54793167;stroke-miterlimit:4" stroke-miterlimit="4" d="m 608.06169,-1365.7074 c -40.63279,-12.2796 -83.93087,3.8782 -124.29964,-9.7309 -25.79489,-9.4015 -49.45197,-28.7705 -60.09607,-54.545 -6.103,-15.5852 -8.39613,-34.5706 2.4046,-48.7735 10.30905,-17.7467 32.91362,-22.8409 52.01437,-22.8854 33.48572,1.8547 65.8432,20.0656 83.55245,48.807 17.48813,27.1662 28.25283,59.2354 52.7302,81.462 6.42895,4.9508 9.77873,11.6596 -1.24766,7.062 l -2.45555,-0.6479 -2.6027,-0.7483 z m -39.86429,-32.8579 c -20.3028,-21.0101 -24.47379,-55.313 -51.87414,-69.7576 -17.83338,-11.8526 -42.8438,-15.5995 -60.97911,-2.3699 -13.97014,12.3491 -12.41864,33.0694 -2.7588,47.4978 14.43574,20.2941 39.96634,32.8815 65.01432,30.2622 18.1956,-0.5393 36.67347,-1.7249 54.41103,3.2946 9.38087,2.5837 -3.15675,-7.2491 -3.8133,-8.9271 z" id="path4212-7-1-6-8"/>
                <path inkscape:connector-curvature="0" style="fill:#ffffff;fill-opacity:1;stroke-width:36.54793167;stroke-miterlimit:4" stroke-miterlimit="4" d="m 136.03279,-1365.7074 c 34.86872,-10.4676 71.34013,-0.2374 106.73546,-5.5373 30.95855,-4.4235 59.24911,-24.5198 74.4748,-51.6866 8.4875,-17.0649 13.12682,-39.3173 0.78085,-55.8255 -10.30904,-17.7467 -32.91362,-22.8409 -52.01436,-22.8854 -33.49763,1.8472 -65.80991,20.1088 -83.55246,48.807 -17.48398,27.1666 -28.25843,59.235 -52.73019,81.462 -6.42895,4.9508 -9.77874,11.6596 1.24766,7.062 l 2.45554,-0.6479 2.6027,-0.7483 z m 39.8643,-32.8579 c 20.29847,-21.0062 24.47784,-55.3053 51.87414,-69.7576 17.80638,-11.9179 42.88511,-15.4848 60.97911,-2.3699 12.08388,10.8483 12.86799,28.3792 5.68372,42.1309 -9.37592,18.5144 -29.06127,30.623 -48.923,34.8926 -24.39844,2.656 -49.45657,-3.1543 -73.42728,4.0311 -9.38087,2.5837 3.15676,-7.2491 3.81331,-8.9271 z" id="path4212-7-1-3-6"/>
            </g>
            <g style="fill:#ffffff;fill-opacity:1" id="g7091">
                <path inkscape:connector-curvature="0" style="fill:#ffffff;fill-opacity:1;stroke-width:36.54793167;stroke-miterlimit:4" stroke-miterlimit="4" d="m 376.37973,-1248.3003 c 8.51876,-35.7956 35.98983,-62.6613 49.10239,-96.3994 11.47939,-30.7691 7.69039,-67.5786 -11.7117,-94.3367 -10.12341,-13.3845 -25.55025,-24.9206 -43.13222,-23.5017 -17.69228,-0.4185 -32.1915,12.0672 -41.95279,25.6427 -14.78186,21.9624 -19.4522,50.1597 -14.79707,76.0168 6.08725,30.4688 26.95043,54.5376 41.35772,81.1896 7.21887,13.6961 11.9688,28.511 15.94646,43.4005 3.60477,1.6056 3.64555,-9.9606 5.18721,-12.0118 z m -8.52366,-50.9524 c -7.82715,-27.3011 -33.88236,-47.3013 -34.43412,-77.0359 -1.58775,-20.2252 5.11781,-42.4621 22.83465,-53.9847 11.99057,-6.8373 28.49247,-5.0904 37.96065,5.302 17.20343,16.2009 19.76863,42.6541 13.69519,64.4261 -5.70373,18.2525 -19.37527,32.5021 -27.09152,49.8433 -4.59043,5.5733 -4.72317,19.461 -9.75869,21.1418 -1.57978,-3.0507 -1.86328,-6.5592 -3.20616,-9.6926 z" id="path4212-8-3"/>
                <path inkscape:connector-curvature="0" style="fill:#ffffff;fill-opacity:1;stroke-width:36.54793167;stroke-miterlimit:4" stroke-miterlimit="4" d="m 606.88611,-1647.7712 c -43.65359,13.254 -91.65214,-6.6775 -133.85129,13.7167 -31.01258,14.3718 -58.60187,45.742 -55.25626,81.7683 2.96474,21.9053 23.21727,37.2868 44.39515,39.3508 41.46203,5.9165 83.94725,-18.8504 103.04621,-55.4656 15.54425,-26.912 27.61924,-57.0917 52.03993,-77.543 6.71279,-9.1126 -6.9027,-2.2645 -10.37374,-1.8272 z m -39.8643,32.8579 c -20.57057,21.5749 -25.0135,56.6871 -53.56661,70.8448 -18.14611,11.4937 -45.07787,14.5655 -61.72596,-1.1273 -15.35167,-17.3975 -5.99541,-44.2424 10.62551,-57.2209 16.31645,-14.9919 39.22224,-20.6624 60.90391,-17.91 16.78871,0.7639 33.81707,0.481 50.13286,-3.9408 2.90491,2.4924 -5.70803,6.8689 -6.36971,9.3542 z" id="path4212-7-2"/>
                <path inkscape:connector-curvature="0" style="fill:#ffffff;fill-opacity:1;stroke-width:36.54793167;stroke-miterlimit:4" stroke-miterlimit="4" d="m 137.20838,-1647.7712 c 43.65359,13.254 91.65214,-6.6775 133.85129,13.7167 31.01258,14.3718 58.60187,45.742 55.25626,81.7683 -2.96474,21.9053 -23.21727,37.2868 -44.39515,39.3508 -41.46203,5.9165 -83.94725,-18.8504 -103.04621,-55.4656 -15.54425,-26.912 -27.61924,-57.0917 -52.03993,-77.543 -6.71279,-9.1126 6.9027,-2.2645 10.37374,-1.8272 z m 39.8643,32.8579 c 20.57057,21.5749 25.0135,56.6871 53.56661,70.8448 18.14611,11.4937 45.07787,14.5655 61.72596,-1.1273 15.35167,-17.3975 5.99541,-44.2424 -10.62551,-57.2209 -16.31645,-14.9919 -39.22224,-20.6624 -60.90391,-17.91 -16.78871,0.7639 -33.81707,0.481 -50.13286,-3.9408 -2.90491,2.4924 5.70803,6.8689 6.36971,9.3542 z" id="path4212-7-4"/>
            </g>
        </g>
        <path inkscape:connector-curvature="0" style="fill:#34758f;fill-opacity:1;fill-rule:evenodd;stroke:#000000;stroke-width:0;stroke-miterlimit:4;stroke-dashoffset:0" id="pupila" d="m 180.76175,150.02219 a 30.76178,30.76178 0 0 1 -61.52354,0 30.76178,30.76178 0 1 1 61.52354,0 z" stroke-miterlimit="4"/>
    </g>
</svg>