<svg xmlns="http://www.w3.org/2000/svg" width="280pt" height="188pt" viewBox="0 0 8268 11692" id="svg668" shape-rendering="geometricPrecision" text-rendering="geometricPrecision" image-rendering="optimizeQuality" fill-rule="evenodd">
    <defs id="defs669">
        <style id="style670">
            <![CDATA[
    .fil0 {fill:#000000}
   ]]>
        </style>
    </defs>
    <g id="Layer 1">
        <path class="fil0" d="M-4572.808 10721.16L693.238 7249.88 1847.152 9938.9l4077.164-2689.02L7064.243 9938.9 11148.4 7249.88l1685.415 3960.193L11742.84 11692 10616.9 9002.98 6518.758 11692 5378.83 9002.98 1315.65 11692 168.732 9002.98-3929.414 11692l-643.395-970.84zm6.994-7242.893L700.23.002l1153.915 2689.02L5938.303.002l1139.927 2689.02L11155.394.002l1685.414 3960.193-1090.973 481.928-1125.94-2689.02-4105.138 2689.02-1139.928-2689.02-4063.178 2689.02-1132.934-2689.02-4098.144 2689.02-650.388-963.856z" id="path672"/>
    </g>
</svg>