<svg xmlns="http://www.w3.org/2000/svg" width="264" height="188pt" viewBox="0 0 8268 11692" id="svg602" shape-rendering="geometricPrecision" text-rendering="geometricPrecision" image-rendering="optimizeQuality" fill-rule="evenodd">
    <defs id="defs603">
        <style id="style604">
            <![CDATA[
    .fil0 {fill:#000000}
   ]]>
        </style>
    </defs>
    <g id="Layer 1">
        <path class="fil0" d="M3685.244 11692v-603.75c0-1157.936-116.677-2446.534-345.544-3861.29-233.354-1419.26-516.07-2577.195-848.152-3473.807C1764.56 1806.74 983.72 833.533 144.544 833.533c-372.47 0-677.624 162.2-915.466 491.108-233.354 328.91-350.03 752.434-350.03 1279.588 0 693.86 219.89 1410.25 668.648 2149.165h-910.978c-439.783-797.49-659.675-1545.416-659.675-2239.277 0-720.894 206.43-1315.63 619.286-1793.224C-990.814 243.3-470.255-.002 153.52-.002c1009.704 0 1862.344 680.344 2571.382 2045.537 704.55 1356.182 1148.82 3180.945 1332.81 5474.29h152.58c152.576-2243.783 592.36-4059.535 1310.372-5442.75C6238.676 693.858 7109.267-.003 8118.972-.003c623.773 0 1139.845 238.796 1552.702 711.883 412.858 468.582 619.286 1063.32 619.286 1784.214 0 698.366-219.89 1450.8-655.186 2257.3h-915.466c444.27-797.49 668.65-1527.395 668.65-2198.727 0-536.165-116.678-968.702-345.545-1302.115-233.354-328.908-538.51-495.615-919.953-495.615-812.252 0-1570.653 910.13-2270.715 2721.375-359.007 923.646-655.187 2122.132-902.004 3595.46-242.328 1468.82-363.493 2820.497-363.493 4050.523V11692h-902.003z" id="path606"/>
    </g>
</svg>